<svg width="83" height="54" xmlns="http://www.w3.org/2000/svg"><g fill="none" fill-rule="evenodd"><path d="M0 0h83v54H0z" fill="#838383"/><g fill="#FFF" fill-rule="nonzero"><path d="M66.493 36.528V16.36c0-1.05-.758-1.861-1.638-1.861H19.137c-.88 0-1.637.811-1.637 1.861v20.167c0 1.05.757 1.861 1.637 1.861h45.718c.88 0 1.638-.811 1.638-1.861zm3 0c0 2.662-2.053 4.861-4.638 4.861H19.137c-2.585 0-4.637-2.199-4.637-4.861V16.36c0-2.662 2.052-4.861 4.637-4.861h45.718c2.585 0 4.638 2.199 4.638 4.861v20.167z"/><path d="M40.415 21a.703.703 0 0 0-.623.438l-.315.9-.653 1.863v.005l-.153.433c-.178 0-.349.069-.475.193A.655.655 0 0 0 38 25.3v2.647c0 .175.07.344.196.468a.675.675 0 0 0 .475.194h10.07c.178 0 .35-.07.475-.194a.655.655 0 0 0 .196-.468V25.3a.655.655 0 0 0-.196-.468.675.675 0 0 0-.475-.193l-.152-.433-.001-.005-.653-1.863-.314-.9a.702.702 0 0 0-.623-.438h-6.583zm.204.662h6.174c.13 0 .27.097.312.219l.965 2.758h-8.727l.965-2.758a.351.351 0 0 1 .311-.22zm-1.948 7.277v1.323a1 1 0 0 0 1.007.993 1 1 0 0 0 1.007-.993V28.94h-2.014zm8.056 0v1.323a1 1 0 0 0 1.007.993 1 1 0 0 0 1.007-.993V28.94h-2.014z"/><path d="M31.905 16a.214.214 0 0 0-.216.213v2.437a.697.697 0 0 0-.689.685v2.293a.7.7 0 0 0 .714.687h1.345v3.635c0 5.434 4.47 9.839 9.983 9.84 5.514 0 9.984-4.406 9.984-9.84s-4.47-9.839-9.984-9.839v1.777c4.518 0 8.18 3.61 8.18 8.062s-3.662 8.062-8.18 8.062c-4.517 0-8.18-3.61-8.18-8.062v-3.635h1.408a.7.7 0 0 0 .714-.687v-2.293a.698.698 0 0 0-.689-.685v-2.437A.214.214 0 0 0 36.08 16h-.164a.214.214 0 0 0-.216.213v2.436h-3.414v-2.436a.214.214 0 0 0-.216-.213h-.164z"/></g></g></svg>