<?xml version="1.0" encoding="UTF-8"?>
<svg id="_Слой_1" data-name=" Слой 1" xmlns="http://www.w3.org/2000/svg" width="110" height="63" xmlns:xlink="http://www.w3.org/1999/xlink" viewBox="0 0 110 63">
  <defs>
    <style>
      .cls-1 {
        fill: none;
      }

      .cls-2 {
        clip-path: url(#clippath);
      }

      .cls-3 {
        fill: #ffec00;
      }

      .cls-4 {
        fill: #8b8b8b;
      }

      .cls-5 {
        fill: #4f4f4f;
      }
    </style>
    <clipPath id="clippath">
      <rect class="cls-1" x="31.32" y="11.87" width="53.39" height="28.75"/>
    </clipPath>
  </defs>
  <g>
    <path class="cls-4" d="m43.61,58.1h-4.25v-.89h1.58v-5.85h-1.58v-.8c.6,0,1.04-.08,1.32-.25s.44-.49.48-.96h.91v7.86h1.55v.89h0Z"/>
    <path class="cls-4" d="m47.09,58.1h-1.4v-1.67h1.4v1.67Z"/>
    <path class="cls-4" d="m53.79,58.1h-4.25v-.89h1.58v-5.85h-1.58v-.8c.6,0,1.04-.08,1.32-.25s.44-.49.48-.96h.91v7.86h1.55v.89h0Z"/>
    <path class="cls-4" d="m60.88,50.68l-3.77,7.42h-1.25l4-7.7h-4.51v-1.03h5.54v1.31h0Z"/>
    <path class="cls-4" d="m62.95,58.1h-1.4v-1.67h1.4v1.67Z"/>
    <path class="cls-4" d="m70.09,58.1h-5.38v-1.22c.39-.37.75-.72,1.1-1.05s.68-.69,1.01-1.05c.66-.73,1.12-1.32,1.36-1.75s.36-.89.36-1.36c0-.24-.04-.46-.11-.64s-.18-.34-.31-.46c-.14-.12-.29-.21-.47-.26s-.38-.09-.59-.09-.42.03-.63.08-.42.12-.61.2c-.16.07-.32.15-.47.24s-.28.17-.37.24h-.06v-1.24c.24-.12.58-.24,1.01-.35s.84-.17,1.23-.17c.81,0,1.45.22,1.91.65s.69,1.02.69,1.75c0,.34-.04.65-.12.94s-.19.56-.33.8c-.14.25-.32.51-.52.76s-.42.5-.64.74c-.37.4-.78.81-1.23,1.24s-.81.77-1.08,1.02h4.29v1l-.04-.02Z"/>
  </g>
  <rect class="cls-1" width="110" height="63"/>
  <rect class="cls-5" x="6.6" y="5.91" width="96.7" height="34.69"/>
  <g class="cls-2">
    <g>
      <polygon class="cls-3" points="37.19 42.17 34.69 40.52 38.14 35.31 34.14 29.28 38.14 23.24 34.14 17.22 38.69 10.36 41.19 12.02 37.74 17.22 41.74 23.24 37.74 29.28 41.74 35.31 37.19 42.17"/>
      <polygon class="cls-3" points="73.91 42.3 71.41 40.64 74.86 35.44 70.86 29.4 74.86 23.37 70.86 17.34 75.41 10.49 77.91 12.14 74.46 17.34 78.46 23.37 74.46 29.4 78.46 35.44 73.91 42.3"/>
    </g>
  </g>
</svg>