<svg width="241" height="95" xmlns="http://www.w3.org/2000/svg"><g fill="none" fill-rule="evenodd"><path fill-opacity=".87" fill="#FFF" d="M0 0h241v95H0z"/><path fill="#FFF" d="M3 88h8V0h48v88h8v7H3z"/><path d="M11 0v9h48V0h3v85h8v10h-3v-7H3v7.5H0V85h8V0h3zm0 62v11l12 12h11L11 62zm0-20.957V49l36 36h7.042L11 41.043zM11 18.5V28l48 48v-9.5l-48-48zM25 12h-7.5L59 53.5V46L25 12zm22.5 0H38l21 21v-9.5L47.5 12z" fill="#181818" fill-rule="nonzero"/><path fill="#FFF" d="M174 88h8V0h48v88h8v7h-64z"/><path d="M230 0v9h-48V0h-3v85h-8v10h3v-7h64v7.5h3V85h-8V0h-3zm0 62v11l-12 12h-11l23-23zm0-20.957V49l-36 36h-7.042L230 41.043zm0-22.543V28l-48 48v-9.5l48-48zM216 12h7.5L182 53.5V46l34-34zm-22.5 0h9.5l-21 21v-9.5L193.5 12z" fill="#181818" fill-rule="nonzero"/><path fill="#FFF" d="M89 88h8V0h48v88h8v7H89z"/><path d="M97 0v9h48V0h3v85h8v10h-3v-7H89v7.5h-3V85h8V0h3zm23.5 55L97 74.353V85h3.5l18.126-14.5a3 3 0 0 1 3.748 0L140.5 85h4.5V74.415L120.5 55zm0-25L97 49.353v13l21.63-17.812a3 3 0 0 1 3.608-.155l.162.12L145 62.414v-13L120.5 30zm11.071-18h-21.142L97 22.444v14.909l21.63-17.812a3 3 0 0 1 3.608-.155l.162.12L145 37.414V22.444L131.571 12z" fill="#181818" fill-rule="nonzero"/></g></svg>