<svg width="83" height="54" xmlns="http://www.w3.org/2000/svg"><g fill="none" fill-rule="evenodd"><path d="M0 0h83v54H0z" fill="#838383"/><g fill="#FFF"><path d="M66.872 37.528V17.36c0-1.05-.757-1.861-1.638-1.861H19.517c-.88 0-1.638.811-1.638 1.861v20.167c0 1.05.757 1.861 1.638 1.861h45.717c.88 0 1.638-.811 1.638-1.861zm3 0c0 2.662-2.052 4.861-4.638 4.861H19.517c-2.585 0-4.638-2.199-4.638-4.861V17.36c0-2.662 2.053-4.861 4.638-4.861h45.717c2.586 0 4.638 2.199 4.638 4.861v20.167z" fill-rule="nonzero"/><path d="M48.9 24.315a5.424 5.424 0 1 1 0 10.849 5.424 5.424 0 0 1 0-10.849m0-1.356a6.78 6.78 0 1 0 0 13.56 6.78 6.78 0 0 0 0-13.56"/><path d="M48.9 26.434a3.305 3.305 0 1 1 0 6.61 3.305 3.305 0 0 1 0-6.61m0-1.271a4.577 4.577 0 1 0 0 9.153 4.577 4.577 0 0 0 0-9.153"/><path d="M32.119 25.163c1.357 0 2.457.569 2.457 1.271s-1.1 1.271-2.457 1.271c-1.358 0-2.458-.569-2.458-1.27 0-.703 1.1-1.272 2.458-1.272zm16.78-2.84a7.416 7.416 0 1 1 0 14.832 7.416 7.416 0 0 1 0-14.831zm5.629-.405l.01 1.748-2.11-1.403 2.1-.345zm-.112-4.828l1.047 1.947a.213.213 0 0 0 .275.114l1.655-.686-.651 1.297a.214.214 0 0 0 .148.305l1.563.392-1.062.471v.003a.21.21 0 0 0-.125.19c0 .037.008.072.024.101l.49 1.216-1.637-.948a.212.212 0 0 0-.119-.034.211.211 0 0 0-.196.127l-.871 1.459-.008-1.375a.212.212 0 0 0-.262-.206l-1.944.318 1.242-1.235a.21.21 0 0 0-.06-.342l-.006-.002h-.003l-1.451-.665 1.74-.01a.212.212 0 0 0 .211-.212V17.09zm-.211-1.06a.212.212 0 0 0-.212.213v2.86l-2.49.016a.212.212 0 1 0-.087.403v.002l.008.003 2.044.935-1.493 1.486-.006.007-.442-.294v-1.33H48.73v1.572a7.801 7.801 0 0 0-4.614 1.626l-14.455-.061a1.862 1.862 0 0 0-1.865 1.864v11.442c0 .655.532 1.186 1.187 1.186h26.103c1.03 0 1.865-.834 1.865-1.864v-10.82l-2.026-1.35.008-.01 1.165-1.958 1.99 1.152a.212.212 0 0 0 .118.035.212.212 0 0 0 .196-.292l-.651-1.618 1.43-.638a.211.211 0 0 0-.03-.4l.001-.003-1.915-.477.779-1.546a.212.212 0 0 0-.175-.331.212.212 0 0 0-.082.018v-.002l-2.005.829-1.356-2.524-.008-.019h-.003a.21.21 0 0 0-.182-.111z"/><path d="M51.357 29.74a2.458 2.458 0 0 1-4.915.001v-.002a2.458 2.458 0 0 1 4.915-.002v.002zM33.898 26.437c0 .329-.794.596-1.774.596s-1.776-.267-1.776-.596c0-.33.794-.596 1.775-.596.98 0 1.775.266 1.775.595z"/></g></g></svg>