<svg width="163" height="81" xmlns="http://www.w3.org/2000/svg"><g fill="none" fill-rule="evenodd"><path fill-opacity=".87" fill="#FFF" d="M0 0h163v81H0z"/><path d="M36 74.5V46c0-4.5 2-11 10.5-12.5S57 35 57 38.5V69l-21 5.5zM109 48.5V21c0-4.5 3.5-12 10.5-13.5s11.5 2.5 11.5 6c0 2.333-.167 12.167-.5 29.5L109 48.5z" fill="#FFF"/><path d="M119.724 4.821c7.98-1.496 13.776 2.67 13.776 8.474v7.034l25.828-9.213 1.344 3.768-27.173 9.692.001 20.367-27 7.313v-18.05L60 50.793v20.355L33 78.46V60.423L3.671 70.883l-1.344-3.767L33 56.176 33 45.5c0-5.8 5.41-12.822 12.872-14.404l.352-.07C54.204 29.529 60 33.695 60 39.5v7.045l46.5-16.585V19.295c0-5.8 5.41-12.821 12.872-14.404zM35.999 58.65v15.89l17.255-4.674L36 58.65zM57 39.5c0-3.82-3.997-6.693-10.224-5.526C40.591 35.134 36 41.016 36 45.5v1.152l20.998 13.695zm52.5-7.055v15.889l17.254-4.673L109.5 32.445zm21-19.15c0-3.82-3.997-6.693-10.224-5.525-6.185 1.16-10.776 7.042-10.776 11.525v1.152l21 13.696z" fill="#181818" fill-rule="nonzero"/></g></svg>