<svg width="83" height="54" xmlns="http://www.w3.org/2000/svg"><g fill="none" fill-rule="evenodd"><path d="M0 0h83v54H0z" fill="#838383"/><g fill="#FFF"><g fill-rule="nonzero"><path d="M24.2 13.024h1.2c.48.005.886.158 1.217.458.33.3.502.715.516 1.244a1.412 1.412 0 0 1-.6 1.13c-.383.286-.85.433-1.4.442-.997-.05-1.736-.246-2.216-.59-.48-.343-.72-.54-.717-.589l-1.2 1.44c.025.06.408.3 1.15.72s1.692.661 2.85.721c1.275-.05 2.258-.41 2.95-1.08.692-.671 1.042-1.359 1.05-2.063-.028-.692-.224-1.229-.588-1.61-.363-.382-.727-.647-1.091-.796-.364-.148-.56-.22-.588-.213.023.007.185-.05.484-.175.3-.123.6-.356.899-.698.3-.342.46-.837.484-1.484-.011-.808-.322-1.484-.933-2.03-.611-.545-1.456-.83-2.534-.851-1.086.05-1.966.246-2.638.59-.672.343-1.018.54-1.038.589l1.01 1.534c-.006-.042.205-.21.633-.506.428-.294 1.106-.463 2.033-.505.714.036 1.186.227 1.417.573.23.347.336.636.317.868.005.226-.106.494-.334.802-.227.308-.605.477-1.133.507h-1.2v1.572zM35.5 7c-1.517.04-2.647.578-3.39 1.614-.742 1.035-1.112 2.33-1.11 3.886-.002 1.555.368 2.85 1.11 3.886.743 1.036 1.873 1.574 3.39 1.614 1.517-.04 2.647-.578 3.39-1.614.742-1.035 1.112-2.33 1.11-3.886.002-1.555-.368-2.85-1.11-3.886C38.147 7.578 37.017 7.04 35.5 7zm0 1.702c.774.011 1.402.35 1.882 1.015.481.666.729 1.594.743 2.783-.014 1.19-.262 2.117-.743 2.783-.48.665-1.108 1.004-1.882 1.015-.774-.011-1.402-.35-1.882-1.015-.481-.666-.729-1.594-.743-2.783.014-1.19.262-2.117.743-2.783.48-.665 1.108-1.004 1.882-1.015zM43 18h1.931v-4.95h4.138V18H51V7h-1.931v4.4h-4.138V7H43zM56.176 14.15L57.5 9.475l1.324 4.675h-2.648zM56.441 7L53 18h1.985l.662-2.2h3.706l.662 2.2H62L58.559 7H56.44z"/></g><path d="M46.452 38.482c.13-2.842 1.38-5.013 3.76-6.587-.464-1.02-.914-2.026-1.422-3.163-1.263 3.338-2.483 6.515-3.702 9.736.493.014.914.014 1.364.014m4.545-4.824c-1.67.991-2.904 3.323-2.614 4.854h4.792c-.741-1.662-1.452-3.236-2.178-4.854m-7.637 4.65c1.277-3.455 2.526-6.807 3.775-10.174H34.038c3.151 3.425 6.2 6.763 9.322 10.174m5.241 1.85c.145 1.764 2.207 3.732 4.4 4.213 2.525.553 5.168-.656 6.446-2.974a5.913 5.913 0 0 0-.973-6.98c-1.583-1.604-4.341-2.304-5.895-1.458.334.743.668 1.472 1.002 2.215.552 1.239 1.118 2.478 1.64 3.717.32.757.059 1.166-.74 1.224-.406.029-.813.029-1.22.029-1.567.015-3.107.015-4.66.015m-17.989-7.302c-3.049-.51-6.069 1.661-6.65 4.664-.61 3.192 1.409 6.31 4.56 6.981 3.136.67 6.286-1.312 7.012-4.416.653-2.77-.973-6.107-3.281-6.705a1.286 1.286 0 0 0-.073.219c-.537 1.69-1.074 3.396-1.626 5.086-.145.452-.407.817-.973.686-.479-.117-.711-.569-.595-1.166a12.8 12.8 0 0 1 .349-1.283c.42-1.326.841-2.667 1.277-4.066m2.759-2.988c-.175.554-.363.962-.436 1.399-.029.146.203.423.363.51 2.12 1.137 3.485 2.857 4.036 5.203 1.017 4.402-1.96 8.745-6.417 9.416-4.414.656-8.494-2.55-8.886-6.996a7.75 7.75 0 0 1 8.654-8.41c.145.015.305.015.508.03.45-1.487.885-2.974 1.35-4.446.305-.977.653-1.953 1.03-2.9.408-1.02 1.162-1.633 2.295-1.662.958-.03 1.93 0 2.933 0V23.5H37.03c-1.627.014-1.888.218-2.323 1.763-.102.35-.19.714-.306 1.137.19.015.349.044.523.044 4.138 0 8.29 0 12.428.014.363 0 .581-.087.668-.466.073-.32.218-.627.349-1.006-.712-.16-1.409-.306-2.09-.466-.364-.087-.712-.175-1.046-.32-.131-.059-.247-.292-.247-.438 0-.102.232-.277.348-.277 2.178-.015 4.356-.015 6.577-.015v1.56c-.45 0-.914-.044-1.35.015-.189.029-.435.204-.537.378-.378.656-.378 1.298 0 2.012.58 1.078 1.03 2.215 1.51 3.338.145.364.305.422.697.335 4.428-1.123 8.711 1.545 9.611 6.005 1.017 4.926-3.02 9.575-8.014 9.255-3.441-.22-6.156-2.405-7.085-5.728-.102-.35-.218-.481-.581-.467-.682.03-1.365-.029-2.033.015-1.103.073-1.945-.336-2.657-1.152a414.946 414.946 0 0 0-4.704-5.392c-1.074-1.283-2.207-2.478-3.397-3.775"/></g></g></svg>