<svg width="105" height="58" xmlns="http://www.w3.org/2000/svg"><g fill="none" fill-rule="evenodd"><path fill-opacity=".87" fill="#FFF" d="M0 0h105v58H0z"/><path d="M5 10l40 17c10.667 2.333 19.333 3.333 26 3 6.667-.333 16.667-1 30-2v22c-11.333 2.667-21.333 4-30 4-8.667 0-17.333-1.333-26-4L5 29V10z" fill="#FFF"/><path d="M33 4l68 24v22c-11.333 2.667-21.333 4-30 4-8.667 0-17.333-1.333-26-4L5 29V10l40 17c10.667 2.333 19.333 3.333 26 3 5.603-.28 13.56-.796 23.872-1.547L29.5 4.5 33 4zm24 28v18c2.992.5 5.992.833 9 1 2.632.146 5.258.165 7.878.055L75 51V33c-3 .167-6 .167-9 0s-6-.5-9-1zm41-1.5l-10 1V50l10-2V30.5zm-68-7V39l14 7.5v-17l-14-6zM8 14v13l9 5V18l-9-4z" fill="#181818"/></g></svg>