<svg width="260" height="80" xmlns="http://www.w3.org/2000/svg"><g fill="none" fill-rule="evenodd"><path fill="#838383" d="M0 0h260v80H0z"/><path d="M168.304 69.579c-.085-1.963-.17-3.926-.227-5.86-.199-4.524-.37-9.018-.568-13.541-.227-5.035-.426-10.07-.681-15.106-.114-2.418-.114-4.864-.625-7.226a15.52 15.52 0 0 0-2.84-6.172c-1.987-2.56-4.826-4.41-7.893-5.462-.34-.114-.682-.228-1.05-.313l-.029-7.823c0-.313-6.161 10.497-6.161 10.497l6.246 10.497-.028-6.515c4.146 1.167 6.275 5.604 6.161 9.7-.085 2.703-.284 5.406-.454 8.08-.256 4.267-.51 8.534-.795 12.801a1702.68 1702.68 0 0 0-.71 12.005c-.085 1.422-.17 2.873-.227 4.295l9.881.143zM112.14 18.573s-6.16-10.81-6.16-10.497l-.03 7.823c-2.725.71-5.309 2.105-7.382 4.04-1.533 1.422-2.725 3.185-3.549 5.091-.483 1.138-.823 2.361-1.05 3.585-.228 1.251-.284 2.503-.341 3.783-.227 4.893-.454 9.757-.653 14.65-.199 4.78-.398 9.559-.625 14.338l-.34 7.937v.284l9.88-.17c-.113-3.073-.312-6.173-.482-9.246-.256-4.38-.511-8.762-.795-13.171l-.682-11.436c-.056-1.11-.142-2.219-.198-3.328-.086-1.792.198-3.556.993-5.178 1.023-2.162 2.84-3.868 5.168-4.523l-.028 6.515 6.275-10.497z" fill="#FFF"/></g></svg>