<svg width="260" height="54" xmlns="http://www.w3.org/2000/svg"><g fill="none" fill-rule="evenodd"><path fill="#838383" d="M0 0h260v53.793H0z"/><path d="M0 19.724h7.222v7.222H0v-7.222zm14.444 0h7.223v7.222h-7.223v-7.222zm14.445 0h7.222v7.222H28.89v-7.222zm14.444 0h7.223v7.222h-7.223v-7.222zm14.445 0H65v7.222h-7.222v-7.222zm14.444 0h7.222v7.222h-7.222v-7.222zm14.445 0h7.222v7.222h-7.222v-7.222zm14.444 0h7.222v7.222h-7.222v-7.222zm14.445 0h7.222v7.222h-7.222v-7.222zm14.444 0h7.222v7.222H130v-7.222zm14.444 0h7.223v7.222h-7.223v-7.222zm14.445 0h7.222v7.222h-7.222v-7.222zm14.444 0h7.223v7.222h-7.223v-7.222zm14.445 0H195v7.222h-7.222v-7.222zm14.444 0h7.222v7.222h-7.222v-7.222zm14.445 0h7.222v7.222h-7.222v-7.222zm14.444 0h7.222v7.222h-7.222v-7.222zm14.445 0h7.222v7.222h-7.222v-7.222zM7.222 26.946h7.222v7.223H7.222v-7.223zm14.445 0h7.222v7.223h-7.222v-7.223zm14.444 0h7.222v7.223h-7.222v-7.223zm14.445 0h7.222v7.223h-7.222v-7.223zm14.444 0h7.222v7.223H65v-7.223zm14.444 0h7.223v7.223h-7.223v-7.223zm14.445 0h7.222v7.223H93.89v-7.223zm14.444 0h7.223v7.223h-7.223v-7.223zm14.445 0H130v7.223h-7.222v-7.223zm14.444 0h7.222v7.223h-7.222v-7.223zm14.445 0h7.222v7.223h-7.222v-7.223zm14.444 0h7.222v7.223h-7.222v-7.223zm14.445 0h7.222v7.223h-7.222v-7.223zm14.444 0h7.222v7.223H195v-7.223zm14.444 0h7.223v7.223h-7.223v-7.223zm14.445 0h7.222v7.223h-7.222v-7.223zm14.444 0h7.223v7.223h-7.223v-7.223zm14.445 0H260v7.223h-7.222v-7.223z" fill="#FFF"/></g></svg>