<svg width="260" height="54" xmlns="http://www.w3.org/2000/svg"><g fill="none" fill-rule="evenodd"><path fill="#838383" d="M0 0h62.759v54H0zM65.897 0h62.759v54H65.897zM131.345 0h62.759v54h-62.759zM197.241 0H260v54h-62.759z"/><path d="M27.037 17.453h-2.29l-2.685 13.369h-.052l-2.684-13.37h-2.292V36.31h1.761V23.582h.053l2.566 12.545h1.244l2.566-12.545h.052V36.31h1.761V17.453zm4.432 5.671v.066h1.833v-.066c0-1.738.675-3.018 1.591-3.018.877 0 1.5 1.123 1.5 2.535 0 1.307-.295 2.26-1.251 4.169l-3.561 6.847v2.653h6.867v-3.136h-4.262v-.078l2.304-4.43c1.041-2.065 1.827-3.83 1.827-6.182 0-3.15-1.368-5.45-3.359-5.45-2.062 0-3.489 2.523-3.489 6.09zm8.687 13.186h2.075l3.941-15.682v-3.175h-6.755v3.136h4.805v.078L40.156 36.31zM86.759 36.31l-.739-4.675h-3.406l-.739 4.675h-2.082l3.365-19.276h2.385l3.372 19.276H86.76zm-2.465-15.589l-1.243 7.895h2.532l-1.242-7.895h-.047zm9.814 9.565v-3.407h-4.414v3.407h4.414zm3.64 6.024h2.009V17.034h-2.015l-2.506 3.46v3.634l2.472-3.393h.04V36.31zm8.8 0v-3.433h-4.823v-3.433c.847-3.206 1.901-6.585 3.89-12.41h2.861v12.61h1.263v3.233h-1.263v3.433h-1.928zm-3.043-6.652v.107h3.084v-9.872h-.04c-1.411 4.114-2.258 6.746-3.044 9.765zm9.693 6.652h2.009V17.034h-2.015l-2.506 3.46v3.634l2.472-3.393h.04V36.31zM144.566 36.31h1.968V17.453h-1.975l-2.456 3.384v3.555l2.423-3.32h.04V36.31zm4.28-18.857h3.963c1.949 0 3.292 2.574 3.292 6.455 0 3.869-1.39 6.456-3.39 6.456h-1.877v5.946h-1.989V17.453zm1.988 3.123v6.704h1.442c1.139 0 1.804-1.202 1.804-3.358 0-2.144-.659-3.346-1.798-3.346h-1.448zm9.237 2.548v.066h1.844v-.066c0-1.738.678-3.018 1.6-3.018.882 0 1.507 1.123 1.507 2.535 0 1.307-.296 2.26-1.257 4.169l-3.582 6.847v2.653h6.907v-3.136h-4.287v-.078l2.318-4.43c1.047-2.065 1.837-3.83 1.837-6.182 0-3.15-1.376-5.45-3.378-5.45-2.074 0-3.509 2.523-3.509 6.09zM172.68 36.31v-3.358h-4.727v-3.359c.83-3.136 1.863-6.443 3.812-12.14h2.805v12.336h1.238v3.163h-1.238v3.358h-1.89zm-2.982-6.508v.105h3.022v-9.658h-.04c-1.382 4.025-2.212 6.6-2.982 9.553zm7.078-6.678v.066h1.843v-.066c0-1.738.678-3.018 1.6-3.018.882 0 1.508 1.123 1.508 2.535 0 1.307-.297 2.26-1.258 4.169l-3.581 6.847v2.653h6.906v-3.136h-4.286v-.078l2.317-4.43c1.047-2.065 1.837-3.83 1.837-6.182 0-3.15-1.376-5.45-3.377-5.45-2.074 0-3.51 2.523-3.51 6.09zM227.259 32.703h-4.282v-4.656h4.04V25.08h-4.04v-4.451h4.282v-3.185H221V35.9h6.259v-3.198zm5.152 3.607c-2.291 0-3.83-2.212-3.83-5.41 0-2.43.904-4.31 2.22-4.733v-.077c-1.1-.498-1.84-2.148-1.84-4.182 0-2.814 1.427-4.874 3.45-4.874 2.03 0 3.444 2.047 3.444 4.887 0 2.008-.733 3.658-1.833 4.17v.076c1.322.435 2.22 2.315 2.22 4.746 0 3.197-1.559 5.397-3.83 5.397zm0-2.814c1.041 0 1.762-1.215 1.762-2.878 0-1.662-.72-2.878-1.762-2.878-1.04 0-1.767 1.216-1.767 2.878 0 1.663.726 2.878 1.767 2.878zm0-8.57c.871 0 1.493-1.074 1.493-2.545 0-1.484-.622-2.558-1.493-2.558-.877 0-1.492 1.087-1.492 2.558 0 1.471.615 2.545 1.492 2.545z" fill="#FFF"/></g></svg>