<svg width="260" height="54" xmlns="http://www.w3.org/2000/svg"><g fill="none" fill-rule="evenodd"><path fill="#838383" d="M0 0h260v53.793H0z"/><path fill="#FFF" d="M68.138 18.828l5.105 16.008 5.104-16.008zM82.483 18.828l5.104 16.008 5.105-16.008zM96.379 18.828l5.105 16.008 5.083-16.008zM110.724 18.828l5.105 16.008 5.104-16.008zM125.069 18.828l5.105 16.008 5.104-16.008zM139.414 18.828l5.104 16.008 5.105-16.008zM153.31 18.828l5.105 16.008 5.105-16.008zM167.655 18.828l5.105 16.008 5.104-16.008zM182 18.828l5.105 16.008 5.082-16.008z"/></g></svg>