<svg width="260" height="54" xmlns="http://www.w3.org/2000/svg"><g fill="none" fill-rule="evenodd"><path fill="#838383" d="M0 0h260v54H0z"/><path fill="#FFF" d="M44.828 19.315l4.419-.027v27.781h3.536V19.235l4.596-.054-6.718-12.009zM77.552 13.904s-6.77-7.02-6.77-6.808l-.044 5.106L59.8 17.308l.269.213v29.145h3.138V19.728l7.53-3.51-.044 4.547 6.859-6.86zM96.29 17.148l-10.714-4.972-.045-5.053c0-.213-6.769 6.808-6.769 6.808l6.859 6.807-.045-4.547 7.665 3.564v26.911h3.586V17.148h-.537zM120.765 28.982s-6.768-7.02-6.768-6.808l-.045 5.106-8.159 3.803V18.93l5.245-.053-6.814-11.967-5.962 12.1 4.393-.053v27.71h3.138v-12.18l.493.372 7.666-3.563-.045 4.52 6.858-6.834zM144.3 19.01l-5.962-12.1-6.814 11.967 4.752.053v11.94l-7.665-3.59-.046-5.106c0-.212-6.768 6.808-6.768 6.808l6.858 6.808-.044-4.494 7.62 3.563.045-.026v11.833h3.586V18.983l4.438.027zM158.241 46.719h3.587V17.202h-3.587z"/><path d="M175.993 13.957s-6.769-7.02-6.769-6.807l-.044 5.079-9.325 4.334-9.459-4.414-.044-5.026c0-.213-6.77 6.808-6.77 6.808l6.86 6.807-.046-4.6 7.8 3.617v26.911h3.587V19.648l7.351-3.43-.044 4.52 6.903-6.78zM194.82 15.766l-6.813-11.967-5.917 12.073 4.393-.027V27.36l-7.8-3.643-.045-5.106c0-.213-6.769 6.808-6.769 6.808l6.859 6.807-.045-4.52 7.62 3.563.135-.106v10.45h-3.586v-3.988h-5.38v9.307h5.38v-3.457h3.586v7.18h3.586V15.766h4.797zM215.172 17.335v-.186h-.269l-10.669-4.92-.044-5.106c0-.213-6.77 6.808-6.77 6.808l6.86 6.808-.046-4.495 7.621 3.537.135-.106v12.631h-4.035v-3.989h-4.93v9.574h4.93v-3.723h4.035v12.498h3.138V32.36l.044-15.024z" fill="#FFF"/></g></svg>