<svg width="260" height="145" xmlns="http://www.w3.org/2000/svg"><g fill="none" fill-rule="evenodd"><path d="M0 0h260v145H0z"/><g fill-rule="nonzero"><path fill="#838383" d="M100.918 3H260v122H100.918z"/><path d="M185.927 102.187h54.187v9.919h-54.187v-9.919zm0-51.577h54.187v9.919h-54.187V50.61zm0-17.358h54.187v9.919h-54.187v-9.919zm0-17.853h54.187v9.918h-54.187v-9.918zm36.788 66.455h-2.486l3.73-11.407 3.727 11.407H225.2V98.22h-2.485V81.854zm-20.88 0h-2.485l3.728-11.407 3.73 11.407h-2.487V98.22h-2.486V81.854zm10.44-4.959h-2.486l3.73-11.407 3.727 11.407h-2.485V93.26h-2.486V76.895zM120.803 25.317h54.187v-9.919h-54.187v9.919zm0 51.577h54.187v-9.919h-54.187v9.919zm0 17.358h54.187v-9.919h-54.187v9.919zm0 17.853h54.187v-9.918h-54.187v9.918zm36.788-66.455h-2.486l3.73 11.407 3.727-11.407h-2.486V29.284h-2.485V45.65zm-20.88 0h-2.485l3.728 11.407 3.73-11.407h-2.487V29.284h-2.486V45.65zm10.44 4.96h-2.486l3.73 11.406 3.727-11.407h-2.485V34.244h-2.486V50.61z" fill="#FFF"/><path fill="#838383" d="M0 3h94.455v122H0z"/><path d="M19.885 77.39h54.187v-9.919H19.885v9.919zm0-17.358h54.187v-9.919H19.885v9.919zm0-17.358h54.187v-9.918H19.885v9.918zm0-17.357h54.187v-9.919H19.885v9.919zm0 69.431h54.187V84.83H19.885v9.918zm0 17.357h54.187v-9.918H19.885v9.918z" fill="#FFF"/><path d="M33.352 142h-4.723v-.89h1.816v-5.848H28.63v-.797c.246 0 .51-.02.79-.062.282-.04.495-.1.64-.178.18-.098.32-.222.424-.372.104-.15.163-.353.18-.607h.907v7.863h1.782V142h-.001zm4.16 0h-1.4v-1.67h1.4V142zm7.834 0h-4.723v-.89h1.816v-5.848h-1.816v-.797c.246 0 .51-.02.791-.062.281-.04.494-.1.639-.178.18-.098.321-.222.425-.372.103-.15.163-.353.178-.607h.908v7.863h1.782V142zm8.326-2.455h-1.295V142h-1.125v-2.455h-4.178v-1.348l4.225-4.922h1.078v5.332h1.295v.938zm-2.42-.938v-3.937l-3.38 3.937h3.38zM57.135 142h-1.4v-1.67h1.4V142zm7.834 0h-4.723v-.89h1.816v-5.848h-1.816v-.797c.246 0 .51-.02.791-.062.281-.04.494-.1.639-.178.18-.098.321-.222.425-.372.103-.15.163-.353.178-.607h.908v7.863h1.782V142zm102.383 0h-4.723v-.89h1.816v-5.848h-1.816v-.797c.246 0 .51-.02.79-.062.282-.04.495-.1.64-.178.18-.098.32-.222.424-.372.104-.15.163-.353.18-.607h.907v7.863h1.782V142zm4.16 0h-1.4v-1.67h1.4V142zm7.834 0h-4.723v-.89h1.816v-5.848h-1.816v-.797c.246 0 .51-.02.791-.062.281-.04.494-.1.639-.178.18-.098.321-.222.425-.372.103-.15.163-.353.178-.607h.908v7.863h1.782V142zm8.326-2.455h-1.295V142h-1.125v-2.455h-4.178v-1.348l4.225-4.922h1.078v5.332h1.295v.938zm-2.42-.938v-3.937l-3.38 3.937h3.38zm5.883 3.393h-1.4v-1.67h1.4V142zm8.332 0h-5.906v-1.225c.41-.351.82-.703 1.233-1.054.395-.337.78-.687 1.151-1.05.75-.726 1.264-1.303 1.541-1.73a2.5 2.5 0 0 0 .416-1.386c0-.453-.15-.808-.448-1.064-.299-.256-.716-.384-1.25-.384-.356 0-.741.063-1.155.188-.43.132-.838.326-1.213.574h-.059v-1.23c.278-.137.648-.262 1.11-.375a5.65 5.65 0 0 1 1.345-.17c.895 0 1.596.216 2.104.647.508.432.762 1.017.762 1.755 0 .332-.042.642-.126.929-.084.287-.208.56-.372.817-.153.242-.331.48-.537.715-.205.234-.454.494-.747.78-.418.41-.85.807-1.295 1.192-.445.384-.86.74-1.248 1.069h4.694V142z" fill="#8B8B8B"/></g></g></svg>