<svg width="260" height="54" xmlns="http://www.w3.org/2000/svg"><g fill="none" fill-rule="evenodd"><path fill="#838383" d="M0 0h260v54H0z"/><path d="M113.06 39c2.758 0 4.705-3.148 5.074-8.096h-2.38c-.329 2.474-1.323 3.968-2.685 3.968-1.844 0-3.006-3.052-3.006-8 0-4.883 1.17-7.95 2.998-7.95 1.33 0 2.38 1.654 2.685 4.208h2.38c-.304-4.932-2.364-8.337-5.065-8.337-3.35 0-5.475 4.626-5.475 12.096 0 7.485 2.108 12.111 5.475 12.111zm11.55-.514v-19.18H128v-3.999h-9.193v4h3.383v19.179h2.42zm9.554-23.58c3.423 0 5.579 4.61 5.579 11.999 0 7.372-2.156 11.983-5.579 11.983-3.43 0-5.578-4.61-5.578-11.983 0-7.39 2.148-12 5.578-12zm0 4.047c-1.891 0-3.11 3.085-3.11 7.952 0 4.85 1.21 7.919 3.11 7.919 1.892 0 3.102-3.068 3.102-7.92 0-4.866-1.21-7.95-3.102-7.95zm17.353 19.533V15.307h-9.93v23.179h2.428V19.323h5.09v19.163h2.412z" fill="#FFF"/></g></svg>