<svg width="260" height="54" xmlns="http://www.w3.org/2000/svg"><g fill="none" fill-rule="evenodd"><path fill="#838383" d="M0 0h260v54H0z"/><path d="M174.28 53.989a85.513 85.513 0 0 0-1.485-6.97l-2.905.748c.38 1.477.75 3.555 1.11 6.233l3.28-.011zm-3.55-13.802a85.424 85.424 0 0 0-2.623-6.623l-2.74 1.22a82.424 82.424 0 0 1 2.53 6.39l2.833-.987zm-5.795-13.019a85.984 85.984 0 0 0-3.685-6.098l-2.501 1.657a82.984 82.984 0 0 1 3.556 5.885l2.63-1.444zm-7.853-11.86a86.464 86.464 0 0 0-4.637-5.408l-2.195 2.044a83.465 83.465 0 0 1 4.475 5.222l2.357-1.857zm-9.728-10.44A86.444 86.444 0 0 0 141.89.295l-1.829 2.378a83.444 83.444 0 0 1 5.273 4.414l2.019-2.22zM121 53l-1.988-6.652-2.776 1.138c.717 2.878 1.305 5.05 1.764 6.514l3-1zm-4.983-13.137a82.076 82.076 0 0 0-3.54-6.19l-2.537 1.602a79.077 79.077 0 0 1 3.41 5.963l2.667-1.375zm-7.61-12.061a84.435 84.435 0 0 0-4.546-5.49l-2.229 2.01a81.435 81.435 0 0 1 4.385 5.294l2.39-1.814zm-9.52-10.57a89.854 89.854 0 0 0-5.374-4.67l-1.877 2.341a86.854 86.854 0 0 1 5.194 4.514l2.057-2.185zm-11.034-8.93l-2.981-2.21a158.542 158.542 0 0 0-2.696-1.947l-1.728 2.453 1.258.898c.435.314.892.648 1.39 1.014l2.97 2.202 1.787-2.41zM76 0h-6.5a682.681 682.681 0 0 1 5.177 2.89L76 0z" fill="#FFF" fill-rule="nonzero"/><path d="M20 26v3H0v-3h20zm60 0v3H60v-3h20zm120 0v3h-20v-3h20zm60 0v3h-20v-3h20z" fill="#FFF"/></g></svg>