<svg width="83" height="54" xmlns="http://www.w3.org/2000/svg"><g fill="none" fill-rule="evenodd"><path fill="#838383" d="M0 0h82.931v54H0z"/><path d="M37.987 12.167c-.315 1.14.125 3.283 1.467 3.543.758.146 1.21.04 1.9-.284 1.335-.626 3.133-1.941 2.95-3.614-.182-1.669-1.618-2.246-3.106-2.071-1.279.15-2.847 1.107-3.211 2.426zm11.668 8.722c-.222-1.023-.812-1.265-1.605-1.752-.512-.313-4.812-2.88-5.164-2.967-1.017-.255-1.474.138-2.387.682-.34.203-.682.406-1.018.617-.678.425-.678.625-.69 1.388-.017 1.184.036 8.632-.023 8.717-.15.218-4.185 4.195-4.347 4.47-.196.33-.455 1.587-.546 1.973l-1.8 7.748c-.258 1.093.55 2.146 1.66 2.146.789 0 1.479-.55 1.66-1.33.218-.925 1.64-7.234 1.829-7.606.19-.374 1.234-1.33 1.585-1.687 1.419-1.44 2.835-2.885 4.251-4.329.242-.246 1.113-1.06 1.235-1.345.18-.423.13-3.37.131-3.779l-.005-3.65c.407.102 2.384 1.437 2.487 1.651.11.228.06 4.653.06 5.254 0 .753.601 1.364 1.343 1.364s1.344-.61 1.344-1.364v-6.201zm-11.531.962l-4.97 5.05a1.37 1.37 0 0 0-.393.964c0 1.2 1.436 1.824 2.28.978l3.083-3.09v-3.902zm5.778 7.305l-2.562 2.566 6.476 11.288a1.73 1.73 0 0 0 3.157-.27 1.755 1.755 0 0 0-.12-1.47l-6.951-12.114z" fill="#FFF"/></g></svg>