<?xml version="1.0" encoding="UTF-8"?>
<svg id="_Слой_1" data-name=" Слой 1" xmlns="http://www.w3.org/2000/svg" width="110" height="63" viewBox="0 0 110 63">
  <defs>
    <style>
      .cls-1, .cls-2, .cls-3 {
        fill: none;
      }

      .cls-4 {
        fill: #8b8b8b;
      }

      .cls-5 {
        fill: #4f4f4f;
      }

      .cls-2 {
        stroke-dasharray: 0 0 0 0 0 0 8.07 8.07;
      }

      .cls-2, .cls-3 {
        stroke: #fff;
        stroke-miterlimit: 10;
        stroke-width: 5px;
      }
    </style>
  </defs>
  <g>
    <path class="cls-4" d="m43.61,58.1h-4.25v-.89h1.58v-5.85h-1.58v-.8c.6,0,1.04-.08,1.32-.25s.44-.49.48-.96h.91v7.86h1.55v.89h0Z"/>
    <path class="cls-4" d="m47.09,58.1h-1.4v-1.67h1.4v1.67Z"/>
    <path class="cls-4" d="m53.79,58.1h-4.25v-.89h1.58v-5.85h-1.58v-.8c.6,0,1.04-.08,1.32-.25s.44-.49.48-.96h.91v7.86h1.55v.89h0Z"/>
    <path class="cls-4" d="m61.01,55.1h-1.04v3h-1.12v-3h-3.86v-1.23l3.9-4.49h1.08v4.79h1.04v.94h0Zm-2.16-.95v-3.41l-2.94,3.41h2.94Z"/>
    <path class="cls-4" d="m63.71,58.1h-1.4v-1.67h1.4v1.67Z"/>
    <path class="cls-4" d="m67.82,50.21c-.21,0-.42.03-.63.08s-.42.12-.62.2c-.19.08-.35.16-.49.25s-.26.17-.37.24h-.07v-1.24c.25-.14.6-.26,1.03-.37s.85-.17,1.25-.17.74.04,1.03.12.56.2.8.37c.26.19.45.41.58.68s.2.58.2.93c0,.48-.16.9-.47,1.27s-.7.59-1.14.69v.08c.18.04.38.1.59.18s.4.21.58.38.33.38.44.65.17.58.17.96-.07.76-.2,1.09-.33.62-.57.88c-.25.27-.56.47-.92.6s-.77.21-1.22.21-.87-.05-1.3-.16-.79-.23-1.08-.38v-1.24h.08c.25.18.58.35.99.52s.83.25,1.24.25c.24,0,.48-.04.72-.11s.44-.2.6-.37c.16-.17.28-.36.36-.57s.12-.47.12-.79-.05-.58-.14-.78-.22-.36-.38-.48-.36-.2-.58-.24-.47-.07-.73-.07h-.5v-.97h.39c.53,0,.96-.12,1.29-.38s.5-.61.5-1.09c0-.22-.04-.41-.13-.57s-.2-.28-.33-.38c-.15-.1-.31-.17-.49-.21s-.37-.06-.57-.06h-.03Z"/>
  </g>
  <rect class="cls-1" width="110" height="63"/>
  <rect class="cls-5" x="6.6" y="5.91" width="96.7" height="34.69"/>
  <g>
    <line class="cls-3" x1="6.58" y1="16.38" x2="10.58" y2="16.38"/>
    <line class="cls-2" x1="18.65" y1="16.38" x2="95.28" y2="16.38"/>
    <line class="cls-3" x1="99.32" y1="16.38" x2="103.32" y2="16.38"/>
  </g>
  <g>
    <line class="cls-3" x1="6.58" y1="30.42" x2="10.58" y2="30.42"/>
    <line class="cls-2" x1="18.65" y1="30.42" x2="95.28" y2="30.42"/>
    <line class="cls-3" x1="99.32" y1="30.42" x2="103.32" y2="30.42"/>
  </g>
</svg>