<svg width="83" height="54" xmlns="http://www.w3.org/2000/svg"><g fill="none" fill-rule="evenodd"><path fill="#838383" d="M0 0h82.931v54H0z"/><path d="M47.388 32.53c.171-3.71 1.8-6.543 4.908-8.598a649.176 649.176 0 0 1-1.857-4.127c-1.648 4.355-3.24 8.502-4.831 12.706.644.019 1.193.019 1.78.019m5.931-6.296c-2.179 1.293-3.79 4.336-3.41 6.334h6.252c-.966-2.169-1.894-4.223-2.842-6.334m-9.966 6.068c1.667-4.508 3.297-8.883 4.926-13.277H31.188c4.112 4.47 8.09 8.826 12.165 13.277m6.84 2.415c.19 2.302 2.88 4.87 5.741 5.497 3.297.723 6.745-.856 8.413-3.88a7.717 7.717 0 0 0-1.27-9.111c-2.065-2.092-5.665-3.005-7.693-1.902.436.97.872 1.92 1.308 2.891.72 1.617 1.459 3.234 2.14 4.85.418.99.077 1.522-.965 1.598-.53.038-1.061.038-1.592.038-2.046.019-4.055.019-6.082.019m-23.477-9.53c-3.979-.665-7.92 2.17-8.678 6.087-.796 4.166 1.838 8.236 5.95 9.111 4.093.875 8.204-1.711 9.152-5.763.852-3.614-1.27-7.97-4.283-8.75-.037.095-.075.19-.094.286-.701 2.206-1.402 4.432-2.122 6.638-.19.59-.531 1.065-1.27.894-.625-.152-.928-.742-.777-1.522.114-.57.284-1.122.455-1.673.55-1.731 1.099-3.481 1.667-5.307m3.6-3.9c-.227.723-.473 1.256-.568 1.826-.038.19.265.552.474.666 2.766 1.484 4.547 3.728 5.267 6.79 1.327 5.745-2.558 11.413-8.375 12.288-5.76.856-11.084-3.329-11.596-9.13-.568-6.448 4.87-11.736 11.293-10.975.19.019.398.019.663.038.588-1.94 1.156-3.88 1.762-5.801a52.783 52.783 0 0 1 1.346-3.785c.53-1.332 1.515-2.13 2.994-2.169 1.25-.038 2.52 0 3.827 0v1.94H35.09c-2.122.02-2.463.286-3.031 2.302-.133.456-.247.932-.398 1.484.246.018.454.056.682.056 5.4 0 10.82 0 16.22.02.473 0 .757-.115.871-.61.095-.417.284-.817.455-1.312-.929-.209-1.838-.399-2.729-.608-.473-.114-.928-.229-1.364-.419-.17-.076-.322-.38-.322-.57 0-.133.303-.362.455-.362 2.842-.019 5.684-.019 8.583-.019v2.035c-.588 0-1.194-.057-1.762.02-.247.038-.569.266-.701.494-.493.856-.493 1.693 0 2.625.758 1.408 1.345 2.891 1.97 4.356.19.475.398.551.91.437 5.779-1.464 11.369 2.016 12.543 7.837C68.8 37.17 63.532 43.238 57.014 42.82c-4.49-.285-8.034-3.138-9.247-7.475-.132-.457-.284-.628-.758-.609-.89.038-1.78-.038-2.652.019-1.44.095-2.54-.437-3.468-1.502a541.52 541.52 0 0 0-6.139-7.038c-1.402-1.674-2.88-3.234-4.434-4.927" fill="#FFF"/></g></svg>