<svg width="259" height="54" xmlns="http://www.w3.org/2000/svg"><g fill="none" fill-rule="evenodd"><path d="M0 0h83v54H0zM88 0h83v54H88zM176 0h83v54h-83z" fill="#838383"/><g fill="#FFF"><path d="M37.282 39.278h3.099V25.027h-3.099zM43.453 39.278h3.099V32.39c0-.474-.224-.92-.591-1.223l-1.418-1.118v-5.022h-3.099v5.785c0 .473.223.92.591 1.222l1.418 1.118v6.126z"/><path d="M56.028 41.793L41.392 16.417 26.756 41.793h29.272zm-14.636-31.38l19.83 34.38h-39.66l19.83-34.38z" fill-rule="nonzero"/></g><g fill="#FFF"><path d="M129.315 12.5c-8.182 0-14.815 6.633-14.815 14.815 0 8.182 6.633 14.815 14.815 14.815 8.182 0 14.815-6.633 14.815-14.815 0-8.182-6.633-14.815-14.815-14.815zm0-3c9.84 0 17.815 7.976 17.815 17.815 0 9.84-7.976 17.815-17.815 17.815-9.839 0-17.815-7.976-17.815-17.815 0-9.839 7.976-17.815 17.815-17.815z" fill-rule="nonzero"/><path d="M124.5 34.793c2.742 0 4.636-2.03 4.636-4.987 0-2.77-1.706-4.77-4.071-4.77-1.226 0-2.237.572-2.751 1.488h-.052l.318-4.159h5.827v-2.08h-7.576l-.642 8.102h2.005a2.58 2.58 0 0 1 2.34-1.42c1.448 0 2.468 1.203 2.468 2.908 0 1.676-1.012 2.858-2.486 2.858-1.302 0-2.305-.906-2.442-2.227H120c.094 2.523 1.945 4.287 4.5 4.287zm10.797 0c-3.033 0-4.842-2.848-4.842-7.411 0-4.544 1.826-7.382 4.842-7.382 3.008 0 4.825 2.819 4.825 7.372s-1.8 7.421-4.825 7.421zm0-2.08c1.637 0 2.588-1.98 2.588-5.331 0-3.322-.968-5.302-2.588-5.302-1.628 0-2.614 2-2.614 5.292 0 3.35.969 5.342 2.614 5.342z"/></g><g fill="#FFF"><path d="M242.493 37.528V17.36c0-1.05-.758-1.861-1.638-1.861h-45.718c-.88 0-1.637.811-1.637 1.861v20.167c0 1.05.757 1.861 1.637 1.861h45.718c.88 0 1.638-.811 1.638-1.861zm3 0c0 2.662-2.053 4.861-4.638 4.861h-45.718c-2.585 0-4.637-2.199-4.637-4.861V17.36c0-2.662 2.052-4.861 4.637-4.861h45.718c2.585 0 4.638 2.199 4.638 4.861v20.167z" fill-rule="nonzero"/><path d="M211.808 33.216c-.925-.323-1.814-.63-2.722-.953-.417-.144-.454-.144-.599.288-.163.468-.308.953-.454 1.42-.072.199-.036.325.2.397l4.628 1.565c.2.071.29-.037.345-.198.544-1.331 1.089-2.662 1.615-3.975.29-.738.6-1.457.89-2.195.072-.216.2-.27.399-.27 2.45 0 4.9 0 7.35-.017.163 0 .327-.019.49 0 .29.017.417-.108.454-.396.109-.738.236-1.475.363-2.23.38-2.285.78-4.551 1.143-6.835.145-.918-.145-1.727-.926-2.303-.744-.557-1.542-.665-2.377-.305-.907.377-1.361 1.133-1.416 2.086-.054 1.007.454 1.709 1.325 2.158.182.09.381.126.563.216.072.036.163.162.145.216-.073.666-.181 1.349-.272 2.015-.018.161-.127.197-.272.197-.6 0-1.216.018-1.815.018h-4.12c-.418.018-.436.018-.454.414-.018.504.018 1.007.018 1.529 0 .198.091.252.273.252.544 0 1.089 0 1.615.018 1.325.018 2.65.018 3.974.036.127 0 .309-.054.29.197-.017.36-.054.432-.326.432-2.486 0-4.955.018-7.44 0-.237 0-.346.054-.455.288-.744 1.835-1.524 3.67-2.286 5.504a1.51 1.51 0 0 1-.146.431"/><path d="M228.333 30.932c-.09-1.06-.182-2.104-.672-3.057-.544-1.043-1.288-1.943-2.123-2.752-.218-.198-.345-.162-.4.144a38.598 38.598 0 0 0-.38 1.996c-.019.108.054.252.145.342.508.594.943 1.223 1.161 1.979a4.684 4.684 0 0 1-3.866 5.881c-2.05.288-3.847-.557-4.9-2.41-.344-.594-.617-1.223-.925-1.817-.037-.072-.055-.161-.11-.216-.108-.161-.235-.161-.308.019a62.074 62.074 0 0 0-.943 2.32c-.037.108.018.288.09.395.69 1.35 1.706 2.393 3.086 3.094 1.016.522 2.087.863 3.212.882a6.88 6.88 0 0 0 2.813-.612c1.87-.827 3.158-2.212 3.793-4.137.218-.647.236-1.367.327-2.05"/></g></g></svg>