<svg width="83" height="54" xmlns="http://www.w3.org/2000/svg"><g fill="none" fill-rule="evenodd"><path d="M0 0h83v54H0z" fill="#838383"/><path d="M66.493 36.528V16.36c0-1.05-.758-1.861-1.638-1.861H19.137c-.88 0-1.637.811-1.637 1.861v20.167c0 1.05.757 1.861 1.637 1.861h45.718c.88 0 1.638-.811 1.638-1.861zm3 0c0 2.662-2.053 4.861-4.638 4.861H19.137c-2.585 0-4.637-2.199-4.637-4.861V16.36c0-2.662 2.052-4.861 4.637-4.861h45.718c2.585 0 4.638 2.199 4.638 4.861v20.167z" fill="#FFF" fill-rule="nonzero"/><path d="M49 26.337c0 2.806-.73 4.952-2.189 6.436-1.46 1.485-3.56 2.227-6.3 2.227H36V18h4.99c2.533 0 4.501.733 5.905 2.198C48.298 21.663 49 23.709 49 26.338zm-2 .074c0-2.122-.527-3.721-1.58-4.797C44.364 20.538 42.8 20 40.72 20H38v13h2.28c2.233 0 3.91-.555 5.035-1.664 1.123-1.11 1.685-2.75 1.685-4.925z" fill="#FFF"/></g></svg>