<svg xmlns="http://www.w3.org/2000/svg" width="125" height="54" fill-rule="evenodd"><path fill="#838383" d="M0 0h125v54H0z"/><path d="M101 6.5c6.35 0 11.5 5.15 11.5 11.5v18c0 6.35-5.15 11.5-11.5 11.5H24c-6.35 0-11.5-5.15-11.5-11.5V18c0-6.35 5.15-11.5 11.5-11.5zm-22.932 3h-15l-45.66 31.867c1.51 1.85 3.78 3.054 6.337 3.13L24 44.5h3.932l50.136-35zM101 9.5H90.068l-50.136 35h14.506L104 10.044a8.47 8.47 0 0 0-2.744-.54L101 9.5zm7.758 5.02L65.93 44.5h15.513L109.5 25.04V18a8.47 8.47 0 0 0-.742-3.479zm.742 18.517L92.944 44.5H101a8.5 8.5 0 0 0 8.496-8.245L109.5 36v-2.962zM52.064 9.5H36.076L15.5 23.947v11.01L52.064 9.5zm-26.953 0H24c-4.11 0-7.54 2.92-8.33 6.798L25.11 9.5z" fill="#fff" fill-rule="nonzero"/></svg>