<svg width="81" height="120" xmlns="http://www.w3.org/2000/svg"><g fill="none" fill-rule="evenodd"><path fill-opacity=".87" fill="#FFF" d="M0 0h81v120H0z"/><path d="M9 16a89.36 89.36 0 0 1 31-5.5c10.667 0 21 1.833 31 5.5v86c-10 4.667-20.333 7-31 7-10.667 0-21-2.333-31-7V16z" fill="#FFF"/><path d="M8 17l.004-.156C8.277 11.712 22.016 9 40 9h.503C58.456 9.06 72 11.81 72 17v84c0 4.97-15.321 9-31.98 9l-.998-.005c-16.11-.155-30.72-4.045-31.017-8.846L8 101V17zm3 46.1v14.154l.07.019c9.284 2.317 18.91 3.475 28.877 3.475 9.684 0 19.37-1.094 29.054-3.281V63.322C58.861 65.774 49.13 67 39.806 67c-9.602 0-19.204-1.3-28.806-3.9zm0-28v13.148l.11.027c9.272 2.248 18.884 3.372 28.837 3.372 9.684 0 19.37-1.065 29.054-3.193V35.322C58.861 37.774 49.13 39 39.806 39c-9.602 0-19.204-1.3-28.806-3.9zM39.998 13c-7.938 0-15.368.629-20.818 1.719-2.588.517-4.63 1.122-5.967 1.754a6.56 6.56 0 0 0-.881.49l-.052.037.052.036c.178.123.403.254.672.39l.21.101c1.336.632 3.378 1.237 5.966 1.754C24.629 20.371 32.059 21 40 21c7.941 0 15.37-.629 20.821-1.719 2.588-.517 4.63-1.122 5.967-1.754a6.56 6.56 0 0 0 .881-.49l.051-.038-.175-.117a6.424 6.424 0 0 0-.515-.29l-.205-.102c-1.307-.624-3.308-1.224-5.848-1.74l-.54-.107c-5.293-1.02-12.371-1.618-19.944-1.642zm-21.05 91.726c5.792 1.52 13.354 2.432 21.073 2.432 7.719 0 15.27-.911 21.052-2.432 4.838-1.273 7.789-2.889 7.923-3.672L69 101v-8.764C58.862 94.746 49.132 96 39.807 96c-9.602 0-19.204-1.33-28.806-3.992L11 101c0 .758 2.984 2.423 7.947 3.726z" fill="#0E0E0E" fill-rule="nonzero"/></g></svg>