<?xml version="1.0" encoding="UTF-8"?>
<svg width="110" height="63" viewBox="0 0 110 63" fill="none" xmlns="http://www.w3.org/2000/svg">
<g clip-path="url(#clip0_303_21)">
<path d="M43.6094 58.1001H39.3594V57.2101H40.9394V51.3601H39.3594V50.5601C39.9594 50.5601 40.3994 50.4801 40.6794 50.3101C40.9594 50.1401 41.1194 49.8201 41.1594 49.3501H42.0694V57.2101H43.6194V58.1001H43.6094Z" fill="#8B8B8B"/>
<path d="M47.0895 58.1002H45.6895V56.4302H47.0895V58.1002Z" fill="#8B8B8B"/>
<path d="M53.7891 58.1001H49.5391V57.2101H51.1191V51.3601H49.5391V50.5601C50.1391 50.5601 50.5791 50.4801 50.8591 50.3101C51.1391 50.1401 51.2991 49.8201 51.3391 49.3501H52.2491V57.2101H53.7991V58.1001H53.7891Z" fill="#8B8B8B"/>
<path d="M61.0102 55.1004H59.9702V58.1004H58.8502V55.1004H54.9902V53.8704L58.8902 49.3804H59.9702V54.1704H61.0102V55.1104V55.1004ZM58.8502 54.1504V50.7404L55.9102 54.1504H58.8502Z" fill="#8B8B8B"/>
<path d="M63.7086 58.1002H62.3086V56.4302H63.7086V58.1002Z" fill="#8B8B8B"/>
<path d="M67.8202 50.2102C67.6102 50.2102 67.4002 50.2402 67.1902 50.2902C66.9802 50.3402 66.7702 50.4102 66.5702 50.4902C66.3802 50.5702 66.2202 50.6502 66.0802 50.7402C65.9402 50.8302 65.8202 50.9102 65.7102 50.9802H65.6402V49.7402C65.8902 49.6002 66.2402 49.4802 66.6702 49.3702C67.1002 49.2602 67.5202 49.2002 67.9202 49.2002C68.3202 49.2002 68.6601 49.2402 68.9501 49.3202C69.2401 49.4002 69.5102 49.5202 69.7502 49.6902C70.0102 49.8802 70.2002 50.1002 70.3302 50.3702C70.4602 50.6402 70.5302 50.9502 70.5302 51.3002C70.5302 51.7802 70.3702 52.2002 70.0602 52.5702C69.7502 52.9402 69.3602 53.1602 68.9202 53.2602V53.3402C69.1002 53.3802 69.3002 53.4402 69.5102 53.5202C69.7202 53.6002 69.9101 53.7302 70.0901 53.9002C70.2701 54.0702 70.4202 54.2802 70.5302 54.5502C70.6402 54.8202 70.7001 55.1302 70.7001 55.5102C70.7001 55.8902 70.6302 56.2702 70.5002 56.6002C70.3702 56.9302 70.1702 57.2202 69.9302 57.4802C69.6802 57.7502 69.3702 57.9502 69.0102 58.0802C68.6502 58.2102 68.2402 58.2902 67.7902 58.2902C67.3402 58.2902 66.9202 58.2402 66.4902 58.1302C66.0602 58.0202 65.7002 57.9002 65.4102 57.7502V56.5102H65.4902C65.7402 56.6902 66.0702 56.8602 66.4802 57.0302C66.8902 57.2002 67.3102 57.2802 67.7202 57.2802C67.9602 57.2802 68.2002 57.2402 68.4402 57.1702C68.6802 57.1002 68.8802 56.9702 69.0402 56.8002C69.2002 56.6302 69.3202 56.4402 69.4002 56.2302C69.4802 56.0202 69.5201 55.7602 69.5201 55.4402C69.5201 55.1202 69.4701 54.8602 69.3801 54.6602C69.2901 54.4602 69.1602 54.3002 69.0002 54.1802C68.8402 54.0602 68.6402 53.9802 68.4202 53.9402C68.2002 53.9002 67.9502 53.8702 67.6902 53.8702H67.1902V52.9002H67.5802C68.1102 52.9002 68.5402 52.7802 68.8702 52.5202C69.2002 52.2602 69.3702 51.9102 69.3702 51.4302C69.3702 51.2102 69.3302 51.0202 69.2402 50.8602C69.1502 50.7002 69.0402 50.5802 68.9102 50.4802C68.7602 50.3802 68.6002 50.3102 68.4202 50.2702C68.2402 50.2302 68.0502 50.2102 67.8502 50.2102H67.8202Z" fill="#8B8B8B"/>
<path d="M103.3 5.91016H6.59961V40.6002H103.3V5.91016Z" fill="#4F4F4F"/>
<path d="M6.59961 14H10.9996V19H6.59961V14Z" fill="white"/>
<path d="M17.9996 14H26.9996V19H17.9996V14Z" fill="white"/>
<path d="M33.9996 14H42.9996V19H33.9996V14Z" fill="white"/>
<path d="M49.9996 14H58.9996V19H49.9996V14Z" fill="white"/>
<path d="M65.9996 14H74.9996V19H65.9996V14Z" fill="white"/>
<path d="M81.9996 14H90.9996V19H81.9996V14Z" fill="white"/>
<path d="M97.9996 14H103.3V19H97.9996V14Z" fill="white"/>
<path d="M6.59961 28H10.9996V33H6.59961V28Z" fill="white"/>
<path d="M17.9996 28H26.9996V33H17.9996V28Z" fill="white"/>
<path d="M33.9996 28H42.9996V33H33.9996V28Z" fill="white"/>
<path d="M49.9996 28H58.9996V33H49.9996V28Z" fill="white"/>
<path d="M65.9996 28H74.9996V33H65.9996V28Z" fill="white"/>
<path d="M81.9996 28H90.9996V33H81.9996V28Z" fill="white"/>
<path d="M97.9996 28H103.3V33H97.9996V28Z" fill="white"/>
</g>
<defs>
<clipPath id="clip0_303_21">
<rect width="110" height="63" fill="white"/>
</clipPath>
</defs>
</svg>
