<svg width="110" height="80" xmlns="http://www.w3.org/2000/svg"><g fill="none" fill-rule="evenodd"><path d="M0 0h110v80H0z"/><g fill-rule="nonzero"><g transform="translate(5 6)"><rect fill="#000" width="101" height="51" rx="6.3"/><rect fill="#FFF" x="2.02" y="2.02" width="96.939" height="46.939" rx="4.9"/><path d="M19.878 34.673h3.061V27.02h7.653v-3.061h-7.653v-7.653h-3.061v7.653h-7.654v3.061h7.654v7.653zM57.56 17.327h9.33l3.498-4.038-7.58-6.92V4.06H61.64v2.307l-7.58 6.921 3.499 4.038.001.001zm.536-1.154l-2.418-2.79 6.546-5.977 6.547 5.977-2.418 2.79h-8.257zM40.263 38.755h1.951c0-1.959 1.774-3.546 3.962-3.546h33.117c2.188 0 3.962 1.587 3.962 3.546h1.952a3.547 3.547 0 0 0 3.548-3.546v-6.03a3.55 3.55 0 0 0-.475-1.773l-4.097-7.093a1.893 1.893 0 0 0-1.64-.946H42.927c-.676 0-1.301.36-1.64.946l-4.096 7.093a3.543 3.543 0 0 0-.476 1.773v6.03a3.546 3.546 0 0 0 3.549 3.546h-.001zm-1.525-11.822c0-.207.055-.411.159-.59l2.731-4.73c.212-.366.602-.59 1.025-.59h2.814c.653 0 1.182.529 1.182 1.182v4.728c0 .653-.53 1.182-1.182 1.182H39.92a1.183 1.183 0 0 1-1.183-1.182h.001zm8.858 0v-4.728c0-.653.53-1.183 1.182-1.183h7.097c.653 0 1.183.53 1.183 1.183v4.728c0 .653-.53 1.182-1.183 1.182h-7.097a1.182 1.182 0 0 1-1.182-1.182zm10.408 0v-4.728c0-.653.53-1.183 1.182-1.183h7.097c.653 0 1.183.53 1.183 1.183v4.728c0 .653-.53 1.182-1.183 1.182h-7.097a1.182 1.182 0 0 1-1.182-1.182zm10.408 0v-4.728c0-.653.53-1.183 1.183-1.183h7.096c.653 0 1.183.53 1.183 1.183v4.728c0 .653-.53 1.182-1.183 1.182h-7.096a1.182 1.182 0 0 1-1.183-1.182zm10.408 0v-4.728c0-.653.53-1.183 1.183-1.183h2.814c.422 0 .813.226 1.024.591l2.732 4.73a1.182 1.182 0 0 1-1.025 1.772h-5.545a1.183 1.183 0 0 1-1.183-1.182z" fill="#000"/><path d="M55.628 37.508v.227H68.82v-.227c0-1.14.588-2.204 1.567-2.835H54.06a3.377 3.377 0 0 1 1.567 2.835h.001z" fill="#000"/><circle fill="#000" cx="45.898" cy="38.755" r="3.061"/><circle fill="#000" cx="52.02" cy="38.755" r="3.061"/><circle fill="#000" cx="73.449" cy="38.755" r="3.061"/><circle fill="#000" cx="79.571" cy="38.755" r="3.061"/></g><path d="M42.914 70.568c0 .754-.294 1.381-.882 1.881-.588.5-1.327.75-2.218.75-.945 0-1.698-.244-2.258-.732s-.841-1.113-.841-1.875c0-.485.14-.923.422-1.316.281-.392.677-.704 1.19-.934v-.035c-.47-.25-.816-.524-1.04-.82-.225-.298-.338-.669-.338-1.114 0-.656.27-1.203.809-1.64.539-.438 1.224-.657 2.056-.657.872 0 1.567.21 2.086.627.52.418.78.95.78 1.594 0 .394-.123.782-.37 1.163-.246.38-.607.679-1.083.894v.035c.546.234.964.523 1.253.867.29.344.434.781.434 1.312zm-1.389-4.26c0-.417-.16-.75-.483-.998-.322-.248-.733-.373-1.233-.373-.493 0-.896.118-1.21.352a1.12 1.12 0 0 0-.472.95c0 .28.08.524.237.729.158.205.398.387.718.548.145.07.353.162.624.275.272.113.536.207.794.281.387-.258.654-.525.803-.802.148-.278.222-.598.222-.961v-.001zm.182 4.372c0-.36-.08-.648-.237-.865-.158-.216-.468-.434-.929-.653a5.885 5.885 0 0 0-.603-.24c-.22-.074-.51-.178-.874-.31a2.306 2.306 0 0 0-.846.779 2 2 0 0 0-.32 1.113c0 .527.182.963.545 1.307.364.343.825.515 1.383.515.57 0 1.027-.146 1.368-.44.342-.292.513-.695.513-1.206zM46.512 73h-1.4v-1.67h1.4V73zm8.332 0h-5.907v-1.225l1.234-1.054c.395-.337.78-.687 1.151-1.05.75-.726 1.264-1.303 1.541-1.73a2.5 2.5 0 0 0 .416-1.386c0-.453-.15-.808-.448-1.064-.299-.256-.716-.384-1.25-.384-.356 0-.741.063-1.155.188-.43.132-.838.326-1.213.574h-.059v-1.23c.278-.137.648-.262 1.11-.375a5.65 5.65 0 0 1 1.345-.17c.895 0 1.596.216 2.104.647.508.432.762 1.017.762 1.755 0 .332-.042.642-.126.929-.084.287-.208.56-.372.817-.153.242-.331.48-.537.715-.205.234-.454.494-.747.78-.418.41-.85.807-1.295 1.192-.445.384-.86.74-1.248 1.069h4.694V73zm7.13 0h-4.722v-.89h1.816v-5.848h-1.816v-.797c.246 0 .51-.02.791-.062.281-.04.494-.1.639-.178.18-.098.32-.222.424-.372.104-.15.164-.353.18-.607h.907v7.863h1.782V73h-.001zm4.16 0h-1.4v-1.67h1.4V73zm7.565-4.201c.188.168.342.379.463.633s.182.582.182.984c0 .398-.073.764-.217 1.096-.142.328-.35.623-.61.867-.296.275-.65.482-1.034.606-.396.131-.83.197-1.303.197a5.98 5.98 0 0 1-1.43-.173 6.72 6.72 0 0 1-1.154-.378v-1.225h.088c.332.219.722.4 1.171.545.45.145.883.217 1.301.217.246 0 .508-.041.785-.123a1.66 1.66 0 0 0 .674-.363 1.71 1.71 0 0 0 .402-.569c.087-.207.131-.468.131-.785 0-.312-.05-.571-.149-.776a1.193 1.193 0 0 0-.413-.484 1.615 1.615 0 0 0-.639-.249 4.575 4.575 0 0 0-.808-.067h-.528v-.973h.41c.594 0 1.068-.124 1.421-.372.354-.248.53-.61.53-1.087a1.1 1.1 0 0 0-.134-.553 1.1 1.1 0 0 0-.375-.39 1.686 1.686 0 0 0-.54-.211 3.27 3.27 0 0 0-.65-.059c-.37 0-.765.067-1.183.2-.418.132-.813.32-1.184.562h-.058v-1.224c.277-.137.647-.263 1.11-.378a5.56 5.56 0 0 1 1.345-.173c.426 0 .8.039 1.125.117.324.078.617.203.879.375.28.187.494.414.638.68.145.265.217.576.217.931 0 .485-.17.907-.513 1.269-.321.35-.745.588-1.21.682v.082c.188.032.403.097.645.197s.447.223.615.372z" fill="#8B8B8B"/></g></g></svg>