<svg width="100" height="86" xmlns="http://www.w3.org/2000/svg"><g transform="translate(10 3)" fill="none" fill-rule="evenodd"><rect fill="#FFF" fill-rule="nonzero" width="80" height="80" rx="6"/><rect stroke="#000" x=".5" y=".5" width="79" height="79" rx="6"/><path d="M5.803 3A2.797 2.797 0 0 0 3 5.803v32.89h74V5.803A2.797 2.797 0 0 0 74.197 3H5.803zm18.5 8.223v6.538h13.066l.014 7.849h-13.08v6.542L6.178 21.686l18.125-10.463zm27.354.487h2.758a.573.573 0 1 1 0 1.146h-2.758a.933.933 0 0 0-.932.932.79.79 0 0 0 .533.746 1.934 1.934 0 0 1 1.237 2.334h9.838l.337-.788h-2.527a.86.86 0 0 1 0-1.72h3.939a.86.86 0 0 1 0 1.72h-.32l-.518 1.212 2.155 3.076a5.728 5.728 0 0 1 8.21 5.165 5.73 5.73 0 0 1-11.405.792h-3.357l-7.912-6.051-.455.977a5.73 5.73 0 0 1-3.802 10.014 5.73 5.73 0 1 1 2.86-10.697l1.723-3.7.08-.172a.787.787 0 0 0-.458-1.079 1.934 1.934 0 0 1-1.304-1.829c0-1.147.93-2.078 2.078-2.078zm.424 6.447l-.585.918 7.463 5.705 2.828-6.623H52.08zm10.76.806l-2.59 6.072h1.917a5.722 5.722 0 0 1 2.138-3.976l-1.465-2.096zm-16.289 1.703a4.868 4.868 0 0 0-4.744 4.867c0 2.69 2.18 4.874 4.87 4.874a4.873 4.873 0 0 0 3.423-8.34l-1.096 2.352a2.08 2.08 0 0 1-.845.921l-1.194.69a.576.576 0 0 1-.785-.21.572.572 0 0 1 .21-.781l1.195-.69a.933.933 0 0 0 .378-.414l1.205-2.586a4.84 4.84 0 0 0-2.49-.683h-.127zm21.328 0c-.705 0-1.375.151-1.98.42l2.8 3.995a.791.791 0 0 1-.645 1.244h-4.983a4.872 4.872 0 0 0 9.678-.792c0-2.69-2.18-4.867-4.87-4.867zm-3.08 1.097a4.867 4.867 0 0 0-1.766 3.272h4.057L64.8 21.763zM3 41.307v14.39h50.08v-6.542l18.125 10.466L53.08 70.087v-6.542H3v10.652A2.797 2.797 0 0 0 5.803 77h68.394A2.797 2.797 0 0 0 77 74.197v-32.89H3z" fill="#0D69E1" fill-rule="nonzero"/></g></svg>