<svg width="140" height="86" xmlns="http://www.w3.org/2000/svg"><g fill="none" fill-rule="evenodd"><path d="M0 0h140v86H0z"/><path d="M6.722 8h126.556c2.608 0 4.722 2.74 4.722 6.12v58.76c0 3.38-2.114 6.12-4.722 6.12H6.722C4.114 79 2 76.26 2 72.88V14.12C2 10.74 4.114 8 6.722 8z" fill-opacity=".87" fill="#FFF"/><path d="M7.771 10H132.23c2.082 0 3.771 2.222 3.771 4.963v57.074c0 2.741-1.689 4.963-3.771 4.963H7.77C5.69 77 4 74.778 4 72.037V14.963C4 12.222 5.689 10 7.771 10z" fill="#181818"/><path d="M7.826 11h124.348c1.56 0 2.826 1.679 2.826 3.75v57.5c0 2.071-1.265 3.75-2.826 3.75H7.826C6.266 76 5 74.321 5 72.25v-57.5C5 12.679 6.265 11 7.826 11z" fill="#FFF"/><path d="M9.316 13A2.31 2.31 0 0 0 7 15.31v56.38A2.31 2.31 0 0 0 9.316 74H33.25V53.205a4.318 4.318 0 0 0-4.325-4.312h-2.16l-.224 5.4-14.69-8.647 14.914-8.616v5.393h2.16c1.537 0 3.001.318 4.325.896V32.717h-5.406l8.649-15.097 8.645 15.097h-5.403V74H51.5v-7H54v7h12.757V32.718h-5.405L70 17.621l8.648 15.097h-5.405V74H87.5v-7H90v7h10.264V39.188c0-5.955 4.841-10.785 10.81-10.785h2.16v-5.39l15.134 8.625-15.134 8.627v-5.393h-2.16a4.32 4.32 0 0 0-4.325 4.316V74h23.935A2.312 2.312 0 0 0 133 71.69V15.31a2.31 2.31 0 0 0-2.316-2.31H9.316zM51.5 40H54v7h-2.5v-7zm36 0H90v7h-2.5v-7zm-36 9H54v7h-2.41l-.09-7zm36 0H90v7h-2.5v-7zm-36 9H54v7h-2.5v-7zm36 0H90v7h-2.5v-7z" fill="#0D69E1" fill-rule="nonzero"/></g></svg>