<svg width="100" height="86" xmlns="http://www.w3.org/2000/svg"><g fill="none" fill-rule="evenodd"><path d="M89.734 43A39.867 39.867 0 1 1 10 43a39.867 39.867 0 1 1 79.734 0z" fill="#FFF" fill-rule="nonzero"/><path d="M90.5 43c0 22.368-18.132 40.5-40.5 40.5S9.5 65.368 9.5 43 27.632 2.5 50 2.5 90.5 20.632 90.5 43z" stroke="#000"/><path d="M37.255 22.423c-.997 0-2.063.76-2.388 1.702l-1.204 3.497-2.5 7.243c-.003.006-.002.014-.004.02l-.582 1.686a2.567 2.567 0 0 0-2.575 2.571v10.287a2.571 2.571 0 0 0 2.575 2.574h38.58a2.571 2.571 0 0 0 2.575-2.574V39.142c0-1.425-1.15-2.57-2.575-2.57l-.581-1.687c-.003-.006-.002-.014-.005-.02l-2.5-7.243-1.204-3.497c-.325-.943-1.39-1.702-2.388-1.702H37.255zm.785 2.575h23.654c.5 0 1.03.38 1.192.85l3.7 10.723H33.147l3.701-10.722c.163-.472.693-.851 1.192-.851zm27.259 14.015a3.858 3.858 0 1 1 0 7.716 3.858 3.858 0 0 1 0-7.716zm-30.864.129a3.858 3.858 0 1 1 0 7.716 3.858 3.858 0 0 1 0-7.716zM30.577 53.288v5.144a3.858 3.858 0 0 0 7.716 0v-5.144h-7.716zM61.441 53.288v5.144a3.858 3.858 0 0 0 7.717 0v-5.144H61.44z" fill="#000" fill-rule="nonzero"/><path d="M50 5C29.013 5 12 22.013 12 43s17.013 38 38 38 38-17.013 38-38S70.987 5 50 5zm0 7c17.12 0 31 13.88 31 31 0 17.12-13.88 31-31 31-17.12 0-31-13.88-31-31 0-17.12 13.88-31 31-31z" fill="red" fill-rule="nonzero"/></g></svg>