<svg width="100" height="86" xmlns="http://www.w3.org/2000/svg"><g transform="translate(10 3)" fill="none" fill-rule="evenodd"><rect fill="#FFF" fill-rule="nonzero" width="80" height="80" rx="6"/><rect stroke="#000" x=".5" y=".5" width="79" height="79" rx="6"/><path d="M6.304 3A3.296 3.296 0 0 0 3 6.304v65.41h15.857V66.43h14.536v-5.286h14.536v-5.286h14.535v-5.286H77V6.304A3.296 3.296 0 0 0 73.696 3H6.304zm27.551 3.964c2.903 0 4.097 2.183 4.097 3.965 0 3.098-4.21 5.285-5.814 5.285-2.288 0-3.7-2.177-3.7-4.175 0-2.352 2.016-5.075 5.417-5.075zm3.126 9.234c.243.008.48.081.69.223l8.845 5.967a.92.92 0 0 1 .397.62l1.466 9.262a2.112 2.112 0 1 1-4.175.66l-1.181-7.445a.92.92 0 0 0-.397-.62l-4.331-2.923 1.87 11.827c.051.322-.02.65-.198.925l-6.962 10.72a.925.925 0 0 0-.025.966l5.893 10.204a2.513 2.513 0 0 1-4.353 2.51l-7.648-13.25a.925.925 0 0 1 .025-.967l5.587-8.606a.922.922 0 0 0 .14-.623L30.64 20.567c-.07-.53.19-1.05.652-1.318l4.98-2.878a1.33 1.33 0 0 1 .71-.173zm-7.367 8.721l.748 5.686-4.72 5.629a2.118 2.118 0 0 1-2.982.26 2.113 2.113 0 0 1-.26-2.977l7.214-8.598zm-2.097 25.215l3.188 5.517-3.403 8.416a2.509 2.509 0 0 1-3.267 1.387 2.513 2.513 0 0 1-1.387-3.27l4.869-12.05zm37.59 5.723v5.286H50.571v5.286H36.036v5.285H21.5V77h52.196A3.296 3.296 0 0 0 77 73.696V55.857H65.107z" fill="#0D69E1" fill-rule="nonzero"/></g></svg>