<svg width="100" height="86" xmlns="http://www.w3.org/2000/svg"><g fill="none" fill-rule="evenodd"><path d="M55.464 6.502c3.267 5.663 6.466 11.286 11.217 19.692l4.76 8.425c10.212 18.068 16.33 28.664 23.07 39.766 2.228 3.668-.924 8.996-5.175 8.996H10.534c-4.251 0-7.403-5.328-5.176-8.996 6.738-11.099 12.84-21.67 23.068-39.763l4.632-8.2c4.828-8.54 8.048-14.2 11.348-19.92 2.852-4.943 8.207-4.943 11.058 0z" stroke="#0C0E0F"/><path d="M11.61 73.352l-.003.006-.556.967-.016.028a108.335 108.335 0 0 1-1.5 2.568c-.22.362.5 1.574 1 1.574h78.8c.5 0 1.22-1.212 1-1.575-.436-.718-.772-1.295-1.502-2.57l-.02-.036c-.266-.463-.396-.69-.554-.962L51.232 8.943c-.918-1.591-1.675-1.591-2.591-.003L11.61 73.352z" stroke="red" stroke-width="6" fill="#FFF"/><g fill="#000" fill-rule="nonzero"><path d="M47.5 64.488a1.248 1.248 0 0 1-2.346.854l-2.88-7.914 1.847-5.077 2.346.853-1.537 4.224 2.57 7.06zM62.741 65.32v6.336a1.248 1.248 0 0 1-2.496 0V63.77l.617.165c.169.045.327.126.463.236l1.416 1.147z"/><path d="M63.918 65.145l-2.188-1.77a1.248 1.248 0 0 0-.462-.235l-.558-.15a1.248 1.248 0 0 1-.858-.799l-1.372-3.986a1.248 1.248 0 0 0-.482-.628L47.984 50.82a2.37 2.37 0 0 1-2.734.418l-5.98-3.047-1.543 8.745a1.248 1.248 0 0 1-2.458-.433l1.83-10.377a1.248 1.248 0 0 1 1.815-.885l5.027 2.673 1.76-9.981-4.599-3.22a1.248 1.248 0 0 1 .868-2.261l5.435.667.095-.99-3.487-2.628a.749.749 0 0 1-.27-.805l.778-2.71a.749.749 0 0 1 1.44.413l-.599 2.087 2.305 1.736.162-1.855a1.123 1.123 0 0 1 2.238.195l-.135 1.545 3.134-3.736.13-1.472a.811.811 0 1 1 1.616.141l-.153 1.747a.749.749 0 0 1-.172.416l-4.801 5.722-.025.283h2.033a.999.999 0 1 1 0 1.997h-1.432l2.065 7.705 13.836 9.332c.53.357.704 1.057.404 1.621l-2.986 5.615a1.248 1.248 0 0 0 .22 1.469l2.062 2.061c.128.13.228.285.29.456l3.159 8.68a1.248 1.248 0 0 1-2.346.854l-2.198-6.039-.463-1.272a1.248 1.248 0 0 0-.387-.543z"/></g></g></svg>