<svg width="95" height="136" xmlns="http://www.w3.org/2000/svg"><g fill="none" fill-rule="evenodd"><rect x=".5" y=".5" width="85" height="127" rx="6" transform="translate(5 4)" fill="#FFF" stroke="#000"/><g fill-rule="nonzero"><path d="M11.03 7A3.018 3.018 0 0 0 8 10.02v115.96a3.018 3.018 0 0 0 3.03 3.02h73.94a3.018 3.018 0 0 0 3.03-3.02V10.02A3.018 3.018 0 0 0 84.97 7H11.03zm7.508 19h58.924C80.53 26 83 28.435 83 31.46v58.08c0 3.025-2.47 5.46-5.538 5.46H18.538C15.47 95 13 92.565 13 89.54V31.46c0-3.025 2.47-5.46 5.538-5.46z" fill="#0D69E1"/><g fill="#FFF"><path d="M16.627 109.514l.783 1.03 1.777-1.126v10.402h2.323v-13.422h-1.99zM28.4 106.23c-1.349.035-2.427.678-3.236 1.93-.81 1.25-1.224 2.9-1.245 4.949.021 2.048.436 3.698 1.245 4.95.809 1.25 1.887 1.893 3.235 1.928 1.348-.035 2.427-.678 3.236-1.929.808-1.251 1.223-2.901 1.244-4.95-.02-1.953-.436-3.576-1.244-4.868-.81-1.291-1.888-1.961-3.236-2.01zm0 2.085c.649-.01 1.168.37 1.558 1.139.389.769.588 1.987.598 3.655-.01 1.668-.21 2.886-.598 3.655-.39.769-.909 1.148-1.559 1.138-.65.01-1.17-.37-1.558-1.138-.39-.77-.589-1.987-.599-3.655.01-1.668.21-2.886.599-3.655.389-.77.908-1.149 1.558-1.139zM38.764 106.23c-1.349.035-2.427.678-3.236 1.93-.809 1.25-1.223 2.9-1.244 4.949.02 2.048.435 3.698 1.244 4.95.809 1.25 1.887 1.893 3.236 1.928 1.348-.035 2.426-.678 3.235-1.929.809-1.251 1.224-2.901 1.244-4.95-.02-1.953-.435-3.576-1.244-4.868-.809-1.291-1.887-1.961-3.235-2.01zm0 2.085c.65-.01 1.169.37 1.558 1.139.39.769.589 1.987.598 3.655-.01 1.668-.209 2.886-.598 3.655-.39.769-.909 1.148-1.558 1.138-.65.01-1.17-.37-1.559-1.138-.389-.77-.588-1.987-.598-3.655.01-1.668.209-2.886.598-3.655.39-.77.909-1.149 1.559-1.139zM46.772 119.82h1.991l.497-6.543 2.655 5.368 2.655-5.368.498 6.543h1.991l-.83-9.396h-1.99l-2.324 4.698-2.323-4.698h-1.99z"/></g><path fill="#FFF" d="M69.923 110.36v-4.16l11.677 6.933-11.677 6.934v-4.16h-5.39v-5.547z"/><g fill="#000"><path d="M16.595 52.935V66.69h2.04V54.998h4.368V66.69h2.04V52.935zM31.011 56.717c-1.113.021-2.017.494-2.712 1.418-.695.925-1.053 2.171-1.074 3.74.021 1.569.38 2.815 1.074 3.74.695.924 1.599 1.397 2.712 1.418 1.114-.021 2.018-.494 2.712-1.418.695-.925 1.053-2.171 1.074-3.74-.02-1.569-.379-2.815-1.074-3.74-.694-.924-1.598-1.397-2.712-1.418zm0 1.72c.595.014 1.08.329 1.456.945.377.616.57 1.447.583 2.493-.012 1.046-.206 1.877-.583 2.493-.376.616-.861.931-1.456.946-.594-.015-1.08-.33-1.456-.946-.376-.616-.57-1.447-.583-2.493.013-1.046.207-1.877.583-2.493.376-.616.862-.931 1.456-.946zM38 57.06c0 .665-.013 1.468-.04 2.41a50.598 50.598 0 0 1-.142 2.64c-.067.817-.159 1.369-.276 1.656-.186.392-.417.695-.692.91-.274.213-.536.344-.785.392l.333 1.965c1.183-.367 1.988-.99 2.416-1.866.428-.876.662-1.868.701-2.974.04-1.106.069-2.186.087-3.241h2.33v7.737h1.747v-9.628H38zM46.153 57.06v9.63l1.893.003 3.35-6.537v6.534h1.747v-9.63H51.25l-3.349 6.535V57.06zM55.472 57.06v9.63h6.408v2.063h1.747v-3.955h-1.602V57.06h-1.747v7.737H57.22V57.06zM64.791 57.06v9.63l1.893.003 3.35-6.537v6.534h1.747v-9.63h-1.893l-3.35 6.535V57.06zM80.517 66.69v-9.63h-3.495c-1.007.037-1.723.352-2.148.946a3.227 3.227 0 0 0-.619 1.978c.019.574.2 1.07.547 1.489.345.418.746.7 1.201.844-.476.11-.867.434-1.17.975a12.434 12.434 0 0 0-.815 1.783c-.239.648-.5 1.186-.782 1.614h2.039c.13-.295.291-.75.487-1.362a6.1 6.1 0 0 1 .857-1.705c.375-.525.898-.805 1.568-.838.14-.002.25.001.33.009.08.008.165.03.253.064v3.832h1.747zm-1.747-5.503h-1.602a.96.96 0 0 1-.736-.39 1.266 1.266 0 0 1-.283-.813c.015-.269.115-.505.299-.71a.975.975 0 0 1 .72-.322h1.602v2.235z"/></g></g></g></svg>