<svg width="115" height="71" xmlns="http://www.w3.org/2000/svg"><g transform="translate(8 11)" fill="none" fill-rule="evenodd"><rect stroke="#000" stroke-width="2" fill="#FFF" x="1" y="1" width="98" height="48" rx="6"/><g fill="#000" fill-rule="nonzero"><path d="M76.935 21.896v-6.209L93.185 25l-16.25 9.313v-6.209h-12.5v-6.208zM7.826 20.634l.966 1.252 2.198-1.368v12.63h2.87V16.851H11.4zM23.21 16.647c-1.666.043-3 .824-3.999 2.343-1 1.52-1.512 3.523-1.538 6.01.026 2.487.538 4.49 1.538 6.01 1 1.52 2.333 2.3 3.999 2.343 1.666-.043 3-.824 3.999-2.343 1-1.52 1.512-3.523 1.538-6.01-.026-2.372-.538-4.343-1.538-5.912-1-1.568-2.333-2.382-3.999-2.44zm0 2.532c.803-.012 1.445.45 1.926 1.383.481.934.728 2.413.74 4.438-.012 2.025-.259 3.504-.74 4.438-.48.934-1.123 1.395-1.926 1.383-.803.012-1.445-.45-1.926-1.383-.481-.934-.728-2.413-.74-4.438.012-2.025.259-3.504.74-4.438.48-.934 1.123-1.395 1.926-1.383zM36.856 16.647c-1.666.043-3 .824-4 2.343-.999 1.52-1.512 3.523-1.537 6.01.025 2.487.538 4.49 1.538 6.01 1 1.52 2.333 2.3 3.999 2.343 1.666-.043 3-.824 3.999-2.343 1-1.52 1.512-3.523 1.538-6.01-.026-2.372-.538-4.343-1.538-5.912-1-1.568-2.333-2.382-4-2.44zm0 2.532c.803-.012 1.445.45 1.926 1.383.481.934.728 2.413.74 4.438-.012 2.025-.259 3.504-.74 4.438-.48.934-1.123 1.395-1.926 1.383-.803.012-1.445-.45-1.926-1.383-.481-.934-.728-2.413-.74-4.438.012-2.025.259-3.504.74-4.438.48-.934 1.123-1.395 1.926-1.383zM46.68 33.148h2.46l.616-7.945 3.28 6.52 3.283-6.52.615 7.945h2.46L58.37 21.74h-2.461l-2.871 5.704-2.871-5.704h-2.461z"/></g></g></svg>