<svg width="290" height="120" xmlns="http://www.w3.org/2000/svg"><g fill="none" fill-rule="evenodd"><path d="M16.31 65.14c-3.496 0-6.31 2.79-6.31 6.257v29.206c0 3.467 2.814 6.258 6.31 6.258h229.258L282 86l-36.432-20.86H16.31z" fill="#FFF" fill-rule="nonzero"/><path d="M16.053 66C13.253 66 11 68.277 11 71.106v29.788c0 2.829 2.253 5.106 5.053 5.106H244.79l19.79-20-19.79-20H16.053zm157.403 5.129h1.343c.181.788.697 1.183 1.539 1.183.852 0 1.36-.395 1.522-1.183h1.355c-.24.769-.634 1.368-1.184 1.804a2.648 2.648 0 0 1-1.68.598c-.617 0-1.18-.202-1.693-.598-.546-.436-.948-1.035-1.202-1.804zm39.487 0h1.342c.182.788.693 1.183 1.536 1.183.852 0 1.359-.395 1.521-1.183h1.36c-.24.769-.638 1.368-1.188 1.804a2.648 2.648 0 0 1-1.68.598c-.618 0-1.181-.202-1.693-.598-.546-.436-.944-1.035-1.198-1.804zm-13.798 2.562l.54 1.804c-.393.034-.641.068-.742.102-.206.063-.405.218-.596.465l-1.465 1.91c-.177.238-.308.393-.4.47-.162.146-.346.24-.547.284.675.102 1.227.462 1.653 1.082.038.058.568.93 1.588 2.624.809 1.35 1.293 2.067 1.456 2.15h-2.268c-.206-.218-.581-.826-1.127-1.822l-1.1-1.968c-.288-.47-.585-.78-.891-.936-.273-.14-.698-.216-1.272-.23v4.956h-1.816V73.943h1.816v3.932c.57-.024 1.118-.389 1.645-1.095.464-.653.93-1.302 1.399-1.95.617-.721 1.328-1.1 2.127-1.14zm-84.855.013c1.158 0 2.144.543 2.96 1.627.816 1.083 1.224 2.393 1.224 3.931 0 1.53-.408 2.835-1.224 3.919-.816 1.084-1.802 1.627-2.96 1.627-1.15 0-2.132-.543-2.948-1.627-.816-1.084-1.223-2.39-1.223-3.919 0-1.538.407-2.848 1.223-3.931.816-1.084 1.799-1.627 2.948-1.627zm72.013.03c.847 0 1.617.312 2.316.936.68.6 1.183 1.393 1.509 2.385l-1.693.718c-.178-.687-.458-1.241-.838-1.662-.38-.421-.807-.63-1.28-.63-.638 0-1.183.373-1.632 1.113-.45.74-.676 1.632-.676 2.682s.226 1.948.676 2.69c.45.743.994 1.113 1.631 1.113.46 0 .879-.201 1.254-.603.376-.401.66-.933.851-1.596l1.685.652c-.326.982-.825 1.768-1.505 2.358-.69.61-1.456.918-2.298.918-1.144 0-2.125-.541-2.939-1.623-.813-1.081-1.219-2.385-1.219-3.914 0-1.528.406-2.837 1.22-3.918.813-1.081 1.794-1.618 2.938-1.618zm-82.022.116c.244 0 .485.1.72.302.234.2.35.445.35.74l.022.337c0 .527-.124.977-.373 1.352-.249.375-.62.688-1.114.94l-.118-.355c.507-.155.815-.58.925-1.277a2.057 2.057 0 0 1-.68.027.96.96 0 0 1-.552-.302c-.17-.174-.255-.417-.255-.722 0-.237.101-.47.307-.7a.985.985 0 0 1 .768-.342zm2.728 0c.244 0 .485.1.72.302.234.2.35.445.35.74l.022.337c0 .527-.124.977-.373 1.352-.249.375-.62.688-1.114.94l-.118-.355c.507-.155.815-.58.925-1.277a2.057 2.057 0 0 1-.68.027.96.96 0 0 1-.552-.302c-.17-.174-.255-.417-.255-.722 0-.237.102-.47.307-.7a.985.985 0 0 1 .768-.342zm115.61 0c.244 0 .485.1.72.302.234.2.35.445.35.74l.022.337c0 .527-.124.977-.373 1.352-.249.375-.62.688-1.114.94l-.123-.355c.508-.155.816-.58.926-1.277a2.031 2.031 0 0 1-.676.027.96.96 0 0 1-.552-.302c-.17-.174-.26-.417-.26-.722 0-.237.106-.47.312-.7a.985.985 0 0 1 .768-.342zm2.728 0c.244 0 .485.1.72.302.234.2.35.445.35.74l.022.337c0 .527-.124.977-.373 1.352-.249.375-.62.688-1.114.94l-.123-.355c.508-.155.816-.58.926-1.277a2.031 2.031 0 0 1-.676.027.96.96 0 0 1-.552-.302c-.17-.174-.255-.417-.255-.722 0-.237.101-.47.307-.7a.985.985 0 0 1 .768-.342zm-102.544.093h6.68v10.639h-1.913v-8.99h-2.864l-.087 4.207c-.034 1.364-.233 2.416-.601 3.156-.484.933-1.314 1.56-2.487 1.875l-1.026-1.84c.919-.227 1.539-.58 1.855-1.064.287-.425.43-1.135.43-2.127 0-.784.004-1.76.008-2.926.005-1.969.005-2.944.005-2.93zm8.724 0h1.666v7.527l4.035-7.527h1.763v10.639h-1.68v-7.789l-4.017 7.789h-1.767V73.943zm10.565 0h1.794l2.465 4.787 2.312-4.787h1.855l1.061 10.639h-1.855l-.715-7.953-2.658 5.825-2.759-5.847-.732 7.975h-1.838l1.07-10.639zm11.531 0h7.526v10.639h-1.767v-9.07h-3.991v9.07h-1.768V73.943zm9.553 0h1.666v7.527l4.035-7.527h1.768v10.639h-1.68v-7.789l-4.022 7.789h-1.767V73.943zm9.5 0h1.658v7.518l4.008-7.518h1.76V84.59h-1.659v-7.774l-4.009 7.774h-1.758V73.943zm29.987 0h1.666v7.527l4.035-7.527h1.764v10.639h-1.68v-7.789l-4.022 7.789h-1.763V73.943zm9.495 0h1.658v7.518l4.009-7.518h1.759V84.59h-1.658v-7.774l-4.009 7.774h-1.759V73.943zm-97.846 1.512c-.647 0-1.195.37-1.645 1.117-.45.747-.676 1.65-.676 2.7 0 1.05.226 1.943.676 2.685.45.743.998 1.113 1.645 1.113.636 0 1.18-.37 1.636-1.113.454-.742.684-1.636.684-2.686s-.23-1.952-.684-2.7c-.455-.747-1-1.116-1.636-1.116zM40.6 76.656c.704 0 1.35.228 1.934.678.57.44.99 1.021 1.268 1.747l-1.478.567c-.326-1.084-.9-1.627-1.724-1.627-.522 0-.963.262-1.329.79-.366.527-.553 1.165-.553 1.91 0 .75.187 1.39.553 1.92.366.529.807.793 1.329.793.785 0 1.353-.509 1.697-1.53l1.465.55c-.282.706-.707 1.272-1.267 1.693a3.064 3.064 0 0 1-1.895.652c-.967 0-1.792-.399-2.474-1.197-.682-.798-1.022-1.759-1.022-2.881 0-1.123.34-2.08 1.022-2.873.682-.793 1.507-1.192 2.474-1.192zm16.267.053c1.087 0 1.914.277 2.479.834.497.493.745 1.142.745 1.95v3.404c.034.382.162.576.382.576a.367.367 0 0 0 .136-.03l-.54 1.307c-.948.024-1.473-.325-1.579-1.046-.33.62-1.044.953-2.14 1.002-.694 0-1.26-.211-1.697-.63-.438-.418-.665-.978-.685-1.68-.014-.517.15-.99.5-1.418.35-.428.79-.696 1.316-.802l2.584-.524c0-1.044-.5-1.584-1.5-1.617a3.32 3.32 0 0 0-.702.088c-.55.14-1.028.399-1.426.772l-.6-1.242c.933-.59 1.842-.905 2.727-.944zm28.106 0c.957 0 1.774.395 2.452 1.184.677.788 1.017 1.733 1.017 2.841 0 1.122-.34 2.078-1.017 2.86-.678.78-1.495 1.17-2.452 1.17-.948 0-1.761-.39-2.439-1.17-.677-.782-1.017-1.738-1.017-2.86 0-1.108.34-2.053 1.017-2.841.678-.789 1.491-1.184 2.439-1.184zm-39.145.164h6.075v1.48h-2.198v6.229h-1.631v-6.228h-2.246v-1.48zm18.706 0h5.522v6.237h.833v3.143h-1.456v-1.671h-5.329v1.67H62.64V83.11h.816c.718-1.664 1.08-3.745 1.08-6.237zm8.377 0h1.658v5.124l3.163-5.124h1.758v7.709H77.83v-5.125l-3.136 5.125h-1.78v-7.709zm17.562 0h1.658v3.041h2.85v-3.04h1.658v7.708h-1.657v-3.383h-2.851v3.383h-1.658v-7.709zm-5.5 1.193c-.508 0-.943.264-1.307.789s-.544 1.149-.544 1.879c0 .745.18 1.38.544 1.902.364.522.8.784 1.307.784.517 0 .956-.262 1.32-.784.364-.523.548-1.157.548-1.902 0-.73-.184-1.354-.548-1.88-.364-.524-.803-.788-1.32-.788zM66.1 78.26c-.096 1.973-.419 3.591-.97 4.849h3.246v-4.85h-2.276zm-7.658 2.49c-.522.131-1.04.271-1.553.426-.88.242-1.32.634-1.32 1.17 0 .731.432 1.095 1.298 1.095.37 0 .73-.182 1.08-.545.33-.334.495-.645.495-.935v-1.21zm179.926.072a3.5 3.5 0 0 1 1.86.523c.746.44 1.114 1.081 1.105 1.928-.005.493-.19.968-.553 1.423-.397.493-.927.85-1.588 1.068.833.044 1.487.317 1.96.82.432.465.653 1.064.668 1.804.014 1.045-.31 1.885-.97 2.513-.627.59-1.43.898-2.416.927-1.178.039-2.208-.17-3.084-.625l-.35-1.72a6.218 6.218 0 0 0 2.64.603c1.512 0 2.272-.546 2.272-1.645 0-1.107-.594-1.662-1.781-1.662-.316 0-.662.046-1.035.138l.136-1.56c1.46-.32 2.188-.886 2.188-1.694 0-.89-.439-1.334-1.32-1.334-.665 0-1.432.288-2.298.864l-.636-1.48c.78-.58 1.847-.877 3.202-.891zM48.46 87.795v3.263h1.947v1.498h-1.947v3.976c.114.503.453.753 1.008.753.173 0 .477-.056.917-.172l.347 1.56c-.647.126-1.192.186-1.632.186-1.513 0-2.268-.596-2.268-1.79v-4.513h-1.32v-1.498h1.298v-2.722l1.65-.54zm62.438.093c1.159 0 2.149.543 2.965 1.627.816 1.084 1.224 2.393 1.224 3.932 0 1.529-.408 2.835-1.224 3.918-.816 1.084-1.806 1.627-2.965 1.627-1.149 0-2.13-.543-2.947-1.627-.816-1.083-1.224-2.39-1.224-3.918 0-1.539.408-2.848 1.224-3.932.816-1.084 1.798-1.627 2.947-1.627zm58.351.093c.838 0 1.553.115 2.154.337.6.223 1.185.587 1.75 1.1l-1.22 1.156-.763-.59c-.387-.29-.932-.433-1.636-.433-.507 0-.96.167-1.355.5-.395.334-.592.676-.592 1.024l.044.266.11.235c.11.155.26.296.451.421l2.627.812c.867.348 1.42.61 1.654.789.527.42.79 1.054.79 1.901 0 .92-.403 1.728-1.202 2.425-.747.667-1.588 1.002-2.527 1.002-.828 0-1.605-.16-2.333-.48-.608-.275-1.303-.719-2.088-1.333l1.277-1.17 1.364.979c.445.208 1.03.315 1.758.315.498 0 .887-.158 1.163-.47.275-.312.412-.679.412-1.1 0-.275-.07-.526-.206-.749a1.07 1.07 0 0 0-.58-.46l-2.065-.541c-.79-.266-1.365-.559-1.72-.878-.511-.489-.767-1.13-.767-1.924 0-.866.374-1.604 1.119-2.216.744-.612 1.539-.918 2.381-.918zm-68.355.054c.244 0 .48.1.715.301.234.2.355.445.355.74l.022.337c0 .527-.128.977-.377 1.352-.25.375-.617.688-1.11.94l-.123-.355c.508-.155.816-.58.926-1.276a2.057 2.057 0 0 1-.68.026.96.96 0 0 1-.553-.301c-.17-.174-.254-.418-.254-.723 0-.237.106-.47.311-.7a.985.985 0 0 1 .768-.341zm2.728 0c.244 0 .48.1.715.301.234.2.355.445.355.74l.022.337c0 .527-.128.977-.377 1.352-.249.375-.617.688-1.11.94l-.123-.355c.508-.155.816-.58.926-1.276a2.057 2.057 0 0 1-.68.026.96.96 0 0 1-.553-.301c-.17-.174-.254-.418-.254-.723 0-.237.106-.47.311-.7a.985.985 0 0 1 .768-.341zm97.198 0c.244 0 .48.1.714.301.235.2.356.445.356.74l.022.337c0 .527-.129.977-.378 1.352-.248.375-.616.688-1.11.94l-.122-.355c.507-.155.815-.58.925-1.276a2.057 2.057 0 0 1-.68.026.96.96 0 0 1-.552-.301c-.17-.174-.254-.418-.254-.723 0-.237.105-.47.311-.7a.985.985 0 0 1 .768-.341zm2.728 0c.244 0 .484.1.719.301.234.2.35.445.35.74l.023.337c0 .527-.124.977-.373 1.352-.249.375-.621.688-1.114.94l-.123-.355c.507-.155.815-.58.925-1.276a2.057 2.057 0 0 1-.68.026.96.96 0 0 1-.552-.301c-.17-.174-.254-.418-.254-.723 0-.237.105-.47.311-.7a.985.985 0 0 1 .768-.341zm-131.97.026c.302 0 .551.105.754.31.204.206.307.463.307.767 0 .295-.105.548-.315.758-.211.21-.459.315-.746.315-.306 0-.57-.103-.785-.306a1.054 1.054 0 0 1-.325-.767c0-.304.11-.56.325-.767a1.1 1.1 0 0 1 .785-.31zm-4.776.067h1.623v10.638h-1.307l-.308-.47-.381.302c-.369.28-.898.42-1.592.42-.838.03-1.582-.251-2.228-.842-.7-.769-1.074-1.718-1.132-2.85-.01-1.46.3-2.554.93-3.28.63-.726 1.386-1.094 2.276-1.108.757-.015 1.34.114 1.742.39l.377.288v-3.488zm50.316 0h1.916v9.02h4.654v1.618h-6.57V88.128zm8.605 0h1.86v10.638h-1.86V88.128zm3.899 0h2.044l2.943 5.11 2.965-5.11h2.048v10.638h-1.85v-7.664l-3.163 5.558-3.136-5.558v7.664h-1.851V88.128zm12.022 0h4.294c.814 0 1.513.341 2.092 1.024.474.624.71 1.345.71 2.167 0 .837-.233 1.589-.697 2.256-.546.794-1.248 1.193-2.105 1.193h-2.526v3.998h-1.768V88.128zm9.127 0h1.86v10.638h-1.86V88.128zm3.895 0h2.127l2.022 4.25 2.105-4.25h2.167l-3.452 6.387v4.251h-1.6v-4.25l-3.37-6.388zm20.632 0h1.833v10.638h-1.833V88.128zm5.35 0h2.671l-3.912 4.809 4.035 5.829H180.9l-3.745-5.851 3.495-4.787zm4.838 0h1.86v10.638h-1.86V88.128zm3.895 0h2.127l2.026 4.25 2.101-4.25h2.171l-3.456 6.387v4.251h-1.6v-4.25l-3.37-6.388zm-78.46 1.511c-.647 0-1.196.37-1.646 1.117-.45.748-.675 1.65-.675 2.7 0 1.05.226 1.943.675 2.686.45.742.999 1.112 1.645 1.112.637 0 1.186-.37 1.64-1.112.455-.743.68-1.637.68-2.686 0-1.05-.225-1.952-.68-2.7-.454-.747-1.003-1.117-1.64-1.117zm32.49.062v3.471h2.027c.479 0 .861-.197 1.153-.594.254-.329.382-.72.382-1.17 0-.44-.098-.824-.294-1.153-.268-.367-.681-.554-1.241-.554h-2.026zM91.4 90.836c.55 0 1 .161 1.347.483.347.322.517.779.517 1.379v6.068h-1.605v-5.5c.01-.562-.227-.843-.71-.848-.537 0-1.206.463-2 1.397v4.951h-1.64v-5.5c0-.61-.219-.914-.654-.914-.627-.02-1.315.466-2.062 1.463v4.951h-1.645v-7.708h1.343l.215.873c.493-.363.934-.635 1.324-.811.39-.177.779-.262 1.167-.262.68 0 1.247.357 1.697 1.073.924-.73 1.825-1.095 2.706-1.095zm-35.706.058c1.087 0 1.909.277 2.474.833.498.493.75 1.142.75 1.95v3.405c.033.382.157.576.377.576a.366.366 0 0 0 .136-.031l-.535 1.307c-.948.025-1.474-.325-1.58-1.046-.33.62-1.043.954-2.14 1.002-.694 0-1.259-.21-1.697-.63-.438-.418-.67-.978-.688-1.68-.015-.517.154-.99.504-1.418.35-.428.785-.696 1.311-.802l2.588-.523c0-1.045-.5-1.584-1.5-1.618a3.36 3.36 0 0 0-.706.089c-.55.14-1.024.398-1.421.77l-.605-1.24c.933-.59 1.846-.906 2.732-.944zm-15.364.022c1.206 0 2.232.349 3.079 1.05l-.974.865-.741-.537c-.23-.145-.605-.217-1.127-.217a1.59 1.59 0 0 0-1.04.36c-.31.26-.469.515-.469.757 0 .271.158.499.47.687l2.039.576c.68.262 1.115.459 1.311.599.398.343.597.803.597 1.378 0 .673-.299 1.26-.9 1.756-.6.496-1.271.744-2.008.744-.651 0-1.24-.118-1.772-.35a9.167 9.167 0 0 1-1.689-.993l1-.855 1.075.776c.34.14.794.208 1.364.208.383 0 .686-.116.903-.346a1.143 1.143 0 0 0 .286-1.09 1.708 1.708 0 0 0-.106-.262.943.943 0 0 0-.465-.363l-1.614-.382c-.636-.212-1.088-.429-1.346-.647-.407-.358-.61-.82-.61-1.392 0-.628.288-1.176.86-1.635.572-.46 1.197-.687 1.877-.687zm30.4.142h1.653v7.708h-1.654v-7.708zm3.955.008h1.71v5.51c0 .61.222.913.668.913.272 0 .607-.12 1.004-.359.397-.24.784-.606 1.158-1.099v-4.965h1.684v7.7h-1.386l-.237-.833c-.502.362-.96.625-1.377.784a3.168 3.168 0 0 1-1.193.244c-.704 0-1.278-.254-1.724-.767a1.52 1.52 0 0 1-.302-.904c-.003-.327-.005-.746-.005-1.259v-4.965zm-9.596 1.277c-.723 0-1.234.232-1.535.692-.254.391-.382 1.048-.382 1.972 0 .818.161 1.459.487 1.928.325.47.776.705 1.35.705.427.03.82-.111 1.176-.425.357-.315.561-.76.619-1.33v-1.946c-.029-.426-.16-.779-.395-1.064-.254-.353-.693-.532-1.32-.532zm-7.825 2.593c-.522.13-1.04.27-1.552.426-.881.242-1.32.633-1.32 1.17 0 .73.436 1.095 1.302 1.095.369 0 .725-.183 1.075-.545.33-.334.495-.645.495-.936v-1.21z" fill="#0D69E1" fill-rule="nonzero"/><path d="M246.213 108.5L282.06 86l-35.846-22.5H14.247c-3.175 0-5.747 2.796-5.747 6.292v32.416c0 3.496 2.572 6.292 5.747 6.292h231.966z" stroke="#000"/><g><path d="M16.306 12C12.813 12 10 14.867 10 18.43v30.002c0 3.562 2.813 6.429 6.306 6.429h156.28L209 33.43 172.585 12H16.306z" fill="#FFF" fill-rule="nonzero"/><path d="M172.245 56.5L208.06 34l-35.815-22.5H14.24c-3.171 0-5.741 2.796-5.741 6.292v32.416c0 3.496 2.57 6.292 5.741 6.292h158.004z" stroke="#000"/><path d="M16.052 14C13.253 14 11 16.277 11 19.106v29.788C11 51.723 13.253 54 16.052 54h155.75l19.79-20-19.79-20H16.052zm130.406 7.747c1.159 0 2.144.546 2.96 1.636.817 1.09 1.224 2.407 1.224 3.954 0 1.537-.407 2.85-1.223 3.94-.817 1.09-1.802 1.636-2.96 1.636-1.15 0-2.132-.546-2.948-1.636-.816-1.09-1.224-2.403-1.224-3.94 0-1.547.408-2.864 1.224-3.954.816-1.09 1.798-1.636 2.947-1.636zm-109.354.24h1.86v9.058h3.056v-9.057h1.742v9.057h3.078v-9.057h1.86v10.698H37.104V21.988zm14.306 0h6.421v1.65h-4.684v2.612h3.82v1.627h-3.82v3.16h4.684v1.65h-6.42V21.988zm9.136 0h4.074c.929 0 1.727.328 2.4.977a3.18 3.18 0 0 1 1.008 2.38c0 .934-.336 1.719-1.009 2.354a3.36 3.36 0 0 1-2.386.954h-2.206v4.034h-1.881V21.988zm10.201 0h6.416v1.65h-4.68v2.612h3.82v1.627h-3.82v3.16h4.68v1.65h-6.416V21.988zm10.206 0h1.793l2.465 4.815 2.312-4.814h1.85l1.066 10.698h-1.855l-.715-7.997-2.658 5.857-2.758-5.88-.733 8.02h-1.837l1.07-10.698zm12.2 0h6.422v1.65h-4.68v2.612h3.82v1.627h-3.82v3.16h4.68v1.65h-6.421V21.988zm9.14 0h7.917v1.592h-3.105v9.107h-1.697v-9.107h-3.114v-1.591zm10.632 0h1.877v4.053h2.197c.929 0 1.721.309 2.377.931a3.134 3.134 0 0 1 1.022 2.367c0 .934-.336 1.722-1.009 2.372-.672.649-1.47.976-2.394.976h-4.07V21.988zm10.17 0h6.417v1.65h-4.68v2.612h3.82v1.627h-3.82v3.16h4.68v1.65h-6.417V21.988zm9.136 0h4.5c.718 0 1.334.258 1.846.776s.767 1.143.767 1.873a2.9 2.9 0 0 1-.451 1.569c-.34.544-.772.839-1.298.878.574.02 1.058.313 1.456.887.359.515.54 1.077.54 1.68 0 .91-.25 1.645-.75 2.202-.501.557-1.194.834-2.08.834h-4.53V21.988zm14.25 1.52c-.647 0-1.196.372-1.646 1.124-.45.752-.675 1.659-.675 2.715 0 1.055.225 1.954.675 2.7.45.748.999 1.12 1.645 1.12.637 0 1.181-.372 1.636-1.12.455-.746.684-1.645.684-2.7 0-1.056-.23-1.963-.684-2.715-.455-.752-1-1.123-1.636-1.123zm-84.26.072v3.428h2.202c.45 0 .822-.172 1.114-.517.282-.321.425-.718.425-1.19a1.8 1.8 0 0 0-.447-1.19c-.297-.353-.661-.53-1.092-.53H62.22zm71.654.08v2.621h2.163c.99 0 1.482-.473 1.482-1.417 0-.384-.142-.686-.434-.905-.268-.2-.618-.299-1.048-.299h-2.163zM20.47 25.91l5.978 7.306 5.306-.022c.686-.003 1.26.573 1.263 1.27.003.697-.56 1.275-1.245 1.28H31.753l-5.306-.027-5.978 7.31-2.575-.08 4.246-7.248-2.228-.009-1.276 1.56-2.303.214 1.618-2.995-1.618-3 2.303.218 1.276 1.56 2.228-.009-4.246-7.247 2.575-.08zm94.333 1.734v3.428h2.197c.426-.02.789-.193 1.088-.526.299-.333.451-.736.452-1.203 0-.477-.15-.88-.443-1.208a1.412 1.412 0 0 0-1.097-.49h-2.197zm19.073.232v3.218h2.299c1.057 0 1.59-.534 1.605-1.604.005-1.075-.52-1.614-1.583-1.614h-2.32zm37.819 1.03c.67 0 1.29.175 1.86.526.746.442 1.114 1.087 1.105 1.939-.005.496-.19.973-.553 1.43-.397.497-.927.856-1.588 1.075.833.044 1.487.319 1.96.824.431.467.653 1.07.667 1.815.015 1.05-.308 1.895-.969 2.527-.627.594-1.43.902-2.416.932-1.178.039-2.208-.172-3.084-.629l-.35-1.73a6.189 6.189 0 0 0 2.64.607c1.512 0 2.272-.55 2.272-1.654 0-1.114-.594-1.671-1.781-1.671-.316 0-.662.045-1.035.138l.136-1.57c1.46-.32 2.188-.89 2.188-1.702 0-.895-.44-1.342-1.32-1.342-.665 0-1.432.29-2.298.87l-.636-1.49c.78-.583 1.847-.88 3.202-.895zM158.48 36.01c1.158 0 2.144.546 2.96 1.636.816 1.09 1.223 2.407 1.223 3.954 0 1.537-.407 2.85-1.223 3.94-.816 1.09-1.802 1.636-2.96 1.636-1.15 0-2.136-.546-2.952-1.636-.816-1.09-1.224-2.403-1.224-3.94 0-1.547.408-2.864 1.224-3.954.816-1.09 1.803-1.636 2.952-1.636zm-117.24.094c.837 0 1.557.115 2.158.338.6.224 1.185.59 1.75 1.106l-1.224 1.163-.759-.593c-.388-.292-.937-.436-1.64-.436-.508 0-.956.168-1.351.503-.395.336-.592.68-.592 1.03l.044.267.105.237c.11.155.26.297.452.423l2.631.816c.867.35 1.415.613 1.65.793.526.423.789 1.061.789 1.912 0 .925-.398 1.738-1.198 2.439-.746.671-1.592 1.007-2.53 1.007-.828 0-1.606-.16-2.333-.481-.608-.278-1.303-.724-2.088-1.342l1.276-1.177 1.364.985c.445.21 1.036.317 1.763.317.498 0 .883-.159 1.158-.473.275-.314.412-.682.412-1.105 0-.277-.07-.53-.206-.754a1.062 1.062 0 0 0-.574-.463l-2.07-.544c-.79-.267-1.361-.561-1.715-.882-.512-.492-.768-1.137-.768-1.935 0-.87.37-1.613 1.114-2.229.745-.615 1.54-.922 2.382-.922zm79.404.053c.244 0 .484.101.719.303a.94.94 0 0 1 .35.745l.023.338c0 .53-.124.983-.373 1.36-.249.377-.621.692-1.114.945l-.123-.357c.508-.155.815-.583.926-1.284a2.02 2.02 0 0 1-.676.027.958.958 0 0 1-.552-.303c-.17-.175-.255-.42-.255-.726 0-.239.101-.474.307-.705a.982.982 0 0 1 .768-.343zm-72.68.094h1.745v4.225h4.105v-4.225h1.74v10.71h-1.74v-4.907h-4.105v4.908h-1.746V36.252zm10.284 0h6.42V37.9h-4.68v2.612h3.82v1.627h-3.82v3.16h4.68v1.65h-6.42V36.252zm9.14 0h4.039c.8 0 1.483.343 2.048 1.03.46.612.689 1.33.689 2.157 0 .686-.16 1.25-.479 1.685a2.952 2.952 0 0 1-1.131.958c.225.224.4.42.522.593s.308.492.557.954l.723 1.48c.297.642.538 1.074.72 1.288l.46.553H73.41l-1.513-2.933c-.225-.458-.465-.79-.72-.999a1.476 1.476 0 0 0-.99-.388h-1.242v4.32l-1.556-.01V36.253zm10.859 0h6.416V37.9h-4.68v2.612h3.82v1.627h-3.82v3.16h4.68v1.65h-6.416V36.252zm9.135 0h2.048l2.943 5.14 2.965-5.14h2.048V46.95h-1.855v-7.707l-3.158 5.59-3.136-5.59v7.707h-1.855V36.252zm12.701 0h6.417V37.9h-4.68v2.612h3.82v1.627h-3.82v3.16h4.68v1.65h-6.417V36.252zm9.136 0h7.92v1.591h-3.109v9.107h-1.697v-9.107h-3.114v-1.591zm13.973 0h2.122l2.027 4.274 2.105-4.274h2.166l-3.451 6.423v4.275h-1.601v-4.275l-3.368-6.423zm11.118 0h6.416V37.9h-4.68v2.612h3.82v1.627h-3.82v3.16h4.68v1.65h-6.416V36.252zm9.135 0h2.061l2.018 8.04 1.96-8.04h2.127l-2.947 10.698h-2.254l-2.965-10.698zm15.052 1.52c-.646 0-1.19.371-1.64 1.123-.45.752-.676 1.659-.676 2.715 0 1.055.226 1.954.676 2.7.45.748.994 1.12 1.64 1.12.637 0 1.186-.372 1.64-1.12.455-.746.68-1.645.68-2.7 0-1.056-.225-1.963-.68-2.715-.454-.752-1.003-1.123-1.64-1.123zm-89.553.151v3.143h2.005c.474-.059.838-.246 1.092-.562.196-.282.294-.606.294-.976 0-.414-.08-.773-.233-1.074-.225-.355-.608-.53-1.153-.53h-2.005z" fill="#00A500" fill-rule="nonzero"/></g></g></svg>