<svg width="100" height="151" xmlns="http://www.w3.org/2000/svg"><g transform="translate(5 8)" fill-rule="nonzero" fill="none"><rect fill="#FFF" x="3" y="4.16" width="82.681" height="126.975" rx="2"/><path d="M.75 6v123c0 2.9 2.35 5.25 5.25 5.25h78c2.9 0 5.25-2.35 5.25-5.25V6C89.25 3.1 86.9.75 84 .75H6A5.25 5.25 0 0 0 .75 6z" stroke="#000" stroke-width="1.5"/><g fill="#000"><path d="M22.797 17.517h1.436c.575.007 1.06.193 1.455.558.396.366.602.871.618 1.516a1.729 1.729 0 0 1-.718 1.375c-.458.35-1.016.528-1.674.538-1.193-.06-2.077-.299-2.652-.717-.574-.419-.86-.658-.857-.718l-1.435 1.754c.03.074.488.366 1.375.878.887.511 2.024.804 3.41.877 1.524-.06 2.7-.499 3.528-1.316.827-.817 1.246-1.655 1.256-2.512-.033-.843-.268-1.496-.703-1.961-.435-.465-.87-.788-1.305-.969-.435-.181-.67-.268-.703-.26.027.01.22-.062.579-.212.358-.151.716-.435 1.075-.851.358-.416.551-1.019.579-1.808-.014-.983-.386-1.807-1.117-2.472-.73-.664-1.74-1.01-3.03-1.036-1.3.06-2.352.299-3.156.717-.804.42-1.218.658-1.242.718l1.208 1.868c-.007-.05.246-.256.758-.615.511-.359 1.322-.564 2.432-.615.854.043 1.419.276 1.694.698.276.422.402.774.38 1.056.006.276-.127.602-.4.977-.272.376-.724.582-1.355.618h-1.436v1.914zM36.004 10.18c-1.751.05-3.056.704-3.913 1.966-.857 1.262-1.284 2.84-1.282 4.733-.002 1.894.425 3.472 1.282 4.734.857 1.261 2.162 1.916 3.913 1.965 1.752-.049 3.056-.704 3.913-1.965.858-1.262 1.285-2.84 1.282-4.734.003-1.894-.424-3.471-1.282-4.733-.857-1.262-2.161-1.917-3.913-1.965zm0 2.074c.894.013 1.618.425 2.173 1.236.555.81.841 1.94.858 3.39-.017 1.448-.303 2.578-.858 3.388-.555.811-1.279 1.223-2.173 1.236-.894-.013-1.618-.425-2.173-1.236-.555-.81-.84-1.94-.857-3.389.017-1.448.302-2.578.857-3.389.555-.81 1.28-1.223 2.173-1.236zM44.122 23.26h2.233v-5.743h4.785v5.742h2.232V10.5H51.14v5.104h-4.785V10.5h-2.233zM60.214 18.793l1.595-5.423 1.595 5.423h-3.19zm.32-8.293l-4.147 12.759h2.392l.797-2.552h4.466l.798 2.552h2.392l-4.147-12.76h-2.552z"/></g><path d="M44.811 36.025c-17.923 0-32.453 14.53-32.453 32.452 0 17.924 14.53 32.453 32.453 32.453 17.924 0 32.453-14.53 32.453-32.453 0-17.923-14.53-32.452-32.453-32.452zm0 5.487c14.893 0 26.966 12.073 26.966 26.965a26.857 26.857 0 0 1-6.427 17.475L27.336 47.94a26.857 26.857 0 0 1 17.475-6.427zm-20.538 9.49l38.013 38.014a26.857 26.857 0 0 1-17.475 6.427c-14.892 0-26.966-12.073-26.966-26.966a26.857 26.857 0 0 1 6.428-17.474z" fill="red"/><path d="M46.272 44.189c-5.73 0-10.256 1.06-14.442 4.269l33.757 33.948c3.281-4.092 4.592-8.387 4.592-13.99 0-13.305-10.299-24.227-23.907-24.227zM44.06 93.2c5.73 0 10.256-1.06 14.441-4.268L24.744 54.984c-3.28 4.092-4.592 8.386-4.592 13.99 0 13.305 10.3 24.227 23.907 24.227z" fill="#0D69E1"/><g fill="#000"><path d="M14.939 113.47h3.848c-.591.95-1.15 2.015-1.677 3.198a15.953 15.953 0 0 0-1.131 3.667h1.56c.32-1.489.72-2.802 1.196-3.94.477-1.137.98-2.216 1.508-3.237v-1.04h-4.992l-.312 1.352zM22.666 119.607a.904.904 0 0 0-.907-.907.904.904 0 0 0-.906.907.904.904 0 0 0 .906.906.904.904 0 0 0 .907-.906z"/></g><g fill="#000"><path d="M26.837 113.418c-.704.018-1.267.35-1.69.997-.423.646-.64 1.499-.65 2.557.01 1.058.227 1.91.65 2.557.423.646.986.979 1.69.997.704-.018 1.268-.35 1.69-.997.423-.647.64-1.499.65-2.557-.01-1.01-.227-1.848-.65-2.515-.422-.668-.986-1.014-1.69-1.04zm0 1.077c.34-.005.611.191.814.588.204.398.308 1.027.313 1.889-.005.861-.11 1.49-.313 1.888-.203.397-.474.593-.814.588-.34.005-.61-.19-.814-.588-.203-.397-.307-1.027-.313-1.888.006-.862.11-1.491.313-1.889.203-.397.475-.593.814-.588zM32.467 113.418c-.704.018-1.268.35-1.69.997-.423.646-.64 1.499-.65 2.557.01 1.058.227 1.91.65 2.557.422.646.986.979 1.69.997.704-.018 1.268-.35 1.69-.997.423-.647.64-1.499.65-2.557-.01-1.01-.227-1.848-.65-2.515-.422-.668-.986-1.014-1.69-1.04zm0 1.077c.34-.005.61.191.814.588.203.398.308 1.027.313 1.889-.005.861-.11 1.49-.313 1.888-.203.397-.475.593-.814.588-.34.005-.611-.19-.814-.588-.204-.397-.308-1.027-.313-1.888.005-.862.11-1.491.313-1.889.203-.397.474-.593.814-.588z"/></g><g fill="#000"><path d="M47.42 114.05l.49.639 1.115-.7v6.45h1.456v-8.321h-1.248zM54.375 120.588c1.186-.041 2.04-.517 2.562-1.427.522-.91.778-2.01.767-3.299-.015-1.301-.297-2.283-.845-2.944-.549-.66-1.272-.992-2.172-.993-.695.025-1.28.334-1.755.928-.474.594-.721 1.32-.741 2.177.048.964.316 1.61.806 1.937.49.328.915.48 1.274.455a2.574 2.574 0 0 0 1.067-.26c.342-.164.645-.355.91-.572.01.034-.022.272-.097.713a3.554 3.554 0 0 1-.535 1.324c-.283.44-.73.678-1.345.712-.485-.02-.907-.102-1.265-.245-.357-.143-.545-.225-.562-.245l.163 1.278c.022.02.212.096.572.23.36.135.759.211 1.196.23zm.208-4.414c-.225 0-.45-.104-.676-.312-.225-.208-.346-.52-.364-.936a1.994 1.994 0 0 1 .33-1.1c.223-.346.563-.534 1.022-.564.329.01.585.14.769.387.183.247.315.52.395.816.08.297.128.525.144.684-.002.043-.142.214-.42.513-.277.299-.677.47-1.2.512zM60.772 119.607a.904.904 0 0 0-.906-.907.904.904 0 0 0-.906.907.904.904 0 0 0 .906.906.904.904 0 0 0 .906-.906z"/></g><g fill="#000"><path d="M64.477 113.418c-.704.018-1.267.35-1.69.997-.422.646-.639 1.499-.65 2.557.011 1.058.228 1.91.65 2.557.423.646.986.979 1.69.997.705-.018 1.268-.35 1.69-.997.423-.647.64-1.499.65-2.557-.01-1.01-.227-1.848-.65-2.515-.422-.668-.985-1.014-1.69-1.04zm0 1.077c.34-.005.611.191.815.588.203.398.307 1.027.312 1.889-.005.861-.11 1.49-.312 1.888-.204.397-.475.593-.815.588-.339.005-.61-.19-.814-.588-.203-.397-.307-1.027-.312-1.888.005-.862.109-1.491.312-1.889.204-.397.475-.593.814-.588zM70.107 113.418c-.704.018-1.268.35-1.69.997-.423.646-.64 1.499-.65 2.557.01 1.058.227 1.91.65 2.557.422.646.986.979 1.69.997.704-.018 1.268-.35 1.69-.997.423-.647.64-1.499.65-2.557-.01-1.01-.227-1.848-.65-2.515-.422-.668-.986-1.014-1.69-1.04zm0 1.077c.34-.005.611.191.814.588.204.398.308 1.027.313 1.889-.005.861-.11 1.49-.313 1.888-.203.397-.474.593-.814.588-.34.005-.61-.19-.814-.588-.203-.397-.308-1.027-.313-1.888.005-.862.11-1.491.313-1.889.203-.397.475-.593.814-.588z"/></g><path fill="#000" d="M38.307 116.291h5.27v1.387h-5.27z"/></g></svg>