<svg width="100" height="86" xmlns="http://www.w3.org/2000/svg"><g transform="translate(10 3)" fill="none" fill-rule="evenodd"><circle fill="#FFF" fill-rule="nonzero" cx="40" cy="40" r="40"/><circle stroke="#000" cx="40" cy="40" r="40.386"/><circle fill="#0D69E1" fill-rule="nonzero" cx="40" cy="40" r="37.714"/><path d="M42.527 47.633c.202.155.45.238.704.238h5.641a10.323 10.323 0 0 0 10.225 8.903c5.7 0 10.322-4.621 10.322-10.322a10.323 10.323 0 0 0-14.952-9.226l-3.815-5.45 1-2.357h.606a1.548 1.548 0 1 0 0-3.096h-7.097a1.548 1.548 0 1 0 0 3.096h4.529l-.603 1.42H31.293a3.487 3.487 0 0 0-1.637-3.945l-.68-.387a1.548 1.548 0 0 1 .766-2.894h5.097a1.032 1.032 0 0 0 0-2.065h-5.097a3.613 3.613 0 0 0-1.788 6.753l.68.387a1.42 1.42 0 0 1 .584 1.833l-3.237 6.943a10.322 10.322 0 0 0-5.078-1.335c-5.7 0-10.322 4.622-10.322 10.323 0 5.7 4.621 10.322 10.322 10.322 5.701 0 10.323-4.621 10.323-10.322 0-2.98-1.288-5.815-3.533-7.775l.807-1.73 14.027 10.686zm-21.624 7.593a8.774 8.774 0 1 1 4.421-16.353l-2.24 4.804a1.548 1.548 0 0 1-.63.687l-2.067 1.194a1.033 1.033 0 0 0 1.032 1.788l2.068-1.194a3.613 3.613 0 0 0 1.468-1.602l2.052-4.402a8.775 8.775 0 0 1-6.104 15.078zm38.194 0a8.774 8.774 0 0 1-8.659-7.355h8.914a1.42 1.42 0 0 0 1.163-2.234l-5.03-7.182a8.774 8.774 0 0 1 12.386 7.997 8.774 8.774 0 0 1-8.774 8.774zm-8.728-9.678a8.774 8.774 0 0 1 3.143-5.863l4.106 5.863h-7.249zm-5.002 0l4.683-11.032 2.672 3.816a10.322 10.322 0 0 0-3.908 7.216h-3.447zm-2.333-.448l-13.3-10.132.92-1.807h17.447L43.034 45.1z" fill="#FFF" fill-rule="nonzero"/><path d="M10.859 63.94a37.717 37.717 0 0 0 5.2 5.201L69.141 16.06a37.717 37.717 0 0 0-5.2-5.2L10.859 63.94z" fill="red" fill-rule="nonzero"/></g></svg>