<svg width="100" height="86" xmlns="http://www.w3.org/2000/svg"><g fill="none" fill-rule="evenodd"><g transform="translate(10 3)"><rect fill="#FFF" fill-rule="nonzero" width="80" height="80" rx="6"/><rect stroke="#000" x=".5" y=".5" width="79" height="79" rx="4"/></g><g fill-rule="nonzero"><path d="M14.618 6H35v35H13V7.62c0-.897.721-1.62 1.618-1.62zM48 6h16v10H48zM48 30h16v12H48zM85.472 6C86.32 6 87 6.723 87 7.62V41H76V6h9.472zM35 55v25H14.618C13.72 80 13 79.336 13 78.512V55h22zM87 53v25.393c0 .89-.701 1.607-1.573 1.607H48V53h39z" fill="#0D69E1"/><path d="M64.96 50.362c3.888 0 7.04-3.144 7.04-7.022V28.021C72 24.144 68.848 21 64.96 21h-19.2c-3.888 0-7.04 3.144-7.04 7.021v17.234H27.2v-3.83L16 47.81l11.2 6.382v-3.83h11.52V81h5.12V50.362h21.12zm-21.12-22.34c0-1.058.86-1.916 1.92-1.916h19.2c1.06 0 1.92.858 1.92 1.915v15.32c0 1.057-.86 1.914-1.92 1.914H43.84V28.021z" fill="#000"/></g></g></svg>