<?xml version="1.0" encoding="UTF-8"?>
<svg id="_Слой_1" data-name=" Слой 1" xmlns="http://www.w3.org/2000/svg" width="116" height="159" viewBox="0 0 116 159">
  <defs>
    <style>
      .cls-1, .cls-2 {
        fill: none;
      }

      .cls-3, .cls-4 {
        fill: #fff;
      }

      .cls-5 {
        fill: #8b8b8b;
      }

      .cls-6 {
        fill: #609c58;
      }

      .cls-2 {
        stroke-miterlimit: 10;
      }

      .cls-2, .cls-4 {
        stroke: #000;
        stroke-width: .99px;
      }
    </style>
  </defs>
  <path class="cls-4" d="m10.88,3.5h94.88c2.19,0,3.95,1.79,3.95,3.99v128.93c0,2.21-1.77,3.99-3.95,3.99H10.88c-2.19,0-3.95-1.79-3.95-3.99V7.5c0-2.21,1.77-3.99,3.95-3.99h0Z"/>
  <path class="cls-1" d="m-.01-.04h116v159H-.01V-.04Z"/>
  <path class="cls-2" d="m11.11,5.57h94.51c1.11,0,2.01.9,2.01,2.01v128.76c0,1.11-.91,2.01-2.01,2.01H11.11c-1.11,0-2.01-.9-2.01-2.01V7.59c0-1.11.91-2.01,2.01-2.01h0Z"/>
  <g>
    <path d="m42.23,16.9c0-.57-.2-1.03-.65-1.37s-1.02-.51-1.75-.51c-.62,0-1.16.17-1.58.51s-.64.78-.64,1.31h-2.19c0-.7.19-1.32.57-1.86.38-.53.92-.97,1.59-1.27s1.43-.45,2.24-.45c1.45,0,2.56.32,3.38.95.8.64,1.2,1.53,1.2,2.68,0,.59-.17,1.11-.52,1.6-.34.5-.84.86-1.47,1.14.7.25,1.25.62,1.62,1.12s.56,1.12.56,1.87c0,1.14-.43,2.06-1.3,2.73s-2.03,1.02-3.47,1.02c-.89,0-1.7-.17-2.42-.48s-1.26-.76-1.62-1.32-.55-1.2-.55-1.92h2.19c0,.55.23,1.02.68,1.39.45.38,1.02.57,1.72.57.78,0,1.4-.18,1.87-.55s.7-.85.7-1.44c0-.73-.2-1.23-.61-1.56s-1.02-.5-1.82-.5h-1.48v-1.76h1.4c1.56,0,2.33-.64,2.33-1.91v-.03h0Z"/>
    <path d="m56.75,20.15c0,1.25-.2,2.35-.65,3.29-.43.95-1.05,1.67-1.84,2.18s-1.71.76-2.74.76-1.94-.25-2.74-.76-1.43-1.23-1.86-2.18-.66-2.02-.66-3.24v-.73c0-1.25.22-2.35.66-3.29s1.06-1.69,1.85-2.19c.79-.51,1.71-.76,2.74-.76s1.94.25,2.74.75,1.41,1.22,1.85,2.16.66,2.04.66,3.28v.71h-.01Zm-2.19-.67c0-1.42-.27-2.49-.79-3.26s-1.29-1.13-2.26-1.13-1.7.38-2.23,1.13-.8,1.82-.83,3.19v.74c0,1.41.27,2.49.82,3.26.54.78,1.29,1.14,2.26,1.14s1.72-.38,2.24-1.12c.52-.75.79-1.84.79-3.29v-.67h0Z"/>
    <path d="m68.98,26.21h-2.19v-5.67h-5.65v5.67h-2.19v-12.8h2.19v5.33h5.65v-5.33h2.19v12.8Z"/>
    <path d="m78.82,23.22h-4.89l-1.02,2.98h-2.29l4.78-12.8h1.98l4.78,12.8h-2.29l-1.03-2.98h0Zm-4.28-1.79h3.66l-1.84-5.3-1.84,5.3h.01Z"/>
  </g>
  <g>
    <ellipse class="cls-6" cx="59.42" cy="56.6" rx="31.46" ry="15.48"/>
    <ellipse class="cls-3" cx="59.43" cy="56.67" rx="26.09" ry="12.15"/>
    <path d="m54,56.72l.85-8.05h8.49v2.3h-6.28l-.43,3.82c.73-.42,1.56-.64,2.47-.64,1.5,0,2.68.5,3.52,1.46.84.97,1.25,2.28,1.25,3.93s-.46,2.91-1.39,3.88c-.93.95-2.19,1.44-3.81,1.44-1.44,0-2.65-.42-3.59-1.25-.96-.83-1.47-1.93-1.54-3.29h2.55c.1.78.38,1.37.83,1.78s1.03.62,1.76.62c.8,0,1.44-.29,1.89-.88s.68-1.37.68-2.39-.25-1.74-.75-2.32-1.19-.85-2.07-.85c-.47,0-.88.06-1.21.19s-.7.38-1.08.75l-2.1-.53-.03.03h.01Z"/>
  </g>
  <g>
    <path class="cls-5" d="m52.87,153.1c0,.42-.06.81-.2,1.17s-.32.67-.56.93c-.24.27-.55.47-.91.64s-.76.23-1.21.23c-.42,0-.82-.05-1.22-.14-.4-.09-.75-.22-1.03-.36v-1.23h.08c.09.08.22.14.38.23.17.08.34.17.55.24.23.08.43.15.62.19s.4.08.64.08.46-.04.68-.13.41-.22.56-.41c.14-.17.25-.37.33-.6s.11-.5.11-.81-.04-.56-.11-.76-.2-.36-.36-.5c-.17-.15-.37-.25-.61-.31s-.51-.09-.8-.09-.62.03-.94.08-.56.09-.75.14v-4.49h4.74v1.03h-3.61v2.32c.14-.03.28-.03.41-.04s.25,0,.37,0c.43,0,.82.04,1.11.11.31.08.6.22.88.43.29.22.51.5.66.81s.23.76.23,1.28h0v-.03s-.03-.03-.03-.03Z"/>
    <path class="cls-5" d="m55.98,155.87h-1.38v-1.67h1.38v1.67Z"/>
    <path class="cls-5" d="m60.03,147.98c-.2,0-.42.03-.62.08s-.42.11-.61.2c-.19.08-.34.17-.48.25s-.25.17-.37.24h-.06v-1.23c.25-.14.59-.25,1.02-.37s.84-.17,1.24-.17.73.04,1.02.11.56.2.79.37c.25.19.45.41.57.67s.19.59.19.93c0,.48-.15.9-.47,1.27-.31.36-.69.59-1.12.69v.08c.18.04.38.1.57.18s.4.22.57.38.32.38.43.65c.11.25.17.59.17.95s-.06.76-.2,1.09-.32.62-.56.88c-.25.27-.56.47-.91.6s-.75.22-1.21.22-.87-.05-1.29-.17c-.43-.11-.79-.23-1.07-.38v-1.23h.08c.24.18.56.36.97.52.41.17.82.25,1.22.25.24,0,.47-.04.7-.11s.43-.2.6-.37c.15-.17.27-.36.34-.57s.11-.47.11-.79-.05-.59-.14-.78-.22-.36-.38-.48-.36-.2-.57-.24-.46-.08-.71-.08h-.48v-.97h.38c.52,0,.94-.11,1.27-.38s.48-.61.48-1.09c0-.22-.04-.41-.13-.57s-.19-.28-.33-.38c-.15-.1-.31-.17-.48-.22-.18-.04-.37-.06-.56-.06h.03v.03h.01Z"/>
    <path class="cls-5" d="m69.59,148.45l-3.73,7.42h-1.24l3.95-7.7h-4.46v-1.03h5.47v1.31h.01Z"/>
  </g>
  <path d="m40.08,112.12c-.7,0-1.36.38-1.72.99l-3.47,5.99c-.18.31-.27.64-.27.99v7.26c0,1.09.88,1.98,1.98,1.98h.98c0-2.73,2.22-4.95,4.96-4.95s4.96,2.21,4.96,4.95h15.87c0-2.73,2.22-4.95,4.96-4.95s4.96,2.21,4.96,4.95h2.97c1.1,0,1.98-.88,1.98-1.98v-7.26c0-.2-.03-.42-.1-.62l-2.01-5.99c-.27-.81-1.03-1.36-1.89-1.35h-34.2.05Zm.23,1.39h2.24c.55,0,.98.45.98.99v3.96c0,.55-.43.99-.98.99h-4.55c-.55,0-.98-.45-.98-.99,0-.17.05-.34.13-.5l2.29-3.96c.18-.31.51-.48.87-.48h0Zm6.22,0h5.95c.55,0,.99.45.99.99v3.96c0,.55-.45.99-.99.99h-5.95c-.55,0-.98-.45-.98-.98h0v-3.96c0-.55.43-.99.99-.99h-.01Zm9.92,0h5.95c.55,0,.98.45.98.99v3.96c0,.55-.43.99-.98.99h-5.95c-.55,0-.98-.45-.98-.98h0v-3.96c0-.55.43-.99.98-.99h0Zm9.92,0h5.65c.43,0,.83.29.96.71l1.16,3.96c.15.52-.15,1.07-.66,1.23-.09.03-.19.04-.28.04h-6.82c-.55,0-.98-.45-.99-.98h0v-3.96c0-.55.45-.99.99-.99h0Z"/>
  <path d="m42.57,125.38c-2.19,0-3.96,1.77-3.96,3.96s1.78,3.96,3.96,3.96,3.96-1.77,3.96-3.96-1.78-3.96-3.96-3.96Zm0,1.98c1.1,0,1.98.88,1.98,1.98h0c0,1.09-.89,1.98-1.98,1.98h0c-1.1,0-1.98-.88-1.98-1.98s.89-1.98,1.98-1.98h0Zm25.79-1.98c-2.19,0-3.96,1.77-3.96,3.96s1.78,3.96,3.96,3.96,3.96-1.77,3.96-3.96-1.78-3.96-3.96-3.96Zm0,1.98c1.1,0,1.98.88,1.98,1.98h0c0,1.09-.89,1.98-1.98,1.98h0c-1.1,0-1.98-.88-1.98-1.98s.89-1.98,1.98-1.98h0Z"/>
  <path d="m38.93,84.51c-.79,0-1.52.39-1.96,1.04l-3.71,5.48c-.27.39-.41.85-.41,1.32v5.7c0,1.3,1.07,2.35,2.37,2.35h2.14c.13-2.63,2.29-4.72,4.96-4.72s4.83,2.1,4.96,4.72h18.47c.09-1.84,1.19-3.47,2.84-4.25h-20.6v-9.31c0-1.3-1.07-2.35-2.37-2.35h-6.69Zm.13,1.44h5.39c.66,0,1.19.53,1.19,1.18v3.31c0,.65-.52,1.18-1.19,1.18h-7.62c-.65,0-1.17-.52-1.19-1.18h0c0-.24.06-.47.2-.66l2.24-3.31c.22-.33.59-.52.97-.52h0Z"/>
  <path d="m51.78,80.21c-1.3,0-2.36,1.06-2.37,2.35h0v12.75h30.75v-12.73c0-1.31-1.06-2.35-2.37-2.35h-26.02.01Zm18.92,16.45c-2.22,0-4.02,1.79-4.02,4.02s1.8,4.01,4.02,4.01,4.02-1.79,4.02-4.01-1.8-4.02-4.02-4.02Zm0,1.9c1.17,0,2.13.95,2.13,2.12s-.96,2.12-2.13,2.12-2.13-.95-2.13-2.12h0c0-1.18.96-2.12,2.13-2.12h0Z"/>
  <path d="m75.64,100.42c-.09-1.88-1.22-3.49-2.84-4.25h7.36v4.25h-4.51Zm-33.35-3.78c-2.22,0-4.02,1.79-4.02,4.02s1.8,4.01,4.02,4.01,4.02-1.79,4.02-4.01-1.8-4.02-4.02-4.02Zm0,1.9c1.17,0,2.13.95,2.13,2.12s-.96,2.12-2.13,2.12-2.13-.95-2.13-2.12h0c0-1.18.96-2.12,2.13-2.12h0Z"/>
  <g>
    <path class="cls-3" d="m61.07,91.11c-.29,0-.57-.04-.82-.13s-.46-.22-.62-.39c-.17-.17-.29-.36-.38-.59s-.13-.46-.13-.71c0-.33.09-.62.25-.92s.43-.48.75-.66v-.03c-.29-.17-.52-.36-.66-.57s-.22-.46-.22-.76c0-.46.17-.84.52-1.14s.78-.46,1.3-.46.98.14,1.33.43.5.66.5,1.11c0,.27-.08.53-.24.81s-.38.47-.69.62v.03c.34.17.61.37.79.6s.27.53.27.92c0,.52-.19.95-.56,1.3s-.84.53-1.4.53h.01Zm1.13-1.73c0-.25-.05-.45-.15-.59s-.29-.31-.56-.45c-.09-.05-.22-.11-.37-.17s-.33-.13-.52-.2c-.23.15-.4.33-.52.55s-.18.47-.18.75c0,.37.11.67.33.92s.5.36.83.36.61-.1.82-.31.31-.48.31-.84h.03s0-.03,0-.03Zm-.11-3.04c0-.27-.09-.5-.27-.67s-.43-.27-.75-.27c-.29,0-.54.08-.73.24s-.28.38-.28.66c0,.2.05.37.14.51s.24.25.43.37c.08.05.2.11.38.19s.33.15.47.19c.24-.18.4-.37.47-.56s.13-.41.13-.66h0Z"/>
    <path class="cls-3" d="m69.79,87.09h-1.54v3.88h-.76v-3.88h-1.54v-.67h3.84v.67h.01Z"/>
  </g>
</svg>