<svg width="100" height="86" xmlns="http://www.w3.org/2000/svg"><g fill="none" fill-rule="evenodd"><path d="M55.464 6.502c3.267 5.663 6.466 11.286 11.217 19.692l4.76 8.425c10.212 18.068 16.33 28.664 23.07 39.766 2.228 3.668-.924 8.996-5.175 8.996H10.534c-4.251 0-7.403-5.328-5.176-8.996 6.738-11.099 12.84-21.67 23.068-39.763l4.632-8.2c4.828-8.54 8.048-14.2 11.348-19.92 2.852-4.943 8.207-4.943 11.058 0z" stroke="#0C0E0F"/><path d="M11.61 73.352l-.003.006-.556.967-.016.028a108.335 108.335 0 0 1-1.5 2.568c-.22.362.5 1.574 1 1.574h78.8c.5 0 1.22-1.212 1-1.575-.436-.718-.772-1.295-1.502-2.57l-.02-.036c-.266-.463-.396-.69-.554-.962L51.232 8.943c-.918-1.591-1.675-1.591-2.591-.003L11.61 73.352z" stroke="red" stroke-width="6" fill="#FFF"/><path d="M30.816 53.012h2.358v11.674h-2.358v3.096h2.358v2.546h4.48v-2.546h2.869v2.546h4.334v-2.546h2.868v2.546h4.42v-2.546h2.868v2.546h4.334v-2.546h2.868v2.546h4.482v-2.546h2.357v-3.096h-2.357V53.012h2.357v-2.668h-2.357v-.06l-2.358-2.951-2.124 2.952v.059h-2.868v-.06l-2.21-2.951-2.124 2.952v.059h-2.868v-.06l-2.21-2.951-2.21 2.952v.059h-2.868v-.06l-2.124-2.951-2.21 2.952v.059h-2.868v-.06l-2.124-2.951-2.357 2.952v.059h-2.358v2.668zm21.33 11.674h2.867V53.012h-2.868v11.674zm7.201 0h2.868V53.012h-2.868v11.674zm-14.49 0h2.868V53.012h-2.868v11.674zm-7.202 0h2.868V53.012h-2.868v11.674z" fill="#0C0E0F"/></g></svg>
