<svg width="100" height="86" xmlns="http://www.w3.org/2000/svg"><g fill="none" fill-rule="evenodd"><path d="M55.464 6.502c3.267 5.663 6.466 11.286 11.217 19.692l4.76 8.425c10.212 18.068 16.33 28.664 23.07 39.766 2.228 3.668-.924 8.996-5.175 8.996H10.534c-4.251 0-7.403-5.328-5.176-8.996 6.738-11.099 12.84-21.67 23.068-39.763l4.632-8.2c4.828-8.54 8.048-14.2 11.348-19.92 2.852-4.943 8.207-4.943 11.058 0z" stroke="#0C0E0F"/><path d="M11.61 73.352l-.003.006-.556.967-.016.028a108.335 108.335 0 0 1-1.5 2.568c-.22.362.5 1.574 1 1.574h78.8c.5 0 1.22-1.212 1-1.575-.436-.718-.772-1.295-1.502-2.57l-.02-.036c-.266-.463-.396-.69-.554-.962L51.232 8.943c-.918-1.591-1.675-1.591-2.591-.003L11.61 73.352z" stroke="red" stroke-width="6" fill="#FFF"/><g transform="translate(24 44)" fill="#000" fill-rule="nonzero"><path d="M.165 20.953h24.98v4.996H.165zM19.66 13.722a1.37 1.37 0 0 0 1.192 1.526l20.396 2.504a1.37 1.37 0 0 0 1.526-1.192l.668-5.439a1.37 1.37 0 0 0-1.193-1.527L40.87 2.778a1.37 1.37 0 0 0-1.175-1.088L26.245.038a1.37 1.37 0 0 0-1.404.772l-2.987 6.28a1.37 1.37 0 0 0-1.527 1.193l-.667 5.439zm3.627-6.456l2.664-5.6a.41.41 0 0 1 .421-.232l12.862 1.58a.411.411 0 0 1 .353.326l1.23 6.078-17.53-2.152z"/><path d="M20.769 15.928l-.334 2.72a2.055 2.055 0 0 0 4.079.5l.334-2.719-4.08-.5zM37.085 17.931l-.334 2.72a2.055 2.055 0 0 0 4.08.5l.333-2.719-4.079-.5z"/><circle cx="27.768" cy="21.515" r="1"/><circle cx="31.578" cy="22.139" r="1"/><circle cx="34.887" cy="23.701" r="1"/><circle cx="42.007" cy="24.013" r="1"/><circle cx="27.119" cy="26.324" r="1"/><circle cx="30.916" cy="24.7" r="1.124"/><circle cx="35.262" cy="26.574" r="1"/><circle cx="39.784" cy="27.26" r="1.124"/></g></g></svg>