<svg width="100" height="86" xmlns="http://www.w3.org/2000/svg"><g fill="none" fill-rule="evenodd"><path d="M55.464 6.502c3.267 5.663 6.466 11.286 11.217 19.692l4.76 8.425c10.212 18.068 16.33 28.664 23.07 39.766 2.228 3.668-.924 8.996-5.175 8.996H10.534c-4.251 0-7.403-5.328-5.176-8.996 6.738-11.099 12.84-21.67 23.068-39.763l4.632-8.2c4.828-8.54 8.048-14.2 11.348-19.92 2.852-4.943 8.207-4.943 11.058 0z" stroke="#0C0E0F"/><path d="M11.61 73.352l-.003.006-.556.967-.016.028a108.335 108.335 0 0 1-1.5 2.568c-.22.362.5 1.574 1 1.574h78.8c.5 0 1.22-1.212 1-1.575-.436-.718-.772-1.295-1.502-2.57l-.02-.036c-.266-.463-.396-.69-.554-.962L51.232 8.943c-.918-1.591-1.675-1.591-2.591-.003L11.61 73.352z" stroke="red" stroke-width="6" fill="#FFF"/><g fill="#000" fill-rule="nonzero"><path d="M39.153 33.226v24.98h-4.996L42.9 73.349l8.743-15.143h-4.996v-24.98z"/><path d="M61.635 71.946V46.965h4.996l-8.743-15.143-8.743 15.143h4.996v24.981z"/></g></g></svg>