<svg width="100" height="86" xmlns="http://www.w3.org/2000/svg"><g fill="none" fill-rule="evenodd"><path d="M55.464 6.502c3.267 5.663 6.466 11.286 11.217 19.692l4.76 8.425c10.212 18.068 16.33 28.664 23.07 39.766 2.228 3.668-.924 8.996-5.175 8.996H10.534c-4.251 0-7.403-5.328-5.176-8.996 6.738-11.099 12.84-21.67 23.068-39.763l4.632-8.2c4.828-8.54 8.048-14.2 11.348-19.92 2.852-4.943 8.207-4.943 11.058 0z" stroke="#0C0E0F"/><path d="M11.61 73.352l-.003.006-.556.967-.016.028a108.335 108.335 0 0 1-1.5 2.568c-.22.362.5 1.574 1 1.574h78.8c.5 0 1.22-1.212 1-1.575-.436-.718-.772-1.295-1.502-2.57l-.02-.036c-.266-.463-.396-.69-.554-.962L51.232 8.943c-.918-1.591-1.675-1.591-2.591-.003L11.61 73.352z" stroke="red" stroke-width="6" fill="#FFF"/><g fill="#000" fill-rule="nonzero"><path d="M29.41 65.451l-4.996 7.494h6.994l2.998-7.494zM47.146 65.451l-.999 7.494h6.495l-1-7.494zM64.382 65.451l2.998 7.494h6.994l-4.996-7.494zM41.794 68.503a2.235 2.235 0 1 1-4.338-1.082l3.274-13.13a.941.941 0 0 1 .247-.439l5.92-5.918V35.427c0-.42.223-.809.587-1.02l3.038-1.753a2.353 2.353 0 0 1 2.353 0l7.493 4.326a2.353 2.353 0 0 1 1.176 2.038v8.236a1.765 1.765 0 1 1-3.53 0v-7.012a.941.941 0 0 0-.47-.815l-3.177-1.834v9.873c0 .312-.124.611-.344.832l-9.395 9.395a.941.941 0 0 0-.248.438l-2.586 10.372z"/><path d="M53.712 50.272l-3.272 3.273 8.968 15.534a2.235 2.235 0 1 0 3.872-2.235l-9.568-16.572zM45.72 45.397v-4.992L39 47.124a1.765 1.765 0 1 0 2.496 2.496l4.224-4.223zM50.838 23.546c1.294 0 3.447.753 3.447 3.177 0 2.777-4.506 5-5.918 5-1.989 0-2.906-2.294-2.906-3.706 0-3.482 4.282-4.47 5.376-4.47z"/></g></g></svg>