<svg width="100" height="86" xmlns="http://www.w3.org/2000/svg"><g fill="none" fill-rule="evenodd"><path d="M55.464 6.502c3.267 5.663 6.466 11.286 11.217 19.692l4.76 8.425c10.212 18.068 16.33 28.664 23.07 39.766 2.228 3.668-.924 8.996-5.175 8.996H10.534c-4.251 0-7.403-5.328-5.176-8.996 6.738-11.099 12.84-21.67 23.068-39.763l4.632-8.2c4.828-8.54 8.048-14.2 11.348-19.92 2.852-4.943 8.207-4.943 11.058 0z" stroke="#0C0E0F"/><path d="M11.61 73.352l-.003.006-.556.967-.016.028a108.335 108.335 0 0 1-1.5 2.568c-.22.362.5 1.574 1 1.574h78.8c.5 0 1.22-1.212 1-1.575-.436-.718-.772-1.295-1.502-2.57l-.02-.036c-.266-.463-.396-.69-.554-.962L51.232 8.943c-.918-1.591-1.675-1.591-2.591-.003L11.61 73.352z" stroke="red" stroke-width="6" fill="#FFF"/><g fill="#000" fill-rule="nonzero"><path d="M31.334 67.637a1.873 1.873 0 1 0 3.245 1.873l5.161-8.938 5.397-3.243a1.499 1.499 0 0 0 .526-2.034l-3.45-5.977a1.498 1.498 0 0 1 0-1.499l4.84-8.385a1.624 1.624 0 0 0-2.812-1.624l-7.077 12.257a1.498 1.498 0 0 0 0 1.5l2.503 4.334-2.342 1.64c-.179.126-.329.29-.438.479l-5.553 9.617z"/><path d="M42.272 60.362l3.19 5.526c.268.464.763.75 1.299.75h3.383V62.89h-2.085l-2.574-4.46-3.213 1.931zM36.2 51.893l-2.696 1.556-1.876-3.249a1.624 1.624 0 1 0-2.812 1.624l2.75 4.763a1.499 1.499 0 0 0 2.047.549l4.21-2.43-1.624-2.813zM32.957 44.43c0 1.948 1.624 3.447 3.185 3.447 2.398 0 3.36-4.234 3.36-5.058 0-1.574-.787-2.848-2.448-2.848-1.699 0-4.097 2.26-4.097 4.459zM51.143 68.449a1.998 1.998 0 0 0 3.997 0V57.877l8.78-5.07a2.498 2.498 0 0 0 .915-3.411l-4.288-7.427h4.439l-2.018-3.497h-5.846c-.489 0-.947.239-1.227.64l-1.601 2.286a1.499 1.499 0 0 0-.07 1.609l4.67 8.088-7.002 4.042c-.464.268-.75.763-.75 1.298V68.45z"/><path d="M61.49 55.654l3.966 6.87a1.25 1.25 0 0 0 1.706.457l7.468-4.307-1.998-3.46-5.086 2.936-2.595-4.495-3.462 1.999zM53.326 43.7l-2.71 4.696-4.207-2.429a1.873 1.873 0 1 0-1.874 3.245l6.154 3.553a1.249 1.249 0 0 0 1.706-.457l2.95-5.11-2.019-3.497zM49.344 36.199c0 2.573 2.386 3.947 3.572 3.947 1.824 0 3.86-3.822 3.86-5.945-.05-1.762-1.062-2.936-2.61-2.936-2.111 0-4.822 2.336-4.822 4.934z"/></g></g></svg>