<svg width="100" height="86" xmlns="http://www.w3.org/2000/svg"><g fill="none" fill-rule="evenodd"><path d="M55.464 6.502c3.267 5.663 6.466 11.286 11.217 19.692l4.76 8.425c10.212 18.068 16.33 28.664 23.07 39.766 2.228 3.668-.924 8.996-5.175 8.996H10.534c-4.251 0-7.403-5.328-5.176-8.996 6.738-11.099 12.84-21.67 23.068-39.763l4.632-8.2c4.828-8.54 8.048-14.2 11.348-19.92 2.852-4.943 8.207-4.943 11.058 0z" stroke="#0C0E0F"/><path d="M11.61 73.352l-.003.006-.556.967-.016.028a108.335 108.335 0 0 1-1.5 2.568c-.22.362.5 1.574 1 1.574h78.8c.5 0 1.22-1.212 1-1.575-.436-.718-.772-1.295-1.502-2.57l-.02-.036c-.266-.463-.396-.69-.554-.962L51.232 8.943c-.918-1.591-1.675-1.591-2.591-.003L11.61 73.352z" stroke="red" stroke-width="6" fill="#FFF"/><g fill="#000" fill-rule="nonzero"><path d="M52.61 64.931c.177.135.393.209.616.209h4.946a9.05 9.05 0 1 0 4.906-9.334l-3.345-4.777.877-2.066h.53a1.358 1.358 0 0 0 0-2.715H54.92a1.358 1.358 0 0 0 0 2.715h3.97l-.528 1.244h-15.6a3.054 3.054 0 0 0-1.435-3.458l-.597-.34a1.358 1.358 0 0 1 .672-2.537h4.468a.905.905 0 0 0 0-1.81h-4.468a3.167 3.167 0 0 0-1.568 5.92l.597.34a1.244 1.244 0 0 1 .512 1.607l-2.839 6.087a9.05 9.05 0 1 0 1.502 1.063l.707-1.516 12.297 9.368zm-18.958 6.657a7.692 7.692 0 1 1 3.876-14.338l-1.965 4.213c-.118.253-.31.463-.551.602l-1.813 1.046a.905.905 0 0 0 .905 1.568l1.813-1.047a3.167 3.167 0 0 0 1.287-1.404l1.799-3.859a7.692 7.692 0 0 1-5.351 13.219zm33.484 0a7.692 7.692 0 0 1-7.59-6.448h7.815a1.244 1.244 0 0 0 1.019-1.959l-4.41-6.297a7.693 7.693 0 1 1 3.166 14.704zm-7.651-8.485a7.692 7.692 0 0 1 2.755-5.14l3.6 5.14h-6.355zm-4.386 0l4.106-9.672 2.343 3.346a9.05 9.05 0 0 0-3.427 6.326H55.1zm-2.045-.393l-11.66-8.883.807-1.584h15.296L53.054 62.71z"/></g></g></svg>