<svg width="100" height="86" xmlns="http://www.w3.org/2000/svg"><g fill="none" fill-rule="evenodd"><path d="M55.464 6.502c3.267 5.663 6.466 11.286 11.217 19.692l4.76 8.425c10.212 18.068 16.33 28.664 23.07 39.766 2.228 3.668-.924 8.996-5.175 8.996H10.534c-4.251 0-7.403-5.328-5.176-8.996 6.738-11.099 12.84-21.67 23.068-39.763l4.632-8.2c4.828-8.54 8.048-14.2 11.348-19.92 2.852-4.943 8.207-4.943 11.058 0z" stroke="#0C0E0F"/><path d="M11.61 73.352l-.003.006-.556.967-.016.028a108.335 108.335 0 0 1-1.5 2.568c-.22.362.5 1.574 1 1.574h78.8c.5 0 1.22-1.212 1-1.575-.436-.718-.772-1.295-1.502-2.57l-.02-.036c-.266-.463-.396-.69-.554-.962L51.232 8.943c-.918-1.591-1.675-1.591-2.591-.003L11.61 73.352z" stroke="red" stroke-width="6" fill="#FFF"/><g fill="#000" fill-rule="nonzero"><path d="M37.526 66.101a4.993 4.993 0 1 1-9.986 0 4.993 4.993 0 0 1 9.986 0zM46.389 59.61a3.308 3.308 0 1 1-6.616 0 3.308 3.308 0 0 1 6.616 0zM48.948 48.438a2.31 2.31 0 1 1-4.619 0 2.31 2.31 0 0 1 4.619 0zM53.941 44.443a1.935 1.935 0 1 1-3.87 0 1.935 1.935 0 0 1 3.87 0zM40.897 52.37a1.935 1.935 0 1 1-3.87 0 1.935 1.935 0 0 1 3.87 0zM56.313 36.642a1.436 1.436 0 1 1-2.871 0 1.436 1.436 0 0 1 2.87 0z"/><path d="M36.403 72.904h46.256L60.27 34.122c-3.229 4.743-4.564 9.323-4.886 13.817l-1.746 3.744c-2.349 2.896-4.035 4.949-5.806 8.738l-2.619 3.121c-5.655 2.813-7.928 6.161-8.81 9.362z"/></g></g></svg>