<svg width="100" height="86" xmlns="http://www.w3.org/2000/svg"><g fill="none" fill-rule="evenodd"><path d="M55.464 6.502c3.267 5.663 6.466 11.286 11.217 19.692l4.76 8.425c10.212 18.068 16.33 28.664 23.07 39.766 2.228 3.668-.924 8.996-5.175 8.996H10.534c-4.251 0-7.403-5.328-5.176-8.996 6.738-11.099 12.84-21.67 23.068-39.763l4.632-8.2c4.828-8.54 8.048-14.2 11.348-19.92 2.852-4.943 8.207-4.943 11.058 0z" stroke="#0C0E0F"/><path d="M11.61 73.352l-.003.006-.556.967-.016.028a108.335 108.335 0 0 1-1.5 2.568c-.22.362.5 1.574 1 1.574h78.8c.5 0 1.22-1.212 1-1.575-.436-.718-.772-1.295-1.502-2.57l-.02-.036c-.266-.463-.396-.69-.554-.962L51.232 8.943c-.918-1.591-1.675-1.591-2.591-.003L11.61 73.352z" stroke="red" stroke-width="6" fill="#FFF"/><g fill="#000" fill-rule="nonzero"><path d="M54.628 53.47a4.741 4.741 0 0 1 3.175-4.474l4.77 1.642a3.808 3.808 0 0 0-.857 6.788h-4.962a4.735 4.735 0 0 1-2.126-3.956zm-7.433 3.956a6.117 6.117 0 0 1 1.48-11.574l3.558 1.225a5.488 5.488 0 1 0-1.342 10.349h-3.696zm-13.663-6.99a6.616 6.616 0 0 1 8.77-6.256l1.276.44a6.968 6.968 0 0 0-6.141 6.915 6.962 6.962 0 0 0 2.71 5.516 6.616 6.616 0 0 1-6.615-6.616zm36.06 2.617a2.247 2.247 0 1 1-2.98 2.126 2.247 2.247 0 0 1 2.978-2.125l.001-.001zm-27.946 4.872h27.212a2.748 2.748 0 0 0 .893-5.344l-28.105-9.675v-2.457a1.498 1.498 0 0 0-2.996 0v2.457a7.676 7.676 0 0 0 0 15.058v14.94h2.996v-14.98z"/></g></g></svg>