<svg width="143" height="86" xmlns="http://www.w3.org/2000/svg"><g fill="none" fill-rule="evenodd"><path fill="#FFF" fill-rule="nonzero" d="M2 27h140v30.889H2z"/><path fill="red" fill-rule="nonzero" d="M4.014 30.045v24.959h11.243L26.5 42.524 15.257 30.045zM26.5 30.045l11.244 12.479L26.5 55.004h22.487l11.243-12.48-11.243-12.479zM60.23 30.045l11.243 12.479-11.243 12.48h22.487l11.243-12.48-11.243-12.479zM93.96 30.045l11.243 12.479-11.243 12.48h22.486l11.244-12.48-11.244-12.479zM127.69 30.045l11.243 12.479-11.243 12.48h11.243V30.045z"/><path stroke="#000" d="M1.5 27.562h140.062v30H1.5z"/></g></svg>