<svg width="100" height="86" xmlns="http://www.w3.org/2000/svg"><g fill="none" fill-rule="evenodd"><path fill="#FFF" d="M50.441 19.274L22.401 3.08l-9.258 2.525 2.537 9.284 21.263 12.273L15.68 39.436l-2.537 9.284 9.258 2.525 28.04-16.194L78.48 51.245l9.259-2.525-2.537-9.284-21.263-12.274 21.263-12.273 2.537-9.284L78.48 3.08z"/><path d="M50.44 18.697L78.41 2.543l9.943 2.711-2.723 9.966-20.69 11.943 20.69 11.943 2.723 9.965-9.942 2.712-27.97-16.155-27.97 16.155-9.942-2.712 2.723-9.965 20.69-11.943-20.69-11.943-2.723-9.966 9.941-2.71 27.97 16.153z" stroke="#000"/><path d="M21.92 6.79l-4.537 1.237 1.252 4.583 25.213 14.553-25.213 14.553-1.252 4.582 4.537 1.238 28.52-16.472 28.521 16.472 4.537-1.238-1.252-4.582-25.213-14.553L82.246 12.61l1.252-4.583-4.537-1.237-28.52 16.471L21.92 6.79zm28.52 13.12L78.558 3.672l8.506 2.32-2.333 8.534-21.892 12.637L84.73 39.8l2.333 8.534-8.506 2.32-28.116-16.239-28.117 16.238-8.505-2.319L16.15 39.8l21.893-12.637L16.15 14.526 13.819 5.99l8.505-2.32 28.117 16.24z" fill="red"/><path fill="#FFF" d="M15.641 71.17l-2.549 9.281 9.254 2.538 28.062-16.157L78.47 82.989l9.254-2.538-2.549-9.281-34.767-20.032z"/><path d="M50.408 67.409L22.415 83.526l-9.938-2.725 2.736-9.962 35.195-20.278L85.603 70.84l2.736 9.962-9.938 2.725L50.408 67.41z" stroke="#000"/><path d="M50.408 66.197l-28.138 16.2-8.502-2.33 2.344-8.532 21.91-12.608 12.386-7.154 12.386 7.154 21.91 12.608 2.343 8.531-8.502 2.33-28.137-16.2zm-33.03 11.917l4.5 1.186L50.47 62.865 79.041 79.3l4.521-1.186-1.259-4.617-31.814-18.39-31.854 18.39-1.257 4.617z" fill="red"/></g></svg>