<svg width="44" height="84" xmlns="http://www.w3.org/2000/svg"><g fill="none" fill-rule="evenodd"><path d="M0 0h142v216H0z"/><path d="M7.057 1.08h29.69c2.738 0 4.978 2.256 4.978 5.013v69.823c0 2.757-2.24 5.013-4.978 5.013H7.057c-2.738 0-4.978-2.256-4.978-5.013V6.093c0-2.757 2.24-5.013 4.978-5.013" fill="#FFF" fill-rule="nonzero"/><path d="M7.057.58h29.69c3.015 0 5.478 2.48 5.478 5.513v69.823c0 3.033-2.463 5.513-5.478 5.513H7.057c-3.015 0-5.478-2.48-5.478-5.513V6.093C1.58 3.06 4.042.58 7.057.58z" stroke="#000"/><path d="M36.747 2.208c2.122 0 3.858 1.748 3.858 3.885v69.823c0 2.137-1.736 3.885-3.858 3.885H7.057c-2.121 0-3.858-1.748-3.858-3.885V6.093c0-2.137 1.737-3.885 3.858-3.885h29.69zm0 1.253H7.057c-1.382 0-2.522 1.096-2.608 2.466l-.005.166v69.823a2.633 2.633 0 0 0 2.448 2.627l.165.005h29.69c1.382 0 2.522-1.096 2.608-2.466l.005-.166V6.093a2.633 2.633 0 0 0-2.448-2.627l-.165-.005z" fill="#000" fill-rule="nonzero"/><path d="M39.361 19.299L4.443 39.41v-8.34L39.36 10.96v8.339h.001zm0 15.798L4.443 55.208v-8.34l34.918-20.11v8.339zm0 15.841L4.443 71.05v-8.34L39.36 42.598v8.34h.001z" fill="red" fill-rule="nonzero"/></g></svg>