<svg width="100" height="86" xmlns="http://www.w3.org/2000/svg"><g fill="none" fill-rule="evenodd"><path d="M55.464 6.502c3.267 5.663 6.466 11.286 11.217 19.692l4.76 8.425c10.212 18.068 16.33 28.664 23.07 39.766 2.228 3.668-.924 8.996-5.175 8.996H10.534c-4.251 0-7.403-5.328-5.176-8.996 6.738-11.099 12.84-21.67 23.068-39.763l4.632-8.2c4.828-8.54 8.048-14.2 11.348-19.92 2.852-4.943 8.207-4.943 11.058 0z" stroke="#0C0E0F"/><path d="M11.61 73.352l-.003.006-.556.967-.016.028a108.335 108.335 0 0 1-1.5 2.568c-.22.362.5 1.574 1 1.574h78.8c.5 0 1.22-1.212 1-1.575-.436-.718-.772-1.295-1.502-2.57l-.02-.036c-.266-.463-.396-.69-.554-.962L51.232 8.943c-.918-1.591-1.675-1.591-2.591-.003L11.61 73.352z" stroke="red" stroke-width="6" fill="#FFF"/><path d="M63.229 62.994c-2.697 4.672-7.258 7.597-12.2 8.38l-.928-4.905a12.165 12.165 0 0 0 8.934-6.196h-5.06l7.784-13.48 7.783 13.48H64.5c-.338.927-.76 1.837-1.27 2.721M48.216 37.107c5.394 0 10.207 2.487 13.357 6.376l-3.784 3.255a12.167 12.167 0 0 0-9.833-4.639l2.53 4.381H34.919L42.702 33l2.522 4.367c.972-.17 1.971-.26 2.992-.26M33.304 63.108c-2.697-4.671-2.95-10.082-1.157-14.754l4.711 1.649a12.17 12.17 0 0 0 .9 10.834l2.529-4.381 7.783 13.48H32.504l2.521-4.367a17.292 17.292 0 0 1-1.721-2.46" fill="#000"/></g></svg>