<svg width="115" height="71" xmlns="http://www.w3.org/2000/svg"><g transform="translate(8 11)" fill-rule="nonzero" fill="none"><rect fill="#000" y=".166" width="100" height="49.669" rx="6.3"/><rect fill="#FFF" x="1.667" y="1.821" width="96.667" height="46.358" rx="4.9"/><path d="M39.927 19.854c-5.094 2.1-8.677 7.087-8.677 12.907 0 7.715 6.296 13.97 14.063 13.97a14.062 14.062 0 0 0 13.261-9.314l-2.036-3.963c-.36 5.85-5.246 10.482-11.225 10.482-6.214 0-11.25-5.003-11.25-11.175 0-4.436 2.6-8.27 6.372-10.075l-.508-2.832z" fill="#000"/><path d="M41.455 3.318c-2.157 0-3.906 1.738-3.906 3.88 0 1.226.572 2.316 1.465 3.027l3.173 17.88h12.486l6.365 12.41 7.657-3.876-1.631-3.18-4.455 2.254-5.734-11.179h-11.67l-.469-2.638h8.389V18.79h-8.94l-1.412-7.94A3.883 3.883 0 0 0 45.361 7.2c0-2.143-1.749-3.88-3.906-3.88z" fill="#000"/></g></svg>