<svg width="100" height="86" xmlns="http://www.w3.org/2000/svg"><g fill="none" fill-rule="evenodd"><path d="M55.464 6.502c3.267 5.663 6.466 11.286 11.217 19.692l4.76 8.425c10.212 18.068 16.33 28.664 23.07 39.766 2.228 3.668-.924 8.996-5.175 8.996H10.534c-4.251 0-7.403-5.328-5.176-8.996 6.738-11.099 12.84-21.67 23.068-39.763l4.632-8.2c4.828-8.54 8.048-14.2 11.348-19.92 2.852-4.943 8.207-4.943 11.058 0z" stroke="#0C0E0F"/><path d="M11.61 73.352l-.003.006-.556.967-.016.028a108.335 108.335 0 0 1-1.5 2.568c-.22.362.5 1.574 1 1.574h78.8c.5 0 1.22-1.212 1-1.575-.436-.718-.772-1.295-1.502-2.57l-.02-.036c-.266-.463-.396-.69-.554-.962L51.232 8.943c-.918-1.591-1.675-1.591-2.591-.003L11.61 73.352z" stroke="red" stroke-width="6" fill="#FFF"/><g transform="translate(19 42)" fill="#000" fill-rule="nonzero"><path d="M22.464 22.711a1.934 1.934 0 0 0 1.934-1.934v-7.736a1.934 1.934 0 0 0-1.934-1.934l-3.105-9.314A1.934 1.934 0 0 0 17.524.471h-3.938L12.47 2.405h4.637c.25 0 .472.16.55.396l2.77 8.307H7.444L.745 22.71h21.719zm-2.9-9.67a2.9 2.9 0 1 1 0 5.802 2.9 2.9 0 0 1 0-5.802zM16.662 23.678v3.868a2.9 2.9 0 1 0 5.802 0v-3.868h-5.802z"/><circle cx="35.015" cy="10.463" r="1.874"/><circle cx="35.764" cy="16.833" r="2.498"/><path d="M23.619 29.97l8.305-10.823 1.079.867-8.769 10.45z"/><circle cx="49.378" cy="15.709" r="2.873"/><path d="M26.766 29.884l18.86-12.721.845 1.301-19.293 12.055z"/><circle cx="52.688" cy="23.515" r="2.061"/><circle cx="47.505" cy="26.2" r="2.498"/><path d="M34.757 29.722l9.335-3.033.353 1.174-9.458 2.623z"/></g></g></svg>