<svg width="100" height="86" xmlns="http://www.w3.org/2000/svg"><g fill="none" fill-rule="evenodd"><path d="M90 43c0 22.091-17.909 40-40 40S10 65.091 10 43 27.909 3 50 3s40 17.909 40 40z" fill="#FFF" fill-rule="nonzero"/><path d="M50 5.667C29.381 5.667 12.667 22.38 12.667 43S29.38 80.333 50 80.333c4.055 0 7.957-.65 11.612-1.846V46.871a5.163 5.163 0 0 0-5.162-5.163H38.387l-.002 6.56-18.064-10.43 18.064-10.43.003 6.559H56.45c7.126 0 12.904 5.778 12.904 12.904v28.062c10.78-6.547 17.98-18.4 17.98-31.933C87.333 22.381 70.618 5.667 50 5.667z" fill="#0D69E1" fill-rule="nonzero"/><path d="M90.367 43c0 22.294-18.073 40.367-40.367 40.367C27.706 83.367 9.633 65.294 9.633 43 9.633 20.706 27.706 2.633 50 2.633c22.294 0 40.367 18.073 40.367 40.367z" stroke="#000"/></g></svg>