<svg width="100" height="86" xmlns="http://www.w3.org/2000/svg"><g fill="none" fill-rule="evenodd"><path d="M89.734 43A39.867 39.867 0 1 1 10 43a39.867 39.867 0 1 1 79.734 0z" fill="#FFF" fill-rule="nonzero"/><path d="M90.5 43c0 22.368-18.132 40.5-40.5 40.5S9.5 65.368 9.5 43 27.632 2.5 50 2.5 90.5 20.632 90.5 43z" stroke="#000"/><path d="M50 5C29.013 5 12 22.013 12 43s17.013 38 38 38 38-17.013 38-38S70.987 5 50 5zm0 7c17.12 0 31 13.88 31 31 0 17.12-13.88 31-31 31-17.12 0-31-13.88-31-31 0-17.12 13.88-31 31-31z" fill="red" fill-rule="nonzero"/><g fill-rule="nonzero"><path d="M57.744 37.448c-.533 0-1.101.407-1.275.91l-.644 1.869-1.336 3.869c-.001.003 0 .007-.002.01l-.311.9c-.761 0-1.374.613-1.374 1.374v5.496c0 .762.613 1.374 1.374 1.374h20.611c.761 0 1.374-.612 1.374-1.374V46.38c0-.761-.613-1.374-1.374-1.374l-.311-.9-.002-.01-1.336-3.87-.644-1.867c-.174-.504-.742-.91-1.275-.91H57.744zm.419 1.374H70.8a.72.72 0 0 1 .637.456l1.975 5.728H55.55l1.975-5.728a.72.72 0 0 1 .638-.456zM54.175 53.937v2.749a2.061 2.061 0 0 0 4.123 0v-2.749h-4.123zM70.665 53.937v2.749a2.061 2.061 0 0 0 4.122 0v-2.749h-4.122z" fill="#000"/><path d="M45.222 56.82a1.988 1.988 0 0 0 3.976 0v-5.466h1.119V29.858a2.237 2.237 0 0 0-2.237-2.237H27.703a2.237 2.237 0 0 0-2.237 2.237v21.496h1.118v5.467a1.988 1.988 0 0 0 3.976 0v-5.467h2.46c.517 0 .994.156 1.392.426a6.18 6.18 0 0 0 3.48 1.065 6.18 6.18 0 0 0 3.479-1.065c.397-.27.875-.426 1.392-.426h2.46v5.467z" fill="red"/></g></g></svg>