<svg width="197" height="270" xmlns="http://www.w3.org/2000/svg"><g fill="none" fill-rule="evenodd"><path d="M0 0h197v270H0z"/><path d="M34 19h130a6 6 0 0 1 6 6v60a6 6 0 0 1-6 6H34a6 6 0 0 1-6-6V25a6 6 0 0 1 6-6z" fill="#FFF" fill-rule="nonzero"/><path d="M34 21h130a4 4 0 0 1 4 4v60a4 4 0 0 1-4 4H34a4 4 0 0 1-4-4V25a4 4 0 0 1 4-4z" stroke="#000"/><path d="M34.444 23A2.43 2.43 0 0 0 32 25.424v59.152A2.429 2.429 0 0 0 34.444 87h41.218v-8.242h2.282V87H119V23h-17.107v43.312h5.704l-9.125 15.84-9.125-15.84h5.704V23H77.944v8.242h-2.282V23H57.416v43.312h5.703l-9.125 15.84-9.124-15.84h5.703V23h-16.13.001zM122 23v64h18.387V43.688h-5.747l9.195-15.84 9.196 15.84h-5.748V87h16.254c1.365 0 2.463-1.081 2.463-2.424V25.424c0-1.343-1.098-2.424-2.463-2.424H122zM76 34h2v7h-2v-7zm0 9h2v7h-2v-7zm0 9h2v7h-2v-7zm0 8h2v7h-2v-7zm0 9h2v7h-2v-7z" fill="#0D69E1" fill-rule="nonzero"/><g><path d="M34 99h130a6 6 0 0 1 6 6v60a6 6 0 0 1-6 6H34a6 6 0 0 1-6-6v-60a6 6 0 0 1 6-6z" fill="#FFF" fill-rule="nonzero"/><path d="M34 101h130a4 4 0 0 1 4 4v60a4 4 0 0 1-4 4H34a4 4 0 0 1-4-4v-60a4 4 0 0 1 4-4z" stroke="#000"/><path d="M34.463 103C33.1 103 32 104.081 32 105.424v59.152c0 1.343 1.099 2.424 2.463 2.424H76.01v-64H57.618v43.312h5.748l-9.197 15.84-9.197-15.84h5.749V103H34.463zm43.847 0v64h17.24v-17.812c-4.664-1.442-8.045-5.728-8.045-10.794 0-5.066 3.381-9.353 8.045-10.794v-3.912h-5.748L99 107.848l9.197 15.84h-5.747v3.912c4.664 1.441 8.045 5.728 8.045 10.794 0 5.066-3.381 9.352-8.045 10.794V167h17.24v-8.242h2.3V167h18.391v-43.312h-5.748l9.197-15.84 9.197 15.84h-5.749V167h16.258c1.364 0 2.464-1.081 2.464-2.424v-59.152c0-1.343-1.099-2.424-2.463-2.424H121.99v8.242h-2.3V103H78.31zm41.38 10.506h2.3v6.788h-2.3v-6.788zm0 9.049h2.3v6.787h-2.3v-6.787zm0 9.051h2.3v6.788h-2.3v-6.788zm0 9.052h2.3v6.787h-2.3v-6.787zm0 9.048h2.3v6.788h-2.3v-6.788z" fill="#0D69E1" fill-rule="nonzero"/><path d="M98.995 127C92.37 127 87 132.282 87 138.797c0 6.516 5.37 11.798 11.995 11.798 6.625 0 11.995-5.282 11.995-11.798 0-6.515-5.37-11.797-11.995-11.797zm0 1.995c5.505 0 9.967 4.388 9.967 9.802s-4.462 9.803-9.967 9.803c-5.505 0-9.967-4.389-9.967-9.803 0-5.414 4.462-9.802 9.967-9.802z" fill="red" fill-rule="nonzero"/><g fill="#000" fill-rule="nonzero"><path d="M93.132 137.255a.73.73 0 0 0-.606.322l-1.146 1.698a.73.73 0 0 0-.124.408v2.246c0 .404.326.73.73.73h.66a1.533 1.533 0 0 1 3.063 0h5.701a1.533 1.533 0 0 1 .879-1.314H95.93v-3.36a.73.73 0 0 0-.73-.73h-2.068zm.038.438h1.665c.201 0 .365.164.365.365v1.023a.365.365 0 0 1-.365.365H92.48a.365.365 0 0 1-.302-.57l.69-1.022a.366.366 0 0 1 .302-.16z"/><path d="M97.1 135.064a.73.73 0 0 0-.732.73v5.113h9.495v-5.112a.73.73 0 0 0-.73-.731H97.1zm5.842 6.427a1.242 1.242 0 1 0 0 2.484 1.242 1.242 0 0 0 0-2.484zm0 .584a.657.657 0 1 1 .027 1.315.657.657 0 0 1-.027-1.315zm1.531.585a1.533 1.533 0 0 0-.879-1.315h2.269v1.315h-1.39zm-10.296-1.169a1.242 1.242 0 1 0 0 2.484 1.242 1.242 0 0 0 0-2.484zm0 .584a.657.657 0 1 1 .027 1.315.657.657 0 0 1-.027-1.315z"/></g></g><g><path d="M57 179h83a6 6 0 0 1 6 6v60a6 6 0 0 1-6 6H57a6 6 0 0 1-6-6v-60a6 6 0 0 1 6-6z" fill="#FFF" fill-rule="nonzero"/><path d="M57 181h83a4 4 0 0 1 4 4v60a4 4 0 0 1-4 4H57a4 4 0 0 1-4-4v-60a4 4 0 0 1 4-4z" stroke="#000"/><path d="M57.435 183A2.424 2.424 0 0 0 55 185.424v59.152A2.424 2.424 0 0 0 57.435 247h38.793v-64H79.185v43.312h5.68l-9.088 15.84-9.09-15.84h5.681V183H57.435zm41.063 0v64h18.182v-43.312h-5.682l9.09-15.84 9.088 15.84h-5.679V247h16.07a2.424 2.424 0 0 0 2.433-2.424v-59.152a2.424 2.424 0 0 0-2.435-2.424H98.498z" fill="#0D69E1" fill-rule="nonzero"/></g></g></svg>