<?xml version="1.0" encoding="UTF-8"?>
<svg id="_Слой_1" data-name=" Слой 1" xmlns="http://www.w3.org/2000/svg" width="116" height="159" viewBox="0 0 116 159">
  <defs>
    <style>
      .cls-1, .cls-2 {
        fill: none;
      }

      .cls-3, .cls-4 {
        fill: #fff;
      }

      .cls-5 {
        fill: #8b8b8b;
      }

      .cls-6 {
        fill: #609c58;
      }

      .cls-4, .cls-2 {
        stroke: #000;
      }

      .cls-2 {
        stroke-miterlimit: 10;
      }
    </style>
  </defs>
  <g>
    <path class="cls-5" d="m52.85,153.18c0,.42-.07.81-.2,1.17s-.32.67-.57.93c-.25.27-.55.47-.92.63s-.77.23-1.23.23c-.42,0-.83-.05-1.23-.14s-.75-.21-1.05-.36v-1.24h.08c.09.07.22.14.39.23s.35.16.56.24c.23.08.44.15.63.19s.41.07.64.07.46-.04.69-.13.41-.22.57-.41c.14-.17.25-.37.33-.6s.11-.5.11-.81-.04-.56-.13-.76-.21-.36-.37-.49c-.17-.15-.37-.25-.62-.31s-.52-.09-.82-.09c-.32,0-.63.02-.96.07s-.58.09-.77.14v-4.49h4.79v1.03h-3.66v2.32c.14-.02.28-.03.42-.04s.26-.01.38-.01c.45,0,.82.04,1.13.11s.61.22.89.43c.29.22.51.49.67.82s.23.76.23,1.28Z"/>
    <path class="cls-5" d="m55.99,155.96h-1.4v-1.67h1.4v1.67Z"/>
    <path class="cls-5" d="m60.1,148.06c-.21,0-.42.03-.63.08s-.42.12-.62.2c-.19.08-.35.16-.49.25s-.26.17-.37.24h-.07v-1.24c.25-.14.6-.26,1.03-.37.44-.11.85-.17,1.25-.17s.74.04,1.03.12.56.2.8.37c.26.19.45.41.58.68s.2.58.2.93c0,.48-.16.9-.47,1.27s-.7.59-1.14.69v.08c.18.04.38.1.59.18s.4.21.58.38.33.38.44.65.17.58.17.96-.07.76-.2,1.09-.33.62-.57.88c-.25.27-.56.47-.92.6s-.77.21-1.22.21-.87-.05-1.3-.16c-.43-.11-.79-.23-1.08-.38v-1.24h.08c.25.18.58.35.99.52.41.16.83.25,1.24.25.24,0,.48-.04.72-.11s.44-.2.6-.37c.16-.17.28-.36.36-.57s.12-.47.12-.79-.05-.58-.14-.78-.22-.36-.38-.48-.36-.2-.58-.24-.47-.07-.73-.07h-.5v-.97h.39c.53,0,.96-.12,1.29-.38s.5-.61.5-1.09c0-.22-.04-.41-.13-.57s-.2-.28-.33-.38c-.15-.1-.31-.17-.49-.21s-.37-.06-.57-.06Z"/>
    <path class="cls-5" d="m69.58,153.18c0,.42-.07.81-.2,1.17s-.32.67-.57.93c-.25.27-.55.47-.92.63s-.77.23-1.23.23c-.42,0-.83-.05-1.23-.14s-.75-.21-1.05-.36v-1.24h.08c.09.07.22.14.39.23s.35.16.56.24c.23.08.44.15.63.19s.41.07.64.07.46-.04.69-.13.41-.22.57-.41c.14-.17.25-.37.33-.6s.11-.5.11-.81-.04-.56-.13-.76-.21-.36-.37-.49c-.17-.15-.37-.25-.62-.31s-.52-.09-.82-.09c-.32,0-.63.02-.96.07s-.58.09-.77.14v-4.49h4.79v1.03h-3.66v2.32c.14-.02.28-.03.42-.04s.26-.01.38-.01c.45,0,.82.04,1.13.11s.61.22.89.43c.29.22.51.49.67.82s.23.76.23,1.28Z"/>
  </g>
  <path class="cls-4" d="m10.64,3.5h95.36c2.2,0,3.97,1.79,3.97,4v129c0,2.21-1.78,4-3.97,4H10.64c-2.2,0-3.97-1.79-3.97-4V7.5c0-2.21,1.78-4,3.97-4Z"/>
  <path class="cls-1" d="m0,0h116v159H0V0Z"/>
  <path class="cls-2" d="m10.87,5.57h94.99c1.12,0,2.02.9,2.02,2.01v128.84c0,1.11-.91,2.01-2.02,2.01H10.87c-1.12,0-2.02-.9-2.02-2.01V7.59c0-1.11.91-2.01,2.02-2.01h0Z"/>
  <g>
    <path d="m42.56,16.91c0-.57-.22-1.03-.65-1.37s-1.02-.51-1.75-.51c-.63,0-1.16.17-1.59.51s-.64.77-.64,1.31h-2.2c0-.7.19-1.32.58-1.86s.92-.97,1.6-1.27,1.43-.45,2.25-.45c1.46,0,2.59.32,3.39.96s1.21,1.53,1.21,2.68c0,.58-.17,1.11-.52,1.6s-.84.87-1.47,1.15c.71.25,1.25.62,1.63,1.12s.56,1.12.56,1.87c0,1.15-.44,2.06-1.31,2.74s-2.04,1.02-3.49,1.02c-.9,0-1.71-.16-2.43-.48s-1.27-.76-1.63-1.32-.55-1.2-.55-1.92h2.2c0,.55.23,1.02.68,1.39.45.38,1.03.57,1.73.57.78,0,1.41-.18,1.88-.55.47-.37.71-.85.71-1.44,0-.72-.21-1.24-.62-1.57s-1.03-.49-1.83-.49h-1.49v-1.76h1.41c1.56,0,2.34-.64,2.34-1.91v-.02Z"/>
    <path d="m57.16,20.16c0,1.25-.22,2.35-.65,3.3-.43.95-1.05,1.67-1.85,2.18s-1.72.76-2.76.76-1.95-.25-2.75-.76-1.43-1.23-1.87-2.17-.66-2.02-.67-3.24v-.72c0-1.25.22-2.35.66-3.3s1.06-1.69,1.86-2.19,1.72-.76,2.75-.76,1.95.25,2.75.75,1.42,1.22,1.86,2.16c.44.94.66,2.03.66,3.28v.71h0Zm-2.21-.67c0-1.42-.27-2.5-.8-3.26s-1.29-1.13-2.27-1.13-1.7.38-2.24,1.13-.81,1.82-.83,3.19v.74c0,1.41.27,2.49.82,3.26.54.77,1.3,1.15,2.27,1.15s1.73-.38,2.26-1.12.79-1.85.79-3.29c0,0,0-.67,0-.67Z"/>
    <path d="m69.45,26.22h-2.2v-5.68h-5.68v5.68h-2.21v-12.8h2.21v5.33h5.68v-5.33h2.2v12.8Z"/>
    <path d="m79.34,23.24h-4.92l-1.03,2.98h-2.3l4.8-12.8h1.98l4.81,12.8h-2.31l-1.04-2.98h0Zm-4.3-1.79h3.68l-1.84-5.31s-1.84,5.31-1.84,5.31Z"/>
  </g>
  <ellipse class="cls-6" cx="58.45" cy="56.63" rx="31.62" ry="15.49"/>
  <ellipse class="cls-3" cx="58.46" cy="56.69" rx="26.23" ry="12.16"/>
  <path d="m54.39,56.74l.86-8.06h8.53v2.3h-6.32l-.44,3.82c.73-.42,1.56-.64,2.49-.64,1.51,0,2.69.49,3.53,1.46.84.97,1.26,2.28,1.26,3.93s-.46,2.92-1.4,3.88c-.93.96-2.21,1.44-3.83,1.44-1.45,0-2.66-.42-3.61-1.25-.96-.83-1.47-1.93-1.55-3.29h2.56c.1.78.38,1.37.83,1.78s1.04.62,1.77.62c.81,0,1.45-.29,1.9-.88s.68-1.38.68-2.39-.25-1.74-.75-2.31-1.19-.85-2.07-.85c-.48,0-.89.06-1.22.19s-.7.38-1.09.75l-2.11-.53-.02.03Z"/>
  <path d="m79.57,99.05l-4.27-10.87c-.8-2.07-2.54-3.85-5.81-3.85h-22.34c-3.27,0-5.01,1.78-5.81,3.85l-4.25,10.87c-1.69.22-4.68,2.18-4.68,5.9v13.83h4.14v4.41c0,5.45,7.79,5.37,7.79,0v-4.41h28.01v4.41c0,5.37,7.77,5.45,7.77,0v-4.41h4.14v-13.83c0-3.72-2.99-5.68-4.68-5.9Zm-39.02,11.27c-1.98,0-3.59-1.65-3.59-3.67s1.6-3.67,3.59-3.67,3.59,1.63,3.59,3.67-1.6,3.67-3.59,3.67Zm17.77-11.53h-16.84l3.21-8.42c.4-1.2,1-2.07,2.41-2.09h22.45c1.42,0,2,.89,2.41,2.09l3.21,8.42h-16.86Zm17.75,11.53c-1.98,0-3.59-1.65-3.59-3.67s1.6-3.67,3.59-3.67,3.59,1.63,3.59,3.67-1.62,3.67-3.59,3.67Z"/>
</svg>