<svg width="100" height="86" xmlns="http://www.w3.org/2000/svg"><g fill="none" fill-rule="evenodd"><path d="M55.464 6.502c3.267 5.663 6.466 11.286 11.217 19.692l4.76 8.425c10.212 18.068 16.33 28.664 23.07 39.766 2.228 3.668-.924 8.996-5.175 8.996H10.534c-4.251 0-7.403-5.328-5.176-8.996 6.738-11.099 12.84-21.67 23.068-39.763l4.632-8.2c4.828-8.54 8.048-14.2 11.348-19.92 2.852-4.943 8.207-4.943 11.058 0z" stroke="#0C0E0F"/><path d="M11.61 73.352l-.003.006-.556.967-.016.028a108.335 108.335 0 0 1-1.5 2.568c-.22.362.5 1.574 1 1.574h78.8c.5 0 1.22-1.212 1-1.575-.436-.718-.772-1.295-1.502-2.57l-.02-.036c-.266-.463-.396-.69-.554-.962L51.232 8.943c-.918-1.591-1.675-1.591-2.591-.003L11.61 73.352z" stroke="red" stroke-width="6" fill="#FC0"/><g fill="#000" fill-rule="nonzero"><path d="M54.266 31.415c-1.83 0-2.935 1.38-2.935 3.198 0 2.804 2.498 6.732 4.384 6.732 1.886 0 3.984-1.905 3.984-4.484 0-2.142-2.173-5.446-5.433-5.446zM51.893 70.697a2.248 2.248 0 1 0 4.496 0V60.7a1.993 1.993 0 0 0 1.799-.903l9.41 5.433c-3.703 2.484-5.73 1.157-10.583 7.714h25.052l-8.754-15.162c-1.864 2.107-2.213 3.97-4.477 6.432l-10.38-5.993-4.107-15.327a1.25 1.25 0 0 0-.3-.536l-4.023-4.247a1.25 1.25 0 0 0-.906-.39h-7.919c-.446 0-.858.239-1.081.625l-5.27 9.13a1.999 1.999 0 0 0 3.46 2l.5-.866 2.834 1.636-.874 1.514a1.249 1.249 0 0 0 .457 1.707l10.666 6.158v11.07zM39.56 47.313l3.229-5.593h3.779l-4.174 7.229-2.834-1.636zm8.921 4.833l2.874-4.978 2.104 7.852-4.978-2.874z"/><path d="M35.957 69.573a2.248 2.248 0 0 0 3.894 2.248l6.254-10.867a1.249 1.249 0 0 0 .158-.777l-.35-2.85-5.049-2.915.675 5.493-5.582 9.668z"/></g></g></svg>