<svg width="115" height="71" xmlns="http://www.w3.org/2000/svg"><g transform="translate(8 11)" fill-rule="nonzero" fill="none"><rect fill="#000" y=".166" width="100" height="49.669" rx="6.3"/><rect fill="#FFF" x="1.667" y="1.821" width="96.667" height="46.358" rx="4.9"/><path d="M30.83 11.831c-.72 0-1.438.27-1.987.815l-6.587 6.543c-3.34.958-5.97 3.57-6.934 6.888l-1.728 1.717v3.415h1.601c1.059 4.449 5.081 7.76 9.883 7.76 5.61 0 10.156-4.517 10.156-10.089 0-.157-.007-.314-.014-.47a22.699 22.699 0 0 1 14.013.024c-.006.148-.014.297-.014.446 0 5.572 4.547 10.09 10.156 10.09 4.802 0 8.824-3.312 9.883-7.761h2.07v-3.415l14.473-14.377c.671-.676 1.76-.696 2.431-.02.323.326.503.768.503 1.228v2.328h1.094v-2.328c0-.741-.298-1.455-.825-1.98a2.806 2.806 0 0 0-1.987-.814c-.72 0-1.439.27-1.988.815L69.78 27.794h-.307c-.545-5.062-4.858-9.003-10.098-9.003-5.158 0-9.416 3.819-10.068 8.765a23.597 23.597 0 0 0-7.12-1.096 23.6 23.6 0 0 0-7.045 1.072c-.664-4.935-4.915-8.74-10.064-8.74-.31 0-.616.016-.918.043l5.454-5.418c.671-.676 1.76-.696 2.432-.02.322.326.503.768.503 1.228v2.328h1.094v-2.328c0-.741-.298-1.455-.826-1.98a2.806 2.806 0 0 0-1.987-.814zm-5.752 8.202c4.919 0 8.906 3.961 8.906 8.847 0 4.887-3.987 8.848-8.906 8.848-4.919 0-8.906-3.961-8.906-8.848 0-4.886 3.987-8.847 8.906-8.847zm34.297 0c4.919 0 8.906 3.961 8.906 8.847 0 4.887-3.987 8.848-8.906 8.848-4.919 0-8.906-3.961-8.906-8.848 0-4.886 3.987-8.847 8.906-8.847z" fill="#000"/><path d="M33.203 28.88c0 4.458-3.638 8.072-8.125 8.072s-8.125-3.614-8.125-8.072c0-4.457 3.638-8.07 8.125-8.07s8.125 3.613 8.125 8.07zM67.5 28.88c0 4.458-3.638 8.072-8.125 8.072s-8.125-3.614-8.125-8.072c0-4.457 3.638-8.07 8.125-8.07s8.125 3.613 8.125 8.07z" fill="#000"/></g></svg>