<svg width="100" height="86" xmlns="http://www.w3.org/2000/svg"><g fill="none" fill-rule="evenodd"><path d="M89.734 43A39.867 39.867 0 1 1 10 43a39.867 39.867 0 1 1 79.734 0z" fill="#FFF" fill-rule="nonzero"/><path d="M90.5 43c0 22.368-18.132 40.5-40.5 40.5S9.5 65.368 9.5 43 27.632 2.5 50 2.5 90.5 20.632 90.5 43z" stroke="#000"/><path d="M50 5C29.013 5 12 22.013 12 43s17.013 38 38 38 38-17.013 38-38S70.987 5 50 5zm0 7c17.12 0 31 13.88 31 31 0 17.12-13.88 31-31 31-17.12 0-31-13.88-31-31 0-17.12 13.88-31 31-31z" fill="red" fill-rule="nonzero"/><g fill="#000" fill-rule="nonzero"><path d="M27.373 48.427a2.927 2.927 0 0 1 0-5.854h45.042a2.927 2.927 0 1 1 0 5.854H27.373zM30.835 34.292l1.394.99c.455.21 1.054.315 1.797.315.508 0 .903-.157 1.184-.473.282-.315.422-.686.422-1.111 0-.279-.07-.53-.209-.755a1.095 1.095 0 0 0-.59-.47l-2.113-.543c-.807-.269-1.39-.564-1.753-.887-.523-.494-.785-1.142-.785-1.944 0-.875.38-1.622 1.141-2.24.76-.62 1.57-.928 2.431-.928.856 0 1.59.112 2.205.337.613.225 1.209.596 1.786 1.115l-1.247 1.166-.778-.594c-.396-.293-.953-.44-1.672-.44-.518 0-.98.169-1.383.506-.403.337-.605.682-.605 1.034l.044.272.11.234c.113.157.267.298.462.426l2.685.821c.885.352 1.447.619 1.687.8.538.425.807 1.066.807 1.921 0 .93-.409 1.746-1.225 2.45-.763.675-1.624 1.012-2.582 1.012a5.92 5.92 0 0 1-2.384-.484c-.62-.279-1.332-.728-2.134-1.35l1.305-1.18zM40.7 26.393h8.09v1.599h-3.175v9.153h-1.731v-9.153H40.7zM53.55 31.776c0 1.061.23 1.967.69 2.717.46.751 1.02 1.126 1.68 1.126.65 0 1.207-.375 1.672-1.126.464-.75.697-1.656.697-2.717 0-1.061-.233-1.97-.697-2.725-.465-.755-1.022-1.133-1.672-1.133-.66 0-1.22.378-1.68 1.133-.46.756-.69 1.664-.69 2.725zm-1.914-.007c0-1.555.417-2.88 1.25-3.976.834-1.095 1.838-1.643 3.012-1.643 1.183 0 2.191.548 3.025 1.643.834 1.095 1.25 2.42 1.25 3.976 0 1.545-.416 2.865-1.25 3.96-.834 1.096-1.842 1.643-3.025 1.643-1.174 0-2.178-.547-3.011-1.643-.834-1.095-1.25-2.415-1.25-3.96zM70.259 29.62c0 .845-.237 1.606-.712 2.28-.557.803-1.274 1.203-2.149 1.203h-2.582v4.042h-1.804V26.392h4.386c.831 0 1.543.345 2.135 1.034.484.631.726 1.362.726 2.193zm-1.805.088c0-.445-.1-.834-.3-1.167-.274-.371-.697-.557-1.27-.557h-2.068v3.506h2.069c.489 0 .882-.2 1.18-.602.26-.332.39-.726.39-1.18z"/><g><path d="M25.612 53.863h1.031v2.209c.324-.014.635-.219.934-.616.263-.366.528-.732.794-1.096.35-.404.753-.618 1.206-.64l.306 1.015a2.459 2.459 0 0 0-.42.057c-.117.036-.23.122-.338.261l-.831 1.072c-.1.133-.177.221-.228.265a.677.677 0 0 1-.31.159c.383.057.695.259.937.607.022.032.322.524.9 1.475.46.758.735 1.16.828 1.206h-1.288c-.117-.122-.33-.463-.64-1.023l-.623-1.104c-.163-.264-.332-.439-.505-.526-.155-.079-.396-.122-.722-.13v2.783h-1.03v-5.974zM33.18 56.854c0 .59.128 1.093.383 1.51.255.417.566.625.933.625.361 0 .671-.208.93-.625.257-.417.386-.92.386-1.51s-.129-1.094-.387-1.514c-.258-.42-.568-.63-.929-.63-.367 0-.678.21-.933.63-.255.42-.383.925-.383 1.514zm-1.064-.004c0-.864.232-1.6.695-2.209.463-.608 1.02-.912 1.673-.912.657 0 1.218.304 1.68.912.464.609.696 1.345.696 2.209 0 .858-.232 1.592-.695 2.2-.463.609-1.024.913-1.681.913-.652 0-1.21-.304-1.673-.913-.463-.608-.695-1.342-.695-2.2zM41.877 53.864h.986v5.98h-.986v-2.741h-2.331v2.742h-.99v-5.981h.99v2.359h2.33zM44.554 53.864h4.495v.888h-1.765v5.085h-.961v-5.085h-1.77zM52.949 54.751h-1.251v1.916h1.25a.796.796 0 0 0 .632-.29c.16-.179.24-.4.24-.664a.998.998 0 0 0-.252-.666.785.785 0 0 0-.62-.296zm-2.2-.888h2.31c.527 0 .98.182 1.363.544.381.363.572.806.572 1.33 0 .522-.19.96-.572 1.315a1.924 1.924 0 0 1-1.355.532h-1.251v2.253h-1.068v-5.974zM57.761 56.854c0 .59.128 1.093.383 1.51.256.417.567.625.934.625.36 0 .67-.208.929-.625.258-.417.387-.92.387-1.51s-.13-1.094-.387-1.514c-.258-.42-.568-.63-.93-.63-.366 0-.677.21-.933.63-.255.42-.383.925-.383 1.514zm-1.063-.004c0-.864.231-1.6.695-2.209.463-.608 1.02-.912 1.672-.912.658 0 1.218.304 1.681.912.463.609.695 1.345.695 2.209 0 .858-.232 1.592-.695 2.2-.463.609-1.023.913-1.68.913-.653 0-1.21-.304-1.673-.913-.464-.608-.695-1.342-.695-2.2zM64.44 53.863h3.79v5.974h-1.084v-5.049H65.52l-.048 2.364c-.02.766-.134 1.357-.343 1.772-.274.524-.744.875-1.41 1.051l-.582-1.03c.521-.128.872-.328 1.051-.6.163-.239.244-.637.244-1.193a18238.292 18238.292 0 0 1 .008-3.288zM72.249 58.936a.86.86 0 0 0 .617-.295.96.96 0 0 0 .255-.67.965.965 0 0 0-.251-.675.807.807 0 0 0-.621-.275h-1.247v1.915H72.249zm-2.315.9v-5.973h1.068v2.262h1.247c.527 0 .976.174 1.348.521.386.359.579.799.579 1.32 0 .522-.19.964-.573 1.327a1.906 1.906 0 0 1-1.359.544h-2.31z"/></g></g></g></svg>