<svg width="100" height="86" xmlns="http://www.w3.org/2000/svg"><g fill="none" fill-rule="evenodd"><path d="M55.464 6.502c3.267 5.663 6.466 11.286 11.217 19.692l4.76 8.425c10.212 18.068 16.33 28.664 23.07 39.766 2.228 3.668-.924 8.996-5.175 8.996H10.534c-4.251 0-7.403-5.328-5.176-8.996 6.738-11.099 12.84-21.67 23.068-39.763l4.632-8.2c4.828-8.54 8.048-14.2 11.348-19.92 2.852-4.943 8.207-4.943 11.058 0z" stroke="#0C0E0F"/><path d="M11.61 73.352l-.003.006-.556.967-.016.028a108.335 108.335 0 0 1-1.5 2.568c-.22.362.5 1.574 1 1.574h78.8c.5 0 1.22-1.212 1-1.575-.436-.718-.772-1.295-1.502-2.57l-.02-.036c-.266-.463-.396-.69-.554-.962L51.232 8.943c-.918-1.591-1.675-1.591-2.591-.003L11.61 73.352z" stroke="red" stroke-width="6" fill="#FFF"/><g fill="#000" fill-rule="nonzero"><path d="M17.207 73.819l52.801-23.508 13.573 23.508zM31.211 53.049l1.011.885 1.417-1.886 4.279 9.611 2.196-.978-5.512-12.38-2.128.947zM49.352 49.14c.772 1.735 1.037 3.394.795 4.98-.242 1.584-.923 2.626-2.043 3.125-1.093.486-2.319.289-3.68-.593-1.36-.882-2.423-2.181-3.187-3.898-.77-1.729-1.034-3.385-.792-4.97.243-1.586.926-2.629 2.052-3.13 1.104-.492 2.33-.299 3.678.578 1.349.877 2.408 2.18 3.177 3.909zm-2.018.9c-.541-1.217-1.194-2.144-1.957-2.782-.763-.639-1.423-.834-1.98-.586-.547.243-.84.868-.881 1.875-.041 1.006.205 2.11.74 3.308.292.659.59 1.2.893 1.621.302.422.658.812 1.067 1.17.763.638 1.426.831 1.99.58.54-.24.828-.868.866-1.883.037-1.015-.21-2.116-.738-3.304zM50.09 42.713a2.498 2.498 0 1 0 4.995 0 2.498 2.498 0 0 0-4.996 0zm1.373 0a1.124 1.124 0 1 1 2.248 0 1.124 1.124 0 0 1-2.248 0zM58.201 52.628l-1.579.703-1.006-14.386 1.579-.703zM58.732 48.86a2.498 2.498 0 1 0 4.996 0 2.498 2.498 0 0 0-4.996 0zm1.374 0a1.124 1.124 0 1 1 2.248 0 1.124 1.124 0 0 1-2.248 0z"/></g></g></svg>