<svg width="110" height="97" xmlns="http://www.w3.org/2000/svg"><g fill="none" fill-rule="evenodd"><path d="M0 0h110v97H0z"/><g fill-rule="nonzero"><path d="M11.3 5h87.4a6.3 6.3 0 0 1 6.3 6.3v53.735a6.3 6.3 0 0 1-6.3 6.3H11.3a6.3 6.3 0 0 1-6.3-6.3V11.3A6.3 6.3 0 0 1 11.3 5z" fill="#000"/><path d="M11.567 6.824h86.866a4.9 4.9 0 0 1 4.9 4.9v53.218a4.9 4.9 0 0 1-4.9 4.9H11.567a4.9 4.9 0 0 1-4.9-4.9V11.724a4.9 4.9 0 0 1 4.9-4.9z" fill="#FFF"/><path d="M16.25 49.774V62.21h2.679v-5.774c.113-.017.229-.031.346-.044.118-.013.226-.02.323-.02 1.231.085 2.165.74 2.802 1.967s1.34 2.518 2.109 3.871h3.348a9.942 9.942 0 0 1-1.88-2.674 22.99 22.99 0 0 0-1.597-2.795 3.852 3.852 0 0 0-2.326-1.638c.538-.158 1.013-.49 1.426-.998a24.56 24.56 0 0 1 1.314-1.484 2.783 2.783 0 0 1 1.724-.85l-.67-2.22c-.927.127-1.765.566-2.512 1.316a66.07 66.07 0 0 0-2.108 2.211c-.658.725-1.319 1.114-1.98 1.168-.05.001-.103 0-.16-.004a.668.668 0 0 1-.16-.027v-4.442H16.25v.001zm21.649-.444c-1.107.073-1.907.37-2.4.888-.492.518-.734.814-.725.888-.197-.349-.345-.793-.446-1.332h-2.233v17.768h2.679V61.1c.019.162.316.449.893.86.576.412 1.32.644 2.232.695.49.02 1.171-.144 2.042-.494.87-.35 1.667-1.008 2.39-1.974.721-.967 1.104-2.365 1.148-4.196-.093-2.61-.744-4.386-1.953-5.33s-2.418-1.388-3.627-1.333v.002zm0 2.442c.804.01 1.483.38 2.037 1.111.553.731.842 1.768.865 3.11-.023 1.35-.312 2.424-.865 3.22-.554.796-1.233 1.203-2.037 1.222a3.673 3.673 0 0 1-1.742-.472 3.69 3.69 0 0 1-1.383-1.305v-4.664c.343-.676.789-1.213 1.335-1.61a3.054 3.054 0 0 1 1.79-.612zm15.373-2.442c-1.707.027-3.092.638-4.157 1.832s-1.614 2.804-1.646 4.83c.032 2.027.58 3.637 1.646 4.831 1.065 1.194 2.45 1.805 4.157 1.833 1.707-.028 3.093-.639 4.157-1.833 1.065-1.194 1.614-2.804 1.647-4.83-.033-2.027-.582-3.637-1.647-4.831-1.064-1.194-2.45-1.805-4.157-1.833v.001zm0 2.22c.912.019 1.656.426 2.232 1.222.577.796.874 1.87.893 3.22-.019 1.352-.316 2.425-.893 3.22-.576.797-1.32 1.204-2.232 1.223-.911-.019-1.655-.426-2.232-1.222-.577-.796-.874-1.87-.893-3.22.019-1.352.316-2.425.893-3.221.577-.796 1.32-1.203 2.232-1.222zM63.76 62.212h2.679l.67-8.662 3.57 7.107 3.573-7.107.669 8.662H77.6l-1.116-12.438h-2.68l-3.124 6.219-3.125-6.22h-2.678L63.76 62.212zM88.087 51.55c.693.002 1.34.276 1.942.821.6.546.921 1.16.96 1.845a.805.805 0 0 1-.052.305c-.035.088-.092.134-.17.139h-5.581c.03-1.097.335-1.885.912-2.364a3.156 3.156 0 0 1 1.99-.746h-.001zm5.134 5.33c.196-.013.355-.152.479-.416.123-.263.187-.569.191-.916-.046-1.716-.623-3.17-1.73-4.359s-2.465-1.809-4.074-1.86a5.86 5.86 0 0 0-2.523.611 6.127 6.127 0 0 0-2.068 1.61 4.948 4.948 0 0 0-.973 1.912c-.193.725-.294 1.568-.303 2.53.026 2.027.652 3.637 1.878 4.831 1.225 1.194 2.704 1.805 4.436 1.833.788.004 1.596-.227 2.423-.695.828-.467 1.636-1.198 2.424-2.193l-2.169-1.237c-.432.556-.85.975-1.255 1.257-.405.282-.879.424-1.423.424-.628.028-1.325-.194-2.093-.666-.767-.472-1.186-1.36-1.255-2.665h8.035v-.001z" fill="#000"/><g fill="#000"><path d="M50.636 18.287c-.465 0-.96.355-1.112.794l-.562 1.629-1.164 3.373-.002.01-.271.783a1.195 1.195 0 0 0-1.198 1.198v4.792a1.195 1.195 0 0 0 1.198 1.199h17.97a1.196 1.196 0 0 0 1.198-1.199v-4.792a1.195 1.195 0 0 0-1.198-1.198l-.272-.784c0-.003 0-.006-.002-.01l-1.164-3.372-.562-1.629c-.151-.44-.647-.794-1.111-.794H50.636zM51 19.485h11.018c.232 0 .48.178.555.397l1.723 4.994H48.723l1.722-4.994a.627.627 0 0 1 .556-.397H51zm-3.477 13.178v2.396a1.797 1.797 0 1 0 3.594 0v-2.396h-3.594zm14.376 0v2.396a1.797 1.797 0 1 0 3.594 0v-2.396h-3.594z"/><path d="M36.667 10.069a.385.385 0 0 0-.385.386v4.412c-.685.024-1.23.567-1.23 1.24v4.153c0 .689.569 1.243 1.275 1.243h2.4v6.583c0 9.84 7.976 17.816 17.816 17.816s17.816-7.976 17.816-17.816S66.382 10.27 56.543 10.27v3.218c8.061 0 14.597 6.536 14.597 14.598 0 8.062-6.535 14.598-14.597 14.598-8.063 0-14.598-6.536-14.598-14.598v-6.583h2.511c.707 0 1.275-.554 1.275-1.243v-4.152c0-.674-.544-1.217-1.23-1.24v-4.414a.385.385 0 0 0-.385-.386h-.292a.386.386 0 0 0-.386.386v4.41h-6.093v-4.41a.385.385 0 0 0-.386-.386h-.292v.001z"/></g><path d="M42.2 88.492c0 .754-.295 1.381-.883 1.881-.588.5-1.327.75-2.217.75-.946 0-1.699-.244-2.26-.732-.56-.489-.84-1.114-.84-1.875 0-.485.14-.923.422-1.316.281-.392.678-.704 1.19-.934v-.036c-.47-.25-.816-.523-1.04-.82-.225-.297-.338-.668-.338-1.113 0-.656.27-1.203.809-1.64.539-.438 1.225-.657 2.057-.657.87 0 1.566.209 2.086.627.52.418.779.95.779 1.594 0 .394-.123.782-.37 1.163-.245.38-.607.678-1.083.893v.035c.547.235.965.524 1.254.868.289.343.433.78.433 1.312h.001zm-1.39-4.26c0-.418-.16-.75-.483-.999-.322-.248-.733-.372-1.233-.372-.492 0-.896.118-1.21.352a1.12 1.12 0 0 0-.472.95c0 .28.08.524.237.729.159.205.398.387.718.547.145.07.353.163.624.276.272.113.536.207.794.281.387-.258.654-.525.803-.803.148-.277.223-.597.223-.96l-.001-.001zm.182 4.372c0-.36-.079-.648-.237-.865-.158-.217-.468-.434-.929-.653a5.886 5.886 0 0 0-.603-.24c-.22-.075-.51-.178-.873-.31a2.306 2.306 0 0 0-.847.778 2 2 0 0 0-.32 1.114c0 .527.182.963.546 1.306.363.344.824.516 1.382.516.57 0 1.027-.146 1.368-.44.342-.292.513-.695.513-1.206zm4.805 2.32h-1.4v-1.67h1.4v1.67zm8.531-2.455h-1.295v2.455h-1.125v-2.455H47.73V87.12l4.225-4.922h1.078v5.332h1.295v.939zm-2.42-.938v-3.937l-3.38 3.937h3.38zm5.883 3.393h-1.4v-1.67h1.4v1.67zm7.834 0h-4.723v-.89h1.817v-5.848h-1.817v-.797c.246 0 .51-.02.791-.062.282-.04.494-.1.639-.179.18-.097.321-.221.425-.372.103-.15.163-.352.179-.606h.908v7.863h1.781v.891zm8.057-2.772c0 .407-.075.795-.223 1.166a2.706 2.706 0 0 1-.61.938c-.287.277-.63.492-1.004.63-.389.146-.84.22-1.35.22-.477 0-.936-.05-1.378-.15a5.76 5.76 0 0 1-1.119-.36v-1.237h.082c.32.204.695.376 1.125.519.43.143.852.214 1.266.214.277 0 .546-.04.805-.117a1.66 1.66 0 0 0 1.085-1.014c.087-.234.131-.506.131-.815 0-.3-.052-.554-.155-.761a1.286 1.286 0 0 0-.43-.498 1.892 1.892 0 0 0-.742-.314 4.805 4.805 0 0 0-.976-.09c-.343 0-.674.023-.993.07a15.83 15.83 0 0 0-.823.14V82.2h5.25v1.026h-4.12v2.32c.324-.03.649-.046.974-.047.472 0 .886.04 1.242.12.355.08.681.222.978.425.313.215.555.492.727.832.172.34.258.766.258 1.277v-.001z" fill="#8B8B8B"/></g></g></svg>