<svg width="100" height="86" xmlns="http://www.w3.org/2000/svg"><g transform="translate(10 3)" fill="none" fill-rule="evenodd"><rect fill="#FFF" fill-rule="nonzero" transform="rotate(-45 40.016 40.016)" x="11.747" y="11.748" width="56.537" height="56.537" rx="6"/><path d="M3.702 37.684a3.29 3.29 0 0 0 0 4.664L37.684 76.33a3.29 3.29 0 0 0 4.664 0l33.98-33.982a3.29 3.29 0 0 0 0-4.664l-33.98-33.98a3.29 3.29 0 0 0-4.664 0L3.702 37.683zm.667.667L38.349 4.37a2.35 2.35 0 0 1 3.332 0l33.981 33.98a2.35 2.35 0 0 1 0 3.332l-33.98 33.981a2.35 2.35 0 0 1-3.332 0L4.369 41.683a2.35 2.35 0 0 1 0-3.332z" fill="#000" fill-rule="nonzero"/><path d="M17.362 37.018a4.231 4.231 0 0 0 0 5.997L37.017 62.67a4.231 4.231 0 0 0 5.997 0L62.67 43.015a4.231 4.231 0 0 0 0-5.997L43.014 17.362a4.231 4.231 0 0 0-5.997 0L17.362 37.018zm.666.666L37.684 18.03a3.29 3.29 0 0 1 4.664 0l19.655 19.655a3.29 3.29 0 0 1 0 4.664L42.348 62.004a3.29 3.29 0 0 1-4.664 0L18.028 42.348a3.29 3.29 0 0 1 0-4.664z" fill="#000" fill-rule="nonzero"/><rect fill="#FC0" fill-rule="nonzero" transform="rotate(-45 40.016 40.016)" x="22.819" y="22.82" width="34.393" height="34.393" rx="3"/><rect stroke="#000" transform="rotate(-45 40.016 40.016)" x="11.341" y="11.342" width="57.349" height="57.349" rx="4"/></g></svg>