<svg width="100" height="86" xmlns="http://www.w3.org/2000/svg"><g fill="none" fill-rule="evenodd"><path d="M53.337 82.031a6.406 6.406 0 0 1-8.75-2.345L5.858 12.61a6.406 6.406 0 0 1 5.548-9.608H88.86a6.406 6.406 0 0 1 5.547 9.608L55.681 79.686a6.406 6.406 0 0 1-2.344 2.345z" fill="#FFF" fill-rule="nonzero"/><path d="M50.029 81.467a4.98 4.98 0 0 1-4.208-2.491L7.093 11.899a4.983 4.983 0 0 1 4.315-7.474h77.45a4.982 4.982 0 0 1 4.316 7.474L54.45 78.976a4.983 4.983 0 0 1-4.422 2.491zm.004-8.576c.274.019.559-.04.814-.187a1.43 1.43 0 0 0 .52-.525L85.75 12.624c.394-.68.16-1.551-.52-1.944a1.42 1.42 0 0 0-.712-.187H15.75c-.786 0-1.423.637-1.423 1.423 0 .25.067.492.191.708L48.9 72.179c.246.425.678.68 1.134.712z" fill="red" fill-rule="nonzero"/><path d="M4.643 9.406a6.763 6.763 0 0 1 6.764-6.763H88.86a6.763 6.763 0 0 1 5.857 10.145L55.991 79.865a6.763 6.763 0 0 1-11.714 0L5.55 12.788a6.763 6.763 0 0 1-.907-3.382z" stroke="#000"/></g></svg>