<svg width="100" height="86" xmlns="http://www.w3.org/2000/svg"><g fill="none" fill-rule="evenodd"><path fill="#FFF" fill-rule="nonzero" d="M33.431 3L10 26.431v33.138L33.431 83h33.138L90 59.569V26.431L66.569 3z"/><path d="M9.614 59.728V26.272L33.272 2.614h33.456l23.658 23.658v33.456L66.728 83.386H33.272L9.614 59.728z" stroke="#000"/><path d="M34.379 5.286L12.286 27.379V58.62l22.093 22.093H65.62l22.093-22.093V27.38L65.621 5.286H34.38zm-9.983 25.928c1.724.129 3.21.643 4.458 1.543 1.247.9 1.9 1.414 1.96 1.543l-2.139 2.807c0-.093-.355-.47-1.068-1.125-.713-.655-1.784-1.028-3.21-1.121-1.397.07-2.345.492-2.85 1.264-.506.772-.745 1.472-.715 2.104.045.948.549 1.627 1.514 2.039.966.412 2.127.763 3.479 1.05 1.684.427 3.008 1.185 3.979 2.278.97 1.094 1.465 2.486 1.485 4.175-.01 1.52-.642 3.041-1.9 4.561s-3.08 2.337-5.468 2.454c-1.439-.049-2.72-.388-3.839-1.018-1.12-.63-1.998-1.262-2.643-1.893-.644-.63-.976-.97-.989-1.018l2.343-2.286c.006.107.446.538 1.318 1.286.871.749 2.14 1.175 3.81 1.282 1.51-.076 2.531-.486 3.061-1.228.53-.743.778-1.364.743-1.861.036-.292.02-.658-.046-1.104-.066-.445-.399-.898-.997-1.357-.598-.458-1.676-.853-3.236-1.185-2.639-.626-4.313-1.55-5.021-2.772-.708-1.222-1.016-2.357-.921-3.403.034-2.012.679-3.673 1.932-4.983 1.253-1.31 2.905-1.985 4.96-2.032zm33.347 0c2.956.086 5.157 1.237 6.603 3.457 1.447 2.22 2.166 4.996 2.161 8.329.005 3.333-.714 6.108-2.16 8.329-1.447 2.22-3.648 3.372-6.604 3.457-2.956-.085-5.157-1.237-6.604-3.457-1.446-2.22-2.169-4.996-2.164-8.329-.005-3.333.718-6.108 2.164-8.329 1.447-2.22 3.648-3.371 6.604-3.457zm-24.754.561h14.957v3.368h-5.675v19.082h-3.607V35.143H32.99v-3.368zm36.365 0h7.578c2.771.129 4.735.994 5.893 2.596 1.158 1.602 1.72 3.169 1.686 4.7-.035 1.532-.74 3.098-2.107 4.7-1.369 1.602-3.192 2.468-5.472 2.597h-3.65v7.857h-3.928v-22.45zm-11.611 3.086c-1.509.023-2.732.748-3.668 2.175-.936 1.426-1.418 3.415-1.446 5.964.028 2.55.51 4.538 1.446 5.964.936 1.427 2.16 2.152 3.668 2.175 1.508-.023 2.731-.748 3.668-2.175.936-1.426 1.418-3.415 1.446-5.964-.028-2.55-.51-4.538-1.446-5.964-.937-1.427-2.16-2.152-3.668-2.175zm15.54.282V43h2.528c1.17.012 2.197-.29 3.085-.91.89-.62 1.357-1.627 1.404-3.019-.047-1.391-.515-2.398-1.404-3.017-.888-.62-1.916-.923-3.085-.911h-2.529z" fill="red" fill-rule="nonzero"/></g></svg>