<svg width="100" height="86" xmlns="http://www.w3.org/2000/svg"><g fill="none" fill-rule="evenodd"><path d="M0 0h100v86H0z"/><path d="M14 2h72a5 5 0 0 1 5 5v72a5 5 0 0 1-5 5H14a5 5 0 0 1-5-5V7a5 5 0 0 1 5-5z" fill-opacity=".87" fill="#FFF"/><path d="M15 3h70a5 5 0 0 1 5 5v70a5 5 0 0 1-5 5H15a5 5 0 0 1-5-5V8a5 5 0 0 1 5-5z" fill="#181818"/><path d="M15 4h70a4 4 0 0 1 4 4v70a4 4 0 0 1-4 4H15a4 4 0 0 1-4-4V8a4 4 0 0 1 4-4z" fill="#FFF"/><path d="M38 22h-7l11.5 19L54 22h-7V6h37a3 3 0 0 1 3 3v68a3 3 0 0 1-3 3H62V45h7L57.5 26 46 45h7v35H16a3 3 0 0 1-3-3V9a3 3 0 0 1 3-3h22v16z" fill="#0D69E1"/><path fill="red" d="M33 23l9.5 16L52 23h-6V6h-7v17z"/></g></svg>