<svg width="100" height="86" xmlns="http://www.w3.org/2000/svg"><g fill="none" fill-rule="evenodd"><path d="M10 43c0 22.091 17.909 40 40 40s40-17.909 40-40S72.091 3 50 3 10 20.909 10 43z" fill="#FFF" fill-rule="nonzero"/><path d="M90.367 43c0 22.294-18.073 40.367-40.367 40.367C27.706 83.367 9.633 65.294 9.633 43 9.633 20.706 27.706 2.633 50 2.633c22.294 0 40.367 18.073 40.367 40.367z" stroke="#000"/><path d="M50 5.667a37.171 37.171 0 0 0-23.517 8.341L60.95 48.475l4.635-4.64 5.398 20.148-20.148-5.398 4.64-4.635-34.467-34.467A37.171 37.171 0 0 0 12.667 43c0 20.619 16.714 37.333 37.333 37.333S87.333 63.62 87.333 43 70.62 5.667 50 5.667z" fill="#0D69E1" fill-rule="nonzero"/></g></svg>