<svg width="100" height="86" xmlns="http://www.w3.org/2000/svg"><g fill="none" fill-rule="evenodd"><path d="M90 43c0 22.091-17.909 40-40 40S10 65.091 10 43 27.909 3 50 3s40 17.909 40 40z" fill="#FFF" fill-rule="nonzero"/><path d="M50 5.667a37.171 37.171 0 0 1 23.517 8.341L39.05 48.475l-4.635-4.64-5.398 20.148 20.148-5.398-4.64-4.635 34.467-34.467A37.171 37.171 0 0 1 87.333 43c0 20.619-16.714 37.333-37.333 37.333S12.667 63.62 12.667 43 29.38 5.667 50 5.667z" fill="#0D69E1" fill-rule="nonzero"/><path d="M90.367 43c0 22.294-18.073 40.367-40.367 40.367C27.706 83.367 9.633 65.294 9.633 43 9.633 20.706 27.706 2.633 50 2.633c22.294 0 40.367 18.073 40.367 40.367z" stroke="#000"/></g></svg>