<svg width="95" height="136" xmlns="http://www.w3.org/2000/svg"><g fill="none" fill-rule="evenodd"><rect x=".5" y=".5" width="85" height="127" rx="6" transform="translate(5 4)" fill="#FFF" stroke="#000"/><g fill-rule="nonzero"><path d="M11.03 7A3.018 3.018 0 0 0 8 10.02v115.96a3.018 3.018 0 0 0 3.03 3.02h73.94a3.018 3.018 0 0 0 3.03-3.02V10.02A3.018 3.018 0 0 0 84.97 7H11.03zm7.508 19h58.924C80.53 26 83 28.435 83 31.46v58.08c0 3.025-2.47 5.46-5.538 5.46H18.538C15.47 95 13 92.565 13 89.54V31.46c0-3.025 2.47-5.46 5.538-5.46z" fill="#0D69E1"/><path d="M56.421 31.21a2.363 2.363 0 0 0-2.368 2.369V42a2.363 2.363 0 0 0 2.368 2.368h2.895V31.211H56.42zM24.46 76.675a2.363 2.363 0 0 1 1.416-3.036l7.913-2.88a2.363 2.363 0 0 1 3.036 1.416l.99 2.72-12.365 4.5-.99-2.72z" fill="#000"/><path d="M36.893 88.053c11.338 0 35.186-20.148 35.186-45 0-6.54-5.302-11.842-11.842-11.842v13.157h.723a2.368 2.368 0 0 1 1.94 3.727L42.543 76.99a2.368 2.368 0 0 1-4.166-.549l-.247-.68-12.365 4.5a11.842 11.842 0 0 0 11.128 7.793" fill="#000"/></g></g></svg>