<svg width="153" height="86" xmlns="http://www.w3.org/2000/svg"><g transform="translate(7 7)" fill="none" fill-rule="evenodd"><rect fill="#FFF" fill-rule="nonzero" x=".986" y=".986" width="138.028" height="69.028" rx="4"/><rect stroke="#000" x=".5" y=".5" width="139" height="70" rx="6"/><path d="M5.423 2.958a2.46 2.46 0 0 0-2.465 2.466v60.152a2.46 2.46 0 0 0 2.465 2.466H26.29V49.928c-4.667-1.466-8.05-5.825-8.05-10.977 0-5.151 3.383-9.51 8.05-10.976v-3.979h-5.75l9.2-16.107 9.204 16.107H33.19v3.979c4.667 1.466 8.054 5.825 8.054 10.976 0 5.152-3.387 9.511-8.054 10.977v18.114H66.55V49.928c-4.667-1.466-8.05-5.825-8.05-10.977 0-5.151 3.383-9.51 8.05-10.976v-3.979h-5.752L70 7.89l9.203 16.107H73.45v3.979C78.118 29.44 81.5 33.8 81.5 38.95c0 5.152-3.383 9.511-8.05 10.977v18.114h33.358V49.928c-4.667-1.466-8.054-5.825-8.054-10.977 0-5.151 3.387-9.51 8.054-10.976v-3.979h-5.753L110.26 7.89l9.2 16.107h-5.749v3.979c4.667 1.466 8.05 5.825 8.05 10.976 0 5.152-3.383 9.511-8.05 10.977v18.114h20.867a2.46 2.46 0 0 0 2.465-2.466V5.424a2.46 2.46 0 0 0-2.465-2.466H5.423z" fill="#0D69E1" fill-rule="nonzero"/><g fill="#000" fill-rule="nonzero"><path d="M108.17 35.845l.46-1.495h-5.291v4.486l1.035.576c.115-.08.288-.209.518-.389.23-.18.517-.28.862-.302.52.022.918.209 1.194.561.275.352.414.74.417 1.165-.03.575-.26 1.007-.69 1.294a2.444 2.444 0 0 1-1.38.432 6.794 6.794 0 0 1-1.167-.089 2.654 2.654 0 0 1-1.02-.372l.23 1.496c.027.02.262.096.705.23.444.134.937.211 1.481.23 1.105-.024 1.972-.35 2.603-.978.63-.628.951-1.414.963-2.358-.036-.925-.338-1.635-.906-2.128-.568-.494-1.186-.743-1.855-.748a2.67 2.67 0 0 0-.815.115c-.273.081-.5.235-.68.46v-2.186h3.336zM114.302 34.234c-.935.024-1.682.465-2.243 1.324-.56.858-.848 1.989-.863 3.393.015 1.405.302 2.536.863 3.394.56.858 1.308 1.3 2.243 1.323.935-.024 1.682-.465 2.243-1.323.56-.858.848-1.99.863-3.394-.015-1.34-.302-2.452-.863-3.338-.56-.886-1.308-1.345-2.243-1.379zm0 1.43c.45-.006.81.254 1.08.781s.408 1.363.415 2.506c-.006 1.144-.145 1.98-.415 2.507-.27.527-.63.787-1.08.78-.45.007-.81-.253-1.08-.78-.27-.528-.408-1.363-.415-2.507.007-1.143.145-1.979.415-2.506.27-.527.63-.787 1.08-.78z"/></g><g fill="#000" fill-rule="nonzero"><path d="M65.87 34.234c-.773 0-1.44.202-1.998.604-.558.403-.85 1.007-.877 1.812.02.533.16.95.418 1.253.258.303.516.516.775.64.258.123.398.183.417.178-.022-.001-.181.078-.477.239-.295.16-.59.41-.886.75-.295.34-.454.777-.477 1.312-.014.614.216 1.199.69 1.755.475.556 1.28.853 2.416.891 1.135-.038 1.94-.335 2.415-.891.475-.556.705-1.141.69-1.755-.022-.535-.181-.973-.477-1.312-.295-.34-.59-.59-.886-.75-.295-.16-.454-.24-.477-.239.02.005.159-.055.417-.179.259-.123.517-.336.776-.639.258-.302.397-.72.417-1.253-.026-.805-.318-1.409-.877-1.812-.558-.402-1.224-.603-1.998-.604zm0 1.315c.355-.004.652.079.892.249.24.17.364.454.374.852-.053.36-.264.676-.633.95-.369.273-.58.417-.632.431-.053-.014-.264-.158-.633-.431-.369-.274-.58-.59-.633-.95.01-.398.135-.682.374-.852.24-.17.537-.253.892-.249zm0 3.863c.02.004.148.085.388.242.24.158.48.367.72.627s.37.545.388.856c-.02.4-.182.693-.489.877a1.891 1.891 0 0 1-1.006.274c-.365.002-.7-.089-1.007-.274-.307-.184-.47-.476-.489-.877.019-.275.148-.543.388-.805.24-.262.48-.48.72-.652.24-.173.37-.262.388-.268zM74.15 34.234c-.934.024-1.681.465-2.242 1.324-.56.858-.848 1.989-.863 3.393.015 1.405.302 2.536.863 3.394.56.858 1.308 1.3 2.243 1.323.934-.024 1.682-.465 2.243-1.323.56-.858.848-1.99.862-3.394-.014-1.34-.301-2.452-.862-3.338-.56-.886-1.309-1.345-2.243-1.379zm0 1.43c.451-.006.812.254 1.081.781.27.527.408 1.363.415 2.506-.007 1.144-.145 1.98-.415 2.507-.27.527-.63.787-1.08.78-.45.007-.81-.253-1.08-.78-.27-.528-.409-1.363-.415-2.507.006-1.143.145-1.979.414-2.506.27-.527.63-.787 1.08-.78z"/></g><g fill="#000" fill-rule="nonzero"><path d="M21.862 36.794l.474.619 1.078-.676v6.241h1.409v-8.053h-1.207zM28.81 34.824c-.818.021-1.472.407-1.963 1.158-.49.75-.742 1.74-.755 2.97.013 1.228.265 2.218.755 2.969.49.75 1.145 1.137 1.963 1.158.818-.021 1.472-.407 1.962-1.158.491-.75.743-1.74.755-2.97-.012-1.172-.264-2.146-.755-2.92-.49-.776-1.144-1.178-1.962-1.207zm0 1.251c.394-.006.71.222.945.683.236.462.357 1.193.363 2.193-.006 1.001-.127 1.732-.363 2.193-.236.462-.551.69-.945.684-.394.006-.71-.222-.946-.684-.236-.46-.357-1.192-.363-2.193.006-1 .127-1.731.363-2.193.236-.461.552-.689.946-.683zM34.905 34.824c-.818.021-1.472.407-1.963 1.158-.49.75-.742 1.74-.755 2.97.013 1.228.265 2.218.755 2.969.49.75 1.145 1.137 1.963 1.158.817-.021 1.472-.407 1.962-1.158.491-.75.743-1.74.755-2.97-.012-1.172-.264-2.146-.755-2.92-.49-.776-1.145-1.178-1.962-1.207zm0 1.251c.394-.006.709.222.945.683.236.462.357 1.193.363 2.193-.006 1.001-.127 1.732-.363 2.193-.236.462-.551.69-.945.684-.394.006-.71-.222-.946-.684-.236-.46-.357-1.192-.363-2.193.006-1 .127-1.731.363-2.193.236-.461.552-.689.946-.683z"/></g><path d="M29.742 27.447c-6.353 0-11.503 5.15-11.503 11.504 0 6.354 5.15 11.505 11.503 11.505 6.352 0 11.502-5.15 11.502-11.505 0-6.353-5.15-11.504-11.502-11.504zm0 1.945c5.278 0 9.557 4.28 9.557 9.56 0 5.279-4.279 9.559-9.557 9.559-5.279 0-9.558-4.28-9.558-9.56s4.28-9.56 9.558-9.56zM70 27.447c-6.353 0-11.502 5.15-11.502 11.504 0 6.354 5.15 11.505 11.502 11.505 6.353 0 11.502-5.15 11.502-11.505 0-6.353-5.15-11.504-11.502-11.504zm0 1.945c5.278 0 9.558 4.28 9.558 9.56 0 5.279-4.28 9.559-9.558 9.559-5.279 0-9.558-4.28-9.558-9.56s4.28-9.56 9.558-9.56zM110.258 27.447c-6.352 0-11.502 5.15-11.502 11.504 0 6.354 5.15 11.505 11.502 11.505 6.353 0 11.503-5.15 11.503-11.505 0-6.353-5.15-11.504-11.503-11.504zm0 1.945c5.279 0 9.558 4.28 9.558 9.56 0 5.279-4.28 9.559-9.558 9.559s-9.557-4.28-9.557-9.56 4.279-9.56 9.557-9.56z" fill="red" fill-rule="nonzero"/></g></svg>