<svg width="100" height="86" xmlns="http://www.w3.org/2000/svg"><g transform="translate(21 1)" fill="none" fill-rule="evenodd"><rect fill="#FFF" fill-rule="nonzero" x="2" y="2" width="53.333" height="80" rx="4"/><path d="M4.512 3C3.674 3 3 3.664 3 4.489v19.928h52V4.489C55 3.664 54.326 3 53.488 3H32.401l4.252 18.905H30.7L29.85 3H28.15l-.85 18.905h-5.953L25.6 3H4.512zM3 27.766V79.51C3 80.336 3.674 81 4.512 81h.68l13.605-50.722h8.502L25.6 81H32.4l-1.7-50.722h8.502L52.808 81h.68c.838 0 1.512-.664 1.512-1.489V27.766h-7.294v5.86h-3.4l-1.701-5.86h-27.21l-1.7 5.86h-3.401v-5.86H3z" fill="#00A500" fill-rule="nonzero"/><rect stroke="#000" x=".5" y=".5" width="57" height="83" rx="4"/></g></svg>