<svg width="115" height="71" xmlns="http://www.w3.org/2000/svg"><g transform="translate(8 11)" fill-rule="nonzero" fill="none"><rect fill="#000" y=".166" width="100" height="49.669" rx="6.3"/><path d="M7.5 1.821c-3.232 0-5.833 2.585-5.833 5.795V37.37l19.583-9.267h57.5l19.583 9.267V7.616c0-3.21-2.601-5.795-5.833-5.795h-85zm18.281 29.853V48.18H74.22V31.674H25.78zm-4.531.383L1.667 41.323v1.061c0 3.21 2.601 5.795 5.833 5.795h13.75V32.057zm57.5 0V48.18H92.5c3.232 0 5.833-2.585 5.833-5.795v-1.06L78.75 32.056z" fill="#FFF"/><path d="M50.203 8.392c-.464 0-.907.19-1.224.528l-5.828 6.208c-.261.279-.61.46-.99.513l-8.927 1.246a1.665 1.665 0 0 0-1.437 1.677l.057 3.15c.026.741.629 1.33 1.37 1.351.419-2.01 2.217-3.518 4.375-3.518 2.468 0 4.474 1.978 4.474 4.418h15.896c0-2.44 2-4.418 4.468-4.418 2.262 0 4.13 1.663 4.428 3.818l.849-.228c.52-.138.918-.56 1.02-1.086l.875-4.47a1.655 1.655 0 0 0-.37-1.397l-6.197-7.207a1.677 1.677 0 0 0-1.271-.585H50.203zm.188 1.314H61.87c.65 0 1.2.47 1.302 1.107l.547 3.41a1.313 1.313 0 0 1-1.308 1.516H46.693c-.584 0-1.058-.47-1.058-1.05 0-.266.104-.52.287-.714l3.693-3.938c.2-.213.483-.33.776-.33z" fill="#000"/><path d="M37.601 20.29c-2.043 0-3.699 1.645-3.699 3.674 0 2.03 1.656 3.675 3.7 3.675 2.042 0 3.698-1.645 3.698-3.675 0-2.029-1.656-3.674-3.699-3.674zm0 1.487c1.216 0 2.202.98 2.202 2.187a2.194 2.194 0 0 1-2.202 2.187 2.194 2.194 0 0 1-2.201-2.187c0-1.208.985-2.187 2.201-2.187zM62.437 20.29c-2.043 0-3.7 1.645-3.7 3.674 0 2.03 1.657 3.675 3.7 3.675 2.042 0 3.698-1.645 3.698-3.675 0-2.029-1.656-3.674-3.698-3.674zm0 1.487c1.215 0 2.201.98 2.201 2.187a2.194 2.194 0 0 1-2.201 2.187 2.194 2.194 0 0 1-2.202-2.187c0-1.208.986-2.187 2.202-2.187z" fill="#000"/></g></svg>