<svg width="100" height="86" xmlns="http://www.w3.org/2000/svg"><g transform="translate(10 3)" fill="none" fill-rule="evenodd"><rect fill="#FFF" fill-rule="nonzero" width="80" height="80" rx="4"/><rect stroke="#000" x=".5" y=".5" width="79" height="79" rx="6"/><path d="M5.936 2.93a2.794 2.794 0 0 0-2.8 2.8v68.306c0 1.551 1.249 2.8 2.8 2.8h68.327c1.552 0 2.8-1.249 2.8-2.8V5.73c0-1.551-1.248-2.8-2.8-2.8H5.936zM40.1 8.53l10.455 18.29H44.02v26.126h6.535L40.1 71.236l-10.456-18.29h6.535V26.82h-6.535L40.1 8.53z" fill="#0D69E1" fill-rule="nonzero"/><path d="M70.963 2.93L3.136 70.737v3.3c0 1.55 1.249 2.799 2.8 2.799h3.3L77.065 9.03v-3.3c0-1.551-1.25-2.8-2.8-2.8h-3.301z" fill="red" fill-rule="nonzero"/></g></svg>