<svg width="100" height="86" xmlns="http://www.w3.org/2000/svg"><g transform="translate(10 3)" fill="none" fill-rule="evenodd"><circle fill="#FFF" fill-rule="nonzero" cx="40" cy="40" r="40"/><circle stroke="#000" cx="40" cy="40" r="40.5"/><g fill-rule="nonzero"><path d="M40 77.86c20.91 0 37.86-16.95 37.86-37.86S60.91 2.14 40 2.14 2.14 19.09 2.14 40 19.09 77.86 40 77.86zm20.204-14.112a31.18 31.18 0 0 1-40.408 0L40 43.543l20.204 20.205zm-43.952-3.544a31.18 31.18 0 0 1 0-40.408L36.457 40 16.252 60.204zm3.544-43.952a31.18 31.18 0 0 1 40.408 0L40 36.457 19.796 16.252zm43.952 3.544a31.18 31.18 0 0 1 0 40.408L43.543 40l20.205-20.204z" fill="red"/><path d="M16.336 21.454a30.066 30.066 0 0 0 0 37.092L34.882 40 16.336 21.454zM21.454 63.664a30.066 30.066 0 0 0 37.092 0L40 45.118 21.454 63.664zM63.664 58.546a30.066 30.066 0 0 0 0-37.092L45.118 40l18.546 18.546zM58.546 16.336a30.066 30.066 0 0 0-37.092 0L40 34.882l18.546-18.546z" fill="#0D69E1"/></g></g></svg>