<svg width="156" height="65" xmlns="http://www.w3.org/2000/svg"><g transform="translate(7 8)" fill="none" fill-rule="evenodd"><rect fill="#FFF" fill-rule="nonzero" x="1" y="1.133" width="140" height="46.402" rx="6.3"/><rect stroke="#000" x=".5" y=".5" width="141" height="47" rx="6.16"/><path d="M6.69 2A4.668 4.668 0 0 0 2 6.667v34.666A4.668 4.668 0 0 0 6.69 46h128.62a4.668 4.668 0 0 0 4.69-4.667V6.667A4.668 4.668 0 0 0 135.31 2H6.69zm0 1.333h128.62a3.334 3.334 0 0 1 3.35 3.334v34.666a3.334 3.334 0 0 1-3.35 3.334H6.69a3.334 3.334 0 0 1-3.35-3.334V6.667a3.334 3.334 0 0 1 3.35-3.334z" fill="#000" fill-rule="nonzero"/><g fill="#000" fill-rule="nonzero"><path d="M32.136 9.48c-3.537.104-6.172 1.543-7.903 4.316-1.73 2.772-2.594 6.246-2.588 10.421-.006 4.176.857 7.65 2.588 10.422 1.731 2.772 4.366 4.211 7.903 4.317 2.43-.037 4.397-.753 5.902-2.15 1.504-1.396 2.65-3.253 3.438-5.57l-4.325-1.755c-.482 1.74-1.14 2.997-1.974 3.772-.834.775-1.848 1.155-3.041 1.14-1.805-.028-3.268-.935-4.389-2.719-1.12-1.784-1.697-4.27-1.73-7.457.033-3.187.61-5.673 1.73-7.457 1.12-1.783 2.584-2.69 4.389-2.72 1.193-.014 2.207.366 3.04 1.141.834.775 1.493 2.033 1.975 3.773l4.325-1.755c-.788-2.317-1.934-4.174-3.438-5.57-1.505-1.397-3.472-2.113-5.902-2.15zM47.299 10.18v4.212h7.086v23.862h4.509V14.392h7.086V10.18zM82.371 9.48c-3.537.106-6.171 1.547-7.902 4.323-1.731 2.776-2.594 6.247-2.588 10.414-.006 4.167.857 7.639 2.588 10.415 1.731 2.776 4.365 4.217 7.902 4.324 3.537-.107 6.172-1.548 7.903-4.324 1.73-2.776 2.594-6.248 2.588-10.415.006-4.167-.857-7.638-2.588-10.414s-4.366-4.217-7.903-4.324zm0 4.56c1.805.03 3.268.937 4.389 2.72 1.12 1.784 1.697 4.27 1.73 7.457-.033 3.188-.61 5.673-1.73 7.457-1.121 1.784-2.584 2.69-4.389 2.72-1.805-.03-3.267-.936-4.388-2.72-1.12-1.784-1.698-4.27-1.731-7.457.033-3.187.61-5.673 1.731-7.457 1.12-1.783 2.583-2.69 4.388-2.72zM100.08 10.18v28.074h4.51V14.392h9.663v23.862h4.509V10.18z"/></g></g></svg>