<svg width="100" height="86" xmlns="http://www.w3.org/2000/svg"><g transform="translate(10 3)" fill="none" fill-rule="evenodd"><rect stroke="#000" fill="#FFF" x=".5" y=".5" width="79" height="79" rx="6"/><path d="M5.803 3A2.797 2.797 0 0 0 3 5.803v68.394A2.797 2.797 0 0 0 5.803 77h32.89V3H5.803zm35.504 0v74h14.39V26.92h-6.542L59.621 8.795 70.087 26.92h-6.542V77h10.652A2.797 2.797 0 0 0 77 74.197V5.803A2.797 2.797 0 0 0 74.197 3h-32.89zm-25.01 11.58h2.435c.28 0 .508.224.508.501a.508.508 0 0 1-.508.505h-2.435a.817.817 0 0 0-.824.812.69.69 0 0 0 .47.652 1.7 1.7 0 0 1 1.093 2.046h8.693l.298-.69h-2.232a.754.754 0 1 1 0-1.506h3.483c.42 0 .76.337.76.753s-.34.753-.76.753h-.284l-.46 1.062 1.907 2.694a5.09 5.09 0 0 1 2.193-.494c2.797 0 5.063 2.249 5.063 5.021s-2.266 5.021-5.063 5.021c-2.56 0-4.678-1.885-5.017-4.33h-2.968l-6.99-5.298-.403.855a4.987 4.987 0 0 1 1.703 3.752c0 2.772-2.266 5.021-5.063 5.021-2.797 0-5.063-2.249-5.063-5.02 0-2.773 2.266-5.022 5.063-5.022.92 0 1.783.245 2.526.67l1.524-3.242.07-.15a.683.683 0 0 0 .067-.291.694.694 0 0 0-.47-.655 1.695 1.695 0 0 1-1.152-1.602c0-1.004.822-1.818 1.836-1.818zm.375 5.645l-.519.805 6.594 4.997 2.499-5.802h-8.574zm9.51.707l-2.289 5.32h1.692a4.998 4.998 0 0 1 1.889-3.484l-1.293-1.836zm-14.398 1.49c-2.326.058-4.19 1.948-4.19 4.267 0 2.356 1.925 4.264 4.302 4.264s4.306-1.908 4.306-4.264a4.24 4.24 0 0 0-1.282-3.038l-.967 2.06c-.16.339-.42.62-.746.806l-1.059.607a.507.507 0 0 1-.69-.183.5.5 0 0 1 .186-.686l1.054-.607a.821.821 0 0 0 .337-.36l1.065-2.264a4.318 4.318 0 0 0-2.204-.603h-.112zm18.85 0c-.623 0-1.213.131-1.748.367l2.474 3.504a.685.685 0 0 1-.172.96.702.702 0 0 1-.4.126h-4.404c.333 2.028 2.11 3.574 4.25 3.574 2.378 0 4.303-1.908 4.303-4.264 0-2.356-1.925-4.268-4.303-4.268zm-2.722.96a4.262 4.262 0 0 0-1.563 2.87h3.588l-2.025-2.87zM24.303 40v13.08h6.542L20.379 71.205 9.913 53.08h6.542V40.014L24.303 40z" fill="#0D69E1" fill-rule="nonzero"/></g></svg>