<?xml version="1.0" encoding="UTF-8"?>
<svg id="_Слой_1" data-name=" Слой 1" xmlns="http://www.w3.org/2000/svg" width="116" height="159" viewBox="0 0 116 159">
  <defs>
    <style>
      .cls-1, .cls-2 {
        fill: none;
      }

      .cls-3, .cls-4 {
        fill: #fff;
      }

      .cls-5 {
        fill: #8b8b8b;
      }

      .cls-6 {
        fill: #aaa;
      }

      .cls-4 {
        stroke-miterlimit: 4;
      }

      .cls-4, .cls-2 {
        stroke: #000;
        stroke-width: 1px;
      }

      .cls-2 {
        stroke-miterlimit: 10;
      }
    </style>
  </defs>
  <path class="cls-4" d="m10.73,3.38h95.18c2.2,0,3.96,1.8,3.96,4v129.22c0,2.22-1.78,4-3.96,4H10.73c-2.2,0-3.96-1.8-3.96-4V7.38c0-2.22,1.78-4,3.96-4Z"/>
  <path class="cls-1" d="m0,0h116v159H0V0Z"/>
  <path class="cls-2" d="m10.96,5.44h94.81c1.11,0,2.02.91,2.02,2.01v129.05c0,1.11-.91,2.01-2.02,2.01H10.96c-1.11,0-2.02-.91-2.02-2.01V7.47c0-1.11.91-2.01,2.02-2.01h0Z"/>
  <g>
    <path d="m42.19,16.8c0-.57-.22-1.03-.65-1.38s-1.02-.51-1.75-.51c-.63,0-1.16.17-1.59.51s-.64.78-.64,1.31h-2.2c0-.7.19-1.33.58-1.86s.92-.97,1.6-1.27,1.43-.45,2.25-.45c1.46,0,2.58.32,3.39.96s1.2,1.53,1.2,2.69c0,.59-.17,1.11-.52,1.61s-.84.87-1.47,1.15c.7.25,1.25.62,1.62,1.12.37.5.56,1.12.56,1.87,0,1.15-.43,2.07-1.3,2.74s-2.03,1.02-3.48,1.02c-.9,0-1.7-.17-2.43-.48s-1.27-.76-1.62-1.33-.55-1.2-.55-1.93h2.2c0,.55.23,1.02.68,1.39.45.38,1.02.57,1.73.57.78,0,1.41-.18,1.88-.55s.7-.85.7-1.44c0-.73-.2-1.24-.61-1.57s-1.02-.5-1.83-.5h-1.48v-1.76h1.41c1.56,0,2.34-.64,2.34-1.91v-.03h0Z"/>
    <path d="m56.75,20.07c0,1.25-.22,2.36-.65,3.3-.43.96-1.05,1.67-1.84,2.18s-1.71.76-2.75.76-1.94-.25-2.75-.76-1.43-1.24-1.87-2.18-.66-2.03-.66-3.25v-.73c0-1.25.22-2.36.66-3.3s1.06-1.7,1.85-2.19,1.71-.76,2.75-.76,1.94.25,2.75.75,1.42,1.22,1.85,2.17.66,2.04.66,3.29v.71h-.01Zm-2.2-.68c0-1.43-.27-2.5-.79-3.26s-1.29-1.13-2.26-1.13-1.7.38-2.24,1.13-.81,1.82-.83,3.2v.74c0,1.42.27,2.5.82,3.26.54.78,1.29,1.15,2.26,1.15s1.73-.38,2.25-1.12.79-1.85.79-3.3v-.68h0Z"/>
    <path d="m69.03,26.13h-2.2v-5.69h-5.67v5.69h-2.2v-12.83h2.2v5.34h5.67v-5.34h2.2v12.83Z"/>
    <path d="m78.9,23.15h-4.91l-1.02,2.98h-2.3l4.8-12.83h1.98l4.8,12.83h-2.3l-1.04-2.98h0Zm-4.3-1.8h3.67l-1.84-5.32-1.84,5.32h.01Z"/>
  </g>
  <ellipse class="cls-6" cx="58.53" cy="69.56" rx="36.89" ry="37.26"/>
  <ellipse class="cls-3" cx="58.21" cy="69.56" rx="29.25" ry="29.55"/>
  <path class="cls-6" d="m73.86,64.7l-3.12-8.04c-.59-1.53-1.85-2.84-4.25-2.84h-16.37c-2.39,0-3.67,1.31-4.25,2.84l-3.12,8.04c-1.24.17-3.43,1.62-3.43,4.37v10.24h3.03v3.26c0,4.03,5.7,3.98,5.7,0v-3.26h20.51v3.26c0,3.98,5.69,4.03,5.69,0v-3.26h3.03v-10.24c0-2.75-2.2-4.21-3.43-4.37h-.01Zm-28.58,8.35c-1.45,0-2.63-1.22-2.63-2.72s1.16-2.72,2.63-2.72,2.63,1.21,2.63,2.72-1.16,2.72-2.63,2.72Zm13.02-8.53h-12.34l2.35-6.23c.29-.89.73-1.53,1.76-1.54h16.45c1.04,0,1.47.66,1.76,1.54l2.35,6.23h-12.35.01Zm13.01,8.53c-1.45,0-2.63-1.22-2.63-2.72s1.16-2.72,2.63-2.72,2.63,1.21,2.63,2.72-1.19,2.72-2.63,2.72Z"/>
  <ellipse class="cls-6" cx="58.52" cy="123.55" rx="25.27" ry="12.43"/>
  <ellipse class="cls-3" cx="58.52" cy="123.58" rx="20.97" ry="9.75"/>
  <path class="cls-6" d="m54.14,123.64l.69-6.46h6.82v1.85h-5.05l-.35,3.06c.59-.34,1.25-.51,1.98-.51,1.2,0,2.15.4,2.81,1.17s1.01,1.84,1.01,3.16-.37,2.35-1.11,3.11-1.76,1.16-3.06,1.16c-1.16,0-2.12-.33-2.89-1.01-.77-.66-1.18-1.54-1.24-2.64h2.05c.08.62.29,1.1.66,1.43s.83.5,1.41.5c.65,0,1.16-.23,1.52-.7s.55-1.11.55-1.93-.2-1.4-.6-1.85-.95-.68-1.66-.68c-.38,0-.7.05-.97.15s-.56.31-.87.6l-1.69-.42v-.03h0v.03Z"/>
  <g>
    <path class="cls-5" d="m52.85,153.3c0,.42-.06.82-.2,1.17s-.32.68-.56.93c-.24.27-.55.47-.91.64s-.77.23-1.21.23c-.42,0-.82-.05-1.23-.14-.4-.09-.75-.22-1.04-.36v-1.24h.08c.09.08.22.14.38.23.17.08.35.17.55.24.23.08.43.15.63.19s.4.08.64.08.46-.04.68-.13.41-.22.56-.41c.14-.17.26-.37.33-.6s.12-.5.12-.82-.04-.56-.12-.76-.2-.36-.36-.5c-.17-.15-.37-.25-.61-.31s-.51-.09-.81-.09-.63.03-.95.08-.56.09-.75.14v-4.5h4.76v1.03h-3.62v2.32c.14-.03.28-.03.41-.04s.26,0,.37,0c.43,0,.82.04,1.11.11.31.08.6.22.88.43.29.22.51.5.66.82s.23.76.23,1.29h0v-.03l-.03-.03Z"/>
    <path class="cls-5" d="m55.97,156.08h-1.38v-1.67h1.38v1.67Z"/>
    <path class="cls-5" d="m60.05,148.18c-.2,0-.42.03-.63.08s-.42.11-.61.2c-.19.08-.35.17-.49.25s-.26.17-.37.24h-.06v-1.24c.26-.14.59-.25,1.02-.37s.84-.17,1.24-.17.73.04,1.02.11.56.2.79.37c.26.19.45.41.58.68s.19.59.19.93c0,.48-.15.91-.47,1.27-.31.36-.69.59-1.13.69v.08c.18.04.38.1.58.18s.4.22.58.38.32.38.43.65c.12.25.17.59.17.96s-.06.76-.2,1.1-.32.62-.56.88c-.26.27-.56.47-.91.6s-.75.22-1.21.22-.87-.05-1.29-.17c-.43-.11-.79-.23-1.07-.38v-1.24h.08c.24.18.56.36.97.52.41.17.82.25,1.23.25.24,0,.47-.04.7-.11s.43-.2.6-.37c.15-.17.27-.36.35-.57s.12-.47.12-.79-.05-.59-.14-.78-.22-.36-.38-.48-.36-.2-.58-.24-.46-.08-.72-.08h-.49v-.97h.38c.52,0,.95-.11,1.28-.38s.49-.61.49-1.1c0-.22-.04-.41-.13-.57s-.19-.28-.33-.38c-.15-.1-.31-.17-.49-.22-.18-.04-.37-.06-.56-.06h.03v.03Z"/>
    <path class="cls-5" d="m69.68,153.25c0,.45-.06.87-.22,1.24s-.35.7-.59.96c-.26.27-.55.47-.87.61s-.68.22-1.06.22-.75-.08-1.07-.2c-.32-.13-.6-.33-.84-.59-.29-.32-.52-.74-.7-1.27s-.26-1.19-.26-1.95.08-1.44.23-2.05.38-1.15.72-1.61c.31-.45.72-.79,1.21-1.03.5-.25,1.07-.37,1.71-.37.19,0,.37,0,.54.03.17.03.31.05.43.09v1.12h-.05c-.1-.06-.26-.11-.45-.17-.2-.05-.41-.08-.63-.08-.72,0-1.29.25-1.75.74s-.7,1.22-.79,2.18c.28-.2.56-.36.84-.45s.61-.17.95-.17.63.03.88.1c.26.08.52.22.79.41.32.24.55.55.7.92s.23.82.23,1.31h.04Zm-1.18.03c0-.36-.05-.66-.14-.91s-.24-.45-.45-.62c-.15-.11-.32-.22-.52-.25-.19-.04-.38-.06-.59-.06-.27,0-.54.04-.79.11s-.51.2-.75.36c0,.09,0,.17-.03.25s0,.18,0,.31c0,.61.06,1.1.18,1.47s.26.65.43.84c.17.18.35.31.52.4.18.08.37.11.56.11.47,0,.84-.17,1.13-.5s.43-.84.43-1.52h.01Z"/>
  </g>
  <g>
    <polygon points="9.4 110.87 93.93 5.79 95.57 5.86 9.45 113.3 9.4 110.87"/>
    <polygon points="9.18 118.88 100.35 5.11 101.66 5.59 9.23 121.42 9.18 118.88"/>
    <polygon points="9.29 126.23 106.42 5.42 107.45 6.2 9.29 128.78 9.29 126.23"/>
    <polygon points="9.34 133.75 107.37 11.6 107.77 13.29 9.15 136.32 9.34 133.75"/>
    <polygon points="11.87 138.43 107.64 18.28 107.73 20.21 13.87 138.36 11.87 138.43"/>
  </g>
</svg>