<svg width="95" height="136" xmlns="http://www.w3.org/2000/svg"><g fill="none" fill-rule="evenodd"><rect x=".5" y=".5" width="85" height="127" rx="6" transform="translate(5 4)" fill="#FFF" stroke="#000"/><g fill-rule="nonzero"><path d="M11.03 7A3.018 3.018 0 0 0 8 10.02v115.96a3.018 3.018 0 0 0 3.03 3.02h73.94a3.018 3.018 0 0 0 3.03-3.02V10.02A3.018 3.018 0 0 0 84.97 7H11.03zm7.508 19h58.924C80.53 26 83 28.435 83 31.46v58.08c0 3.025-2.47 5.46-5.538 5.46H18.538C15.47 95 13 92.565 13 89.54V31.46c0-3.025 2.47-5.46 5.538-5.46zm-6.303 76.728h5.492v1.132h-2.083v6.417h-1.326v-6.417h-2.083v-1.132zm67.363 0h.947a.923.923 0 0 0 .334.555c.17.131.373.198.613.2a.864.864 0 0 0 .58-.2c.152-.132.275-.317.367-.555h.947c.009.018-.03.15-.113.392-.083.243-.258.483-.53.725-.273.242-.69.374-1.25.393-.56-.019-.978-.15-1.25-.393-.273-.242-.448-.482-.53-.725-.084-.242-.123-.374-.115-.392zm-58.185 2.076c.513-.024 1.025.165 1.538.566.513.401.79 1.156.83 2.265-.02.778-.183 1.37-.49 1.782-.306.41-.641.689-1.01.838-.37.148-.66.22-.868.211-.387-.022-.702-.12-.947-.294-.245-.175-.371-.298-.379-.367v2.737h-1.136v-7.55h.947c.043.23.106.418.19.567-.005-.032.097-.157.306-.378.21-.22.55-.346 1.019-.377zm5.386 0c.51.012 1.007.176 1.493.494.485.319.744.72.78 1.204v2.548c.008.227.064.363.167.412.102.049.204.07.306.06l-.473.944c-.331.012-.59-.037-.78-.143-.19-.107-.309-.34-.356-.706-.099.2-.281.389-.546.566-.264.177-.587.271-.97.283-.402 0-.78-.143-1.136-.427-.355-.283-.544-.705-.568-1.272.04-.587.316-1.017.833-1.287a4.736 4.736 0 0 1 1.553-.51c.517-.07.794-.1.834-.09v-.378c-.012-.155-.132-.316-.356-.483a1.385 1.385 0 0 0-.78-.271c-.29.01-.564.083-.819.222-.254.14-.454.287-.602.438l-.568-.944c.23-.151.504-.298.818-.437.313-.14.703-.213 1.17-.223zm12.027 0c.533.003.997.144 1.394.423.396.278.69.672.878 1.181l-1.068.404c-.103-.345-.259-.607-.466-.789a1.09 1.09 0 0 0-.738-.275c-.387.007-.703.179-.947.517-.245.338-.371.796-.379 1.37.008.574.134 1.028.379 1.366.244.339.56.513.947.521a1.09 1.09 0 0 0 .738-.275c.207-.182.363-.444.466-.79l1.068.405c-.188.509-.482.903-.878 1.181-.397.279-.86.42-1.394.423-.728-.012-1.331-.27-1.81-.778-.48-.507-.73-1.192-.747-2.053.018-.861.267-1.546.746-2.054.48-.507 1.083-.765 1.81-.777zm11.647 0c.725.012 1.31.27 1.762.777.452.508.687 1.193.7 2.054-.013.861-.248 1.546-.7 2.053-.452.508-1.037.766-1.762.778-.724-.012-1.313-.27-1.765-.778-.451-.507-.683-1.192-.697-2.053.014-.861.246-1.546.697-2.054.452-.507 1.041-.765 1.765-.777zm6.25 0c.513-.024 1.025.165 1.538.566.513.401.79 1.156.83 2.265-.019.778-.182 1.37-.489 1.782-.306.41-.642.689-1.011.838-.37.148-.66.22-.868.211-.386-.022-.702-.12-.946-.294-.245-.175-.371-.298-.38-.367v2.737h-1.136v-7.55h.947c.043.23.106.418.19.567-.004-.032.097-.157.307-.378.209-.22.549-.346 1.018-.377zm-26.03.189h1.137v1.981h1.988v-1.981h1.137v5.284h-1.137v-2.265H31.83v2.265h-1.137v-5.284zm11.644 0h4.261v5.284h-1.136v-4.246h-1.989v4.246h-1.136v-5.284zm17.42 0h4.315v1.038h-1.583v4.246h-1.137v-4.246h-1.594v-1.038zm5.478 0h1.136v1.981h1.989v-1.981h1.136v5.284H68.36v-2.265H66.37v2.265h-1.136v-5.284zm6.053 0h1.136v1.887h1.326c.657.018 1.132.196 1.424.532.292.336.434.724.428 1.167.006.442-.136.83-.428 1.166-.292.336-.767.515-1.424.532h-2.462v-5.284zm5.087 0h1.136v5.284h-1.136v-5.284zm2.845 0h1.136v3.586l2.178-3.586h1.231v5.284H82.63v-3.586l-2.178 3.586H79.22v-5.284zm-28.747.755c-.386.007-.702.179-.946.517-.245.338-.371.796-.38 1.37.009.574.135 1.028.38 1.366.244.339.56.513.946.521.387-.008.703-.182.947-.52.245-.339.371-.793.38-1.367-.009-.574-.135-1.032-.38-1.37-.244-.338-.56-.51-.947-.517zm-29.06.094c-.274.004-.53.091-.761.26-.232.17-.42.397-.565.684v1.981c.15.238.345.423.587.555.242.132.488.198.739.2.341-.008.629-.182.864-.52.234-.339.357-.793.367-1.367-.01-.57-.133-1.01-.367-1.321-.235-.31-.523-.468-.864-.472zm35.31 0c-.274.004-.529.091-.76.26-.233.17-.42.397-.565.684v1.981c.149.238.345.423.587.555.242.132.488.198.738.2.342-.008.63-.182.864-.52.235-.339.358-.793.368-1.367-.01-.57-.133-1.01-.368-1.321-.235-.31-.522-.468-.864-.472zm-28.787 1.887a4.189 4.189 0 0 1-.728.14c-.31.038-.594.111-.852.223a.63.63 0 0 0-.409.581c.02.324.121.548.307.672.185.124.336.183.45.177.3-.03.578-.158.83-.389.253-.23.386-.383.402-.46v-.944zm44.488.189v1.321h1.42a.651.651 0 0 0 .474-.215.672.672 0 0 0 .19-.445.672.672 0 0 0-.19-.446.651.651 0 0 0-.473-.215h-1.42zm-38.935 7.455c.724.012 1.313.27 1.765.778.452.507.683 1.192.697 2.053-.014.861-.245 1.546-.697 2.054-.452.507-1.041.765-1.765.777-.724-.012-1.31-.27-1.762-.777-.452-.508-.687-1.193-.7-2.054.013-.86.248-1.546.7-2.053.452-.507 1.038-.766 1.762-.778zm17.132 0c.513-.023 1.025.165 1.538.566.513.401.79 1.156.83 2.265-.02.778-.183 1.371-.489 1.782-.306.41-.642.69-1.011.838-.37.148-.66.22-.868.211-.386-.021-.702-.12-.947-.294-.244-.175-.37-.297-.379-.366v2.736H48.16v-7.55h.947c.043.23.106.419.19.567-.004-.031.097-.157.306-.377.21-.22.55-.346 1.02-.378zm5.765 0c.724.012 1.314.27 1.766.778.451.507.683 1.192.696 2.053-.013.861-.245 1.546-.696 2.054-.452.507-1.042.765-1.766.777-.724-.012-1.31-.27-1.761-.777-.452-.508-.687-1.193-.7-2.054.013-.86.248-1.546.7-2.053.452-.507 1.037-.766 1.761-.778zm-27.064.095l.284.943a1.18 1.18 0 0 0-.731.363c-.196.205-.382.415-.557.63a1.224 1.224 0 0 1-.606.423c.417.105.747.335.989.694.241.36.464.757.674 1.19.21.432.477.81.8 1.136h-1.421a50.128 50.128 0 0 1-.894-1.646c-.27-.522-.667-.799-1.19-.834-.041 0-.086.002-.136.007-.05.005-.1.012-.148.019v2.454H25.25v-5.285h1.136v1.887c.021.007.044.01.069.012.024.001.047.004.068.003.28-.023.558-.19.837-.498.28-.308.58-.621.898-.94.316-.318.67-.504 1.064-.558zm8.05.094h1.136v1.982h1.988v-1.982h1.137v5.285h-1.137v-2.265h-1.988v2.265H37.37v-5.285zm5.4 0h4.315v1.038h-1.58v4.247h-1.136V116.6h-1.598v-1.038zm18.16 0h3.693v5.285h-1.136V116.6h-1.516c-.011.579-.027 1.17-.053 1.778a3.516 3.516 0 0 1-.458 1.634c-.278.481-.803.822-1.572 1.023l-.216-1.08a1.41 1.41 0 0 0 .962-.713c.076-.158.135-.461.178-.91.044-.448.073-.932.091-1.449.018-.517.027-.957.027-1.321zm5.496 0h1.136v1.887h1.326c.657.018 1.129.196 1.42.532.293.337.438.725.432 1.167.006.442-.14.83-.431 1.166-.292.336-.764.515-1.42.533h-2.463v-5.285zm-32.94.755c-.386.008-.702.179-.946.517-.245.338-.371.796-.38 1.37.009.574.135 1.029.38 1.367.244.338.56.513.947.52.386-.007.702-.182.947-.52.244-.338.37-.793.378-1.367-.008-.574-.134-1.032-.378-1.37-.245-.338-.56-.51-.947-.517zm22.898 0c-.386.008-.702.179-.947.517-.244.338-.37.796-.378 1.37.007.574.134 1.029.378 1.367.245.338.56.513.947.52.387-.007.703-.182.947-.52.245-.338.371-.793.38-1.367-.009-.574-.135-1.032-.38-1.37-.244-.338-.56-.51-.947-.517zm-5.765.094c-.274.004-.53.092-.761.26-.232.17-.419.397-.565.684v1.982c.15.238.345.423.588.555.242.131.488.198.738.2.342-.008.63-.183.864-.521.235-.338.357-.793.367-1.367-.01-.57-.132-1.01-.367-1.321-.235-.31-.522-.468-.864-.472zm16.943 2.076v1.321h1.42a.651.651 0 0 0 .474-.215.672.672 0 0 0 .19-.445.672.672 0 0 0-.19-.446.651.651 0 0 0-.473-.215h-1.42z" fill="#0D69E1"/><path d="M32.355 40.734c-.7 0-1.354.348-1.746.928l-3.301 4.894c-.235.348-.36.758-.36 1.178v5.083c0 1.162.943 2.105 2.105 2.105h1.902a4.42 4.42 0 0 1 8.829 0h16.432a4.42 4.42 0 0 1 2.533-3.79H40.42v-8.295a2.104 2.104 0 0 0-2.106-2.103h-5.96zm.11 1.262h4.798c.582 0 1.052.473 1.052 1.054v2.947a1.05 1.05 0 0 1-1.052 1.052h-6.786a1.05 1.05 0 0 1-.871-1.64l1.989-2.948c.195-.29.52-.465.87-.465z" fill="#000"/><path d="M43.79 36.889a2.1 2.1 0 0 0-2.106 2.105v11.353h27.369V38.994a2.1 2.1 0 0 0-2.106-2.105H43.79zM60.632 51.553a3.579 3.579 0 1 0 0 7.158 3.579 3.579 0 0 0 0-7.158zm0 1.684a1.895 1.895 0 1 1 0 3.79 1.895 1.895 0 0 1 0-3.79zM65.046 54.921a4.418 4.418 0 0 0-2.533-3.79h6.54v3.79h-4.007zM35.368 51.553a3.579 3.579 0 1 0 0 7.158 3.579 3.579 0 0 0 0-7.158zm0 1.684a1.895 1.895 0 1 1 0 3.79 1.895 1.895 0 0 1 0-3.79zM32.44 64.677c-.68 0-1.307.362-1.647.95l-3.327 5.764c-.167.29-.255.617-.255.951v6.978c0 1.053.848 1.902 1.902 1.902h.95a4.753 4.753 0 1 1 9.508 0H54.79a4.753 4.753 0 1 1 9.508 0h2.853a1.898 1.898 0 0 0 1.903-1.902v-6.978c0-.204-.033-.407-.098-.601l-1.921-5.764a1.902 1.902 0 0 0-1.805-1.3H32.44zm.222 1.33h2.158a.95.95 0 0 1 .95.952v3.804a.95.95 0 0 1-.95.951H30.462a.948.948 0 0 1-.947-.95c0-.168.04-.334.124-.478l2.2-3.805a.949.949 0 0 1 .823-.473zm5.958 0h5.707a.95.95 0 0 1 .951.952v3.804a.95.95 0 0 1-.95.951H38.62a.946.946 0 0 1-.947-.95v-3.805c0-.527.42-.951.947-.951zm9.512 0h5.706a.95.95 0 0 1 .951.952v3.804a.95.95 0 0 1-.95.951h-5.707a.95.95 0 0 1-.952-.95v-3.805a.95.95 0 0 1 .952-.951zm9.51 0h5.418a.95.95 0 0 1 .914.681l1.12 3.804a.952.952 0 0 1-.647 1.18.944.944 0 0 1-.267.042h-6.538a.95.95 0 0 1-.95-.95v-3.805a.95.95 0 0 1 .95-.951z" fill="#000"/><path d="M34.818 77.419a3.804 3.804 0 1 0 0 7.607 3.804 3.804 0 0 0 0-7.607zm0 1.902a1.902 1.902 0 1 1 0 3.803 1.902 1.902 0 0 1 0-3.803zM59.543 77.419a3.804 3.804 0 1 0 0 7.607 3.804 3.804 0 0 0 0-7.607zm0 1.902a1.902 1.902 0 1 1 0 3.803 1.902 1.902 0 0 1 0-3.803z" fill="#000"/></g></g></svg>