<svg width="100" height="86" xmlns="http://www.w3.org/2000/svg"><g fill="none" fill-rule="evenodd"><path d="M50 83c-22.091 0-40-17.909-40-40S27.909 3 50 3s40 17.909 40 40-17.909 40-40 40z" fill="#FFF" fill-rule="nonzero"/><path d="M90.233 42.867c0 22.294-18.072 40.366-40.366 40.366S9.5 65.161 9.5 42.867 27.573 2.5 49.867 2.5c22.294 0 40.366 18.073 40.366 40.367z" stroke="#000"/><path d="M50 5C29.013 5 12 22.013 12 43s17.013 38 38 38 38-17.013 38-38S70.987 5 50 5zm0 7c17.12 0 31 13.88 31 31 0 17.12-13.88 31-31 31-17.12 0-31-13.88-31-31 0-17.12 13.88-31 31-31z" fill="red" fill-rule="nonzero"/></g></svg>