<svg width="100" height="86" xmlns="http://www.w3.org/2000/svg"><g fill="none" fill-rule="evenodd"><path d="M90 43c0 22.091-17.909 40-40 40S10 65.091 10 43 27.909 3 50 3s40 17.909 40 40z" fill="#FFF" fill-rule="nonzero"/><path d="M90.367 43c0 22.294-18.073 40.367-40.367 40.367C27.706 83.367 9.633 65.294 9.633 43 9.633 20.706 27.706 2.633 50 2.633c22.294 0 40.367 18.073 40.367 40.367z" stroke="#000"/><path d="M50 5.667C70.619 5.667 87.333 22.38 87.333 43S70.62 80.333 50 80.333c-.433 0-.862-.01-1.292-.025V52.033a5.163 5.163 0 0 1 5.163-5.162h7.741l.003 6.559L79.679 43 61.615 32.57l-.003 6.56h-7.741c-1.835 0-3.582.38-5.163 1.07V28.808l6.56-.002-10.43-18.064-10.43 18.064 6.559.002v50.425c-16.254-4.039-28.3-18.73-28.3-36.233C12.667 22.381 29.38 5.667 50 5.667z" fill="#0D69E1" fill-rule="nonzero"/></g></svg>