<svg width="156" height="65" xmlns="http://www.w3.org/2000/svg"><g transform="translate(6 8)" fill="none" fill-rule="evenodd"><rect fill="#FFF" fill-rule="nonzero" x="1" y="1" width="142" height="48" rx="6.3"/><rect fill="#FC0" fill-rule="nonzero" transform="matrix(-1 0 0 1 144 0)" x="4" y="4" width="136" height="42" rx="3.5"/><rect stroke="#000" x=".5" y=".5" width="143" height="49" rx="6.16"/><path d="M7.69 3A4.668 4.668 0 0 0 3 7.667v34.666A4.668 4.668 0 0 0 7.69 47h128.62a4.668 4.668 0 0 0 4.69-4.667V7.667A4.668 4.668 0 0 0 136.31 3H7.69zm0 1.333h128.62a3.334 3.334 0 0 1 3.35 3.334v34.666a3.334 3.334 0 0 1-3.35 3.334H7.69a3.334 3.334 0 0 1-3.35-3.334V7.667a3.334 3.334 0 0 1 3.35-3.334z" fill="#000" fill-rule="nonzero"/><g fill="#000" fill-rule="nonzero"><path d="M52.996 19.123c-1.592.026-2.885.596-3.878 1.709-.994 1.113-1.506 2.614-1.536 4.503.03 1.89.542 3.391 1.536 4.504.993 1.113 2.286 1.683 3.878 1.709 1.593-.026 2.886-.596 3.88-1.709.993-1.113 1.505-2.614 1.535-4.504-.03-1.89-.542-3.39-1.536-4.503-.993-1.113-2.286-1.683-3.879-1.709zm0 2.071c.85.017 1.545.397 2.083 1.139.538.742.816 1.743.833 3.002-.017 1.26-.295 2.261-.833 3.003s-1.232 1.122-2.083 1.139c-.85-.017-1.544-.397-2.082-1.139-.538-.742-.816-1.743-.833-3.003.017-1.26.295-2.26.833-3.002s1.232-1.122 2.082-1.139zM72.34 14.153c-.005.018-.204.087-.6.208-.394.12-.958.19-1.691.207h-2.916c-1.71.04-2.986.505-3.826 1.398-.84.892-1.39 1.971-1.65 3.238a16.363 16.363 0 0 0-.355 3.647c-.015 1.346.131 2.68.44 4.003.308 1.323.871 2.427 1.689 3.313.817.886 1.982 1.346 3.494 1.38 1.774-.068 3.12-.707 4.035-1.915a6.632 6.632 0 0 0 1.38-4.09c-.035-1.971-.538-3.464-1.51-4.477-.972-1.014-2.204-1.523-3.697-1.528-1.032.035-1.83.276-2.395.725-.564.449-.946.897-1.145 1.346.022-1.186.327-2.23.915-3.132.587-.901 1.324-1.376 2.209-1.424h3.124c.222-.003.476-.026.762-.07.286-.044.517-.09.695-.137l1.042-2.692zm-5.415 7.455c.66-.017 1.267.276 1.822.88.556.604.85 1.622.885 3.055-.034 1.432-.33 2.45-.885 3.054-.555.604-1.163.897-1.822.88-.568.017-1.15-.276-1.744-.88-.595-.604-.916-1.622-.963-3.054.047-1.433.368-2.45.963-3.055.594-.604 1.176-.897 1.744-.88zM74.422 19.537v2.278h2.707v9.319h5.206c1.446-.04 2.49-.428 3.132-1.165a3.71 3.71 0 0 0 .944-2.563 3.71 3.71 0 0 0-.944-2.562c-.642-.738-1.686-1.126-3.132-1.165h-2.707v-4.142h-5.206zm5.206 6.42h2.916c.425.018.772.174 1.041.47.269.295.408.621.416.98-.008.357-.147.684-.416.98-.269.294-.616.45-1.041.469h-2.916v-2.9zM94.332 21.194c.646.002 1.25.257 1.81.765.562.509.86 1.082.897 1.72a.749.749 0 0 1-.048.285c-.033.082-.087.125-.16.129h-5.207c.03-1.023.313-1.758.852-2.204a2.945 2.945 0 0 1 1.856-.695zm4.79 4.97c.182-.013.33-.143.446-.389.115-.245.175-.53.178-.854-.043-1.6-.581-2.955-1.614-4.064-1.032-1.108-2.3-1.686-3.8-1.734a5.47 5.47 0 0 0-2.355.57 5.716 5.716 0 0 0-1.93 1.501 4.612 4.612 0 0 0-.907 1.782c-.18.676-.274 1.462-.283 2.36.025 1.889.608 3.39 1.752 4.503 1.143 1.113 2.523 1.683 4.14 1.709.734.004 1.488-.212 2.26-.647.772-.436 1.526-1.118 2.261-2.045l-2.023-1.154c-.403.518-.794.91-1.171 1.172-.378.263-.82.395-1.328.396-.586.026-1.236-.181-1.952-.621s-1.107-1.269-1.172-2.485h7.497zM107.219 19.33c-.85.005-1.627.1-2.328.285a7.03 7.03 0 0 0-1.837.75l1.13 2.19a7.48 7.48 0 0 1 1.25-.777c.472-.236 1.067-.362 1.785-.377.46-.009.946.112 1.458.362s.79.682.833 1.295c0 .323-.105.608-.313.854-.208.246-.52.375-.937.388h-1.666v1.864h1.666c.516.017.89.19 1.12.517.23.328.342.708.338 1.14-.035.521-.278.927-.729 1.216-.451.289-.902.436-1.354.44-.546.008-1.193-.104-1.941-.337-.747-.232-1.35-.632-1.807-1.201l-1.547 1.686c.66.624 1.482 1.1 2.469 1.427.987.328 1.929.493 2.826.496 1.345.008 2.47-.268 3.377-.829.906-.56 1.377-1.458 1.413-2.692-.036-.92-.313-1.595-.83-2.026-.515-.431-1.052-.693-1.61-.784.514-.155.974-.474 1.38-.958.406-.483.62-1.091.644-1.823-.018-.996-.452-1.762-1.302-2.296-.85-.534-2.013-.804-3.488-.81zM117.07 19.537c-.007 2.05-.165 3.822-.473 5.314-.308 1.492-.726 2.827-1.253 4.005h-1.19v4.762h2.499v-2.484h7.914v2.484h2.29v-4.762H125.4v-9.319h-8.33zm2.499 2.278h3.332v7.04h-4.85c.506-1.028.863-2.165 1.071-3.409.209-1.243.357-2.454.447-3.63z"/></g><path fill="#000" fill-rule="nonzero" d="M20.667 26.88h-7L25.333 6.773 37 26.88h-7v14.694h-9.333z"/></g></svg>