<svg width="100" height="86" xmlns="http://www.w3.org/2000/svg"><g fill="none" fill-rule="evenodd"><path d="M50 83c-22.091 0-40-17.909-40-40S27.909 3 50 3s40 17.909 40 40-17.909 40-40 40z" fill="#FFF" fill-rule="nonzero"/><path d="M90.5 43c0 22.368-18.132 40.5-40.5 40.5S9.5 65.368 9.5 43 27.632 2.5 50 2.5 90.5 20.632 90.5 43z" stroke="#000"/><path d="M50 5C29.013 5 12 22.013 12 43s17.013 38 38 38 38-17.013 38-38S70.987 5 50 5zM23.273 35.12h53.454c.728 0 1.315.587 1.315 1.315v13.13c0 .728-.587 1.315-1.315 1.315H23.273a1.313 1.313 0 0 1-1.315-1.315v-13.13c0-.728.587-1.315 1.315-1.315z" fill="red" fill-rule="nonzero"/></g></svg>