<svg width="100" height="86" xmlns="http://www.w3.org/2000/svg"><g fill="none" fill-rule="evenodd"><path d="M89.734 43A39.867 39.867 0 1 1 10 43a39.867 39.867 0 1 1 79.734 0z" fill="#FFF" fill-rule="nonzero"/><path d="M90.5 43c0 22.368-18.132 40.5-40.5 40.5S9.5 65.368 9.5 43 27.632 2.5 50 2.5 90.5 20.632 90.5 43z" stroke="#000"/><path d="M50 5C29.013 5 12 22.013 12 43s17.013 38 38 38 38-17.013 38-38S70.987 5 50 5zm0 7c17.12 0 31 13.88 31 31 0 17.12-13.88 31-31 31-17.12 0-31-13.88-31-31 0-17.12 13.88-31 31-31z" fill="red" fill-rule="nonzero"/><g fill="#000" fill-rule="nonzero"><path d="M50 46.871a5.154 5.154 0 0 0-4.13 2.064 2.577 2.577 0 0 1-2.064 1.033h-10.58V45.58a2.58 2.58 0 1 0-5.161 0v12.903a2.58 2.58 0 0 0 5.16 0v-4.387h10.58c.845 0 1.594.405 2.065 1.032A5.155 5.155 0 0 0 50 57.194a5.155 5.155 0 0 0 4.13-2.065 2.577 2.577 0 0 1 2.064-1.032h10.58v4.387a2.58 2.58 0 0 0 5.161 0V45.58a2.58 2.58 0 1 0-5.16 0v4.387h-10.58a2.578 2.578 0 0 1-2.065-1.033A5.155 5.155 0 0 0 50 46.871zM40.5 31.04c.22 3.196 1.423 4.781 3.61 4.754 1.874-.01 2.816-1.342 2.825-3.997 0-.946-.234-1.69-.703-2.233-.44-.505-1.01-.758-1.709-.758-1.277-.018-2.618.726-4.024 2.233zm3.527 8.061c-4.603.019-6.904-3.739-6.904-11.273 0-2.793.689-5.049 2.067-6.767 1.378-1.718 3.156-2.577 5.333-2.577 1.562 0 2.991.276 4.287.827l.454 3.018c-1.59-.68-2.981-1.034-4.176-1.061-2.866-.083-4.396 2.09-4.589 6.519 1.388-1.278 2.729-1.925 4.024-1.944 3.813-.036 5.72 1.948 5.72 5.954 0 2.27-.67 4.089-2.012 5.458-1.176 1.212-2.577 1.828-4.204 1.846zM54.774 27h8.258v2.33h-2.987v9.8H57.83v-9.8h-3.055z"/></g></g></svg>