<svg width="100" height="86" xmlns="http://www.w3.org/2000/svg"><g fill="none" fill-rule="evenodd"><path d="M89.734 43A39.867 39.867 0 1 1 10 43a39.867 39.867 0 1 1 79.734 0z" fill="#FFF" fill-rule="nonzero"/><path d="M90.5 43c0 22.368-18.132 40.5-40.5 40.5S9.5 65.368 9.5 43 27.632 2.5 50 2.5 90.5 20.632 90.5 43z" stroke="#000"/><path d="M50 5C29.013 5 12 22.013 12 43s17.013 38 38 38 38-17.013 38-38S70.987 5 50 5zm0 7c17.12 0 31 13.88 31 31 0 17.12-13.88 31-31 31-17.12 0-31-13.88-31-31 0-17.12 13.88-31 31-31z" fill="red" fill-rule="nonzero"/><g fill="#000" fill-rule="nonzero"><path d="M42 14l7.5 8 7.5-8zM42 72l7.5-8 7.5 8zM43.033 60.975h2.503l.626-8.269 3.338 6.785 3.338-6.785.626 8.269h2.503l-1.043-11.874h-2.503L49.5 55.038l-2.921-5.937h-2.503zM50.481 39.699c-.666.017-1.22.254-1.663.71-.443.457-.672 1.029-.689 1.716.013.628.208 1.162.586 1.602.377.441.859.709 1.446.803l-2.11 3.443h1.775c.27-.405.751-1.195 1.443-2.37.692-1.174 1.13-1.97 1.314-2.387.065-.172.122-.347.172-.527.05-.18.076-.368.078-.564-.017-.687-.246-1.26-.689-1.716-.442-.456-.997-.693-1.663-.71zM66.791 25.695l1.08-3.62H55.455v10.86l2.43 1.393c.27-.192.674-.505 1.214-.94.54-.435 1.215-.679 2.024-.73 1.22.051 2.154.504 2.8 1.357.647.852.973 1.792.979 2.82-.067 1.392-.607 2.436-1.62 3.132-1.012.696-2.091 1.044-3.238 1.044-.908.011-1.82-.06-2.738-.213-.917-.154-1.714-.454-2.39-.9l.54 3.62c.061.046.612.232 1.652.557 1.04.325 2.199.51 3.475.557 2.593-.058 4.628-.847 6.107-2.367s2.233-3.423 2.26-5.71c-.084-2.239-.792-3.956-2.125-5.151-1.333-1.195-2.783-1.799-4.352-1.81a6.089 6.089 0 0 0-1.914.278 3.158 3.158 0 0 0-1.595 1.114v-5.29h7.827zM40.804 22h2.715v14.301H46l-1.029 3.297h-1.225V44h-3.161v-4.402H32v-3.297L40.804 22zm-.22 5.774l-5.196 8.527h5.197v-8.527z"/></g></g></svg>