<svg width="100" height="86" xmlns="http://www.w3.org/2000/svg"><g fill="none" fill-rule="evenodd"><path d="M89.734 43A39.867 39.867 0 1 1 10 43a39.867 39.867 0 1 1 79.734 0z" fill="#FFF" fill-rule="nonzero"/><path d="M90.5 43c0 22.368-18.132 40.5-40.5 40.5S9.5 65.368 9.5 43 27.632 2.5 50 2.5 90.5 20.632 90.5 43z" stroke="#000"/><path d="M50 5C29.013 5 12 22.013 12 43s17.013 38 38 38 38-17.013 38-38S70.987 5 50 5zm0 7c17.12 0 31 13.88 31 31 0 17.12-13.88 31-31 31-17.12 0-31-13.88-31-31 0-17.12 13.88-31 31-31z" fill="red" fill-rule="nonzero"/><g fill="#000" fill-rule="nonzero"><path d="M79.617 34.383a2.462 2.462 0 0 0-.432.363l-8.54 9.157c-.383.411-.895.68-1.451.758L56.12 46.496a2.452 2.452 0 0 0-2.109 2.472l.08 4.653a2.068 2.068 0 0 0 2.009 1.992 6.545 6.545 0 0 1 6.415-5.194c3.617 0 6.549 2.918 6.549 6.516h8.451a30.662 30.662 0 0 0 3.27-12.129h-4.951a1.548 1.548 0 0 1-1.133-2.604l5.415-5.807.008-.008a30.665 30.665 0 0 0-.508-2.004z"/><path d="M62.516 51.516a5.42 5.42 0 1 0 0 10.839 5.42 5.42 0 0 0 0-10.839zm0 2.194a3.226 3.226 0 1 1 0 6.451 3.226 3.226 0 0 1 0-6.451zM20.508 33.968c-.195.636-.37 1.282-.524 1.935h11.375c.952 0 1.762.693 1.911 1.633l.799 5.033a1.935 1.935 0 0 1-1.912 2.237H19.214a30.662 30.662 0 0 0 3.27 12.13h3.161c0-3.6 2.932-6.517 6.549-6.517 3.313 0 6.052 2.45 6.487 5.63l1.246-.335a2.065 2.065 0 0 0 1.492-1.601l1.283-6.597a2.454 2.454 0 0 0-.545-2.06l-9.076-10.63a2.457 2.457 0 0 0-1.867-.858H20.508z"/><path d="M32.194 51.516a5.42 5.42 0 1 0 0 10.839 5.42 5.42 0 0 0 0-10.839zm0 2.194a3.226 3.226 0 1 1 0 6.451 3.226 3.226 0 0 1 0-6.451zM58.503 31.387h1.589l.584-5.512 2.194 4.637 2.18-4.709.663 5.584h1.56l-.809-7.742H64.78l-1.859 3.856-1.997-3.856h-1.663zM35.974 20.58h5.968c-.917 1.472-1.784 3.126-2.6 4.96a24.737 24.737 0 0 0-1.755 5.686h2.42c.497-2.309 1.115-4.345 1.854-6.11a68.286 68.286 0 0 1 2.339-5.02v-1.612h-7.742l-.484 2.097zM50.55 18.323c-1.31.033-2.358.652-3.144 1.854-.787 1.203-1.19 2.79-1.21 4.758.02 1.97.423 3.556 1.21 4.759.786 1.202 1.834 1.82 3.145 1.854 1.31-.033 2.359-.652 3.145-1.854.786-1.203 1.19-2.79 1.21-4.759-.02-1.878-.424-3.438-1.21-4.68-.786-1.242-1.835-1.886-3.145-1.932zm0 2.004c.632-.01 1.137.355 1.516 1.095.378.739.572 1.91.582 3.513-.01 1.604-.204 2.775-.582 3.514-.379.74-.884 1.104-1.515 1.095-.632.01-1.137-.355-1.515-1.095-.378-.739-.572-1.91-.582-3.514.01-1.603.204-2.774.582-3.513.378-.74.883-1.104 1.515-1.095z"/></g></g></svg>