<svg width="100" height="86" xmlns="http://www.w3.org/2000/svg"><g fill="none" fill-rule="evenodd"><path d="M89.734 43A39.867 39.867 0 1 1 10 43a39.867 39.867 0 1 1 79.734 0z" fill="#FFF" fill-rule="nonzero"/><path d="M90.5 43c0 22.368-18.132 40.5-40.5 40.5S9.5 65.368 9.5 43 27.632 2.5 50 2.5 90.5 20.632 90.5 43z" stroke="#000"/><path d="M50 5C29.013 5 12 22.013 12 43s17.013 38 38 38 38-17.013 38-38S70.987 5 50 5zm0 7c17.12 0 31 13.88 31 31 0 17.12-13.88 31-31 31-17.12 0-31-13.88-31-31 0-17.12 13.88-31 31-31z" fill="red" fill-rule="nonzero"/><g fill="#000" fill-rule="nonzero"><path d="M25.633 48.152a3.152 3.152 0 0 1 0-6.304h48.506a3.152 3.152 0 1 1 0 6.304H25.633zM24.834 32.79c0 .635.138 1.177.413 1.626.275.449.61.673 1.005.673.389 0 .722-.224 1-.673.278-.45.417-.991.417-1.626 0-.635-.139-1.178-.417-1.63-.278-.452-.611-.678-1-.678-.395 0-.73.226-1.005.678-.275.452-.413.995-.413 1.63zm-1.145-.004c0-.93.25-1.724.748-2.379.5-.655 1.1-.983 1.802-.983.708 0 1.311.328 1.81.983.499.655.748 1.448.748 2.379 0 .924-.25 1.714-.748 2.37-.499.655-1.102.982-1.81.982-.702 0-1.303-.327-1.802-.983-.498-.655-.748-1.445-.748-2.37zM34.431 29.57v6.432h-1.08v-5.485h-2.44v5.485h-1.079V29.57zM38.239 31.052l-.812 2.708h1.65l-.838-2.708zm-.65-1.483h1.29l2.072 6.433h-1.224l-.395-1.277h-2.164l-.4 1.277h-1.302l2.124-6.433zM41.995 32.79c0-.924.248-1.714.746-2.367.497-.654 1.095-.981 1.794-.981.518 0 .99.188 1.418.566.415.363.722.844.921 1.444l-1.035.434c-.109-.415-.279-.75-.512-1.005-.232-.254-.493-.382-.783-.382-.389 0-.721.224-.996.672-.275.447-.412.989-.412 1.623 0 .635.137 1.177.412 1.626.275.45.607.674.996.674.281 0 .536-.122.766-.364.23-.243.403-.565.52-.966l1.031.395c-.199.594-.506 1.07-.921 1.426-.422.369-.89.553-1.405.553-.699 0-1.297-.327-1.794-.98-.498-.654-.746-1.444-.746-2.368zM51.485 29.57h1.062v6.441h-1.062v-2.954h-2.51v2.954H47.91V29.57h1.066v2.541h2.51zM54.723 32.79c0 .635.138 1.177.413 1.626.275.449.61.673 1.005.673.389 0 .722-.224 1-.673.278-.45.417-.991.417-1.626 0-.635-.139-1.178-.417-1.63-.278-.452-.611-.678-1-.678-.395 0-.73.226-1.005.678-.275.452-.413.995-.413 1.63zm-1.145-.004c0-.93.25-1.724.748-2.379.499-.655 1.1-.983 1.802-.983.708 0 1.31.328 1.81.983.499.655.748 1.448.748 2.379 0 .924-.25 1.714-.748 2.37-.5.655-1.102.982-1.81.982-.703 0-1.303-.327-1.802-.983-.499-.655-.748-1.445-.748-2.37zM59.72 32.79c0-.924.25-1.714.747-2.367.497-.654 1.095-.981 1.795-.981.517 0 .99.188 1.417.566.415.363.723.844.921 1.444l-1.035.434c-.108-.415-.279-.75-.511-1.005-.233-.254-.494-.382-.784-.382-.389 0-.72.224-.996.672-.275.447-.412.989-.412 1.623 0 .635.137 1.177.412 1.626.275.45.607.674.996.674.281 0 .536-.122.766-.364.23-.243.403-.565.52-.966l1.031.395c-.199.594-.506 1.07-.921 1.426-.421.369-.89.553-1.404.553-.7 0-1.298-.327-1.795-.98-.498-.654-.746-1.444-.746-2.368zM65.635 29.57h4.84v.955h-1.9v5.477H67.54v-5.477h-1.905zM74.007 35.032a.927.927 0 0 0 .665-.318c.183-.2.274-.44.274-.722 0-.286-.09-.528-.27-.726a.869.869 0 0 0-.669-.296h-1.343v2.062h1.344zm-2.492.97V29.57h1.15v2.435h1.342c.568 0 1.052.188 1.453.562.415.386.623.86.623 1.422 0 .562-.206 1.038-.617 1.428-.41.39-.898.586-1.463.586h-2.488z"/><g><path d="M37.362 57.245c0 .875-.158 1.574-.474 2.098-.421.737-1.09 1.105-2.006 1.105h-2.51v-6.433h2.51c.787 0 1.425.369 1.914 1.106.377.609.566 1.317.566 2.124zm-1.207 0c0-.84-.15-1.436-.452-1.79-.275-.316-.661-.474-1.158-.474h-1.04v4.515h1.026c.618 0 1.073-.262 1.365-.785.173-.36.26-.849.26-1.466zM41.243 55.499l-.812 2.707h1.65l-.838-2.707zm-.65-1.484h1.29l2.072 6.433H42.73l-.394-1.276h-2.164l-.4 1.276H38.47l2.124-6.433zM45.075 54.016h1.045l2.69 4.634v-4.634h1.08v6.433h-1.234l-2.523-4.516v4.516h-1.058zM55.276 60.418l-.128-.457c-.12.179-.315.321-.585.428a2.14 2.14 0 0 1-.788.16c-.743 0-1.392-.322-1.946-.967-.555-.645-.832-1.433-.832-2.363 0-.913.273-1.693.819-2.34.545-.646 1.198-.969 1.959-.97.5.001.96.142 1.378.424.418.283.755.699 1.01 1.249l-1.067.368a1.824 1.824 0 0 0-.557-.724 1.23 1.23 0 0 0-.75-.254c-.44 0-.813.218-1.122.654-.309.436-.463.96-.463 1.57 0 .633.152 1.162.456 1.59.305.426.68.64 1.128.64.313 0 .605-.114.876-.342.27-.228.452-.533.546-.913h-1.281v-.94h2.325v3.187h-.978zM58.437 56.578h2.334v.979h-2.334v1.9h2.861v.992h-3.923v-6.433h3.923v.99h-2.86zM67.4 60.448h-1.3l-.925-1.764c-.138-.275-.284-.475-.439-.6a.91.91 0 0 0-.606-.233h-.759v2.597l-.952-.004v-6.429h2.47c.49 0 .906.207 1.251.619.281.369.422.802.422 1.299 0 .412-.098.75-.292 1.011a1.798 1.798 0 0 1-.691.578c.137.134.243.253.318.357.074.104.188.295.34.573l.443.89c.181.387.328.644.439.773l.28.333zm-1.957-4.462a1.39 1.39 0 0 0-.14-.645c-.138-.214-.374-.32-.707-.32H63.37v1.89h1.225c.29-.035.512-.147.667-.337.12-.17.18-.366.18-.588z"/></g></g></g></svg>