<svg width="100" height="86" xmlns="http://www.w3.org/2000/svg"><g fill="none" fill-rule="evenodd"><path d="M89.734 42.879a39.867 39.867 0 1 1-79.734 0 39.867 39.867 0 1 1 79.734 0z" fill="#FFF" fill-rule="nonzero"/><path d="M90.5 43c0 22.368-18.132 40.5-40.5 40.5S9.5 65.368 9.5 43 27.632 2.5 50 2.5 90.5 20.632 90.5 43z" stroke="#000"/><path d="M50 81c20.987 0 38-17.013 38-38S70.987 5 50 5 12 22.013 12 43s17.013 38 38 38zm20.279-14.165A31.294 31.294 0 0 1 50 74.295c-17.283 0-31.294-14.012-31.294-31.295 0-7.43 2.644-14.619 7.46-20.279l44.113 44.114zM29.72 19.165A31.294 31.294 0 0 1 50 11.705c17.283 0 31.294 14.012 31.294 31.295 0 7.43-2.644 14.619-7.46 20.279L29.722 19.165z" fill="red" fill-rule="nonzero"/><g fill="#000" fill-rule="nonzero"><path d="M53.871 17.087v6.558H43.548a12.85 12.85 0 0 0-5.971 1.46l6.282 6.282H53.87v6.559l18.064-10.43-18.064-10.43zM32.105 30.577a12.85 12.85 0 0 0-1.46 5.971v28.387h7.742V36.86l-6.282-6.282z"/></g></g></svg>