<svg width="100" height="86" xmlns="http://www.w3.org/2000/svg"><g fill="none" fill-rule="evenodd"><path d="M89.734 42.879a39.867 39.867 0 1 1-79.734 0 39.867 39.867 0 1 1 79.734 0z" fill="#FFF" fill-rule="nonzero"/><path d="M90.5 43c0 22.368-18.132 40.5-40.5 40.5S9.5 65.368 9.5 43 27.632 2.5 50 2.5 90.5 20.632 90.5 43z" stroke="#000"/><path d="M50 81c20.987 0 38-17.013 38-38S70.987 5 50 5 12 22.013 12 43s17.013 38 38 38zm20.279-14.165A31.294 31.294 0 0 1 50 74.295c-17.283 0-31.294-14.012-31.294-31.295 0-7.43 2.644-14.619 7.46-20.279l44.113 44.114zM29.72 19.165A31.294 31.294 0 0 1 50 11.705c17.283 0 31.294 14.012 31.294 31.295 0 7.43-2.644 14.619-7.46 20.279L29.722 19.165z" fill="red" fill-rule="nonzero"/><g fill="#000" fill-rule="nonzero"><path d="M43.55 17.087l-8.87 5.121 9.178 9.18H56.45a5.163 5.163 0 0 1 5.162 5.162v12.592l7.742 7.741V36.55c0-7.126-5.778-12.904-12.904-12.904h-12.9v-6.559zm-15.808 9.125l-2.259 1.305 8.43 4.866-6.171-6.17zm33.87 33.871v7.434h7.434l-7.434-7.434z"/></g></g></svg>