<svg width="100" height="86" xmlns="http://www.w3.org/2000/svg"><g fill="none" fill-rule="evenodd"><path d="M89.734 43A39.867 39.867 0 1 1 10 43a39.867 39.867 0 1 1 79.734 0z" fill="#FFF" fill-rule="nonzero"/><path d="M90.5 43c0 22.368-18.132 40.5-40.5 40.5S9.5 65.368 9.5 43 27.632 2.5 50 2.5 90.5 20.632 90.5 43z" stroke="#000"/><path d="M50 5C29.013 5 12 22.013 12 43s17.013 38 38 38 38-17.013 38-38S70.987 5 50 5zm0 7c17.12 0 31 13.88 31 31 0 17.12-13.88 31-31 31-17.12 0-31-13.88-31-31 0-17.12 13.88-31 31-31z" fill="red" fill-rule="nonzero"/><g fill-rule="nonzero"><path d="M27.584 33.85c-.553 0-1.144.422-1.324.946l-.67 1.94-1.386 4.017-.002.011-.323.934c-.791 0-1.427.637-1.427 1.427v5.708c0 .79.636 1.427 1.427 1.427h21.404c.79 0 1.427-.636 1.427-1.427v-5.708c0-.79-.637-1.427-1.427-1.427l-.324-.934c0-.003 0-.007-.002-.01l-1.387-4.019-.668-1.94c-.18-.523-.771-.945-1.325-.945H27.584zm.435 1.427H41.142c.277 0 .572.211.663.473l2.05 5.948H25.307l2.05-5.948a.747.747 0 0 1 .663-.473zM23.878 50.973v2.854a2.14 2.14 0 0 0 4.281 0v-2.854h-4.28zM41.002 50.973v2.854a2.14 2.14 0 0 0 4.28 0v-2.854h-4.28z" fill="red"/><path d="M58.423 33.85c-.553 0-1.144.422-1.325.946l-.668 1.94-1.387 4.017c-.002.004-.001.008-.002.011l-.324.934c-.79 0-1.427.637-1.427 1.427v5.708c0 .79.637 1.427 1.427 1.427h21.404c.791 0 1.427-.636 1.427-1.427v-5.708c0-.79-.636-1.427-1.427-1.427l-.323-.934c-.001-.003 0-.007-.002-.01l-1.387-4.019-.669-1.94c-.18-.523-.77-.945-1.324-.945H58.423zm.435 1.427H71.98c.277 0 .572.211.662.473l2.052 5.948H56.144l2.051-5.948a.747.747 0 0 1 .663-.473zM54.717 50.973v2.854a2.14 2.14 0 0 0 4.28 0v-2.854h-4.28zM71.84 50.973v2.854a2.14 2.14 0 0 0 4.281 0v-2.854h-4.28z" fill="#000"/></g></g></svg>