<svg width="100" height="86" xmlns="http://www.w3.org/2000/svg"><g fill="none" fill-rule="evenodd"><path d="M90 41c0 22.091-17.909 40-40 40S10 63.091 10 41 27.909 1 50 1s40 17.909 40 40z" fill="#FFF" fill-rule="nonzero"/><path d="M27.584 31.85c-.553 0-1.144.422-1.324.946l-.67 1.94-1.386 4.017-.002.011-.323.934c-.791 0-1.427.637-1.427 1.427v5.708c0 .79.636 1.427 1.427 1.427h21.404c.79 0 1.427-.636 1.427-1.427v-5.708c0-.79-.637-1.427-1.427-1.427l-.324-.934c0-.003 0-.007-.002-.01l-1.387-4.019-.668-1.94c-.18-.523-.771-.945-1.325-.945H27.584zm.435 1.427H41.142c.277 0 .572.211.663.473l2.05 5.948H25.307l2.05-5.948a.747.747 0 0 1 .663-.473zM23.878 48.973v2.854a2.14 2.14 0 0 0 4.281 0v-2.854h-4.28zM41.002 48.973v2.854a2.14 2.14 0 0 0 4.28 0v-2.854h-4.28zM58.423 31.85c-.553 0-1.144.422-1.325.946l-.668 1.94-1.387 4.017c-.002.004-.001.008-.002.011l-.324.934c-.79 0-1.427.637-1.427 1.427v5.708c0 .79.637 1.427 1.427 1.427h21.404c.791 0 1.427-.636 1.427-1.427v-5.708c0-.79-.636-1.427-1.427-1.427l-.323-.934c-.001-.003 0-.007-.002-.01l-1.387-4.019-.669-1.94c-.18-.523-.77-.945-1.324-.945H58.423zm.435 1.427H71.98c.277 0 .572.211.662.473l2.052 5.948H56.144l2.051-5.948a.747.747 0 0 1 .663-.473zM54.717 48.973v2.854a2.14 2.14 0 0 0 4.28 0v-2.854h-4.28zM71.84 48.973v2.854a2.14 2.14 0 0 0 4.281 0v-2.854h-4.28z" fill="#7F7F7F" fill-rule="nonzero"/><path d="M89.133 41.133c0-21.539-17.46-39-39-39-21.539 0-39 17.461-39 39 0 21.54 17.461 39 39 39 21.54 0 39-17.46 39-39z" stroke="#000" stroke-width="2"/><path d="M50 2.333C28.645 2.333 11.333 19.645 11.333 41S28.645 79.667 50 79.667 88.667 62.355 88.667 41 71.355 2.333 50 2.333zm0 1.334c8.05 0 15.507 2.546 21.604 6.879L19.546 62.604A37.167 37.167 0 0 1 12.666 41C12.667 20.381 29.382 3.667 50 3.667zm22.546 7.579c.448.34.888.69 1.32 1.05l-52.57 52.57c-.36-.432-.71-.872-1.05-1.32l52.3-52.3zm2.208 1.808c.42.372.827.752 1.23 1.142L23.195 66.983c-.39-.402-.77-.81-1.142-1.229l52.7-52.7zm2.05 1.963c.39.402.77.81 1.142 1.229l-52.7 52.7c-.42-.372-.827-.752-1.23-1.142l52.788-52.787zm1.9 2.116c.36.433.71.873 1.05 1.321l-52.3 52.3c-.448-.34-.888-.69-1.32-1.05l52.57-52.57zm1.75 2.263A37.167 37.167 0 0 1 87.334 41c0 20.619-16.715 37.333-37.334 37.333a37.167 37.167 0 0 1-21.604-6.879l52.058-52.058z" fill="#000" fill-rule="nonzero"/></g></svg>