<svg width="100" height="86" xmlns="http://www.w3.org/2000/svg"><g fill="none" fill-rule="evenodd"><path d="M90 43c0 22.091-17.909 40-40 40S10 65.091 10 43 27.909 3 50 3s40 17.909 40 40z" fill="#FFF" fill-rule="nonzero"/><path d="M72.42 50.973v2.854a2.14 2.14 0 0 0 4.282 0v-2.854H72.42zM55.298 50.973v2.854a2.14 2.14 0 0 0 4.28 0v-2.854h-4.28zM59.004 33.85c-.554 0-1.144.422-1.325.946l-.669 1.94-1.387 4.017c0 .004 0 .008-.002.011l-.323.934c-.79 0-1.427.637-1.427 1.427v5.708c0 .79.636 1.427 1.427 1.427h21.404c.79 0 1.427-.636 1.427-1.427v-5.708c0-.79-.636-1.427-1.427-1.427l-.323-.934-.002-.01-1.387-4.019-.67-1.94c-.18-.523-.77-.945-1.324-.945H59.004zm.434 1.427h13.124c.276 0 .572.211.662.473l2.051 5.948h-18.55l2.051-5.948a.747.747 0 0 1 .662-.473zM46 53.968a2.065 2.065 0 0 0 4.129 0V48.29h1.161V25.968a2.323 2.323 0 0 0-2.322-2.323H27.806a2.323 2.323 0 0 0-2.322 2.323V48.29h1.161v5.678a2.065 2.065 0 0 0 4.13 0V48.29h2.553a2.56 2.56 0 0 1 1.446.443 6.417 6.417 0 0 0 3.613 1.106c1.34 0 2.582-.408 3.613-1.106a2.56 2.56 0 0 1 1.446-.443H46v5.678z" fill="#7F7F7F" fill-rule="nonzero"/><path d="M89.133 43.133c0-21.539-17.46-39-39-39-21.539 0-39 17.461-39 39 0 21.54 17.461 39 39 39 21.54 0 39-17.46 39-39z" stroke="#000" stroke-width="2"/><path d="M50 4.333C28.645 4.333 11.333 21.645 11.333 43S28.645 81.667 50 81.667 88.667 64.355 88.667 43 71.355 4.333 50 4.333zm0 1.334c8.05 0 15.507 2.546 21.604 6.879L19.546 64.604A37.167 37.167 0 0 1 12.666 43C12.667 22.381 29.382 5.667 50 5.667zm22.546 7.579c.448.34.888.69 1.32 1.05l-52.57 52.57c-.36-.432-.71-.872-1.05-1.32l52.3-52.3zm2.208 1.808c.42.372.827.752 1.23 1.142L23.195 68.983c-.39-.402-.77-.81-1.142-1.229l52.7-52.7zm2.05 1.963c.39.402.77.81 1.142 1.229l-52.7 52.7c-.42-.372-.827-.752-1.23-1.142l52.788-52.787zm1.9 2.116c.36.433.71.873 1.05 1.321l-52.3 52.3c-.448-.34-.888-.69-1.32-1.05l52.57-52.57zm1.75 2.263A37.167 37.167 0 0 1 87.334 43c0 20.619-16.715 37.333-37.334 37.333a37.167 37.167 0 0 1-21.604-6.879l52.058-52.058z" fill="#000" fill-rule="nonzero"/></g></svg>