<svg width="100" height="86" xmlns="http://www.w3.org/2000/svg"><g fill="none" fill-rule="evenodd"><path d="M89.734 43A39.867 39.867 0 1 1 10 43a39.867 39.867 0 1 1 79.734 0z" fill="#FFF" fill-rule="nonzero"/><path d="M90.5 43c0 22.368-18.132 40.5-40.5 40.5S9.5 65.368 9.5 43 27.632 2.5 50 2.5 90.5 20.632 90.5 43z" stroke="#000"/><path d="M50 5C29.013 5 12 22.013 12 43s17.013 38 38 38 38-17.013 38-38S70.987 5 50 5zm0 7c17.12 0 31 13.88 31 31 0 17.12-13.88 31-31 31-17.12 0-31-13.88-31-31 0-17.12 13.88-31 31-31z" fill="red" fill-rule="nonzero"/><g fill="#000" fill-rule="nonzero"><path d="M45.548 33.42l1.42-4.613H30.645v13.838l3.194 1.774c.355-.244.887-.643 1.596-1.197.71-.555 1.597-.865 2.662-.932 1.604.067 2.831.644 3.681 1.73.85 1.087 1.28 2.284 1.286 3.593-.088 1.774-.798 3.105-2.129 3.992-1.33.887-2.75 1.33-4.258 1.33a20.96 20.96 0 0 1-3.599-.272c-1.206-.195-2.253-.578-3.142-1.147l.71 4.613c.08.06.805.296 2.173.71 1.367.414 2.89.65 4.568.71 3.408-.075 6.084-1.08 8.028-3.017 1.944-1.937 2.935-4.361 2.972-7.274-.11-2.853-1.042-5.042-2.794-6.564-1.752-1.523-3.66-2.292-5.722-2.307a8.24 8.24 0 0 0-2.516.355 4.154 4.154 0 0 0-2.097 1.42v-6.743h10.29zM61.627 28.452c-2.883.074-5.19 1.434-6.92 4.08-1.729 2.647-2.616 6.136-2.66 10.468.044 4.332.931 7.821 2.66 10.468 1.73 2.646 4.037 4.006 6.92 4.08 2.883-.074 5.19-1.434 6.92-4.08 1.73-2.647 2.616-6.136 2.66-10.468-.044-4.132-.93-7.565-2.66-10.297s-4.037-4.149-6.92-4.251zm0 4.41c1.39-.021 2.501.781 3.333 2.408.832 1.626 1.259 4.203 1.28 7.73-.021 3.527-.448 6.104-1.28 7.73-.832 1.627-1.943 2.43-3.333 2.408-1.39.021-2.5-.781-3.333-2.408-.832-1.626-1.259-4.203-1.28-7.73.021-3.527.448-6.104 1.28-7.73.832-1.627 1.943-2.43 3.333-2.408z"/></g></g></svg>