<svg width="100" height="86" xmlns="http://www.w3.org/2000/svg"><g fill="none" fill-rule="evenodd"><path d="M89.734 43A39.867 39.867 0 1 1 10 43a39.867 39.867 0 1 1 79.734 0z" fill="#FFF" fill-rule="nonzero"/><path d="M90.5 43c0 22.368-18.132 40.5-40.5 40.5S9.5 65.368 9.5 43 27.632 2.5 50 2.5 90.5 20.632 90.5 43z" stroke="#000"/><g fill-rule="nonzero"><path d="M26.195 25.399a20.652 20.652 0 0 0-2.597 10.058c0 3.649.942 7.078 2.597 10.057.994-5.017 5.42-8.8 10.73-8.8h1.63l-2.554-2.554c-4.893-.408-8.87-4.037-9.806-8.761zM46.358 34.2l2.514 2.514h4.9c3.284 0 6.075 2.1 7.111 5.029h-6.982l2.515 2.514h4.9c0 1.405-.385 2.72-1.054 3.847l1.82 1.819a10.006 10.006 0 0 0 1.748-5.666h3.928a5.029 5.029 0 1 0 0-2.514h-4.247c-1.116-4.339-5.052-7.544-9.74-7.544h-7.413zM38.685 41.743a6.286 6.286 0 1 0 0 12.572h15.087c.739 0 1.46-.08 2.153-.232l-2.283-2.282H38.685a3.772 3.772 0 1 1 0-7.544h7.414l-2.515-2.514h-4.9z" fill="#000"/><path d="M50 5.325C29.193 5.325 12.325 22.193 12.325 43S29.193 80.675 50 80.675 87.675 63.807 87.675 43 70.807 5.325 50 5.325zm0 6.37c17.29 0 31.305 14.016 31.305 31.305a31.18 31.18 0 0 1-7.462 20.287l-44.13-44.13A31.18 31.18 0 0 1 50 11.695zM26.157 22.713l44.13 44.13A31.18 31.18 0 0 1 50 74.305C32.71 74.305 18.695 60.29 18.695 43a31.18 31.18 0 0 1 7.462-20.287z" fill="red"/></g></g></svg>