<?xml version="1.0" encoding="UTF-8"?><svg id="_Слой_1" xmlns="http://www.w3.org/2000/svg" width="98" height="108" viewBox="0 0 98 108"><defs><style>.cls-1{fill:none;}.cls-2{fill:#fff;}.cls-3{fill:red;}.cls-4{fill:#8b8b8b;}.cls-5{fill:#0c0e0f;}</style></defs><g><g><path class="cls-5" d="M49.48,86.1c-22.28,0-40.4-18.12-40.4-40.4S27.2,5.3,49.48,5.3s40.4,18.12,40.4,40.4-18.12,40.4-40.4,40.4Zm0-79.8c-21.72,0-39.4,17.67-39.4,39.4s17.67,39.4,39.4,39.4,39.4-17.67,39.4-39.4S71.21,6.3,49.48,6.3Z"/><circle class="cls-3" cx="49.38" cy="45.7" r="38.1"/><circle class="cls-2" cx="49.48" cy="45.7" r="32.2"/><path d="M32.98,49.1c-2.6,0-4.6,2.1-4.6,4.6s2.1,4.6,4.6,4.6,4.6-2.1,4.6-4.6-2-4.6-4.6-4.6Zm.1,7.2c-1.4,0-2.6-1.2-2.6-2.6s1.2-2.6,2.6-2.6,2.6,1.2,2.6,2.6-1.2,2.6-2.6,2.6Z"/><path d="M74.98,42.5c0-.3-.1-.7-.2-1l-2-6.1c-.4-1.1-1.4-1.8-2.5-1.8H29.68c-.9,0-1.7,.5-2.2,1.2l-3.3,5.7c-.5,.9-.8,1.9-.8,2.9v8.7c0,.8,.7,1.4,1.5,1.4h1.8c.1-3.4,2.8-6.1,6.2-6.1s6.1,2.7,6.2,6.1h17.6v-.1c0-3.4,2.8-6.2,6.2-6.2s6.2,2.8,6.2,6.2v.1h4.1c.9,0,1.7-.7,1.7-1.7,0,0,.1-9.3,.1-9.3Z"/><path d="M63.08,49c-2.6,0-4.6,2.1-4.6,4.6s2.1,4.6,4.6,4.6,4.6-2.1,4.6-4.6c.1-2.6-2-4.6-4.6-4.6Zm0,7.3c-1.4,0-2.6-1.2-2.6-2.6s1.2-2.6,2.6-2.6,2.6,1.2,2.6,2.6-1.1,2.6-2.6,2.6Z"/><path class="cls-2" d="M44.18,42.3h-5.7c-1,0-1.8-.8-1.8-1.8v-3.4c0-1,.8-1.8,1.8-1.8h5.7c1,0,1.8,.8,1.8,1.8v3.4c0,.9-.8,1.8-1.8,1.8Z"/><path class="cls-2" d="M55.98,42.2h-5.8c-1,0-1.8-.8-1.8-1.8v-3.4c0-1,.8-1.8,1.8-1.8h5.8c1,0,1.8,.8,1.8,1.8v3.4c0,1-.8,1.8-1.8,1.8Z"/><path class="cls-2" d="M69.28,42.3h-8.2c-.6,0-1.2-.5-1.2-1.2v-4.7c0-.6,.5-1.2,1.2-1.2h6.3c.9,0,1.6,.6,1.9,1.5l1,4.1c.3,.8-.3,1.5-1,1.5Z"/><path class="cls-2" d="M27.08,42.2h6.5c.4,0,.7-.5,.7-1.2v-4.7c0-.6-.3-1.2-.7-1.2h-3.1c-.5,0-1.1,.6-1.5,1.5l-2.5,4.1c-.1,.8,.2,1.5,.6,1.5Z"/></g><path class="cls-1" d="M.07,0H97.93V108H.07V0Z"/></g><g><path class="cls-4" d="M40.98,94.82c-.21,0-.42,.03-.63,.08s-.42,.12-.62,.2c-.19,.08-.35,.16-.49,.25s-.26,.17-.37,.24h-.07v-1.24c.25-.14,.6-.26,1.03-.37s.85-.17,1.25-.17,.74,.04,1.03,.12,.56,.2,.8,.37c.26,.19,.45,.41,.58,.68s.2,.58,.2,.93c0,.48-.16,.9-.47,1.27s-.7,.59-1.14,.69v.08c.18,.04,.38,.1,.59,.18s.4,.21,.58,.38,.33,.38,.44,.65,.17,.58,.17,.96-.07,.76-.2,1.09-.33,.62-.57,.88c-.25,.27-.56,.47-.92,.6s-.77,.21-1.22,.21-.87-.05-1.3-.16-.79-.23-1.08-.38v-1.24h.08c.25,.18,.58,.35,.99,.52s.83,.25,1.24,.25c.24,0,.48-.04,.72-.11s.44-.2,.6-.37c.16-.17,.28-.36,.36-.57s.12-.47,.12-.79-.05-.58-.14-.78-.22-.36-.38-.48-.36-.2-.58-.24-.47-.07-.73-.07h-.5v-.97h.39c.53,0,.96-.12,1.29-.38s.5-.61,.5-1.09c0-.22-.04-.41-.13-.57s-.2-.28-.33-.38c-.15-.1-.31-.17-.49-.21s-.37-.06-.57-.06h-.03Z"/><path class="cls-4" d="M47.05,102.72h-1.4v-1.67h1.4v1.67Z"/><path class="cls-4" d="M51.16,94.82c-.21,0-.42,.03-.63,.08s-.42,.12-.62,.2c-.19,.08-.35,.16-.49,.25s-.26,.17-.37,.24h-.07v-1.24c.25-.14,.6-.26,1.03-.37,.44-.11,.85-.17,1.25-.17s.74,.04,1.03,.12,.56,.2,.8,.37c.26,.19,.45,.41,.58,.68s.2,.58,.2,.93c0,.48-.16,.9-.47,1.27s-.7,.59-1.14,.69v.08c.18,.04,.38,.1,.59,.18s.4,.21,.58,.38,.33,.38,.44,.65,.17,.58,.17,.96-.07,.76-.2,1.09-.33,.62-.57,.88c-.25,.27-.56,.47-.92,.6s-.77,.21-1.22,.21-.87-.05-1.3-.16-.79-.23-1.08-.38v-1.24h.08c.25,.18,.58,.35,.99,.52,.41,.16,.83,.25,1.24,.25,.24,0,.48-.04,.72-.11s.44-.2,.6-.37c.16-.17,.28-.36,.36-.57s.12-.47,.12-.79-.05-.58-.14-.78-.22-.36-.38-.48-.36-.2-.58-.24-.47-.07-.73-.07h-.5v-.97h.39c.53,0,.96-.12,1.29-.38s.5-.61,.5-1.09c0-.22-.04-.41-.13-.57s-.2-.28-.33-.38c-.15-.1-.31-.17-.49-.21s-.37-.06-.57-.06h-.03Z"/><path class="cls-4" d="M60.97,99.72h-1.04v3h-1.12v-3h-3.86v-1.23l3.9-4.49h1.08v4.79h1.04v.94h0Zm-2.16-.95v-3.41l-2.94,3.41h2.94Z"/></g></svg>