<?xml version="1.0" encoding="UTF-8"?>
<svg id="_Слой_1" data-name=" Слой 1" xmlns="http://www.w3.org/2000/svg" width="97" height="97" viewBox="0 0 97 97">
  <defs>
    <style>
      .cls-1 {
        fill: none;
      }

      .cls-2 {
        fill: #fff;
      }

      .cls-3 {
        fill: red;
      }

      .cls-4 {
        fill: #0c0e0f;
      }
    </style>
  </defs>
  <g>
    <path class="cls-4" d="m48.98,86.72c-22.28,0-40.4-18.12-40.4-40.4S26.7,5.92,48.98,5.92s40.4,18.12,40.4,40.4-18.12,40.4-40.4,40.4Zm0-79.8c-21.72,0-39.4,17.67-39.4,39.4s17.67,39.4,39.4,39.4,39.4-17.67,39.4-39.4S70.71,6.92,48.98,6.91Z"/>
    <circle class="cls-3" cx="48.88" cy="46.32" r="38.1"/>
    <circle class="cls-2" cx="48.98" cy="46.32" r="32.2"/>
    <path class="cls-2" d="m43.68,42.92h-5.7c-1,0-1.8-.8-1.8-1.8v-3.4c0-1,.8-1.8,1.8-1.8h5.7c1,0,1.8.8,1.8,1.8v3.4c0,.9-.8,1.8-1.8,1.8Z"/>
    <path class="cls-2" d="m55.48,42.82h-5.8c-1,0-1.8-.8-1.8-1.8v-3.4c0-1,.8-1.8,1.8-1.8h5.8c1,0,1.8.8,1.8,1.8v3.4c0,1-.8,1.8-1.8,1.8Z"/>
    <path class="cls-2" d="m68.78,42.92h-8.2c-.6,0-1.2-.5-1.2-1.2v-4.7c0-.6.5-1.2,1.2-1.2h6.3c.9,0,1.6.6,1.9,1.5l1,4.1c.3.8-.3,1.5-1,1.5Z"/>
    <path class="cls-2" d="m26.58,42.82h6.5c.4,0,.7-.5.7-1.2v-4.7c0-.6-.3-1.2-.7-1.2h-3.1c-.5,0-1.1.6-1.5,1.5l-2.5,4.1c-.1.8.2,1.5.6,1.5Z"/>
  </g>
  <path class="cls-1" d="m0,0h97v97H0V0Z"/>
  <g>
    <rect x="44.24" y="52.67" width="14.4" height="2"/>
    <path d="m37.24,49.67l2.8-15.8c.2-1.1,1.2-1.8,2.3-1.6h0l-3.1,17.8s-2-.4-2-.4Z"/>
    <rect x="41.15" y="43.95" width="2" height="11" transform="translate(-20.1 30.83) rotate(-32.9)"/>
    <circle cx="62.24" cy="53.57" r="4.2"/>
    <circle cx="37.54" cy="53.57" r="4.2"/>
    <path d="m55.84,53.67c-.6-.1-.9-.6-.8-1.2,1-4.8,5.2-6.1,7.3-6.1h0c.5,0,1,.4,1,1,0,.5-.4,1-1,1-.2,0-4.5.1-5.4,4.5-.1.5-.5.8-1,.8-.1,0-.2,0-.1,0Z"/>
    <path d="m40.24,33.47h0c0-.9.7-1.6,1.6-1.6h2c.9,0,1.6.7,1.6,1.6h0c0,.9-.7,1.6-1.6,1.6h-2c-.9,0-1.6-.7-1.6-1.6Z"/>
  </g>
</svg>