<svg width="100" height="86" xmlns="http://www.w3.org/2000/svg"><g fill="none" fill-rule="evenodd"><path d="M88.734 43A39.867 39.867 0 1 1 9 43a39.867 39.867 0 1 1 79.734 0z" fill="#FFF" fill-rule="nonzero"/><path d="M89.5 43c0 22.368-18.132 40.5-40.5 40.5S8.5 65.368 8.5 43 26.632 2.5 49 2.5 89.5 20.632 89.5 43z" stroke="#000"/><path d="M49 5C28.013 5 11 22.013 11 43s17.013 38 38 38 38-17.013 38-38S69.987 5 49 5zm0 7c17.12 0 31 13.88 31 31 0 17.12-13.88 31-31 31-17.12 0-31-13.88-31-31 0-17.12 13.88-31 31-31z" fill="red" fill-rule="nonzero"/><g fill="#000" fill-rule="nonzero"><path d="M28.532 33.968c-.858 0-1.661.426-2.14 1.137l-4.05 6a2.58 2.58 0 0 0-.439 1.443v7.936a2.58 2.58 0 0 0 2.58 2.58h2.332a5.418 5.418 0 0 1 10.822 0h20.145a5.416 5.416 0 0 1 3.105-4.645H38.42V36.55a2.58 2.58 0 0 0-2.58-2.581h-7.307zm.137 1.548h5.88c.712 0 1.29.578 1.29 1.29v3.613a1.29 1.29 0 0 1-1.29 1.29h-8.32a1.29 1.29 0 0 1-1.068-2.011l2.436-3.613c.24-.356.643-.569 1.072-.569z"/><path d="M42.55 26.225a2.58 2.58 0 0 0-2.583 2.583v18.063h33.55V28.808c0-1.43-1.15-2.583-2.58-2.583H42.55zm10.3 4.525c1.102.005 1.972.302 2.608.892.59.558.888 1.269.888 2.133 0 1.02-.603 1.868-1.809 2.546.782.59 1.27 1 1.467 1.233.43.512.642 1.167.642 1.958 0 .808-.294 1.482-.884 2.025-.688.632-1.665.946-2.933.946-1.185 0-2.126-.317-2.825-.954-.626-.564-.942-1.235-.942-2.017 0-.791.214-1.448.638-1.97.212-.264.7-.675 1.467-1.234-1.185-.63-1.775-1.468-1.775-2.508 0-.89.29-1.613.875-2.167.63-.595 1.491-.888 2.583-.883zm0 1.717c-.466 0-.834.104-1.108.316-.275.212-.413.483-.413.809 0 .677.507 1.277 1.521 1.8 1.02-.513 1.53-1.113 1.53-1.796 0-.326-.137-.594-.413-.808-.277-.215-.651-.321-1.117-.321zm6.392 1.596h6.562v1.583H63.43v6.658h-1.758v-6.658h-2.43v-1.583zm-6.359 3.158c-1.159.662-1.737 1.41-1.737 2.237 0 .823.566 1.234 1.704 1.234 1.143 0 1.717-.42 1.717-1.259 0-.817-.561-1.555-1.684-2.212zM63.194 48.935a4.387 4.387 0 1 0 0 8.775 4.387 4.387 0 0 0 0-8.775zm0 2.065a2.323 2.323 0 1 1 0 4.645 2.323 2.323 0 0 1 0-4.645zM68.605 53.065a5.416 5.416 0 0 0-3.105-4.646h8.016v4.646h-4.911zM32.226 48.935a4.387 4.387 0 1 0 0 8.775 4.387 4.387 0 0 0 0-8.775zm0 2.065a2.323 2.323 0 1 1 0 4.645 2.323 2.323 0 0 1 0-4.645z"/></g></g></svg>