<svg width="100" height="86" xmlns="http://www.w3.org/2000/svg"><g fill="none" fill-rule="evenodd"><path d="M89.734 43A39.867 39.867 0 1 1 10 43a39.867 39.867 0 1 1 79.734 0z" fill="#FFF" fill-rule="nonzero"/><path d="M90.5 43c0 22.368-18.132 40.5-40.5 40.5S9.5 65.368 9.5 43 27.632 2.5 50 2.5 90.5 20.632 90.5 43z" stroke="#000"/><path d="M50 5C29.013 5 12 22.013 12 43s17.013 38 38 38 38-17.013 38-38S70.987 5 50 5zm0 7c17.12 0 31 13.88 31 31 0 17.12-13.88 31-31 31-17.12 0-31-13.88-31-31 0-17.12 13.88-31 31-31z" fill="red" fill-rule="nonzero"/><g fill="#000" fill-rule="nonzero"><path d="M36.065 26.58a.516.516 0 0 0-.517.517v3.355c0 .285.231.516.517.516h1.016l-2.803 7.012a8.774 8.774 0 1 0 1.915.766l2.553-6.383 4.319 15.564a2.582 2.582 0 0 0 2.483 1.88h12.206a10.825 10.825 0 0 1-.528-3.355 10.82 10.82 0 0 1 3.67-8.13.516.516 0 0 0-.343-.903H51.29l-2.225 4.448a1.29 1.29 0 0 1-1.154.714h-3.338c-.58 0-1.091-.385-1.246-.944l-1.432-5.161a1.291 1.291 0 0 1 1.246-1.637h5.698a1.935 1.935 0 1 0 0-3.871h-9.936l1.807-2.58h2.064a.903.903 0 1 0 0-1.807h-6.71zM32 40.517c.416 0 .822.044 1.214.125l-1.295 3.234A2.578 2.578 0 0 0 32 49.032a2.58 2.58 0 0 0 2.58-2.58c0-.707-.281-1.349-.741-1.815l1.29-3.23A5.935 5.935 0 1 1 32 40.516z"/><path d="M68.065 40.516a5.935 5.935 0 1 1-3.13.891l1.29 3.23a2.575 2.575 0 0 0-.741 1.815 2.58 2.58 0 0 0 5.161 0 2.578 2.578 0 0 0-2.5-2.577l-1.294-3.234a5.972 5.972 0 0 1 1.214-.125zM52.58 35.871h10.138l1.152 2.875a8.774 8.774 0 1 0 4.194-1.069c-.789 0-1.552.108-2.279.303l-.843-2.109h4.283v-1.29a2.323 2.323 0 0 0-2.323-2.323H55.185a1.29 1.29 0 0 0-1.155.713l-1.45 2.9z"/></g></g></svg>