<svg width="100" height="86" xmlns="http://www.w3.org/2000/svg"><g fill="none" fill-rule="evenodd"><path d="M89.734 43A39.867 39.867 0 1 1 10 43a39.867 39.867 0 1 1 79.734 0z" fill="#FFF" fill-rule="nonzero"/><path d="M90.5 43c0 22.368-18.132 40.5-40.5 40.5S9.5 65.368 9.5 43 27.632 2.5 50 2.5 90.5 20.632 90.5 43z" stroke="#000"/><path d="M50 5C29.013 5 12 22.013 12 43s17.013 38 38 38 38-17.013 38-38S70.987 5 50 5zm0 7c17.12 0 31 13.88 31 31 0 17.12-13.88 31-31 31-17.12 0-31-13.88-31-31 0-17.12 13.88-31 31-31z" fill="red" fill-rule="nonzero"/><g fill="#000" fill-rule="nonzero"><path d="M31.71 48.161a6.452 6.452 0 1 0 0 12.903 6.452 6.452 0 0 0 0-12.903zm0 3.355a3.097 3.097 0 1 1 0 6.194 3.097 3.097 0 0 1 0-6.194zM66.484 43a9.032 9.032 0 1 0 0 18.064 9.032 9.032 0 0 0 0-18.064zm0 3.87a5.161 5.161 0 1 1 0 10.324 5.161 5.161 0 0 1 0-10.323z"/><path d="M56.617 23.645a2.578 2.578 0 0 0-2.395 1.621L49.71 36.548h-6.452V26.226h-2.58v10.322h-9.033a2.575 2.575 0 0 0-2.58 2.581v8.21a7.743 7.743 0 0 1 9.944 4.694H56.16c0-5.702 4.622-10.323 10.323-10.323 1.25 0 2.447.225 3.556.633l1.605-3.214-1.29-2.58V26.225a2.58 2.58 0 0 0-2.58-2.58H56.616zm.875 2.58h7.702c.712 0 1.29.578 1.29 1.291v7.742a1.29 1.29 0 0 1-1.29 1.29H54.395a1.29 1.29 0 0 1-1.197-1.77l3.096-7.742c.196-.49.67-.81 1.198-.81z"/></g></g></svg>