<svg width="100" height="86" xmlns="http://www.w3.org/2000/svg"><g fill="none" fill-rule="evenodd"><path d="M89.734 43A39.867 39.867 0 1 1 10 43a39.867 39.867 0 1 1 79.734 0z" fill="#FFF" fill-rule="nonzero"/><path d="M90.5 43c0 22.368-18.132 40.5-40.5 40.5S9.5 65.368 9.5 43 27.632 2.5 50 2.5 90.5 20.632 90.5 43z" stroke="#000"/><path d="M50 5C29.013 5 12 22.013 12 43s17.013 38 38 38 38-17.013 38-38S70.987 5 50 5zm0 7c17.12 0 31 13.88 31 31 0 17.12-13.88 31-31 31-17.12 0-31-13.88-31-31 0-17.12 13.88-31 31-31z" fill="red" fill-rule="nonzero"/><g fill="#000" fill-rule="nonzero"><path d="M38.387 33.968v13.42H22.903v2.064H45.52a5.808 5.808 0 0 1 5.77-5.162 5.808 5.808 0 0 1 5.77 5.162h12.295V33.968H38.387z"/><path d="M51.29 45.58a4.516 4.516 0 1 0 0 9.033 4.516 4.516 0 0 0 0-9.032zm0 2.194a2.323 2.323 0 1 1 0 4.645 2.323 2.323 0 0 1 0-4.645z"/></g></g></svg>