<svg width="100" height="86" xmlns="http://www.w3.org/2000/svg"><g fill="none" fill-rule="evenodd"><path d="M89.734 43A39.867 39.867 0 1 1 10 43a39.867 39.867 0 1 1 79.734 0z" fill="#FFF" fill-rule="nonzero"/><path d="M90.5 43c0 22.368-18.132 40.5-40.5 40.5S9.5 65.368 9.5 43 27.632 2.5 50 2.5 90.5 20.632 90.5 43z" stroke="#000"/><path d="M50 5C29.013 5 12 22.013 12 43s17.013 38 38 38 38-17.013 38-38S70.987 5 50 5zm0 7c17.12 0 31 13.88 31 31 0 17.12-13.88 31-31 31-17.12 0-31-13.88-31-31 0-17.12 13.88-31 31-31z" fill="red" fill-rule="nonzero"/><g fill="#000" fill-rule="nonzero"><path d="M73.032 46.613a4.645 4.645 0 1 0 0 9.29 4.645 4.645 0 0 0 0-9.29zm0 2.322a2.323 2.323 0 1 1 0 4.646 2.323 2.323 0 0 1 0-4.646z"/><path d="M71.935 39.129v6.427a5.807 5.807 0 0 1 6.879 5.185h1.045c.64-2.473.98-5.067.98-7.741 0-1.311-.08-2.603-.238-3.871h-8.666zM54.732 46.808l-3.349 7.188-.036.073a1.29 1.29 0 0 0 2.339 1.089l.02-.041.004-.012 3.684-7.9-2.662-.397zM38.387 44.365v10.248a1.29 1.29 0 1 0 2.58 0V44.75l-2.58-.386z"/><path d="M36.472 29.326l1.08-1.08a1.032 1.032 0 1 1 1.46 1.46l-.945.946 2.749 2.749c.363.363.855.567 1.368.567H56.84a2.71 2.71 0 0 1 2.71 2.71v5.984a1.935 1.935 0 0 1-1.936-1.936v-3.92c0-.64-.52-1.16-1.161-1.16v4.358c0 2.108 1.543 3.9 3.628 4.21l9.148 1.368-1.657 1.84-5.958-.89v8.08a1.29 1.29 0 0 1-2.58 0v-6.799c0-.958-.702-1.772-1.65-1.914l-19.815-2.961-4.64 5.53 1.847 4.35a1.29 1.29 0 0 1-2.376 1.009l-2.156-5.08a1.29 1.29 0 0 1 .2-1.333l4.131-4.924-3.07-.458.306-2.042 2.995.447-3.341-8.935-2.959 2.311a1.032 1.032 0 0 1-1.592-1.2l1.991-4.93.476-1.176-.913-.161a.58.58 0 0 1 .202-1.144l4.067.717c.26.046.5.172.688.359l3.048 3.048z"/></g></g></svg>