<svg width="115" height="86" xmlns="http://www.w3.org/2000/svg"><g transform="translate(8 15)" fill="none" fill-rule="evenodd"><rect stroke="#000" stroke-width="2" fill="#FFF" x="1" y="1" width="98" height="48" rx="6"/><g fill="#000" fill-rule="nonzero"><path d="M8.56 14.135l1.652 3.68c.856-.748 1.689-1.29 2.5-1.629.811-.338 1.823-.504 3.036-.499.814.02 1.53.291 2.148.815.619.524.944 1.183.977 1.979-.04.97-.586 1.901-1.64 2.794-1.056.892-2.384 1.513-3.985 1.862v3.415c.317-.149.665-.24 1.043-.271.379-.033.76-.046 1.144-.04 1.962.086 3.206.559 3.734 1.42.527.86.756 1.6.686 2.217-.067 1.433-.614 2.48-1.64 3.143-1.028.663-2.266.99-3.717.981a18.298 18.298 0 0 1-3.348-.304c-1.167-.21-2.149-.567-2.947-1.07l.536 4.346c.11.044.861.221 2.254.532 1.394.31 2.77.488 4.13.532 2.98-.103 5.256-.983 6.825-2.639 1.569-1.655 2.36-3.466 2.371-5.432-.046-1.341-.455-2.453-1.227-3.334-.772-.882-1.63-1.556-2.576-2.024-.945-.467-1.701-.751-2.268-.85 1.302-.182 2.448-.829 3.437-1.94.99-1.113 1.51-2.536 1.563-4.27-.084-1.728-.81-3.093-2.177-4.096-1.367-1.002-2.873-1.514-4.52-1.535-1.329.034-2.778.287-4.347.759-1.569.472-2.783.958-3.644 1.458zM36.937 12.272c-2.54.065-4.57 1.255-6.094 3.57C29.32 18.158 28.54 21.21 28.5 25c.04 3.79.82 6.842 2.344 9.158 1.524 2.315 3.555 3.505 6.094 3.57 2.539-.065 4.57-1.255 6.094-3.57 1.523-2.316 2.304-5.368 2.343-9.158-.039-3.615-.82-6.618-2.343-9.008-1.524-2.39-3.555-3.63-6.094-3.72zm0 3.859c1.224-.019 2.202.683 2.935 2.106C40.605 19.66 40.981 21.914 41 25c-.018 3.086-.394 5.34-1.127 6.763s-1.711 2.125-2.935 2.106c-1.224.019-2.202-.683-2.935-2.106-.733-1.423-1.109-3.677-1.128-6.763.019-3.086.395-5.34 1.128-6.763.733-1.423 1.711-2.125 2.935-2.106zM57.574 12.272c-2.54.065-4.57 1.255-6.094 3.57-1.524 2.316-2.305 5.368-2.344 9.158.04 3.79.82 6.842 2.344 9.158 1.523 2.315 3.555 3.505 6.094 3.57 2.539-.065 4.57-1.255 6.093-3.57 1.524-2.316 2.305-5.368 2.344-9.158-.039-3.615-.82-6.618-2.344-9.008-1.523-2.39-3.554-3.63-6.093-3.72zm0 3.859c1.224-.019 2.202.683 2.935 2.106.733 1.423 1.109 3.677 1.127 6.763-.018 3.086-.394 5.34-1.127 6.763s-1.711 2.125-2.935 2.106c-1.224.019-2.203-.683-2.936-2.106-.732-1.423-1.108-3.677-1.127-6.763.019-3.086.395-5.34 1.127-6.763.733-1.423 1.712-2.125 2.936-2.106zM72.53 37.418h3.75l.939-12.107 5 9.934 5-9.934.937 12.107h3.75l-1.562-17.384h-3.75l-4.375 8.692-4.375-8.692h-3.75z"/></g></g></svg>