<svg width="143" height="86" xmlns="http://www.w3.org/2000/svg"><g fill="none" fill-rule="evenodd"><path fill="#FFF" fill-rule="nonzero" d="M141 27H1v30.889h140z"/><path fill="red" fill-rule="nonzero" d="M138.986 30.045v24.959h-11.243L116.5 42.524l11.243-12.479zM116.5 30.045l-11.244 12.479 11.244 12.48H94.013L82.77 42.524l11.243-12.479zM82.77 30.045L71.527 42.524l11.243 12.48H60.283L49.04 42.524l11.243-12.479zM49.04 30.045L37.797 42.524l11.243 12.48H26.554L15.31 42.524l11.244-12.479zM15.31 30.045L4.067 42.524l11.243 12.48H4.067V30.045z"/><path stroke="#000" d="M141.5 27.562H1.438v30H141.5z"/></g></svg>