<svg width="100" height="86" xmlns="http://www.w3.org/2000/svg"><g fill="none" fill-rule="evenodd"><g transform="translate(10 3)"><rect fill="#FFF" fill-rule="nonzero" width="80" height="80" rx="4"/><rect stroke="#000" x=".5" y=".5" width="79" height="79" rx="6"/></g><path d="M15.803 6A2.797 2.797 0 0 0 13 8.803v68.394A2.797 2.797 0 0 0 15.803 80h68.394A2.797 2.797 0 0 0 87 77.197V8.803A2.797 2.797 0 0 0 84.197 6H15.803zM50 11.606L60.466 29.92h-6.542v26.16h6.542L50 74.394 39.534 56.08h6.542V29.92h-6.542L50 11.606z" fill="#0D69E1" fill-rule="nonzero"/></g></svg>