<svg width="110" height="80" xmlns="http://www.w3.org/2000/svg"><g fill="none" fill-rule="evenodd"><path d="M0 0h110v80H0z"/><g fill-rule="nonzero"><g transform="translate(5 6)"><rect fill="#000" y=".166" width="100" height="49.669" rx="6.3"/><path d="M6.567 1.821h86.866a4.9 4.9 0 0 1 4.9 4.9V43.28a4.9 4.9 0 0 1-4.9 4.9H6.567a4.9 4.9 0 0 1-4.9-4.9V6.72a4.9 4.9 0 0 1 4.9-4.9v.001z" fill="#FFF"/><path d="M37.5 12.583v19.246H15.625v2.484h31.952c.455-4.073 3.93-7.243 8.152-7.243 4.222 0 7.698 3.17 8.152 7.243H81.25v-21.73H37.5z" fill="#000"/><path d="M55.728 28.856c-3.539 0-6.407 2.85-6.407 6.364 0 3.515 2.868 6.364 6.407 6.364 3.538 0 6.406-2.85 6.406-6.364 0-3.515-2.868-6.364-6.406-6.364zm0 3.492a2.881 2.881 0 0 1 2.89 2.872 2.881 2.881 0 0 1-2.89 2.871 2.881 2.881 0 0 1-2.891-2.871 2.881 2.881 0 0 1 2.89-2.872h.001z" fill="#000"/></g><path d="M46.174 71.405c0 .743-.293 1.362-.878 1.855-.586.493-1.322.74-2.21.74-.94 0-1.69-.24-2.249-.723-.558-.481-.837-1.098-.837-1.85 0-.477.14-.91.42-1.297.28-.387.675-.695 1.185-.922v-.035c-.467-.246-.812-.516-1.036-.809-.224-.293-.336-.659-.336-1.098 0-.648.269-1.187.806-1.619.537-.431 1.22-.647 2.048-.647.867 0 1.56.206 2.077.618.518.413.776.937.776 1.573 0 .389-.122.771-.367 1.147s-.605.67-1.08.882v.034c.545.232.961.517 1.25.856.287.339.43.77.43 1.295h.001zm-1.383-4.203c0-.412-.16-.74-.482-.985-.32-.245-.73-.367-1.228-.367-.49 0-.892.115-1.205.347-.313.23-.47.543-.47.936 0 .277.08.517.237.72.157.202.396.382.715.54.143.07.35.16.621.272.27.111.534.204.79.277.386-.254.652-.518.8-.792a1.96 1.96 0 0 0 .222-.948zm.18 4.312c0-.354-.078-.638-.236-.852-.157-.214-.465-.429-.924-.645a5.894 5.894 0 0 0-.602-.237c-.29-.099-.58-.2-.869-.306-.35.189-.631.445-.843.769a1.96 1.96 0 0 0-.318 1.098c0 .52.18.95.542 1.29.362.338.821.508 1.378.508.568 0 1.022-.145 1.362-.434.34-.289.51-.686.51-1.19v-.001zm4.786 2.29h-1.395v-1.648h1.395v1.648zm8.496-2.422h-1.29v2.421h-1.12v-2.421h-4.16v-1.33l4.207-4.855h1.074v5.26h1.29v.925h-.001zm-2.41-.925v-3.885l-3.367 3.885h3.367zm5.859 3.346h-1.395v-1.647h1.395v1.647zm8.298 0h-5.882v-1.208l1.228-1.04c.41-.347.793-.692 1.147-1.035.747-.717 1.258-1.286 1.535-1.708.276-.422.414-.878.414-1.367 0-.447-.149-.797-.446-1.049-.298-.252-.713-.379-1.246-.379a4.03 4.03 0 0 0-1.15.185c-.428.13-.834.321-1.208.567h-.058v-1.214c.276-.135.645-.258 1.106-.37a5.678 5.678 0 0 1 1.339-.168c.89 0 1.589.213 2.095.64.506.425.758 1.002.758 1.73 0 .328-.041.633-.125.916a3.121 3.121 0 0 1-.37.807c-.152.239-.33.474-.535.705a13.54 13.54 0 0 1-.744.769c-.416.404-.846.797-1.29 1.176-.443.38-.857.731-1.242 1.055H70v.988z" fill="#8B8B8B"/></g></g></svg>