<svg width="140" height="277" xmlns="http://www.w3.org/2000/svg"><g fill="none" fill-rule="evenodd"><g transform="translate(19 81)"><rect fill="#FFF" fill-rule="nonzero" x="2" y="2.139" width="98" height="48.722" rx="6.3"/><rect stroke="#000" x=".5" y=".5" width="101" height="52" rx="6.16"/><path d="M7.941 3C5.204 3 3 5.223 3 7.985v37.03C3 47.777 5.204 50 7.941 50H94.06C96.796 50 99 47.777 99 45.015V7.985C99 5.223 96.796 3 94.059 3H7.94zm51.287 12.297c2.2.08 3.96 1.173 5.28 3.276 1.321 2.104 1.996 4.745 2.03 7.927-.034 3.335-.709 6.023-2.03 8.06-1.32 2.038-3.08 3.086-5.28 3.143-2.2-.057-3.96-1.105-5.28-3.143-1.321-2.037-2-4.725-2.035-8.06.034-3.335.714-6.023 2.034-8.06 1.32-2.038 3.08-3.086 5.28-3.143zm19.496 0c1.822 0 3.388.477 4.702 1.434 1.315.956 2.003 2.391 2.065 4.303-.047 1.265-.375 2.26-.984 2.978-.608.718-1.213 1.224-1.822 1.518-.608.293-.937.433-.984.423.054-.004.43.188 1.125.57.696.38 1.387.973 2.083 1.78.695.806 1.071 1.843 1.125 3.115.034 1.457-.507 2.845-1.624 4.166-1.117 1.32-3.012 2.027-5.686 2.119-2.675-.092-4.57-.798-5.687-2.119-1.117-1.32-1.662-2.709-1.628-4.166.053-1.272.43-2.31 1.125-3.115.695-.807 1.391-1.4 2.087-1.78.695-.382 1.067-.574 1.12-.57-.047.01-.37-.13-.98-.423-.608-.294-1.217-.8-1.826-1.518-.608-.718-.937-1.713-.984-2.978.063-1.912.75-3.343 2.065-4.299 1.315-.956 2.885-1.438 4.708-1.438zm-55.77.276h4.337l7.041 21.854H30.27l-1.354-4.371H21.33l-1.355 4.37h-4.063l7.041-21.853zm19.2 0h3.252v21.854h-3.794V20.49l-2.899 1.834-1.28-1.678 4.721-5.074zm36.57 2.849c-.835-.01-1.536.183-2.1.587-.565.405-.86 1.08-.883 2.025.124.854.622 1.608 1.491 2.257.87.649 1.367.99 1.492 1.024.124-.034.617-.375 1.486-1.024.87-.649 1.367-1.403 1.491-2.257-.022-.945-.318-1.62-.882-2.025-.564-.404-1.26-.598-2.095-.587zm-19.496.271c-1.06-.016-1.91.604-2.546 1.856-.635 1.253-.959 3.235-.975 5.951.016 2.716.34 4.698.975 5.95.635 1.253 1.485 1.873 2.546 1.857 1.06.016 1.906-.604 2.541-1.856.635-1.253.963-3.235.98-5.951-.017-2.716-.345-4.698-.98-5.95-.635-1.253-1.48-1.873-2.541-1.857zm-34.103 1.798l-2.709 9.29h5.413l-2.704-9.29zm53.599 7.104c-.044.015-.349.227-.914.636-.565.41-1.129.927-1.694 1.55-.565.622-.87 1.256-.913 1.909.045.95.43 1.644 1.151 2.083a4.423 4.423 0 0 0 2.37.65 4.423 4.423 0 0 0 2.369-.65c.722-.439 1.106-1.133 1.151-2.083-.043-.74-.348-1.417-.913-2.034-.565-.618-1.13-1.113-1.694-1.487-.565-.374-.87-.564-.913-.574z" fill="#0D69E1" fill-rule="nonzero"/></g><g transform="translate(19 142)"><rect fill="#FFF" fill-rule="nonzero" x="2" y="2.139" width="98" height="48.722" rx="3"/><rect stroke="#000" x=".5" y=".5" width="101" height="52" rx="6.16"/><path d="M7.941 3C5.204 3 3 5.223 3 7.985v37.03C3 47.777 5.204 50 7.941 50H94.06C96.796 50 99 47.777 99 45.015V7.985C99 5.223 96.796 3 94.059 3H7.94zM21.19 15.573h7.31c2.674.126 4.57.964 5.687 2.524s1.662 3.089 1.628 4.58c-.034 1.491-.714 3.016-2.034 4.575-1.32 1.56-3.08 2.403-5.281 2.528h-3.52v7.647h-3.79V15.573zm23.311 0h3.248v21.854h-3.79V20.49l-2.903 1.834-1.275-1.678 4.72-5.074zm12.468 0h3.252v21.854h-3.795V20.49l-2.902 1.834-1.275-1.678 4.72-5.074zm10.302 0h12.458l-1.085 3.552h-7.853v5.19c.425-.535.96-.902 1.602-1.095a6.23 6.23 0 0 1 1.919-.272c1.574.012 3.03.604 4.367 1.776 1.338 1.173 2.047 2.86 2.131 5.056-.028 2.243-.784 4.108-2.267 5.6-1.484 1.49-3.527 2.266-6.128 2.323-1.281-.046-2.442-.23-3.486-.548-1.043-.319-1.596-.502-1.658-.547l-.543-3.552c.679.438 1.48.735 2.4.886.92.15 1.833.22 2.744.209 1.151 0 2.236-.34 3.252-1.024 1.015-.683 1.555-1.71 1.623-3.075-.006-1.008-.33-1.932-.98-2.769-.648-.836-1.585-1.28-2.81-1.33-.812.05-1.487.29-2.03.716-.54.427-.95.738-1.221.926l-2.435-1.366V15.573zM24.979 18.85V26.5h2.44c1.129.011 2.12-.282 2.978-.886.858-.603 1.31-1.583 1.354-2.937-.045-1.355-.496-2.334-1.354-2.938-.858-.603-1.85-.901-2.978-.89h-2.44z" fill="#0D69E1" fill-rule="nonzero"/></g><g transform="translate(19 204)"><rect fill="#FFF" fill-rule="nonzero" x="2" y="2.139" width="98" height="48.722" rx="6.3"/><rect stroke="#000" x=".5" y=".5" width="101" height="52" rx="6.16"/><path d="M7.941 3C5.204 3 3 5.223 3 7.985v37.03C3 47.777 5.204 50 7.941 50H94.06C96.796 50 99 47.777 99 45.015V7.985C99 5.223 96.796 3 94.059 3H7.94zM50.6 15.066c2.34.004 4.224.872 5.651 2.608 1.427 1.736 2.162 4.312 2.201 7.731.029 3.386-.638 6.275-1.998 8.666-1.36 2.39-3.585 3.64-6.67 3.747-1.14-.05-2.174-.252-3.11-.605-.938-.353-1.436-.555-1.492-.605l-.428-3.356c.046.053.538.27 1.47.645.93.376 2.026.587 3.29.641 1.598-.09 2.768-.71 3.503-1.87.736-1.158 1.2-2.316 1.394-3.475.194-1.16.274-1.785.247-1.874a11.744 11.744 0 0 1-2.369 1.504 6.648 6.648 0 0 1-2.775.681c-.936.063-2.042-.333-3.317-1.193-1.275-.859-1.976-2.558-2.1-5.091.05-2.253.696-4.155 1.932-5.715 1.236-1.56 2.76-2.372 4.57-2.439zm-26.273.507h13.54v3.552h-9.75v5.19h7.853v3.28h-7.853v6.556h10.02v3.276h-13.81V15.573zm39.808 0h12.459l-1.086 3.552h-7.853v5.19c.425-.535.96-.902 1.602-1.095a6.23 6.23 0 0 1 1.919-.272c1.574.012 3.03.604 4.368 1.776 1.337 1.173 2.046 2.86 2.13 5.056-.028 2.243-.783 4.108-2.267 5.6-1.484 1.49-3.527 2.266-6.128 2.323-1.28-.046-2.442-.23-3.485-.548-1.044-.319-1.597-.502-1.66-.547l-.542-3.552c.679.438 1.48.735 2.4.886.92.15 1.838.22 2.749.209 1.15 0 2.231-.34 3.247-1.024 1.015-.683 1.56-1.71 1.628-3.075-.006-1.008-.335-1.932-.984-2.769-.649-.836-1.586-1.28-2.81-1.33-.813.05-1.488.29-2.03.716a28.62 28.62 0 0 1-1.217.926l-2.44-1.366V15.573zm-12.997 3.005c-1.196.08-2.083.573-2.66 1.482-.578.909-.864 1.872-.86 2.888.044 1.093.36 1.91.948 2.457.586.547 1.173.824 1.76.824 1.36-.113 2.401-.564 3.124-1.35.722-.785 1.087-1.231 1.094-1.343-.043-.418-.168-1.019-.375-1.798a6.335 6.335 0 0 0-1.028-2.146c-.479-.65-1.148-.986-2.003-1.014z" fill="#00A500" fill-rule="nonzero"/></g><g transform="translate(44 20)"><rect fill="#FFF" fill-rule="nonzero" x="2" y="2.139" width="49" height="48.722" rx="6.3"/><rect stroke="#000" x=".5" y=".5" width="52" height="52" rx="6.16"/><path d="M7.985 3A4.974 4.974 0 0 0 3 7.985v37.03A4.974 4.974 0 0 0 7.985 50h37.03A4.974 4.974 0 0 0 50 45.015V7.985A4.974 4.974 0 0 0 45.015 3H7.985zm.961 12.573h3.828l4.918 10.656 4.918-10.656h3.823l2.462 21.854h-4.1L23.43 21.31l-5.737 12.84-5.737-12.84-1.366 16.117h-4.1l2.457-21.854zm23.905 0h12.565l-1.09 3.552h-7.923v5.19a3.204 3.204 0 0 1 1.616-1.095 6.337 6.337 0 0 1 1.936-.272c1.588.012 3.057.604 4.406 1.776 1.349 1.173 2.064 2.86 2.15 5.056-.029 2.243-.791 4.108-2.288 5.6-1.497 1.49-3.558 2.266-6.182 2.323-1.292-.046-2.463-.23-3.516-.548-1.053-.319-1.611-.502-1.674-.547l-.547-3.552c.684.438 1.492.735 2.421.886.929.15 1.85.22 2.768.209 1.161 0 2.256-.34 3.28-1.024 1.025-.683 1.57-1.71 1.638-3.075-.005-1.008-.333-1.932-.988-2.769-.654-.836-1.6-1.28-2.835-1.33-.82.05-1.505.29-2.052.716a28.85 28.85 0 0 1-1.228.926l-2.457-1.366V15.573z" fill="#0D69E1" fill-rule="nonzero"/></g></g></svg>