<svg width="110" height="80" xmlns="http://www.w3.org/2000/svg"><g fill="none" fill-rule="evenodd"><path d="M0 0h110v80H0z"/><g fill-rule="nonzero"><g transform="translate(5 5)"><rect fill="#000" width="100" height="50" rx="6.3"/><rect fill="#FFF" x="1.429" y="1.429" width="97.143" height="47.143" rx="4.9"/><path d="M52.677 34.065c.215.163.477.251.746.251h5.978a10.938 10.938 0 1 0 5.928-11.279l-4.043-5.774 1.06-2.497h.642a1.641 1.641 0 1 0 0-3.282h-7.52a1.641 1.641 0 1 0 0 3.282h4.799l-.638 1.504H40.774a3.691 3.691 0 0 0-1.734-4.18l-.721-.41a1.64 1.64 0 0 1 .812-3.067h5.4a1.094 1.094 0 0 0 0-2.187h-5.4a3.828 3.828 0 0 0-1.895 7.155l.721.41c.68.388.95 1.233.619 1.943l-3.43 7.356a10.937 10.937 0 0 0-5.38-1.415c-6.041 0-10.938 4.897-10.938 10.938 0 6.04 4.897 10.937 10.938 10.937 6.04 0 10.937-4.897 10.937-10.937 0-3.158-1.364-6.161-3.743-8.238l.855-1.832 14.862 11.322zm-22.911 8.044a9.297 9.297 0 1 1 4.684-17.327l-2.374 5.091c-.143.305-.375.56-.667.728l-2.19 1.264a1.094 1.094 0 0 0 1.094 1.895l2.19-1.265a3.827 3.827 0 0 0 1.555-1.697l2.175-4.664a9.297 9.297 0 0 1-6.467 15.975zm40.468 0a9.297 9.297 0 0 1-9.174-7.793h9.445a1.504 1.504 0 0 0 1.232-2.366l-5.329-7.61a9.299 9.299 0 0 1 13.123 8.472 9.297 9.297 0 0 1-9.297 9.297zm-9.247-10.254a9.297 9.297 0 0 1 3.33-6.213l4.35 6.213h-7.68zm-5.3 0l4.961-11.69 2.832 4.045a10.937 10.937 0 0 0-4.141 7.645h-3.653.001zm-2.473-.475L39.122 20.645l.976-1.915h18.486l-5.37 12.65z" fill="#000"/></g><path d="M46.2 71.492c0 .754-.295 1.381-.883 1.881-.588.5-1.327.75-2.217.75-.946 0-1.699-.244-2.26-.732-.56-.489-.84-1.114-.84-1.875 0-.485.14-.923.422-1.316.281-.392.678-.704 1.19-.934v-.036c-.47-.25-.816-.523-1.04-.82-.225-.297-.338-.668-.338-1.113 0-.656.27-1.203.809-1.64.539-.438 1.225-.657 2.057-.657.87 0 1.566.209 2.086.627.52.418.779.95.779 1.594 0 .394-.123.782-.37 1.163-.245.38-.607.678-1.083.893v.035c.547.235.965.524 1.254.868.289.343.433.78.433 1.312h.001zm-1.39-4.26c0-.418-.16-.75-.483-.999-.322-.248-.733-.372-1.233-.372-.492 0-.896.118-1.21.352a1.12 1.12 0 0 0-.472.95c0 .28.08.524.237.729.159.205.398.387.718.547.145.07.353.163.624.276.272.113.536.207.794.281.387-.258.654-.525.803-.803.148-.277.223-.597.223-.96l-.001-.001zm.182 4.372c0-.36-.079-.648-.237-.865-.158-.217-.468-.434-.929-.653a5.886 5.886 0 0 0-.603-.24c-.22-.075-.51-.178-.873-.31a2.306 2.306 0 0 0-.847.778 2 2 0 0 0-.32 1.114c0 .527.182.963.546 1.306.363.344.824.516 1.382.516.57 0 1.027-.146 1.368-.44.342-.292.513-.695.513-1.206zm4.805 2.32h-1.4v-1.67h1.4v1.67zm8.531-2.455h-1.295v2.455h-1.125v-2.455H51.73V70.12l4.225-4.922h1.078v5.332h1.295v.939zm-2.42-.938v-3.937l-3.38 3.937h3.38zm5.883 3.393h-1.4v-1.67h1.4v1.67zm8.355-7.418l-3.949 7.418h-1.254l4.202-7.7h-4.97V65.2h5.971v1.307-.001z" fill="#8B8B8B"/></g></g></svg>