<svg width="100" height="86" xmlns="http://www.w3.org/2000/svg"><g transform="translate(10 3)" fill="none" fill-rule="evenodd"><rect fill="#FFF" fill-rule="nonzero" width="80" height="80" rx="6"/><rect stroke="#000" x=".5" y=".5" width="79" height="79" rx="6"/><path d="M5.79 3.05a2.799 2.799 0 0 0-2.805 2.804v68.41a2.799 2.799 0 0 0 2.806 2.803h32.927V3.051H5.79zm35.544 0v74.017H55.74v-50.09h-6.548l10.477-18.32 10.478 18.32h-6.55v50.09h10.664a2.799 2.799 0 0 0 2.806-2.803V5.854a2.799 2.799 0 0 0-2.806-2.803H41.334zM12.526 8.659H28.24a3.918 3.918 0 0 1 3.929 3.925v18.318c0 .725-.583 1.308-1.309 1.308H9.905A1.304 1.304 0 0 1 8.597 30.9V12.583a3.918 3.918 0 0 1 3.929-3.925zm-.786 1.7c-.726 0-1.308.586-1.308 1.31v6.147c0 .725.582 1.311 1.308 1.311h17.549c.725 0 1.308-.586 1.308-1.31v-6.148c0-.724-.583-1.31-1.308-1.31h-17.55zm.915 14.852a1.832 1.832 0 1 0 1.835 1.83c0-1.012-.822-1.83-1.835-1.83zm15.455 0a1.832 1.832 0 1 0 1.831 1.83c0-1.012-.818-1.83-1.83-1.83zM9.646 33.516h3.143v2.355a1.57 1.57 0 0 1-3.143 0v-2.355zm18.331 0h3.143v2.355a1.57 1.57 0 0 1-3.143 0v-2.355zm-11.523 6.543h7.857V53.14h6.55L20.382 71.46 9.905 53.14h6.55V40.06z" fill="#0D69E1" fill-rule="nonzero"/><path d="M70.957 3.05L2.985 70.963v3.302a2.799 2.799 0 0 0 2.806 2.803h3.304L77.067 9.156V5.854a2.799 2.799 0 0 0-2.806-2.803h-3.304z" fill="red" fill-rule="nonzero"/></g></svg>