<svg width="115" height="120" xmlns="http://www.w3.org/2000/svg"><g transform="translate(9 8)" fill="none" fill-rule="evenodd"><rect stroke="#000" stroke-width="2" fill="#FFF" x="1" y="1" width="98" height="98" rx="6"/><g fill="#000" fill-rule="nonzero"><path d="M9.357 59.66l2.5 2.804a24.31 24.31 0 0 1 2.383-2.209c.814-.655 1.686-1.002 2.617-1.04 1.108.038 1.984.385 2.629 1.04.644.656.973 1.392.987 2.21-.015 1.209-.264 2.218-.747 3.026-.484.81-1.113 1.64-1.887 2.493a96.238 96.238 0 0 1-4.319 4.802 97.86 97.86 0 0 1-4.788 4.636v3.739h15c.313-.792.547-1.545.703-2.26.157-.713.235-1.31.235-1.791H14.357a397.958 397.958 0 0 1 4.531-4.63c1.4-1.404 2.597-2.724 3.594-3.961.794-.915 1.36-1.78 1.697-2.594.336-.814.5-1.967.49-3.46-.084-1.91-.852-3.467-2.304-4.675-1.452-1.207-3.08-1.83-4.883-1.87-1.862.023-3.45.379-4.765 1.069a11.133 11.133 0 0 0-3.36 2.67zM42.821 60.283l1.25-4.05H29.696v12.152l2.813 1.558a31.92 31.92 0 0 0 1.406-1.052c.625-.487 1.406-.76 2.344-.818 1.412.059 2.493.565 3.242 1.52.748.954 1.126 2.005 1.133 3.155-.079 1.558-.704 2.726-1.875 3.505-1.172.78-2.422 1.169-3.75 1.169a18.51 18.51 0 0 1-3.17-.24c-1.062-.171-1.985-.507-2.768-1.007l.625 4.051c.072.052.71.26 1.914.623 1.205.364 2.546.572 4.024.624 3-.065 5.358-.948 7.07-2.65 1.712-1.7 2.585-3.83 2.617-6.387-.098-2.506-.918-4.428-2.46-5.765-1.544-1.337-3.224-2.012-5.04-2.025a7.276 7.276 0 0 0-2.215.311 3.66 3.66 0 0 0-1.847 1.247v-5.92h9.062zM57.622 55.92c-2.539.066-4.57 1.26-6.094 3.584-1.523 2.324-2.304 5.388-2.343 9.193.039 3.804.82 6.868 2.343 9.192 1.524 2.324 3.555 3.519 6.094 3.584 2.54-.065 4.57-1.26 6.094-3.584 1.523-2.324 2.305-5.388 2.344-9.192-.04-3.63-.82-6.643-2.344-9.043-1.524-2.399-3.555-3.643-6.094-3.733zm0 3.873c1.224-.018 2.203.687 2.935 2.115.733 1.428 1.109 3.691 1.128 6.789-.019 3.097-.395 5.36-1.128 6.788-.732 1.428-1.71 2.133-2.935 2.115-1.224.018-2.202-.687-2.935-2.115-.733-1.428-1.109-3.69-1.127-6.788.018-3.098.394-5.36 1.127-6.79.733-1.427 1.711-2.132 2.935-2.114zM72.58 81.16h3.75l.936-12.152 5 9.972 5-9.972.938 12.153h3.75l-1.563-17.45h-3.75l-4.375 8.725-4.375-8.725h-3.75z"/><g><path d="M8.078 40.028c.017.054.45.431 1.297 1.131s2.006 1.4 3.478 2.101c1.473.7 3.155 1.077 5.047 1.131 3.138-.13 5.534-1.039 7.187-2.727 1.654-1.687 2.487-3.375 2.5-5.063-.026-1.876-.677-3.421-1.953-4.635s-3.02-2.058-5.234-2.532c-1.778-.318-3.301-.706-4.57-1.163-1.27-.457-1.934-1.212-1.993-2.265-.039-.701.274-1.48.938-2.337.664-.857 1.914-1.324 3.75-1.402 1.875.104 3.281.52 4.219 1.246.937.727 1.406 1.143 1.406 1.247l2.812-3.117c-.078-.142-.937-.714-2.578-1.713-1.64-1-3.594-1.571-5.86-1.714-2.701.052-4.876.805-6.523 2.259-1.647 1.454-2.493 3.298-2.539 5.531-.123 1.162.28 2.422 1.211 3.778.931 1.357 3.132 2.383 6.602 3.077 2.05.37 3.47.809 4.256 1.318s1.222 1.01 1.31 1.505c.086.494.106.904.059 1.228.045.552-.28 1.24-.977 2.065-.696.824-2.038 1.279-4.023 1.363-2.195-.119-3.866-.593-5.011-1.424-1.146-.831-1.723-1.306-1.73-1.425l-3.08 2.537zM30.395 18.839v3.739h6.875v21.19h4.375v-21.19h6.875v-3.739zM61.612 18.216c-3.432.094-5.988 1.374-7.667 3.84-1.68 2.464-2.517 5.547-2.512 9.247-.005 3.7.832 6.783 2.512 9.249 1.68 2.465 4.235 3.744 7.667 3.839 3.432-.095 5.988-1.374 7.667-3.84 1.68-2.465 2.517-5.547 2.512-9.248.005-3.7-.832-6.783-2.512-9.248-1.68-2.465-4.235-3.745-7.667-3.84zm0 4.05c1.751.027 3.17.832 4.258 2.416 1.087 1.584 1.647 3.79 1.68 6.621-.033 2.83-.593 5.038-1.68 6.622-1.087 1.584-2.507 2.39-4.258 2.415-1.751-.026-3.17-.83-4.258-2.415-1.087-1.584-1.647-3.791-1.68-6.622.033-2.83.593-5.037 1.68-6.621 1.087-1.584 2.507-2.39 4.258-2.415zM75.982 18.839v24.929h4.375v-8.725h4.063c2.539-.143 4.57-1.104 6.094-2.883 1.523-1.778 2.304-3.518 2.343-5.22.04-1.7-.585-3.44-1.875-5.219-1.289-1.778-3.476-2.74-6.562-2.882h-8.438zm4.375 3.74h2.813c1.302-.014 2.448.324 3.437 1.012.99.688 1.51 1.805 1.563 3.35-.052 1.545-.573 2.662-1.563 3.35-.99.688-2.135 1.025-3.437 1.012h-2.813v-8.725z"/></g></g></g></svg>