<svg width="142" height="216" xmlns="http://www.w3.org/2000/svg"><g fill="none" fill-rule="evenodd"><path d="M0 0h142v216H0z"/><path d="M7.057 1.08h29.69c2.738 0 4.978 2.256 4.978 5.013v69.823c0 2.757-2.24 5.013-4.978 5.013H7.057c-2.738 0-4.978-2.256-4.978-5.013V6.093c0-2.757 2.24-5.013 4.978-5.013" fill="#FFF" fill-rule="nonzero"/><path d="M7.057.58h29.69c3.015 0 5.478 2.48 5.478 5.513v69.823c0 3.033-2.463 5.513-5.478 5.513H7.057c-3.015 0-5.478-2.48-5.478-5.513V6.093C1.58 3.06 4.042.58 7.057.58z" stroke="#000"/><path d="M36.747 2.208c2.122 0 3.858 1.748 3.858 3.885v69.823c0 2.137-1.736 3.885-3.858 3.885H7.057c-2.121 0-3.858-1.748-3.858-3.885V6.093c0-2.137 1.737-3.885 3.858-3.885h29.69zm0 1.253H7.057c-1.382 0-2.522 1.096-2.608 2.466l-.005.166v69.823a2.633 2.633 0 0 0 2.448 2.627l.165.005h29.69c1.382 0 2.522-1.096 2.608-2.466l.005-.166V6.093a2.633 2.633 0 0 0-2.448-2.627l-.165-.005z" fill="#000" fill-rule="nonzero"/><path d="M39.361 19.299L4.443 39.41v-8.34L39.36 10.96v8.339h.001zm0 15.798L4.443 55.208v-8.34l34.918-20.11v8.339zm0 15.841L4.443 71.05v-8.34L39.36 42.598v8.34h.001z" fill="red" fill-rule="nonzero"/><path d="M56.057 1.08h29.69c2.738 0 4.978 2.256 4.978 5.013v69.823c0 2.757-2.24 5.013-4.978 5.013h-29.69c-2.738 0-4.978-2.256-4.978-5.013V6.093c0-2.757 2.24-5.013 4.978-5.013" fill="#FFF" fill-rule="nonzero"/><path d="M56.057.58h29.69c3.015 0 5.478 2.48 5.478 5.513v69.823c0 3.033-2.463 5.513-5.478 5.513h-29.69c-3.015 0-5.478-2.48-5.478-5.513V6.093C50.58 3.06 53.042.58 56.057.58z" stroke="#000"/><path d="M85.747 2.208c2.122 0 3.858 1.748 3.858 3.885v69.823c0 2.137-1.736 3.885-3.858 3.885h-29.69c-2.121 0-3.858-1.748-3.858-3.885V6.093c0-2.137 1.737-3.885 3.858-3.885h29.69zm0 1.253h-29.69c-1.382 0-2.522 1.096-2.608 2.466l-.005.166v69.823a2.633 2.633 0 0 0 2.448 2.627l.165.005h29.69c1.382 0 2.522-1.096 2.608-2.466l.005-.166V6.093a2.633 2.633 0 0 0-2.448-2.627l-.165-.005z" fill="#000" fill-rule="nonzero"/><path d="M88.36 43.018L53.441 63.129v-8.34l34.92-20.11v8.339h-.001zm0-15.799L53.441 47.331v-8.34l34.92-20.11v8.338h-.001z" fill="red" fill-rule="nonzero"/><path d="M106.057 1.08h29.69c2.738 0 4.978 2.256 4.978 5.013v69.823c0 2.757-2.24 5.013-4.978 5.013h-29.69c-2.738 0-4.978-2.256-4.978-5.013V6.093c0-2.757 2.24-5.013 4.978-5.013" fill="#FFF" fill-rule="nonzero"/><path d="M106.057.58h29.69c3.015 0 5.478 2.48 5.478 5.513v69.823c0 3.033-2.463 5.513-5.478 5.513h-29.69c-3.015 0-5.478-2.48-5.478-5.513V6.093c0-3.033 2.463-5.513 5.478-5.513h0z" stroke="#000"/><path d="M135.747 2.208c2.122 0 3.858 1.748 3.858 3.885v69.823c0 2.137-1.736 3.885-3.858 3.885h-29.69c-2.121 0-3.858-1.748-3.858-3.885V6.093c0-2.137 1.737-3.885 3.858-3.885h29.69zm0 1.253h-29.69c-1.382 0-2.522 1.096-2.608 2.466l-.005.166v69.823a2.633 2.633 0 0 0 2.448 2.627l.165.005h29.69c1.382 0 2.522-1.096 2.608-2.466l.005-.166V6.093a2.633 2.633 0 0 0-2.448-2.627l-.165-.005z" fill="#000" fill-rule="nonzero"/><path fill="red" fill-rule="nonzero" d="M138.36 35.097l-34.919 20.111v-8.339l34.919-20.112z"/><path d="M36.991 118.08H7.093a5.028 5.028 0 0 0-5.013 5.013v69.823a5.028 5.028 0 0 0 5.013 5.013H36.99a5.028 5.028 0 0 0 5.014-5.013v-69.823a5.028 5.028 0 0 0-5.014-5.013" fill="#FFF" fill-rule="nonzero"/><path d="M36.991 117.58c3.034 0 5.514 2.48 5.514 5.513v69.823c0 3.033-2.48 5.513-5.514 5.513H7.093c-3.033 0-5.513-2.48-5.513-5.513v-69.823c0-3.033 2.48-5.513 5.513-5.513h29.898z" stroke="#000"/><path d="M36.99 119.208a3.896 3.896 0 0 1 3.88 3.685l.005.2v69.823a3.896 3.896 0 0 1-3.685 3.88l-.2.005H7.093a3.897 3.897 0 0 1-3.88-3.685l-.005-.2v-69.823a3.897 3.897 0 0 1 3.685-3.88l.2-.005H36.99zm0 1.253H7.093a2.64 2.64 0 0 0-2.632 2.632v69.823a2.64 2.64 0 0 0 2.632 2.632H36.99a2.64 2.64 0 0 0 2.632-2.632v-69.823a2.64 2.64 0 0 0-2.632-2.632z" fill="#000" fill-rule="nonzero"/><path d="M4.46 136.299l35.164 20.111v-8.34L4.46 127.96v8.339zm0 15.798l35.164 20.111v-8.34L4.46 143.759v8.339-.001zm0 15.841l35.164 20.112v-8.34L4.46 159.598v8.34z" fill="red" fill-rule="nonzero"/><g><path d="M85.991 118.08H56.093a5.028 5.028 0 0 0-5.013 5.013v69.823a5.028 5.028 0 0 0 5.013 5.013H85.99a5.028 5.028 0 0 0 5.014-5.013v-69.823a5.028 5.028 0 0 0-5.014-5.013" fill="#FFF" fill-rule="nonzero"/><path d="M85.991 117.58c3.034 0 5.514 2.48 5.514 5.513v69.823c0 3.033-2.48 5.513-5.514 5.513H56.093c-3.033 0-5.513-2.48-5.513-5.513v-69.823c0-3.033 2.48-5.513 5.513-5.513h29.898z" stroke="#000"/><path d="M85.99 119.208a3.896 3.896 0 0 1 3.88 3.685l.005.2v69.823a3.896 3.896 0 0 1-3.685 3.88l-.2.005H56.093a3.897 3.897 0 0 1-3.88-3.685l-.005-.2v-69.823a3.897 3.897 0 0 1 3.685-3.88l.2-.005H85.99zm0 1.253H56.093a2.64 2.64 0 0 0-2.632 2.632v69.823a2.64 2.64 0 0 0 2.632 2.632H85.99a2.64 2.64 0 0 0 2.632-2.632v-69.823a2.64 2.64 0 0 0-2.632-2.632z" fill="#000" fill-rule="nonzero"/><path d="M53.461 160.018l35.165 20.111v-8.34L53.46 151.68v8.339l.001-.001zm0-15.799l35.165 20.112v-8.34l-35.165-20.11v8.338z" fill="red" fill-rule="nonzero"/></g><g><path d="M135.991 118.08h-29.898a5.028 5.028 0 0 0-5.013 5.013v69.823a5.028 5.028 0 0 0 5.013 5.013h29.898c2.758 0 5.014-2.256 5.014-5.013v-69.823a5.028 5.028 0 0 0-5.014-5.013" fill="#FFF" fill-rule="nonzero"/><path d="M135.991 117.58c3.034 0 5.514 2.48 5.514 5.513v69.823c0 3.033-2.48 5.513-5.514 5.513h-29.898c-3.033 0-5.513-2.48-5.513-5.513v-69.823c0-3.033 2.48-5.513 5.513-5.513h29.898z" stroke="#000"/><path d="M135.991 119.208a3.896 3.896 0 0 1 3.88 3.685l.005.2v69.823a3.896 3.896 0 0 1-3.685 3.88l-.2.005h-29.898a3.897 3.897 0 0 1-3.88-3.685l-.005-.2v-69.823a3.897 3.897 0 0 1 3.685-3.88l.2-.005h29.898zm0 1.253h-29.898a2.64 2.64 0 0 0-2.632 2.632v69.823a2.64 2.64 0 0 0 2.632 2.632h29.898a2.64 2.64 0 0 0 2.632-2.632v-69.823a2.64 2.64 0 0 0-2.632-2.632z" fill="#000" fill-rule="nonzero"/><path fill="red" fill-rule="nonzero" d="M103.461 152.097l35.165 20.111v-8.339l-35.165-20.112z"/></g><path d="M11.352 97H6.629v-.89h1.816v-5.848H6.63v-.797c.246 0 .51-.02.79-.062.282-.04.495-.1.64-.178.18-.098.32-.222.424-.372.104-.15.163-.353.18-.607h.907v7.863h1.782V97h-.001zm4.16 0h-1.4v-1.67h1.4V97zm8.531-2.455h-1.295V97h-1.125v-2.455h-4.178v-1.348l4.225-4.922h1.078v5.332h1.295v.938zm-2.42-.938V89.67l-3.38 3.937h3.38zM27.506 97h-1.4v-1.67h1.4V97zm7.834 0h-4.723v-.89h1.817v-5.848h-1.817v-.797c.246 0 .51-.02.791-.062.281-.04.494-.1.639-.178.18-.098.321-.222.425-.372.103-.15.163-.353.178-.607h.909v7.863h1.78V97h.001zM11.352 215H6.629v-.89h1.816v-5.848H6.63v-.797c.246 0 .51-.02.79-.062.282-.04.495-.1.64-.178.18-.098.32-.222.424-.372.104-.15.163-.353.18-.607h.907v7.863h1.782V215h-.001zm4.16 0h-1.4v-1.67h1.4V215zm8.531-2.455h-1.295V215h-1.125v-2.455h-4.178v-1.348l4.225-4.922h1.078v5.332h1.295v.938zm-2.42-.938v-3.937l-3.38 3.937h3.38zM27.506 215h-1.4v-1.67h1.4V215zm8.531-2.455h-1.295V215h-1.125v-2.455H29.44v-1.348l4.225-4.922h1.078v5.332h1.295v.938h-.001zm-2.42-.938v-3.937l-3.38 3.937h3.38zM60.352 97h-4.723v-.89h1.816v-5.848H55.63v-.797c.246 0 .51-.02.79-.062.282-.04.495-.1.64-.178.18-.098.32-.222.424-.372.104-.15.163-.353.18-.607h.907v7.863h1.782V97h-.001zm4.16 0h-1.4v-1.67h1.4V97zm8.531-2.455h-1.295V97h-1.125v-2.455h-4.178v-1.348l4.225-4.922h1.078v5.332h1.295v.938zm-2.42-.938V89.67l-3.38 3.937h3.38zM76.506 97h-1.4v-1.67h1.4V97zm8.332 0h-5.906v-1.225c.41-.351.82-.703 1.233-1.054.395-.337.78-.687 1.151-1.05.75-.726 1.264-1.303 1.541-1.73a2.5 2.5 0 0 0 .416-1.386c0-.453-.149-.808-.448-1.064-.299-.256-.716-.384-1.25-.384-.356 0-.741.063-1.155.188-.43.132-.838.326-1.213.574h-.059v-1.23c.278-.137.648-.262 1.11-.375a5.65 5.65 0 0 1 1.346-.17c.894 0 1.595.216 2.103.647.508.432.762 1.017.762 1.755 0 .332-.042.642-.126.929-.084.287-.208.56-.372.817-.153.242-.331.48-.536.715-.206.234-.455.494-.748.78-.417.41-.85.807-1.294 1.192-.446.384-.862.74-1.248 1.069h4.693V97zM60.352 215h-4.723v-.89h1.816v-5.848H55.63v-.797c.246 0 .51-.02.79-.062.282-.04.495-.1.64-.178.18-.098.32-.222.424-.372.104-.15.163-.353.18-.607h.907v7.863h1.782V215h-.001zm4.16 0h-1.4v-1.67h1.4V215zm8.531-2.455h-1.295V215h-1.125v-2.455h-4.178v-1.348l4.225-4.922h1.078v5.332h1.295v.938zm-2.42-.938v-3.937l-3.38 3.937h3.38zM76.506 215h-1.4v-1.67h1.4V215zm8.262-2.771c0 .406-.075.794-.223 1.166-.136.351-.344.67-.61.937-.287.277-.63.492-1.004.63-.389.146-.84.22-1.35.22-.477 0-.936-.05-1.378-.15a5.76 5.76 0 0 1-1.119-.36v-1.236h.082c.32.203.695.376 1.125.518.43.143.852.214 1.266.214.277 0 .546-.04.805-.117a1.652 1.652 0 0 0 1.085-1.014c.087-.234.131-.506.131-.814 0-.301-.052-.555-.155-.762a1.286 1.286 0 0 0-.43-.498 1.892 1.892 0 0 0-.742-.314 4.805 4.805 0 0 0-.976-.09c-.343 0-.674.023-.993.07-.318.047-.593.094-.823.14v-4.494h5.25v1.026h-4.12v2.32c.324-.03.649-.046.974-.047.472 0 .886.04 1.242.12.355.08.681.222.978.425.313.215.555.492.727.832.172.34.258.766.258 1.278zM110.352 97h-4.723v-.89h1.816v-5.848h-1.816v-.797c.246 0 .51-.02.79-.062.282-.04.495-.1.64-.178.18-.098.32-.222.424-.372.104-.15.163-.353.18-.607h.907v7.863h1.782V97zm4.16 0h-1.4v-1.67h1.4V97zm8.531-2.455h-1.295V97h-1.125v-2.455h-4.178v-1.348l4.225-4.922h1.078v5.332h1.295v.938zm-2.42-.938V89.67l-3.38 3.937h3.38zM126.506 97h-1.4v-1.67h1.4V97zm7.564-4.201c.188.168.342.379.463.633s.182.582.182.984c0 .398-.072.764-.217 1.096-.142.328-.35.623-.61.867-.296.275-.65.482-1.034.606-.396.131-.83.197-1.303.197a5.98 5.98 0 0 1-1.43-.173 6.72 6.72 0 0 1-1.154-.378v-1.225h.088c.332.219.722.4 1.172.545a4.22 4.22 0 0 0 1.3.217c.246 0 .508-.041.786-.123.277-.082.501-.203.673-.363a1.71 1.71 0 0 0 .402-.569c.088-.207.132-.468.132-.785 0-.312-.05-.571-.15-.776a1.193 1.193 0 0 0-.413-.484 1.615 1.615 0 0 0-.639-.249 4.575 4.575 0 0 0-.808-.067h-.528v-.973h.41c.594 0 1.068-.124 1.421-.372.354-.248.53-.61.53-1.087a1.1 1.1 0 0 0-.134-.553 1.1 1.1 0 0 0-.375-.39 1.686 1.686 0 0 0-.54-.211 3.27 3.27 0 0 0-.65-.059c-.37 0-.765.067-1.183.2-.418.132-.813.32-1.184.562h-.058v-1.224c.277-.137.647-.263 1.11-.378a5.56 5.56 0 0 1 1.345-.173c.426 0 .8.039 1.125.117.324.078.617.203.879.375.281.187.494.414.638.68.145.265.217.576.217.931 0 .485-.17.907-.512 1.269-.321.35-.745.588-1.21.682v.082c.187.032.402.097.644.197s.447.223.615.372zM110.352 215h-4.723v-.89h1.816v-5.848h-1.816v-.797c.246 0 .51-.02.79-.062.282-.04.495-.1.64-.178.18-.098.32-.222.424-.372.104-.15.163-.353.18-.607h.907v7.863h1.782V215zm4.16 0h-1.4v-1.67h1.4V215zm8.531-2.455h-1.295V215h-1.125v-2.455h-4.178v-1.348l4.225-4.922h1.078v5.332h1.295v.938zm-2.42-.938v-3.937l-3.38 3.937h3.38zm5.883 3.393h-1.4v-1.67h1.4V215zm8.46-2.83c0 .887-.291 1.61-.875 2.17-.584.561-1.3.842-2.148.842-.43 0-.82-.067-1.172-.2a2.686 2.686 0 0 1-.931-.591c-.336-.325-.595-.754-.777-1.29-.181-.535-.272-1.18-.272-1.933 0-.773.083-1.459.249-2.057.166-.597.43-1.129.794-1.593a3.492 3.492 0 0 1 1.33-1.035c.543-.248 1.176-.372 1.899-.372.23 0 .423.01.58.03.156.02.314.054.474.105v1.12h-.058a2.172 2.172 0 0 0-.496-.168 2.902 2.902 0 0 0-.676-.079c-.84 0-1.51.263-2.01.788-.5.526-.791 1.236-.873 2.13.328-.2.651-.35.97-.454.358-.11.73-.161 1.104-.155.371 0 .698.034.982.102.283.069.573.206.87.413a2.3 2.3 0 0 1 .776.903c.174.363.26.804.26 1.324zm-1.189.047c0-.363-.053-.664-.16-.903a1.547 1.547 0 0 0-.531-.62 1.494 1.494 0 0 0-.598-.247 3.895 3.895 0 0 0-1.611.059c-.285.078-.578.2-.879.363a5.96 5.96 0 0 0-.023.55c0 .618.063 1.105.19 1.463.127.357.302.64.524.847.18.171.374.297.583.377.21.08.437.12.683.12.566 0 1.012-.172 1.336-.518.324-.346.486-.843.486-1.491z" fill="#8B8B8B" fill-rule="nonzero"/></g></svg>