<svg width="100" height="86" xmlns="http://www.w3.org/2000/svg"><g fill="none" fill-rule="evenodd"><path d="M89.734 43A39.867 39.867 0 1 1 10 43a39.867 39.867 0 1 1 79.734 0z" fill="#FFF" fill-rule="nonzero"/><path d="M90.5 43c0 22.368-18.132 40.5-40.5 40.5S9.5 65.368 9.5 43 27.632 2.5 50 2.5 90.5 20.632 90.5 43z" stroke="#000"/><path d="M50 5C29.013 5 12 22.013 12 43s17.013 38 38 38 38-17.013 38-38S70.987 5 50 5zm0 7c17.12 0 31 13.88 31 31 0 17.12-13.88 31-31 31-17.12 0-31-13.88-31-31 0-17.12 13.88-31 31-31z" fill="red" fill-rule="nonzero"/><g fill-rule="nonzero"><path d="M42.115 37.57a2.06 2.06 0 0 0-1.921 1.322l-3.444 8.966a2.31 2.31 0 0 0-2.315 2.315v5.659a2.31 2.31 0 0 0 2.315 2.314h26.235a2.31 2.31 0 0 0 2.315-2.314v-5.659a2.31 2.31 0 0 0-2.315-2.315l-3.444-8.966a2.06 2.06 0 0 0-1.921-1.322H42.115zm.41 2.572H57.21c.532 0 1.01.327 1.201.824l2.645 6.892H38.679l2.644-6.892c.19-.497.67-.824 1.202-.824zm-3.075 9.13a2.7 2.7 0 1 1 0 5.402 2.7 2.7 0 0 1 0-5.401zm20.834 0a2.7 2.7 0 1 1 0 5.402 2.7 2.7 0 0 1 0-5.401zM37.007 59.947v3.344a2.572 2.572 0 1 0 5.144 0v-3.344h-5.144z" fill="#000"/><path fill="#FF8000" d="M37.007 19.565l5.144 10.668-9.002-2.308 8.964 9.645h15.47l10.289-12.861-10.289 5.145 5.144-14.147-8.616 6.43-6.816-7.716-2.616 8.098z"/><path fill="red" d="M47.295 23.938v4.63l-2.572-1.029 2.572 7.459 1.543-1.286 1.029 1.286 1.029-1.286 1.543 1.286 2.572-8.359-2.572 2.314.257-5.272-3.343 3.986z"/><path d="M57.583 59.947v3.344a2.572 2.572 0 0 0 5.144 0v-3.344h-5.144z" fill="#000"/></g></g></svg>