<svg width="95" height="136" xmlns="http://www.w3.org/2000/svg"><g transform="translate(5 4)" fill="none" fill-rule="evenodd"><rect stroke="#000" fill="#FFF" x=".5" y=".5" width="85" height="127" rx="6"/><g fill-rule="nonzero"><path d="M6.03 3A3.018 3.018 0 0 0 3 6.02v115.96A3.018 3.018 0 0 0 6.03 125h73.94a3.018 3.018 0 0 0 3.03-3.02V6.02A3.018 3.018 0 0 0 79.97 3H6.03zm7.508 19h58.924C75.53 22 78 24.4 78 27.38v57.24C78 87.6 75.53 90 72.462 90H13.538C10.47 90 8 87.6 8 84.62V27.38C8 24.4 10.47 22 13.538 22zm.356 77.396c1.29.002 2.327.475 3.114 1.42.786.944 1.19 2.348 1.212 4.208.015 1.842-.354 3.41-1.103 4.71-.748 1.301-1.97 1.98-3.67 2.04a5.598 5.598 0 0 1-1.716-.33c-.516-.191-.79-.3-.822-.328l-.235-1.827c.026.03.294.147.807.352.513.204 1.118.321 1.814.35.88-.048 1.523-.388 1.928-1.019.406-.63.663-1.26.77-1.89.106-.631.15-.971.136-1.02-.38.31-.812.584-1.303.82a3.706 3.706 0 0 1-1.53.37c-.516.033-1.124-.183-1.826-.65-.703-.468-1.087-1.39-1.156-2.767.028-1.225.38-2.266 1.061-3.114.68-.849 1.522-1.289 2.519-1.325zm.295 1.91c-.658.043-1.144.313-1.462.808a2.837 2.837 0 0 0-.473 1.57c.025.595.196 1.043.519 1.34.323.297.646.445.97.445.749-.06 1.325-.305 1.723-.732.398-.427.595-.671.598-.732a6.687 6.687 0 0 0-.204-.978 3.43 3.43 0 0 0-.568-1.166c-.264-.354-.632-.54-1.103-.555zm25.838 1.634c.801.019 1.584.28 2.348.782.764.501 1.175 1.133 1.231 1.895v4.012c.012.356.1.572.261.65.162.077.324.11.485.094l-.746 1.487c-.522.019-.933-.055-1.231-.223-.298-.167-.486-.541-.56-1.117-.156.316-.44.616-.857.895-.416.278-.927.427-1.53.445-.634 0-1.229-.222-1.788-.668-.56-.446-.857-1.116-.894-2.008.063-.926.5-1.602 1.315-2.027.813-.425 1.625-.693 2.439-.804.814-.111 1.252-.156 1.314-.14v-.596c-.018-.245-.202-.5-.556-.763a2.186 2.186 0 0 0-1.231-.426 2.847 2.847 0 0 0-1.288.354c-.401.22-.718.449-.951.687l-.894-1.487c.363-.238.79-.467 1.284-.687.494-.22 1.112-.34 1.849-.355zm21.227 0c.801.019 1.584.28 2.348.782.765.501 1.175 1.133 1.231 1.895v4.012c.013.356.1.572.262.65.161.077.323.11.485.094l-.747 1.487c-.522.019-.932-.055-1.23-.223-.299-.167-.483-.541-.558-1.117-.155.316-.443.616-.86.895-.416.278-.923.427-1.526.445-.634 0-1.232-.222-1.792-.668-.559-.446-.856-1.116-.894-2.008.063-.926.501-1.602 1.315-2.027.814-.425 1.625-.693 2.44-.804.813-.111 1.255-.156 1.317-.14v-.596c-.018-.245-.206-.5-.56-.763a2.186 2.186 0 0 0-1.231-.426 2.847 2.847 0 0 0-1.288.354c-.4.22-.718.449-.95.687l-.895-1.487a9.116 9.116 0 0 1 1.288-.687c.494-.22 1.108-.34 1.845-.355zm-28.637.151l.447 1.484a1.859 1.859 0 0 0-1.151.57c-.31.323-.603.653-.879.993-.276.339-.595.562-.954.668.655.165 1.176.529 1.556 1.094.38.566.734 1.191 1.065 1.873.33.68.75 1.277 1.257 1.789H31.72a78.67 78.67 0 0 1-1.406-2.59c-.425-.82-1.052-1.26-1.875-1.317-.065 0-.137.007-.216.015-.078.009-.155.015-.23.027v3.865h-1.788v-8.323h1.787v2.974c.033.01.068.013.106.015.039.002.074.004.107.004.442-.036.885-.296 1.325-.781.44-.486.91-.979 1.41-1.48.499-.502 1.058-.794 1.677-.88zm14.981.148h1.788v3.121h3.133v-3.121h1.792v8.323h-1.792v-3.567h-3.133v3.567h-1.788v-8.323zm22.273 0h5.815v8.323h-1.788v-6.689H71.51c-.018.912-.046 1.845-.087 2.8-.04.957-.281 1.814-.72 2.571-.438.758-1.261 1.299-2.473 1.616l-.34-1.699c.254-.041.52-.154.802-.34.282-.184.518-.446.709-.784.12-.249.215-.729.284-1.435.068-.706.115-1.465.144-2.28.028-.814.042-1.51.041-2.083zm-28.057 4.31c-.273.087-.655.16-1.144.22-.488.059-.934.179-1.34.354s-.623.48-.648.914c.03.51.193.861.485 1.057.292.195.528.288.708.279.472-.047.91-.25 1.307-.612.398-.362.608-.604.632-.724v-1.488zm21.231 0c-.273.087-.655.16-1.143.22-.49.059-.94.179-1.345.354-.406.175-.62.48-.644.914.03.51.193.861.485 1.057.292.195.528.288.708.279.472-.047.905-.25 1.303-.612.398-.362.612-.604.636-.724v-1.488z" fill="#0D69E1"/><g fill="#000"><path d="M20.148 35.493c-2.063.056-3.599.826-4.608 2.31-1.01 1.484-1.513 3.344-1.51 5.579-.003 2.234.5 4.094 1.51 5.578s2.545 2.254 4.608 2.31c1.417-.02 2.565-.403 3.442-1.15.877-.747 1.546-1.741 2.005-2.982l-2.522-.939c-.281.931-.665 1.604-1.151 2.02-.486.414-1.078.617-1.774.61-1.052-.016-1.905-.501-2.559-1.456-.653-.955-.99-2.285-1.01-3.991.02-1.707.357-3.037 1.01-3.992.654-.955 1.507-1.44 2.56-1.456.695-.007 1.287.196 1.773.61.486.416.87 1.089 1.151 2.02l2.522-.94c-.46-1.24-1.128-2.233-2.005-2.98-.877-.748-2.025-1.132-3.442-1.151zM28.305 40.376v10.519h5.071c.726.039 1.494-.133 2.304-.517.81-.383 1.25-1.213 1.318-2.489.002-.483-.156-.938-.472-1.365-.317-.426-.804-.74-1.46-.942.646-.198 1.092-.494 1.339-.889.246-.395.364-.832.352-1.311-.016-.865-.313-1.577-.892-2.137-.58-.56-1.346-.85-2.301-.869h-5.259zm2.254 2.066h2.817c.376.012.657.13.845.353.188.223.282.48.282.774 0 .294-.094.552-.282.775-.188.223-.47.34-.845.352h-2.817v-2.254zm0 3.945h2.817c.384.008.697.133.94.375.242.243.367.556.375.94-.008.375-.133.657-.376.845-.242.188-.555.282-.939.282h-2.817v-2.442zM48.16 50.895V40.376H43.65c-1.299.04-2.222.384-2.77 1.033-.548.65-.814 1.37-.798 2.16.023.628.258 1.17.704 1.627a3.36 3.36 0 0 0 1.55.922c-.615.12-1.118.475-1.51 1.066-.392.591-.742 1.24-1.05 1.948-.309.707-.645 1.295-1.01 1.763h2.63c.167-.323.376-.82.628-1.488.253-.669.62-1.29 1.106-1.863.484-.574 1.159-.879 2.023-.916.18-.001.323.002.426.01.103.009.212.032.325.07v4.187h2.254zm-2.255-6.01H43.84a1.316 1.316 0 0 1-.949-.427c-.248-.268-.37-.564-.366-.889.02-.293.148-.551.386-.774.238-.223.547-.34.93-.353h2.065v2.442zM55.556 40.188a8.332 8.332 0 0 0-2.1.259 6.321 6.321 0 0 0-1.657.68l1.02 1.986a6.74 6.74 0 0 1 1.127-.704c.426-.215.963-.329 1.61-.342.415-.008.853.101 1.315.328.461.227.712.619.751 1.174 0 .294-.094.552-.282.775-.188.223-.47.34-.845.352h-1.503v1.69h1.503c.466.016.802.173 1.01.47.207.298.309.642.305 1.033-.031.474-.25.842-.658 1.104-.407.262-.813.395-1.22.4-.493.006-1.077-.095-1.751-.306-.674-.21-1.218-.574-1.63-1.09l-1.396 1.53c.595.565 1.337.997 2.227 1.294.89.297 1.74.447 2.55.45 1.213.007 2.228-.243 3.045-.752.817-.509 1.242-1.323 1.275-2.442-.033-.834-.283-1.446-.748-1.838-.466-.391-.95-.628-1.453-.71.464-.141.879-.43 1.245-.87.366-.438.56-.99.58-1.653-.016-.904-.407-1.598-1.174-2.083-.767-.485-1.816-.73-3.146-.735zM63.398 40.376v10.519h4.884c1.303-.035 2.245-.388 2.824-1.057.58-.669.863-1.444.852-2.324a3.376 3.376 0 0 0-.852-2.325c-.58-.669-1.52-1.02-2.824-1.056h-2.63v-3.757h-2.254zm2.254 5.823h2.818c.383.016.696.158.939.426.242.268.368.564.375.889-.007.325-.133.62-.375.889-.243.267-.556.41-.94.426h-2.817v-2.63z"/></g><g fill="#000"><path d="M15.192 61.404l1.223 1.375a11.9 11.9 0 0 1 1.165-1.083c.398-.321.824-.492 1.28-.51.541.018.97.189 1.285.51.315.322.476.683.483 1.083-.008.593-.13 1.088-.366 1.485a7.806 7.806 0 0 1-.922 1.222 47.145 47.145 0 0 1-2.112 2.355 47.912 47.912 0 0 1-2.341 2.273v1.833h7.334c.153-.388.267-.757.344-1.107a4.26 4.26 0 0 0 .114-.879h-5.042c.793-.825 1.532-1.582 2.216-2.27a25.136 25.136 0 0 0 1.757-1.943c.388-.448.665-.872.83-1.272.164-.399.244-.965.24-1.697-.042-.936-.418-1.7-1.127-2.292-.71-.592-1.506-.897-2.388-.917-.91.011-1.687.186-2.33.524a5.446 5.446 0 0 0-1.643 1.31zM24.418 61.71h5.654c-.87 1.394-1.69 2.96-2.464 4.698a23.435 23.435 0 0 0-1.662 5.387h2.292c.471-2.187 1.057-4.117 1.758-5.788a64.693 64.693 0 0 1 2.215-4.756v-1.528h-7.334l-.459 1.987zM38.763 71.947h2.292l.764-9.015 3.209 7.182 3.209-7.182.764 9.015h2.292l-1.375-12.224h-2.14l-2.75 5.96-2.75-5.96h-2.14zM53.62 71.947h2.14v-10.39h5.5v-1.834h-7.64zM62.557 63.39v8.557h6.723v1.834h1.834v-3.514h-1.681V63.39h-1.834v6.876h-3.21V63.39z"/></g></g></g></svg>