<svg width="95" height="136" xmlns="http://www.w3.org/2000/svg"><g fill="none" fill-rule="evenodd"><rect x=".5" y=".5" width="85" height="127" rx="6" transform="translate(5 4)" fill="#FFF" stroke="#000"/><g fill-rule="nonzero"><path d="M11.03 7A3.018 3.018 0 0 0 8 10.02v115.96a3.018 3.018 0 0 0 3.03 3.02h73.94a3.018 3.018 0 0 0 3.03-3.02V10.02A3.018 3.018 0 0 0 84.97 7H11.03zm7.508 19h58.924C80.53 26 83 28.435 83 31.46v58.08c0 3.025-2.47 5.46-5.538 5.46H18.538C15.47 95 13 92.565 13 89.54V31.46c0-3.025 2.47-5.46 5.538-5.46z" fill="#0D69E1"/><path d="M18.667 44.867a2.667 2.667 0 0 1 5.333 0V58.2h48v-8a2.667 2.667 0 1 1 5.333 0v24H72v-8H24v8h-5.333V44.867z" fill="#000"/><path d="M29.854 51.801c-1.483.081-2.654 1.405-2.654 3.032v2.3h16v-2.3c0-1.68-1.249-3.032-2.8-3.032H30c-.048 0-.098-.002-.146 0z" fill="#000"/></g></g></svg>