<svg width="95" height="136" xmlns="http://www.w3.org/2000/svg"><g transform="translate(3 2)" fill="none" fill-rule="evenodd"><rect x="2" y="2" width="86" height="129" rx="43"/><rect stroke="#000" fill="#FFF" x=".5" y=".5" width="89" height="132" rx="4"/><path d="M4.438 3C3.642 3 3 3.64 3 4.437v124.126c0 .796.642 1.437 1.438 1.437h81.124c.796 0 1.438-.64 1.438-1.437V4.437C87 3.64 86.358 3 85.562 3H4.438zm28.354 5.093c1.081.03 1.885.438 2.415 1.223.529.785.792 1.767.79 2.945.002 1.178-.261 2.158-.79 2.943-.53.785-1.334 1.193-2.415 1.223-1.081-.03-1.887-.438-2.416-1.223-.53-.785-.793-1.765-.792-2.943-.001-1.178.262-2.16.792-2.945.529-.785 1.335-1.193 2.416-1.223zm8.267 0c.743.01 1.343.214 1.803.609.46.395.811.92 1.052 1.575l-1.323.495c-.148-.492-.348-.847-.603-1.066a1.353 1.353 0 0 0-.93-.324c-.55.009-.998.266-1.34.77-.343.505-.519 1.208-.529 2.109.01.901.186 1.604.529 2.108.342.505.79.76 1.34.769.366.004.676-.104.93-.323.255-.22.455-.575.603-1.067l1.323.497c-.24.656-.592 1.18-1.052 1.575-.46.395-1.06.597-1.803.607-1.081-.03-1.886-.435-2.415-1.22-.529-.783-.793-1.765-.79-2.946-.003-1.18.261-2.163.79-2.947.53-.784 1.334-1.191 2.415-1.221zm7.882 0c.743.01 1.344.214 1.803.609.46.395.811.92 1.052 1.575l-1.321.495c-.148-.492-.35-.847-.604-1.066a1.353 1.353 0 0 0-.93-.324c-.552.009-.999.266-1.341.77-.343.505-.519 1.208-.529 2.109.01.901.186 1.604.529 2.108.342.505.79.76 1.341.769.365.004.675-.104.93-.323.254-.22.456-.575.604-1.067l1.321.497c-.24.656-.592 1.18-1.052 1.575-.46.395-1.06.597-1.803.607-1.081-.03-1.885-.435-2.415-1.22-.529-.783-.792-1.765-.79-2.946-.002-1.18.261-2.163.79-2.947.53-.784 1.334-1.191 2.415-1.221zm-26.886.2h2.657c.972.045 1.662.35 2.068.917.406.566.602 1.12.59 1.661-.013.542-.26 1.097-.74 1.663-.48.566-1.118.872-1.918.918h-1.28v2.778h-1.377V8.292zm31.915 0h1.377v5.455l2.855-5.456h1.476v7.938h-1.377v-5.458l-2.855 5.458H53.97V8.292zm11.122 0h2.853v7.937h-1.377v-3.175h-.886c-.427.009-.734.127-.923.355-.188.229-.36.513-.512.852-.178.35-.347.68-.503.99-.157.31-.332.636-.524.978h-1.672c.1-.063.245-.255.439-.577.194-.321.388-.674.584-1.057.196-.384.347-.699.453-.947.117-.256.291-.495.524-.716.232-.222.451-.36.658-.417-.5-.104-.903-.333-1.207-.686-.303-.353-.46-.806-.467-1.356-.017-.438.164-.9.54-1.388.378-.488 1.052-.752 2.02-.794zm-32.3 1.09c-.552.008-.999.265-1.341.77-.343.504-.52 1.207-.53 2.108.01.901.187 1.604.53 2.108.342.505.79.76 1.341.769.552-.008.999-.264 1.341-.769.343-.504.519-1.207.529-2.108-.01-.901-.186-1.604-.529-2.108-.342-.505-.79-.762-1.341-.77zm-9.36.1v2.778h.886c.41.004.77-.104 1.083-.323.311-.22.476-.575.492-1.067-.016-.492-.18-.848-.492-1.067a1.8 1.8 0 0 0-1.083-.321h-.886zm42.054 0a2.027 2.027 0 0 0-1.084.276c-.312.188-.475.493-.491.915.012.421.16.726.442.914.283.187.628.28 1.034.276h1.181V9.483h-1.082zM43.229 19.47c.714.046 1.328.226 1.845.544.517.319.788.5.812.546l-.886.993c0-.033-.147-.165-.442-.397-.296-.231-.738-.363-1.329-.396-.578.024-.972.172-1.181.445-.21.273-.31.522-.297.745.019.335.228.575.628.72.4.146.88.27 1.44.372.697.151 1.247.418 1.648.805.402.386.607.878.615 1.476-.004.537-.266 1.075-.787 1.612-.521.538-1.275.828-2.264.87-.596-.018-1.125-.138-1.59-.361-.463-.223-.827-.445-1.094-.668-.267-.223-.405-.344-.41-.361l.97-.808c.003.037.185.19.546.454.36.264.887.415 1.578.452.626-.026 1.048-.17 1.268-.432.22-.263.322-.482.307-.658.015-.103.01-.234-.018-.391-.027-.158-.166-.318-.413-.48-.248-.162-.694-.302-1.34-.42-1.093-.221-1.787-.547-2.08-.979-.293-.432-.42-.833-.381-1.203.014-.71.281-1.298.8-1.761.519-.463 1.204-.702 2.055-.719zm8.267 0c.714.046 1.328.226 1.845.544.516.319.788.5.812.546l-.886.993c0-.033-.147-.165-.442-.397-.296-.231-.738-.363-1.329-.396-.578.024-.972.172-1.181.445-.21.273-.307.522-.295.745.018.335.227.575.627.72.4.146.879.27 1.439.372.697.151 1.246.418 1.648.805.402.386.609.878.617 1.476-.004.537-.266 1.075-.787 1.612-.521.538-1.277.828-2.266.87-.596-.018-1.125-.138-1.59-.361-.463-.223-.827-.445-1.094-.668-.267-.223-.403-.344-.408-.361l.969-.808c.002.037.184.19.545.454.36.264.887.415 1.578.452.626-.026 1.048-.17 1.268-.432.22-.263.322-.482.307-.658.015-.103.01-.234-.018-.391-.027-.158-.164-.318-.412-.48-.247-.162-.695-.302-1.34-.42-1.094-.221-1.788-.547-2.081-.979-.293-.432-.42-.833-.381-1.203.014-.71.281-1.298.8-1.761.519-.463 1.204-.702 2.055-.719zm-28.337.198h2.659c.964.041 1.62.306 1.968.793.35.488.512.952.491 1.39-.012.546-.159.991-.442 1.338a2.368 2.368 0 0 1-1.034.746c.418.131.764.462 1.036.994.272.533.523 1.072.751 1.615.229.543.487.896.773 1.061h-1.673a4.465 4.465 0 0 1-.443-.87c-.144-.363-.305-.73-.485-1.098a3.74 3.74 0 0 0-.513-.85c-.188-.228-.496-.348-.922-.357h-.787v3.175h-1.38V19.67zm8.554 0h1.377v5.457c.025.54.198.924.518 1.153.32.23.64.342.96.336.32.006.639-.106.959-.336.32-.23.493-.613.517-1.153V19.67h1.378v5.358c.015.065-.027.31-.128.739-.1.428-.355.85-.762 1.267-.407.417-1.06.64-1.964.672-.903-.031-1.558-.255-1.965-.672-.407-.417-.661-.84-.762-1.267-.101-.429-.144-.674-.128-.739V19.67zm24.801 0h1.38v7.937h-1.38V19.67zm6.192 0h1.575l2.56 7.937h-1.477l-.491-1.587h-2.757l-.492 1.587h-1.476l2.558-7.937zm-38.168 1.19v2.382h.886c.406.003.75-.09 1.034-.277.283-.188.43-.492.442-.914-.012-.422-.16-.726-.442-.914-.283-.188-.628-.28-1.034-.277h-.886zm38.956.597l-.984 3.372h1.969l-.985-3.372zM10.875 30.78h68.25v30.427h-68.25V30.78zm0 31.75h68.25v30.427h-68.25V62.53zm0 31.75h68.25v30.427h-68.25V94.28z" fill="#0D69E1" fill-rule="nonzero"/><path d="M23.5 36a9.5 9.5 0 1 0 0 19 9.5 9.5 0 0 0 0-19zm0 1.606a7.894 7.894 0 1 1 0 15.788 7.894 7.894 0 0 1 0-15.788z" fill="red" fill-rule="nonzero"/><g fill="#000" fill-rule="nonzero"><path d="M20.557 42.016c-.879.036-1.52.414-1.926 1.134-.406.72-.606 1.563-.6 2.53.009 1.065.223 1.88.642 2.446.42.566.991.852 1.716.857.567-.017 1.054-.257 1.463-.72.409-.462.623-1.04.642-1.735-.012-.531-.128-.942-.346-1.233-.218-.29-.465-.492-.74-.603-.274-.112-.501-.165-.682-.16-.299.009-.586.087-.862.236a4.075 4.075 0 0 0-.726.49c-.009-.029.016-.226.074-.593.059-.367.201-.734.428-1.101.227-.367.589-.565 1.086-.593.391.015.724.073 1 .176.275.102.42.16.431.175l-.168-1.028a5.215 5.215 0 0 0-.463-.14 4.109 4.109 0 0 0-.969-.138zm0 3.496c.183 0 .365.084.548.254.182.169.28.423.294.762a1.552 1.552 0 0 1-.303.9c-.2.283-.489.435-.864.454-.255-.018-.462-.15-.62-.395a2.84 2.84 0 0 1-.344-.734 3.84 3.84 0 0 1-.106-.395c.021-.035.18-.176.476-.423.297-.247.603-.388.92-.423zM25.703 42.04c-.684.017-1.231.342-1.642.974-.41.631-.621 1.464-.632 2.498.01 1.033.221 1.866.632 2.498.41.631.958.956 1.642.973.685-.017 1.232-.342 1.643-.973.41-.632.62-1.465.631-2.498-.01-.987-.22-1.806-.631-2.458-.411-.652-.958-.99-1.643-1.014zm0 1.052c.33-.005.594.187.791.575.198.388.3 1.003.304 1.845-.005.841-.106 1.456-.304 1.844-.197.388-.46.58-.79.575-.33.005-.594-.187-.792-.575-.197-.388-.299-1.003-.304-1.844.005-.842.107-1.457.304-1.845.198-.388.461-.58.791-.575z"/></g><path d="M23.5 68a9.5 9.5 0 1 0 0 19 9.5 9.5 0 0 0 0-19zm0 1.606a7.894 7.894 0 1 1 0 15.788 7.894 7.894 0 0 1 0-15.788z" fill="red" fill-rule="nonzero"/><g fill="#000" fill-rule="nonzero"><path d="M19.78 80.988c.966-.033 1.661-.415 2.087-1.146.425-.73.634-1.614.625-2.65-.012-1.045-.242-1.833-.689-2.364-.446-.53-1.036-.796-1.769-.798-.567.02-1.043.27-1.43.746-.387.477-.588 1.06-.604 1.749.039.774.258 1.293.657 1.556.399.262.745.384 1.038.365.3-.007.59-.077.869-.209s.526-.285.741-.46c.009.028-.017.219-.078.573-.06.354-.206.709-.436 1.063s-.596.545-1.096.572a3.166 3.166 0 0 1-1.03-.196c-.292-.115-.445-.18-.46-.197l.134 1.026c.018.015.173.077.466.185.293.108.618.17.975.185zm.17-3.544c-.184 0-.368-.084-.552-.251-.183-.167-.282-.418-.296-.752-.001-.31.089-.605.27-.883.18-.278.457-.43.832-.454a.773.773 0 0 1 .626.311c.15.199.257.417.322.656.065.238.104.421.117.55-.002.033-.116.17-.342.41-.226.241-.552.378-.978.413zM25.712 74.102c-.689.017-1.24.338-1.653.96-.413.624-.625 1.445-.636 2.465.01 1.02.223 1.841.636 2.464.413.623.964.944 1.653.961.688-.017 1.24-.338 1.652-.96.413-.624.625-1.445.636-2.465-.01-.973-.223-1.78-.636-2.424-.413-.643-.964-.977-1.652-1.001zm0 1.038c.332-.005.597.184.796.567.198.383.3.99.305 1.82-.005.83-.107 1.437-.305 1.82-.2.383-.464.572-.796.567-.332.005-.598-.184-.796-.567-.2-.383-.301-.99-.306-1.82.005-.83.107-1.437.306-1.82.198-.383.464-.572.796-.567z"/></g><path d="M23.5 100a9.5 9.5 0 1 0 0 19 9.5 9.5 0 0 0 0-19zm0 1.606a7.894 7.894 0 1 1 0 15.788 7.894 7.894 0 0 1 0-15.788z" fill="red" fill-rule="nonzero"/><g fill="#000" fill-rule="nonzero"><path d="M18.028 107.432l.348.448.789-.49v4.524h1.031v-5.837h-.884zM20.737 107.432l.348.448.789-.49v4.524h1.031v-5.837h-.884zM25.983 106.004c-.599.015-1.078.295-1.437.84-.359.543-.543 1.26-.552 2.152.009.89.193 1.608.552 2.152.36.544.838.824 1.437.84.598-.016 1.077-.296 1.436-.84.36-.544.543-1.262.553-2.152-.01-.85-.194-1.556-.553-2.118-.359-.561-.838-.853-1.436-.874zm0 .907c.288-.004.519.16.692.495.172.334.261.864.265 1.59-.004.725-.093 1.255-.265 1.59-.173.334-.404.499-.692.494-.289.005-.52-.16-.692-.495-.173-.334-.262-.864-.266-1.59.004-.725.093-1.255.266-1.589.173-.334.403-.5.692-.495z"/></g><path fill="#000" fill-rule="nonzero" d="M36 44.429V50h41V39.786l-2.76-.929-2.759.929v6.5h-.789v-1.857l-3.942-2.322-3.942 2.322v1.857h-.789v-.929L60.048 43.5h-2.365v-.464h-2.366v.464h-2.365l-1.971 1.857v.929h-.789v-1.393L47.038 37l-3.153 7.893v1.393h-.789v-1.857l-3.548-1.393zM47.04 69l-3.154 7.893v1.394h-.79V76.43l-3.55-1.393L36 76.43V82h10.155l4.038-3.97v-1.137L47.039 69zm27.2 1.857l-2.758.93v6.5h-.79V76.43l-3.942-2.323-3.943 2.323v1.857h-.79v-.93l-1.97-1.857H59.5L52.89 82H77V71.787l-2.76-.93z"/><path d="M46.851 97a.842.842 0 0 0-.851.835v23.33c0 .462.38.835.851.835h15.302c.47 0 .847-.373.847-.835v-23.33a.839.839 0 0 0-.847-.835H46.85zm6.712.658h.78l-.26 5.74h-1.817l1.297-5.74zm1.3 0h.776l1.296 5.74h-1.816l-.256-5.74zm-8.192 6.505h15.86v1.015h-2.224v1.78h-1.036l-.52-1.78h-8.3l-.517 1.78h-1.04v-1.78h-2.223v-1.015zm4.82 1.776h2.592l-.52 15.403h-6.225l4.152-15.403zm3.628 0h2.596l4.148 15.403H55.64l-.52-15.403z" fill="#00A500" fill-rule="nonzero"/><path fill="red" fill-rule="nonzero" d="M62.156 67L42 87h4.844L67 67z"/></g></svg>