<svg width="100" height="86" xmlns="http://www.w3.org/2000/svg"><g fill="none" fill-rule="evenodd"><path d="M90 43c0 22.091-17.909 40-40 40S10 65.091 10 43 27.909 3 50 3s40 17.909 40 40z" fill="#FFF" fill-rule="nonzero"/><path d="M90.367 43c0 22.294-18.073 40.367-40.367 40.367C27.706 83.367 9.633 65.294 9.633 43 9.633 20.706 27.706 2.633 50 2.633c22.294 0 40.367 18.073 40.367 40.367z" stroke="#000"/><path d="M50 5.667C29.381 5.667 12.667 22.38 12.667 43S29.38 80.333 50 80.333 87.333 63.62 87.333 43 70.62 5.667 50 5.667zm-5.475 21.537L50 32.68l5.475-5.475L68.25 39.975l4.635-4.636 5.398 20.148-20.148-5.398 4.64-4.639L50 32.68 37.225 45.45l4.64 4.639-20.148 5.398 5.398-20.148 4.64 4.636 12.77-12.77z" fill="#0D69E1" fill-rule="nonzero"/></g></svg>