<svg width="100" height="86" xmlns="http://www.w3.org/2000/svg"><g transform="translate(10 3)" fill="none" fill-rule="evenodd"><rect fill="#FFF" fill-rule="nonzero" width="80" height="80" rx="6"/><rect stroke="#000" x=".5" y=".5" width="79" height="79" rx="6"/><path d="M5.803 3A2.797 2.797 0 0 0 3 5.803v32.89h74V25.61H26.92v6.542L8.795 21.686 26.92 11.223v6.538H77V5.803A2.797 2.797 0 0 0 74.197 3H5.803zM3 41.307v32.89A2.797 2.797 0 0 0 5.803 77h68.394A2.797 2.797 0 0 0 77 74.197v-32.89H3zm22.585 7.428h2.758c1.147 0 2.078.927 2.078 2.074 0 .826-.523 1.564-1.304 1.833a.786.786 0 0 0-.459 1.075l.08.176 1.725 3.696a5.709 5.709 0 0 1 2.859-.76 5.73 5.73 0 0 1 0 11.46 5.73 5.73 0 0 1-3.802-10.017l-.455-.974-7.912 6.048h-3.357a5.73 5.73 0 1 1-3.195-5.956l2.155-3.077-.519-1.212h-.319a.86.86 0 0 1-.861-.859.86.86 0 0 1 .861-.858h3.939a.858.858 0 1 1 0 1.717H17.33l.337.792h9.838a1.934 1.934 0 0 1 1.237-2.337.79.79 0 0 0 .533-.747.93.93 0 0 0-.932-.928h-2.758a.573.573 0 1 1 0-1.146zm30.112.42l18.125 10.466-18.125 10.466v-6.542H42.631l-.014-7.848h13.08v-6.542zm-37.484 6.023l2.828 6.626 7.463-5.708-.585-.918h-9.706zm-1.054.81l-1.465 2.092a5.722 5.722 0 0 1 2.138 3.976h1.916l-2.59-6.068zm-5.039 1.7a4.87 4.87 0 1 0 4.808 5.658h-4.983a.79.79 0 0 1-.645-1.24l2.8-3.998a4.854 4.854 0 0 0-1.98-.42zm21.202 0c-.911 0-1.762.25-2.491.686l1.205 2.582c.08.173.213.318.378.414l1.195.69a.576.576 0 0 1-.575.995l-1.194-.694a2.07 2.07 0 0 1-.845-.918l-1.096-2.35a4.87 4.87 0 1 0 8.293 3.465 4.871 4.871 0 0 0-4.744-4.87c-.042-.002-.084 0-.126 0zM15.2 58.783l-2.291 3.272h4.057a4.867 4.867 0 0 0-1.766-3.272z" fill="#0D69E1" fill-rule="nonzero"/></g></svg>