<svg width="100" height="86" xmlns="http://www.w3.org/2000/svg"><g fill="none" fill-rule="evenodd"><path d="M55.464 6.502c3.267 5.663 6.466 11.286 11.217 19.692l4.76 8.425c10.212 18.068 16.33 28.664 23.07 39.766 2.228 3.668-.924 8.996-5.175 8.996H10.534c-4.251 0-7.403-5.328-5.176-8.996 6.738-11.099 12.84-21.67 23.068-39.763l4.632-8.2c4.828-8.54 8.048-14.2 11.348-19.92 2.852-4.943 8.207-4.943 11.058 0z" stroke="#0C0E0F"/><path d="M11.61 73.352l-.003.006-.556.967-.016.028a108.335 108.335 0 0 1-1.5 2.568c-.22.362.5 1.574 1 1.574h78.8c.5 0 1.22-1.212 1-1.575-.436-.718-.772-1.295-1.502-2.57l-.02-.036c-.266-.463-.396-.69-.554-.962L51.232 8.943c-.918-1.591-1.675-1.591-2.591-.003L11.61 73.352z" stroke="red" stroke-width="6" fill="#FFF"/><path d="M47.493 52.24h5.843c.625 0 1.136.511 1.136 1.136v3.866a1.14 1.14 0 0 1-1.136 1.136h-5.843a1.14 1.14 0 0 1-1.136-1.136v-3.866c0-.625.511-1.136 1.136-1.136zm8.989 0h5.843c.624 0 1.136.511 1.136 1.136v3.866a1.14 1.14 0 0 1-1.136 1.136h-5.843a1.14 1.14 0 0 1-1.137-1.136v-3.866c0-.625.512-1.136 1.137-1.136zm-17.978 0h5.843c.625 0 1.136.511 1.136 1.136v3.866a1.14 1.14 0 0 1-1.136 1.136h-5.843a1.14 1.14 0 0 1-1.136-1.136v-3.866c0-.625.511-1.136 1.136-1.136zm-5.475 0h2.33a1.14 1.14 0 0 1 1.135 1.136v3.866a1.14 1.14 0 0 1-1.136 1.136h-4.456c-1.295 0-1.332-1.064-.893-1.807l1.884-3.195c.318-.538.512-1.136 1.136-1.136zm34.77 0H65.47a1.14 1.14 0 0 0-1.136 1.136v3.866a1.14 1.14 0 0 0 1.136 1.136h4.456c1.295 0 1.333-1.064.894-1.807l-1.885-3.195c-.317-.538-.511-1.136-1.136-1.136zM33.97 50.698h32.877c1.52 0 2.165.864 2.735 1.948.416.793.852 1.523 1.283 2.273.416.726.827 1.473 1.27 2.219.583.977.682 1.506.682 2.6v4.416a3.606 3.606 0 0 1-3.595 3.595h-1.103a3.268 3.268 0 0 0-3.268-3.268H35.966a3.268 3.268 0 0 0-3.268 3.268h-1.103A3.606 3.606 0 0 1 28 64.154v-4.417c0-1.093.099-1.622.681-2.6.444-.745.855-1.492 1.272-2.218.43-.75.866-1.48 1.282-2.273.57-1.084 1.216-1.948 2.735-1.948zM49.7 67.993H56.218c-.14-1.675 1.016-2.936 1.88-3.189h-3.536v-.001h-6.226l-5.617.001c.864.253 2.02 1.514 1.88 3.19h5.1zm-11.09.492a2.747 2.747 0 1 1 0-1.38 2.747 2.747 0 1 1 0 1.38zm23.574 0a2.747 2.747 0 1 1 0-1.38 2.746 2.746 0 1 1 0 1.38zM46.31 49.755h8.197l3.037-3.608-6.738-6.15V38h-.796l.001 1.998-6.738 6.149 3.037 3.609zm4.099-.96h-3.585l-2.209-2.623 5.794-5.27 5.793 5.27-2.209 2.624H50.41z" fill="#000"/></g></svg>