<svg width="147" height="221" xmlns="http://www.w3.org/2000/svg"><g fill="none" fill-rule="evenodd"><g transform="translate(3 132)"><rect fill="#FFF" fill-rule="nonzero" width="140" height="78.75" rx="6"/><g fill="#000" fill-rule="nonzero"><path d="M51.625 67.375h9.023V70h1.969v-4.594h-1.476V54.25h-2.297v11.156h-4.922V54.25h-2.297zM65.01 67.375h8.367v-1.969h-6.07v-3.938h4.758V59.5h-4.758v-3.117h5.906V54.25H65.01zM76.595 67.375h2.296v-5.907h4.922v5.907h2.297V54.25h-2.297v5.25h-4.922v-5.25h-2.296zM88.667 54.25v1.968h3.61v11.157h2.296V56.218h3.61V54.25zM100.725 54.25v13.125h2.297v-4.594h2.132c1.333-.075 2.4-.58 3.2-1.517.8-.937 1.21-1.853 1.23-2.748.02-.896-.307-1.812-.984-2.748-.677-.937-1.825-1.443-3.446-1.518h-4.43zm2.297 1.969h1.476c.684-.007 1.285.17 1.805.533.52.362.793.95.82 1.764-.027.813-.3 1.401-.82 1.763-.52.363-1.121.54-1.805.533h-1.476V56.22z"/></g><path fill="#000" fill-rule="nonzero" d="M22.706 51.625h-6.3l9.844-17.05 9.844 17.05h-6.3v13.388h-7.088z"/><path d="M12.929 11C11.86 11 11 11.821 11 12.84v14.32c0 1.019.86 1.84 1.929 1.84H39.07C40.14 29 41 28.179 41 27.16V12.84c0-1.019-.86-1.84-1.929-1.84H12.93zm2.089 2.455h2.25l2.893 5.982 2.893-5.982h2.25l1.446 12.272h-2.41l-.804-9.05-3.375 7.21-3.375-7.21-.804 9.05h-2.41l1.446-12.272zm14.928 0h7.392l-.642 1.994h-4.661v2.915c.252-.3.57-.505.95-.614.382-.109.76-.16 1.14-.153.933.006 1.798.338 2.592.997.793.658 1.214 1.604 1.264 2.838-.017 1.26-.464 2.307-1.344 3.145-.881.837-2.094 1.272-3.638 1.304a8.468 8.468 0 0 1-2.068-.307c-.62-.18-.949-.281-.985-.307l-.322-1.994c.403.246.879.411 1.425.496a9.917 9.917 0 0 0 1.629.117 3.53 3.53 0 0 0 1.928-.575c.603-.383.924-.959.965-1.726-.004-.565-.197-1.084-.582-1.554-.385-.47-.942-.718-1.668-.747-.483.029-.884.162-1.206.402-.321.24-.562.413-.723.519l-1.446-.767v-5.983z" fill="#0D69E1" fill-rule="nonzero"/><rect stroke="#000" x="9.5" y="9.5" width="33" height="21" rx="4"/><path d="M50.313 7a3.929 3.929 0 0 0-3.938 3.938v35a3.929 3.929 0 0 0 3.938 3.937h77.875a3.929 3.929 0 0 0 3.937-3.937v-35A3.929 3.929 0 0 0 128.188 7H50.313zm30.23 5.797c1.327.027 2.366.383 3.118 1.066.752.684 1.135 1.532 1.148 2.543-.028.811-.227 1.431-.596 1.86-.368.428-.736.72-1.104.875-.369.155-.568.227-.596.218.034-.008.274.082.721.268.448.187.895.518 1.343.996.448.478.69 1.15.725 2.018-.01.881-.443 1.743-1.294 2.584-.85.84-2.06 1.292-3.628 1.353-1.426-.075-2.596-.376-3.509-.902-.912-.527-1.382-.827-1.413-.903l1.476-1.804c-.003.061.29.307.88.738.592.43 1.503.677 2.73.738.677-.01 1.25-.193 1.722-.552a1.78 1.78 0 0 0 .739-1.416c-.017-.664-.23-1.183-.637-1.559-.407-.376-.905-.567-1.496-.574h-1.477v-1.969h1.477c.65-.038 1.114-.248 1.394-.634.28-.387.417-.723.41-1.007.024-.29-.107-.651-.39-1.085-.284-.434-.864-.675-1.742-.72-1.142.053-1.976.263-2.502.632-.527.37-.786.582-.78.635l-1.24-1.923c.024-.061.449-.307 1.276-.738.827-.43 1.909-.677 3.246-.738zm-28.918.328h4.43c1.62.075 2.768.581 3.445 1.518.677.936 1.005 1.852.984 2.748-.02.895-.43 1.811-1.23 2.748-.8.936-1.866 1.442-3.2 1.517h-2.132v4.594h-2.297V13.125zm16.846 0h4.758V26.25h-2.297V21h-1.476c-.71.015-1.225.212-1.54.59a6.181 6.181 0 0 0-.853 1.406l-.836 1.638a41.166 41.166 0 0 1-.873 1.616h-2.789c.165-.103.408-.42.73-.952.323-.531.65-1.113.976-1.747a26.3 26.3 0 0 0 .755-1.567c.194-.424.485-.82.872-1.186.388-.367.753-.597 1.097-.69-.834-.17-1.504-.547-2.01-1.131-.506-.585-.765-1.333-.78-2.243-.026-.724.274-1.49.903-2.296.63-.807 1.75-1.245 3.363-1.313zm23.147 0h2.625l4.266 13.125h-2.461l-.82-2.625h-4.594l-.82 2.625h-2.462l4.266-13.125zm9.595 0h2.297v5.25h4.922v-5.25h2.297V26.25h-2.297v-5.906h-4.922v5.906h-2.297V13.125zm12.728 0h2.297v5.086h2.79c1.606.055 2.7.478 3.28 1.271.582.793.855 1.627.82 2.502.021.896-.307 1.812-.983 2.748-.677.937-1.826 1.443-3.446 1.518h-4.758V13.125zm-60.02 1.969v4.594h1.477c.684.006 1.286-.171 1.805-.534.52-.362.793-.95.82-1.763-.027-.814-.3-1.402-.82-1.764-.52-.362-1.121-.54-1.805-.533h-1.476zm15.207 0c-.684-.006-1.285.146-1.805.456-.52.311-.793.815-.82 1.513.02.697.266 1.201.738 1.512.472.31 1.046.462 1.723.456h1.968v-3.937h-1.804zm23.802.984l-1.64 5.578h3.281l-1.64-5.578zm23.308 4.102v4.101h2.297c.742 0 1.31-.164 1.704-.492.393-.328.59-.82.593-1.476-.003-.664-.2-1.183-.593-1.56-.393-.375-.962-.566-1.704-.573h-2.297zM56.973 31.172c1.238.017 2.24.35 3.006 1.003.766.653 1.351 1.523 1.752 2.606l-2.204.82c-.245-.813-.581-1.4-1.006-1.763-.425-.362-.94-.54-1.548-.533-.919.013-1.665.437-2.236 1.271-.571.834-.864 1.996-.88 3.487.016 1.49.309 2.652.88 3.486.57.834 1.317 1.258 2.236 1.271.608.007 1.123-.17 1.548-.533.425-.362.76-.95 1.006-1.764l2.204.82c-.401 1.084-.986 1.951-1.752 2.604-.767.653-1.768.989-3.006 1.006-1.801-.05-3.143-.722-4.025-2.018-.881-1.296-1.32-2.92-1.318-4.872-.002-1.953.437-3.577 1.318-4.873.882-1.296 2.224-1.969 4.025-2.018zm11.105.328h2.625l4.265 13.125h-2.46L71.687 42h-4.595l-.82 2.625h-2.46L68.077 31.5zm10.415 0h2.297l2.953 6.398 2.953-6.398h2.297l1.477 13.125h-2.461l-.82-9.68-3.446 7.711-3.445-7.71-.82 9.679h-2.462L78.493 31.5zm18.293 0h2.625l4.266 13.125h-2.461l-.82-2.625h-4.594l-.82 2.625H92.52L96.786 31.5zm9.595 0h4.43c1.62.075 2.768.581 3.445 1.518.677.936 1.005 1.852.984 2.748-.02.895-.43 1.811-1.23 2.748-.8.936-1.866 1.442-3.2 1.517h-2.132v4.594h-2.297V31.5zm15.862 0h2.625l4.266 13.125h-2.461l-.82-2.625h-4.594l-.82 2.625h-2.462l4.266-13.125zm-13.565 1.969v4.594h1.476c.684.006 1.285-.171 1.805-.534.52-.362.793-.95.82-1.763-.027-.814-.3-1.402-.82-1.764-.52-.362-1.121-.54-1.805-.533h-1.476zm-39.288.984l-1.64 5.578h3.28l-1.64-5.578zm28.708 0l-1.64 5.578h3.281l-1.64-5.578zm25.457 0l-1.64 5.578h3.281l-1.64-5.578z" fill="#0D69E1" fill-rule="nonzero"/><rect stroke="#000" x=".588" y=".588" width="139" height="78" rx="6"/><path d="M5.313 3C4.032 3 3 4.017 3 5.281V73.72C3 74.983 4.032 76 5.313 76h129.374c1.281 0 2.313-1.017 2.313-2.281V5.28C137 4.017 135.968 3 134.687 3H5.313zm0 .76h129.374c.854 0 1.542.679 1.542 1.521V73.72c0 .842-.688 1.52-1.542 1.52H5.313a1.528 1.528 0 0 1-1.542-1.52V5.28c0-.842.688-1.52 1.542-1.52z" fill="#000" fill-rule="nonzero"/></g><g transform="translate(4 9)"><rect fill="#FFF" fill-rule="nonzero" x=".972" y=".976" width="138.056" height="39.048" rx="6"/><path d="M4.695 3.14c-.985 0-1.778.804-1.778 1.8v31.332c0 .997.793 1.8 1.778 1.8h130.399c.985 0 1.778-.803 1.778-1.8V4.94c0-.997-.793-1.8-1.778-1.8H4.694zM87.51 5.608h20.746c1.368 0 2.47 1.115 2.47 2.5v11.666c0 1.385-1.102 2.5-2.47 2.5H87.51c-1.368 0-2.47-1.115-2.47-2.5V8.107c0-1.385 1.102-2.5 2.47-2.5zm0 1c-.82 0-1.481.67-1.481 1.5v11.666c0 .83.66 1.5 1.481 1.5h20.746c.82 0 1.481-.67 1.481-1.5V8.107c0-.83-.66-1.5-1.481-1.5H87.51zm-71.414 1.75l.37 1.75c-.456.007-.796.126-1.02.356-.225.23-.461.527-.709.894-.247.347-.534.717-.86 1.11-.326.393-.616.606-.869.64.595.076 1.044.31 1.346.706.303.395.595.869.877 1.419.354.654.706 1.29 1.056 1.91.35.619.739 1.107 1.167 1.464h-2.153c-.18-.343-.462-.843-.848-1.5a92.76 92.76 0 0 1-1.074-1.874c-.21-.397-.44-.704-.688-.921a1.362 1.362 0 0 0-.917-.33c-.14.003-.294.012-.463.028-.17.015-.263.025-.278.027v4.57h-1.73V8.607h1.73v3.731c.014.012.029.02.045.025a.32.32 0 0 0 .078.012c.596-.01 1.105-.325 1.527-.939.423-.614.887-1.248 1.391-1.902.505-.654 1.178-1.047 2.022-1.177zm24.69 0c.932.013 1.685.267 2.262.765.577.497 1.017 1.16 1.32 1.985l-1.66.625c-.185-.62-.437-1.068-.757-1.344s-.707-.411-1.165-.406c-.692.01-1.254.333-1.683.969-.43.635-.65 1.52-.663 2.656.013 1.135.233 2.02.663 2.656.43.635.991.958 1.683.968.458.006.845-.13 1.165-.406.32-.276.572-.724.757-1.343l1.66.624c-.303.826-.743 1.486-1.32 1.984-.577.497-1.33.753-2.262.766-1.356-.037-2.368-.55-3.031-1.537-.664-.988-.995-2.225-.992-3.712-.003-1.488.328-2.725.992-3.713.663-.987 1.675-1.5 3.031-1.537zm12.184 0l.37 1.75c-.456.007-.796.126-1.02.356-.225.23-.46.527-.708.894-.248.347-.534.717-.86 1.11-.327.393-.617.606-.87.64.596.076 1.044.31 1.347.706.302.395.595.869.876 1.419.354.654.706 1.29 1.056 1.91.35.619.739 1.107 1.167 1.464h-2.15c-.18-.343-.465-.843-.85-1.5a92.697 92.697 0 0 1-1.075-1.874c-.21-.397-.437-.704-.685-.921a1.367 1.367 0 0 0-.92-.33c-.14.003-.293.012-.463.028-.17.015-.263.025-.278.027v4.57h-1.729V8.607h1.729v3.731c.015.012.031.02.047.025.016.005.04.01.077.012.596-.01 1.106-.325 1.529-.939.422-.614.884-1.248 1.389-1.902.504-.654 1.178-1.047 2.02-1.177zm51.36.125c.714.016 1.358.266 1.931.75.574.484.877 1.11.91 1.875.004.599-.06 1.06-.193 1.387-.133.327-.357.675-.671 1.042a20.477 20.477 0 0 1-1.42 1.59c-.553.562-1.15 1.18-1.79 1.855h4.074c0 .193-.03.433-.093.72a6.006 6.006 0 0 1-.277.905h-5.928v-1.5a38.366 38.366 0 0 0 3.6-3.785c.306-.342.554-.675.745-1 .191-.324.29-.73.296-1.214-.005-.328-.136-.623-.39-.886-.255-.263-.602-.403-1.04-.418-.368.015-.712.155-1.033.418a9.661 9.661 0 0 0-.943.886l-.988-1.125a4.41 4.41 0 0 1 1.328-1.07c.52-.278 1.147-.421 1.883-.43zm-85.94.125h1.853l2.346 5.25 1.975-5.25h1.853l-3.21 8.374c-.202.48-.53.875-.985 1.184-.454.308-.909.466-1.362.477-.244-.001-.434-.01-.57-.025a1.072 1.072 0 0 1-.294-.065l-.37-1.57c.01.005.112.025.308.062.195.036.422.057.679.062a1.25 1.25 0 0 0 .821-.36c.23-.221.35-.434.36-.64-.017-.13-.194-.572-.53-1.329a160.87 160.87 0 0 0-1.172-2.562 432.879 432.879 0 0 0-1.702-3.608zm9.716 0h3.334c1.22.057 2.084.443 2.594 1.156.509.714.756 1.412.74 2.094-.015.682-.324 1.38-.926 2.093-.602.714-1.404 1.1-2.408 1.157h-1.605v3.5h-1.729v-10zm61.668 0h1.729l2.223 4.875 2.222-4.875h1.73l1.11 10h-1.852l-.617-7.375-2.593 5.874-2.593-5.874-.618 7.374h-1.852l1.111-9.999zm-59.939 1.5v3.5h1.112c.514.005.967-.13 1.358-.407.39-.276.597-.723.617-1.343-.02-.62-.226-1.068-.617-1.344a2.255 2.255 0 0 0-1.358-.406h-1.112zm100.866 1.41l-3.836 14.489-3.353-3.394-6.997 7.083-3.773-3.818 6.998-7.083-3.353-3.394 14.314-3.883zM48.727 22.356c1.356.038 2.366.55 3.03 1.54.663.988.994 2.225.992 3.71.002 1.484-.329 2.72-.992 3.71-.664.988-1.674 1.501-3.03 1.54-1.356-.039-2.366-.552-3.03-1.54-.663-.99-.994-2.226-.991-3.71-.003-1.485.328-2.722.992-3.71.663-.99 1.673-1.502 3.03-1.54zm18.68 0c1.355.038 2.365.55 3.029 1.54.663.988.994 2.225.992 3.71.002 1.484-.329 2.72-.992 3.71-.664.988-1.674 1.501-3.03 1.54-1.356-.039-2.366-.552-3.03-1.54-.663-.99-.994-2.226-.991-3.71-.003-1.485.328-2.722.992-3.71.663-.99 1.673-1.502 3.03-1.54zm-58.102.25h6.298v1.5h-4.57v2.5h2.1c1.214.047 2.058.39 2.531 1.03.474.641.7 1.298.68 1.97.01.671-.258 1.327-.803 1.968-.546.64-1.43.984-2.655 1.031H9.305v-9.999zm9.202 0h6.174v1.625h-4.446v2.375h3.581v1.5h-3.58v3h4.568v1.5h-6.297v-10zm10.078 0h6.174v10H33.03v-8.5h-2.716l-.007 1.019c-.003.64-.013 1.35-.03 2.129-.018.779-.046 1.396-.087 1.851-.152 1.149-.494 1.99-1.023 2.527-.528.537-1.037.881-1.527 1.03-.49.148-.75.212-.784.193l-.284-1.679c.02.003.165-.052.438-.167.274-.114.56-.303.859-.57.298-.267.497-.628.592-1.084.04-.277.07-.805.087-1.583.017-.777.027-1.639.03-2.583.004-.944.008-1.805.007-2.583zm8.6 0h6.175v1.5h-4.446v8.5h-1.728v-10zm17.541 0h3.334c1.22.057 2.084.443 2.594 1.156.509.714.756 1.411.74 2.094-.015.682-.324 1.38-.926 2.093-.602.714-1.404 1.1-2.408 1.156h-1.605v3.5h-1.729v-9.999zm20.161 0h5.804v8.5h1.111v3.249H80.32v-1.75h-6.174v1.75h-1.482v-3.25h1.112c.17-.435.339-1.047.508-1.835.17-.788.31-1.64.424-2.556.114-.917.175-1.786.18-2.608v-1.5zm-26.16 1.375c-.692.01-1.252.333-1.681.969-.43.635-.652 1.52-.665 2.656.013 1.135.235 2.02.665 2.656.43.635.99.958 1.681.968.692-.01 1.254-.333 1.684-.968.43-.636.65-1.521.662-2.656-.013-1.136-.233-2.021-.662-2.656-.43-.636-.992-.959-1.684-.97zm18.68 0c-.693.01-1.253.333-1.682.969-.43.635-.652 1.52-.665 2.656.013 1.135.235 2.02.665 2.656.43.635.99.958 1.681.968.692-.01 1.254-.333 1.684-.968.43-.636.65-1.521.662-2.656-.013-1.136-.233-2.021-.662-2.656-.43-.636-.992-.959-1.684-.97zm-10.952.125v3.5h1.112c.514.005.967-.13 1.358-.407.39-.276.597-.724.617-1.343-.02-.62-.226-1.068-.617-1.344a2.255 2.255 0 0 0-1.358-.406h-1.112zm20.161 0a23.916 23.916 0 0 1-.331 3.78c-.214 1.292-.492 2.365-.834 3.22h3.511v-7h-2.346zm-65.582 4v3h1.728c.564 0 1.012-.126 1.344-.376.332-.25.501-.625.509-1.125-.008-.5-.179-.875-.51-1.125-.333-.25-.78-.374-1.343-.374h-1.728z" fill="#0D69E1" fill-rule="nonzero"/><rect stroke="#000" x=".5" y=".5" width="139" height="40" rx="6"/></g><g transform="translate(6 58)"><rect fill="#FFF" fill-rule="nonzero" width="136" height="65.059" rx="6"/><path d="M5.113 3C3.943 3 3 3.942 3 5.113v54.774C3 61.057 3.942 62 5.113 62h125.981c1.17 0 2.113-.942 2.113-2.113V5.113c0-1.17-.942-2.113-2.113-2.113H5.113zm8.02 3.678H37a2.928 2.928 0 0 1 2.935 2.934v13.694a2.928 2.928 0 0 1-2.935 2.934H13.133a2.928 2.928 0 0 1-2.934-2.934V9.612a2.928 2.928 0 0 1 2.934-2.934zm0 1.173c-.975 0-1.76.786-1.76 1.761v13.694c0 .975.785 1.76 1.76 1.76H37c.976 0 1.76-.785 1.76-1.76V9.612c0-.975-.784-1.76-1.76-1.76H13.133zm39.565 2.055l.44 2.054c-.542.008-.946.148-1.213.418a7.62 7.62 0 0 0-.84 1.049c-.295.408-.635.842-1.023 1.303-.388.461-.732.711-1.032.75.707.09 1.24.366 1.6.83.359.464.706 1.02 1.041 1.665.42.768.839 1.516 1.255 2.242.415.727.877 1.3 1.386 1.72h-2.558c-.214-.404-.55-.991-1.007-1.761-.458-.77-.884-1.504-1.277-2.201-.249-.466-.522-.826-.816-1.08-.295-.255-.659-.384-1.091-.387a7.428 7.428 0 0 0-.55.032l-.33.031v5.365h-2.054V10.2h2.054v4.38a.175.175 0 0 0 .053.029c.02.006.051.012.093.014.709-.013 1.313-.381 1.815-1.102a50.519 50.519 0 0 1 1.653-2.233c.6-.768 1.4-1.229 2.401-1.381zm7.715 0c1.611.044 2.81.646 3.6 1.807.788 1.16 1.18 2.612 1.178 4.355.003 1.742-.39 3.194-1.179 4.355-.788 1.16-1.988 1.762-3.599 1.807-1.611-.045-2.81-.647-3.6-1.807-.788-1.16-1.18-2.613-1.178-4.355-.003-1.743.39-3.195 1.179-4.355.788-1.161 1.988-1.763 3.599-1.807zm23.218 0c1.611.044 2.81.646 3.6 1.807.788 1.16 1.18 2.612 1.178 4.355.003 1.742-.39 3.194-1.178 4.355-.79 1.16-1.989 1.762-3.6 1.807-1.611-.045-2.813-.647-3.602-1.807-.788-1.16-1.181-2.613-1.178-4.355-.003-1.743.39-3.195 1.178-4.355.789-1.161 1.99-1.763 3.602-1.807zm-68.59.293h2.054l2.64 5.722 2.641-5.722h2.055l1.32 11.737h-2.2l-.734-8.656-3.081 6.896-3.081-6.896-.734 8.656h-2.2L15.04 10.2zm13.627 0h6.75l-.588 1.907h-4.254v2.788c.23-.287.52-.483.868-.587a3.402 3.402 0 0 1 1.039-.147c.853.006 1.642.324 2.367.954.724.63 1.108 1.534 1.154 2.714-.015 1.205-.424 2.207-1.227 3.008-.804.8-1.912 1.216-3.321 1.247a7.405 7.405 0 0 1-1.888-.293c-.565-.172-.866-.27-.9-.294l-.293-1.907c.367.235.802.393 1.3.474.5.081.994.118 1.487.113.624 0 1.21-.184 1.761-.55.55-.367.844-.917.88-1.651a2.38 2.38 0 0 0-.53-1.487c-.352-.45-.86-.686-1.524-.714-.44.028-.807.155-1.1.384-.294.23-.514.396-.66.497l-1.32-.734v-5.722zm40.487 0h7.336v11.737h-2.054V11.96h-3.228a152.602 152.602 0 0 1-.044 3.694c-.02.915-.055 1.64-.103 2.174-.18 1.348-.585 2.336-1.213 2.966-.628.63-1.233 1.034-1.814 1.208-.581.174-.893.25-.934.228l-.335-1.971c.023.003.196-.062.52-.196.325-.134.666-.357 1.02-.67.355-.313.589-.737.702-1.271.048-.326.082-.946.103-1.859.02-.913.034-1.923.039-3.032.005-1.108.006-2.12.005-3.032zm22.338 0h2.054l2.64 5.722 2.642-5.722h2.054l1.32 11.737h-2.2l-.734-8.656-3.081 6.896-3.081-6.896-.734 8.656h-2.2l1.32-11.737zm12.982 0h2.054v4.695h4.401v-4.695h2.054v11.737h-2.054v-5.281h-4.401v5.281h-2.054V10.2zm14.757 0h2.348l3.814 11.737h-2.2l-.734-2.347h-4.108l-.734 2.347h-2.2l3.814-11.737zm-58.819 1.614c-.822.012-1.487.391-1.998 1.137-.51.746-.774 1.785-.79 3.118.016 1.332.28 2.372.79 3.117.51.746 1.176 1.125 1.998 1.137.822-.012 1.49-.39 2-1.137.51-.745.772-1.785.788-3.117-.016-1.333-.277-2.372-.788-3.118-.51-.746-1.178-1.125-2-1.137zm23.218 0c-.822.012-1.49.391-2 1.137s-.772 1.785-.788 3.118c.016 1.332.277 2.372.788 3.117.51.746 1.178 1.125 2 1.137.822-.012 1.487-.39 1.998-1.137.51-.745.774-1.785.79-3.117-.016-1.333-.28-2.372-.79-3.118s-1.176-1.125-1.998-1.137zm36.775 1.027l-1.467 4.988h2.934l-1.467-4.988zM70.49 26.338c1.186.024 2.115.342 2.788.954.672.61 1.014 1.369 1.027 2.274-.026.725-.204 1.28-.533 1.662-.33.384-.659.644-.988.783-.33.139-.508.204-.533.196.03-.008.245.073.645.24.4.166.8.462 1.2.89.401.427.618 1.029.649 1.804-.01.789-.396 1.559-1.157 2.31-.76.753-1.842 1.156-3.245 1.211-1.274-.067-2.32-.336-3.137-.807-.816-.47-1.237-.74-1.264-.807l1.32-1.614c-.003.055.259.275.788.66.528.386 1.343.606 2.44.66.605-.008 1.119-.175 1.54-.496.422-.32.642-.741.66-1.264-.014-.593-.205-1.057-.569-1.394-.364-.336-.809-.507-1.338-.513h-1.32v-1.76h1.32c.581-.034.997-.225 1.248-.57.25-.346.372-.644.366-.898.022-.26-.096-.585-.35-.973-.253-.388-.771-.601-1.557-.64-1.02.046-1.767.234-2.237.564-.471.33-.703.52-.697.567l-1.11-1.719c.021-.055.402-.275 1.141-.66.74-.385 1.707-.605 2.903-.66zm-25.861.293h3.961c1.449.068 2.476.52 3.081 1.357.605.838.899 1.657.88 2.458-.018.8-.385 1.62-1.1 2.457-.715.838-1.669 1.29-2.861 1.358h-1.907v4.108h-2.054V26.63zm15.065 0h4.255V38.37h-2.054v-4.695h-1.32c-.636.013-1.096.19-1.377.528a5.528 5.528 0 0 0-.763 1.257c-.266.518-.515 1.006-.748 1.465-.234.458-.494.94-.78 1.445h-2.495c.148-.093.365-.376.653-.851.289-.476.581-.996.873-1.563a23.52 23.52 0 0 0 .675-1.401 3.43 3.43 0 0 1 .78-1.061c.346-.328.673-.533.98-.616-.745-.154-1.344-.49-1.797-1.013-.452-.522-.684-1.191-.697-2.005-.024-.648.245-1.333.807-2.054.563-.721 1.565-1.113 3.008-1.174zm20.7 0h2.347l3.815 11.738h-2.201l-.734-2.348h-4.108l-.733 2.348h-2.201l3.814-11.738zm8.58 0h2.054v4.695h4.402v-4.695h2.054V38.37H95.43v-5.282h-4.402v5.282h-2.054V26.63zm11.383 0h2.054v4.549h2.494c1.437.048 2.415.427 2.934 1.137.52.709.765 1.455.734 2.237.018.8-.275 1.62-.88 2.458-.606.837-1.633 1.29-3.081 1.357h-4.255V26.63zm-75.29 1.186l8.802 15.247h-5.634v11.972h-6.338V43.064h-5.634l8.803-15.247zm21.616.575V32.5h1.32c.611.006 1.15-.153 1.614-.477.465-.324.71-.85.734-1.577-.025-.728-.27-1.253-.734-1.577-.465-.324-1.003-.483-1.614-.477h-1.32zm13.598 0c-.611-.005-1.15.13-1.614.408-.465.278-.71.729-.734 1.353.019.623.239 1.074.66 1.352.423.277.936.413 1.541.408h1.76v-3.521h-1.613zm21.286.88L80.1 34.261h2.934l-1.467-4.989zm20.844 3.668v3.668h2.054c.663 0 1.172-.147 1.523-.44.352-.293.528-.734.531-1.32-.003-.594-.18-1.058-.53-1.394-.352-.337-.86-.508-1.524-.514h-2.054zm-53 9.83c1.108.016 2.003.314 2.688.898.685.583 1.209 1.361 1.567 2.33l-1.97.734c-.22-.728-.52-1.254-.9-1.578-.38-.324-.84-.483-1.384-.476-.823.012-1.49.39-2 1.137-.511.745-.773 1.785-.788 3.117.015 1.333.277 2.372.787 3.118s1.178 1.125 2 1.137c.544.006 1.005-.153 1.385-.477.38-.324.68-.85.9-1.577l1.97.734c-.358.969-.882 1.744-1.567 2.328-.685.583-1.58.884-2.687.9-1.612-.045-2.811-.646-3.6-1.805-.788-1.16-1.181-2.612-1.178-4.358-.003-1.745.39-3.198 1.178-4.357.789-1.16 1.988-1.76 3.6-1.805zm9.931.294h2.347L65.504 54.8h-2.2l-.734-2.347h-4.108l-.734 2.347h-2.2l3.814-11.737zm9.314 0h2.054l2.641 5.722 2.641-5.722h2.054l1.32 11.737h-2.2l-.734-8.656-3.081 6.895-3.081-6.895-.734 8.656h-2.2l1.32-11.737zm16.36 0h2.347L91.177 54.8h-2.2l-.734-2.347h-4.108L83.4 54.8h-2.2l3.814-11.737zm8.58 0h3.961c1.449.067 2.476.52 3.081 1.357s.899 1.656.88 2.457c-.018.801-.385 1.62-1.1 2.458-.715.837-1.669 1.29-2.861 1.357H95.65v4.108h-2.054V43.064zm14.185 0h2.347l3.815 11.737h-2.2l-.734-2.347H106.9l-.733 2.347h-2.2l3.814-11.737zm-12.131 1.76v4.108h1.32c.611.006 1.15-.152 1.614-.476.465-.324.71-.85.734-1.578-.025-.727-.27-1.253-.734-1.577-.465-.324-1.003-.483-1.614-.477h-1.32zm-35.134.88l-1.467 4.989h2.934l-1.467-4.988zm25.673 0l-1.467 4.989h2.934l-1.467-4.988zm22.765 0l-1.467 4.989h2.935l-1.468-4.988z" fill="#0D69E1" fill-rule="nonzero"/><rect stroke="#000" x=".5" y=".5" width="135" height="64" rx="6"/></g></g></svg>