<svg width="110" height="80" xmlns="http://www.w3.org/2000/svg"><g fill="none" fill-rule="evenodd"><path d="M0 0h110v80H0z"/><g fill-rule="nonzero"><path d="M11.3 5.166h87.4a6.3 6.3 0 0 1 6.3 6.3v37.068a6.3 6.3 0 0 1-6.3 6.3H11.3a6.3 6.3 0 0 1-6.3-6.3V11.466a6.3 6.3 0 0 1 6.3-6.3z" fill="#000"/><path d="M12.5 6.821c-3.232 0-5.833 2.585-5.833 5.795v34.458H73.75v-4.657h29.583V12.616c0-3.21-2.601-5.795-5.833-5.795h-85z" fill="#FFF"/><path d="M45.807 17.272c-.727 0-1.502.549-1.74 1.232l-.88 2.535-1.822 5.241c-.002.005.001.01 0 .016l-.428 1.22a1.865 1.865 0 0 0-1.874 1.863v7.45c0 1.032.836 1.863 1.874 1.863h28.126c1.038 0 1.874-.83 1.874-1.863v-7.45a1.865 1.865 0 0 0-1.874-1.862l-.428-1.221c-.001-.005.002-.011 0-.016l-1.822-5.241-.88-2.535c-.238-.683-1.013-1.232-1.74-1.232H45.807zm.573 1.863h17.24c.363 0 .756.274.875.616l2.693 7.766H42.811l2.698-7.766c.119-.342.507-.616.87-.616h.001zm-5.442 20.488v3.726a2.803 2.803 0 0 0 2.812 2.793 2.803 2.803 0 0 0 2.813-2.793v-3.726h-5.625zm22.5 0v3.726a2.803 2.803 0 0 0 2.812 2.793 2.803 2.803 0 0 0 2.813-2.793v-3.726h-5.625z" fill="#000"/><path d="M46.2 71.492c0 .754-.295 1.381-.883 1.881-.588.5-1.327.75-2.217.75-.946 0-1.699-.244-2.26-.732-.56-.489-.84-1.114-.84-1.875 0-.485.14-.923.422-1.316.281-.392.678-.704 1.19-.934v-.036c-.47-.25-.816-.523-1.04-.82-.225-.297-.338-.668-.338-1.113 0-.656.27-1.203.809-1.64.539-.438 1.225-.657 2.057-.657.87 0 1.566.209 2.086.627.52.418.779.95.779 1.594 0 .394-.123.782-.37 1.163-.245.38-.607.678-1.083.893v.035c.547.235.965.524 1.254.868.289.343.433.78.433 1.312h.001zm-1.39-4.26c0-.418-.16-.75-.483-.999-.322-.248-.733-.372-1.233-.372-.492 0-.896.118-1.21.352a1.12 1.12 0 0 0-.472.95c0 .28.08.524.237.729.159.205.398.387.718.547.145.07.353.163.624.276.272.113.536.207.794.281.387-.258.654-.525.803-.803.148-.277.223-.597.223-.96l-.001-.001zm.182 4.372c0-.36-.079-.648-.237-.865-.158-.217-.468-.434-.929-.653a5.886 5.886 0 0 0-.603-.24c-.22-.075-.51-.178-.873-.31a2.306 2.306 0 0 0-.847.778 2 2 0 0 0-.32 1.114c0 .527.182.963.546 1.306.363.344.824.516 1.382.516.57 0 1.027-.146 1.368-.44.342-.292.513-.695.513-1.206zm4.805 2.32h-1.4v-1.67h1.4v1.67zm8.46-2.83c0 .886-.291 1.61-.875 2.17-.584.561-1.3.841-2.148.841-.43 0-.82-.066-1.172-.199a2.686 2.686 0 0 1-.931-.592c-.336-.324-.595-.753-.777-1.289-.181-.535-.272-1.18-.272-1.933 0-.774.083-1.46.25-2.057a4.51 4.51 0 0 1 .793-1.594 3.492 3.492 0 0 1 1.33-1.034c.543-.248 1.176-.372 1.899-.372.23 0 .423.01.58.03.156.019.314.054.474.105v1.12h-.058a2.172 2.172 0 0 0-.496-.168 2.902 2.902 0 0 0-.676-.079c-.84 0-1.51.263-2.01.788-.5.525-.791 1.235-.873 2.13.328-.2.651-.35.97-.454.358-.11.73-.161 1.104-.155.371 0 .698.034.982.102a2.6 2.6 0 0 1 .87.413c.343.238.602.54.776.903.174.363.26.804.26 1.324zm-1.189.047c0-.364-.053-.664-.16-.903a1.547 1.547 0 0 0-.531-.62 1.494 1.494 0 0 0-.598-.247 3.895 3.895 0 0 0-1.611.059 4.116 4.116 0 0 0-.879.363 5.961 5.961 0 0 0-.023.55c0 .618.063 1.105.19 1.463.127.357.302.64.524.846.18.172.374.298.583.378.21.08.437.12.683.12.567 0 1.012-.172 1.336-.518.324-.346.486-.843.486-1.491zm4.723 2.783h-1.4v-1.67h1.4v1.67zm7.834 0h-4.723v-.89h1.817v-5.848h-1.817v-.797c.246 0 .51-.02.791-.062.282-.04.494-.1.639-.179.18-.097.321-.221.425-.372.103-.15.163-.352.179-.606h.908v7.863h1.781v.891z" fill="#8B8B8B"/></g></g></svg>