<svg width="100" height="86" xmlns="http://www.w3.org/2000/svg"><g transform="translate(10 3)" fill="none" fill-rule="evenodd"><rect fill="#FFF" fill-rule="nonzero" width="80" height="80" rx="6"/><rect stroke="#000" x=".5" y=".5" width="79" height="79" rx="6"/><path d="M6.304 3A3.296 3.296 0 0 0 3 6.304v67.392A3.296 3.296 0 0 0 6.304 77h67.392A3.296 3.296 0 0 0 77 73.696V6.304A3.296 3.296 0 0 0 73.696 3H6.304zM53.02 23.788c2.886.102 5.194 1.519 6.925 4.253 1.732 2.734 2.62 6.171 2.664 10.307-.045 4.336-.932 7.828-2.664 10.477-1.731 2.648-4.04 4.01-6.925 4.084-2.885-.074-5.194-1.436-6.925-4.084-1.731-2.649-2.619-6.141-2.663-10.477.044-4.335.932-7.828 2.663-10.476 1.731-2.649 4.04-4.01 6.925-4.084zm-33.849.355h16.336l-1.42 4.617h-10.3v6.747a4.154 4.154 0 0 1 2.098-1.42 8.255 8.255 0 0 1 2.52-.356c2.064.015 3.974.785 5.727 2.309 1.753 1.524 2.685 3.714 2.796 6.57-.037 2.915-1.028 5.342-2.974 7.28-1.945 1.939-4.625 2.945-8.035 3.019-1.68-.06-3.203-.296-4.572-.71-1.369-.415-2.095-.652-2.176-.71l-.71-4.618c.89.57 1.94.953 3.146 1.148 1.207.196 2.407.287 3.601.273 1.51 0 2.93-.446 4.262-1.334 1.332-.888 2.042-2.217 2.13-3.993-.007-1.31-.437-2.51-1.288-3.597-.85-1.087-2.078-1.663-3.683-1.73-1.066.067-1.953.378-2.664.933-.71.555-1.243.954-1.598 1.198l-3.196-1.776v-13.85zm33.85 4.06c-1.392-.022-2.505.779-3.337 2.407-.833 1.627-1.26 4.208-1.28 7.738.02 3.53.447 6.111 1.28 7.739.832 1.628 1.945 2.428 3.336 2.407 1.391.021 2.504-.78 3.337-2.407.833-1.628 1.259-4.209 1.28-7.739-.021-3.53-.447-6.11-1.28-7.738-.833-1.628-1.946-2.429-3.337-2.408z" fill="#0D69E1" fill-rule="nonzero"/></g></svg>