<svg width="100" height="86" xmlns="http://www.w3.org/2000/svg"><g fill="none" fill-rule="evenodd"><path d="M90 43c0 22.091-17.909 40-40 40S10 65.091 10 43 27.909 3 50 3s40 17.909 40 40z" fill="#FFF" fill-rule="nonzero"/><path d="M90.367 43c0 22.294-18.073 40.367-40.367 40.367C27.706 83.367 9.633 65.294 9.633 43 9.633 20.706 27.706 2.633 50 2.633c22.294 0 40.367 18.073 40.367 40.367z" stroke="#000"/><path d="M50 5.667C29.381 5.667 12.667 22.38 12.667 43S29.38 80.333 50 80.333 87.333 63.62 87.333 43 70.62 5.667 50 5.667zm-4.704 10.646l1.267 7.183a19.8 19.8 0 0 0-14.188 10.47h7.953l-11.92 20.646-11.92-20.645h7.962c3.182-8.997 11-15.918 20.846-17.655zm5.441 2.179h23.84l-3.981 6.9c6.2 7.254 8.286 17.48 4.867 26.875l-6.85-2.492a19.797 19.797 0 0 0-1.98-17.52l-3.976 6.883-11.92-20.646zM34.83 55.729a19.8 19.8 0 0 0 16.163 7.05l-3.978-6.887h23.84l-11.92 20.646-3.984-6.896c-9.382 1.742-19.282-1.567-25.708-9.225l5.587-4.688z" fill="#0D69E1" fill-rule="nonzero"/></g></svg>