<svg width="100" height="86" xmlns="http://www.w3.org/2000/svg"><g fill="none" fill-rule="evenodd"><path d="M90 43c0 22.091-17.909 40-40 40S10 65.091 10 43 27.909 3 50 3s40 17.909 40 40z" fill="#FFF" fill-rule="nonzero"/><path d="M90.386 43c0 22.304-18.082 40.386-40.386 40.386C27.696 83.386 9.614 65.304 9.614 43 9.614 20.696 27.696 2.614 50 2.614c22.304 0 40.386 18.082 40.386 40.386z" stroke="#000"/><path d="M48.71 5.307C28.48 5.987 12.287 22.602 12.287 43c0 20.398 16.193 37.013 36.425 37.693V5.307zm2.58 0v75.386C71.52 80.013 87.713 63.398 87.713 43c0-20.398-16.193-37.013-36.425-37.693zM33.592 18.871c.99 0 2.64.581 2.64 2.436 0 2.131-3.45 3.829-4.533 3.829-1.526 0-2.229-1.754-2.229-2.84 0-2.669 3.283-3.425 4.122-3.425zm.657 6.736c.311 0 .621.078.9.24l5.743 3.317c.558.322.9.917.9 1.561v6.31a1.352 1.352 0 1 1-2.704 0v-5.789l-2.793-1.614v7.564c0 .24-.095.467-.264.636l-7.328 7.332-2.04 8.15a1.712 1.712 0 0 1-3.321-.832l2.503-10.018a.899.899 0 0 1 .25-.428l4.475-4.479v-9.586c0-.322.172-.624.45-.785l2.325-1.34c.28-.16.593-.239.904-.239zm-4.66 6.26v3.826l-3.158 3.153a1.334 1.334 0 0 1-.95.397 1.352 1.352 0 0 1-.957-2.307l5.064-5.068zm34.331.958h2.854c.328 0 .596.265.596.593a.596.596 0 0 1-.596.593h-2.854a.962.962 0 0 0-.964.96c0 .349.221.662.55.775a2.002 2.002 0 0 1 1.282 2.415h10.182l.35-.815h-2.614a.889.889 0 1 1 0-1.778h4.079a.889.889 0 1 1 0 1.778h-.332l-.536 1.254 2.228 3.186a5.933 5.933 0 1 1-3.307 6.164h-3.475l-8.189-6.26-.471 1.006a5.92 5.92 0 0 1 1.996 4.436 5.93 5.93 0 1 1-11.86 0 5.93 5.93 0 0 1 5.928-5.932c1.077 0 2.086.291 2.957.793l1.786-3.832.085-.179a.816.816 0 0 0-.475-1.114 2.006 2.006 0 0 1-1.35-1.897c0-1.187.963-2.146 2.15-2.146zm-28.146 6.54L42.954 51.8c.248.297.403.682.403 1.1a1.712 1.712 0 1 1-3.204.846l-.02.008-6.865-11.883 2.507-2.507zm28.586.131l-.604.95 7.722 5.908 2.928-6.858H64.361zm11.139.836l-2.679 6.282h1.983a5.928 5.928 0 0 1 2.214-4.118L75.5 40.332zm-16.86 1.76a5.04 5.04 0 0 0-4.911 5.04 5.04 5.04 0 1 0 8.582-3.586l-1.136 2.433c-.186.4-.49.733-.871.953l-1.24.714a.594.594 0 0 1-.593-1.028l1.24-.714a.962.962 0 0 0 .389-.429l1.25-2.671a5.025 5.025 0 0 0-2.582-.711h-.129zm22.074 0c-.73 0-1.42.158-2.046.437l2.896 4.135a.815.815 0 0 1-.668 1.286H75.74a5.042 5.042 0 1 0 4.975-5.857zm-3.185 1.133a5.043 5.043 0 0 0-1.829 3.39h4.2l-2.371-3.39z" fill="#0D69E1" fill-rule="nonzero"/><path d="M73.964 13.875l-53.089 53.09a37.969 37.969 0 0 0 5.079 5.089l53.171-53.018a37.972 37.972 0 0 0-5.16-5.161z" fill="red" fill-rule="nonzero"/></g></svg>