<svg width="100" height="86" xmlns="http://www.w3.org/2000/svg"><g fill="none" fill-rule="evenodd"><path d="M90 43c0 22.091-17.909 40-40 40S10 65.091 10 43 27.909 3 50 3s40 17.909 40 40z" fill="#FFF" fill-rule="nonzero"/><path d="M90.633 43.133c0 22.368-18.132 40.5-40.5 40.5-22.367 0-40.5-18.132-40.5-40.5 0-22.367 18.133-40.5 40.5-40.5 22.368 0 40.5 18.133 40.5 40.5z" stroke="#000"/><path fill="#000" fill-rule="nonzero" d="M38.4 15.933v23.2h-6.551l10.418 18.045 10.418-18.045h-6.552v-23.2z"/><path d="M50 4.333C28.645 4.333 11.333 21.645 11.333 43S28.645 81.667 50 81.667 88.667 64.355 88.667 43 71.355 4.333 50 4.333zm0 6.445c17.796 0 32.222 14.426 32.222 32.222 0 14.664-9.796 27.04-23.2 30.941V62.333h6.551L55.156 44.29 44.738 62.333h6.55v12.861c-.427.017-.856.028-1.288.028-17.796 0-32.222-14.426-32.222-32.222S32.204 10.778 50 10.778z" fill="red" fill-rule="nonzero"/></g></svg>