<svg width="100" height="86" xmlns="http://www.w3.org/2000/svg"><g transform="translate(21 1)" fill="none" fill-rule="evenodd"><rect fill="#FFF" fill-rule="nonzero" x="2" y="2" width="53.333" height="80" rx="4"/><path d="M4.328 2.78c-.84 0-1.516.672-1.516 1.506V24.43H54.98V4.286c0-.834-.676-1.505-1.516-1.505H32.308l4.265 19.11h-5.97l-.854-19.11h-1.706l-.853 19.11h-5.971l4.265-19.11H4.328zM2.812 27.816v52.307c0 .834.676 1.505 1.516 1.505h.683l13.648-51.273h8.53l-1.705 51.273h6.824l-1.706-51.273h8.53l13.65 51.273h.682c.84 0 1.516-.671 1.516-1.505V27.815h-7.317v5.925h-3.412l-1.706-5.925H15.247l-1.706 5.925H10.13v-5.925H2.812z" fill="#00A500" fill-rule="nonzero"/><path d="M49.37 2.78L2.811 76.06v4.062c0 .834.676 1.505 1.516 1.505h4.095L54.98 8.348V4.286c0-.834-.676-1.505-1.516-1.505h-4.095z" fill="red" fill-rule="nonzero"/><rect stroke="#000" x=".5" y=".5" width="57" height="83" rx="4"/></g></svg>