<svg width="110" height="80" xmlns="http://www.w3.org/2000/svg"><g fill="none" fill-rule="evenodd"><path d="M0 0h110v80H0z"/><g fill-rule="nonzero"><g transform="translate(5 6)"><path d="M6.3.166h87.4a6.3 6.3 0 0 1 6.3 6.3v37.068a6.3 6.3 0 0 1-6.3 6.3H6.3a6.3 6.3 0 0 1-6.3-6.3V6.466a6.3 6.3 0 0 1 6.3-6.3z" fill="#000"/><rect fill="#FFF" x="1.667" y="1.821" width="96.667" height="46.358" rx="4.9"/><path fill="#000" d="M18.594 15.687v7.606h-7.656v3.414h7.656v7.606h3.437v-7.606h7.657v-3.414h-7.657v-7.606zM34.063 30.743h2.226l.742-8.7 3.117 6.93 3.118-6.93.742 8.7h2.226l-1.336-11.796H42.82l-2.672 5.75-2.671-5.75h-2.079l-1.335 11.796zm15.491 0h7.57v-1.77h-5.492v-3.538h4.305v-1.77h-4.305v-2.801h5.344v-1.917h-7.422v11.796zm10.908-11.796v1.769h3.265v10.027h2.078V20.716h3.266v-1.77l-8.609.001zm11.929 0v11.796h2.078v-4.129h1.93c1.206-.067 2.17-.522 2.894-1.364.724-.841 1.095-1.665 1.114-2.47.018-.804-.279-1.628-.891-2.47-.612-.841-1.651-1.296-3.117-1.363H72.39h.001zm2.078 1.77h1.336c.619-.007 1.163.153 1.633.478.47.326.717.854.742 1.585-.025.732-.272 1.26-.742 1.586-.47.325-1.014.485-1.633.479H74.47v-4.129l-.001.001zm14.184-2.065c-1.63.045-2.844.65-3.642 1.817-.798 1.166-1.196 2.625-1.193 4.376-.003 1.75.395 3.21 1.193 4.376.798 1.166 2.012 1.772 3.642 1.817 1.63-.045 2.844-.65 3.642-1.817.798-1.166 1.195-2.625 1.193-4.376.002-1.751-.395-3.21-1.193-4.376-.798-1.167-2.012-1.772-3.642-1.817zm0 1.917c.832.012 1.506.393 2.022 1.142.517.75.783 1.794.798 3.134-.015 1.34-.281 2.384-.798 3.133-.516.75-1.19 1.13-2.022 1.143-.832-.012-1.506-.393-2.023-1.143-.516-.75-.782-1.794-.798-3.133.016-1.34.282-2.384.798-3.134.517-.75 1.19-1.13 2.023-1.142z"/></g><path d="M41.914 70.568c0 .754-.294 1.381-.882 1.881-.588.5-1.327.75-2.218.75-.945 0-1.698-.244-2.258-.732s-.841-1.113-.841-1.875c0-.485.14-.923.422-1.316.281-.392.677-.704 1.19-.934v-.035c-.47-.25-.816-.524-1.04-.82-.225-.298-.338-.669-.338-1.114 0-.656.27-1.203.809-1.64.539-.438 1.224-.657 2.056-.657.872 0 1.567.21 2.086.627.52.418.78.95.78 1.594 0 .394-.123.782-.37 1.163-.246.38-.607.679-1.083.894v.035c.546.234.964.523 1.253.867.29.344.434.781.434 1.312zm-1.389-4.26c0-.417-.16-.75-.483-.998-.322-.248-.733-.373-1.233-.373-.493 0-.896.118-1.21.352a1.12 1.12 0 0 0-.472.95c0 .28.08.524.237.729.158.205.398.387.718.548.145.07.353.162.624.275.272.113.536.207.794.281.387-.258.654-.525.803-.802.148-.278.222-.598.222-.961v-.001zm.182 4.372c0-.36-.08-.648-.237-.865-.158-.216-.468-.434-.929-.653a5.885 5.885 0 0 0-.603-.24c-.22-.074-.51-.178-.874-.31a2.306 2.306 0 0 0-.846.779 2 2 0 0 0-.32 1.113c0 .527.182.963.545 1.307.364.343.825.515 1.383.515.57 0 1.027-.146 1.368-.44.342-.292.513-.695.513-1.206zM45.512 73h-1.4v-1.67h1.4V73zm8.332 0h-5.907v-1.225l1.234-1.054c.395-.337.78-.687 1.151-1.05.75-.726 1.264-1.303 1.541-1.73a2.5 2.5 0 0 0 .416-1.386c0-.453-.15-.808-.448-1.064-.299-.256-.716-.384-1.25-.384-.356 0-.741.063-1.155.188-.43.132-.838.326-1.213.574h-.059v-1.23c.278-.137.648-.262 1.11-.375a5.65 5.65 0 0 1 1.345-.17c.895 0 1.596.216 2.104.647.508.432.762 1.017.762 1.755 0 .332-.042.642-.126.929-.084.287-.208.56-.372.817-.153.242-.331.48-.537.715-.205.234-.454.494-.747.78-.418.41-.85.807-1.295 1.192-.445.384-.86.74-1.248 1.069h4.694V73zm7.13 0h-4.722v-.89h1.816v-5.848h-1.816v-.797c.246 0 .51-.02.791-.062.281-.04.494-.1.639-.178.18-.098.32-.222.424-.372.104-.15.164-.353.18-.607h.907v7.863h1.782V73h-.001zm4.16 0h-1.4v-1.67h1.4V73zm7.835 0h-4.723v-.89h1.816v-5.848h-1.816v-.797c.246 0 .51-.02.791-.062.281-.04.494-.1.639-.178.18-.098.321-.222.425-.372.103-.15.163-.353.178-.607h.909v7.863h1.78V73h.001z" fill="#8B8B8B"/></g></g></svg>