<?xml version="1.0" encoding="UTF-8"?>
<svg id="_Слой_1" data-name=" Слой 1" xmlns="http://www.w3.org/2000/svg" width="110" height="97" viewBox="0 0 110 97">
  <defs>
    <style>
      .cls-1 {
        fill: none;
      }

      .cls-2 {
        fill: #fff;
      }

      .cls-3 {
        fill: #8b8b8b;
      }
    </style>
  </defs>
  <g>
    <path class="cls-3" d="m40.98,91.63c-.43,0-.83-.06-1.18-.19s-.66-.31-.91-.56c-.25-.23-.43-.51-.56-.83s-.19-.66-.19-1.02c0-.47.13-.91.38-1.3s.62-.71,1.1-.95v-.04c-.43-.25-.75-.52-.96-.82s-.31-.67-.31-1.11c0-.66.25-1.2.74-1.64s1.12-.66,1.89-.66,1.43.21,1.91.62.72.95.72,1.6c0,.39-.11.78-.34,1.16s-.56.68-.99.9v.04c.51.24.89.53,1.15.87s.39.78.39,1.31c0,.75-.27,1.37-.81,1.88s-1.22.76-2.03.76Zm1.64-2.52c0-.36-.07-.64-.21-.86s-.41-.43-.81-.64c-.13-.07-.31-.15-.53-.24s-.47-.19-.75-.3c-.32.21-.57.48-.74.79s-.26.67-.26,1.08c0,.53.16.96.48,1.31s.72.52,1.2.52.89-.15,1.18-.44.45-.7.45-1.2Zm-.16-4.37c0-.39-.13-.72-.39-.98s-.62-.39-1.09-.39c-.43,0-.77.12-1.05.35s-.41.55-.41.95c0,.29.07.53.21.73s.35.38.62.54c.12.07.31.16.55.28s.47.21.68.28c.34-.26.57-.53.69-.81s.18-.59.18-.95Z"/>
    <path class="cls-3" d="m46.77,91.43h-1.4v-1.67h1.4v1.67Z"/>
    <path class="cls-3" d="m54.14,88.43h-1.04v3h-1.12v-3h-3.86v-1.23l3.9-4.49h1.08v4.79h1.04v.94Zm-2.16-.94v-3.41l-2.94,3.41h2.94Z"/>
    <path class="cls-3" d="m56.83,91.43h-1.4v-1.67h1.4v1.67Z"/>
    <path class="cls-3" d="m63.53,91.43h-4.25v-.89h1.58v-5.85h-1.58v-.8c.6,0,1.04-.08,1.32-.25s.44-.49.48-.96h.91v7.86h1.55v.89Z"/>
    <path class="cls-3" d="m70.66,88.6c0,.45-.07.86-.22,1.24s-.35.7-.6.95c-.26.27-.55.47-.88.61s-.68.21-1.07.21-.75-.07-1.08-.2-.61-.33-.85-.59c-.3-.32-.54-.74-.71-1.27s-.25-1.18-.25-1.95.08-1.44.23-2.05.4-1.14.72-1.6c.32-.44.72-.79,1.22-1.03s1.08-.37,1.73-.37c.2,0,.38,0,.54.03s.32.05.45.09v1.12h-.05c-.11-.06-.26-.11-.46-.16s-.41-.07-.64-.07c-.73,0-1.31.25-1.76.74s-.71,1.22-.79,2.18c.28-.2.56-.35.86-.45s.61-.16.96-.16.64.03.89.1.52.21.8.41c.32.24.56.55.71.92s.23.81.23,1.31Zm-1.19.05c0-.36-.05-.66-.14-.9s-.25-.45-.46-.62c-.15-.12-.33-.21-.52-.25s-.39-.06-.59-.06c-.27,0-.54.04-.8.12s-.51.2-.76.36c0,.09-.01.17-.02.25s0,.18,0,.3c0,.61.06,1.09.18,1.46s.27.65.44.84c.17.18.34.31.52.39s.37.11.58.11c.47,0,.85-.17,1.14-.5s.44-.84.44-1.51Z"/>
  </g>
  <rect class="cls-1" width="110" height="97"/>
  <path d="m11.28,5.49h87.4c3.48,0,6.3,2.82,6.3,6.3h0v54.07c0,3.48-2.82,6.3-6.3,6.3H11.28c-3.48,0-6.3-2.82-6.3-6.3h0V11.79c0-3.48,2.82-6.3,6.3-6.3Z"/>
  <path class="cls-2" d="m11.55,7.15h86.87c2.71,0,4.9,2.19,4.9,4.9h0v53.53c0,2.71-2.19,4.9-4.9,4.9H11.55c-2.71,0-4.9-2.19-4.9-4.9h0V12.05c0-2.71,2.19-4.9,4.9-4.9h0Z"/>
  <g>
    <path d="m93.83,57.15c.2-.01.36-.15.48-.42.13-.29.19-.6.19-.92-.05-1.72-.62-3.19-1.73-4.38-1.11-1.2-2.46-1.82-4.07-1.87-.88.01-1.74.22-2.52.61-.82.4-1.51.94-2.07,1.62-.46.56-.79,1.22-.97,1.92-.19.73-.29,1.58-.3,2.54.03,2.04.65,3.66,1.88,4.85,1.22,1.2,2.7,1.81,4.44,1.84.79,0,1.6-.23,2.42-.7.83-.47,1.64-1.2,2.42-2.2l-2.17-1.24c-.43.56-.85.98-1.25,1.26s-.88.43-1.42.43c-.63.03-1.32-.19-2.09-.67-.77-.47-1.19-1.37-1.25-2.68,0,0,8.03,0,8.04,0Z"/>
    <path d="m16.86,50v12.5h2.68v-5.8c.12-.02.23-.03.35-.04.12-.01.23-.02.32-.02,1.23.08,2.16.74,2.8,1.98.68,1.31,1.38,2.61,2.11,3.89h3.35c-.77-.79-1.41-1.69-1.88-2.69-.47-.97-1-1.91-1.6-2.81-.54-.83-1.37-1.41-2.33-1.65.54-.16,1.01-.49,1.43-1,.41-.51.85-1.01,1.31-1.49.45-.48,1.07-.78,1.72-.85l-.67-2.23c-.93.13-1.76.57-2.51,1.32-.72.72-1.42,1.47-2.11,2.22-.66.73-1.32,1.12-1.98,1.17-.05,0-.11,0-.16,0-.05,0-.11-.01-.16-.03v-4.47s-2.68,0-2.68,0Z"/>
    <path d="m38.51,49.56c-1.11.07-1.91.37-2.4.89-.49.52-.73.82-.72.89-.2-.35-.35-.8-.45-1.34h-2.23v17.86h2.68v-6.48c.02.16.32.45.89.87.58.41,1.32.65,2.23.7.49.02,1.17-.15,2.04-.5.87-.35,1.67-1.01,2.39-1.98.72-.97,1.1-2.38,1.15-4.22-.09-2.62-.74-4.41-1.95-5.36-1.21-.95-2.42-1.4-3.63-1.34,0,0,0,0,0,0Z"/>
    <path class="cls-2" d="m38.51,52.01c.8,0,1.48.38,2.04,1.12.55.74.84,1.78.87,3.12-.02,1.36-.31,2.44-.87,3.24-.55.8-1.23,1.21-2.04,1.23-.61-.01-1.21-.17-1.74-.47-.57-.31-1.04-.76-1.38-1.31v-4.69c.34-.68.79-1.22,1.33-1.62.52-.39,1.14-.6,1.79-.61Z"/>
    <path d="m53.88,49.56c-1.71.03-3.09.64-4.16,1.84-1.06,1.2-1.61,2.82-1.65,4.85.03,2.04.58,3.66,1.65,4.85,1.06,1.2,2.45,1.81,4.16,1.84,1.71-.03,3.09-.64,4.16-1.84,1.06-1.2,1.61-2.82,1.65-4.85-.03-2.04-.58-3.65-1.65-4.85-1.06-1.2-2.45-1.81-4.16-1.84Z"/>
    <path class="cls-2" d="m53.88,51.79c.91.02,1.66.43,2.23,1.23.58.8.87,1.88.89,3.24-.02,1.36-.32,2.44-.89,3.24-.58.8-1.32,1.21-2.23,1.23-.91-.02-1.65-.43-2.23-1.23s-.87-1.88-.89-3.24c.02-1.36.32-2.44.89-3.24s1.32-1.21,2.23-1.23Z"/>
    <polygon points="64.37 62.5 67.05 62.5 67.72 53.8 71.29 60.94 74.86 53.8 75.53 62.5 78.21 62.5 77.09 50 74.41 50 71.29 56.25 68.16 50 65.48 50 64.37 62.5"/>
    <path class="cls-2" d="m88.69,51.79c.69,0,1.34.28,1.94.83.6.55.92,1.17.96,1.85,0,.1-.02.21-.05.31-.04.09-.09.13-.17.14h-5.58c.03-1.1.33-1.9.91-2.38.56-.47,1.26-.74,1.99-.75h0Z"/>
  </g>
  <g>
    <rect x="49.71" y="36.84" width="14.4" height="1.99"/>
    <path d="m42.71,33.86l2.8-15.72c.2-1.09,1.2-1.79,2.3-1.59h0l-3.1,17.71s-2-.4-2-.4Z"/>
    <polygon points="43.8 29.6 45.48 28.52 51.45 37.71 49.77 38.79 43.8 29.6"/>
    <ellipse cx="67.71" cy="37.74" rx="4.2" ry="4.18"/>
    <ellipse cx="43.01" cy="37.74" rx="4.2" ry="4.18"/>
    <path d="m61.31,37.84c-.6-.1-.9-.6-.8-1.19,1-4.78,5.2-6.07,7.3-6.07h0c.5,0,1,.4,1,.99,0,.5-.4.99-1,.99-.2,0-4.5.1-5.4,4.48-.1.5-.5.8-1,.8-.1,0-.2,0-.1,0Z"/>
    <path d="m45.71,17.74h0c0-.9.7-1.59,1.6-1.59h2c.9,0,1.6.7,1.6,1.59h0c0,.9-.7,1.59-1.6,1.59h-2c-.9,0-1.6-.7-1.6-1.59Z"/>
  </g>
</svg>