<svg width="100" height="86" xmlns="http://www.w3.org/2000/svg"><g fill="none" fill-rule="evenodd"><path d="M55.464 6.502c3.267 5.663 6.466 11.286 11.217 19.692l4.76 8.425c10.212 18.068 16.33 28.664 23.07 39.766 2.228 3.668-.924 8.996-5.175 8.996H10.534c-4.251 0-7.403-5.328-5.176-8.996 6.738-11.099 12.84-21.67 23.068-39.763l4.632-8.2c4.828-8.54 8.048-14.2 11.348-19.92 2.852-4.943 8.207-4.943 11.058 0z" stroke="#0C0E0F"/><path d="M11.61 73.352l-.003.006-.556.967-.016.028a108.335 108.335 0 0 1-1.5 2.568c-.22.362.5 1.574 1 1.574h78.8c.5 0 1.22-1.212 1-1.575-.436-.718-.772-1.295-1.502-2.57l-.02-.036c-.266-.463-.396-.69-.554-.962L51.232 8.943c-.918-1.591-1.675-1.591-2.591-.003L11.61 73.352z" stroke="red" stroke-width="6" fill="#FFF"/><g fill="#000" fill-rule="nonzero"><path d="M62.032 60.572c.725 1.255.222 1.6 1.238 2.186 1.288.743 4.702.652 5.046 2.712l.995 5.945a1.186 1.186 0 0 0 2.353-.279l-.745-10.656-3.31-4.086v-7.332a2.372 2.372 0 0 0-2.371-2.372h-17.6l-1.096 6.214a1.997 1.997 0 0 1-1.967 1.65h-5.003l1.894 6.603a3.12 3.12 0 0 0 3 2.26h3.483c1.103 0 1.998.894 1.998 1.997v5.805a1.186 1.186 0 0 0 2.371 0v-7.554c0-.408.247-.774.625-.926l7.027-2.84c1.123-.453 1.866.333 2.062.673z"/><path d="M62.02 63.101l-3.214 7.572a1.183 1.183 0 0 0 .628 1.552c.602.256 1.3-.025 1.556-.628l2.84-6.686-1.81-1.81zM44.625 71.644a1.186 1.186 0 0 1-2.214-.85l2.257-5.879h2.54l-2.583 6.729zM37.616 39.88a.312.312 0 0 0-.265.23l-.76 2.835-1.163.344a.872.872 0 0 0 .226 1.716h.749l1.443 7.685a.375.375 0 0 0 .367.304h6.366a.375.375 0 0 0 .367-.304l1.443-7.685h.749a.874.874 0 0 0 .226-1.716l-1.162-.344-.76-2.835a.31.31 0 0 0-.602 0l-.76 2.835h-5.368l-.76-2.835a.306.306 0 0 0-.219-.219.317.317 0 0 0-.117-.012z"/></g></g></svg>