<svg width="100" height="86" xmlns="http://www.w3.org/2000/svg"><g fill="none" fill-rule="evenodd"><path d="M89.734 42.879a39.867 39.867 0 1 1-79.734 0 39.867 39.867 0 1 1 79.734 0z" fill="#FFF" fill-rule="nonzero"/><path d="M90.5 43c0 22.368-18.132 40.5-40.5 40.5S9.5 65.368 9.5 43 27.632 2.5 50 2.5 90.5 20.632 90.5 43z" stroke="#000"/><g fill-rule="nonzero"><path d="M50 81c20.987 0 38-17.013 38-38S70.987 5 50 5 12 22.013 12 43s17.013 38 38 38zm20.279-14.165A31.294 31.294 0 0 1 50 74.295c-17.283 0-31.294-14.012-31.294-31.295 0-7.43 2.644-14.619 7.46-20.279l44.113 44.114zM29.72 19.165A31.294 31.294 0 0 1 50 11.705c17.283 0 31.294 14.012 31.294 31.295 0 7.43-2.644 14.619-7.46 20.279L29.722 19.165z" fill="red"/><path d="M46.654 45.129l-10.797 18.7a2.457 2.457 0 1 0 4.258 2.458l10.138-17.56-3.599-3.598zM56.924 55.398l2.556 10.255a2.458 2.458 0 0 0 4.77-1.19l-.578-2.316-6.748-6.75zM37.766 36.24v6.051a1.94 1.94 0 1 0 3.88 0v-2.17l-3.88-3.88zM53.871 41.397v-12.11c0-.461-.247-.888-.647-1.12l-3.34-1.927a2.587 2.587 0 0 0-2.586 0l-5.442 3.141 2.841 2.842.96-.554v1.513l8.214 8.215zM55.165 40.25l4.643 4.642a1.94 1.94 0 0 0 2.744-2.744l-7.388-7.387v5.488zM49.537 16.226c1.204 0 5.912 1.086 5.912 4.915 0 1.553-1.009 4.075-3.195 4.075-1.552 0-6.507-2.445-6.507-5.497 0-2.665 2.368-3.493 3.79-3.493z" fill="#000"/></g></g></svg>