<svg width="156" height="65" xmlns="http://www.w3.org/2000/svg"><g transform="matrix(-1 0 0 1 150 8)" fill="none" fill-rule="evenodd"><rect fill="#FFF" fill-rule="nonzero" x="1" y="1" width="142" height="48" rx="6.3"/><rect fill="#FC0" fill-rule="nonzero" transform="matrix(-1 0 0 1 144 0)" x="4" y="4" width="136" height="42" rx="3.5"/><rect stroke="#000" x=".5" y=".5" width="143" height="49" rx="6.16"/><path d="M7.69 3A4.668 4.668 0 0 0 3 7.667v34.666A4.668 4.668 0 0 0 7.69 47h128.62a4.668 4.668 0 0 0 4.69-4.667V7.667A4.668 4.668 0 0 0 136.31 3H7.69zm0 1.333h128.62a3.334 3.334 0 0 1 3.35 3.334v34.666a3.334 3.334 0 0 1-3.35 3.334H7.69a3.334 3.334 0 0 1-3.35-3.334V7.667a3.334 3.334 0 0 1 3.35-3.334z" fill="#000" fill-rule="nonzero"/><path fill="#000" fill-rule="nonzero" d="M112.444 20.693v-6.96l20.223 11.6-20.223 11.601v-6.961H97.667v-9.28z"/><g fill="#000" fill-rule="nonzero"><path d="M86.985 19.041c1.593.026 2.886.596 3.88 1.709.993 1.113 1.505 2.614 1.535 4.504-.03 1.89-.542 3.39-1.536 4.504-.993 1.113-2.286 1.682-3.879 1.708-1.592-.026-2.885-.595-3.878-1.708-.994-1.113-1.506-2.615-1.536-4.504.03-1.89.542-3.391 1.536-4.504.993-1.113 2.286-1.683 3.878-1.709zm0 2.071c-.85.017-1.544.397-2.082 1.14-.538.741-.816 1.742-.833 3.002.017 1.26.295 2.26.833 3.002s1.232 1.122 2.082 1.14c.85-.018 1.545-.398 2.083-1.14.538-.742.816-1.743.833-3.002-.017-1.26-.295-2.26-.833-3.003-.538-.742-1.232-1.122-2.083-1.139zM67.642 14.072c.004.017.204.086.599.207.395.12.959.19 1.692.207h2.916c1.71.04 2.986.506 3.825 1.398.84.892 1.39 1.972 1.65 3.239.262 1.266.38 2.482.356 3.646a16.721 16.721 0 0 1-.44 4.003c-.308 1.323-.872 2.428-1.69 3.313-.817.886-1.981 1.346-3.493 1.38-1.775-.068-3.12-.707-4.035-1.915a6.632 6.632 0 0 1-1.38-4.09c.035-1.97.538-3.463 1.51-4.477.972-1.014 2.204-1.523 3.697-1.527 1.032.034 1.83.276 2.394.724.565.449.946.898 1.146 1.346-.022-1.186-.327-2.23-.915-3.132-.588-.901-1.324-1.376-2.209-1.423h-3.124a5.608 5.608 0 0 1-.762-.07 6.763 6.763 0 0 1-.696-.137l-1.04-2.692zm5.415 7.454c-.66-.017-1.267.276-1.822.88-.556.604-.85 1.623-.886 3.055.035 1.432.33 2.45.886 3.054.555.604 1.162.897 1.822.88.568.017 1.15-.276 1.744-.88.594-.604.915-1.622.963-3.054-.048-1.433-.369-2.45-.963-3.055-.594-.604-1.176-.897-1.744-.88zM65.56 19.456v2.277h-2.707v9.319h-5.207c-1.445-.04-2.489-.427-3.131-1.165a3.71 3.71 0 0 1-.945-2.563 3.71 3.71 0 0 1 .945-2.562c.642-.738 1.686-1.126 3.131-1.165h2.708v-4.141h5.206zm-5.206 6.419h-2.916c-.425.018-.772.174-1.041.47-.27.295-.408.621-.417.98.009.357.148.684.417.98.269.295.616.451 1.041.469h2.916v-2.9zM45.65 21.112c-.646.002-1.25.257-1.811.766-.56.508-.86 1.081-.896 1.72 0 .107.015.202.048.284.033.082.086.125.16.13h5.206c-.029-1.024-.313-1.758-.851-2.205a2.945 2.945 0 0 0-1.856-.695zm-4.79 4.97c-.182-.013-.33-.142-.446-.388a2.049 2.049 0 0 1-.179-.854c.044-1.601.582-2.956 1.614-4.064 1.033-1.109 2.3-1.687 3.801-1.735a5.47 5.47 0 0 1 2.354.57 5.716 5.716 0 0 1 1.93 1.501c.425.513.728 1.107.908 1.783.18.675.274 1.461.282 2.359-.024 1.89-.608 3.39-1.751 4.504-1.144 1.113-2.524 1.682-4.14 1.708-.734.004-1.488-.211-2.26-.647-.773-.436-1.526-1.118-2.262-2.045l2.024-1.154c.403.519.794.91 1.171 1.172.377.264.82.395 1.328.396.585.026 1.236-.181 1.952-.621s1.106-1.268 1.171-2.485H40.86zM32.763 19.249c.85.004 1.626.099 2.328.284a7.03 7.03 0 0 1 1.837.75l-1.13 2.19a7.48 7.48 0 0 0-1.25-.777c-.472-.236-1.067-.362-1.785-.377-.46-.008-.946.112-1.458.363-.512.25-.79.681-.833 1.294 0 .323.104.608.312.854.209.246.521.375.938.388h1.666v1.864h-1.666c-.517.017-.89.19-1.12.518-.23.328-.343.707-.338 1.139.035.522.277.927.729 1.216.45.29.902.436 1.353.44.547.008 1.194-.104 1.942-.336.747-.233 1.35-.633 1.807-1.202l1.547 1.686c-.66.624-1.483 1.1-2.47 1.427-.986.328-1.928.493-2.826.496-1.345.009-2.47-.268-3.376-.828-.907-.561-1.378-1.459-1.414-2.692.037-.92.313-1.595.83-2.027.516-.431 1.053-.692 1.61-.784-.514-.154-.974-.474-1.38-.957-.406-.484-.62-1.092-.643-1.823.017-.997.451-1.762 1.302-2.297.85-.534 2.013-.804 3.488-.81zM22.912 19.456c.007 2.05.164 3.821.472 5.313.308 1.492.726 2.827 1.254 4.005h1.19v4.763h-2.5v-2.485h-7.913v2.485h-2.291v-4.763h1.458v-9.318h8.33zm-2.499 2.277h-3.332v7.04h4.85c-.506-1.028-.863-2.165-1.072-3.408a40.574 40.574 0 0 1-.446-3.632z"/></g></g></svg>