<svg width="110" height="97" xmlns="http://www.w3.org/2000/svg"><g fill="none" fill-rule="evenodd"><path d="M0 0h110v97H0z"/><g fill-rule="nonzero"><path d="M11.3 5.167h87.4a6.3 6.3 0 0 1 6.3 6.3v54.066a6.3 6.3 0 0 1-6.3 6.3H11.3a6.3 6.3 0 0 1-6.3-6.3V11.467a6.3 6.3 0 0 1 6.3-6.3z" fill="#000"/><path d="M11.567 6.833h86.866a4.9 4.9 0 0 1 4.9 4.9v53.534a4.9 4.9 0 0 1-4.9 4.9H11.567a4.9 4.9 0 0 1-4.9-4.9V11.733a4.9 4.9 0 0 1 4.9-4.9z" fill="#FFF"/><path d="M16.25 49.997v12.5h2.679v-5.803a9.17 9.17 0 0 1 .346-.044c.118-.013.226-.02.323-.02 1.231.085 2.165.744 2.802 1.977a117.48 117.48 0 0 0 2.109 3.89h3.348a9.992 9.992 0 0 1-1.88-2.688c-.466-.972-1-1.91-1.597-2.808a3.852 3.852 0 0 0-2.326-1.646c.538-.16 1.013-.494 1.426-1.003.413-.51.851-1.007 1.314-1.492a2.778 2.778 0 0 1 1.724-.854l-.67-2.232c-.927.129-1.765.57-2.512 1.323a66.26 66.26 0 0 0-2.108 2.223c-.658.728-1.319 1.12-1.98 1.174a3.02 3.02 0 0 1-.16-.004.665.665 0 0 1-.16-.028v-4.465H16.25zm21.649-.446c-1.107.074-1.907.372-2.4.893-.492.52-.734.818-.725.893-.197-.351-.345-.797-.446-1.34h-2.233v17.858h2.679V61.38c.019.163.316.451.893.865.576.414 1.32.647 2.232.698.49.02 1.171-.145 2.042-.496.87-.352 1.667-1.013 2.39-1.984.721-.972 1.104-2.377 1.148-4.217-.093-2.622-.744-4.408-1.953-5.357-1.209-.948-2.418-1.395-3.627-1.339v.001zm0 2.455c.804.01 1.483.382 2.037 1.116.553.735.842 1.777.865 3.125-.023 1.358-.312 2.437-.865 3.237-.554.8-1.233 1.21-2.037 1.228a3.659 3.659 0 0 1-1.742-.475 3.698 3.698 0 0 1-1.383-1.311v-4.688c.343-.678.789-1.218 1.335-1.618a3.045 3.045 0 0 1 1.79-.614zm15.373-2.455c-1.707.028-3.092.642-4.157 1.841-1.065 1.2-1.614 2.819-1.646 4.855.032 2.037.58 3.656 1.646 4.855 1.065 1.2 2.45 1.814 4.157 1.842 1.707-.028 3.093-.642 4.157-1.842 1.065-1.2 1.614-2.818 1.647-4.855-.033-2.036-.582-3.655-1.647-4.855-1.064-1.2-2.45-1.813-4.157-1.841zm0 2.232c.912.019 1.656.428 2.232 1.228.577.8.874 1.879.893 3.236-.019 1.358-.316 2.437-.893 3.237-.576.8-1.32 1.21-2.232 1.228-.911-.019-1.655-.428-2.232-1.228-.577-.8-.874-1.879-.893-3.237.019-1.357.316-2.436.893-3.236.577-.8 1.32-1.21 2.232-1.228zM63.76 62.498h2.679l.67-8.706 3.57 7.143 3.573-7.143.669 8.706H77.6l-1.116-12.5h-2.68l-3.124 6.25-3.125-6.25h-2.678l-1.117 12.5zm24.327-10.715c.693.002 1.34.277 1.942.825.6.548.921 1.166.96 1.854a.812.812 0 0 1-.052.307c-.035.088-.092.134-.17.14h-5.581c.03-1.104.335-1.896.912-2.377a3.146 3.146 0 0 1 1.99-.749h-.001zm5.134 5.357c.196-.014.355-.153.479-.418.129-.29.194-.604.191-.921-.046-1.725-.623-3.185-1.73-4.38-1.107-1.196-2.465-1.819-4.074-1.87a5.837 5.837 0 0 0-2.523.614c-.819.4-1.508.94-2.068 1.618a4.982 4.982 0 0 0-.973 1.921c-.193.728-.294 1.576-.303 2.543.026 2.037.652 3.656 1.878 4.855 1.225 1.2 2.704 1.814 4.436 1.842.788.004 1.596-.228 2.423-.698.828-.47 1.636-1.204 2.424-2.204l-2.169-1.244c-.432.56-.85.98-1.255 1.264-.405.284-.879.426-1.423.426-.628.028-1.325-.195-2.093-.67-.767-.473-1.186-1.366-1.255-2.678h8.035zM44.24 9.415a3.975 3.975 0 0 0-3.974 3.975 3.702 3.702 0 0 0 2.497 3.5 1.507 1.507 0 0 1 .874 2.064l-.154.33-3.303 7.08a10.908 10.908 0 0 0-5.465-1.46c-6.056 0-10.965 4.909-10.965 10.964 0 6.056 4.91 10.965 10.965 10.965 6.056 0 10.965-4.909 10.965-10.965 0-3.262-1.427-6.19-3.688-8.198l.87-1.867 15.136 11.573h6.425c.735 5.342 5.318 9.457 10.862 9.457 6.056 0 10.965-4.909 10.965-10.965 0-6.055-4.91-10.965-10.965-10.965-1.7 0-3.31.385-4.746 1.076l-4.124-5.886.99-2.317h.616a1.645 1.645 0 0 0 0-3.29h-7.539a1.645 1.645 0 0 0 0 3.29h4.832l-.643 1.508H45.843a3.702 3.702 0 0 0-2.369-4.467 1.507 1.507 0 0 1-1.015-1.427c0-.984.798-1.781 1.782-1.781h5.277a1.097 1.097 0 1 0 0-2.194H44.24zm.814 12.336h18.568l-5.41 12.674-14.28-10.918 1.122-1.756zm20.59 1.542l2.805 4.009a10.943 10.943 0 0 0-4.09 7.607h-3.667l4.952-11.616zm-30.93 3.255c1.744 0 3.373.482 4.768 1.315l-2.304 4.943c-.155.331-.407.61-.724.792l-2.287 1.32a1.098 1.098 0 0 0 1.096 1.901l2.287-1.323a3.969 3.969 0 0 0 1.615-1.76l2.099-4.502a9.294 9.294 0 0 1 2.771 6.634 9.32 9.32 0 1 1-9.32-9.32h-.001zm40.571 0a9.32 9.32 0 1 1-9.196 10.828h9.53a1.51 1.51 0 0 0 1.238-2.373l-5.358-7.65a9.281 9.281 0 0 1 3.786-.805zm-5.894 2.099l4.386 6.262h-7.765a9.313 9.313 0 0 1 3.38-6.262h-.001z" fill="#000"/><path d="M42.2 88.492c0 .754-.295 1.381-.883 1.881-.588.5-1.327.75-2.217.75-.946 0-1.699-.244-2.26-.732-.56-.489-.84-1.114-.84-1.875 0-.485.14-.923.422-1.316.281-.392.678-.704 1.19-.934v-.036c-.47-.25-.816-.523-1.04-.82-.225-.297-.338-.668-.338-1.113 0-.656.27-1.203.809-1.64.539-.438 1.225-.657 2.057-.657.87 0 1.566.209 2.086.627.52.418.779.95.779 1.594 0 .394-.123.782-.37 1.163-.245.38-.607.678-1.083.893v.035c.547.235.965.524 1.254.868.289.343.433.78.433 1.312h.001zm-1.39-4.26c0-.418-.16-.75-.483-.999-.322-.248-.733-.372-1.233-.372-.492 0-.896.118-1.21.352a1.12 1.12 0 0 0-.472.95c0 .28.08.524.237.729.159.205.398.387.718.547.145.07.353.163.624.276.272.113.536.207.794.281.387-.258.654-.525.803-.803.148-.277.223-.597.223-.96l-.001-.001zm.182 4.372c0-.36-.079-.648-.237-.865-.158-.217-.468-.434-.929-.653a5.886 5.886 0 0 0-.603-.24c-.22-.075-.51-.178-.873-.31a2.306 2.306 0 0 0-.847.778 2 2 0 0 0-.32 1.114c0 .527.182.963.546 1.306.363.344.824.516 1.382.516.57 0 1.027-.146 1.368-.44.342-.292.513-.695.513-1.206zm4.805 2.32h-1.4v-1.67h1.4v1.67zm8.531-2.455h-1.295v2.455h-1.125v-2.455H47.73V87.12l4.225-4.922h1.078v5.332h1.295v.939zm-2.42-.938v-3.937l-3.38 3.937h3.38zm5.883 3.393h-1.4v-1.67h1.4v1.67zm7.834 0h-4.723v-.89h1.817v-5.848h-1.817v-.797c.246 0 .51-.02.791-.062.282-.04.494-.1.639-.179.18-.097.321-.221.425-.372.103-.15.163-.352.179-.606h.908v7.863h1.781v.891zm7.36-4.201c.187.168.341.379.462.632.121.254.182.582.182.985 0 .398-.072.764-.217 1.096-.142.328-.35.623-.61.867a2.765 2.765 0 0 1-1.033.606 4.138 4.138 0 0 1-1.304.196c-.485 0-.961-.057-1.43-.172a6.72 6.72 0 0 1-1.154-.378V89.33h.088c.332.219.722.4 1.172.545a4.22 4.22 0 0 0 1.3.217c.247 0 .508-.041.786-.123.277-.082.502-.203.673-.364a1.71 1.71 0 0 0 .402-.568c.088-.207.132-.469.132-.785 0-.313-.05-.571-.15-.776a1.193 1.193 0 0 0-.413-.484 1.615 1.615 0 0 0-.639-.249 4.575 4.575 0 0 0-.808-.067h-.528v-.973h.41c.594 0 1.068-.124 1.422-.372.353-.248.53-.61.53-1.087 0-.21-.045-.395-.135-.554a1.1 1.1 0 0 0-.375-.39 1.686 1.686 0 0 0-.539-.21 3.27 3.27 0 0 0-.65-.059c-.372 0-.766.067-1.184.2a4.83 4.83 0 0 0-1.184.562h-.058v-1.225c.277-.136.647-.262 1.11-.378a5.56 5.56 0 0 1 1.345-.172c.426 0 .8.039 1.125.117.324.078.617.203.879.375.281.187.494.414.638.68.145.265.217.576.217.931 0 .484-.17.907-.512 1.269-.321.35-.745.588-1.21.682v.082c.187.032.402.097.644.197s.447.223.615.372h.001z" fill="#8B8B8B"/></g></g></svg>