<svg width="100" height="86" xmlns="http://www.w3.org/2000/svg"><g transform="translate(10 3)" fill="none" fill-rule="evenodd"><rect stroke="#000" fill="#FFF" x=".5" y=".5" width="79" height="79" rx="6"/><path d="M5.827 3A2.809 2.809 0 0 0 3 5.803v68.394A2.809 2.809 0 0 0 5.827 77H39V3H5.827zM41 3v74h14.514V26.92h-6.598L59.472 8.606 70.028 26.92H63.43V77h10.743A2.809 2.809 0 0 0 77 74.197V5.803A2.809 2.809 0 0 0 74.173 3H41zM12 8h16c2.216 0 4 1.71 4 3.833v17.89c0 .708-.593 1.277-1.332 1.277H9.332C8.593 31 8 30.431 8 29.723v-17.89C8 9.71 9.784 8 12 8zm-.702 2c-.72 0-1.298.535-1.298 1.196v5.608c0 .661.578 1.196 1.298 1.196h17.404c.72 0 1.298-.535 1.298-1.196v-5.608c0-.661-.578-1.196-1.298-1.196H11.298zm.2 15A1.5 1.5 0 1 0 13 26.499 1.5 1.5 0 0 0 11.5 25zm16.003 0a1.5 1.5 0 1 0-.003 3 1.5 1.5 0 0 0 .003-3zM9 34h3v2.4c0 .884-.672 1.6-1.5 1.6S9 37.284 9 36.4V34zm20 0h3v2.4c0 .884-.672 1.6-1.5 1.6s-1.5-.716-1.5-1.6V34zm-12.437 6h7.874v13.332H31L20.5 72 10 53.332h6.563V40z" fill="#0D69E1" fill-rule="nonzero"/></g></svg>