<svg width="108" height="151" xmlns="http://www.w3.org/2000/svg"><g transform="translate(10 8)" fill-rule="nonzero" fill="none"><rect fill="#FFF" x=".373" y=".376" width="87.843" height="135.248" rx="2"/><path d="M4.39 1.126c-1.815 0-3.267 1.419-3.267 3.174v127.152c0 1.756 1.452 3.174 3.267 3.174h81.965c1.815 0 3.268-1.418 3.268-3.174V4.3c0-1.755-1.453-3.174-3.268-3.174H4.39z" stroke="#000" stroke-width="1.5"/><g fill="#000"><path d="M23.853 15.896h1.522c.61.007 1.124.205 1.544.594.419.388.637.925.655 1.61a1.84 1.84 0 0 1-.761 1.463c-.486.37-1.078.561-1.776.572-1.265-.064-2.202-.318-2.811-.763-.61-.445-.913-.7-.91-.763l-1.521 1.865c.031.078.517.389 1.458.933.94.544 2.146.854 3.615.932 1.617-.063 2.864-.53 3.742-1.399.877-.869 1.321-1.759 1.332-2.67-.036-.896-.284-1.591-.746-2.085-.461-.494-.923-.837-1.384-1.03-.461-.192-.71-.285-.745-.276.029.01.233-.066.613-.226s.76-.462 1.14-.904c.38-.443.585-1.084.614-1.922-.014-1.046-.408-1.922-1.184-2.628-.775-.707-1.846-1.074-3.213-1.102-1.378.063-2.493.318-3.346.763-.853.445-1.291.7-1.317.763l1.28 1.986c-.006-.055.262-.273.804-.654.543-.382 1.402-.6 2.58-.654.905.046 1.504.293 1.796.742.292.448.426.823.402 1.123.007.293-.134.64-.423 1.039-.289.399-.768.618-1.438.657h-1.522v2.034zM37.857 8.097c-1.857.051-3.24.748-4.149 2.089-.909 1.341-1.362 3.019-1.359 5.032-.003 2.013.45 3.69 1.359 5.032.909 1.341 2.292 2.038 4.15 2.09 1.857-.052 3.24-.749 4.149-2.09.909-1.341 1.362-3.019 1.359-5.032.003-2.013-.45-3.69-1.36-5.032-.908-1.341-2.291-2.038-4.149-2.09zm0 2.204c.948.014 1.716.452 2.305 1.314.588.862.891 2.063.909 3.603-.018 1.54-.321 2.741-.91 3.603-.588.862-1.356 1.3-2.304 1.314-.947-.014-1.715-.452-2.304-1.314-.588-.862-.891-2.063-.909-3.603.018-1.54.32-2.741.91-3.603.588-.862 1.356-1.3 2.303-1.314zM46.466 22h2.367v-6.104h5.074V22h2.367V8.436h-2.367v5.425h-5.074V8.436h-2.367zM63.529 17.253l1.691-5.765 1.691 5.765H63.53zm.338-8.817L59.47 22h2.537l.845-2.713h4.736L68.433 22h2.537L66.573 8.436h-2.706z"/></g><path d="M15.47 30.551a4.114 4.114 0 0 0-4.117 4.128v57.795a4.114 4.114 0 0 0 4.118 4.129h57.647a4.114 4.114 0 0 0 4.117-4.129V34.68a4.114 4.114 0 0 0-4.117-4.128H15.47zm14.706 7.077H49c9.096 0 16.47 7.393 16.47 16.513 0 9.12-7.374 16.513-16.47 16.513H37.235v18.872h-7.059V37.628zm7.06 7.077v18.872H49c5.198 0 9.412-4.225 9.412-9.436S54.198 44.705 49 44.705H37.235z" fill="#0D69E1"/><path fill="#000" d="M9 125.869v5.528h70.588v-8.846H44.294v3.318zM46.48 102.048a1.067 1.067 0 0 0-.19.024l-6.349 1.352-6.348 1.356c-.502.107-.957.605-1.02 1.116l-.235 1.892-.48 3.922v.01l-.113.914a1.323 1.323 0 0 0-1.02 1.572l1.099 5.19c.152.72.856 1.175 1.573 1.022l19.417-4.138a1.323 1.323 0 0 0 1.02-1.572l-1.099-5.19a1.325 1.325 0 0 0-1.573-1.022l-.47-.787c-.003-.003-.004-.006-.006-.01l-2.034-3.386-.98-1.636c-.232-.386-.734-.643-1.192-.63zm-.215 1.396a.706.706 0 0 1 .598.314l3.005 5.013-8.412 1.794-8.417 1.794.716-5.81a.691.691 0 0 1 .51-.555l5.95-1.273 5.952-1.268a.56.56 0 0 1 .098-.01z"/><path d="M33.533 121.07l.55 2.595a1.985 1.985 0 1 0 3.884-.827l-.55-2.596-3.884.827zM49.068 117.759l.55 2.596a1.985 1.985 0 1 0 3.884-.828l-.55-2.596-3.884.828z" fill="#000"/></g></svg>