<svg width="100" height="86" xmlns="http://www.w3.org/2000/svg"><g fill="none" fill-rule="evenodd"><path d="M55.464 6.502c3.267 5.663 6.466 11.286 11.217 19.692l4.76 8.425c10.212 18.068 16.33 28.664 23.07 39.766 2.228 3.668-.924 8.996-5.175 8.996H10.534c-4.251 0-7.403-5.328-5.176-8.996 6.738-11.099 12.84-21.67 23.068-39.763l4.632-8.2c4.828-8.54 8.048-14.2 11.348-19.92 2.852-4.943 8.207-4.943 11.058 0z" stroke="#0C0E0F"/><path d="M11.61 73.352l-.003.006-.556.967-.016.028a108.335 108.335 0 0 1-1.5 2.568c-.22.362.5 1.574 1 1.574h78.8c.5 0 1.22-1.212 1-1.575-.436-.718-.772-1.295-1.502-2.57l-.02-.036c-.266-.463-.396-.69-.554-.962L51.232 8.943c-.918-1.591-1.675-1.591-2.591-.003L11.61 73.352z" stroke="red" stroke-width="6" fill="#FFF"/><g fill="#000" fill-rule="nonzero"><path d="M17.206 73.821l13.573-23.508L83.58 73.821zM39.817 39.8l.019 1.344 2.35-.209-4.279 9.611 2.196.977 5.512-12.38-2.128-.948zM47.487 52.342l5.193 2.313-1.356 1.865-7.558-3.366.917-2.06a2067.27 2067.27 0 0 1 4.882-1.783c2.3-.953 3.638-1.854 4.017-2.704.233-.524.267-1.021.103-1.493-.165-.471-.506-.822-1.024-1.053-.664-.295-1.734-.104-3.21.575l-.585-2.052c1.594-.76 3.106-.823 4.536-.186 2.528 1.125 3.285 2.825 2.273 5.1-.407.912-1.151 1.69-2.234 2.334-.54.306-1.544.75-3.01 1.331-.657.261-1.638.654-2.944 1.179zM59.29 48.763a2.498 2.498 0 1 0 4.996 0 2.498 2.498 0 0 0-4.996 0zm1.373 0a1.124 1.124 0 1 1 2.249 0 1.124 1.124 0 0 1-2.249 0zM58.176 59.57l-1.579-.702 10.018-10.374 1.579.702zM60.505 59.3a2.498 2.498 0 1 0 4.997 0 2.498 2.498 0 0 0-4.997 0zm1.374 0a1.124 1.124 0 1 1 2.249 0 1.124 1.124 0 0 1-2.249 0z"/></g></g></svg>