<svg width="115" height="71" xmlns="http://www.w3.org/2000/svg"><g transform="translate(8 11)" fill-rule="nonzero" fill="none"><rect fill="#000" y=".166" width="100" height="49.669" rx="6.3"/><rect fill="#FFF" x="1.667" y="1.821" width="96.667" height="46.358" rx="4.9"/><g fill="#000"><path d="M55.079 19.767l.884 1.144 2.009-1.25v11.547h2.625v-14.9h-2.25zM63.694 18.73h6.938c-1.067 1.699-2.074 3.608-3.024 5.727a28.428 28.428 0 0 0-2.039 6.565h2.813c.578-2.665 1.297-5.017 2.156-7.054a78.617 78.617 0 0 1 2.719-5.797v-1.863h-9l-.563 2.421zM73.874 29.719a1.613 1.613 0 0 0-.48-1.148c-.307-.305-.692-.464-1.154-.476-.463.012-.848.17-1.155.476a1.613 1.613 0 0 0 0 2.295c.307.305.692.464 1.155.476.462-.012.847-.17 1.155-.476.307-.305.467-.688.479-1.147z"/></g><g fill="#000"><path d="M12.668 16.122c-1.261 0-2.347.326-3.258.978-.91.651-1.386 1.63-1.43 2.933.033.862.26 1.538.681 2.028.422.49.843.835 1.264 1.035.422.2.648.297.68.29-.036-.003-.296.126-.777.386-.481.26-.963.665-1.444 1.214-.482.55-.741 1.258-.778 2.125-.024.993.351 1.94 1.125 2.84.773.9 2.086 1.382 3.937 1.444 1.852-.062 3.164-.543 3.938-1.444.773-.9 1.148-1.847 1.125-2.84-.037-.867-.297-1.575-.778-2.125-.482-.55-.963-.954-1.444-1.214-.482-.26-.741-.389-.778-.386.032.007.259-.09.68-.29.422-.2.843-.545 1.264-1.035.421-.49.648-1.166.68-2.028-.042-1.304-.519-2.282-1.429-2.933-.91-.652-1.996-.978-3.258-.978zm0 2.128c.578-.007 1.063.127 1.453.403.391.275.594.735.61 1.38-.086.582-.43 1.094-1.031 1.537-.602.442-.946.675-1.032.698-.086-.023-.43-.256-1.031-.698-.602-.443-.945-.955-1.031-1.537.015-.645.219-1.105.61-1.38.39-.276.874-.41 1.452-.403zm0 6.253c.03.007.241.138.632.394.391.255.783.593 1.174 1.014.391.42.602.883.632 1.386-.031.648-.297 1.122-.797 1.42-.5.3-1.047.447-1.64.443a3.099 3.099 0 0 1-1.641-.443c-.5-.298-.766-.772-.797-1.42.03-.445.24-.88.632-1.304a7.714 7.714 0 0 1 1.173-1.055c.392-.28.602-.424.632-.435zM22.008 29.719a1.613 1.613 0 0 0-.48-1.148c-.307-.305-.692-.464-1.154-.476-.463.012-.848.17-1.155.476a1.613 1.613 0 0 0 0 2.295c.307.305.692.464 1.155.476.462-.012.847-.17 1.155-.476.307-.305.467-.688.479-1.147z"/></g><path fill="#000" d="M54.25 26.2H44.187v-2.421H54.25z"/><g fill="#000"><path d="M27.977 19.288c-1.208.03-2.174.597-2.898 1.698-.725 1.101-1.097 2.553-1.115 4.355.018 1.803.39 3.255 1.115 4.356.724 1.101 1.69 1.667 2.898 1.698 1.207-.03 2.173-.597 2.898-1.698.725-1.101 1.096-2.553 1.115-4.356-.019-1.719-.39-3.147-1.115-4.284s-1.69-1.726-2.898-1.769zm0 1.835c.582-.009 1.047.325 1.396 1.002.348.677.527 1.749.536 3.216-.009 1.468-.188 2.54-.536 3.217-.349.677-.814 1.01-1.396 1.002-.582.009-1.048-.325-1.396-1.002-.349-.677-.528-1.749-.536-3.217.008-1.467.187-2.54.536-3.216.348-.677.814-1.01 1.396-1.002zM37.715 19.288c-1.207.03-2.173.597-2.898 1.698-.725 1.101-1.096 2.553-1.115 4.355.019 1.803.39 3.255 1.115 4.356s1.69 1.667 2.898 1.698c1.208-.03 2.174-.597 2.898-1.698.725-1.101 1.097-2.553 1.115-4.356-.018-1.719-.39-3.147-1.115-4.284-.724-1.137-1.69-1.726-2.898-1.769zm0 1.835c.582-.009 1.048.325 1.396 1.002.349.677.528 1.749.536 3.216-.008 1.468-.187 2.54-.536 3.217-.348.677-.814 1.01-1.396 1.002-.582.009-1.047-.325-1.396-1.002-.348-.677-.527-1.749-.536-3.217.009-1.467.188-2.54.536-3.216.349-.677.814-1.01 1.396-1.002z"/></g><g fill="#000"><path d="M75.937 20.252l.785 1.75c.407-.356.803-.614 1.19-.775.385-.16.866-.24 1.443-.237.387.009.728.138 1.022.387.294.25.449.563.464.942-.018.461-.278.904-.78 1.328-.502.425-1.133.72-1.895.886v1.624c.15-.07.316-.114.496-.129s.362-.021.544-.018c.933.04 1.525.265 1.776.675.25.41.36.76.326 1.054-.031.682-.292 1.18-.78 1.495-.488.315-1.077.47-1.768.467a8.703 8.703 0 0 1-1.592-.145c-.555-.1-1.022-.27-1.401-.51l.254 2.068c.053.021.41.105 1.073.253.662.148 1.317.232 1.964.253 1.417-.05 2.5-.467 3.246-1.255.746-.787 1.122-1.649 1.128-2.584-.022-.638-.217-1.166-.584-1.585a3.967 3.967 0 0 0-1.225-.963c-.45-.222-.81-.357-1.079-.404.62-.087 1.164-.394 1.635-.923.47-.53.718-1.206.743-2.03-.04-.823-.385-1.472-1.035-1.949a3.637 3.637 0 0 0-2.15-.73c-.632.016-1.321.137-2.067.361-.747.225-1.324.456-1.733.694zM89.036 19.366c-1.208.03-2.174.596-2.898 1.698-.725 1.1-1.097 2.553-1.115 4.355.018 1.803.39 3.254 1.115 4.356.724 1.1 1.69 1.667 2.898 1.697 1.207-.03 2.174-.596 2.898-1.697.725-1.102 1.096-2.553 1.115-4.356-.019-1.72-.39-3.147-1.115-4.284-.724-1.137-1.69-1.727-2.898-1.77zm0 1.835c.582-.01 1.047.325 1.396 1.002.348.676.527 1.748.536 3.216-.009 1.468-.188 2.54-.536 3.217-.349.676-.814 1.01-1.396 1.001-.582.01-1.048-.325-1.396-1.001-.349-.677-.527-1.75-.536-3.217.009-1.468.187-2.54.536-3.216.348-.677.814-1.011 1.396-1.002z"/></g></g></svg>