<svg width="100" height="86" xmlns="http://www.w3.org/2000/svg"><g transform="translate(10 3)" fill="none" fill-rule="evenodd"><rect fill="#FFF" fill-rule="nonzero" width="80" height="80" rx="6"/><rect stroke="#000" x=".5" y=".5" width="79" height="79" rx="6"/><g fill-rule="nonzero"><path d="M6.304 3A3.296 3.296 0 0 0 3 6.304v67.392A3.296 3.296 0 0 0 6.304 77h29.86V31.047h-12.79v-17.9h33.251v17.9H43.836L44.034 77h29.662A3.296 3.296 0 0 0 77 73.696V6.304A3.296 3.296 0 0 0 73.696 3H6.304z" fill="#0D69E1"/><path fill="red" d="M25.806 15.484h28.387v12.903H25.806z"/></g></g></svg>