<svg width="100" height="86" xmlns="http://www.w3.org/2000/svg"><g fill="none" fill-rule="evenodd"><path d="M55.464 6.502c3.267 5.663 6.466 11.286 11.217 19.692l4.76 8.425c10.212 18.068 16.33 28.664 23.07 39.766 2.228 3.668-.924 8.996-5.175 8.996H10.534c-4.251 0-7.403-5.328-5.176-8.996 6.738-11.099 12.84-21.67 23.068-39.763l4.632-8.2c4.828-8.54 8.048-14.2 11.348-19.92 2.852-4.943 8.207-4.943 11.058 0z" stroke="#0C0E0F"/><path d="M11.61 73.352l-.003.006-.556.967-.016.028a108.335 108.335 0 0 1-1.5 2.568c-.22.362.5 1.574 1 1.574h78.8c.5 0 1.22-1.212 1-1.575-.436-.718-.772-1.295-1.502-2.57l-.02-.036c-.266-.463-.396-.69-.554-.962L51.232 8.943c-.918-1.591-1.675-1.591-2.591-.003L11.61 73.352z" stroke="red" stroke-width="6" fill="#FFF"/><g fill="#000" fill-rule="nonzero"><path d="M34.655 71.945l4.657-3.183a2.498 2.498 0 0 0 .044-4.094l-8.08-5.78a2.373 2.373 0 0 1 .73-4.213l5.147-1.465-1.99 2.406a1.124 1.124 0 0 0 .315 1.697l11.029 6.191a4.31 4.31 0 0 1 1.019 6.72l-1.63 1.721H34.655zM61.743 71.945a3.123 3.123 0 0 0-.28-5.629l-11.14-4.652a2.124 2.124 0 0 1-.087-3.88l4.403-2.076-1.01 1.65a1.624 1.624 0 0 0 .856 2.383l11.77 4.053a10.867 10.867 0 0 1 7.12 8.151H61.743zM38.19 47.394l-.335 2.727a2.06 2.06 0 1 0 4.091.503l.335-2.728-4.09-.502zM54.678 49.418l-.335 2.728a2.06 2.06 0 1 0 4.091.502l.335-2.727-4.09-.503zM44.37 34.008a1.054 1.054 0 0 0-1.08.596l-2.591 5.445a1.054 1.054 0 0 0-1.177.92l-.592 4.823c-.072.58.338 1.105.92 1.177l17.613 2.163a1.054 1.054 0 0 0 1.177-.92l.593-4.823a1.054 1.054 0 0 0-.92-1.177l-1.197-5.91a1.055 1.055 0 0 0-.904-.84L44.37 34.008zm.15 1.295l11.232 1.38c.09.01.165.08.183.168l1.05 5.198-14.96-1.837 2.278-4.789a.213.213 0 0 1 .218-.12z"/></g></g></svg>