<svg width="156" height="65" xmlns="http://www.w3.org/2000/svg"><g transform="translate(6 8)" fill="none" fill-rule="evenodd"><rect fill="#FFF" fill-rule="nonzero" x="1" y="1" width="142" height="48" rx="6.3"/><rect fill="#FC0" fill-rule="nonzero" transform="matrix(-1 0 0 1 144 0)" x="4" y="4" width="136" height="42" rx="3.5"/><rect stroke="#000" x=".5" y=".5" width="143" height="49" rx="6.16"/><path d="M7.69 3A4.668 4.668 0 0 0 3 7.667v34.666A4.668 4.668 0 0 0 7.69 47h128.62a4.668 4.668 0 0 0 4.69-4.667V7.667A4.668 4.668 0 0 0 136.31 3H7.69zm0 1.333h128.62a3.334 3.334 0 0 1 3.35 3.334v34.666a3.334 3.334 0 0 1-3.35 3.334H7.69a3.334 3.334 0 0 1-3.35-3.334V7.667a3.334 3.334 0 0 1 3.35-3.334z" fill="#000" fill-rule="nonzero"/><path fill="#000" fill-rule="nonzero" d="M112.444 20.693v-6.96l20.223 11.6-20.223 11.601v-6.961H97.667v-9.28z"/><g fill="#000" fill-rule="nonzero"><path d="M18.148 19.19c-1.592.026-2.885.596-3.879 1.709-.993 1.113-1.505 2.614-1.536 4.504.03 1.89.543 3.39 1.536 4.504.994 1.113 2.287 1.682 3.879 1.708 1.592-.026 2.885-.595 3.879-1.708.993-1.114 1.505-2.615 1.536-4.504-.03-1.89-.543-3.391-1.536-4.504-.994-1.113-2.287-1.683-3.879-1.709zm0 2.071c.85.017 1.545.397 2.083 1.14.538.741.815 1.742.833 3.002-.018 1.26-.295 2.26-.833 3.002s-1.233 1.122-2.083 1.14c-.85-.018-1.545-.398-2.083-1.14-.538-.742-.815-1.743-.833-3.002.018-1.26.295-2.26.833-3.003.538-.742 1.233-1.122 2.083-1.139zM37.491 14.22c-.004.018-.204.087-.598.208-.395.12-.96.19-1.693.207h-2.915c-1.711.04-2.986.506-3.826 1.398-.84.892-1.39 1.972-1.65 3.238a16.363 16.363 0 0 0-.355 3.647c-.016 1.346.13 2.68.44 4.003.308 1.323.87 2.428 1.688 3.313.818.886 1.983 1.346 3.495 1.38 1.774-.068 3.12-.707 4.035-1.915a6.632 6.632 0 0 0 1.38-4.09c-.035-1.97-.539-3.463-1.51-4.477-.972-1.014-2.205-1.523-3.697-1.527-1.033.034-1.831.276-2.395.724-.564.449-.946.898-1.146 1.346.023-1.186.328-2.23.915-3.132.588-.901 1.324-1.376 2.21-1.423h3.123c.223-.003.477-.027.763-.07.285-.044.517-.09.695-.137l1.041-2.692zm-5.414 7.455c.659-.017 1.266.276 1.822.88.555.604.85 1.622.885 3.055-.035 1.432-.33 2.45-.885 3.054-.556.604-1.163.897-1.822.88-.569.017-1.15-.276-1.745-.88-.594-.604-.915-1.622-.963-3.054.048-1.433.369-2.45.963-3.055.595-.604 1.176-.897 1.745-.88zM39.573 19.605v2.277h2.708v9.319h5.206c1.445-.04 2.49-.427 3.131-1.165a3.71 3.71 0 0 0 .945-2.563 3.71 3.71 0 0 0-.945-2.562c-.642-.738-1.686-1.126-3.13-1.165H44.78v-4.141h-5.207zm5.207 6.419h2.915c.426.018.773.174 1.042.47.269.295.407.621.416.98-.009.357-.147.684-.416.98-.27.294-.616.451-1.042.469H44.78v-2.9zM59.483 21.261c.647.002 1.25.257 1.811.766.561.508.86 1.081.897 1.719a.749.749 0 0 1-.049.285c-.033.082-.086.125-.16.13h-5.206c.029-1.024.313-1.758.851-2.205a2.945 2.945 0 0 1 1.856-.695zm4.79 4.97c.182-.013.331-.142.446-.388.116-.246.175-.531.179-.855-.043-1.6-.581-2.955-1.614-4.063-1.033-1.109-2.3-1.687-3.8-1.735a5.47 5.47 0 0 0-2.355.57 5.716 5.716 0 0 0-1.93 1.501 4.612 4.612 0 0 0-.907 1.782c-.18.676-.274 1.462-.283 2.36.024 1.89.608 3.39 1.752 4.504 1.143 1.113 2.523 1.682 4.139 1.708.735.004 1.489-.212 2.26-.647.773-.436 1.527-1.118 2.262-2.045l-2.023-1.154c-.404.519-.794.91-1.172 1.172-.377.264-.82.395-1.327.396-.586.026-1.237-.181-1.953-.621s-1.106-1.269-1.171-2.485h7.497zM72.37 19.397c-.85.005-1.626.1-2.328.285a7.03 7.03 0 0 0-1.837.75l1.13 2.19a7.48 7.48 0 0 1 1.25-.777c.473-.236 1.068-.362 1.785-.377.46-.008.946.112 1.458.363.512.25.79.681.833 1.294 0 .323-.104.608-.312.854-.208.246-.52.375-.937.388h-1.666v1.864h1.666c.516.017.89.19 1.12.518.23.327.342.707.338 1.139-.035.522-.278.927-.73 1.216-.45.29-.902.436-1.353.44-.547.008-1.194-.104-1.941-.336-.748-.233-1.35-.633-1.808-1.202l-1.547 1.686c.66.624 1.483 1.1 2.47 1.427.986.328 1.928.493 2.826.496 1.345.008 2.47-.268 3.377-.828.906-.561 1.377-1.459 1.413-2.692-.037-.92-.313-1.595-.83-2.027-.516-.431-1.052-.692-1.61-.784.514-.154.974-.474 1.38-.957.406-.484.62-1.092.643-1.823-.017-.997-.45-1.762-1.301-2.297-.85-.534-2.013-.804-3.489-.81zM82.221 19.605c-.007 2.05-.164 3.821-.472 5.313-.308 1.492-.726 2.827-1.253 4.005h-1.19v4.763h2.499V31.2h7.913v2.485h2.291v-4.763h-1.457v-9.318h-8.33zm2.5 2.277h3.331v7.04h-4.849c.506-1.028.863-2.165 1.071-3.408.208-1.244.357-2.455.446-3.632z"/></g></g></svg>