<svg width="110" height="80" xmlns="http://www.w3.org/2000/svg"><g fill="none" fill-rule="evenodd"><path d="M0 0h110v80H0z"/><g fill-rule="nonzero"><g transform="translate(5 5)"><path d="M6.3.166h87.4a6.3 6.3 0 0 1 6.3 6.3v37.068a6.3 6.3 0 0 1-6.3 6.3H6.3a6.3 6.3 0 0 1-6.3-6.3V6.466a6.3 6.3 0 0 1 6.3-6.3z" fill="#000"/><rect fill="#FFF" x="1.667" y="1.821" width="96.667" height="46.358" rx="4.9"/><path d="M33.758 8.984c-.332 0-.6.267-.6.596v3.876c0 .33.268.596.6.596h1.181l-3.259 8.1a10.28 10.28 0 0 0-2.649-.35c-5.635 0-10.203 4.538-10.203 10.136 0 5.598 4.568 10.136 10.203 10.136s10.203-4.538 10.203-10.136c0-3.842-2.154-7.182-5.326-8.901l2.968-7.373 5.022 17.979a3 3 0 0 0 2.888 2.17h14.193a12.43 12.43 0 0 1-.614-3.875c0-3.738 1.652-7.096 4.267-9.39a.598.598 0 0 0-.399-1.043h-10.77l-2.588 5.137a1.5 1.5 0 0 1-1.341.825H43.65a1.5 1.5 0 0 1-1.449-1.09l-1.664-5.962a1.49 1.49 0 0 1 1.045-1.836c.131-.036.268-.055.404-.055h6.625a2.243 2.243 0 0 0 2.25-2.236 2.243 2.243 0 0 0-2.25-2.236H37.06l2.1-2.981h2.401c.58 0 1.05-.467 1.05-1.043 0-.577-.47-1.044-1.05-1.044h-7.803zM29.03 25.082c.483 0 .956.05 1.412.144l-1.506 3.736c-1.614.05-2.907 1.361-2.907 2.976a2.991 2.991 0 0 0 3.001 2.981 2.99 2.99 0 0 0 3.001-2.98c0-.817-.328-1.559-.863-2.097l1.5-3.73a6.844 6.844 0 0 1 3.264 5.826c0 3.787-3.09 6.857-6.902 6.857-3.812 0-6.902-3.07-6.902-6.857 0-3.786 3.09-6.856 6.902-6.856z" fill="#000"/><path d="M70.969 25.082c3.812 0 6.902 3.07 6.902 6.856 0 3.787-3.09 6.857-6.902 6.857-3.812 0-6.902-3.07-6.902-6.857a6.844 6.844 0 0 1 3.263-5.827l1.5 3.731a2.965 2.965 0 0 0-.862 2.096 2.991 2.991 0 0 0 3 2.981c1.658 0 3.002-1.334 3.002-2.98a2.988 2.988 0 0 0-2.907-2.977l-1.506-3.736a6.992 6.992 0 0 1 1.412-.144zm-18.006-5.366h11.79l1.34 3.321c-3.173 1.719-5.327 5.059-5.327 8.901 0 5.598 4.568 10.136 10.203 10.136s10.203-4.538 10.203-10.136c0-5.598-4.568-10.135-10.203-10.135-.917 0-1.805.124-2.65.349l-.98-2.436h4.98v-1.49a2.692 2.692 0 0 0-2.7-2.683H55.99a1.5 1.5 0 0 0-1.342.823l-1.686 3.35h.001z" fill="#000"/></g><path d="M46.2 71.492c0 .754-.295 1.381-.883 1.881-.588.5-1.327.75-2.217.75-.946 0-1.699-.244-2.26-.732-.56-.489-.84-1.114-.84-1.875 0-.485.14-.923.422-1.316.281-.392.678-.704 1.19-.934v-.036c-.47-.25-.816-.523-1.04-.82-.225-.297-.338-.668-.338-1.113 0-.656.27-1.203.809-1.64.539-.438 1.225-.657 2.057-.657.87 0 1.566.209 2.086.627.52.418.779.95.779 1.594 0 .394-.123.782-.37 1.163-.245.38-.607.678-1.083.893v.035c.547.235.965.524 1.254.868.289.343.433.78.433 1.312h.001zm-1.39-4.26c0-.418-.16-.75-.483-.999-.322-.248-.733-.372-1.233-.372-.492 0-.896.118-1.21.352a1.12 1.12 0 0 0-.472.95c0 .28.08.524.237.729.159.205.398.387.718.547.145.07.353.163.624.276.272.113.536.207.794.281.387-.258.654-.525.803-.803.148-.277.223-.597.223-.96l-.001-.001zm.182 4.372c0-.36-.079-.648-.237-.865-.158-.217-.468-.434-.929-.653a5.886 5.886 0 0 0-.603-.24c-.22-.075-.51-.178-.873-.31a2.306 2.306 0 0 0-.847.778 2 2 0 0 0-.32 1.114c0 .527.182.963.546 1.306.363.344.824.516 1.382.516.57 0 1.027-.146 1.368-.44.342-.292.513-.695.513-1.206zm4.805 2.32h-1.4v-1.67h1.4v1.67zm8.531-2.455h-1.295v2.455h-1.125v-2.455H51.73V70.12l4.225-4.922h1.078v5.332h1.295v.939zm-2.42-.938v-3.937l-3.38 3.937h3.38zm5.883 3.393h-1.4v-1.67h1.4v1.67zm8.461-2.83c0 .886-.292 1.61-.876 2.17-.584.561-1.3.841-2.147.841-.43 0-.82-.066-1.172-.199a2.686 2.686 0 0 1-.932-.592c-.336-.324-.595-.753-.776-1.289-.182-.535-.273-1.18-.273-1.933 0-.774.083-1.46.25-2.057a4.51 4.51 0 0 1 .793-1.594 3.492 3.492 0 0 1 1.33-1.034c.543-.248 1.176-.372 1.899-.372.23 0 .423.01.58.03.156.019.314.054.474.105v1.12h-.058a2.172 2.172 0 0 0-.495-.168 2.902 2.902 0 0 0-.677-.079c-.84 0-1.51.263-2.01.788-.5.525-.79 1.235-.873 2.13.328-.2.651-.35.97-.454.358-.11.73-.161 1.104-.155.371 0 .699.034.982.102a2.6 2.6 0 0 1 .87.413c.344.238.602.54.776.903.174.363.261.804.261 1.324zm-1.19.047c0-.364-.053-.664-.16-.903a1.547 1.547 0 0 0-.53-.62 1.494 1.494 0 0 0-.599-.247 3.895 3.895 0 0 0-1.61.059 4.102 4.102 0 0 0-.88.363 5.961 5.961 0 0 0-.023.55c0 .618.063 1.105.19 1.463.127.357.302.64.525.846.18.172.374.298.583.378.209.08.436.12.682.12.567 0 1.012-.172 1.336-.518.324-.346.486-.843.486-1.491z" fill="#8B8B8B"/></g></g></svg>