<svg width="100" height="86" xmlns="http://www.w3.org/2000/svg"><g transform="translate(10 3)" fill="none" fill-rule="evenodd"><path d="M2 0h76a2 2 0 0 1 2 2v72a6 6 0 0 1-6 6H2a2 2 0 0 1-2-2V2a2 2 0 0 1 2-2z" fill="#FFF" fill-rule="nonzero"/><rect stroke="#000" x=".5" y=".5" width="79" height="79" rx="6"/><g fill-rule="nonzero"><path d="M6.304 3A3.296 3.296 0 0 0 3 6.304v67.392A3.296 3.296 0 0 0 6.304 77h42.649v-2.474c0-14.052-6.6-27.287-17.823-35.744L10.7 23.392l4.621-6.129 20.425 15.39a52.411 52.411 0 0 1 13.206 14.57v-11.06h-5.117V5.474h17.906v30.69h-5.117V77h17.071A3.296 3.296 0 0 0 77 73.696V6.304A3.296 3.296 0 0 0 73.696 3H6.304z" fill="#0D69E1"/><path fill="red" d="M51.183 11.183h-3.441V7.742h3.44zM54.624 14.623h-3.441v-3.44h3.44zM58.064 11.183h-3.44V7.742h3.44zM51.183 18.064h-3.441v-3.44h3.44zM54.624 21.505h-3.441v-3.441h3.44zM58.064 18.064h-3.44v-3.44h3.44zM51.183 24.947h-3.441v-3.441h3.44zM54.624 28.387h-3.441v-3.44h3.44zM58.064 24.947h-3.44v-3.441h3.44zM51.183 31.828h-3.441v-3.44h3.44zM58.064 31.828h-3.44v-3.44h3.44z"/></g></g></svg>