<?xml version="1.0" encoding="UTF-8"?>
<svg id="_Слой_1" data-name=" Слой 1" xmlns="http://www.w3.org/2000/svg" width="116" height="159" viewBox="0 0 116 159">
  <defs>
    <style>
      .cls-1, .cls-2 {
        fill: none;
      }

      .cls-3, .cls-4 {
        fill: #fff;
      }

      .cls-5 {
        fill: #8b8b8b;
      }

      .cls-6 {
        fill: #aaa;
      }

      .cls-4 {
        stroke-miterlimit: 4;
      }

      .cls-4, .cls-2 {
        stroke: #000;
        stroke-width: 1px;
      }

      .cls-2 {
        stroke-miterlimit: 10;
      }
    </style>
  </defs>
  <path class="cls-4" d="m10.7,3.41h95.18c2.2,0,3.96,1.8,3.96,4v129.22c0,2.22-1.78,4-3.96,4H10.7c-2.2,0-3.96-1.8-3.96-4V7.41c0-2.22,1.78-4,3.96-4Z"/>
  <path class="cls-1" d="m-.03.03h116v159H-.03V.03Z"/>
  <path class="cls-2" d="m10.93,5.49h94.81c1.11,0,2.02.91,2.02,2.01v129.05c0,1.11-.91,2.01-2.02,2.01H10.93c-1.11,0-2.02-.91-2.02-2.01V7.51c0-1.11.91-2.01,2.02-2.01h0Z"/>
  <g>
    <path d="m42.57,16.85c0-.57-.22-1.03-.65-1.38s-1.02-.51-1.75-.51c-.63,0-1.16.17-1.59.51s-.64.78-.64,1.31h-2.2c0-.7.19-1.33.58-1.86s.92-.97,1.6-1.27,1.43-.45,2.25-.45c1.46,0,2.58.32,3.39.96s1.2,1.53,1.2,2.69c0,.59-.17,1.11-.52,1.61s-.84.87-1.47,1.15c.7.25,1.25.62,1.62,1.12s.56,1.12.56,1.87c0,1.15-.43,2.07-1.3,2.74s-2.03,1.02-3.48,1.02c-.9,0-1.7-.17-2.43-.48s-1.27-.76-1.62-1.33-.55-1.2-.55-1.93h2.2c0,.55.23,1.02.68,1.39.45.38,1.02.57,1.73.57.78,0,1.41-.18,1.88-.55s.7-.85.7-1.44c0-.73-.2-1.24-.61-1.57s-1.02-.5-1.83-.5h-1.48v-1.76h1.41c1.56,0,2.34-.64,2.34-1.91v-.03h0Z"/>
    <path d="m57.13,20.1c0,1.25-.22,2.36-.65,3.3-.43.96-1.05,1.67-1.84,2.18s-1.71.76-2.75.76-1.94-.25-2.75-.76-1.43-1.24-1.87-2.18-.66-2.03-.66-3.25v-.73c0-1.25.22-2.36.66-3.3s1.06-1.7,1.85-2.19,1.71-.76,2.75-.76,1.94.25,2.75.75,1.42,1.22,1.85,2.17.66,2.04.66,3.29v.71h-.01Zm-2.2-.68c0-1.43-.27-2.5-.79-3.26s-1.29-1.13-2.26-1.13-1.7.38-2.24,1.13-.81,1.82-.83,3.2v.74c0,1.42.27,2.5.82,3.26.54.78,1.29,1.15,2.26,1.15s1.73-.38,2.25-1.12.79-1.85.79-3.3v-.68h0Z"/>
    <path d="m69.4,26.16h-2.2v-5.69h-5.67v5.69h-2.2v-12.83h2.2v5.34h5.67v-5.34h2.2v12.83Z"/>
    <path d="m79.27,23.18h-4.91l-1.02,2.98h-2.3l4.8-12.83h1.98l4.8,12.83h-2.3l-1.04-2.98h0Zm-4.3-1.8h3.67l-1.84-5.32-1.84,5.32h.01Z"/>
  </g>
  <ellipse class="cls-6" cx="58.42" cy="56.63" rx="31.56" ry="15.51"/>
  <ellipse class="cls-3" cx="58.44" cy="56.68" rx="26.18" ry="12.17"/>
  <path class="cls-6" d="m54.37,56.74l.86-8.07h8.52v2.31h-6.3l-.43,3.82c.73-.42,1.56-.64,2.48-.64,1.51,0,2.69.5,3.53,1.47.84.97,1.25,2.28,1.25,3.94s-.46,2.92-1.39,3.89c-.93.96-2.2,1.44-3.82,1.44-1.45,0-2.66-.42-3.61-1.25-.96-.83-1.47-1.94-1.55-3.3h2.56c.1.78.38,1.38.83,1.78s1.04.62,1.76.62c.81,0,1.45-.29,1.89-.88s.68-1.38.68-2.4-.26-1.75-.75-2.32-1.19-.85-2.07-.85c-.47,0-.88.06-1.21.19s-.7.38-1.09.75l-2.11-.54-.03.03h.01Z"/>
  <g>
    <path class="cls-5" d="m52.84,153.34c0,.42-.06.82-.2,1.17s-.32.68-.56.93c-.24.27-.55.47-.91.64s-.77.23-1.21.23c-.42,0-.82-.05-1.23-.14-.4-.09-.75-.22-1.04-.36v-1.24h.08c.09.08.22.14.38.23.17.08.35.17.55.24.23.08.43.15.63.19s.4.08.64.08.46-.04.68-.13.41-.22.56-.41c.14-.17.26-.37.33-.6s.12-.5.12-.82-.04-.56-.12-.76-.2-.36-.36-.5c-.17-.15-.37-.25-.61-.31s-.51-.09-.81-.09-.63.03-.95.08-.56.09-.75.14v-4.5h4.76v1.03h-3.62v2.32c.14-.03.28-.03.41-.04s.26,0,.37,0c.43,0,.82.04,1.11.11.31.08.6.22.88.43.29.22.51.5.66.82s.23.76.23,1.29h0v-.03l-.03-.03Z"/>
    <path class="cls-5" d="m55.94,156.12h-1.38v-1.67h1.38v1.67Z"/>
    <path class="cls-5" d="m60.04,148.21c-.2,0-.42.03-.63.08s-.42.11-.61.2c-.19.08-.35.17-.49.25s-.26.17-.37.24h-.06v-1.24c.26-.14.59-.25,1.02-.37s.84-.17,1.24-.17.73.04,1.02.11.56.2.79.37c.26.19.45.41.58.68s.19.59.19.93c0,.48-.15.91-.47,1.27-.31.36-.69.59-1.13.69v.08c.18.04.38.1.58.18s.4.22.58.38.32.38.43.65c.12.25.17.59.17.96s-.06.76-.2,1.1-.32.62-.56.88c-.26.27-.56.47-.91.6s-.75.22-1.21.22-.87-.05-1.29-.17c-.43-.11-.79-.23-1.07-.38v-1.24h.08c.24.18.56.36.97.52.41.17.82.25,1.23.25.24,0,.47-.04.7-.11s.43-.2.6-.37c.15-.17.27-.36.35-.57s.12-.47.12-.79-.05-.59-.14-.78-.22-.36-.38-.48-.36-.2-.58-.24-.46-.08-.72-.08h-.49v-.97h.38c.52,0,.95-.11,1.28-.38s.49-.61.49-1.1c0-.22-.04-.41-.13-.57s-.19-.28-.33-.38c-.15-.1-.31-.17-.49-.22-.18-.04-.37-.06-.56-.06h.03v.03Z"/>
    <path class="cls-5" d="m66.8,156.31c-.43,0-.82-.06-1.18-.19s-.65-.31-.9-.56c-.24-.23-.43-.51-.56-.83s-.19-.66-.19-1.02c0-.47.12-.92.38-1.3.26-.4.61-.71,1.09-.96v-.04c-.43-.25-.74-.52-.95-.82s-.31-.68-.31-1.11c0-.66.26-1.2.74-1.64s1.11-.66,1.87-.66,1.42.22,1.89.62c.47.42.7.96.7,1.61,0,.4-.12.78-.35,1.16s-.55.68-.97.91v.04c.5.24.88.54,1.15.87s.38.78.38,1.31c0,.75-.27,1.38-.81,1.89-.54.5-1.2.76-2.02.76l.03-.03h-.01Zm1.62-2.52c0-.36-.06-.64-.2-.87s-.41-.43-.81-.64c-.13-.08-.31-.15-.52-.24s-.47-.19-.74-.31c-.32.22-.56.48-.74.79s-.26.68-.26,1.08c0,.54.15.96.47,1.31.32.34.7.52,1.19.52s.88-.15,1.18-.45.43-.7.43-1.2v-.03h0Zm-.15-4.37c0-.4-.13-.73-.38-.98s-.61-.4-1.07-.4c-.42,0-.77.11-1.04.36-.27.23-.4.55-.4.96,0,.29.06.54.2.73s.35.38.61.54c.12.08.29.17.55.28s.47.22.66.28c.35-.25.56-.54.69-.82s.18-.59.18-.96h-.01Z"/>
  </g>
  <path class="cls-6" d="m32.92,96c-1.14,0-2.2.56-2.84,1.5l-5.36,7.92c-.38.56-.59,1.22-.59,1.9v8.22c0,1.89,1.52,3.4,3.41,3.4h3.08c.18-3.79,3.31-6.81,7.16-6.81s6.98,3.02,7.16,6.81h26.66c.13-2.65,1.7-5.01,4.12-6.13h-29.73v-13.41c0-1.89-1.52-3.4-3.41-3.4h-9.67Zm.18,2.04h7.79c.93,0,1.7.76,1.7,1.71v4.77c0,.94-.75,1.71-1.7,1.71h-11.01c-.93,0-1.7-.76-1.7-1.7h0c0-.34.1-.68.29-.96l3.22-4.77c.32-.47.84-.75,1.42-.75h-.01Z"/>
  <path class="cls-6" d="m51.47,89.78c-1.88,0-3.4,1.5-3.41,3.39v18.38h44.4v-18.36c0-1.89-1.52-3.4-3.41-3.4h-37.58.01Zm27.33,23.73c-3.21,0-5.81,2.59-5.81,5.79s2.6,5.79,5.81,5.79,5.81-2.59,5.81-5.79-2.6-5.79-5.81-5.79Zm0,2.73c1.7,0,3.07,1.38,3.07,3.06s-1.38,3.06-3.07,3.06-3.07-1.36-3.07-3.06h0c0-1.71,1.38-3.06,3.07-3.06h0Z"/>
  <path class="cls-6" d="m85.96,118.95c-.13-2.72-1.78-5.02-4.12-6.13h10.61v6.13h-6.5Zm-48.15-5.44c-3.21,0-5.81,2.59-5.81,5.79s2.6,5.79,5.81,5.79,5.81-2.59,5.81-5.79-2.6-5.79-5.81-5.79Zm0,2.73c1.7,0,3.07,1.38,3.07,3.06s-1.38,3.06-3.07,3.06-3.07-1.36-3.07-3.06h0c0-1.71,1.38-3.06,3.07-3.06h0Z"/>
  <g>
    <path class="cls-3" d="m64.91,105.51c-.43,0-.83-.06-1.18-.19s-.66-.31-.91-.56c-.26-.23-.43-.51-.56-.83s-.19-.66-.19-1.02c0-.47.13-.92.38-1.3s.61-.71,1.1-.96v-.04c-.43-.25-.75-.52-.96-.82s-.31-.68-.31-1.11c0-.66.26-1.2.74-1.64s1.11-.66,1.89-.66,1.43.2,1.91.62.72.96.72,1.61c0,.4-.12.78-.35,1.16s-.56.68-.98.91v.04c.51.24.88.54,1.15.87s.38.78.38,1.31c0,.75-.27,1.38-.81,1.89s-1.21.76-2.02.76v-.03h-.01Zm1.64-2.52c0-.36-.06-.64-.2-.87s-.41-.43-.81-.64c-.13-.06-.31-.15-.52-.24s-.47-.19-.75-.31c-.32.2-.56.48-.74.79s-.26.68-.26,1.08c0,.54.15.96.47,1.31.32.34.72.52,1.2.52s.88-.15,1.18-.45.45-.7.45-1.2v-.03h-.01Zm-.17-4.37c0-.4-.13-.73-.38-.98s-.61-.4-1.09-.4c-.43,0-.77.11-1.05.34s-.41.55-.41.96c0,.29.06.54.2.73s.35.38.61.54c.12.06.31.17.55.28s.47.2.68.28c.35-.25.56-.54.69-.82s.18-.59.18-.96h0v.03Z"/>
    <path class="cls-3" d="m77.49,99.74h-2.23v5.58h-1.1v-5.58h-2.23v-.97h5.54v.97h.01Z"/>
  </g>
  <g>
    <polygon points="9.32 111 93.85 5.92 95.49 6 9.38 113.43 9.32 111"/>
    <polygon points="9.1 119.01 100.27 5.24 101.59 5.72 9.16 121.56 9.1 119.01"/>
    <polygon points="9.21 126.37 106.34 5.55 107.38 6.33 9.21 128.91 9.21 126.37"/>
    <polygon points="9.27 133.88 107.3 11.73 107.69 13.42 9.07 136.45 9.27 133.88"/>
    <polygon points="11.79 138.56 107.56 18.41 107.66 20.35 13.79 138.5 11.79 138.56"/>
  </g>
</svg>