<svg width="200" height="348" xmlns="http://www.w3.org/2000/svg"><g fill="none" fill-rule="evenodd"><path d="M0 0h200v348H0z"/><path d="M55.464 9.502c3.267 5.663 6.466 11.286 11.217 19.692l4.76 8.425c10.212 18.068 16.33 28.664 23.07 39.766 2.228 3.668-.924 8.996-5.175 8.996H10.534c-4.251 0-7.403-5.328-5.176-8.996 6.738-11.099 12.84-21.67 23.068-39.763l4.632-8.2c4.828-8.54 8.048-14.2 11.348-19.92 2.852-4.943 8.207-4.943 11.058 0z" stroke="#0C0E0F"/><path d="M11.61 76.352l-.003.006-.556.967-.016.028c-.488.863-.988 1.719-1.5 2.568-.22.362.5 1.574 1 1.574h78.8c.5 0 1.22-1.212 1-1.575-.436-.718-.772-1.295-1.502-2.57l-.02-.036c-.266-.463-.396-.69-.554-.962L51.232 11.943c-.918-1.591-1.675-1.591-2.591-.003L11.61 76.352z" stroke="red" stroke-width="6" fill="#FFF" fill-rule="nonzero"/><path fill="#000" fill-rule="nonzero" d="M45.141 75.904h9.986V54.683H67.61v-3.744H55.127V33.463h-9.986z"/><path d="M156.464 9.502c3.267 5.663 6.466 11.286 11.217 19.692l4.76 8.425c10.212 18.068 16.33 28.664 23.07 39.766 2.228 3.668-.924 8.996-5.175 8.996h-78.802c-4.251 0-7.403-5.328-5.176-8.996 6.738-11.099 12.84-21.67 23.068-39.763l4.632-8.2c4.828-8.54 8.048-14.2 11.348-19.92 2.852-4.943 8.207-4.943 11.058 0z" stroke="#0C0E0F"/><path d="M112.61 76.352l-.003.006-.556.967-.016.028c-.488.863-.988 1.719-1.5 2.568-.22.362.5 1.574 1 1.574h78.8c.5 0 1.22-1.212 1-1.575-.436-.718-.772-1.295-1.502-2.57l-.02-.036c-.266-.463-.396-.69-.554-.962l-37.027-64.409c-.918-1.591-1.675-1.591-2.591-.003l-37.03 64.412h-.001z" stroke="red" stroke-width="6" fill="#FFF" fill-rule="nonzero"/><path fill="#000" fill-rule="nonzero" d="M157.859 75.904h-9.986V54.683H135.39v-3.744h12.483V33.463h9.986z"/><path d="M56.464 129.502c3.267 5.663 6.466 11.286 11.217 19.692l4.76 8.425c10.212 18.068 16.33 28.664 23.07 39.766 2.228 3.668-.924 8.996-5.175 8.996H11.534c-4.251 0-7.403-5.328-5.176-8.996 6.738-11.099 12.84-21.67 23.068-39.763l4.632-8.2c4.828-8.54 8.048-14.2 11.348-19.92 2.852-4.943 8.207-4.943 11.058 0z" stroke="#0C0E0F"/><path d="M12.61 196.352l-.003.006-.556.967-.016.028c-.488.863-.988 1.719-1.5 2.568-.22.362.5 1.574 1 1.574h78.8c.5 0 1.22-1.212 1-1.575-.436-.718-.772-1.295-1.502-2.57l-.02-.036c-.266-.463-.396-.69-.554-.962l-37.027-64.409c-.918-1.591-1.675-1.591-2.591-.003l-37.03 64.412h-.001z" stroke="red" stroke-width="6" fill="#FFF" fill-rule="nonzero"/><path fill="#000" fill-rule="nonzero" d="M45.141 195.904h9.986V177.18l10.145-10.145-1.939-3.357-8.206 8.206v-18.421h-9.986z"/><path d="M156.464 249.502c3.267 5.663 6.466 11.286 11.217 19.692l4.76 8.425c10.212 18.068 16.33 28.664 23.07 39.766 2.228 3.668-.924 8.996-5.175 8.996h-78.802c-4.251 0-7.403-5.328-5.176-8.996 6.738-11.099 12.84-21.67 23.068-39.763l4.632-8.2c4.828-8.54 8.048-14.2 11.348-19.92 2.852-4.943 8.207-4.943 11.058 0h0z" stroke="#0C0E0F"/><path d="M112.61 316.352l-.003.006-.556.967-.016.028c-.488.863-.988 1.719-1.5 2.568-.22.362.5 1.574 1 1.574h78.8c.5 0 1.22-1.212 1-1.575-.436-.718-.772-1.295-1.502-2.57l-.02-.036c-.266-.463-.396-.69-.554-.962l-37.027-64.409c-.918-1.591-1.675-1.591-2.591-.003l-37.03 64.412h-.001z" stroke="red" stroke-width="6" fill="#FFF" fill-rule="nonzero"/><path fill="#000" fill-rule="nonzero" d="M156.214 315.441h-9.986v-13.428L132.8 315.441l-2.8-2.496 16.228-16.228V273h9.986z"/><path d="M55.464 249.502c3.267 5.663 6.466 11.286 11.217 19.692l4.76 8.425c10.212 18.068 16.33 28.664 23.07 39.766 2.228 3.668-.924 8.996-5.175 8.996H10.534c-4.251 0-7.403-5.328-5.176-8.996 6.738-11.099 12.84-21.67 23.068-39.763l4.632-8.2c4.828-8.54 8.048-14.2 11.348-19.92 2.852-4.943 8.207-4.943 11.058 0h0z" stroke="#0C0E0F"/><path d="M11.61 316.352l-.003.006-.556.967-.016.028c-.488.863-.988 1.719-1.5 2.568-.22.362.5 1.574 1 1.574h78.8c.5 0 1.22-1.212 1-1.575-.436-.718-.772-1.295-1.502-2.57l-.02-.036c-.266-.463-.396-.69-.554-.962l-37.027-64.409c-.918-1.591-1.675-1.591-2.591-.003l-37.03 64.412h-.001z" stroke="red" stroke-width="6" fill="#FFF" fill-rule="nonzero"/><path d="M45 315.441h9.986v-13.428l13.428 13.428 2.8-2.496-16.228-16.228V273H45z" fill="#000" fill-rule="nonzero"/><g><path d="M156.464 129.502c3.267 5.663 6.466 11.286 11.217 19.692l4.76 8.425c10.212 18.068 16.33 28.664 23.07 39.766 2.228 3.668-.924 8.996-5.175 8.996h-78.802c-4.251 0-7.403-5.328-5.176-8.996 6.738-11.099 12.84-21.67 23.068-39.763l4.632-8.2c4.828-8.54 8.048-14.2 11.348-19.92 2.852-4.943 8.207-4.943 11.058 0z" stroke="#0C0E0F"/><path d="M112.61 196.352l-.003.006-.556.967-.016.028c-.488.863-.988 1.719-1.5 2.568-.22.362.5 1.574 1 1.574h78.8c.5 0 1.22-1.212 1-1.575-.436-.718-.772-1.295-1.502-2.57l-.02-.036c-.266-.463-.396-.69-.554-.962l-37.027-64.409c-.918-1.591-1.675-1.591-2.591-.003l-37.03 64.412h-.001z" stroke="red" stroke-width="6" fill="#FFF" fill-rule="nonzero"/><path d="M157.859 195.904h-9.986V177.18l-10.145-10.145 1.939-3.357 8.206 8.206v-18.421h9.986z" fill="#000" fill-rule="nonzero"/></g><path d="M40.937 102.82H34v-1.427c.53-.376 1.061-.774 1.593-1.196.443-.344.87-.708 1.28-1.09.478-.453.818-.848 1.02-1.184.202-.337.302-.67.302-.998 0-.395-.13-.7-.388-.914-.26-.215-.632-.322-1.119-.322a3.34 3.34 0 0 0-1.148.22c-.394.143-.77.332-1.119.563h-.19v-1.92c.281-.12.696-.24 1.244-.36.54-.12 1.092-.18 1.646-.18 1.108 0 1.953.227 2.534.681.582.455.873 1.098.873 1.93 0 .545-.14 1.064-.419 1.555-.279.491-.705.998-1.279 1.52-.36.325-.722.624-1.086.897-.363.273-.623.463-.777.571h3.97v1.654zm3.91 0h-2.219v-2.28h2.22v2.28h-.001zm8.255-4.05c.194.162.348.352.463.568.115.217.172.505.172.865 0 .406-.082.785-.246 1.137a2.36 2.36 0 0 1-.757.906c-.332.243-.723.43-1.172.56-.449.13-.994.194-1.635.194-.732 0-1.36-.056-1.884-.168a7.223 7.223 0 0 1-1.279-.377v-1.898h.232c.34.201.747.375 1.22.522a4.4 4.4 0 0 0 1.296.22c.23 0 .479-.018.748-.054.269-.037.496-.117.682-.241.146-.097.263-.214.35-.351.087-.138.13-.336.13-.595 0-.251-.059-.446-.177-.583a.97.97 0 0 0-.47-.293 2.494 2.494 0 0 0-.7-.102 35.905 35.905 0 0 0-.759-.008h-.486v-1.544h.504c.309 0 .581-.01.819-.029.237-.02.439-.064.605-.133a.892.892 0 0 0 .392-.293c.087-.122.13-.301.13-.537a.625.625 0 0 0-.136-.42.961.961 0 0 0-.344-.253 1.809 1.809 0 0 0-.546-.14 5.014 5.014 0 0 0-.54-.034c-.372 0-.776.062-1.21.188a5.64 5.64 0 0 0-1.265.543h-.22v-1.875a8.74 8.74 0 0 1 1.324-.368A8.18 8.18 0 0 1 50.04 94c.558 0 1.046.047 1.466.142.42.095.765.222 1.038.38.325.19.566.42.724.69.159.272.238.589.238.952 0 .48-.153.909-.457 1.286-.303.376-.73.632-1.205.722v.081c.202.027.415.082.641.163.225.081.431.2.617.354zm4.777 4.05h-2.22v-2.28h2.22v2.28zm9.121 0h-6.937v-1.427c.53-.376 1.061-.774 1.593-1.196.443-.344.87-.708 1.28-1.09.478-.453.818-.848 1.02-1.184.202-.337.302-.67.302-.998 0-.395-.13-.7-.388-.914-.26-.215-.632-.322-1.119-.322a3.34 3.34 0 0 0-1.148.22c-.394.143-.77.332-1.119.563h-.19v-1.92c.281-.12.696-.24 1.244-.36.54-.12 1.092-.18 1.646-.18 1.108 0 1.953.227 2.534.681.582.455.873 1.098.873 1.93 0 .545-.14 1.064-.419 1.555-.279.491-.705.998-1.279 1.52-.36.325-.722.624-1.086.897-.364.273-.623.463-.777.571H67v1.654zm-26.089 120H34v-1.427c.54-.384 1.069-.783 1.587-1.196.53-.421.955-.785 1.274-1.09.477-.453.816-.848 1.017-1.184.201-.337.302-.67.302-.998 0-.395-.13-.7-.388-.914-.258-.215-.63-.322-1.114-.322-.363 0-.744.073-1.144.22-.4.147-.771.335-1.114.563h-.19v-1.92c.28-.12.693-.24 1.24-.36a7.625 7.625 0 0 1 1.64-.18c1.103 0 1.945.227 2.524.681.58.455.869 1.098.869 1.93 0 .545-.139 1.064-.417 1.555-.278.491-.702.998-1.274 1.52-.358.325-.719.624-1.082.897-.362.273-.62.463-.774.571h3.955v1.654zm3.896 0h-2.211v-2.28h2.21v2.28h.001zm8.223-4.05c.193.162.347.352.461.568.115.217.172.505.172.865 0 .406-.082.785-.245 1.137-.17.36-.43.673-.754.906-.331.243-.72.43-1.168.56-.447.13-.99.194-1.629.194-.729 0-1.354-.056-1.877-.168a7.175 7.175 0 0 1-1.274-.377v-1.898h.231c.339.201.744.375 1.215.522.47.147.901.22 1.292.22.228 0 .476-.018.744-.054.269-.037.495-.117.68-.241.14-.09.26-.21.35-.351.086-.138.13-.336.13-.595 0-.251-.06-.446-.178-.583a.967.967 0 0 0-.467-.293 2.476 2.476 0 0 0-.698-.102 35.633 35.633 0 0 0-.756-.008h-.485v-1.544h.502c.308 0 .58-.01.816-.029.237-.02.438-.064.603-.133.155-.06.29-.16.39-.293.087-.122.13-.301.13-.537a.626.626 0 0 0-.136-.42.958.958 0 0 0-.343-.253 1.797 1.797 0 0 0-.543-.14 4.976 4.976 0 0 0-.538-.034c-.37 0-.773.062-1.206.188-.44.129-.864.311-1.26.543h-.218v-1.875c.323-.127.762-.25 1.318-.368a8.12 8.12 0 0 1 1.69-.177c.556 0 1.043.047 1.461.142a3.7 3.7 0 0 1 1.035.38c.323.19.563.42.72.69.158.272.237.589.237.952 0 .48-.151.909-.455 1.286a2.025 2.025 0 0 1-1.2.722v.081c.201.027.414.082.638.163.225.081.43.2.615.354zm4.76 4.05h-2.212v-2.28h2.211v2.28h.001zm9.21-1.99h-1.2v2.013h-2.17v-2.013h-4.262v-1.637l4.12-5.013H65.8v5.071H67v1.579zm-3.37-1.579v-3.121l-2.56 3.121h2.56zM40.94 342.82H34v-1.427c.53-.376 1.062-.774 1.594-1.196.532-.421.959-.785 1.28-1.09.478-.453.818-.848 1.02-1.184.202-.337.303-.67.303-.998 0-.395-.13-.7-.389-.914-.26-.215-.632-.322-1.119-.322-.364 0-.747.073-1.149.22-.394.143-.77.332-1.119.563h-.19v-1.92c.282-.12.696-.24 1.244-.36a7.687 7.687 0 0 1 1.648-.18c1.108 0 1.953.227 2.534.681.582.455.873 1.098.873 1.93 0 .545-.14 1.064-.419 1.555-.279.491-.705.998-1.279 1.52-.36.325-.722.624-1.086.897-.364.273-.623.463-.778.571h3.972v1.654zm3.912 0h-2.22v-2.28h2.22v2.28zm8.257-4.05c.194.162.348.352.463.568.115.217.172.505.172.865 0 .406-.082.785-.246 1.137a2.361 2.361 0 0 1-.757.906c-.332.243-.723.43-1.172.56-.45.13-.995.194-1.636.194-.732 0-1.36-.056-1.885-.168a7.227 7.227 0 0 1-1.279-.377v-1.898h.232c.34.201.747.375 1.22.522.472.147.905.22 1.297.22.23 0 .478-.018.748-.054.269-.037.496-.117.682-.241a1.17 1.17 0 0 0 .35-.351c.088-.138.131-.336.131-.595 0-.251-.06-.446-.178-.583a.971.971 0 0 0-.469-.293 2.496 2.496 0 0 0-.7-.102 35.93 35.93 0 0 0-.76-.008h-.487v-1.544h.504c.31 0 .582-.01.82-.029.237-.02.439-.064.605-.133a.892.892 0 0 0 .392-.293c.087-.122.13-.301.13-.537a.625.625 0 0 0-.136-.42.961.961 0 0 0-.344-.253 1.81 1.81 0 0 0-.546-.14 5.017 5.017 0 0 0-.54-.034c-.373 0-.776.062-1.212.188a5.643 5.643 0 0 0-1.264.543h-.22v-1.875a8.74 8.74 0 0 1 1.324-.368 8.185 8.185 0 0 1 1.698-.177 6.69 6.69 0 0 1 1.466.142c.42.095.766.222 1.039.38.325.19.566.42.724.69.159.272.238.589.238.952 0 .48-.153.909-.457 1.286-.303.376-.73.632-1.205.722v.081c.201.027.415.082.64.163.226.081.432.2.618.354zm4.779 4.05h-2.22v-2.28h2.22v2.28zM67 339.878c0 .445-.083.863-.25 1.254-.166.39-.399.72-.7.986-.32.286-.691.505-1.113.656-.421.15-.915.226-1.481.226-.53 0-1.014-.07-1.451-.212a2.97 2.97 0 0 1-1.125-.647c-.36-.332-.636-.762-.825-1.288-.19-.526-.285-1.155-.285-1.886 0-.758.089-1.431.267-2.02.173-.578.47-1.11.872-1.56.388-.433.892-.77 1.511-1.01.62-.24 1.357-.36 2.211-.36.29 0 .606.02.95.058.345.04.568.068.671.087v1.7h-.226a3.292 3.292 0 0 0-.543-.17 3.596 3.596 0 0 0-.87-.096c-.76 0-1.35.182-1.774.545-.424.364-.68.87-.766 1.52a4.98 4.98 0 0 1 .965-.432c.338-.11.703-.165 1.095-.165.344 0 .664.039.958.116.295.077.57.201.823.371.328.225.591.526.79.905.197.38.296.853.296 1.422zm-2.701 1.306c.123-.132.22-.287.294-.467.073-.18.11-.425.11-.734 0-.283-.042-.514-.125-.694a1.099 1.099 0 0 0-.344-.432 1.242 1.242 0 0 0-.505-.224 2.737 2.737 0 0 0-1.146-.003c-.19.04-.364.088-.522.146 0 .038-.002.102-.006.191a7.825 7.825 0 0 0-.006.337c0 .475.049.867.146 1.175.097.307.226.542.388.705.111.12.242.208.392.264.296.114.624.113.92-.003.159-.058.293-.145.404-.261zm77.475-238.364H135v-1.427c.53-.384 1.048-.783 1.556-1.196.52-.421.936-.785 1.249-1.09.467-.453.8-.848.997-1.184.197-.337.295-.67.295-.998 0-.395-.126-.7-.38-.914-.253-.215-.617-.322-1.092-.322-.355 0-.73.073-1.121.22a5.16 5.16 0 0 0-1.093.563h-.185v-1.92c.274-.12.679-.24 1.214-.36a7.332 7.332 0 0 1 1.608-.18c1.082 0 1.907.227 2.475.681.568.455.852 1.098.852 1.93 0 .545-.14 1.08-.409 1.555-.272.491-.689.998-1.249 1.52-.351.325-.705.624-1.06.897-.356.273-.609.463-.76.571h3.877v1.654zm3.82 0h-2.168v-2.28h2.167v2.28h.001zm8.06-4.05c.19.162.34.352.452.568.112.217.168.505.168.865 0 .406-.08.785-.24 1.137-.16.352-.407.654-.74.906-.324.243-.705.43-1.144.56-.438.13-.97.194-1.596.194-.715 0-1.328-.056-1.84-.168a6.93 6.93 0 0 1-1.249-.377v-1.898h.226c.332.201.73.375 1.19.522.463.147.885.22 1.267.22.224 0 .468-.018.73-.054a1.55 1.55 0 0 0 .667-.241c.143-.097.257-.214.342-.351.085-.138.127-.336.127-.595 0-.251-.058-.446-.174-.583a.945.945 0 0 0-.458-.293 2.383 2.383 0 0 0-.683-.102 34.24 34.24 0 0 0-.742-.008h-.475v-1.544h.492c.302 0 .568-.01.8-.029.232-.02.429-.064.591-.133a.873.873 0 0 0 .383-.293c.085-.122.127-.301.127-.537a.635.635 0 0 0-.133-.42.94.94 0 0 0-.336-.253 1.733 1.733 0 0 0-.533-.14 4.783 4.783 0 0 0-.528-.034c-.363 0-.757.062-1.182.188a5.44 5.44 0 0 0-1.234.543h-.215v-1.875c.317-.127.748-.25 1.293-.368a7.807 7.807 0 0 1 1.657-.177c.545 0 1.022.047 1.431.142.41.095.748.222 1.014.38.317.19.553.42.707.69.155.272.232.589.232.952 0 .48-.149.909-.446 1.286a1.98 1.98 0 0 1-1.176.722v.081c.197.027.405.082.625.163.22.081.422.2.603.354zm4.665 4.05h-2.167v-2.28h2.167v2.28zm8.06-4.05c.19.162.34.352.453.568.112.217.168.505.168.865 0 .406-.08.785-.24 1.137-.16.352-.407.654-.74.906-.324.243-.705.43-1.144.56-.438.13-.97.194-1.596.194-.715 0-1.328-.056-1.84-.168a6.93 6.93 0 0 1-1.25-.377v-1.898h.227c.332.201.73.375 1.19.522.462.147.884.22 1.267.22.224 0 .467-.018.73-.054a1.55 1.55 0 0 0 .667-.241c.142-.097.256-.214.341-.351.085-.138.128-.336.128-.595 0-.251-.058-.446-.174-.583a.945.945 0 0 0-.458-.293 2.383 2.383 0 0 0-.684-.102 34.24 34.24 0 0 0-.741-.008h-.475v-1.544h.492c.301 0 .568-.01.8-.029.232-.02.429-.064.59-.133a.873.873 0 0 0 .383-.293c.085-.122.128-.301.128-.537a.635.635 0 0 0-.133-.42.94.94 0 0 0-.337-.253 1.733 1.733 0 0 0-.533-.14 4.783 4.783 0 0 0-.527-.034c-.363 0-.757.062-1.182.188a5.44 5.44 0 0 0-1.235.543h-.214v-1.875c.317-.127.748-.25 1.292-.368A7.807 7.807 0 0 1 163.39 94c.544 0 1.022.047 1.431.142.41.095.748.222 1.014.38.317.19.553.42.707.69.155.272.232.589.232.952 0 .48-.149.909-.446 1.286-.298.377-.69.618-1.177.722v.081c.197.027.406.082.626.163.22.081.421.2.603.354h-.001zm-24.613 124.05H135v-1.427a35.973 35.973 0 0 0 1.554-1.196c.519-.421.935-.785 1.247-1.09.467-.453.799-.848.996-1.184.196-.337.295-.67.295-.998 0-.395-.126-.7-.38-.914-.252-.215-.616-.322-1.09-.322-.355 0-.728.073-1.12.22a5.152 5.152 0 0 0-1.091.563h-.185v-1.92c.274-.12.678-.24 1.212-.36.535-.12 1.07-.18 1.606-.18 1.08 0 1.904.227 2.472.681.567.455.85 1.098.85 1.93 0 .545-.136 1.064-.408 1.555-.272.491-.687.998-1.247 1.52-.351.325-.704.624-1.059.897a34.01 34.01 0 0 1-.758.571h3.872v1.654zm3.814 0h-2.165v-2.28h2.165v2.28zm8.05-4.05c.19.162.34.352.452.568.112.217.168.505.168.865 0 .406-.08.785-.24 1.137-.16.352-.407.654-.738.906-.324.243-.705.43-1.143.56-.438.13-.97.194-1.595.194-.714 0-1.326-.056-1.837-.168a6.914 6.914 0 0 1-1.248-.377v-1.898h.226c.375.22.774.395 1.19.522.46.147.882.22 1.264.22.224 0 .467-.018.73-.054.262-.037.483-.117.665-.241.143-.097.256-.214.341-.351.085-.138.128-.336.128-.595 0-.251-.058-.446-.174-.583a.944.944 0 0 0-.457-.293 2.377 2.377 0 0 0-.683-.102 34.156 34.156 0 0 0-.741-.008h-.475v-1.544h.492c.301 0 .568-.01.799-.029a1.9 1.9 0 0 0 .59-.133.872.872 0 0 0 .382-.293c.085-.122.128-.301.128-.537a.635.635 0 0 0-.133-.42.94.94 0 0 0-.336-.253 1.73 1.73 0 0 0-.533-.14 4.77 4.77 0 0 0-.526-.034 4.15 4.15 0 0 0-1.18.188 5.43 5.43 0 0 0-1.234.543h-.214v-1.875c.317-.127.747-.25 1.29-.368a7.787 7.787 0 0 1 1.656-.177c.544 0 1.02.047 1.43.142.409.095.746.222 1.012.38.317.19.552.42.707.69.154.272.231.589.231.952 0 .48-.148.909-.446 1.286-.292.374-.709.63-1.174.722v.081c.196.027.405.082.625.163.22.081.42.2.601.354zm4.66 4.05h-2.165v-2.28h2.165v2.28zm8.71-2.924c0 .448-.084.865-.252 1.25a2.72 2.72 0 0 1-.732.99c-.36.297-.777.518-1.224.652a5.387 5.387 0 0 1-1.577.212c-.69-.004-1.274-.059-1.75-.165-.4-.082-.79-.202-1.167-.357v-1.91h.243c.351.21.73.384 1.134.523.405.14.809.209 1.21.209.243 0 .506-.028.79-.084.284-.056.508-.158.674-.305.131-.12.23-.242.298-.366.068-.123.102-.315.102-.574a.96.96 0 0 0-.136-.52 1.086 1.086 0 0 0-.35-.35 1.933 1.933 0 0 0-.753-.253 5.385 5.385 0 0 0-1.797.029c-.318.06-.597.12-.836.177h-.255v-4.874h6.13v1.654h-4.04v1.41c.312-.02.625-.029.938-.029.474 0 .897.045 1.27.136.372.091.693.218.963.38.351.213.625.494.822.844.197.35.295.79.295 1.32v.001zM141.765 342.82H135v-1.427a35.967 35.967 0 0 0 1.554-1.196c.519-.421.934-.785 1.247-1.09.467-.453.798-.848.995-1.184.197-.337.295-.67.295-.998 0-.395-.126-.7-.379-.914-.253-.215-.616-.322-1.09-.322-.356 0-.729.073-1.12.22a5.15 5.15 0 0 0-1.091.563h-.185v-1.92c.274-.12.678-.24 1.212-.36.534-.12 1.07-.18 1.606-.18 1.08 0 1.904.227 2.47.681.568.455.851 1.098.851 1.93 0 .545-.136 1.064-.408 1.555-.272.491-.687.998-1.247 1.52-.35.325-.704.624-1.059.897s-.607.463-.758.571h3.872v1.654zm3.813 0h-2.164v-2.28h2.164v2.28zm8.05-4.05c.188.162.339.352.45.568.112.217.168.505.168.865 0 .406-.08.785-.24 1.137-.16.352-.406.654-.738.906-.324.243-.705.43-1.143.56-.437.13-.969.194-1.594.194-.713 0-1.326-.056-1.837-.168a6.912 6.912 0 0 1-1.247-.377v-1.898h.226c.331.201.728.375 1.189.522.46.147.882.22 1.264.22.224 0 .467-.018.73-.054.262-.037.483-.117.665-.241.143-.097.256-.214.341-.351.085-.138.128-.336.128-.595 0-.251-.058-.446-.174-.583a.944.944 0 0 0-.457-.293 2.377 2.377 0 0 0-.683-.102 34.14 34.14 0 0 0-.74-.008h-.475v-1.544h.492c.3 0 .567-.01.798-.029a1.9 1.9 0 0 0 .59-.133.872.872 0 0 0 .382-.293c.085-.122.128-.301.128-.537a.635.635 0 0 0-.133-.42.94.94 0 0 0-.336-.253 1.729 1.729 0 0 0-.532-.14 4.77 4.77 0 0 0-.527-.034c-.363 0-.756.062-1.18.188-.432.13-.846.311-1.233.543h-.214v-1.875c.316-.127.746-.25 1.29-.368a7.785 7.785 0 0 1 1.655-.177c.544 0 1.02.047 1.43.142.408.095.746.222 1.012.38.317.19.552.42.706.69.154.272.232.589.232.952 0 .48-.149.909-.446 1.286-.292.374-.71.63-1.175.722v.081c.197.027.405.082.625.163.22.081.42.2.602.354h.001zm4.657 4.05h-2.164v-2.28h2.164v2.28zm8.715-6.923l-3.9 6.923h-2.477l4.05-6.986h-4.426v-1.654H167v1.717z" fill="#8B8B8B" fill-rule="nonzero"/></g></svg>