<svg width="110" height="80" xmlns="http://www.w3.org/2000/svg"><g fill="none" fill-rule="evenodd"><path d="M0 0h110v80H0z"/><g fill-rule="nonzero"><g transform="translate(5 6)"><path d="M6.3.166h87.4a6.3 6.3 0 0 1 6.3 6.3v37.068a6.3 6.3 0 0 1-6.3 6.3H6.3a6.3 6.3 0 0 1-6.3-6.3V6.466a6.3 6.3 0 0 1 6.3-6.3z" fill="#000"/><rect fill="#FFF" x="1.667" y="1.821" width="96.667" height="46.358" rx="4.9"/><path d="M18.594 15.687v7.606h-7.656v3.414h7.656v7.606h3.437v-7.606h7.657v-3.414h-7.657v-7.606h-3.437zm24.432-2.965a2.29 2.29 0 0 0-1.984 1.139l-4.016 6.907a2.282 2.282 0 0 0-.307 1.143v8.361a2.277 2.277 0 0 0 2.291 2.277h1.151c0-3.147 2.567-5.697 5.735-5.697 3.167 0 5.734 2.55 5.734 5.697h18.354c0-3.147 2.567-5.697 5.735-5.697 3.167 0 5.734 2.55 5.734 5.697h3.443a2.277 2.277 0 0 0 2.291-2.277v-8.361c0-.246-.041-.49-.12-.724L84.75 14.28a2.286 2.286 0 0 0-2.172-1.558H43.026zm.266 1.594h2.604c.635 0 1.146.512 1.146 1.143v4.559c0 .63-.51 1.138-1.146 1.138h-5.25a1.146 1.146 0 0 1-1.151-1.138c0-.2.055-.401.156-.575l2.646-4.553c.205-.352.585-.574.995-.574zm7.192 0h6.88c.636 0 1.146.512 1.146 1.143v4.559c0 .63-.51 1.138-1.145 1.138h-6.88a1.14 1.14 0 0 1-1.146-1.138v-4.559c0-.63.51-1.143 1.145-1.143zm11.47 0h6.88c.635 0 1.15.512 1.15 1.143v4.559c0 .63-.515 1.138-1.15 1.138h-6.88a1.14 1.14 0 0 1-1.147-1.138v-4.559c0-.63.51-1.143 1.146-1.143h.001zm11.468 0h6.542c.508 0 .955.338 1.099.823l1.348 4.553a1.141 1.141 0 0 1-1.099 1.464h-7.89a1.14 1.14 0 0 1-1.146-1.138v-4.559c0-.63.51-1.143 1.146-1.143z" fill="#000"/><path d="M45.895 27.991c-2.534 0-4.588 2.041-4.588 4.558s2.054 4.558 4.588 4.558c2.534 0 4.588-2.04 4.588-4.558 0-2.517-2.054-4.558-4.588-4.558zm0 2.28a2.286 2.286 0 0 1 2.294 2.278 2.286 2.286 0 0 1-2.294 2.279 2.286 2.286 0 0 1-2.294-2.279 2.286 2.286 0 0 1 2.294-2.279v.001zm29.822-2.28c-2.534 0-4.588 2.041-4.588 4.558s2.054 4.558 4.588 4.558c2.534 0 4.588-2.04 4.588-4.558 0-2.517-2.054-4.558-4.588-4.558zm0 2.28a2.286 2.286 0 0 1 2.294 2.278 2.286 2.286 0 0 1-2.294 2.279 2.286 2.286 0 0 1-2.294-2.279 2.286 2.286 0 0 1 2.294-2.279v.001z" fill="#000"/></g><path d="M41.914 70.568c0 .754-.294 1.381-.882 1.881-.588.5-1.327.75-2.218.75-.945 0-1.698-.244-2.258-.732s-.841-1.113-.841-1.875c0-.485.14-.923.422-1.316.281-.392.677-.704 1.19-.934v-.035c-.47-.25-.816-.524-1.04-.82-.225-.298-.338-.669-.338-1.114 0-.656.27-1.203.809-1.64.539-.438 1.224-.657 2.056-.657.872 0 1.567.21 2.086.627.52.418.78.95.78 1.594 0 .394-.123.782-.37 1.163-.246.38-.607.679-1.083.894v.035c.546.234.964.523 1.253.867.29.344.434.781.434 1.312zm-1.389-4.26c0-.417-.16-.75-.483-.998-.322-.248-.733-.373-1.233-.373-.493 0-.896.118-1.21.352a1.12 1.12 0 0 0-.472.95c0 .28.08.524.237.729.158.205.398.387.718.548.145.07.353.162.624.275.272.113.536.207.794.281.387-.258.654-.525.803-.802.148-.278.222-.598.222-.961v-.001zm.182 4.372c0-.36-.08-.648-.237-.865-.158-.216-.468-.434-.929-.653a5.885 5.885 0 0 0-.603-.24c-.22-.074-.51-.178-.874-.31a2.306 2.306 0 0 0-.846.779 2 2 0 0 0-.32 1.113c0 .527.182.963.545 1.307.364.343.825.515 1.383.515.57 0 1.027-.146 1.368-.44.342-.292.513-.695.513-1.206zM45.512 73h-1.4v-1.67h1.4V73zm8.332 0h-5.907v-1.225l1.234-1.054c.395-.337.78-.687 1.151-1.05.75-.726 1.264-1.303 1.541-1.73a2.5 2.5 0 0 0 .416-1.386c0-.453-.15-.808-.448-1.064-.299-.256-.716-.384-1.25-.384-.356 0-.741.063-1.155.188-.43.132-.838.326-1.213.574h-.059v-1.23c.278-.137.648-.262 1.11-.375a5.65 5.65 0 0 1 1.345-.17c.895 0 1.596.216 2.104.647.508.432.762 1.017.762 1.755 0 .332-.042.642-.126.929-.084.287-.208.56-.372.817-.153.242-.331.48-.537.715-.205.234-.454.494-.747.78-.418.41-.85.807-1.295 1.192-.445.384-.86.74-1.248 1.069h4.694V73zm7.13 0h-4.722v-.89h1.816v-5.848h-1.816v-.797c.246 0 .51-.02.791-.062.281-.04.494-.1.639-.178.18-.098.32-.222.424-.372.104-.15.164-.353.18-.607h.907v7.863h1.782V73h-.001zm4.16 0h-1.4v-1.67h1.4V73zm8.333 0H67.56v-1.225c.41-.351.82-.703 1.233-1.054.395-.337.78-.687 1.151-1.05.75-.726 1.264-1.303 1.541-1.73a2.5 2.5 0 0 0 .416-1.386c0-.453-.15-.808-.448-1.064-.299-.256-.716-.384-1.25-.384-.356 0-.741.063-1.155.188-.43.132-.838.326-1.213.574h-.059v-1.23c.278-.137.648-.262 1.11-.375a5.65 5.65 0 0 1 1.345-.17c.895 0 1.596.216 2.104.647.508.432.762 1.017.762 1.755 0 .332-.042.642-.126.929-.084.287-.208.56-.372.817-.153.242-.331.48-.537.715-.205.234-.454.494-.747.78-.418.41-.85.807-1.295 1.192-.445.384-.86.74-1.248 1.069h4.694V73h.001z" fill="#8B8B8B"/></g></g></svg>