<svg width="174" height="107" xmlns="http://www.w3.org/2000/svg"><g fill="none" fill-rule="evenodd"><path d="M0 0h174v107H0z"/><g transform="translate(1 4)"><rect fill="#FFF" fill-rule="nonzero" width="82" height="82" rx="6"/><rect stroke="#000" x="1.5" y="1.5" width="79" height="79" rx="6"/><path d="M6.803 4A2.797 2.797 0 0 0 4 6.803v32.89h74v-7.326H60.621a6.54 6.54 0 1 0-13.08 0h-1.31a2.61 2.61 0 0 1-2.614-2.618v-9.597c0-.459.121-.909.35-1.306l4.58-7.933a2.611 2.611 0 0 1 2.264-1.307H78V6.803A2.797 2.797 0 0 0 75.197 4H6.803zm44.221 7.439c-.435.03-.826.273-1.044.651l-3.02 5.235a1.31 1.31 0 0 0 1.132 1.962h5.988a1.31 1.31 0 0 0 1.31-1.31v-5.232c0-.724-.586-1.306-1.31-1.306h-2.968c-.03 0-.059-.002-.088 0zm8.29 0c-.724 0-1.31.582-1.31 1.306v5.232c0 .724.586 1.31 1.31 1.31h7.849c.724 0 1.307-.586 1.307-1.31v-5.232c0-.724-.583-1.306-1.307-1.306h-7.849zm13.08 0c-.725 0-1.307.582-1.307 1.306v5.232c0 .724.582 1.31 1.307 1.31H78v-7.848h-5.606zm-44.474.784v6.538H41v7.849H27.92v6.542L9.606 22.686 27.92 12.223zm26.16 14.913c2.89 0 5.232 2.34 5.234 5.23a5.233 5.233 0 1 1-8.933-3.699 5.23 5.23 0 0 1 3.699-1.531zm0 2.613a2.615 2.615 0 0 0-2.614 2.618 2.616 2.616 0 1 0 2.614-2.618zM4 42.307v14.39h50.08v-6.542l18.314 10.466L54.08 71.087v-6.542H4v10.652A2.797 2.797 0 0 0 6.803 78h68.394A2.797 2.797 0 0 0 78 75.197v-32.89H4z" fill="#0D69E1" fill-rule="nonzero"/></g><g transform="translate(91 4)"><rect fill="#FFF" fill-rule="nonzero" width="82" height="82" rx="6"/><rect stroke="#000" x="1.5" y="1.5" width="79" height="79" rx="6"/><path d="M6.803 4A2.797 2.797 0 0 0 4 6.803v32.89h74V26.61H27.92v6.542L9.606 22.686 27.92 12.223v6.538H78V6.803A2.797 2.797 0 0 0 75.197 4H6.803zM4 42.307V47.8h27.19c.934 0 1.796.5 2.263 1.31l4.58 7.93c.229.397.35.847.35 1.306v9.602a2.606 2.606 0 0 1-2.614 2.613h-1.31a6.536 6.536 0 0 0-6.539-6.538 6.54 6.54 0 0 0-6.541 6.538H4v4.636A2.797 2.797 0 0 0 6.803 78h68.394A2.797 2.797 0 0 0 78 75.197v-32.89H4zm0 7.326v7.849h5.606c.725 0 1.307-.582 1.307-1.307V50.94c0-.724-.582-1.307-1.307-1.307H4zm10.837 0c-.724 0-1.307.583-1.307 1.307v5.235c0 .725.583 1.307 1.307 1.307h7.849c.724 0 1.31-.582 1.31-1.307V50.94c0-.724-.586-1.307-1.31-1.307h-7.849zm13.083 0c-.724 0-1.31.583-1.31 1.307v5.235c0 .725.586 1.307 1.31 1.307h5.988a1.306 1.306 0 0 0 1.132-1.962l-3.02-5.231a1.307 1.307 0 0 0-1.132-.656H27.92zm26.16.522l18.314 10.466L54.08 71.087v-6.542H41v-7.848h13.08v-6.542zM27.92 65.33a5.233 5.233 0 1 1 .14 10.465 5.233 5.233 0 0 1-.14-10.465zm0 2.618a2.615 2.615 0 1 0-.004 5.23 2.615 2.615 0 0 0 .004-5.23z" fill="#0D69E1" fill-rule="nonzero"/></g><path d="M28.78 99.229c0 .406-.075.794-.223 1.166-.136.351-.344.67-.61.937-.288.278-.63.492-1.005.63-.388.146-.838.22-1.35.22-.477 0-.936-.05-1.377-.15-.442-.1-.815-.22-1.12-.36v-1.236h.083c.32.203.695.376 1.125.518.43.143.851.214 1.265.214.278 0 .546-.04.806-.117.26-.078.491-.215.694-.41a1.64 1.64 0 0 0 .39-.604c.088-.234.132-.506.132-.814 0-.301-.052-.555-.155-.762a1.286 1.286 0 0 0-.431-.498 1.892 1.892 0 0 0-.741-.314 4.805 4.805 0 0 0-.976-.09c-.344 0-.675.023-.993.07-.318.047-.593.094-.823.14v-4.494h5.25v1.026H24.6v2.32c.323-.03.648-.046.973-.047.473 0 .887.04 1.242.12.356.08.682.222.979.425.312.215.555.492.726.832.172.34.258.766.258 1.278h.002zM32.511 102h-1.4v-1.67h1.4V102zm7.834 0h-4.723v-.89h1.816v-5.848h-1.816v-.797c.246 0 .51-.02.791-.062.281-.04.494-.1.639-.178.18-.098.321-.222.425-.372.103-.15.163-.353.178-.607h.908v7.863h1.782V102zm7.36-4.201c.187.168.34.379.462.633.121.254.182.582.182.984 0 .398-.073.764-.217 1.096-.142.328-.35.623-.61.867-.296.275-.65.482-1.034.606-.396.131-.83.197-1.303.197a5.98 5.98 0 0 1-1.43-.173 6.72 6.72 0 0 1-1.154-.378v-1.225h.087c.332.219.723.4 1.172.545.45.145.883.217 1.301.217.246 0 .508-.041.785-.123a1.66 1.66 0 0 0 .674-.363 1.71 1.71 0 0 0 .401-.569c.088-.207.132-.468.132-.785 0-.312-.05-.571-.15-.776a1.193 1.193 0 0 0-.412-.484 1.615 1.615 0 0 0-.639-.249 4.575 4.575 0 0 0-.808-.067h-.528v-.973h.41c.594 0 1.068-.124 1.421-.372.354-.248.53-.61.53-1.087a1.1 1.1 0 0 0-.134-.553 1.1 1.1 0 0 0-.375-.39 1.686 1.686 0 0 0-.54-.211 3.27 3.27 0 0 0-.65-.059c-.37 0-.765.067-1.183.2-.418.132-.813.32-1.184.562h-.058v-1.224c.277-.137.647-.263 1.11-.378a5.56 5.56 0 0 1 1.345-.173c.425 0 .8.039 1.125.117.324.078.617.203.878.375.282.187.495.414.64.68.144.265.216.576.216.931 0 .485-.17.907-.513 1.269-.321.35-.745.588-1.21.682v.082c.188.032.403.097.645.197s.447.223.615.372h.001zM52.134 102h-1.4v-1.67h1.4V102zm7.834 0h-4.723v-.89h1.816v-5.848h-1.816v-.797c.246 0 .51-.02.791-.062.281-.04.494-.1.639-.178.18-.098.321-.222.425-.372.103-.15.163-.353.178-.607h.908v7.863h1.782V102zm58.812-2.771c0 .406-.075.794-.223 1.166-.136.351-.344.67-.61.937-.288.278-.63.492-1.005.63-.388.146-.838.22-1.35.22-.477 0-.936-.05-1.377-.15-.442-.1-.815-.22-1.12-.36v-1.236h.083c.32.203.695.376 1.125.518.43.143.851.214 1.265.214.278 0 .546-.04.806-.117.26-.078.491-.215.694-.41a1.64 1.64 0 0 0 .39-.604c.088-.234.132-.506.132-.814 0-.301-.052-.555-.155-.762a1.286 1.286 0 0 0-.431-.498 1.892 1.892 0 0 0-.741-.314 4.805 4.805 0 0 0-.976-.09c-.344 0-.675.023-.993.07-.318.047-.593.094-.823.14v-4.494h5.25v1.026h-4.12v2.32c.323-.03.648-.046.973-.047.473 0 .887.04 1.242.12.356.08.682.222.979.425.312.215.555.492.726.832.172.34.258.766.258 1.278h.001zm3.731 2.771h-1.4v-1.67h1.4V102zm7.834 0h-4.723v-.89h1.816v-5.848h-1.816v-.797c.246 0 .51-.02.791-.062.281-.04.494-.1.639-.178.18-.098.321-.222.425-.372.103-.15.163-.353.178-.607h.908v7.863h1.782V102zm7.36-4.201c.187.168.34.379.462.633.121.254.182.582.182.984 0 .398-.073.764-.217 1.096-.142.328-.35.623-.61.867-.296.275-.65.482-1.034.606-.396.131-.83.197-1.303.197a5.98 5.98 0 0 1-1.43-.173 6.72 6.72 0 0 1-1.154-.378v-1.225h.087c.332.219.723.4 1.172.545.45.145.883.217 1.301.217.246 0 .508-.041.785-.123a1.66 1.66 0 0 0 .674-.363 1.71 1.71 0 0 0 .401-.569c.088-.207.132-.468.132-.785 0-.312-.05-.571-.15-.776a1.193 1.193 0 0 0-.412-.484 1.615 1.615 0 0 0-.639-.249 4.575 4.575 0 0 0-.808-.067h-.528v-.973h.41c.594 0 1.068-.124 1.421-.372.354-.248.53-.61.53-1.087a1.1 1.1 0 0 0-.134-.553 1.1 1.1 0 0 0-.375-.39 1.686 1.686 0 0 0-.54-.211 3.27 3.27 0 0 0-.65-.059c-.37 0-.765.067-1.183.2-.418.132-.813.32-1.184.562h-.058v-1.224c.277-.137.647-.263 1.11-.378a5.56 5.56 0 0 1 1.345-.173c.425 0 .8.039 1.125.117.324.078.617.203.879.375.28.187.494.414.638.68.145.265.217.576.217.931 0 .485-.17.907-.513 1.269-.321.35-.745.588-1.21.682v.082c.188.032.403.097.645.197s.447.223.615.372h.001zm4.429 4.201h-1.4v-1.67h1.4V102zm8.332 0h-5.906v-1.225c.41-.351.82-.703 1.233-1.054.395-.337.78-.687 1.151-1.05.75-.726 1.264-1.303 1.541-1.73a2.5 2.5 0 0 0 .416-1.386c0-.453-.15-.808-.448-1.064-.299-.256-.716-.384-1.25-.384-.356 0-.741.063-1.155.188-.43.132-.838.326-1.213.574h-.059v-1.23c.278-.137.648-.262 1.11-.375a5.65 5.65 0 0 1 1.345-.17c.895 0 1.596.216 2.104.647.508.432.762 1.017.762 1.755 0 .332-.042.642-.126.929-.084.287-.208.56-.372.817-.153.242-.331.48-.537.715-.205.234-.454.494-.747.78-.418.41-.85.807-1.295 1.192-.445.384-.86.74-1.248 1.069h4.694V102z" fill="#8B8B8B" fill-rule="nonzero"/></g></svg>