<svg width="100" height="86" xmlns="http://www.w3.org/2000/svg"><g fill="none" fill-rule="evenodd"><path d="M90 43c0 22.091-17.909 40-40 40S10 65.091 10 43 27.909 3 50 3s40 17.909 40 40z" fill="#FFF" fill-rule="nonzero"/><path d="M49.999 5.284c-20.827 0-37.713 16.887-37.713 37.717 0 20.827 16.886 37.713 37.713 37.713 20.83 0 37.717-16.886 37.717-37.713 0-20.83-16.887-37.717-37.717-37.717zm11.63 23.168c2.883.1 5.187 1.518 6.916 4.251 1.73 2.734 2.616 6.164 2.66 10.298-.044 4.33-.93 7.82-2.66 10.468-1.729 2.645-4.033 4.005-6.916 4.082-2.883-.077-5.192-1.437-6.92-4.082-1.73-2.648-2.617-6.139-2.661-10.468.044-4.333.931-7.823 2.66-10.468 1.73-2.648 4.038-4.009 6.92-4.081zm-30.983.356H46.97l-1.422 4.608h-10.29v6.747a4.137 4.137 0 0 1 2.098-1.422 8.334 8.334 0 0 1 2.515-.356c2.061.016 3.968.786 5.722 2.308 1.753 1.523 2.68 3.71 2.794 6.564-.036 2.912-1.029 5.338-2.972 7.273-1.944 1.94-4.62 2.944-8.03 3.021-1.677-.06-3.2-.3-4.568-.713-1.365-.413-2.09-.651-2.17-.708l-.71-4.613c.887.571 1.936.952 3.143 1.146a20.79 20.79 0 0 0 3.6.272c1.506 0 2.924-.446 4.256-1.333 1.332-.886 2.04-2.215 2.13-3.988-.008-1.308-.437-2.507-1.288-3.592-.85-1.085-2.077-1.665-3.68-1.733-1.066.068-1.953.376-2.661.931-.709.555-1.244.956-1.596 1.199l-3.195-1.774V28.808zM61.63 32.86c-1.39-.02-2.503.782-3.337 2.406-.83 1.628-1.255 4.207-1.28 7.734.025 3.527.45 6.103 1.28 7.73.834 1.629 1.948 2.43 3.337 2.41 1.389.02 2.498-.781 3.333-2.41.83-1.627 1.255-4.203 1.28-7.73-.025-3.527-.45-6.106-1.28-7.734-.835-1.624-1.944-2.426-3.333-2.406z" fill="#0D69E1" fill-rule="nonzero"/><path d="M90.386 43c0 22.304-18.082 40.386-40.386 40.386C27.696 83.386 9.614 65.304 9.614 43 9.614 20.696 27.696 2.614 50 2.614c22.304 0 40.386 18.082 40.386 40.386z" stroke="#000"/><path d="M73.993 13.9L20.9 66.993a37.97 37.97 0 0 0 5.107 5.107L79.1 19.007a37.97 37.97 0 0 0-5.107-5.107z" fill="red" fill-rule="nonzero"/></g></svg>