<svg width="100" height="77" xmlns="http://www.w3.org/2000/svg"><g transform="translate(11 11)" fill="none" fill-rule="evenodd"><rect fill="#FFF" fill-rule="nonzero" x="1" y="1" width="75" height="50" rx="4"/><rect stroke="#000" x=".5" y=".5" width="76" height="51" rx="6"/><path d="M3 7v38.073a4 4 0 0 0 4 4h63.05a4 4 0 0 0 4-4V7a4 4 0 0 0-4-4H7a4 4 0 0 0-4 4zM30.17 17.974c1.164.025 2.213.429 3.15 1.21.936.783 1.435 1.792 1.49 3.028.006.967-.103 1.717-.32 2.244-.218.527-.578 1.087-1.09 1.679a33.337 33.337 0 0 1-2.324 2.567c-.902.91-1.87 1.905-2.917 2.995h6.65c0 .31-.05.7-.151 1.162-.101.462-.255.948-.457 1.461H24.53v-2.422a63.13 63.13 0 0 0 5.874-6.11c.499-.553.906-1.09 1.218-1.615.312-.523.471-1.178.48-1.961-.008-.53-.225-1.004-.64-1.429-.416-.425-.977-.653-1.691-.678-.6.025-1.166.253-1.69.678-.526.425-1.04.9-1.54 1.429l-1.61-1.816a7.198 7.198 0 0 1 2.172-1.728c.848-.447 1.867-.68 3.068-.694zm14.12 0c1.637.058 2.95.868 3.933 2.422.983 1.553 1.482 3.502 1.507 5.852-.025 2.464-.524 4.452-1.507 5.957-.982 1.505-2.296 2.275-3.934 2.317-1.638-.042-2.943-.812-3.926-2.317-.983-1.505-1.49-3.493-1.515-5.957.026-2.464.532-4.444 1.515-5.95.983-1.504 2.288-2.282 3.926-2.324zm-26.828.202h2.42V34.32h-2.82V21.808l-2.164 1.356-.945-1.243 3.51-3.745zm36.298 0h9.28l-.81 2.623h-5.85v3.834a2.366 2.366 0 0 1 1.194-.807c.478-.143.952-.21 1.427-.202 1.171.009 2.257.45 3.253 1.316.995.866 1.523 2.107 1.586 3.73-.02 1.656-.578 3.039-1.682 4.14-1.105 1.102-2.632 1.67-4.568 1.712-.953-.034-1.819-.168-2.596-.404-.777-.235-1.188-.37-1.234-.403l-.4-2.624c.505.324 1.101.543 1.786.654.686.111 1.366.161 2.044.153.856 0 1.664-.254 2.42-.758.756-.505 1.16-1.26 1.21-2.269-.005-.744-.247-1.424-.73-2.042-.483-.618-1.18-.947-2.091-.985-.605.038-1.111.218-1.514.533-.404.315-.704.54-.906.678l-1.819-1.009v-7.87zm-9.47 2.308c-.79-.012-1.42.44-1.892 1.365-.473.924-.717 2.393-.73 4.399.013 2.006.257 3.474.73 4.4.473.924 1.101 1.375 1.891 1.363.79.012 1.418-.439 1.891-1.364.473-.925.717-2.393.73-4.4-.013-2.005-.257-3.474-.73-4.398-.473-.925-1.101-1.377-1.89-1.365z" fill="#0D69E1" fill-rule="nonzero"/></g></svg>