<svg width="108" height="102" xmlns="http://www.w3.org/2000/svg"><g transform="translate(14 11)" fill="none" fill-rule="evenodd"><rect fill="#FFF" fill-rule="nonzero" width="80" height="80" rx="6"/><rect stroke="#000" x=".5" y=".5" width="79" height="79" rx="6"/><path d="M3 74.197A2.803 2.803 0 0 0 5.803 77h68.394A2.803 2.803 0 0 0 77 74.197V5.803A2.803 2.803 0 0 0 74.197 3H5.803A2.803 2.803 0 0 0 3 5.803v68.394zm4-11.312c0-.196.052-.389.15-.558L39.53 6.557a1.123 1.123 0 0 1 1.942 0l32.379 55.77A1.118 1.118 0 0 1 72.879 64H8.121C7.502 64 7 63.5 7 62.885z" fill="#0D69E1" fill-rule="nonzero"/><path d="M66 56v-2.5h-6.5c-5.005 0-6.89-7.5-19.5-7.5s-14.495 7.5-19.5 7.5H14V56h52z" fill="#000" fill-rule="nonzero"/></g></svg>