<svg width="108" height="102" xmlns="http://www.w3.org/2000/svg"><g transform="translate(14 11)" fill="none" fill-rule="evenodd"><rect fill="#FFF" fill-rule="nonzero" width="80" height="80" rx="6"/><rect stroke="#000" x=".614" y=".614" width="78.771" height="78.771" rx="6"/><path d="M5.803 3A2.797 2.797 0 0 0 3 5.803v68.394A2.797 2.797 0 0 0 5.803 77h13.269V37.383c0-3.816 1.513-7.477 4.211-10.175l7.772-7.768-4.625-4.625 20.35-5.547-5.55 20.347-4.625-4.625-7.768 7.771a6.534 6.534 0 0 0-1.917 4.622V77h11.773v-8.223h2.614V77H53.08V26.92h-6.538L57.004 8.606 67.47 26.92h-6.542V77h13.269A2.797 2.797 0 0 0 77 74.197V5.803A2.797 2.797 0 0 0 74.197 3H5.803zm32.89 44.848h2.614v7.849h-2.614v-7.849zm0 10.466h2.614v7.849h-2.614v-7.849z" fill="#0D69E1" fill-rule="nonzero"/></g></svg>