<svg width="245" height="718" xmlns="http://www.w3.org/2000/svg"><g fill="none" fill-rule="evenodd"><path d="M0 0h245v718H0z"/><g fill-rule="nonzero"><path d="M18 5h210a8 8 0 0 1 8 8v129a8 8 0 0 1-8 8H18a8 8 0 0 1-8-8V13a8 8 0 0 1 8-8z" fill="#FFF"/><path d="M21.06 12A3.038 3.038 0 0 0 18 15.032v124.936c0 1.68 1.364 3.032 3.06 3.032h10.325V34.783H24.86l10.198-17.504 10.198 17.504h-6.527V50.93a13.492 13.492 0 0 1 6.1-1.45h12.386c7.424 0 13.442 5.964 13.442 13.32 0 4.76-2.562 9.156-6.72 11.535l3.261 5.604H46.803L57 62.437l3.265 5.6a6.038 6.038 0 0 0 3.051-5.235c0-3.339-2.732-6.046-6.101-6.046H44.83c-3.37 0-6.101 2.707-6.101 6.046v44.821L55.1 98.26l-3.262-5.601h20.395L62.036 110.16l-3.265-5.6-16.992 9.72a6.038 6.038 0 0 0-3.05 5.236V143H225.94a3.039 3.039 0 0 0 3.059-3.032V15.032A3.038 3.038 0 0 0 225.94 12H21.06zm41.892 5.709H86.22a2.317 2.317 0 0 1 2.327 2.318v9.272a2.318 2.318 0 0 1-2.327 2.318H62.952a2.317 2.317 0 0 1-2.327-2.318v-9.272a2.318 2.318 0 0 1 2.327-2.318zm47.068 2.201c1.277.035 2.228.509 2.853 1.426.625.916.938 2.065.936 3.442.002 1.376-.31 2.522-.936 3.44-.625.916-1.576 1.392-2.853 1.428-1.278-.036-2.231-.512-2.856-1.429-.626-.917-.936-2.063-.934-3.44-.002-1.376.308-2.525.934-3.441.625-.917 1.578-1.39 2.856-1.426zm8.466 0c.878.012 1.589.249 2.132.71.543.461.957 1.074 1.242 1.84l-1.562.58c-.174-.575-.411-.99-.713-1.247-.3-.256-.668-.381-1.099-.376-.652.01-1.18.309-1.585.898-.405.59-.613 1.41-.625 2.463.012 1.053.22 1.874.625 2.463s.933.888 1.585.898c.431.005.798-.12 1.1-.377.3-.256.538-.671.712-1.246l1.562.58c-.285.765-.699 1.379-1.242 1.84-.543.46-1.254.698-2.132.71-1.278-.035-2.228-.51-2.853-1.426-.625-.916-.939-2.063-.937-3.442-.002-1.38.312-2.527.937-3.442.625-.916 1.575-1.391 2.853-1.426zm10.921 0l.35 1.623c-.43.006-.75.114-.96.327a6.067 6.067 0 0 0-.67.832c-.233.322-.504.664-.811 1.028-.307.364-.58.563-.817.594.56.07.983.289 1.268.655.285.366.56.806.826 1.315.333.607.665 1.197.994 1.77.33.575.696 1.028 1.1 1.36h-2.027a36.28 36.28 0 0 0-.8-1.391 82.856 82.856 0 0 1-1.012-1.739c-.198-.367-.412-.653-.646-.854a1.304 1.304 0 0 0-.867-.305 8.05 8.05 0 0 0-.698.05v4.239h-1.628v-9.272h1.628v3.46c.014.01.029.018.044.023a.33.33 0 0 0 .073.008c.561-.01 1.042-.3 1.44-.869.397-.57.836-1.158 1.311-1.765.475-.606 1.108-.968 1.902-1.089zm-32.498.232h1.628l2.094 4.52 2.094-4.52h1.63l1.046 9.272h-1.745l-.581-6.838-2.444 5.447-2.443-5.447-.581 6.838H95.86l1.047-9.272h.002zm34.685 0h3.607c.877.03 1.547.3 2.015.814.468.514.705 1.093.71 1.736-.005.36-.126.712-.36 1.057a2.283 2.283 0 0 1-.97.797c.476.174.863.435 1.164.782.3.348.456.783.465 1.304a2.689 2.689 0 0 1-.858 1.956c-.553.529-1.27.804-2.152.826h-3.62v-9.272h-.001zm10.689 0h1.861l3.025 9.272h-1.745l-.582-1.855h-3.257l-.582 1.855h-1.745l3.025-9.272zm-32.263 1.275c-.652.01-1.18.309-1.585.898-.405.59-.614 1.41-.626 2.463.012 1.053.22 1.874.626 2.463.404.589.933.888 1.585.898.652-.01 1.18-.31 1.585-.898.405-.59.613-1.41.625-2.463-.012-1.053-.22-1.874-.625-2.463-.405-.59-.933-.889-1.585-.898zm23.203.116v2.381h1.861c.354-.006.635-.116.844-.333.208-.217.315-.504.32-.858-.012-.404-.134-.705-.364-.9a1.19 1.19 0 0 0-.8-.29h-1.861zm9.99.695l-1.163 3.94h2.327l-1.164-3.94zm-9.99 3.013v2.782h1.978c.465-.017.814-.168 1.047-.45a1.446 1.446 0 0 0 0-1.886c-.233-.28-.582-.429-1.047-.446h-1.978zm-70.27 7.302H86.22a2.317 2.317 0 0 1 2.327 2.318v9.272a2.318 2.318 0 0 1-2.327 2.318H62.952a2.317 2.317 0 0 1-2.327-2.318v-9.272a2.318 2.318 0 0 1 2.327-2.318h.001zm47.785 2.147c1.278.035 2.228.512 2.853 1.429.626.916.939 2.063.937 3.439.002 1.376-.311 2.522-.937 3.44-.625.916-1.575 1.393-2.853 1.428-1.277-.035-2.23-.512-2.856-1.429-.625-.917-.936-2.063-.934-3.44-.002-1.375.309-2.522.934-3.438.625-.917 1.579-1.394 2.856-1.429zm9.583 0c.844.053 1.57.266 2.182.638.61.371.93.584.96.637l-1.048 1.159c0-.039-.174-.193-.523-.464-.35-.27-.873-.425-1.57-.463-.684.029-1.15.203-1.397.521-.247.32-.363.609-.349.87.022.391.27.673.742.843.473.17 1.04.313 1.701.432.824.176 1.474.49 1.949.941.475.452.717 1.026.727 1.724-.005.628-.315 1.256-.93 1.884-.616.627-1.508.965-2.676 1.014-.705-.02-1.331-.16-1.88-.42-.547-.26-.978-.522-1.293-.783-.316-.26-.477-.4-.483-.42l1.146-.944c.002.044.219.22.645.53.427.309 1.047.486 1.865.53.739-.031 1.238-.2 1.497-.507.26-.307.381-.563.364-.768.018-.12.009-.274-.023-.458-.033-.184-.193-.37-.486-.559-.293-.19-.821-.352-1.585-.49-1.292-.258-2.111-.64-2.458-1.144-.346-.505-.497-.973-.45-1.405.017-.831.332-1.517.945-2.058.613-.54 1.422-.82 2.428-.84zm8.656 0c.877.012 1.585.249 2.129.71.543.461.96 1.075 1.244 1.84l-1.564.58c-.175-.575-.412-.99-.713-1.246s-.665-.382-1.096-.377c-.652.01-1.18.309-1.585.898-.405.59-.614 1.41-.626 2.463.012 1.053.22 1.874.626 2.463.404.589.933.888 1.585.898.43.005.795-.12 1.096-.377.301-.256.538-.67.713-1.246l1.564.58c-.284.765-.701 1.379-1.244 1.84-.544.461-1.252.698-2.13.71-1.277-.035-2.23-.51-2.855-1.426-.626-.916-.936-2.063-.934-3.442-.002-1.38.308-2.527.934-3.442.625-.916 1.578-1.391 2.856-1.426zm8.664 0c1.277.035 2.228.512 2.853 1.429.625.916.939 2.063.936 3.439.002 1.376-.31 2.522-.936 3.44-.625.916-1.576 1.393-2.853 1.428-1.278-.035-2.231-.512-2.856-1.429-.626-.917-.936-2.063-.934-3.44-.002-1.375.308-2.522.934-3.438.625-.917 1.578-1.394 2.856-1.429zm-41.363.232h1.861l2.56 4.288 2.559-4.288h1.861v9.272h-1.512l-.117-6.722-2.792 4.868-2.792-4.868v6.722h-1.628v-9.272zm46.99 0h1.746l1.297 6.473h.099l1.396-6.473h1.628l1.513 6.571 1.28-6.571h1.744l-1.977 9.272h-1.862l-1.512-6.11-1.512 6.11h-1.862l-1.977-9.272h-.001zm-32.53 1.275c-.652.01-1.18.309-1.585.898-.405.59-.613 1.41-.625 2.463.012 1.053.22 1.874.625 2.463s.933.888 1.585.898c.652-.01 1.18-.31 1.585-.898.405-.59.613-1.41.626-2.463-.013-1.053-.221-1.874-.626-2.463-.405-.59-.933-.888-1.585-.898zm26.903 0c-.652.01-1.18.309-1.585.898-.405.59-.613 1.41-.626 2.463.013 1.053.221 1.874.626 2.463.404.589.933.888 1.585.898.652-.01 1.18-.31 1.585-.898.405-.59.613-1.41.625-2.463-.012-1.053-.22-1.874-.625-2.463-.405-.59-.933-.888-1.585-.898zM76.912 52.015h27.921a2.317 2.317 0 0 1 2.327 2.318v9.272a2.318 2.318 0 0 1-2.327 2.318h-27.92a2.317 2.317 0 0 1-2.327-2.318v-9.272a2.318 2.318 0 0 1 2.326-2.318zm38.275 2.318h3.141c1.149.053 1.963.41 2.443 1.072.48.662.713 1.31.698 1.942-.014.632-.305 1.28-.872 1.941-.568.662-1.324 1.019-2.269 1.072h-1.512v3.245h-1.629v-9.272zm7.43 0h1.746l2.21 4.868 1.862-4.868h1.745l-3.025 7.766c-.19.445-.5.809-.928 1.095-.428.286-.855.433-1.282.443-.23 0-.41-.005-.538-.02a1.008 1.008 0 0 1-.277-.061l-.349-1.457c.01.004.107.024.291.058.184.033.398.053.64.057.3-.016.558-.127.774-.333.216-.205.33-.403.34-.594-.017-.12-.183-.532-.5-1.234-.318-.702-.685-1.492-1.103-2.373-.417-.881-.787-1.651-1.105-2.31l-.5-1.037h-.001zm9.991 0h5.468v7.881h1.047v3.014h-1.396v-1.623h-5.817v1.623h-1.396v-3.014h1.047c.16-.403.32-.97.48-1.7.16-.73.294-1.52.401-2.37.108-.85.162-1.658.166-2.42V54.333zm7.527 0h1.629v3.71h3.49v-3.71h1.629v9.272h-1.629v-4.172h-3.49v4.172h-1.629v-9.272zm11.84 0h3.374v9.272h-1.629v-3.709h-1.047c-.503.011-.867.15-1.09.418a4.371 4.371 0 0 0-.605.994l-.594 1.156a29.1 29.1 0 0 1-.62 1.141h-1.977c.117-.073.292-.296.52-.672.23-.375.458-.787.69-1.234.232-.448.41-.818.535-1.107.138-.3.345-.579.62-.838.274-.258.532-.42.776-.486-.591-.121-1.066-.39-1.425-.803-.359-.413-.543-.94-.552-1.582-.02-.512.193-1.053.64-1.623.445-.57 1.24-.878 2.384-.927zm-35.16 1.391v3.245h1.048a2.15 2.15 0 0 0 1.28-.376c.368-.256.562-.672.581-1.246-.02-.575-.213-.99-.582-1.246a2.148 2.148 0 0 0-1.28-.377h-1.047zm17.422 0a21.836 21.836 0 0 1-.311 3.506c-.202 1.198-.464 2.192-.786 2.984h3.307v-6.49h-2.21zm18.204 0c-.485-.004-.912.102-1.28.322-.368.22-.562.576-.582 1.069.015.492.19.85.524 1.069.334.22.741.326 1.221.322h1.396v-2.782h-1.28.001zm5.892 12.285c.878.013 1.588.25 2.132.71.543.462.957 1.075 1.242 1.84l-1.562.58c-.174-.575-.411-.99-.713-1.246-.3-.256-.668-.382-1.099-.377-.652.01-1.18.31-1.585.898-.405.59-.613 1.41-.625 2.463.012 1.053.22 1.874.625 2.463.405.59.933.889 1.585.898.431.005.798-.12 1.1-.376.3-.256.538-.672.712-1.246l1.562.58c-.285.765-.699 1.378-1.242 1.84-.544.46-1.254.697-2.132.709-1.278-.035-2.228-.51-2.853-1.426-.625-.915-.939-2.063-.937-3.442-.002-1.379.312-2.526.937-3.442.625-.916 1.575-1.39 2.853-1.426zm10.921 0l.35 1.623c-.43.007-.75.117-.96.33a6.022 6.022 0 0 0-.67.83c-.233.321-.5.664-.808 1.028-.308.364-.583.562-.82.594.56.07.983.288 1.268.654.285.367.56.806.826 1.316.333.606.665 1.196.994 1.77.33.574.696 1.028 1.1 1.36h-2.027a36.29 36.29 0 0 0-.8-1.392 85.526 85.526 0 0 1-1.012-1.738c-.198-.368-.412-.654-.646-.855a1.308 1.308 0 0 0-.867-.304 5.948 5.948 0 0 0-.436.026l-.262.023v4.24h-1.628V68.24h1.628v3.46c.014.01.029.018.044.023.015.005.04.01.073.012.561-.01 1.041-.303 1.44-.873.397-.57.836-1.155 1.311-1.761.475-.607 1.108-.972 1.902-1.093v.001zm-54.067.232h3.606c.877.03 1.551.3 2.019.814.468.514.702 1.094.707 1.736-.005.36-.123.712-.358 1.058a2.28 2.28 0 0 1-.972.796 2.76 2.76 0 0 1 1.164.783c.3.347.455.782.465 1.304a2.686 2.686 0 0 1-.855 1.955c-.553.53-1.27.805-2.152.826h-3.624v-9.272zm8.013 0h1.628v6.375l3.374-6.375h1.745v9.272h-1.629V71.14l-3.373 6.374H123.2v-9.273zm8.004 0h6.747v1.391h-2.56v7.881h-1.628v-7.88h-2.56V68.24l.001.001zm7.989 0h5.817v1.507h-4.188v2.202h3.373v1.39h-3.373v2.782h4.304v1.391h-5.933v-9.272zm7.658 0h5.933v1.391h-4.305v2.318h1.978c1.144.044 1.939.362 2.385.956.446.594.66 1.203.64 1.826.01.623-.243 1.231-.756 1.825-.514.594-1.348.913-2.502.956h-3.373v-9.272zm-30.035 1.391v2.385h1.861c.354-.007.635-.12.843-.336.209-.218.316-.504.32-.858-.012-.405-.133-.703-.363-.898a1.193 1.193 0 0 0-.8-.293h-1.861zm0 3.709v2.781h1.977c.466-.016.815-.164 1.047-.446a1.446 1.446 0 0 0 0-1.89c-.232-.28-.581-.429-1.047-.445h-1.977zm31.663 0v2.781h1.63c.53 0 .952-.115 1.264-.347.313-.232.473-.58.48-1.043-.007-.464-.167-.812-.48-1.043-.312-.232-.734-.348-1.265-.348h-1.629zM76.912 89.567h27.921a2.317 2.317 0 0 1 2.327 2.318v9.272a2.318 2.318 0 0 1-2.327 2.318h-27.92a2.317 2.317 0 0 1-2.327-2.318v-9.272a2.318 2.318 0 0 1 2.326-2.318zm41.649 2.086c.877.012 1.588.249 2.132.71.543.461.957 1.074 1.241 1.84l-1.561.58c-.175-.575-.412-.99-.713-1.247-.301-.256-.668-.381-1.1-.376-.651.01-1.18.309-1.584.898-.405.59-.614 1.41-.626 2.463.012 1.053.22 1.874.626 2.463.404.589.933.888 1.585.898.43.005.798-.12 1.1-.377.3-.256.537-.671.712-1.246l1.561.58c-.284.765-.698 1.379-1.241 1.84-.544.46-1.255.698-2.132.71-1.278-.035-2.228-.51-2.853-1.426-.626-.916-.939-2.063-.937-3.442-.002-1.38.311-2.527.937-3.442.625-.916 1.575-1.391 2.853-1.426zm18.331 0c1.278.035 2.228.512 2.853 1.428.626.917.939 2.064.937 3.44.002 1.376-.311 2.522-.937 3.44-.625.916-1.575 1.392-2.853 1.428-1.277-.036-2.23-.512-2.856-1.429-.625-.917-.935-2.063-.933-3.44-.002-1.375.308-2.522.933-3.439.626-.916 1.579-1.393 2.856-1.428zm33.415 0c.878.012 1.588.249 2.132.71.543.461.957 1.074 1.242 1.84l-1.562.58c-.174-.575-.412-.99-.713-1.247-.3-.256-.668-.381-1.1-.376-.651.01-1.18.309-1.584.898-.405.59-.613 1.41-.625 2.463.012 1.053.22 1.874.625 2.463s.933.888 1.585.898c.431.005.798-.12 1.1-.377.3-.256.538-.671.712-1.246l1.562.58c-.285.765-.699 1.379-1.242 1.84-.544.46-1.254.698-2.132.71-1.278-.035-2.228-.51-2.853-1.426-.626-.916-.939-2.063-.937-3.442-.002-1.38.311-2.527.937-3.442.625-.916 1.575-1.391 2.853-1.426zm10.92 0l.35 1.623c-.43.006-.748.117-.96.33-.247.256-.47.533-.669.829a17.71 17.71 0 0 1-.811 1.028c-.308.364-.58.563-.817.594.56.07.983.289 1.268.655.285.367.56.806.826 1.316.333.606.665 1.196.994 1.77.33.574.696 1.027 1.1 1.359h-2.028c-.17-.319-.436-.782-.8-1.391a85.59 85.59 0 0 1-1.011-1.738c-.198-.368-.412-.654-.646-.855a1.298 1.298 0 0 0-.867-.304 5.954 5.954 0 0 0-.436.026c-.16.014-.247.02-.262.023v4.239h-1.629v-9.272h1.63v3.46a.15.15 0 0 0 .043.023c.015.004.039.01.072.011.562-.01 1.042-.302 1.44-.872a40.39 40.39 0 0 1 1.309-1.762c.475-.606 1.11-.971 1.905-1.092h-.001zm-57.446.232h1.629l2.094 4.52 2.094-4.52h1.629l1.047 9.272h-1.745l-.582-6.838-2.443 5.447-2.443-5.447-.582 6.838h-1.745l1.047-9.272zm19.484 0h5.816v9.272h-1.628v-7.881h-2.56c0 .973-.012 1.946-.035 2.918a27.137 27.137 0 0 1-.081 1.718c-.143 1.064-.465 1.846-.963 2.344-.498.498-.975.816-1.436.953-.461.137-.71.197-.742.18l-.265-1.556c.018.002.156-.048.413-.154.258-.106.527-.283.809-.53.281-.248.465-.583.555-1.006.038-.257.065-.747.082-1.469.016-.72.028-1.517.032-2.393.003-.876.003-1.675.003-2.396zm7.544 0h5.817v1.507h-4.188v2.202h3.373v1.39h-3.373v2.782h4.304v1.39h-5.933v-9.271zm7.658 0h1.629v3.709h3.49v-3.71h1.628v9.273h-1.628v-4.173h-3.49v4.173h-1.63v-9.272h.001zm-21.575 1.275c-.652.01-1.18.309-1.585.898-.404.59-.613 1.41-.625 2.463.012 1.053.22 1.874.625 2.463s.933.888 1.585.898c.652-.01 1.18-.31 1.585-.898.405-.59.614-1.41.626-2.463-.012-1.053-.22-1.874-.626-2.463-.404-.59-.933-.889-1.585-.898zm14.728 12.4c.878.012 1.589.249 2.132.71.544.461.958 1.074 1.242 1.84l-1.565.58c-.174-.575-.41-.99-.712-1.247-.301-.256-.665-.381-1.097-.376-.652.01-1.18.309-1.585.898-.404.59-.613 1.41-.625 2.463.012 1.053.22 1.874.625 2.463s.933.888 1.585.898c.432.005.796-.12 1.097-.377.301-.256.538-.671.712-1.246l1.565.58c-.284.765-.698 1.379-1.242 1.84-.543.46-1.254.698-2.132.71-1.277-.035-2.23-.51-2.856-1.426-.625-.916-.935-2.063-.933-3.442-.002-1.38.308-2.527.933-3.442.626-.916 1.579-1.391 2.856-1.426zm10.921 0l.35 1.623c-.43.006-.752.117-.963.33a6.024 6.024 0 0 0-.666.829c-.234.322-.504.664-.812 1.028-.307.364-.58.563-.817.594.56.07.983.289 1.268.655.285.367.56.806.826 1.316.334.606.665 1.196.995 1.77.33.574.696 1.027 1.1 1.359h-2.028c-.17-.319-.437-.783-.8-1.391-.363-.608-.7-1.188-1.012-1.738-.198-.368-.415-.654-.648-.855a1.292 1.292 0 0 0-.864-.304 5.958 5.958 0 0 0-.437.026c-.16.014-.247.02-.261.023v4.239h-1.629v-9.272h1.629v3.46c.014.01.028.018.043.023.015.004.04.01.073.011.562-.01 1.042-.302 1.44-.872.42-.6.856-1.187 1.308-1.762.476-.606 1.111-.971 1.905-1.092zm-47.354.232h5.933v1.39h-4.304v2.319h1.977c1.144.043 1.94.362 2.385.956.446.594.66 1.202.64 1.825.01.623-.242 1.232-.756 1.826-.514.594-1.348.912-2.501.956h-3.374v-9.272zm8.111 0h3.142c1.148.053 1.963.41 2.443 1.072.48.661.712 1.309.698 1.941-.015.633-.306 1.28-.873 1.942-.567.661-1.323 1.018-2.268 1.072h-1.513v3.245h-1.629v-9.272zm11.387 0h3.374v9.272h-1.63v-3.709h-1.046c-.504.01-.868.15-1.09.417-.245.303-.45.637-.606.994-.21.41-.41.794-.596 1.156-.185.362-.39.743-.617 1.142h-1.977c.117-.073.289-.297.517-.672.23-.376.461-.787.693-1.235.231-.447.41-.817.535-1.107a2.7 2.7 0 0 1 .616-.837c.275-.259.536-.421.78-.487-.592-.12-1.067-.39-1.425-.802-.359-.413-.543-.94-.553-1.582-.02-.512.194-1.053.64-1.623.446-.57 1.24-.879 2.385-.927zm5.092 0h1.63v3.709h3.49v-3.71h1.628v9.273h-1.629v-4.173h-3.49v4.173h-1.629v-9.272zm-14.85 1.39v3.246h1.047a2.14 2.14 0 0 0 1.28-.377c.368-.256.562-.671.582-1.246-.02-.574-.214-.99-.582-1.246a2.148 2.148 0 0 0-1.28-.376h-1.047v-.001zm10.223 0c-.485-.004-.911.103-1.28.322-.368.22-.562.577-.581 1.07.014.492.189.85.523 1.069.335.219.742.325 1.222.321h1.396v-2.781h-1.28v-.001zm-18.334 3.71v2.781h1.628c.531 0 .953-.116 1.266-.348.312-.231.472-.58.48-1.043-.008-.463-.168-.811-.48-1.043-.313-.232-.735-.348-1.266-.348h-1.628v.001zm-2.987 17.066c.587 0 1.094.153 1.518.457.423.305.643.76.663 1.368-.015.403-.12.719-.317.948-.196.228-.391.387-.587.48-.197.094-.302.14-.317.137.017-.001.139.058.363.18.224.12.448.31.672.567.224.257.343.587.36.991.011.464-.163.907-.523 1.327-.36.42-.97.644-1.832.673-.862-.03-1.473-.253-1.833-.673-.36-.42-.534-.863-.523-1.327.017-.404.14-.734.363-.99a2.53 2.53 0 0 1 .672-.569c.224-.12.344-.18.361-.18-.015.004-.121-.042-.317-.135-.196-.094-.391-.253-.588-.481-.196-.229-.301-.545-.317-.948.02-.608.243-1.063.666-1.368.424-.304.929-.457 1.516-.457zm6.282 0c.709.025 1.276.37 1.701 1.04.426.67.644 1.511.655 2.524-.011 1.06-.23 1.916-.655 2.564-.425.648-.992.981-1.701 1-.709-.019-1.276-.352-1.702-1-.425-.648-.643-1.503-.654-2.564.011-1.062.23-1.916.654-2.565.426-.648.993-.981 1.702-1v.001zm6.282 0c.709.025 1.276.37 1.701 1.04.426.67.644 1.511.655 2.524-.011 1.06-.23 1.916-.655 2.564-.425.648-.992.981-1.701 1-.709-.019-1.276-.352-1.701-1-.426-.648-.644-1.503-.655-2.564.011-1.062.23-1.916.655-2.565.425-.648.992-.981 1.701-1v.001zm-12.663.994a1.068 1.068 0 0 0-.576.188c-.182.128-.278.342-.285.643.04.272.2.512.48.719.28.206.44.313.48.324.04-.01.2-.118.48-.324.28-.207.44-.447.48-.719-.008-.3-.1-.515-.283-.643-.2-.134-.437-.2-.677-.188-.034 0-.067-.002-.1 0h.001zm6.317.086c-.312.02-.564.215-.756.589-.205.398-.31 1.03-.314 1.895.005.864.11 1.496.314 1.895.204.398.478.593.82.588.342.005.615-.19.82-.588.205-.399.309-1.031.314-1.895-.005-.864-.11-1.497-.314-1.895-.205-.399-.478-.594-.82-.589h-.064zm6.282 0c-.312.02-.564.215-.756.589-.205.398-.31 1.03-.314 1.895.005.864.11 1.496.314 1.895.204.398.478.593.82.588.342.005.613-.19.817-.588.205-.399.312-1.031.317-1.895-.005-.864-.112-1.497-.317-1.895-.204-.399-.475-.594-.817-.589h-.064zm5.064 1.093h1.047l1.221 2.434 1.222-2.434h1.047l.436 4.868h-1.047l-.262-3.39-1.396 2.781-1.396-2.781-.262 3.39h-1.047l.437-4.868zm-17.564 1.738c-.1.064-.199.131-.294.203a3.58 3.58 0 0 0-.547.493c-.182.198-.28.4-.294.608.015.303.14.524.373.664.232.14.485.207.762.205.276.002.532-.066.765-.205.232-.14.354-.361.369-.664a1.024 1.024 0 0 0-.294-.646 3 3 0 0 0-.547-.475c-.182-.12-.28-.18-.293-.183z" fill="#0D69E1"/><path d="M63.34 19c-.743 0-1.34.566-1.34 1.27v8.46c0 .704.597 1.27 1.34 1.27h22.32c.743 0 1.34-.566 1.34-1.27v-8.46c0-.704-.597-1.27-1.34-1.27H63.34zm6.54 2h1.365L73 24.413 74.755 21h1.366L77 28h-1.462l-.49-5.163L73 26.949l-2.048-4.112-.49 5.163H69l.88-7zm8.896 0H80v7h-1.426v-5.424l-1.092.588-.482-.538L78.776 21z" fill="#0D69E1"/><path d="M63.34 34c-.743 0-1.34.566-1.34 1.27v8.46c0 .704.597 1.27 1.34 1.27h22.32c.743 0 1.34-.566 1.34-1.27v-8.46c0-.704-.597-1.27-1.34-1.27H63.34zm11.25 2c.511.007.98.162 1.405.469.424.307.647.726.673 1.255-.017.531-.177.967-.484 1.307-.307.341-.662.54-1.066.596.176.03.41.118.703.261.294.143.56.35.8.62s.365.61.379 1.021c-.004.602-.25 1.155-.736 1.663-.487.507-1.19.776-2.116.808a7.019 7.019 0 0 1-1.283-.162c-.432-.095-.663-.15-.697-.164L72 42.343c.248.154.553.264.915.329a5.77 5.77 0 0 0 1.038.094c.45.003.836-.099 1.154-.302.319-.203.488-.523.508-.962.022-.189-.048-.415-.211-.679-.164-.264-.55-.41-1.16-.436a3.527 3.527 0 0 0-.354.013.956.956 0 0 0-.324.081v-1.045c.497-.107.909-.298 1.236-.572.327-.273.496-.557.508-.854a.803.803 0 0 0-.302-.606 1.052 1.052 0 0 0-.667-.25c-.377-.002-.691.05-.943.153-.251.103-.509.27-.774.498l-.514-1.126c.267-.153.645-.303 1.132-.447.437-.136.89-.214 1.348-.232zm5.91 0c.752.025 1.356.366 1.807 1.023.452.657.681 1.483.693 2.477-.012 1.042-.241 1.881-.693 2.518-.45.637-1.055.964-1.807.982-.752-.018-1.353-.345-1.805-.982-.451-.637-.683-1.476-.695-2.518.012-1.042.244-1.881.695-2.518.452-.637 1.053-.964 1.805-.982zM66 36h4.9v1.138h-3.528V38.8h2.842v1.049h-2.842v2.099H71V43h-5v-7zm14.417 1c-.414.02-.748.217-1.002.593-.27.401-.408 1.037-.415 1.907.007.87.145 1.506.415 1.907.271.401.631.598 1.083.593.453.005.816-.192 1.087-.593.27-.4.408-1.037.415-1.907-.007-.87-.145-1.506-.415-1.907-.271-.4-.634-.598-1.087-.592-.028 0-.054-.002-.081 0V37z" fill="#00A500"/><path d="M77.377 53c-.763 0-1.377.618-1.377 1.385v9.23c0 .767.614 1.385 1.377 1.385h27.246c.763 0 1.377-.618 1.377-1.385v-9.23c0-.767-.614-1.385-1.377-1.385H77.377zm5.298 2h1.648L87 63h-1.546l-.513-1.6h-2.882l-.516 1.6H80l2.675-8zm6.104 0H90v8h-1.426v-6.198l-1.092.671-.482-.615L88.779 55zm7.994 0h1.163v5.201H99l-.444 1.198h-.524V63h-1.355v-1.6H93v-1.2l3.773-5.2zm4.004 0H102v8h-1.428v-6.198l-1.092.671-.48-.615L100.777 55zM84 57l-1 3h2l-1-3zm12 0l-2 3h2v-3zM77.332 90c-.738 0-1.332.618-1.332 1.385v9.23c0 .767.594 1.385 1.332 1.385h26.336c.738 0 1.332-.618 1.332-1.385v-9.23c0-.767-.594-1.385-1.332-1.385H77.332zm5.343 2h1.648L87 100h-1.546l-.513-1.6h-2.882l-.516 1.6H80l2.675-8zm6.104 0H90v8h-1.426v-6.198l-1.092.671-.482-.615L88.779 92zm6.994 0h1.163v5.201H98l-.444 1.198h-.524V100h-1.355v-1.6H92v-1.2l3.773-5.2zm4.004 0H101v8h-1.428v-6.198l-1.092.671-.48-.615L99.777 92zM84 94l-1 3h2l-1-3zm11 0l-2 3h2v-3z" fill="#0D69E1"/><path d="M226.5 8h-207a6.5 6.5 0 0 0-6.5 6.5v126a6.5 6.5 0 0 0 6.5 6.5h207a6.5 6.5 0 0 0 6.5-6.5v-126a6.5 6.5 0 0 0-6.5-6.5zm-207 1h207a5.5 5.5 0 0 1 5.5 5.5v126a5.5 5.5 0 0 1-5.5 5.5h-207a5.5 5.5 0 0 1-5.5-5.5v-126A5.5 5.5 0 0 1 19.5 9z" fill="#000"/></g><g fill-rule="nonzero"><path d="M18 158h210a8 8 0 0 1 8 8v124a8 8 0 0 1-8 8H18a8 8 0 0 1-8-8V166a8 8 0 0 1 8-8z" fill="#FFF"/><path d="M19.906 165.069a2.813 2.813 0 0 0-2.824 2.814v120.234a2.814 2.814 0 0 0 2.824 2.814h12.44V185.055h-6.024l9.411-16.248 9.411 16.248h-6.023V201.5a12.81 12.81 0 0 1 6.058-1.51l12.36.154c7.088 0 12.834 5.727 12.834 12.791 0 4.57-2.446 8.793-6.417 11.077l3.013 5.2H48.147l9.411-16.248 3.01 5.2a6.031 6.031 0 0 0 3.027-5.229c0-3.334-2.71-6.038-6.056-6.038l-12.36-.155c-3.345 0-6.058 2.704-6.058 6.038v44.041l16.456-9.473-3.01-5.2h18.822l-9.412 16.248-3.013-5.199-16.814 9.676a6.038 6.038 0 0 0-3.03 5.23v22.828h186.974a2.818 2.818 0 0 0 2.824-2.815V167.883a2.814 2.814 0 0 0-2.824-2.814H19.906zm43.204 5.371H84.5a2.13 2.13 0 0 1 2.139 2.132v8.528a2.13 2.13 0 0 1-2.139 2.132H63.111a2.13 2.13 0 0 1-2.139-2.132v-8.527a2.13 2.13 0 0 1 2.14-2.132l-.002-.001zm67.268 1.492c1.175.033 2.048.47 2.623 1.314.575.843.86 1.897.858 3.163.002 1.266-.283 2.32-.858 3.163s-1.448 1.281-2.623 1.314c-1.174-.033-2.05-.47-2.625-1.314-.575-.843-.86-1.897-.859-3.163-.001-1.266.284-2.32.859-3.163s1.45-1.281 2.625-1.314zm16.518 0c1.174.033 2.05.47 2.625 1.314.575.843.86 1.897.858 3.163.002 1.266-.283 2.32-.858 3.163s-1.45 1.281-2.625 1.314c-1.175-.033-2.048-.47-2.623-1.314-.575-.843-.863-1.897-.861-3.163-.002-1.266.286-2.32.86-3.163.576-.843 1.45-1.281 2.624-1.314zm-51.344.213h5.454v1.28H97.05v2.131h1.818c1.052.04 1.782.333 2.192.88.41.546.606 1.106.589 1.678.008.573-.223 1.133-.696 1.68-.472.546-1.238.839-2.299.879h-3.101v-8.528h-.001zm8.138 0h5.347v1.386h-3.85v2.025h3.102v1.28h-3.102v2.558h3.957v1.279h-5.454v-8.528zm8.9 0h5.348v8.528h-1.497v-7.249h-2.353l-.006.87c-.003.545-.011 1.15-.026 1.814-.015.664-.04 1.192-.075 1.58-.132.98-.427 1.698-.885 2.156-.458.458-.9.75-1.324.877-.423.126-.649.18-.679.165l-.246-1.431c.017.002.143-.044.38-.141.237-.098.485-.26.743-.488.259-.228.43-.536.514-.925.035-.237.06-.688.075-1.35.015-.664.023-1.397.026-2.202.004-.805.006-1.54.006-2.204h-.001zm7.62 0h5.348v1.28h-3.85v7.248h-1.498v-8.528zm15.534 0h2.888c1.056.05 1.804.378 2.245.986.442.609.655 1.204.642 1.786-.013.582-.28 1.177-.802 1.785-.521.609-1.217.937-2.085.986h-1.39v2.985h-1.498v-8.528zm17.804 0h5.026v7.249h.963v2.77h-1.284v-1.491h-5.347v1.492h-1.283v-2.771h.962c.147-.372.292-.893.439-1.565.146-.671.27-1.398.369-2.18.099-.781.15-1.523.155-2.225v-1.279zm-23.17 1.173c-.6.009-1.085.284-1.457.826-.372.542-.564 1.297-.575 2.265.011.968.203 1.723.575 2.265.372.542.858.817 1.457.826.6-.009 1.085-.284 1.457-.826.372-.542.564-1.297.575-2.265-.011-.968-.203-1.723-.575-2.265-.372-.542-.858-.817-1.457-.826zm16.518 0c-.6.009-1.085.284-1.457.826-.372.542-.564 1.297-.575 2.265.01.968.203 1.723.575 2.265.372.542.857.817 1.457.826.6-.009 1.085-.284 1.457-.826.372-.542.564-1.297.575-2.265-.011-.968-.203-1.723-.575-2.265-.372-.542-.858-.817-1.457-.826zm-9.655.106v2.985h.963c.445.004.838-.111 1.176-.346.339-.236.517-.618.535-1.146-.018-.529-.196-.91-.535-1.146a1.974 1.974 0 0 0-1.176-.347h-.963zm17.804 0a20.1 20.1 0 0 1-.289 3.225c-.185 1.101-.426 2.016-.722 2.745h3.043v-5.97h-2.032zm-57.995 3.412v2.559h1.497c.488 0 .876-.107 1.163-.32.288-.213.435-.533.441-.96-.006-.426-.153-.746-.44-.959-.288-.213-.676-.32-1.164-.32H97.05zm-33.94 8.101H84.5a2.13 2.13 0 0 1 2.139 2.132v8.527a2.13 2.13 0 0 1-2.139 2.132H63.111a2.13 2.13 0 0 1-2.139-2.132v-8.526a2.13 2.13 0 0 1 2.14-2.132l-.002-.001zm60.218 1.493c.804.01 1.456.228 1.957.652.5.425.882.989 1.144 1.693l-1.435.532c-.16-.528-.379-.91-.656-1.145a1.48 1.48 0 0 0-1.01-.347c-.6.01-1.085.284-1.457.826-.372.542-.564 1.297-.575 2.265.011.969.203 1.724.575 2.265.372.542.857.818 1.457.826.263.003.486-.028.668-.093.183-.064.352-.175.508-.333.21-.198.352-.388.428-.573.076-.184.111-.455.107-.813h-1.497v-1.279h3.101v4.264h-1.283l-.321-.746c-.18.266-.409.491-.684.674-.276.183-.618.278-1.027.285-1.18-.032-2.078-.47-2.692-1.314-.615-.843-.924-1.897-.928-3.163.004-1.265.313-2.32.928-3.163.614-.843 1.512-1.281 2.692-1.313zm8.684 0c1.174.032 2.048.47 2.623 1.313.574.843.86 1.898.858 3.163.002 1.266-.284 2.32-.858 3.163-.575.844-1.449 1.282-2.623 1.314-1.175-.032-2.05-.47-2.626-1.314-.575-.843-.86-1.897-.858-3.163-.002-1.265.283-2.32.858-3.163s1.451-1.281 2.626-1.313zm18.21 0c1.174.032 2.048.47 2.623 1.313.574.843.86 1.898.858 3.163.002 1.266-.284 2.32-.858 3.163-.575.844-1.449 1.282-2.623 1.314-1.175-.032-2.051-.47-2.626-1.314-.575-.843-.86-1.897-.858-3.163-.002-1.265.283-2.32.858-3.163s1.451-1.281 2.626-1.313zm-54.451.213h3.315c.806.027 1.426.276 1.856.749.43.472.645 1.005.65 1.596a1.75 1.75 0 0 1-.33.972 2.096 2.096 0 0 1-.892.733c.436.16.793.4 1.069.72.276.32.419.72.428 1.199a2.47 2.47 0 0 1-.786 1.799c-.509.486-1.168.739-1.979.759h-3.331v-8.527zm8.478 0h5.347v1.385h-3.85v2.026h3.102v1.279h-3.102v2.558h3.957v1.279h-5.453v-8.527h-.001zm8.152 0h1.497v7.248h3.85v1.279h-5.347v-8.527zm25.511 0h2.888c1.047.044 1.76.328 2.139.852.379.525.557 1.022.535 1.493-.014.586-.174 1.066-.482 1.439a2.57 2.57 0 0 1-1.123.8c.455.14.83.496 1.126 1.068.296.571.567 1.15.815 1.734.249.584.528.964.84 1.141h-1.818a4.777 4.777 0 0 1-.479-.935 16.16 16.16 0 0 0-.53-1.178 4.02 4.02 0 0 0-.555-.914c-.205-.246-.54-.374-1.003-.384h-.855v3.411h-1.498v-8.527zm18.103 0h2.888c1.183.023 2.092.426 2.73 1.207.637.78.96 1.8.968 3.056-.007 1.257-.331 2.276-.968 3.057-.638.78-1.547 1.184-2.73 1.207h-2.888v-8.527zm-24.003 1.172c-.6.01-1.085.284-1.457.826-.372.542-.564 1.297-.575 2.265.01.969.203 1.724.575 2.265.372.542.857.818 1.457.826.599-.008 1.085-.284 1.457-.826.372-.541.564-1.296.575-2.265-.011-.968-.203-1.723-.575-2.265-.372-.542-.858-.817-1.457-.826zm18.21 0c-.6.01-1.085.284-1.457.826-.372.542-.564 1.297-.575 2.265.01.969.203 1.724.575 2.265.372.542.857.818 1.457.826.599-.008 1.085-.284 1.457-.826.372-.541.564-1.296.575-2.265-.011-.968-.203-1.723-.575-2.265-.372-.542-.858-.817-1.457-.826zm-52.954.107v2.193h1.711c.326-.006.584-.11.776-.31.191-.199.29-.462.294-.788-.011-.372-.123-.646-.334-.826a1.096 1.096 0 0 0-.736-.27h-1.71l-.001.001zm42.142 0v2.558h.962c.441.004.816-.094 1.123-.296.308-.202.468-.53.481-.983-.013-.453-.173-.782-.481-.983-.307-.202-.682-.3-1.123-.296h-.962zm18.103 0v5.969h1.283c.608.002 1.13-.242 1.564-.733.435-.49.662-1.241.682-2.252-.02-1.01-.247-1.76-.682-2.251-.434-.491-.956-.735-1.564-.733h-1.283zm-60.245 3.41v2.559h1.818c.428-.015.749-.152.963-.41a1.33 1.33 0 0 0 .32-.87c0-.319-.106-.609-.32-.868-.214-.259-.535-.395-.963-.41H97.27l-.002-.001zm-22.608 6.823h127.48a2.13 2.13 0 0 1 2.139 2.131v33.257a2.132 2.132 0 0 1-2.14 2.132H74.662a2.13 2.13 0 0 1-2.139-2.132v-33.257a2.131 2.131 0 0 1 2.14-2.131h-.003zm0 38.799h127.48a2.13 2.13 0 0 1 2.139 2.131v33.257a2.132 2.132 0 0 1-2.14 2.132H74.662a2.13 2.13 0 0 1-2.139-2.132v-33.257a2.131 2.131 0 0 1 2.14-2.131h-.003zm38.757 40.56c.635 0 1.18.164 1.639.493.458.33.697.823.719 1.482-.016.435-.13.778-.342 1.026-.212.247-.425.421-.637.522-.212.101-.326.15-.342.147.019-.002.148.063.39.194.243.131.485.335.728.613.242.277.374.636.393 1.074.012.501-.178.979-.567 1.434-.39.454-1.05.696-1.981.727-.932-.031-1.592-.273-1.981-.727-.39-.455-.579-.933-.567-1.434.018-.438.148-.797.39-1.074.242-.278.485-.482.727-.613.243-.131.372-.196.39-.194-.016.003-.13-.046-.341-.147-.213-.101-.425-.275-.637-.522-.212-.248-.326-.59-.342-1.026.022-.659.261-1.153.72-1.482.457-.329 1.006-.493 1.64-.493h.001zm5.935 0c.767.027 1.382.403 1.842 1.127.46.724.694 1.634.706 2.73-.012 1.147-.246 2.072-.706 2.773-.46.702-1.075 1.062-1.842 1.082-.767-.02-1.38-.38-1.84-1.082-.46-.701-.693-1.626-.705-2.774.012-1.148.246-2.072.706-2.774.46-.701 1.072-1.062 1.84-1.082h-.001zm5.938 0c.767.027 1.38.403 1.84 1.127.46.724.696 1.634.708 2.73-.012 1.147-.248 2.072-.708 2.773-.46.702-1.073 1.062-1.84 1.082-.766-.02-1.38-.38-1.84-1.082-.46-.701-.696-1.626-.708-2.774.012-1.148.249-2.072.709-2.774.46-.701 1.073-1.062 1.84-1.082h-.001zm-11.98 1.077a1.16 1.16 0 0 0-.626.202c-.196.14-.3.37-.307.696.043.294.218.554.521.778.303.223.476.34.519.352.043-.012.216-.129.518-.352.303-.224.476-.484.52-.778-.009-.326-.112-.557-.308-.696-.197-.139-.44-.206-.73-.202-.037 0-.072-.002-.107 0zm5.975.093c-.337.02-.61.233-.818.637-.221.43-.334 1.114-.34 2.05.006.934.119 1.617.34 2.048.222.431.516.645.885.64.37.005.667-.209.888-.64.221-.43.334-1.114.34-2.049-.006-.935-.119-1.618-.34-2.05-.221-.43-.518-.642-.888-.636h-.067zm5.938 0c-.337.02-.61.233-.818.637-.221.43-.336 1.114-.342 2.05.006.934.121 1.617.342 2.048.222.431.516.645.885.64.37.005.667-.209.888-.64.221-.43.334-1.114.34-2.049-.006-.935-.119-1.618-.34-2.05-.221-.43-.518-.642-.888-.636h-.067zm4.546 1.183h1.133l1.321 2.633 1.32-2.633h1.132l.473 5.266h-1.134l-.283-3.667-1.508 3.009-1.51-3.009-.284 3.667h-1.131l.47-5.266h.001zm-16.352 1.879a5.16 5.16 0 0 0-.318.221 3.888 3.888 0 0 0-.591.533c-.197.214-.303.433-.318.658.015.327.149.566.4.717.252.15.528.226.827.224.299.002.574-.073.826-.224.252-.15.385-.39.401-.717a1.113 1.113 0 0 0-.318-.7 3.226 3.226 0 0 0-.591-.512 3.993 3.993 0 0 0-.318-.2z" fill="#00A500"/><path d="M74.661 237.806c-.71 0-1.283.57-1.283 1.28v33.256c0 .708.572 1.279 1.283 1.279H202.14c.71 0 1.283-.57 1.283-1.28v-33.255c0-.708-.572-1.279-1.283-1.279H74.66l.001-.001zm40.96 2.345l.32 1.493c-.394.006-.69.107-.884.303-.195.196-.398.45-.613.763-.237.324-.485.64-.745.946-.283.334-.533.517-.752.546.515.065.904.265 1.166.602.262.337.515.74.76 1.21.306.558.61 1.1.914 1.628.303.528.64.945 1.01 1.25h-1.863c-.157-.293-.402-.72-.736-1.28a78.748 78.748 0 0 1-.93-1.598c-.182-.339-.381-.601-.596-.786a1.188 1.188 0 0 0-.794-.28 5.47 5.47 0 0 0-.401.024l-.24.021v3.899h-1.498v-8.527h1.497v3.181a.13.13 0 0 0 .04.022.27.27 0 0 0 .067.01c.516-.01.958-.278 1.323-.802.366-.524.767-1.062 1.204-1.62.437-.558 1.02-.894 1.75-1.005h.001zm3.633.214h5.347v8.527h-1.497v-7.248h-2.353c.001.033-.001.322-.005.868a97.58 97.58 0 0 1-.027 1.815c-.015.665-.04 1.192-.074 1.58-.132.98-.428 1.698-.885 2.156-.458.458-.9.75-1.324.877-.424.126-.649.18-.679.165l-.246-1.431c.017.003.143-.044.38-.141.236-.098.484-.26.743-.488.259-.227.43-.536.513-.925.035-.236.06-.687.075-1.35.015-.664.024-1.396.027-2.202.003-.805.006-1.54.005-2.203zm7.382 0h1.497v5.862l3.102-5.862h1.604v8.527h-1.497v-5.863l-3.102 5.863h-1.604v-8.527zm8.232 0h1.497v3.41h3.209v-3.41h1.497v8.527h-1.497v-3.837h-3.209v3.837h-1.497v-8.527zm-57.212 8.953h25.666a2.13 2.13 0 0 1 2.14 2.132v8.527a2.13 2.13 0 0 1-2.14 2.132H77.656a2.13 2.13 0 0 1-2.14-2.132v-8.527a2.13 2.13 0 0 1 2.14-2.132zm45.071 2.33c.564.007 1.08.183 1.548.527.468.344.718.813.746 1.407-.018.595-.196 1.083-.534 1.465-.34.382-.731.604-1.177.667.194.034.452.132.775.293.324.16.619.39.883.693.264.302.404.685.42 1.145-.005.676-.276 1.297-.813 1.866-.537.568-1.314.87-2.334.906a7.623 7.623 0 0 1-1.415-.184 15.203 15.203 0 0 1-.772-.181l-.182-1.493c.273.173.609.296 1.008.368a6.27 6.27 0 0 0 1.147.104c.496.003.918-.108 1.27-.336.351-.227.538-.587.561-1.079.024-.212-.055-.466-.235-.762s-.604-.458-1.275-.488a3.859 3.859 0 0 0-.393.014c-.13.01-.247.042-.356.093V255.5c.548-.12 1.003-.333 1.364-.64.36-.306.548-.625.561-.958a.906.906 0 0 0-.334-.68 1.146 1.146 0 0 0-.735-.28c-.415-.002-.763.055-1.04.17-.314.14-.603.328-.856.56l-.564-1.263c.294-.171.709-.339 1.246-.5a5.68 5.68 0 0 1 1.486-.262v.001zm23.576 0l.321 1.491c-.395.007-.69.108-.885.304a5.54 5.54 0 0 0-.612.762c-.215.297-.464.614-.746.949-.283.335-.533.515-.751.544.515.065.903.268 1.165.605.262.337.515.738.76 1.207.306.557.611 1.1.914 1.628.303.528.64.945 1.01 1.25h-1.863c-.156-.293-.401-.72-.735-1.28a78.762 78.762 0 0 1-.93-1.598c-.182-.339-.382-.599-.597-.784a1.19 1.19 0 0 0-.794-.282 5.46 5.46 0 0 0-.4.024l-.242.021v3.899h-1.497v-8.528h1.497v3.185a.13.13 0 0 0 .04.021.303.303 0 0 0 .067.008c.517-.01.958-.275 1.324-.8.366-.523.766-1.064 1.203-1.622.437-.558 1.021-.894 1.751-1.005v.001zm-13.675.212h1.604l2.032 4.477 1.71-4.477h1.605l-2.78 7.142a2.27 2.27 0 0 1-.853 1.01c-.394.263-.787.399-1.18.408a4.62 4.62 0 0 1-.494-.022.925.925 0 0 1-.254-.056l-.32-1.34c.008.004.097.022.266.053.17.031.366.05.589.054a1.09 1.09 0 0 0 .71-.307c.2-.189.304-.37.314-.546-.016-.11-.171-.487-.463-1.133a146.44 146.44 0 0 0-1.013-2.185c-.384-.81-.722-1.518-1.013-2.124l-.46-.954zm15.683 0h2.888c1.056.05 1.804.378 2.245.986.442.609.655 1.204.642 1.786-.013.582-.28 1.177-.802 1.785-.521.609-1.217.937-2.085.986h-1.39v2.985h-1.498v-8.528zm9.828 0h1.711l2.78 8.528h-1.603l-.535-1.706h-2.994l-.535 1.706h-1.604l2.78-8.528zm5.74 0h1.498v5.863l3.101-5.863h1.604v8.528h-1.497v-5.863l-3.101 5.863h-1.604v-8.528h-.001zm7.786 0h1.497v3.411h3.209v-3.41h1.497v8.527h-1.497v-3.838h-3.209v3.838h-1.497v-8.528zm10.243 0h1.71l2.781 8.528h-1.604l-.535-1.706h-2.994l-.535 1.706h-1.604l2.78-8.528h.001zm-71.634.016h1.497l1.925 4.157 1.925-4.157h1.497l.963 8.528h-1.605l-.534-6.29-2.246 5.01-2.246-5.01-.535 6.29h-1.604l.963-8.528zm18.653 0a.822.822 0 0 1 .305.062c.096.039.183.09.26.152.054.03.122.118.203.266.08.148.125.405.133.77-.047.538-.238.955-.572 1.253-.334.297-.527.448-.575.453l-.107-.262c.029-.006.141-.096.337-.271.196-.176.31-.4.337-.672v-.106a.566.566 0 0 1-.155.047.859.859 0 0 1-.773-.236.845.845 0 0 1-.248-.603.845.845 0 0 1 .248-.602c.161-.16.38-.25.607-.25v-.001zm2.019 0a.822.822 0 0 1 .305.062c.096.039.182.09.26.152.053.03.121.118.202.266.081.148.126.405.134.77-.048.538-.238.955-.572 1.253-.334.297-.527.448-.575.453l-.107-.262c.028-.006.14-.096.337-.271.196-.176.309-.4.337-.672v-.106a.566.566 0 0 1-.155.047.86.86 0 0 1-.773-.236.845.845 0 0 1-.249-.603c0-.226.09-.443.25-.602a.859.859 0 0 1 .606-.25v-.001zm55.713 0a.822.822 0 0 1 .304.062c.097.039.183.09.26.152.054.03.122.118.203.266.08.148.125.405.134.77-.048.538-.24.955-.575 1.253-.334.297-.525.448-.572.453l-.107-.262c.028-.006.14-.096.337-.271.196-.176.309-.4.337-.672v-.106a.567.567 0 0 1-.156.047.859.859 0 0 1-.772-.236.845.845 0 0 1-.249-.603c0-.226.089-.443.249-.602.161-.16.38-.25.607-.25v-.001zm2.018 0a.822.822 0 0 1 .305.062c.096.039.182.09.26.152.053.03.122.118.203.266.08.148.125.405.133.77-.047.538-.238.955-.572 1.253-.334.297-.527.448-.575.453l-.107-.262c.028-.006.141-.096.337-.271.196-.176.31-.4.337-.672v-.106a.567.567 0 0 1-.155.047.859.859 0 0 1-.773-.236.845.845 0 0 1-.248-.603.845.845 0 0 1 .248-.602c.161-.16.38-.25.607-.25v-.001zm-38.869 1.263v2.985h.963c.445.004.838-.111 1.176-.346.339-.236.517-.618.535-1.146-.018-.529-.196-.91-.535-1.146a1.974 1.974 0 0 0-1.176-.347h-.963zm9.187.64l-1.07 3.624h2.14l-1.07-3.624zm23.768 0l-1.07 3.624h2.14l-1.07-3.624zm.158 9.396c.807.011 1.46.229 1.96.653.5.424.88.988 1.141 1.692l-1.435.533c-.16-.529-.381-.91-.658-1.146a1.474 1.474 0 0 0-1.008-.346c-.6.009-1.085.284-1.457.826-.372.542-.564 1.297-.575 2.265.011.968.203 1.723.575 2.265.372.542.858.817 1.457.826a1.48 1.48 0 0 0 1.008-.346c.277-.236.497-.618.658-1.146l1.435.533c-.261.704-.642 1.268-1.141 1.692-.5.424-1.153.642-1.96.653-1.175-.032-2.05-.47-2.626-1.311-.574-.843-.86-1.898-.858-3.166-.002-1.268.284-2.324.858-3.166.575-.842 1.451-1.279 2.626-1.311zm-72.647.213h1.497l1.925 4.157 1.925-4.157h1.497l.963 8.527h-1.605l-.534-6.288-2.246 5.01-2.246-5.01-.535 6.288h-1.604l.963-8.527zm11.381 0h1.284v8.527h-1.498v-6.608l-1.144.717-.505-.656 1.863-1.98zm7.115 0c.104 0 .207.022.304.061.097.04.183.09.26.152.054.03.122.119.203.267.08.148.125.405.134.77-.048.537-.238.955-.572 1.252-.335.298-.528.449-.575.453l-.107-.26c.028-.007.14-.097.337-.273.196-.175.308-.399.336-.671v-.107a.567.567 0 0 1-.155.048.859.859 0 0 1-.772-.236.845.845 0 0 1-.249-.603c0-.226.089-.443.249-.602.161-.16.38-.25.607-.25v-.001zm2.018 0c.105 0 .208.021.305.061.096.04.182.09.26.152.053.03.122.119.203.267.08.148.125.405.133.77-.048.537-.238.955-.572 1.252-.334.298-.524.449-.572.453l-.107-.26c.028-.007.138-.097.334-.273.196-.175.31-.399.337-.671v-.107a.566.566 0 0 1-.155.048.853.853 0 1 1-.166-1.692zm1.596 0h5.455v1.28h-3.957v2.131h1.818c1.051.04 1.782.333 2.192.88.41.546.606 1.105.588 1.678.01.573-.223 1.133-.695 1.68-.472.545-1.239.838-2.3.878h-3.1v-8.527h-.001zm7.773 0h5.347v1.386h-3.85v2.025h3.101v1.28h-3.101v2.557h3.957v1.28h-5.454v-8.528zm8.528 0h5.348v8.527h-1.498v-7.248h-2.352c0 .033 0 .323-.003.869s-.014 1.15-.03 1.815c-.015.664-.04 1.192-.074 1.58-.132.979-.428 1.698-.885 2.156-.458.458-.897.75-1.321.876-.424.127-.652.181-.682.166l-.243-1.431c.016.002.143-.044.38-.142a2.74 2.74 0 0 0 .743-.487c.258-.228.428-.537.51-.925.035-.237.06-.688.075-1.351s.026-1.396.03-2.201c.003-.805.003-1.54.002-2.204zm9.71 0h1.712l2.78 8.527h-1.604l-.534-1.705h-2.995l-.534 1.705h-1.605l2.78-8.527zm6.06 0h2.887c1.056.049 1.805.378 2.246.986.44.609.655 1.204.641 1.786-.013.581-.28 1.176-.802 1.785-.521.608-1.216.937-2.085.986h-1.39v2.984h-1.498v-8.527h.001zm7.146 0h1.604l2.032 4.477 1.711-4.477h1.604l-2.78 7.142c-.175.41-.457.744-.85 1.007-.394.263-.79.399-1.182.408a4.56 4.56 0 0 1-.495-.019.926.926 0 0 1-.254-.056l-.32-1.34c.008.004.097.022.267.053.169.031.365.049.588.053.276-.015.515-.117.714-.306.198-.189.3-.37.31-.546-.015-.111-.168-.49-.46-1.136-.292-.645-.63-1.372-1.013-2.182-.487-1.028-.98-2.054-1.476-3.078zm15.9 0h1.497v3.304h1.818c1.047.036 1.76.311 2.139.827.379.515.557 1.057.535 1.625.013.582-.2 1.177-.642 1.785-.441.609-1.19.938-2.246.986h-3.101v-8.527zm6.703 0c.105 0 .21.022.307.061.096.04.182.09.26.152.054.03.122.119.203.267.08.148.125.405.133.77-.047.537-.24.955-.575 1.252-.334.298-.524.449-.572.453l-.107-.26c.028-.007.141-.097.337-.273.196-.175.306-.399.334-.671v-.107a.548.548 0 0 1-.152.048.968.968 0 0 1-.168.014.853.853 0 1 1 0-1.706zm2.018 0c.106 0 .21.021.308.061.096.04.182.09.259.152.054.03.122.119.203.267.081.148.126.405.134.77-.048.537-.24.955-.575 1.252-.334.298-.524.449-.572.453l-.107-.26c.028-.007.14-.097.337-.273.196-.175.306-.399.334-.671v-.107a.548.548 0 0 1-.152.048.98.98 0 0 1-.169.014.853.853 0 1 1 0-1.706zm-30.27 1.28v2.984h.962a1.97 1.97 0 0 0 1.176-.347c.34-.235.517-.617.535-1.145-.018-.529-.196-.91-.535-1.146a1.974 1.974 0 0 0-1.176-.347h-.962v.001zm-6.7.639l-1.07 3.624h2.139l-1.07-3.624h.001zm29.746 2.665v2.664h1.497c.484 0 .854-.106 1.11-.32.256-.213.385-.532.388-.959-.003-.43-.132-.768-.388-1.012-.256-.245-.626-.369-1.11-.373h-1.497zm-55.116.106v2.558h1.497c.488 0 .875-.106 1.163-.32.287-.213.434-.532.441-.959-.007-.426-.154-.746-.441-.959-.288-.213-.675-.32-1.163-.32h-1.497zm-59.221-69.071c-.71 0-1.283.57-1.283 1.28v33.256c0 .708.572 1.279 1.283 1.279H202.14c.71 0 1.283-.57 1.283-1.28v-33.255c0-.708-.572-1.279-1.283-1.279H74.66l.001-.001zm46.016 2.345c1.174.033 2.05.47 2.625 1.314.575.843.86 1.897.858 3.163.002 1.266-.283 2.32-.858 3.163s-1.45 1.282-2.625 1.314c-1.175-.032-2.048-.47-2.623-1.314-.575-.843-.863-1.897-.861-3.163-.002-1.266.286-2.32.86-3.163.576-.843 1.45-1.281 2.624-1.314zm8.256 0c.807.011 1.46.229 1.96.653.499.424.88.988 1.141 1.692l-1.438.533c-.16-.528-.378-.91-.655-1.146a1.475 1.475 0 0 0-1.008-.346c-.6.009-1.085.284-1.457.826-.372.542-.564 1.297-.575 2.265.01.968.203 1.723.575 2.265.372.542.857.817 1.457.826.396.005.73-.11 1.008-.346.277-.236.495-.618.655-1.146l1.438.533c-.261.704-.642 1.268-1.142 1.692-.499.424-1.152.642-1.96.653-1.174-.032-2.05-.469-2.625-1.311-.575-.842-.86-1.898-.858-3.166-.002-1.268.283-2.324.858-3.166.575-.842 1.451-1.279 2.626-1.31v-.001zm10.51 0l.32 1.493c-.394.006-.69.107-.884.303-.195.196-.398.45-.613.762-.214.297-.463.612-.746.946-.282.335-.533.518-.75.547.514.065.903.265 1.165.602.262.337.515.74.76 1.21.306.558.61 1.1.913 1.628.303.528.64.945 1.011 1.25h-1.863c-.157-.293-.402-.72-.736-1.28a78.753 78.753 0 0 1-.93-1.598c-.182-.339-.381-.601-.596-.786a1.188 1.188 0 0 0-.794-.28 5.47 5.47 0 0 0-.401.024l-.241.021v3.899h-1.497v-8.528h1.497v3.182c.013.01.026.017.04.022.022.006.044.01.067.01.516-.01.958-.278 1.323-.802a36.61 36.61 0 0 1 1.203-1.62c.437-.558 1.022-.894 1.752-1.005zm20.926 0c.807.011 1.46.229 1.96.653.5.424.88.988 1.141 1.692l-1.435.533c-.16-.528-.381-.91-.658-1.146a1.474 1.474 0 0 0-1.008-.346c-.6.009-1.085.284-1.457.826-.372.542-.564 1.297-.575 2.265.011.968.203 1.723.575 2.265.372.542.858.817 1.457.826a1.47 1.47 0 0 0 1.008-.346c.277-.236.498-.618.658-1.146l1.435.533c-.261.704-.642 1.268-1.141 1.692-.5.424-1.153.642-1.96.653-1.174-.032-2.05-.469-2.625-1.311-.575-.842-.86-1.898-.859-3.166-.002-1.268.284-2.324.859-3.166.574-.842 1.45-1.279 2.625-1.31v-.001zm23.6 0c.807.011 1.46.229 1.96.653.5.424.88.988 1.141 1.692l-1.435.533c-.16-.528-.381-.91-.658-1.146a1.474 1.474 0 0 0-1.008-.346c-.6.009-1.085.284-1.457.826-.372.542-.564 1.297-.575 2.265.011.968.203 1.723.575 2.265.372.542.858.817 1.457.826a1.47 1.47 0 0 0 1.008-.346c.277-.236.498-.618.658-1.146l1.435.533c-.261.704-.642 1.268-1.141 1.692-.5.424-1.153.642-1.96.653-1.174-.032-2.05-.469-2.625-1.311-.575-.842-.86-1.898-.859-3.166-.002-1.268.284-2.324.859-3.166.574-.842 1.45-1.279 2.625-1.31v-.001zm10.51 0l.32 1.493c-.394.006-.69.107-.884.303-.195.196-.398.45-.612.762-.215.297-.464.612-.746.946-.283.335-.533.518-.752.547.515.065.904.265 1.166.602.262.337.515.74.76 1.21.306.558.61 1.1.914 1.628.303.528.64.945 1.01 1.25h-1.863a34.43 34.43 0 0 0-.735-1.28 78.666 78.666 0 0 1-.93-1.598c-.182-.339-.382-.601-.597-.786a1.188 1.188 0 0 0-.794-.28 5.47 5.47 0 0 0-.401.024l-.24.021v3.899h-1.498v-8.528h1.497v3.182a.13.13 0 0 0 .04.022.27.27 0 0 0 .067.01c.516-.01.958-.278 1.324-.802.365-.524.766-1.062 1.203-1.62.437-.558 1.02-.894 1.751-1.005zm-84.74.213h3.315c.806.028 1.426.277 1.856.75.43.472.645 1.005.65 1.595a1.75 1.75 0 0 1-.33.973 2.096 2.096 0 0 1-.892.733c.436.16.793.4 1.069.72.276.32.419.719.428 1.199a2.47 2.47 0 0 1-.786 1.798c-.509.487-1.168.74-1.979.76h-3.33v-8.528h-.001zm32.182 0h2.888c1.056.05 1.804.378 2.245.986.442.609.656 1.204.642 1.786-.013.582-.28 1.177-.802 1.785-.521.609-1.216.937-2.085.986h-1.39v2.985h-1.498v-8.528zm7.837 0h5.347v1.386h-3.85v2.025h3.101v1.28h-3.101v2.558h3.957v1.279h-5.454v-8.528zm15.346 0h5.347v1.386h-3.85v2.025h3.102v1.28H166.6v2.558h3.957v1.279h-5.454v-8.528h.001zm7.508 0h1.497v3.411h3.208v-3.41h1.497v8.527h-1.497v-3.838h-3.208v3.838h-1.497v-8.528zm-51.935 1.173c-.6.009-1.085.284-1.457.826-.373.542-.564 1.297-.575 2.265.01.968.202 1.723.575 2.265.372.542.857.817 1.457.826.599-.009 1.085-.284 1.457-.826.372-.542.563-1.297.575-2.265-.012-.968-.203-1.723-.575-2.265-.372-.542-.858-.817-1.457-.826zm-9.44.107v2.193h1.71c.326-.006.584-.11.776-.31.191-.2.29-.463.294-.788-.011-.372-.123-.646-.335-.826a1.096 1.096 0 0 0-.735-.27h-1.71v.001zm32.181 0v2.984h.963c.446.005.838-.11 1.176-.346.339-.236.517-.618.535-1.146-.018-.529-.196-.91-.535-1.146a1.974 1.974 0 0 0-1.176-.346h-.963zm-32.182 3.41v2.559h1.818c.428-.016.749-.152.963-.41a1.33 1.33 0 0 0 .32-.87c0-.32-.106-.61-.32-.868-.214-.259-.535-.395-.963-.41h-1.818v-.001zm-33.58 4.264h25.666a2.13 2.13 0 0 1 2.14 2.132v8.527a2.13 2.13 0 0 1-2.14 2.132H77.656a2.13 2.13 0 0 1-2.14-2.132v-8.527a2.13 2.13 0 0 1 2.14-2.132zm50.635 2.017a.822.822 0 0 1 .305.062c.096.039.182.09.26.152.053.03.122.118.202.266.081.148.126.403.134.767-.048.538-.238.955-.572 1.253-.334.297-.527.448-.575.453l-.107-.259c.028-.006.141-.096.337-.271.196-.176.309-.4.337-.672v-.107a.567.567 0 0 1-.155.048.859.859 0 0 1-.773-.236.845.845 0 0 1-.248-.603.85.85 0 0 1 .855-.853zm2.019 0a.822.822 0 0 1 .304.062c.097.039.183.09.26.152.054.03.122.118.203.266.08.148.125.403.134.767-.048.538-.238.955-.572 1.253-.335.297-.525.448-.573.453l-.107-.259c.028-.006.139-.096.335-.271.196-.176.308-.4.336-.672v-.107a.567.567 0 0 1-.155.048.988.988 0 0 1-.165.014.852.852 0 1 1 0-1.706zm32.939 0a.822.822 0 0 1 .304.062c.096.039.183.09.26.152.054.03.122.118.203.266.08.148.125.403.134.767-.048.538-.241.955-.575 1.253-.334.297-.525.448-.572.453l-.107-.259c.028-.006.14-.096.337-.271.196-.176.308-.4.336-.672v-.107a.567.567 0 0 1-.155.048.859.859 0 0 1-.772-.236.845.845 0 0 1-.249-.603.851.851 0 0 1 .856-.853zm2.018 0a.822.822 0 0 1 .305.062c.096.039.182.09.26.152.053.03.122.118.202.266.081.148.126.403.134.767-.048.538-.24.955-.575 1.253-.334.297-.524.448-.572.453l-.107-.259c.028-.006.141-.096.337-.271.196-.176.309-.4.337-.672v-.107a.567.567 0 0 1-.155.048.859.859 0 0 1-.773-.236.845.845 0 0 1-.248-.603.851.851 0 0 1 .248-.605c.161-.16.38-.25.607-.248zm-54.97.541h1.498l1.925 4.157 1.925-4.157h1.497l.963 8.528H116.5l-.534-6.29-2.246 5.01-2.246-5.01-.535 6.29h-1.604l.963-8.528h-.001zm8.773 0h4.92l-.429 1.386h-3.1v2.025a1.25 1.25 0 0 1 .633-.426c.253-.076.505-.111.756-.107.622.005 1.197.236 1.725.693.528.458.809 1.115.842 1.972-.011.875-.31 1.603-.896 2.185-.586.582-1.392.884-2.42.906a5.421 5.421 0 0 1-1.376-.213c-.412-.124-.63-.195-.655-.213l-.214-1.386c.268.171.586.285.949.344.364.059.723.087 1.083.082.454 0 .882-.133 1.283-.4.401-.266.615-.665.642-1.198a1.724 1.724 0 0 0-.388-1.08c-.256-.326-.626-.5-1.11-.52-.32.02-.588.114-.801.28a10.92 10.92 0 0 1-.482.36l-.962-.533v-4.157zm12.515 0h1.604l2.032 4.477 1.711-4.477h1.604l-2.78 7.142a2.27 2.27 0 0 1-.853 1.007c-.394.263-.786.399-1.18.408-.21 0-.376-.005-.494-.019a.925.925 0 0 1-.254-.056l-.32-1.34c.008.004.097.022.267.053s.365.049.588.053c.266-.012.52-.12.711-.306.199-.189.304-.37.313-.546-.015-.111-.168-.49-.46-1.135-.292-.646-.632-1.373-1.016-2.183a365.77 365.77 0 0 0-1.013-2.124l-.46-.954zm7.938 0h2.887c1.056.05 1.805.378 2.246.986.441.609.655 1.204.642 1.786-.013.581-.28 1.177-.802 1.785-.522.608-1.217.937-2.086.986h-1.39v2.985h-1.497v-8.528zm9.86 0h1.711l2.78 8.528h-1.603l-.535-1.706h-2.994l-.535 1.706h-1.604l2.78-8.528zm6.954 0h5.347v8.528h-1.497v-7.249h-2.353c0 .894-.01 1.789-.032 2.683a25.71 25.71 0 0 1-.074 1.581c-.132.98-.425 1.698-.883 2.156-.458.458-.9.75-1.323.877-.424.126-.652.18-.682.165l-.243-1.431c.016.002.143-.044.38-.141.236-.098.484-.26.743-.488.258-.228.428-.537.51-.925.035-.237.06-.688.075-1.35.015-.664.026-1.397.03-2.202.003-.805.003-1.54.002-2.204zm-15.317 1.28v2.984h.963c.445.004.837-.111 1.176-.347.339-.235.517-.617.535-1.145-.018-.529-.196-.91-.535-1.146a1.974 1.974 0 0 0-1.176-.347h-.963v.001zm9.219.639l-1.07 3.624h2.14l-1.07-3.624zm-21.215 9.38c.104 0 .207.022.304.061.097.04.183.09.26.152.054.03.122.119.203.267.08.147.125.405.134.77-.048.537-.238.955-.572 1.252-.335.298-.528.449-.575.453l-.107-.261c.028-.006.14-.096.337-.272.196-.175.308-.399.336-.671v-.107a.567.567 0 0 1-.155.048.988.988 0 0 1-.165.013.859.859 0 0 1-.607-.25.845.845 0 0 1-.249-.602.845.845 0 0 1 .249-.603c.161-.16.38-.25.607-.25zm2.018 0c.105 0 .208.021.305.061.096.04.182.09.26.152.053.03.122.119.203.267.08.147.125.405.133.77-.047.537-.238.955-.572 1.252-.334.298-.527.449-.575.453l-.107-.261c.028-.006.141-.096.337-.272.196-.175.309-.399.337-.671v-.107a.567.567 0 0 1-.155.048.988.988 0 0 1-.166.013.859.859 0 0 1-.607-.25.845.845 0 0 1-.248-.602.845.845 0 0 1 .248-.603c.161-.16.38-.25.607-.25zm13.78 0c1.174.032 2.048.47 2.623 1.314.575.843.863 1.897.86 3.163.003 1.265-.285 2.32-.86 3.163s-1.449 1.281-2.623 1.314c-1.174-.033-2.05-.471-2.625-1.314-.575-.843-.86-1.898-.859-3.163-.002-1.266.284-2.32.859-3.163.574-.844 1.45-1.282 2.625-1.314zm13.328 0c.105 0 .208.021.305.061.096.04.182.09.26.152.053.03.121.119.202.267.081.147.126.405.134.77-.048.537-.238.955-.572 1.252-.334.298-.525.449-.572.453l-.107-.261c.028-.006.138-.096.334-.272.196-.175.309-.399.337-.671v-.107a.567.567 0 0 1-.155.048.988.988 0 0 1-.166.013.853.853 0 1 1 0-1.705zm2.019 0c.104 0 .207.022.304.061.096.04.185.09.262.152.054.03.12.119.2.267.082.147.126.405.135.77-.048.537-.238.955-.573 1.252-.334.298-.524.449-.572.453l-.107-.261c.028-.006.138-.096.334-.272a.998.998 0 0 0 .337-.671v-.107a.567.567 0 0 1-.155.048.988.988 0 0 1-.165.013.852.852 0 1 1 0-1.705zm-49.895.213h1.497l1.925 4.157 1.925-4.157h1.497l.963 8.527h-1.605l-.534-6.289-2.246 5.01-2.246-5.01-.535 6.29h-1.604l.963-8.528zm12.689 0h1.283v5.543h1.176l-.489 1.279h-.58v1.705h-1.497v-1.705h-4.064v-1.28l4.17-5.542h.001zm11.523 0h5.026v7.248h.963v2.772h-1.284v-1.493h-5.347v1.493h-1.283v-2.772h.962c.147-.37.292-.892.439-1.564.146-.672.27-1.398.369-2.18.099-.781.15-1.524.155-2.225v-1.279zm15.333 0h1.497V228h3.209v-3.41h1.497v8.526h-1.497v-3.836h-3.209v3.837h-1.497V224.589zm-4.997 1.173c-.6.008-1.085.284-1.457.826-.372.542-.564 1.297-.575 2.265.011.968.203 1.723.575 2.265.372.542.858.817 1.457.826.6-.009 1.085-.284 1.457-.826.372-.542.564-1.297.575-2.265-.011-.968-.203-1.723-.575-2.265-.372-.542-.858-.818-1.457-.826zm-8.839.106a20.086 20.086 0 0 1-.286 3.225c-.185 1.101-.426 2.016-.722 2.744h3.04v-5.969h-2.032zm-13.127.96l-2.46 3.304h2.46v-3.305.001zm-59.745-55.534c-.71 0-1.283.57-1.283 1.279v8.527c0 .709.572 1.28 1.283 1.28H84.5c.711 0 1.283-.571 1.283-1.28v-8.527c0-.709-.572-1.28-1.283-1.28H63.111v.001zm15.125 1.686c.544.012 1.034.2 1.473.565.438.365.67.834.695 1.41.003.45-.045.799-.147 1.045-.128.287-.301.55-.513.783-.301.373-.663.773-1.086 1.197-.422.423-.876.888-1.366 1.396h3.112c0 .145-.022.325-.07.54a4.488 4.488 0 0 1-.213.683h-4.53v-1.13c.98-.886 1.9-1.838 2.751-2.849a4.8 4.8 0 0 0 .57-.75c.146-.245.22-.55.225-.915a.95.95 0 0 0-.297-.666c-.195-.198-.46-.303-.794-.315a1.331 1.331 0 0 0-.791.315 7.33 7.33 0 0 0-.72.666l-.754-.847c.28-.33.617-.597 1.014-.805.397-.208.878-.316 1.44-.323h.001zm-10.184.094h1.32l1.698 3.67 1.698-3.67h1.324l.847 7.525h-1.414l-.473-5.55-1.982 4.42-1.98-4.42-.471 5.55h-1.417l.85-7.525z" fill="#0D69E1"/><path d="M63.111 185.79c-.71 0-1.283.57-1.283 1.28v8.526c0 .709.572 1.28 1.283 1.28H84.5c.711 0 1.283-.571 1.283-1.28v-8.526c0-.709-.572-1.279-1.283-1.279H63.111v-.001zm10.553 1.607c.816.001 1.473.3 1.97.898.498.598.754 1.485.768 2.662.01 1.166-.222 2.159-.696 2.982-.473.823-1.248 1.253-2.323 1.29a3.54 3.54 0 0 1-1.085-.208c-.327-.122-.5-.19-.519-.208l-.15-1.157c.016.019.187.092.51.222a3.49 3.49 0 0 0 1.148.223c.557-.03.963-.246 1.219-.644.256-.4.42-.798.487-1.197s.097-.614.088-.645c-.24.196-.516.368-.826.517a2.33 2.33 0 0 1-.968.235c-.326.021-.71-.115-1.155-.41-.444-.297-.69-.882-.733-1.754.018-.775.244-1.43.674-1.967.43-.537.96-.816 1.59-.84l.001.001zm-8.21.173h4.715v1.223h-3.395v1.788h2.735v1.127h-2.735v2.258h3.492v1.13h-4.813v-7.526h.001zm11.988 0h4.339l-.377 1.223h-2.735v1.788a1.1 1.1 0 0 1 .556-.378c.224-.067.446-.097.668-.093.549.004 1.056.209 1.522.612.466.404.713.984.743 1.74-.01.773-.272 1.414-.789 1.927-.517.514-1.23.78-2.136.8a4.774 4.774 0 0 1-1.214-.19c-.364-.11-.556-.17-.577-.186l-.19-1.223c.236.15.516.252.837.304.32.051.64.075.957.072.4 0 .777-.117 1.13-.352.355-.235.544-.588.568-1.058a1.527 1.527 0 0 0-.343-.954c-.226-.288-.552-.44-.978-.458-.283.017-.52.1-.709.247-.188.147-.33.253-.425.317l-.847-.469v-3.669zm-3.588 1.034c-.417.027-.727.199-.928.512-.201.313-.3.644-.3.994.016.376.128.659.332.847.204.188.408.282.612.282.474-.038.837-.193 1.088-.463.252-.27.38-.425.383-.464a4.28 4.28 0 0 0-.131-.618 2.168 2.168 0 0 0-.359-.738.86.86 0 0 0-.697-.352z" fill="#00A500"/><path d="M77.669 211.372c-.718 0-1.297.57-1.297 1.279v8.527c0 .709.579 1.28 1.297 1.28h25.64c.718 0 1.297-.571 1.297-1.28v-8.527c0-.709-.579-1.28-1.297-1.28h-25.64v.001zm15.344 1.687c.766.027 1.38.403 1.84 1.127.46.724.696 1.633.708 2.729-.012 1.148-.249 2.072-.709 2.774-.46.701-1.073 1.062-1.84 1.081-.766-.02-1.379-.38-1.839-1.081-.46-.702-.696-1.626-.708-2.774.012-1.149.248-2.073.708-2.774.46-.702 1.073-1.063 1.84-1.082zm6.109 0c.635 0 1.18.163 1.639.493.458.329.697.823.72 1.481-.017.436-.131.776-.343 1.023-.212.248-.424.424-.636.525-.212.101-.326.148-.343.144.019 0 .151.066.393.198.243.13.483.335.725.612.242.278.374.634.393 1.072.012.501-.178.981-.567 1.436-.39.455-1.05.696-1.981.727-.932-.03-1.592-.272-1.981-.727-.39-.455-.579-.935-.567-1.436.019-.438.148-.794.39-1.072.243-.277.485-.481.728-.612.242-.132.374-.199.393-.198-.017.004-.13-.043-.343-.144-.212-.1-.424-.277-.636-.525-.212-.247-.326-.587-.342-1.023.021-.658.261-1.152.72-1.481.457-.33 1.003-.493 1.638-.493zm-17.378.093h1.51l2.454 7.525h-1.417l-.47-1.505h-2.644l-.47 1.505h-1.415l2.452-7.525zm6.004 0h1.134v7.525h-1.32v-5.83l-1.011.631-.447-.578 1.644-1.748zm11.374.98c-.26-.012-.517.06-.733.206-.196.139-.297.37-.304.695.043.294.216.552.518.776.303.223.476.342.519.354.043-.012.216-.131.519-.354.302-.224.475-.482.518-.776-.008-.325-.11-.556-.307-.695a1.203 1.203 0 0 0-.73-.205v-.001zm-6.176.096c-.338.02-.61.233-.818.637-.221.431-.337 1.115-.342 2.05.005.934.12 1.618.342 2.049.221.43.515.642.885.637.37.005.666-.206.887-.637.222-.431.334-1.115.34-2.05-.006-.934-.118-1.618-.34-2.049-.22-.43-.518-.642-.887-.637h-.067zm-10.446.619l-.944 3.197h1.885l-.94-3.197H82.5zm16.622 2.443c-.015.006-.121.08-.318.221a3.888 3.888 0 0 0-.591.533c-.197.215-.303.434-.318.659.016.327.15.566.4.716.252.151.528.226.827.224.299.002.574-.073.826-.224.252-.15.385-.39.401-.716a1.113 1.113 0 0 0-.318-.701 3.226 3.226 0 0 0-.59-.512 3.992 3.992 0 0 0-.319-.2zm-21.453 32.88c-.718 0-1.297.571-1.297 1.28v8.527c0 .709.579 1.28 1.297 1.28h25.64c.718 0 1.297-.571 1.297-1.28v-8.527c0-.709-.579-1.28-1.297-1.28h-25.64zm15.344 1.688c.766.027 1.38.403 1.84 1.127.46.724.696 1.633.708 2.729-.012 1.148-.249 2.072-.709 2.774-.46.701-1.073 1.062-1.84 1.082-.766-.02-1.379-.38-1.839-1.082-.46-.702-.696-1.626-.708-2.774.012-1.149.248-2.073.708-2.774.46-.702 1.073-1.063 1.84-1.082zm6.109 0c.635 0 1.18.164 1.639.493.458.329.697.823.72 1.481-.017.436-.131.776-.343 1.024-.212.247-.424.424-.636.525-.212.1-.326.147-.343.143.019 0 .151.066.393.198.243.13.483.335.725.613.242.277.374.633.393 1.07.012.502-.178.982-.567 1.437-.39.455-1.05.696-1.981.728-.932-.032-1.592-.273-1.981-.728-.39-.455-.579-.935-.567-1.436.019-.438.148-.794.39-1.071.243-.278.485-.482.728-.613.242-.132.374-.199.393-.198-.017.004-.13-.042-.343-.143-.212-.101-.424-.278-.636-.525-.212-.248-.326-.588-.342-1.024.021-.658.261-1.152.72-1.481.457-.33 1.003-.493 1.638-.493zm-17.378.093h1.51l2.454 7.525h-1.417l-.47-1.505h-2.644l-.47 1.505h-1.415l2.452-7.525zm6.004 0h1.134v7.525h-1.32v-5.83l-1.011.631-.447-.578 1.644-1.748zm11.374.98c-.26-.012-.517.06-.733.206-.196.139-.297.37-.304.695.043.294.216.552.518.776.303.223.476.342.519.354.043-.012.216-.13.519-.354.302-.224.475-.482.518-.776-.008-.325-.11-.556-.307-.695a1.204 1.204 0 0 0-.73-.205v-.001zm-6.176.097c-.338.02-.61.232-.818.636-.221.431-.337 1.115-.342 2.05.005.935.12 1.618.342 2.049.221.43.515.642.885.637.37.005.666-.206.887-.637.222-.431.334-1.114.34-2.05-.006-.934-.118-1.618-.34-2.049-.22-.43-.518-.642-.887-.636-.023 0-.045-.002-.067 0zm-10.446.618l-.944 3.198h1.885l-.94-3.198H82.5zm16.622 2.443a5.52 5.52 0 0 0-.318.222 3.887 3.887 0 0 0-.591.532c-.197.215-.303.434-.318.659.016.327.15.566.4.717.252.15.528.225.827.223.299.002.574-.073.826-.223.252-.151.385-.39.401-.717a1.113 1.113 0 0 0-.318-.701 3.226 3.226 0 0 0-.59-.512 3.993 3.993 0 0 0-.319-.2z" fill="#0D69E1"/><path d="M226.5 161h-207a6.5 6.5 0 0 0-6.5 6.5v121a6.5 6.5 0 0 0 6.5 6.5h207a6.5 6.5 0 0 0 6.5-6.5v-121a6.5 6.5 0 0 0-6.5-6.5zm-207 1h207a5.5 5.5 0 0 1 5.5 5.5v121a5.5 5.5 0 0 1-5.5 5.5h-207a5.5 5.5 0 0 1-5.5-5.5v-121a5.5 5.5 0 0 1 5.5-5.5z" fill="#000"/></g><g fill-rule="nonzero"><path d="M18.056 306.056h210a8 8 0 0 1 8 8v118a8 8 0 0 1-8 8h-210a8 8 0 0 1-8-8v-118a8 8 0 0 1 8-8z" fill="#FFF"/><path d="M30.111 362.167a3.659 3.659 0 0 0-3.667 3.666v22a3.659 3.659 0 0 0 3.667 3.667h111.833a3.659 3.659 0 0 0 3.667-3.667v-22a3.659 3.659 0 0 0-3.667-3.666H30.111zm0 .61h111.833a3.049 3.049 0 0 1 3.056 3.057v22a3.05 3.05 0 0 1-3.056 3.056H30.111a3.049 3.049 0 0 1-3.055-3.056v-22a3.049 3.049 0 0 1 3.055-3.055v-.002z" fill="#000"/><path d="M30.111 364a1.83 1.83 0 0 0-1.833 1.833v22a1.83 1.83 0 0 0 1.833 1.834h111.833a1.83 1.83 0 0 0 1.834-1.834v-22a1.833 1.833 0 0 0-1.834-1.833H30.111zm18.043 2.899l3.033.095-5.004 8.41 2.628.012 1.509-1.814 2.712-.248-1.906 3.48 1.906 3.479-2.712-.248-1.509-1.815-2.628.012 5.004 8.41-3.033.096-7.054-8.483-6.26.026h-.019a1.487 1.487 0 0 1-1.467-1.485 1.49 1.49 0 0 1 1.486-1.475l6.26.03 7.054-8.482zm53.174 3.518l.459 2.139c-.564.008-.987.154-1.264.435a7.936 7.936 0 0 0-.875 1.092c-.307.425-.662.876-1.066 1.356-.403.48-.761.742-1.073.783.736.093 1.291.38 1.665.863.375.483.736 1.062 1.085 1.734.438.8.873 1.577 1.306 2.334.433.757.914 1.354 1.444 1.791h-2.662a47.88 47.88 0 0 0-1.05-1.833c-.477-.802-.92-1.566-1.33-2.292-.26-.485-.544-.861-.851-1.126-.307-.265-.684-.398-1.135-.401a7.788 7.788 0 0 0-.573.034c-.21.02-.324.028-.343.03v5.588h-2.14v-12.222h2.14v4.56a.188.188 0 0 0 .057.031c.02.007.051.013.095.015.738-.013 1.369-.398 1.891-1.15a52.458 52.458 0 0 1 1.719-2.321c.624-.8 1.458-1.281 2.501-1.44zm8.277 0c1.678.046 2.93.674 3.75 1.883.822 1.208 1.23 2.72 1.227 4.533.003 1.815-.405 3.325-1.226 4.534-.821 1.209-2.073 1.837-3.75 1.883-1.679-.046-2.926-.674-3.748-1.883-.82-1.209-1.232-2.72-1.23-4.534-.002-1.814.41-3.325 1.23-4.533.822-1.209 2.07-1.837 3.747-1.883zm23.6 0c1.678.046 2.926.674 3.747 1.883.822 1.208 1.233 2.72 1.23 4.533.003 1.815-.408 3.325-1.23 4.534-.82 1.209-2.069 1.837-3.746 1.883-1.678-.046-2.93-.674-3.751-1.883-.821-1.209-1.229-2.72-1.226-4.534-.003-1.814.405-3.325 1.226-4.533.821-1.209 2.073-1.837 3.75-1.883zm-75.227.305h4.736c1.152.04 2.036.396 2.65 1.073.615.678.923 1.442.929 2.288-.006.475-.161.94-.47 1.394-.319.463-.76.826-1.276 1.05.624.23 1.133.574 1.528 1.032.395.458.598 1.031.611 1.719-.023 1.021-.396 1.88-1.123 2.578-.726.697-1.669 1.06-2.826 1.088h-4.76v-12.222h.001zm11.5 0h2.139v4.89H76.2v-4.89h2.14v12.222H76.2v-5.5h-4.583v5.5h-2.139v-12.222zm11.336 0h2.292l2.903 6.417 2.444-6.417h2.292l-3.972 10.236a3.24 3.24 0 0 1-1.219 1.444c-.562.377-1.123.572-1.684.584-.303 0-.538-.007-.707-.026a1.318 1.318 0 0 1-.363-.08l-.458-1.922a5.4 5.4 0 0 0 .382.077c.242.044.522.07.84.076a1.554 1.554 0 0 0 1.016-.44c.284-.27.43-.53.443-.782-.022-.159-.24-.702-.657-1.627-.417-.925-.899-1.967-1.447-3.128-.48-1.016-.962-2.03-1.448-3.044l-.657-1.368zm36.46 0h4.737c1.151.04 2.032.396 2.647 1.073.614.678.926 1.442.932 2.288-.006.475-.165.94-.474 1.394a2.986 2.986 0 0 1-1.272 1.05c.624.23 1.133.574 1.528 1.032.395.458.598 1.031.611 1.719-.023 1.021-.4 1.88-1.127 2.578-.726.697-1.668 1.06-2.826 1.088h-4.755v-12.222h-.001zm-7.669 1.68c-.856.014-1.55.408-2.081 1.185-.532.776-.806 1.859-.822 3.246.016 1.388.29 2.47.822 3.247.531.776 1.225 1.171 2.081 1.184.856-.013 1.55-.408 2.082-1.184.531-.777.805-1.859.821-3.247-.016-1.387-.29-2.47-.821-3.246-.532-.777-1.226-1.171-2.082-1.184v-.001zm23.6 0c-.856.014-1.55.408-2.081 1.185-.532.776-.805 1.859-.821 3.246.016 1.388.29 2.47.821 3.247.531.776 1.225 1.171 2.082 1.184.856-.013 1.55-.408 2.081-1.184.532-.777.805-1.859.821-3.247-.016-1.387-.29-2.47-.82-3.246-.532-.777-1.226-1.171-2.082-1.184l-.001-.001zm-73.088.154v3.143h2.444c.465-.008.834-.157 1.108-.443.273-.287.414-.664.42-1.13-.016-.534-.175-.927-.478-1.185a1.563 1.563 0 0 0-1.05-.385h-2.444zm59.297 0v3.143h2.444c.465-.008.834-.157 1.108-.443.273-.287.413-.664.42-1.13-.016-.534-.175-.927-.478-1.185a1.563 1.563 0 0 0-1.05-.385h-2.444zm-59.297 4.888v3.667h2.597c.611-.022 1.07-.217 1.375-.588a1.91 1.91 0 0 0 .458-1.245 1.91 1.91 0 0 0-.458-1.245c-.306-.371-.764-.567-1.375-.589h-2.597zm59.297 0v3.667h2.597c.61-.022 1.07-.217 1.375-.588a1.91 1.91 0 0 0 .458-1.245 1.91 1.91 0 0 0-.458-1.245c-.306-.371-.764-.567-1.375-.589h-2.597z" fill="#0D69E1"/><path d="M52.111 326.723v8.555h1.833v-6.875h3.21v6.875h1.832v-8.555h-6.875zm13.792-.306c-.758.05-1.305.254-1.643.61-.337.357-.503.561-.496.612a3.006 3.006 0 0 1-.306-.917H61.93v12.222h1.834v-4.43c.012.111.216.309.61.592.395.283.905.442 1.529.477.335.014.801-.099 1.397-.34.596-.24 1.141-.692 1.635-1.357.495-.665.757-1.627.787-2.886-.064-1.795-.51-3.017-1.337-3.667-.827-.649-1.655-.954-2.482-.916zm0 1.68c.55.007 1.015.261 1.394.764.378.503.576 1.216.592 2.139-.016.93-.214 1.668-.592 2.215-.38.548-.844.828-1.394.84a2.504 2.504 0 0 1-1.193-.324 2.531 2.531 0 0 1-.946-.898v-3.208c.235-.465.54-.834.914-1.108a2.084 2.084 0 0 1 1.225-.42zm5.694 3.973h4.277v-1.986h-4.277v1.986zm6.04-5.347v1.68h2.575v6.875h1.833v-6.875H84.6v-1.68h-6.963zm13.482-3.667v12.222h4.758c1.157-.029 2.1-.392 2.826-1.089.727-.697 1.101-1.556 1.124-2.578-.013-.687-.216-1.26-.611-1.719a3.609 3.609 0 0 0-1.528-1.03 3 3 0 0 0 1.274-1.051c.309-.455.466-.92.472-1.394-.006-.847-.316-1.609-.93-2.287-.614-.677-1.497-1.035-2.65-1.074h-4.735zm2.139 1.833h2.444c.398-.001.748.127 1.05.385.303.257.462.653.478 1.186-.006.467-.147.843-.42 1.13-.274.286-.643.434-1.108.442h-2.444v-3.143zm0 4.889h2.597c.611.022 1.07.218 1.375.59.305.37.458.785.458 1.243 0 .458-.153.873-.458 1.244-.306.371-.764.568-1.375.59h-2.597v-3.667zm9.239 5.5h7.792v-1.833h-5.653v-3.667h4.431v-1.833h-4.43v-2.903h5.5v-1.986h-7.64v12.222zm10.91-12.222v12.222h2.14V331h1.985c1.242-.07 2.235-.541 2.98-1.413.744-.872 1.126-1.725 1.145-2.56.02-.833-.286-1.686-.916-2.558-.63-.872-1.7-1.343-3.209-1.413h-4.125zm2.14 1.833h1.374c.637-.006 1.197.16 1.68.496.485.338.74.885.765 1.643-.026.757-.28 1.305-.764 1.642-.484.338-1.044.503-1.68.497h-1.376v-4.278h.001zm9.239 10.389h2.14v-5.5h4.582v5.5h2.14v-12.222h-2.14v4.889h-4.583v-4.89h-2.139v12.223zM139.97 331l1.528-5.194 1.527 5.194h-3.055zm.305-7.944l-3.972 12.222h2.292l.764-2.445h4.278l.763 2.445h2.292l-3.972-12.222h-2.445zm10.892 0v1.833a26.694 26.694 0 0 1-.22 3.188 35.922 35.922 0 0 1-.527 3.125c-.21.963-.418 1.71-.628 2.242h-1.375v3.973h1.834v-2.14h7.638v2.14h1.834v-3.973h-1.375v-10.388h-7.181zm2.14 1.833h2.902v8.555h-4.343c.422-1.044.766-2.355 1.03-3.934a28.89 28.89 0 0 0 .41-4.621h.001zm13.03-2.139c-1.678.046-2.928.672-3.749 1.88-.821 1.206-1.23 2.719-1.227 4.537-.003 1.817.406 3.33 1.227 4.537.821 1.207 2.07 1.833 3.749 1.88 1.152-.017 2.086-.329 2.8-.936.713-.608 1.257-1.417 1.63-2.426l-2.051-.764c-.23.758-.541 1.305-.937 1.643-.395.337-.876.503-1.442.496-.856-.013-1.55-.407-2.082-1.184-.531-.776-.805-1.859-.821-3.246.016-1.388.29-2.47.821-3.247.532-.776 1.226-1.171 2.082-1.184.566-.006 1.047.16 1.442.497.396.337.708.885.937 1.642l2.051-.764c-.373-1.009-.917-1.817-1.63-2.425-.714-.608-1.648-.92-2.8-.936zm6.795.306v12.222h2.139v-5.588l.343-.032c.21-.02.401-.03.574-.033.45.003.829.138 1.136.403.307.265.59.64.85 1.125.409.725.851 1.49 1.328 2.291.477.803.827 1.414 1.05 1.834h2.663c-.53-.437-1.01-1.034-1.444-1.791-.432-.757-.868-1.535-1.306-2.334-.348-.672-.71-1.25-1.084-1.733-.375-.483-.93-.771-1.666-.864.312-.042.67-.302 1.074-.782.404-.48.759-.932 1.065-1.357.307-.448.599-.813.876-1.093.278-.281.699-.426 1.263-.435l-.458-2.139c-1.043.16-1.877.639-2.501 1.438-.624.8-1.198 1.575-1.72 2.326-.523.75-1.153 1.133-1.89 1.147a.415.415 0 0 1-.096-.013.187.187 0 0 1-.057-.03v-4.562h-2.139zm16.558-.306c-1.677.046-2.926.674-3.748 1.882-.82 1.21-1.23 2.72-1.227 4.535-.003 1.814.406 3.325 1.227 4.534.822 1.208 2.071 1.836 3.749 1.882 1.678-.046 2.927-.674 3.748-1.882.822-1.209 1.23-2.72 1.228-4.534.003-1.815-.406-3.326-1.228-4.535-.82-1.208-2.07-1.836-3.748-1.882h-.001zm0 1.986c.857.013 1.551.408 2.083 1.184.531.777.805 1.859.82 3.247-.015 1.387-.289 2.47-.82 3.246-.532.777-1.226 1.171-2.082 1.184-.856-.013-1.55-.407-2.082-1.184-.531-.776-.805-1.859-.82-3.246.015-1.388.289-2.47.82-3.247.532-.776 1.226-1.171 2.082-1.184h-.001zm7.546 10.542h2.14v-10.39h5.5v-1.832h-7.64v12.222zm14.402-12.528c-1.677.046-2.927.674-3.748 1.882-.821 1.21-1.23 2.72-1.228 4.535-.002 1.814.407 3.325 1.228 4.534.821 1.208 2.07 1.836 3.748 1.882 1.678-.046 2.928-.674 3.749-1.882.821-1.209 1.23-2.72 1.228-4.534.002-1.815-.407-3.326-1.228-4.535-.821-1.208-2.07-1.836-3.749-1.882zm0 1.986c.857.013 1.55.408 2.082 1.184.532.777.805 1.859.821 3.247-.016 1.387-.29 2.47-.821 3.246-.532.777-1.225 1.171-2.082 1.184-.856-.013-1.55-.407-2.081-1.184-.532-.776-.805-1.859-.821-3.246.016-1.388.29-2.47.82-3.247.532-.776 1.226-1.171 2.082-1.184zM162.722 382.944h8.403v2.445h1.833v-4.278h-1.375v-10.389h-2.139v10.389h-4.583v-10.389h-2.139v12.222zm12.953 0h7.792v-1.833h-5.653v-3.666h4.431v-1.834h-4.43v-2.903h5.5v-1.986h-7.64v12.222zm11.277 0h2.14v-5.499h4.582v5.499h2.14v-12.222h-2.14v4.889h-4.583v-4.889h-2.139v12.222zm11.731-12.222v1.834h3.361v10.388h2.14v-10.388h3.36v-1.834h-8.861zm11.717 0v12.222h2.139v-4.277h1.986c1.241-.07 2.234-.541 2.98-1.414.744-.872 1.126-1.725 1.145-2.559.02-.833-.286-1.686-.917-2.559-.63-.872-1.7-1.343-3.208-1.413H210.4zm2.139 1.834h1.375c.637-.007 1.197.159 1.68.496.484.338.739.885.764 1.642-.025.758-.28 1.305-.763 1.643-.484.337-1.044.503-1.681.496h-1.375v-4.277zM102.402 416.483l.54.704 1.228-.769v7.104h1.604v-9.167H104.4l-1.998 2.128zm11.168-.638l.459-1.49h-5.271v4.47l1.031.572c.115-.079.287-.207.516-.386.229-.18.515-.28.86-.301.517.021.913.207 1.188.558.274.351.413.738.415 1.16-.028.573-.258 1.003-.687 1.29a2.44 2.44 0 0 1-1.375.43 6.768 6.768 0 0 1-1.162-.089 2.644 2.644 0 0 1-1.015-.37l.229 1.49c.026.019.26.095.702.229.441.133.933.21 1.475.229 1.1-.024 1.965-.349 2.592-.974.628-.626.948-1.409.96-2.35-.036-.92-.337-1.627-.902-2.119-.566-.492-1.182-.74-1.848-.745-.27-.004-.54.034-.812.115a1.342 1.342 0 0 0-.678.458v-2.177h3.323zm6.11-1.604c-.932.024-1.677.463-2.235 1.318-.559.854-.845 1.981-.86 3.38.015 1.399.301 2.525.86 3.38.558.855 1.303 1.294 2.234 1.318.931-.024 1.676-.463 2.235-1.318.558-.855.845-1.981.859-3.38-.014-1.335-.3-2.443-.86-3.325-.558-.882-1.303-1.34-2.234-1.373h.001zm0 1.424c.448-.007.807.252 1.075.778.27.525.407 1.357.414 2.496-.007 1.139-.145 1.971-.414 2.496-.268.525-.627.785-1.076.778-.449.007-.807-.253-1.076-.778s-.407-1.357-.413-2.496c.006-1.14.144-1.971.413-2.496.269-.526.627-.785 1.076-.778h.001zm6.428 7.857h1.375l.344-4.469 1.833 3.667 1.833-3.667.344 4.47h1.375l-.573-6.418h-1.375l-1.604 3.21-1.604-3.21h-1.375l-.573 6.417z" fill="#000"/><path d="M18.184 314.184A4.053 4.053 0 0 0 17 317.052v111.75a4.044 4.044 0 0 0 4.052 4.052h203.851a4.044 4.044 0 0 0 4.053-4.052v-111.75a4.044 4.044 0 0 0-4.053-4.052H21.053a4.045 4.045 0 0 0-2.869 1.184zm2.868-.447h203.851a3.308 3.308 0 0 1 3.316 3.315v111.75a3.308 3.308 0 0 1-3.316 3.316h-67.602v-18.79c0-3.662 2.97-6.63 6.631-6.63h20.447v5.894l15.952-9.21-15.952-9.21v5.894h-20.447c-2.416 0-4.68.648-6.631 1.777v-44.888h5.894l-9.21-15.949-9.21 15.95h5.895v44.887a13.197 13.197 0 0 0-6.632-1.777H60.963v-5.894l-15.953 9.21 15.953 9.21v-5.894h83.075a6.631 6.631 0 0 1 6.632 6.63v18.79H21.052a3.308 3.308 0 0 1-3.315-3.316v-111.75a3.308 3.308 0 0 1 3.315-3.315z" fill="#000"/><path d="M226.5 309h-207a6.5 6.5 0 0 0-6.5 6.5v115a6.5 6.5 0 0 0 6.5 6.5h207a6.5 6.5 0 0 0 6.5-6.5v-115a6.5 6.5 0 0 0-6.5-6.5zm-207 1h207a5.5 5.5 0 0 1 5.5 5.5v115a5.5 5.5 0 0 1-5.5 5.5h-207a5.5 5.5 0 0 1-5.5-5.5v-115a5.5 5.5 0 0 1 5.5-5.5z" fill="#000"/></g><g transform="translate(41 449)"><path d="M7 1h151a6 6 0 0 1 6 6v114a6 6 0 0 1-6 6H7a6 6 0 0 1-6-6V7a6 6 0 0 1 6-6z" fill="#FFF" fill-rule="nonzero"/><path d="M7.51 4A3.502 3.502 0 0 0 4 7.51v112.75a3.502 3.502 0 0 0 3.51 3.511h149.98a3.502 3.502 0 0 0 3.51-3.51V7.51A3.502 3.502 0 0 0 157.49 4H7.51zm149.98.637a2.866 2.866 0 0 1 2.872 2.873v112.75a2.866 2.866 0 0 1-2.872 2.874H23.77v-20.986l85.009-45.2 2.396 4.508 8.457-13.53-15.946-.558 2.397 4.508L23.77 95.643V30.38h5.106l-7.978-13.818-7.977 13.818h5.105v92.754H7.51a2.866 2.866 0 0 1-2.872-2.872V7.51A2.866 2.866 0 0 1 7.51 4.637h149.98z" fill="#000" fill-rule="nonzero"/><path d="M58.857 87.62c0 7.342-5.953 13.294-13.295 13.294-7.343 0-13.295-5.952-13.295-13.295 0-7.342 5.952-13.295 13.295-13.295 7.342 0 13.295 5.953 13.295 13.295v.001z" fill="#FFF" fill-rule="nonzero"/><path d="M34.362 19.353v7.466h1.6v-6h2.8v6h1.6v-7.466h-6zm9.956-.001c0 .515-.011 1.138-.037 1.87-.025.73-.068 1.412-.13 2.046-.06.633-.145 1.061-.252 1.284a1.98 1.98 0 0 1-.633.705 1.875 1.875 0 0 1-.72.305l.305 1.524c1.084-.285 1.821-.767 2.213-1.447.392-.68.605-1.449.642-2.306.036-.858.062-1.696.079-2.514h2.133v6h1.6v-7.467h-5.2zm9.8 6.4a1.158 1.158 0 0 0-1.162-1.162 1.158 1.158 0 0 0-1.162 1.162 1.158 1.158 0 0 0 1.162 1.162 1.158 1.158 0 0 0 1.162-1.162zm6.022-9.599v10.666h1.868v-9.066h4v9.066h1.867V16.153H60.14zm11.84 10.609c.063.029.169.052.316.069.147.017.353.026.617.026.49-.011.98-.181 1.47-.51a2.83 2.83 0 0 0 1.063-1.261l3.467-8.934h-2l-2.134 5.6-2.533-5.6h-2c.619 1.28 1.232 2.564 1.838 3.85.479 1.014.9 1.924 1.264 2.732.364.807.555 1.28.574 1.418-.011.22-.141.448-.389.684a1.358 1.358 0 0 1-.887.383 4.595 4.595 0 0 1-.733-.067 4.713 4.713 0 0 1-.334-.066l.4 1.676h.001zm9.05.057h11.733V16.153h-1.866v9.066H87.83v-9.066h-1.867V25.2l-3.066.019v-9.066H81.03v10.666zm14.492-10.667V26.82h1.866v-4.876c.017-.003.117-.012.3-.029.183-.016.35-.026.5-.028.393.003.724.12.992.351.268.232.515.559.741.982.357.633.744 1.3 1.16 2 .416.7.722 1.233.917 1.6h2.323c-.462-.382-.882-.903-1.26-1.563-.378-.66-.757-1.34-1.14-2.037a9.964 9.964 0 0 0-.946-1.512c-.327-.422-.811-.673-1.454-.755.273-.036.585-.263.937-.682.353-.419.663-.814.93-1.184.268-.391.522-.71.765-.954.242-.245.61-.372 1.102-.38l-.4-1.866c-.91.139-1.638.557-2.183 1.255-.519.663-1.02 1.34-1.501 2.03-.456.655-1.006.988-1.65 1a.362.362 0 0 1-.083-.01.163.163 0 0 1-.05-.028v-3.98h-1.866v-.002zm18.638 10.667V16.153h-2l-3.867 7.333v-7.333h-1.867v10.666h2l3.867-7.333v7.333h1.867zm3.038 0h1.866v-4.8h4v4.8h1.867V16.153h-1.867v4.266h-4v-4.266h-1.866v10.666zm13.571-3.733l1.333-4.534 1.334 4.534h-2.667zm.267-6.934l-3.467 10.667h2l.667-2.133h3.733l.667 2.133h2l-3.467-10.667h-2.133zM70.229 92.419l.514 1.524c.198.036.326.059.383.067.058.007.114.01.17.009.413-.003.819-.13 1.216-.383a2.45 2.45 0 0 0 .917-1.084l3.066-9.2H74.63l-1.467 4.934-1.733-4.934h-1.867l2.857 7.467c-.1.403-.264.786-.493 1.15-.229.364-.572.558-1.03.583a1.929 1.929 0 0 1-.284-.016 1.25 1.25 0 0 1-.383-.117h-.001zm9.239-9.067c0 .515-.011 1.138-.037 1.87-.025.73-.068 1.412-.13 2.046-.06.633-.145 1.061-.252 1.284a1.98 1.98 0 0 1-.633.705 1.875 1.875 0 0 1-.72.305l.305 1.524c1.083-.285 1.82-.767 2.213-1.447.391-.68.605-1.449.642-2.306.036-.858.062-1.696.079-2.514h2.133v6h1.6v-7.467h-5.2zm9.747 6.4a1.158 1.158 0 0 0-1.162-1.162 1.158 1.158 0 0 0-1.162 1.162 1.158 1.158 0 0 0 1.162 1.162 1.158 1.158 0 0 0 1.162-1.162zm5.97 1.067h1.866v-9.066h4.8v-1.6h-6.666v10.666zm12.835-10.933c-1.464.04-2.554.588-3.27 1.643-.717 1.054-1.074 2.373-1.072 3.957-.002 1.583.355 2.902 1.071 3.957.717 1.055 1.807 1.602 3.272 1.643 1.464-.04 2.554-.588 3.271-1.643.717-1.055 1.074-2.374 1.072-3.957.002-1.584-.355-2.903-1.072-3.957-.717-1.055-1.807-1.603-3.271-1.643h-.001zm0 1.733c.748.011 1.354.356 1.817 1.033.464.678.703 1.623.717 2.834-.014 1.21-.253 2.155-.717 2.833-.463.678-1.069 1.022-1.816 1.033-.747-.01-1.353-.355-1.817-1.033-.464-.678-.703-1.622-.717-2.833.014-1.211.253-2.156.717-2.834.464-.677 1.07-1.022 1.817-1.033h-.001zm6.852 9.2h1.867v-9.066h4.8v-1.6h-6.667v10.666zm12.836-10.933c-1.464.04-2.554.588-3.271 1.643-.717 1.054-1.074 2.373-1.072 3.957-.002 1.583.355 2.902 1.072 3.957.717 1.055 1.807 1.602 3.271 1.643 1.465-.04 2.555-.588 3.272-1.643.716-1.055 1.073-2.374 1.071-3.957.002-1.584-.355-2.903-1.071-3.957-.717-1.055-1.807-1.603-3.272-1.643zm0 1.733c.747.011 1.353.356 1.817 1.033.464.678.703 1.623.717 2.834-.014 1.21-.253 2.155-.717 2.833-.464.678-1.07 1.022-1.817 1.033-.747-.01-1.353-.355-1.816-1.033-.464-.678-.703-1.622-.717-2.833.014-1.211.253-2.156.717-2.834.463-.677 1.069-1.022 1.816-1.033zm8.318-1.467c.001.83 0 1.749-.005 2.756a148.54 148.54 0 0 1-.034 2.756c-.02.83-.05 1.392-.094 1.688-.103.486-.316.871-.638 1.156-.323.285-.632.488-.927.61-.295.121-.453.18-.473.177l.305 1.79c.037.02.32-.049.848-.207.529-.158 1.078-.523 1.649-1.096.57-.573.938-1.472 1.103-2.696a31.1 31.1 0 0 0 .093-1.976c.027-1.12.04-2.239.04-3.358h2.933v9.067h1.867V80.152h-6.667zm17.394 0h-3.866c-1.312.056-2.223.412-2.734 1.067-.51.656-.755 1.278-.733 1.867.011.739.222 1.346.633 1.821.411.475.956.782 1.634.922-.28.075-.577.262-.892.56a3.107 3.107 0 0 0-.708.963c-.144.334-.349.758-.614 1.273-.266.515-.53.988-.792 1.42-.262.432-.46.69-.594.774h2.266c.26-.459.497-.896.709-1.313l.681-1.331c.207-.455.438-.836.694-1.143.256-.307.672-.467 1.25-.48h1.2v4.267h1.866V80.152zm-1.866 1.6v3.2h-1.6c-.55.005-1.017-.119-1.4-.371-.384-.252-.584-.662-.6-1.229.022-.566.244-.976.666-1.228.422-.253.911-.376 1.467-.372h1.467zM77.14 109.186l.4-1.3h-4.6v3.9l.9.5c.1-.07.25-.182.45-.338.2-.156.45-.244.75-.262.452.018.798.18 1.038.487.24.306.36.644.362 1.013-.025.5-.225.875-.6 1.125s-.775.375-1.2.375a5.907 5.907 0 0 1-1.014-.077 2.308 2.308 0 0 1-.886-.323l.2 1.3c.023.016.227.083.613.2.385.116.814.183 1.287.2.96-.021 1.715-.305 2.263-.85.548-.546.827-1.23.837-2.05-.031-.805-.294-1.421-.787-1.85-.494-.43-1.032-.646-1.613-.65-.24-.004-.48.03-.709.1a1.17 1.17 0 0 0-.59.4v-1.9h2.9-.001zm4.905-1.4c-.813.02-1.463.404-1.95 1.15-.488.746-.738 1.729-.75 2.95.012 1.22.262 2.204.75 2.95.487.745 1.137 1.129 1.95 1.15.812-.021 1.462-.405 1.95-1.15.487-.746.737-1.73.75-2.95-.013-1.165-.263-2.132-.75-2.902-.488-.77-1.138-1.17-1.95-1.198zm0 1.243c.392-.006.705.22.94.678.234.458.354 1.185.36 2.179-.006.994-.126 1.72-.36 2.178-.235.459-.548.685-.94.679-.392.006-.705-.22-.94-.679-.234-.458-.354-1.184-.36-2.178.006-.994.126-1.72.36-2.179.235-.458.548-.684.94-.678zm5.872 6.856h1.2l.3-3.9 1.6 3.2 1.6-3.2.3 3.9h1.2l-.5-5.6h-1.2l-1.4 2.8-1.4-2.8h-1.2l-.5 5.6zM37.092 83.882c-.355 0-.687.176-.885.47l-1.676 2.483a1.069 1.069 0 0 0-.182.597v3.284c0 .59.479 1.068 1.068 1.068h.965a2.242 2.242 0 0 1 4.478 0h8.336c.04-.83.534-1.569 1.285-1.922h-9.297v-4.913c0-.59-.478-1.067-1.068-1.067h-3.024zm.057.64h2.433c.295 0 .534.24.534.534v1.495c0 .295-.24.534-.534.534H36.14a.534.534 0 0 1-.442-.832l1.007-1.495a.536.536 0 0 1 .444-.236z" fill="#000" fill-rule="nonzero"/><path d="M42.892 80.678c-.591 0-1.068.476-1.068 1.068v7.475h13.883v-7.475c0-.592-.477-1.068-1.068-1.068H42.892zm8.543 9.397a1.815 1.815 0 1 0 0 3.63 1.815 1.815 0 0 0 0-3.63zm0 .854a.961.961 0 1 1 0 1.923.961.961 0 0 1 0-1.923zm2.239.855a2.241 2.241 0 0 0-1.285-1.922h3.318v1.922h-2.033zM38.62 90.075a1.815 1.815 0 1 0 0 3.63 1.815 1.815 0 0 0 0-3.63zm0 .854a.961.961 0 1 1 0 1.923.961.961 0 0 1 0-1.923z" fill="#000" fill-rule="nonzero"/><path d="M45.562 71.619c-8.837 0-16 7.163-16 16s7.163 16 16 16c8.836 0 16-7.163 16-16s-7.164-16-16-16zm0 2.705c7.342 0 13.295 5.953 13.295 13.295 0 7.343-5.953 13.295-13.295 13.295-7.343 0-13.295-5.952-13.295-13.295 0-7.342 5.952-13.295 13.295-13.295z" fill="red" fill-rule="nonzero"/><rect stroke="#000" x=".5" y=".5" width="164" height="127" rx="6"/></g><g fill-rule="nonzero"><path d="M58 585h132a8 8 0 0 1 8 8v112a8 8 0 0 1-8 8H58a8 8 0 0 1-8-8V593a8 8 0 0 1 8-8z" fill="#FFF"/><path d="M57.405 590.367a2.043 2.043 0 0 0-2.043 2.05v113.165c0 1.136.911 2.051 2.043 2.051h105.083V690.17l-19.262-9.85a5.26 5.26 0 0 1-2.502.63c-2.925 0-5.297-2.38-5.297-5.317 0-1.806.899-3.399 2.27-4.36v-29.899a5.314 5.314 0 0 1-2.27-4.36c0-2.936 2.372-5.316 5.297-5.316.904 0 1.755.228 2.5.629l19.264-9.852V610.57h-5.57l8.704-15.129 8.702 15.129h-5.569v97.063h21.84a2.043 2.043 0 0 0 2.043-2.05V592.417c0-1.136-.911-2.05-2.043-2.05H57.405zm79.103 8.601c1.558.044 2.718.628 3.48 1.754.764 1.127 1.146 2.536 1.143 4.227.003 1.691-.38 3.1-1.142 4.227-.763 1.127-1.923 1.711-3.481 1.754-1.558-.043-2.719-.627-3.481-1.754-.763-1.126-1.143-2.536-1.14-4.227-.003-1.69.377-3.1 1.14-4.227.762-1.126 1.923-1.71 3.48-1.754h.001zm-48 .285h8.23v11.393H94.75v-9.684h-4.256v9.684h-1.987v-11.393h.001zm11.645 0h7.094v1.851h-5.107v2.706h4.115v1.709h-4.115v3.418h5.25v1.709h-7.236v-11.393h-.001zm10.086 0h8.23v1.709h-3.122v9.684h-1.987v-9.684h-3.12v-1.709h-.001zm11.065 0h3.831c1.401.065 2.395.505 2.98 1.317.585.813.869 1.608.851 2.386-.018.777-.372 1.572-1.064 2.385-.692.813-1.614 1.252-2.767 1.317h-1.844v3.988h-1.987v-11.393zm22.733 0h4.4c1.069.037 1.89.37 2.461 1.002.57.631.858 1.342.863 2.131-.005.442-.15.874-.437 1.298-.295.431-.706.77-1.185.98.58.214 1.052.535 1.419.962.366.427.556.961.567 1.602-.02.952-.368 1.752-1.043 2.402-.674.65-1.55.989-2.625 1.016h-4.42v-11.393zm-7.53 1.567c-.794.012-1.438.38-1.931 1.103-.494.724-.75 1.733-.764 3.026.015 1.294.27 2.303.764 3.026.493.724 1.137 1.092 1.932 1.104.795-.012 1.44-.38 1.934-1.104.494-.723.747-1.732.762-3.026-.015-1.293-.268-2.302-.762-3.026-.493-.724-1.139-1.091-1.934-1.103h-.001zm-13.216.142v3.987h1.277c.59.006 1.111-.148 1.56-.462.45-.315.686-.825.71-1.531-.024-.706-.26-1.217-.71-1.531-.449-.315-.97-.469-1.56-.463h-1.278.001zm22.733 0v2.929h2.27c.432-.008.775-.144 1.029-.41.254-.268.384-.62.39-1.055-.015-.497-.161-.865-.442-1.106a1.45 1.45 0 0 0-.977-.358h-2.27zm0 4.557v3.418h2.412c.568-.02.993-.203 1.277-.549.284-.345.426-.733.426-1.16 0-.427-.142-.815-.426-1.16-.284-.347-.71-.529-1.277-.549h-2.412zm16.464 23.775l-16.518 8.446a5.314 5.314 0 0 1-2.219 3.633v29.898a5.314 5.314 0 0 1 2.219 3.634l16.518 8.444v-54.055zm-84.01 1.193c1.559.044 2.72.628 3.482 1.754.762 1.127 1.142 2.536 1.14 4.227.002 1.691-.378 3.1-1.14 4.227-.763 1.127-1.923 1.711-3.481 1.754-1.559-.043-2.719-.627-3.481-1.754-.763-1.126-1.145-2.536-1.143-4.227-.002-1.69.38-3.1 1.143-4.227.762-1.126 1.922-1.71 3.48-1.754zm-13.732.285h7.095v1.709h-5.109v9.684h-1.986v-11.393zm21.095 0h3.83c1.402.065 2.395.505 2.98 1.317.586.813.87 1.608.852 2.386-.018.777-.373 1.572-1.064 2.385-.692.813-1.615 1.252-2.767 1.317h-1.845v3.988h-1.986v-11.393zm10.923 0h1.986v7.832l4.115-7.832h2.129v11.393h-1.987v-7.833l-4.115 7.833h-2.128v-11.393zm10.911 0h1.987v9.684h4.257v-9.684h1.986v9.684h1.277v3.987h-1.702v-2.278h-7.804v-11.393h-.001zm12.045 0h1.986v4.415h2.412c1.39.047 2.336.415 2.838 1.103.503.689.74 1.413.71 2.172.017.777-.267 1.572-.852 2.385-.585.813-1.578 1.252-2.98 1.318h-4.114v-11.393zm8.797 0h1.986v11.393h-1.986v-11.393zm-50.038 1.568c-.795.011-1.441.38-1.935 1.103-.493.724-.746 1.733-.761 3.026.015 1.294.268 2.303.761 3.026.494.724 1.14 1.092 1.935 1.104.795-.012 1.438-.38 1.932-1.104.493-.723.749-1.732.764-3.026-.015-1.293-.27-2.302-.764-3.026-.494-.724-1.137-1.092-1.932-1.103zm9.348.142v3.987h1.277c.591.006 1.112-.148 1.56-.462.45-.315.687-.825.71-1.531-.023-.706-.26-1.217-.71-1.531-.448-.315-.969-.469-1.56-.463h-1.277zm52.897 1.305a3.222 3.222 0 0 0-3.216 3.228 3.226 3.226 0 0 0 2.365 3.112l1.854-.045a3.227 3.227 0 0 0 2.214-3.067 3.222 3.222 0 0 0-3.217-3.228zm-19.018 3.11v3.56h1.987c.641 0 1.133-.143 1.473-.428.34-.284.51-.712.513-1.281-.003-.576-.173-1.027-.513-1.353-.34-.326-.832-.492-1.473-.498h-1.987zm-6.983 32.63c1.558.043 2.718.627 3.48 1.753.763 1.127 1.143 2.536 1.14 4.227.003 1.691-.377 3.1-1.14 4.227-.762 1.127-1.922 1.711-3.48 1.754-1.559-.043-2.721-.627-3.484-1.754-.762-1.126-1.142-2.536-1.14-4.227-.002-1.69.378-3.1 1.14-4.227.763-1.126 1.925-1.71 3.484-1.754v.001zm-52.399.284h3.831c1.402.065 2.395.504 2.98 1.317s.87 1.608.851 2.386c-.017.777-.372 1.572-1.064 2.385-.691.813-1.614 1.252-2.767 1.317h-1.844v3.988h-1.987V669.81v.001zm11.12 0h1.986v4.415h2.413c1.389.047 2.335.415 2.837 1.103.503.689.74 1.413.71 2.172.018.777-.266 1.572-.851 2.385-.586.813-1.579 1.252-2.98 1.318h-4.115V669.81v.001zm8.797 0h1.987v11.393H82.24V669.81l.001.001zm5.451 0h7.237v1.709h-5.25v2.848h2.412c1.395.053 2.365.445 2.909 1.175.544.73.804 1.477.78 2.243.012.765-.296 1.513-.922 2.243-.627.73-1.644 1.121-3.05 1.175h-4.116V669.81v.001zm11.24 0h1.987v4.557h4.257v-4.558h1.986v11.393h-1.986v-5.127h-4.257v5.127h-1.987V669.81v.001zm23.349 0h7.094v1.851h-5.108v2.706h4.115v1.709h-4.115v3.418h5.25v1.709h-7.236V669.81v.001zm-7.558 1.567c-.796.011-1.441.38-1.935 1.103-.493.724-.747 1.733-.761 3.026.014 1.294.268 2.303.761 3.026.494.724 1.14 1.092 1.935 1.104.795-.012 1.438-.38 1.932-1.104.493-.723.749-1.732.764-3.026-.015-1.293-.27-2.302-.764-3.026-.494-.724-1.137-1.092-1.932-1.103zm-50.412.142v3.987h1.277c.591.006 1.111-.148 1.56-.462.45-.315.686-.825.71-1.531-.024-.706-.26-1.217-.71-1.531-.449-.315-.969-.469-1.56-.463H64.31h.001zm76.413.885a3.222 3.222 0 0 0-3.216 3.228 3.222 3.222 0 0 0 3.216 3.228 3.222 3.222 0 0 0 3.217-3.228 3.222 3.222 0 0 0-3.217-3.228zm-65.294 3.53v3.56h1.987c.641 0 1.133-.143 1.473-.428.34-.284.51-.712.513-1.281-.003-.576-.173-1.027-.513-1.353-.34-.326-.832-.493-1.473-.498H75.43zm14.249.142v3.418h1.986c.648 0 1.163-.143 1.544-.428.382-.284.576-.712.585-1.281-.01-.57-.203-.997-.585-1.282-.38-.285-.896-.427-1.544-.427h-1.986zm29.36 18.593a2.31 2.31 0 0 1 1.369.47c.414.307.632.725.657 1.253-.016.53-.173.966-.473 1.306-.3.34-.646.538-1.04.593.171.03.402.118.688.261.286.143.544.348.778.617.234.27.357.61.371 1.02-.003.602-.241 1.156-.716 1.662-.475.507-1.165.776-2.067.807a6.675 6.675 0 0 1-1.249-.164 13.37 13.37 0 0 1-.683-.16l-.164-1.33c.242.154.541.263.894.327a5.4 5.4 0 0 0 1.013.093c.439.003.814-.096 1.125-.299.311-.203.477-.523.497-.961.021-.189-.049-.416-.208-.679-.16-.263-.537-.408-1.13-.434a3.339 3.339 0 0 0-.346.012.92.92 0 0 0-.317.083V698.1c.485-.107.887-.296 1.206-.57.32-.272.485-.557.497-.854a.809.809 0 0 0-.296-.605 1.01 1.01 0 0 0-.65-.25c-.367 0-.672.05-.918.153-.245.103-.497.27-.756.498l-.502-1.125c.26-.153.63-.302 1.105-.446a4.994 4.994 0 0 1 1.315-.233v.002zm6.571.11c.769.027 1.384.405 1.845 1.136.461.731.698 1.65.71 2.756-.012 1.159-.249 2.092-.71 2.8-.461.709-1.076 1.073-1.845 1.092-.768-.02-1.383-.383-1.844-1.091-.461-.709-.698-1.642-.71-2.801.012-1.16.249-2.093.71-2.8.461-.709 1.076-1.073 1.844-1.093v.001zm6.648 0c.769.027 1.384.405 1.845 1.136.46.731.697 1.65.71 2.756-.013 1.159-.25 2.092-.71 2.8-.461.709-1.076 1.073-1.845 1.092-.768-.02-1.383-.383-1.844-1.091-.462-.709-.698-1.642-.71-2.801.012-1.16.248-2.093.71-2.8.46-.709 1.076-1.073 1.844-1.093v.001zm-6.648 1.18c-.37-.007-.667.21-.889.645-.222.435-.335 1.123-.34 2.067.005.944.118 1.632.34 2.067.222.435.519.651.89.646.37.005.667-.21.889-.646.222-.435.335-1.123.34-2.067-.005-.944-.118-1.632-.34-2.067-.222-.435-.519-.652-.89-.646v.001zm6.648 0c-.37-.007-.665.21-.887.645-.222.435-.337 1.123-.343 2.067.006.944.121 1.632.343 2.067.222.435.517.651.887.646.37.005.667-.21.89-.646.221-.435.334-1.123.34-2.067-.006-.944-.119-1.632-.34-2.067-.223-.435-.52-.652-.89-.646v.001zm7.785 1.193h1.135l1.325 2.658 1.324-2.658h1.135l.473 5.316H144.3l-.284-3.702-1.513 3.038-1.514-3.038-.284 3.702h-1.135l.473-5.316z" fill="#0D69E1"/><path d="M182.649 655.835c0 9.438-7.624 17.09-17.027 17.09-9.404 0-17.027-7.652-17.027-17.09 0-9.437 7.623-17.088 17.027-17.088 9.403 0 17.027 7.65 17.027 17.088z" fill="#FFF"/><path d="M165.622 638.747c-9.404 0-17.027 7.65-17.027 17.088s7.623 17.09 17.027 17.09c9.403 0 17.027-7.652 17.027-17.09 0-9.437-7.624-17.088-17.027-17.088zm0 2.89c7.813 0 14.148 6.356 14.148 14.198 0 7.843-6.335 14.2-14.148 14.2-7.814 0-14.149-6.357-14.149-14.2 0-7.842 6.335-14.199 14.149-14.199v.001z" fill="red"/><path d="M162.212 642.72l3.41 3.421 3.409-3.421h-6.819zm0 26.231l3.41-3.421 3.409 3.421h-6.819zM157.805 647.319l.638 1.437c.33-.292.653-.504.966-.636.313-.132.704-.197 1.173-.195.314.008.591.114.83.318.239.205.365.462.377.773-.015.378-.226.742-.634 1.09-.407.349-.92.59-1.539.727v1.333c.122-.058.257-.093.403-.106.146-.012.294-.018.442-.015.758.033 1.239.218 1.443.554.203.336.292.625.265.866-.026.559-.237.968-.634 1.226-.397.26-.875.387-1.436.383a7 7 0 0 1-1.294-.119c-.45-.081-.83-.22-1.138-.417l.207 1.696c.042.018.333.087.87.208.54.121 1.071.19 1.596.208 1.152-.04 2.031-.384 2.637-1.03.607-.647.912-1.353.917-2.12-.018-.524-.176-.958-.474-1.302a3.228 3.228 0 0 0-.996-.79c-.365-.183-.657-.294-.876-.332.503-.071.946-.324 1.328-.758.382-.434.584-.99.604-1.666-.033-.675-.313-1.208-.841-1.6a2.935 2.935 0 0 0-1.747-.599 6.381 6.381 0 0 0-1.68.297c-.605.184-1.075.374-1.407.569zm8.222 7.063a1.055 1.055 0 0 0-.79 1.753c.169.192.384.308.647.35l-.944 1.498h.794c.12-.177.336-.52.645-1.032.31-.51.506-.857.588-1.039.03-.074.055-.15.077-.229a.944.944 0 0 0 .035-.245c0-.582-.47-1.054-1.052-1.056zm7.296-6.094l.483-1.575h-5.554v4.726l1.087.606c.12-.083.302-.22.543-.409.242-.19.543-.295.906-.318.546.023.963.22 1.252.59.29.372.436.78.438 1.228-.03.606-.272 1.06-.724 1.363a2.56 2.56 0 0 1-1.45.454c-.41.004-.82-.027-1.224-.093a2.78 2.78 0 0 1-1.07-.391l.242 1.575c.028.02.274.1.74.242.465.142.983.222 1.554.243 1.16-.026 2.07-.369 2.732-1.03.662-.662.999-1.49 1.011-2.485-.038-.974-.354-1.721-.95-2.241-.597-.52-1.246-.783-1.948-.788a2.794 2.794 0 0 0-.856.121 1.413 1.413 0 0 0-.713.485v-2.303h3.501zM162.76 663.876h1.108l.277-3.614 1.477 2.966 1.477-2.966.277 3.614h1.108l-.461-5.19h-1.108l-1.293 2.596-1.293-2.595h-1.108z" fill="#000"/><path d="M189.5 587h-131a6.5 6.5 0 0 0-6.5 6.5v111a6.5 6.5 0 0 0 6.5 6.5h131a6.5 6.5 0 0 0 6.5-6.5v-111a6.5 6.5 0 0 0-6.5-6.5zm-131 1h131a5.5 5.5 0 0 1 5.5 5.5v111a5.5 5.5 0 0 1-5.5 5.5h-131a5.5 5.5 0 0 1-5.5-5.5v-111a5.5 5.5 0 0 1 5.5-5.5z" fill="#000"/></g></g></svg>