<svg width="95" height="136" xmlns="http://www.w3.org/2000/svg"><g transform="translate(5 4)" fill="none" fill-rule="evenodd"><rect stroke="#000" fill="#FFF" x=".5" y=".5" width="85" height="127" rx="6"/><g fill-rule="nonzero"><path d="M6.03 3A3.018 3.018 0 0 0 3 6.02v115.96A3.018 3.018 0 0 0 6.03 125h73.94a3.018 3.018 0 0 0 3.03-3.02V6.02A3.018 3.018 0 0 0 79.97 3H6.03zm7.508 18h58.924A5.526 5.526 0 0 1 78 26.538v58.924A5.526 5.526 0 0 1 72.462 91H13.538A5.526 5.526 0 0 1 8 85.462V26.538A5.526 5.526 0 0 1 13.538 21z" fill="#0D69E1"/><g fill="#000"><path d="M24.883 45.632h-3.948l4.474 21.053h4.21l3.422-13.873 3.42 13.873h4.21l4.475-21.053h-3.947l-2.895 14.925-3.421-14.925h-3.684L28.04 60.33h-.226zM57.433 45.105c-2.89.08-5.042 1.158-6.456 3.237-1.415 2.08-2.12 4.685-2.115 7.816-.005 3.131.7 5.736 2.115 7.815 1.414 2.08 3.566 3.159 6.456 3.238 1.986-.028 3.593-.565 4.823-1.612 1.229-1.047 2.165-2.44 2.809-4.178l-3.534-1.316c-.394 1.305-.932 2.248-1.613 2.83-.681.58-1.51.865-2.485.854-1.475-.021-2.67-.701-3.585-2.039-.916-1.338-1.387-3.202-1.415-5.592.028-2.39.5-4.254 1.415-5.592s2.11-2.018 3.585-2.04c.976-.01 1.804.274 2.485.856.681.58 1.219 1.524 1.613 2.829l3.534-1.316c-.644-1.738-1.58-3.13-2.81-4.178-1.229-1.047-2.836-1.584-4.822-1.612z"/></g></g></g></svg>