<svg width="100" height="86" xmlns="http://www.w3.org/2000/svg"><g transform="translate(10 3)" fill="none" fill-rule="evenodd"><path d="M2 0h76a2 2 0 0 1 2 2v72a6 6 0 0 1-6 6H2a2 2 0 0 1-2-2V2a2 2 0 0 1 2-2z" fill="#FFF" fill-rule="nonzero"/><rect stroke="#000" x=".5" y=".5" width="79" height="79" rx="6"/><path d="M6.304 3A3.296 3.296 0 0 0 3 6.304V50.57h14.536v5.286H32.07v5.286h14.536v5.286h14.536v5.285H77V6.304A3.296 3.296 0 0 0 73.696 3H6.304zM36.87 6.853c3.604 0 4.563 2.556 4.563 4.05 0 3.553-4.53 4.836-6.31 4.836-2.47 0-3.473-2.246-3.473-3.976 0-1.993 1.677-4.91 5.22-4.91zm2.473 9.518c.45-.004.9.106 1.305.33l8.664 4.803a.929.929 0 0 1 .45.587l2.267 9.084a2.116 2.116 0 0 1-4.105 1.024l-1.82-7.3a.923.923 0 0 0-.447-.587l-4.542-2.515 1.838 11.583a1.456 1.456 0 0 1-.777 1.524l-12.88 6.562V52.62a2.379 2.379 0 0 1-4.757 0V39.28c0-.447.25-.858.649-1.06l9.274-4.725a.925.925 0 0 0 .496-.946l-1.602-12.177c-.07-.53.185-1.05.648-1.318l4.039-2.333a2.647 2.647 0 0 1 1.3-.35zm-7.077 7.871l.607 4.604-5.41 3.382a2.117 2.117 0 0 1-2.915-.673 2.112 2.112 0 0 1 .673-2.911l7.045-4.402zm9.241 12.78l3.61 20.47a2.377 2.377 0 1 1-4.683.826l-3.358-19.037 4.431-2.258zM3 55.858v17.84A3.296 3.296 0 0 0 6.304 77H58.5v-5.286H43.964V66.43H29.43v-5.286H14.893v-5.286H3z" fill="#0D69E1" fill-rule="nonzero"/></g></svg>