<svg width="100" height="86" xmlns="http://www.w3.org/2000/svg"><g transform="translate(10 3)" fill="none" fill-rule="evenodd"><circle fill="#FFF" fill-rule="nonzero" cx="40" cy="40" r="40"/><circle stroke="#000" cx="40" cy="40" r="40.5"/><g fill-rule="nonzero"><path d="M40 77.86c20.91 0 37.86-16.95 37.86-37.86S60.91 2.14 40 2.14 2.14 19.09 2.14 40 19.09 77.86 40 77.86zm20.204-14.112A31.18 31.18 0 0 1 40 71.179C22.78 71.18 8.82 57.22 8.82 40a31.18 31.18 0 0 1 7.432-20.204l43.952 43.952zM19.796 16.252A31.18 31.18 0 0 1 40 8.821C57.22 8.82 71.18 22.78 71.18 40a31.18 31.18 0 0 1-7.432 20.204L19.796 16.252z" fill="red"/><path d="M16.336 21.454A30.066 30.066 0 0 0 9.934 40c0 16.605 13.461 30.066 30.066 30.066a30.066 30.066 0 0 0 18.546-6.402L43.772 48.89v14.997h-7.544v-22.54L16.336 21.453zM63.664 58.546A30.066 30.066 0 0 0 70.066 40C70.066 23.395 56.605 9.934 40 9.934a30.066 30.066 0 0 0-18.546 6.402L36.228 31.11V16.113h7.544v22.54l19.892 19.893z" fill="#0D69E1"/></g></g></svg>