<svg width="115" height="71" xmlns="http://www.w3.org/2000/svg"><g transform="translate(8 11)" fill-rule="nonzero" fill="none"><rect fill="#000" y=".166" width="100" height="49.669" rx="6.3"/><path d="M7.5 1.821c-3.232 0-5.833 2.585-5.833 5.795V22.02h4.64L24.333 9.939V7.616c0-.64.523-1.159 1.167-1.159s1.167.519 1.167 1.159v3.658l15.692 15.589h8.474c.553 0 1 .444 1 .993a.997.997 0 0 1-1 .993h-9.302L26.667 14.083v7.937h2.666v10.927h-3.416c0-3.109-2.537-5.63-5.667-5.63s-5.667 2.521-5.667 5.63H1.667v4.967h96.666V7.616c0-3.21-2.601-5.795-5.833-5.795h-85zm16.833 10.115L9.286 22.02h15.047V11.936zM1.667 39.156v3.228c0 3.21 2.601 5.795 5.833 5.795h85c3.232 0 5.833-2.585 5.833-5.795v-3.228H1.667z" fill="#FFF"/><path d="M20.25 29.305c-2.393 0-4.333 1.927-4.333 4.304 0 2.378 1.94 4.305 4.333 4.305 2.393 0 4.333-1.927 4.333-4.305 0-2.377-1.94-4.304-4.333-4.304zm0 1.738a2.575 2.575 0 0 1 2.583 2.566 2.575 2.575 0 0 1-2.583 2.567 2.575 2.575 0 0 1-2.583-2.567 2.575 2.575 0 0 1 2.583-2.566zM67.703 8.889a2.152 2.152 0 0 0-.844.222l-9.817 4.838c-.44.217-.942.277-1.422.17L44.344 11.61a2.149 2.149 0 0 0-2.49 1.366l-1.37 3.808c-.305.9.152 1.877 1.032 2.235 1.416-2.224 4.264-3.229 6.854-2.26 2.962 1.106 4.468 4.381 3.36 7.31l19.077 7.13c1.11-2.93 4.413-4.409 7.375-3.302 2.715 1.015 4.201 3.846 3.578 6.566l1.125.109a1.806 1.806 0 0 0 1.714-.844l3.083-4.977a2.119 2.119 0 0 0 .193-1.842L83.714 15.48a2.14 2.14 0 0 0-1.266-1.267l-13.88-5.19a2.164 2.164 0 0 0-.865-.134zm-.057 1.707c.184-.01.37.022.547.088l13.776 5.148a1.681 1.681 0 0 1 1.062 1.914l-.896 4.336a1.693 1.693 0 0 1-2.255 1.237l-18.864-7.047a1.349 1.349 0 0 1-.792-1.739c.12-.319.36-.578.667-.73l6.224-3.067a1.35 1.35 0 0 1 .53-.14z" fill="#000"/><path d="M48.034 17.652c-2.452-.917-5.187.315-6.11 2.75-.922 2.436.318 5.153 2.77 6.07 2.452.916 5.187-.316 6.11-2.751.922-2.436-.318-5.153-2.77-6.07zm-.676 1.785a2.8 2.8 0 0 1 1.649 3.612 2.829 2.829 0 0 1-3.637 1.638 2.8 2.8 0 0 1-1.648-3.613 2.829 2.829 0 0 1 3.636-1.637zM77.842 28.79c-2.452-.915-5.187.316-6.11 2.752-.922 2.435.318 5.153 2.77 6.069 2.451.916 5.187-.316 6.11-2.751.921-2.436-.318-5.153-2.77-6.07zm-.676 1.786a2.8 2.8 0 0 1 1.648 3.612 2.829 2.829 0 0 1-3.636 1.638 2.8 2.8 0 0 1-1.649-3.613 2.829 2.829 0 0 1 3.637-1.637z" fill="#000"/></g></svg>