<svg width="115" height="71" xmlns="http://www.w3.org/2000/svg"><g transform="translate(8 11)" fill="none" fill-rule="evenodd"><rect stroke="#000" stroke-width="2" fill="#FFF" x="1" y="1" width="98" height="48" rx="6"/><g fill="#000" fill-rule="nonzero"><path d="M20.684 21.896v-6.209L4.434 25l16.25 9.313v-6.209h12.5v-6.208zM37.09 17.87l1.085 2.415c.561-.49 1.108-.847 1.64-1.07.533-.221 1.197-.33 1.993-.327a2.202 2.202 0 0 1 1.41.535c.405.344.619.777.64 1.299-.025.637-.384 1.248-1.076 1.833-.692.586-1.564.994-2.615 1.223v2.24a2 2 0 0 1 .685-.178c.248-.02.498-.03.75-.025 1.288.056 2.104.366 2.45.931.347.565.497 1.05.45 1.455-.043.94-.402 1.628-1.076 2.063-.674.435-1.487.65-2.439.644-.7.004-1.432-.063-2.197-.2-.765-.138-1.41-.372-1.934-.702l.352 2.852c.072.029.565.145 1.48.349.914.204 1.817.32 2.71.35 1.956-.069 3.449-.646 4.478-1.732 1.03-1.087 1.549-2.275 1.557-3.565-.03-.88-.299-1.61-.806-2.189a5.474 5.474 0 0 0-1.69-1.328c-.62-.306-1.117-.492-1.489-.558.855-.119 1.607-.543 2.256-1.273.65-.73.991-1.664 1.025-2.801-.054-1.135-.53-2.03-1.428-2.689-.897-.657-1.886-.993-2.966-1.007-.872.022-1.823.188-2.853.498-1.03.31-1.827.629-2.391.957zM55.699 16.647c-1.666.043-3 .824-4 2.343-.999 1.52-1.512 3.523-1.537 6.01.025 2.487.538 4.49 1.538 6.01 1 1.52 2.333 2.3 3.999 2.343 1.666-.043 3-.824 3.999-2.343 1-1.52 1.512-3.523 1.538-6.01-.026-2.372-.538-4.343-1.538-5.912-1-1.568-2.333-2.382-4-2.44zm0 2.532c.803-.012 1.445.45 1.926 1.383.481.934.728 2.413.74 4.438-.012 2.025-.259 3.504-.74 4.438-.48.934-1.123 1.395-1.926 1.383-.803.012-1.446-.45-1.926-1.383-.481-.934-.728-2.413-.74-4.438.012-2.025.259-3.504.74-4.438.48-.934 1.123-1.395 1.926-1.383zM69.228 16.647c-1.667.043-3 .824-4 2.343-1 1.52-1.512 3.523-1.538 6.01.026 2.487.539 4.49 1.538 6.01 1 1.52 2.333 2.3 4 2.343 1.666-.043 2.999-.824 3.999-2.343 1-1.52 1.512-3.523 1.538-6.01-.026-2.372-.539-4.343-1.538-5.912-1-1.568-2.333-2.382-4-2.44zm0 2.532c.803-.012 1.445.45 1.926 1.383.48.934.727 2.413.74 4.438-.013 2.025-.26 3.504-.74 4.438-.481.934-1.123 1.395-1.926 1.383-.804.012-1.446-.45-1.927-1.383-.48-.934-.727-2.413-.74-4.438.013-2.025.26-3.504.74-4.438.481-.934 1.123-1.395 1.927-1.383zM79.083 33.149h2.46l.616-7.945 3.28 6.519 3.283-6.52.615 7.946h2.46L90.773 21.74H88.31l-2.871 5.704-2.871-5.704h-2.461z"/></g></g></svg>