<svg width="163" height="71" xmlns="http://www.w3.org/2000/svg"><g transform="translate(12 12)" fill="none" fill-rule="evenodd"><rect fill="#FFF" fill-rule="nonzero" width="139" height="46.667" rx="6"/><path d="M7.52 3C5.015 3 3 4.892 3 7.242v31.516C3 41.108 5.016 43 7.52 43h123.96c2.504 0 4.52-1.892 4.52-4.242V7.242C136 4.892 133.984 3 131.48 3H7.52zm11.482 10c2.697.069 4.705.997 6.025 2.786 1.32 1.79 1.977 4.028 1.973 6.714.004 2.686-.653 4.925-1.973 6.714-1.32 1.79-3.328 2.717-6.025 2.786-2.697-.069-4.71-.997-6.03-2.786-1.32-1.79-1.976-4.028-1.972-6.714-.004-2.686.653-4.925 1.973-6.714 1.32-1.79 3.332-2.717 6.029-2.786zm61 0c2.697.069 4.705.997 6.025 2.786 1.32 1.79 1.977 4.028 1.973 6.714.004 2.686-.653 4.925-1.973 6.714-1.32 1.79-3.328 2.717-6.025 2.786-2.697-.069-4.71-.997-6.03-2.786-1.32-1.79-1.976-4.028-1.972-6.714-.004-2.686.653-4.925 1.973-6.714 1.32-1.79 3.332-2.717 6.029-2.786zm39.996 0c2.697.069 4.71.997 6.03 2.786 1.32 1.79 1.976 4.028 1.972 6.714.004 2.686-.653 4.925-1.973 6.714-1.32 1.79-3.332 2.717-6.029 2.786-2.697-.069-4.705-.997-6.025-2.786-1.32-1.79-1.977-4.028-1.973-6.714-.004-2.686.653-4.925 1.973-6.714 1.32-1.79 3.328-2.717 6.025-2.786zM33 14h6.5c2.376.103 4.061.797 5.054 2.081.993 1.285 1.475 2.54 1.445 3.769-.03 1.228-.632 2.484-1.806 3.769-1.173 1.284-2.738 1.978-4.694 2.081H36.37V32H33V14zm21.93 0H67v18.531h-3.38V16.78h-5.31c.002.071 0 .7-.008 1.887a226.485 226.485 0 0 1-.06 3.946c-.035 1.444-.094 2.589-.173 3.432-.298 2.128-.963 3.688-1.996 4.683-1.033.995-2.028 1.633-2.985 1.907-.957.275-1.47.394-1.537.36L51 29.882c.037.005.323-.098.857-.31.534-.21 1.094-.563 1.678-1.057.583-.495.968-1.164 1.154-2.008.08-.514.139-1.492.173-2.934.034-1.441.053-3.037.06-4.787.008-1.75.01-3.346.009-4.787zM93 14h7.614c1.852.058 3.27.585 4.257 1.582.988.998 1.485 2.121 1.494 3.368-.009.698-.26 1.385-.757 2.055-.496.67-1.177 1.184-2.047 1.545 1.003.338 1.822.844 2.457 1.519.634.675.962 1.519.982 2.531-.037 1.505-.641 2.768-1.81 3.795-1.167 1.027-2.682 1.563-4.543 1.605H93V14zm-73.5 2c-1.327.019-2.405.598-3.229 1.737-.824 1.14-1.246 2.727-1.271 4.763.025 2.036.447 3.624 1.271 4.763.824 1.14 1.902 1.718 3.229 1.737 1.327-.019 2.401-.598 3.225-1.737.824-1.14 1.25-2.727 1.275-4.763-.025-2.036-.451-3.624-1.275-4.763-.824-1.14-1.898-1.718-3.225-1.737zm60 0c-1.327.019-2.405.598-3.229 1.737-.824 1.14-1.246 2.727-1.271 4.763.025 2.036.447 3.624 1.271 4.763.824 1.14 1.902 1.718 3.229 1.737 1.327-.019 2.401-.598 3.225-1.737.824-1.14 1.25-2.727 1.275-4.763-.025-2.036-.451-3.624-1.275-4.763-.824-1.14-1.898-1.718-3.225-1.737zm40 0c-1.327.019-2.401.598-3.225 1.737-.824 1.14-1.25 2.727-1.275 4.763.025 2.036.451 3.624 1.275 4.763.824 1.14 1.898 1.718 3.225 1.737 1.327-.019 2.405-.598 3.229-1.737.824-1.14 1.246-2.727 1.271-4.763-.025-2.036-.447-3.624-1.271-4.763-.824-1.14-1.902-1.718-3.229-1.737zM36 17v6h2.16c1 .009 1.88-.223 2.64-.697.76-.473 1.16-1.24 1.2-2.303-.04-1.062-.44-1.83-1.2-2.303-.76-.474-1.64-.706-2.64-.697H36zm61 0v5h3.692c.702-.013 1.26-.245 1.673-.701.414-.456.625-1.057.635-1.799-.024-.849-.266-1.478-.723-1.888a2.284 2.284 0 0 0-1.585-.612H97zm0 7v5h4.103c.966-.03 1.69-.296 2.173-.802.483-.506.724-1.073.724-1.698s-.241-1.192-.724-1.698-1.207-.772-2.173-.802H97z" fill="#0D69E1" fill-rule="nonzero"/><path fill="red" fill-rule="nonzero" d="M94.195 3L32 43h13.805L108 3z"/><rect stroke="#000" x=".633" y=".633" width="138" height="45.156" rx="6"/></g></svg>