<svg width="181" height="105" xmlns="http://www.w3.org/2000/svg"><g fill="none" fill-rule="evenodd"><path d="M0 0h181v105H0z"/><path d="M9.3 2h69.4A6.3 6.3 0 0 1 85 8.3v70.4a6.3 6.3 0 0 1-6.3 6.3H9.3A6.3 6.3 0 0 1 3 78.7V8.3A6.3 6.3 0 0 1 9.3 2z" fill="#FFF" fill-rule="nonzero"/><path d="M78.293 5C80.901 5 83 7.1 83 9.707v68.586C83 80.901 80.9 83 78.293 83H9.707A4.697 4.697 0 0 1 5 78.293V9.707C5 7.099 7.1 5 9.707 5h68.586zm-46.9 6.22H8.697v65.56h22.694V11.22h.002zm16.015 9.33c-2.737 0-6.245 3.396-6.245 7.157 0 3.739 3.085 5.723 4.627 5.723 2.358 0 4.997-5.537 4.997-8.623-.06-2.558-1.367-4.257-3.379-4.257zm16.92 10.418h-13.33c-.044 0-.088-.003-.131 0-.643.048-1.226.458-1.55 1.088l-1.778 3.446a2.4 2.4 0 0 0 0 2.173l5.992 11.629-9.052 5.85c-.6.388-.97 1.11-.97 1.887v17.218c0 1.6 1.159 2.9 2.588 2.9 1.43 0 2.585-1.3 2.585-2.9v-15.13l11.363-7.342c1.548-1 2.075-3.213 1.181-4.946l-5.572-10.8h7.014l5.82 6.522c.948 1.06 2.487 1.06 3.434 0 .947-1.061.947-2.785 0-3.846l-6.447-7.22a1.543 1.543 0 0 0-1.147-.53v.001zM46.32 38.583l-3.51 6.812-5.446-3.522c-1.16-.75-2.646-.307-3.316.992-.67 1.3-.27 2.96.891 3.711l7.952 5.144c.773.5 1.76.203 2.206-.664l3.837-7.405-2.614-5.068zM76.44 52.46a2.373 2.373 0 0 0-1.353.386l-10.351 6.695-3.363-6.518-4.48 2.896 5.132 9.964c.447.866 1.437 1.16 2.21.66l13.44-8.674c1.238-.8 1.665-2.577.95-3.964-.469-.91-1.311-1.423-2.185-1.445z" fill="#00A500" fill-rule="nonzero"/><path d="M8.16 2.5A5.66 5.66 0 0 0 2.5 8.16v71.68a5.66 5.66 0 0 0 5.66 5.66h71.68a5.66 5.66 0 0 0 5.66-5.66V8.16a5.66 5.66 0 0 0-5.66-5.66H8.16z" stroke="#000"/><path d="M172.7 2h-69.4A6.3 6.3 0 0 0 97 8.3v70.4a6.3 6.3 0 0 0 6.3 6.3h69.4a6.3 6.3 0 0 0 6.3-6.3V8.3a6.3 6.3 0 0 0-6.3-6.3z" fill="#FFF" fill-rule="nonzero"/><path d="M103.707 5A4.697 4.697 0 0 0 99 9.707v68.586c0 2.608 2.1 4.707 4.707 4.707h68.586c2.608 0 4.707-2.1 4.707-4.707V9.707C177 7.099 174.9 5 172.293 5h-68.586zm46.9 6.22h22.695v65.56h-22.694V11.22h-.001zm-16.015 9.33c2.737 0 6.245 3.396 6.245 7.157 0 3.739-3.085 5.723-4.627 5.723-2.358 0-4.997-5.537-4.997-8.623.06-2.558 1.367-4.257 3.379-4.257zm-16.92 10.418h13.33c.044 0 .088-.003.131 0 .643.048 1.226.458 1.55 1.088l1.778 3.446a2.4 2.4 0 0 1 0 2.173l-5.992 11.629 9.052 5.85c.6.388.97 1.11.97 1.887v17.218c0 1.6-1.159 2.9-2.588 2.9-1.43 0-2.585-1.3-2.585-2.9v-15.13l-11.363-7.342c-1.548-1-2.075-3.213-1.181-4.946l5.572-10.8h-7.014l-5.82 6.522c-.948 1.06-2.487 1.06-3.434 0-.947-1.061-.947-2.785 0-3.846l6.447-7.22a1.54 1.54 0 0 1 1.147-.53v.001zm18.008 7.615l3.51 6.812 5.446-3.522c1.16-.75 2.646-.307 3.316.992.67 1.3.27 2.96-.891 3.711l-7.952 5.144c-.773.5-1.76.203-2.206-.664l-3.837-7.405 2.614-5.068zM105.56 52.46c.458-.012.928.111 1.353.386l10.351 6.695 3.363-6.518 4.48 2.896-5.132 9.964c-.447.866-1.437 1.16-2.21.66l-13.44-8.674c-1.238-.8-1.665-2.577-.95-3.964.469-.91 1.311-1.423 2.185-1.445z" fill="#00A500" fill-rule="nonzero"/><path d="M173.84 2.5a5.66 5.66 0 0 1 5.66 5.66v71.68a5.66 5.66 0 0 1-5.66 5.66h-71.68a5.66 5.66 0 0 1-5.66-5.66V8.16a5.66 5.66 0 0 1 5.66-5.66h71.68z" stroke="#000"/><path d="M31.148 100.017c0 .879-.29 1.595-.872 2.15-.581.555-1.294.833-2.138.833-.428 0-.816-.066-1.166-.197a2.676 2.676 0 0 1-.928-.586c-.334-.321-.592-.747-.773-1.277-.18-.53-.271-1.168-.271-1.915 0-.766.083-1.445.248-2.037.156-.573.424-1.11.79-1.578a3.474 3.474 0 0 1 1.324-1.024c.541-.246 1.171-.369 1.89-.369.23 0 .422.01.578.03.155.019.313.054.472.104v1.108h-.058a2.17 2.17 0 0 0-.493-.165 2.903 2.903 0 0 0-.674-.079c-.836 0-1.503.26-2 .78-.498.521-.788 1.224-.87 2.11.327-.197.649-.347.966-.45.356-.108.728-.16 1.1-.153.369 0 .695.034.976.101.282.068.571.204.867.41.342.235.6.533.773.893.173.36.26.797.26 1.311h-.001zm-1.184.047c0-.36-.053-.658-.16-.894a1.535 1.535 0 0 0-.528-.615 1.491 1.491 0 0 0-.595-.244 3.897 3.897 0 0 0-1.604.058 4.106 4.106 0 0 0-.875.36 5.88 5.88 0 0 0-.024.546c0 .61.063 1.093.19 1.447.126.354.3.634.522.839a1.738 1.738 0 0 0 1.26.494c.564 0 1.007-.172 1.33-.514.323-.343.484-.835.484-1.477zm4.702 2.756H33.27v-1.654h1.395v1.654h.001zm8.294 0h-5.88v-1.213l1.228-1.044c.41-.348.793-.695 1.147-1.039.746-.72 1.258-1.29 1.534-1.715.276-.423.414-.88.414-1.372 0-.449-.149-.8-.446-1.053-.298-.253-.713-.38-1.246-.38-.354 0-.737.062-1.149.186-.427.13-.834.322-1.207.568h-.059V94.54c.276-.136.645-.26 1.106-.372.46-.112.907-.168 1.339-.168.89 0 1.588.214 2.094.641.505.428.758 1.007.758 1.738 0 .329-.042.636-.125.92a3.14 3.14 0 0 1-.37.81c-.153.24-.33.475-.535.707-.204.232-.452.49-.743.772-.416.406-.846.8-1.29 1.18-.443.382-.857.735-1.242 1.06h4.672v.992zm7.584-4.323c0 1.551-.244 2.69-.732 3.415-.489.725-1.246 1.088-2.273 1.088-1.042 0-1.803-.368-2.283-1.103s-.72-1.864-.72-3.388c0-1.536.242-2.67.729-3.404.486-.733 1.244-1.1 2.274-1.1 1.043 0 1.804.373 2.284 1.118.48.745.72 1.87.72 3.374h.001zm-1.535 2.635c.137-.314.229-.682.278-1.106.048-.423.072-.933.072-1.529 0-.588-.024-1.099-.072-1.532a3.569 3.569 0 0 0-.283-1.102 1.525 1.525 0 0 0-.557-.673c-.236-.151-.538-.227-.908-.227-.365 0-.667.076-.907.227-.239.15-.428.379-.568.684-.133.287-.223.66-.272 1.12-.048.46-.072.965-.072 1.515 0 .603.02 1.108.064 1.514.042.406.134.77.274 1.091.128.302.31.532.545.69.236.16.548.239.936.239.366 0 .67-.076.91-.227.242-.15.428-.379.56-.684zm5.192 1.688h-1.394v-1.654H54.2v1.654h.001zm7.799 0h-4.702v-.882h1.809v-5.791h-1.809v-.79c.245 0 .508-.02.788-.06.28-.04.492-.1.636-.177.179-.097.32-.22.423-.369.103-.148.162-.349.178-.6h.904v7.787H62v.882zm63.23-2.803c0 .879-.294 1.595-.883 2.15-.59.555-1.311.833-2.167.833-.433 0-.827-.066-1.182-.197a2.717 2.717 0 0 1-.94-.586c-.339-.321-.6-.747-.783-1.277-.183-.53-.275-1.168-.275-1.915 0-.766.084-1.445.251-2.037a4.45 4.45 0 0 1 .801-1.578 3.515 3.515 0 0 1 1.342-1.024c.548-.246 1.186-.369 1.916-.369.232 0 .427.01.585.03.157.019.317.054.479.104v1.108h-.06a2.22 2.22 0 0 0-.499-.165 2.98 2.98 0 0 0-.683-.079c-.847 0-1.523.26-2.027.78-.505.521-.799 1.224-.881 2.11.33-.197.657-.347.978-.45.361-.108.737-.16 1.114-.153.375 0 .705.034.99.101.286.068.579.204.879.41.346.235.607.533.783.893.175.36.263.797.263 1.311h-.001zm-1.2.047c0-.36-.053-.658-.162-.894a1.54 1.54 0 0 0-.535-.615 1.523 1.523 0 0 0-.603-.244 4.001 4.001 0 0 0-1.625.058 4.193 4.193 0 0 0-.887.36 5.807 5.807 0 0 0-.024.546c0 .61.064 1.093.192 1.447.128.354.305.634.53.839.342.329.802.507 1.276.493.572 0 1.021-.171 1.348-.513.327-.343.49-.835.49-1.477zm4.766 2.756h-1.413v-1.654h1.413v1.654zm8.406 0h-5.959v-1.213l1.244-1.044c.416-.348.803-.695 1.162-1.039.757-.72 1.275-1.29 1.555-1.715.28-.423.42-.88.42-1.372 0-.449-.151-.8-.453-1.053-.301-.253-.722-.38-1.262-.38-.358 0-.747.062-1.164.186a4.78 4.78 0 0 0-1.224.568h-.06V94.54c.28-.136.654-.26 1.121-.372.467-.112.92-.168 1.357-.168.902 0 1.61.214 2.122.641.512.428.768 1.007.768 1.738 0 .329-.042.636-.127.92a3.12 3.12 0 0 1-.375.81c-.154.24-.334.475-.54.707-.208.232-.46.49-.755.772-.421.406-.857.8-1.306 1.18-.45.382-.87.735-1.26 1.06h4.736v.992zm7.685-4.323c0 1.551-.247 2.69-.742 3.415-.494.725-1.262 1.088-2.302 1.088-1.057 0-1.828-.368-2.315-1.103-.487-.735-.73-1.864-.73-3.388 0-1.536.246-2.67.739-3.404.493-.733 1.261-1.1 2.306-1.1 1.056 0 1.827.373 2.314 1.118.487.745.73 1.87.73 3.374zm-1.555 2.635a3.84 3.84 0 0 0 .281-1.106c.05-.423.074-.933.074-1.529 0-.588-.025-1.099-.074-1.532-.05-.433-.145-.8-.287-1.102a1.53 1.53 0 0 0-.564-.673c-.239-.151-.545-.227-.92-.227-.37 0-.676.076-.919.227-.242.15-.434.379-.576.684-.134.287-.226.66-.275 1.12a14.1 14.1 0 0 0-.074 1.515c0 .603.022 1.108.065 1.514.044.406.136.77.278 1.091.13.302.314.532.553.69.238.16.554.239.949.239.37 0 .677-.076.922-.227.244-.15.433-.379.567-.684zm5.262 1.688h-1.413v-1.654h1.413v1.654zm8.406 0h-5.959v-1.213l1.244-1.044c.416-.348.803-.695 1.162-1.039.757-.72 1.275-1.29 1.555-1.715.28-.423.42-.88.42-1.372 0-.449-.151-.8-.453-1.053-.301-.253-.722-.38-1.262-.38-.358 0-.747.062-1.164.186a4.78 4.78 0 0 0-1.224.568h-.06V94.54c.28-.136.654-.26 1.121-.372.467-.112.92-.168 1.357-.168.902 0 1.61.214 2.122.641.512.428.769 1.007.769 1.738 0 .329-.043.636-.128.92a3.12 3.12 0 0 1-.375.81c-.154.24-.334.475-.54.707-.208.232-.459.49-.755.772-.421.406-.857.8-1.306 1.18-.45.382-.87.735-1.26 1.06H157v.992z" fill="#8B8B8B" fill-rule="nonzero"/></g></svg>