<svg width="100" height="86" xmlns="http://www.w3.org/2000/svg"><g fill="none" fill-rule="evenodd"><path d="M55.464 6.502c3.267 5.663 6.466 11.286 11.217 19.692l4.76 8.425c10.212 18.068 16.33 28.664 23.07 39.766 2.228 3.668-.924 8.996-5.175 8.996H10.534c-4.251 0-7.403-5.328-5.176-8.996 6.738-11.099 12.84-21.67 23.068-39.763l4.632-8.2c4.828-8.54 8.048-14.2 11.348-19.92 2.852-4.943 8.207-4.943 11.058 0z" stroke="#0C0E0F"/><path d="M11.61 73.352l-.003.006-.556.967-.016.028a108.335 108.335 0 0 1-1.5 2.568c-.22.362.5 1.574 1 1.574h78.8c.5 0 1.22-1.212 1-1.575-.436-.718-.772-1.295-1.502-2.57l-.02-.036c-.266-.463-.396-.69-.554-.962L51.232 8.943c-.918-1.591-1.675-1.591-2.591-.003L11.61 73.352z" stroke="red" stroke-width="6" fill="#FFF"/><path d="M47.512 70.983h-7.51L40 57.313c-.003-6.38.822-10.758 4.56-16.048 3.037-3.84 7.315-7.193 10.844-10.265l4.901 5.777c-2.198 1.914-8.166 6.712-9.856 9.105-2.125 3.007-2.938 6.363-2.937 10.005v15.096z" fill="#000"/></g></svg>