<svg width="100" height="86" xmlns="http://www.w3.org/2000/svg"><g transform="translate(10 3)" fill="none" fill-rule="evenodd"><circle fill="#FFF" fill-rule="nonzero" cx="40" cy="40" r="40"/><circle stroke="#000" cx="40" cy="40" r="40.386"/><circle fill="#0D69E1" fill-rule="nonzero" cx="40" cy="40" r="37.714"/><path d="M48.628 62.658a2.452 2.452 0 1 0 4.757-1.187l-3.59-14.4a1.033 1.033 0 0 0-.272-.48l-6.49-6.491V26.384a1.29 1.29 0 0 0-.646-1.118l-3.33-1.923a2.58 2.58 0 0 0-2.582 0l-8.217 4.744a2.58 2.58 0 0 0-1.29 2.235v9.033a1.935 1.935 0 1 0 3.87 0v-7.69c0-.37.197-.71.517-.895l3.484-2.011v10.828c0 .342.136.67.378.912L45.52 50.803c.132.132.226.298.272.48l2.836 11.375z" fill="#FFF" fill-rule="nonzero"/><path d="M35.557 42.664L25.064 60.84a2.451 2.451 0 1 0 4.246 2.451l9.836-17.036-3.59-3.59zM44.323 37.318l4.631 4.631a1.936 1.936 0 0 0 2.737-2.737l-7.368-7.368v5.474zM38.71 13.355c1.2 0 5.896 1.084 5.896 4.903 0 1.548-1.006 4.065-3.187 4.065-1.548 0-6.49-2.44-6.49-5.484 0-2.658 2.361-3.484 3.78-3.484z" fill="#FFF" fill-rule="nonzero"/></g></svg>