<svg width="115" height="71" xmlns="http://www.w3.org/2000/svg"><g transform="translate(8 11)" fill-rule="nonzero" fill="none"><rect fill="#000" y=".166" width="100" height="49.669" rx="6.3"/><path d="M7.5 1.821c-3.232 0-5.833 2.585-5.833 5.795v9.096c.249-.092.515-.14.786-.14h15.485c.655 0 1.277.28 1.703.776l8.297 9.65a2.22 2.22 0 0 1 .494 1.872l-1.172 5.986a1.876 1.876 0 0 1-1.364 1.449l-1.136.305c-.397-2.885-2.899-5.106-5.927-5.106-3.304 0-5.984 2.647-5.984 5.913H1.667v4.967c0 3.21 2.601 5.795 5.833 5.795h85c3.232 0 5.833-2.585 5.833-5.795V7.616c0-3.21-2.601-5.795-5.833-5.795h-85zM2.703 18.326c-.392 0-.769.165-1.036.45v7.631h17.13a1.755 1.755 0 0 0 1.745-2.028l-.724-4.568a1.771 1.771 0 0 0-1.75-1.485H2.703z" fill="#FFF"/><path d="M70.049 12.117a14.933 14.933 0 0 0-13.194 7.892 10.242 10.242 0 0 0-4.042-.83 10.222 10.222 0 0 0-9.869 7.485 6.323 6.323 0 0 0-3.1-.81c-3.495 0-6.328 2.814-6.328 6.286 0 .763.14 1.496.39 2.173H29.21l-.771.931 6.713 1.111a6.33 6.33 0 0 0 4.693 2.071 6.324 6.324 0 0 0 5.102-2.58 10.232 10.232 0 0 0 7.867 3.667c2.462 0 4.714-.87 6.479-2.31a14.917 14.917 0 0 0 10.757 4.56c8.241 0 14.922-6.636 14.922-14.823 0-8.186-6.681-14.823-14.922-14.823zm0 1.164c7.594 0 13.75 6.116 13.75 13.66 0 7.543-6.156 13.658-13.75 13.658a13.758 13.758 0 0 1-9.898-4.176l-.034-.039c-.092-.095-.18-.193-.268-.291a14.44 14.44 0 0 1-.474-.543c-.067.07-.136.14-.205.208l-.112.107-.098.092a9.123 9.123 0 0 1-.161.146l-.059.048-.014.015-.21.174a9.057 9.057 0 0 1-5.704 2.009 9.066 9.066 0 0 1-7.226-3.575l-.034-.044c-.05-.067-.098-.135-.147-.204l-.024-.034c-.014-.02-.025-.042-.04-.063-.04-.06-.086-.118-.126-.18a8.846 8.846 0 0 1-.152-.237l-.004-.01a9.185 9.185 0 0 1-.152-.256 5.252 5.252 0 0 1-.068.198l-.049.131-.024.063a5.292 5.292 0 0 1-.273.558l-.006.005c-.057.1-.118.2-.18.296 0 .002.003.003.004.005a5.317 5.317 0 0 1-4.467 2.415c-2.934 0-5.313-2.362-5.313-5.277s2.379-5.277 5.313-5.277c1.058 0 2.043.305 2.87.834v.005c.19.12.371.25.543.393l.024.019c.067.056.132.115.196.175.02.02.042.038.063.058l.059.058c.063.063.125.128.185.194.009-.104.017-.208.03-.31.002-.018.007-.036.01-.054.009-.075.017-.149.029-.223.013-.089.028-.178.044-.267.76-4.208 4.46-7.401 8.916-7.401a9.071 9.071 0 0 1 4.067.96h.005c.086.043.174.085.259.13.085.047.17.097.253.146.072-.165.147-.327.225-.49a13.761 13.761 0 0 1 12.427-7.81v.001zM18.83 32.498c-2.734 0-4.951 2.203-4.951 4.92 0 2.716 2.217 4.918 4.952 4.918 2.734 0 4.951-2.202 4.951-4.919 0-2.716-2.217-4.919-4.951-4.919zm0 1.991a2.938 2.938 0 0 1 2.948 2.928 2.938 2.938 0 0 1-2.947 2.928 2.938 2.938 0 0 1-2.948-2.928 2.938 2.938 0 0 1 2.948-2.928z" fill="#000"/><path fill="red" d="M81.146 1.821h-7.071L27.408 48.179h7.071z"/></g></svg>