<svg width="115" height="71" xmlns="http://www.w3.org/2000/svg"><g transform="translate(8 11)" fill-rule="nonzero" fill="none"><rect fill="#000" y=".166" width="100" height="49.669" rx="6.3"/><rect fill="#FFF" x="1.667" y="1.821" width="96.667" height="46.358" rx="4.9"/><path d="M60.781 17.394c-6.903 0-12.5 5.56-12.5 12.418s5.597 12.417 12.5 12.417c6.904 0 12.5-5.56 12.5-12.417 0-6.858-5.596-12.418-12.5-12.418zm0 2.484c5.523 0 10 4.447 10 9.934 0 5.486-4.477 9.933-10 9.933s-10-4.447-10-9.933c0-5.487 4.477-9.934 10-9.934z" fill="#000"/><path d="M60.781 21.43c-4.66 0-8.437 3.753-8.437 8.382s3.777 8.381 8.437 8.381c4.66 0 8.438-3.752 8.438-8.381 0-4.63-3.778-8.382-8.438-8.382zm0 2.328c3.366 0 6.094 2.71 6.094 6.054 0 3.343-2.728 6.053-6.094 6.053-3.365 0-6.093-2.71-6.093-6.053 0-3.344 2.728-6.054 6.093-6.054z" fill="#000"/><path d="M70.562 4.706a.39.39 0 0 0-.391.388v5.238l-4.59.03a.39.39 0 0 0-.386.387c0 .155.093.287.225.35v.004l.015.005 3.77 1.712-2.755 2.722-.01.014-.815-.538v-2.435h-5.156v2.876a14.444 14.444 0 0 0-8.506 2.978l-26.65-.111a3.421 3.421 0 0 0-3.438 3.414v20.955c0 1.2.98 2.173 2.188 2.173h48.124c1.899 0 3.438-1.53 3.438-3.415V21.639l-3.735-2.474.014-.02 2.149-3.584 3.667 2.11a.393.393 0 0 0 .22.063.39.39 0 0 0 .36-.534l-1.2-2.963 2.636-1.17a.387.387 0 0 0-.054-.732v-.004l-3.53-.874 1.436-2.832a.39.39 0 0 0-.322-.606.39.39 0 0 0-.152.033v-.004l-3.696 1.518-2.5-4.623c-.005-.012-.008-.022-.015-.034h-.005a.386.386 0 0 0-.336-.203zm.39 1.94l1.929 3.565a.393.393 0 0 0 .508.208l3.051-1.256-1.2 2.377a.393.393 0 0 0 .273.558l2.88.718-1.957.863v.005a.383.383 0 0 0-.23.35c0 .065.015.13.044.183l.903 2.227-3.017-1.737a.393.393 0 0 0-.22-.063.39.39 0 0 0-.361.233l-1.607 2.673-.014-2.518a.39.39 0 0 0-.484-.378l-3.584.582 2.29-2.26a.384.384 0 0 0-.112-.626l-.01-.005h-.005l-2.675-1.217 3.208-.02a.39.39 0 0 0 .39-.388V6.646zm.205 8.842l.02 3.202-3.892-2.571 3.872-.63zm-10.376.742c7.551 0 13.672 6.08 13.672 13.582 0 7.5-6.121 13.581-13.672 13.581-7.55 0-13.672-6.08-13.672-13.581 0-7.501 6.121-13.582 13.672-13.582zm-30.937 5.2c2.502 0 4.531 1.042 4.531 2.328 0 1.286-2.029 2.329-4.531 2.329-2.503 0-4.532-1.043-4.532-2.329 0-1.286 2.03-2.328 4.532-2.328z" fill="#000"/><path d="M65.312 29.812c0 2.486-2.028 4.5-4.53 4.5-2.503 0-4.532-2.014-4.532-4.5s2.029-4.502 4.531-4.502c2.503 0 4.531 2.016 4.531 4.502zM33.125 23.763c0 .603-1.465 1.092-3.273 1.092-1.807 0-3.273-.489-3.273-1.092 0-.603 1.466-1.091 3.273-1.091 1.808 0 3.273.488 3.273 1.091z" fill="#000"/></g></svg>