<svg width="100" height="86" xmlns="http://www.w3.org/2000/svg"><g fill="none" fill-rule="evenodd"><path fill="#FFF" d="M49.521 34.332L21.382 18.08l-9.29 2.534 2.546 9.317 21.338 12.317-21.338 12.316-2.546 9.317 9.29 2.533 28.139-16.25 28.139 16.25 9.29-2.533-2.545-9.317-21.338-12.316 21.338-12.317 2.545-9.317-9.29-2.534z"/><path d="M49.521 33.754l28.07-16.21 9.974 2.72-2.732 9.997-20.766 11.987 20.766 11.986 2.732 9.998-9.974 2.72-28.07-16.21-28.069 16.21-9.974-2.72 2.732-9.998 20.765-11.986L14.21 30.26l-2.732-9.998 9.974-2.72 28.07 16.211z" stroke="#000"/><path d="M20.9 21.803l-4.553 1.242 1.257 4.598 25.302 14.605-25.302 14.604-1.257 4.599 4.553 1.242 28.621-16.53 28.62 16.53 4.554-1.242-1.257-4.6-25.301-14.603 25.301-14.605 1.257-4.598-4.553-1.242-28.62 16.53L20.9 21.802zM49.521 34.97l28.216-16.296 8.535 2.328-2.34 8.564-21.97 12.682 21.97 12.681 2.34 8.565-8.535 2.327-28.216-16.295L21.306 65.82l-8.535-2.327 2.34-8.565 21.97-12.681-21.97-12.682-2.34-8.564 8.535-2.328L49.52 34.97z" fill="red"/></g></svg>