<svg width="115" height="71" xmlns="http://www.w3.org/2000/svg"><g transform="translate(8 11)" fill-rule="nonzero" fill="none"><rect fill="#000" y=".166" width="100" height="49.669" rx="6.3"/><path d="M7.5 1.821c-3.232 0-5.833 2.585-5.833 5.795v29.801H50l9.375 6.209 5-2.018 3.922 1.418c1.473.532 3.026.802 4.594.802 2.08 0 4.055-.465 5.812-1.304a21.403 21.403 0 0 0 10.912 2.964c3.044 0 5.94-.63 8.562-1.769.101-.428.156-.875.156-1.335V7.616c0-3.21-2.601-5.795-5.833-5.795h-85z" fill="#FFF"/><path d="M21.901 7.616c-.727 0-1.503.548-1.74 1.231l-.88 2.535-1.823 5.242c-.001.004.002.01 0 .015l-.427 1.221c-1.038 0-1.875.83-1.875 1.863v7.45c0 1.032.837 1.863 1.875 1.863h28.125c1.039 0 1.875-.831 1.875-1.863v-7.45a1.865 1.865 0 0 0-1.875-1.863l-.427-1.22c-.002-.006.002-.012 0-.016l-1.823-5.242-.88-2.535c-.237-.683-1.012-1.231-1.74-1.231H21.901zm.573 1.862h17.24c.363 0 .756.275.875.616l2.692 7.766H18.906l2.698-7.766c.119-.341.506-.616.87-.616zM17.031 29.967v3.725a2.803 2.803 0 0 0 2.813 2.794 2.803 2.803 0 0 0 2.812-2.794v-3.725h-5.625zM39.531 29.967v3.725a2.803 2.803 0 0 0 2.813 2.794 2.803 2.803 0 0 0 2.812-2.794v-3.725h-5.625z" fill="#000"/></g></svg>