<svg width="100" height="86" xmlns="http://www.w3.org/2000/svg"><g fill="none" fill-rule="evenodd"><path d="M55.464 6.502c3.267 5.663 6.466 11.286 11.217 19.692l4.76 8.425c10.212 18.068 16.33 28.664 23.07 39.766 2.228 3.668-.924 8.996-5.175 8.996H10.534c-4.251 0-7.403-5.328-5.176-8.996 6.738-11.099 12.84-21.67 23.068-39.763l4.632-8.2c4.828-8.54 8.048-14.2 11.348-19.92 2.852-4.943 8.207-4.943 11.058 0z" stroke="#0C0E0F"/><path d="M11.61 73.352l-.003.006-.556.967-.016.028a108.335 108.335 0 0 1-1.5 2.568c-.22.362.5 1.574 1 1.574h78.8c.5 0 1.22-1.212 1-1.575-.436-.718-.772-1.295-1.502-2.57l-.02-.036c-.266-.463-.396-.69-.554-.962L51.232 8.943c-.918-1.591-1.675-1.591-2.591-.003L11.61 73.352z" stroke="red" stroke-width="6" fill="#FFF"/><g fill="#0C0E0F"><path d="M50.83 21.34a3.957 3.957 0 0 1 2.05 7.34 5.356 5.356 0 0 1-1.799 10.282 5.04 5.04 0 0 1-5.042 4.595h-2.67a4.888 4.888 0 0 0-4.643 3.362h-3.86a8.779 8.779 0 0 1 6.16-8.585 5.04 5.04 0 0 1 4.417-4.817 5.356 5.356 0 0 1 3.309-4.852 3.957 3.957 0 0 1 2.077-7.325zm9.164 34.248h4.33v-4.747h-4.33v4.747zm-2.766-7.385H68.78v2.783h-1.382V62.69h-10.17V48.203zm-23.993 4.536h1.56v-5.058h3.943v5.058h17.603v9.949H33.235c-2.828-3.317-2.961-6.633 0-9.949zm24.87 13.023a3.563 3.563 0 1 1 0 7.127 3.563 3.563 0 0 1 0-7.127zm0 2.172a1.392 1.392 0 1 1 0 2.784 1.392 1.392 0 0 1 0-2.784zm-9.698 0a1.392 1.392 0 1 1 0 2.783 1.392 1.392 0 0 1 0-2.783zm0-2.172a3.563 3.563 0 1 1 0 7.127 3.563 3.563 0 0 1 0-7.127zm-9.698 2.172a1.392 1.392 0 1 1 0 2.783 1.392 1.392 0 0 1 0-2.783zm0-2.172a3.563 3.563 0 1 1 0 7.127 3.563 3.563 0 0 1 0-7.127zm-3.83 4.724a4.003 4.003 0 0 0 7.826-1.354h1.705a4.001 4.001 0 1 0 7.993 0h1.706a4.001 4.001 0 1 0 7.993 0h5.38v-5.438H32.007v1.795h-3.241v4.997h6.111z"/></g></g></svg>