<svg width="156" height="65" xmlns="http://www.w3.org/2000/svg"><g transform="translate(6 7)" fill="none" fill-rule="evenodd"><rect fill="#FFF" fill-rule="nonzero" x="1" y="1" width="142" height="49" rx="6.3"/><rect stroke="#000" x=".5" y=".5" width="143" height="50" rx="6.16"/><path d="M136.31 3C138.91 3 141 5.129 141 7.773v35.454c0 2.644-2.091 4.773-4.69 4.773H7.69C5.09 48 3 45.871 3 43.227V7.773C3 5.129 5.091 3 7.69 3h128.62zM55.119 8.795H23.524c-1.591 0-2.872 1.304-2.872 2.924v20.595H57.99V11.719c0-1.62-1.281-2.924-2.873-2.924zm56.741 4.773v7.16H96.62v9.545h15.24v7.159L132.18 25.5l-20.32-11.932zm-41.14 4.13h-8.131c-1.586 0-2.872 1.308-2.872 2.923v13.444H34.707a6.138 6.138 0 0 1 3.455 5.263h22.425c.15-3.254 2.786-5.846 6.02-5.846 3.235 0 5.87 2.592 6.021 5.846h2.596c1.586 0 2.872-1.309 2.872-2.923v-8.987c0-.583-.17-1.154-.49-1.637l-4.505-6.797a2.86 2.86 0 0 0-2.382-1.287zm-.15 1.75c.476 0 .921.246 1.188.649l2.713 4.09c.16.242.247.527.247.819 0 .807-.643 1.461-1.436 1.461h-9.257a1.449 1.449 0 0 1-1.436-1.461V20.91c0-.808.643-1.462 1.436-1.462h6.544zM29.573 34.066h-8.922v5.263h5.468a6.137 6.137 0 0 1 3.454-5.263zm37.033.588c-2.696 0-4.882 2.225-4.882 4.97 0 2.744 2.186 4.968 4.882 4.968 2.697 0 4.882-2.224 4.882-4.969 0-2.744-2.185-4.969-4.882-4.969zm-34.466 0c-2.697 0-4.882 2.225-4.882 4.97 0 2.744 2.185 4.968 4.882 4.968 2.696 0 4.882-2.224 4.882-4.969 0-2.744-2.186-4.969-4.882-4.969zm34.466 2.336c1.428 0 2.584 1.18 2.584 2.633s-1.156 2.63-2.584 2.63c-1.427 0-2.583-1.177-2.583-2.63 0-1.453 1.156-2.633 2.583-2.633zm-34.466 0c1.427 0 2.583 1.18 2.583 2.633s-1.156 2.63-2.583 2.63c-1.428 0-2.584-1.177-2.584-2.63 0-1.453 1.156-2.633 2.584-2.633z" fill="#0D69E1" fill-rule="nonzero"/></g></svg>