<svg width="100" height="151" xmlns="http://www.w3.org/2000/svg"><g transform="translate(5 7)" fill-rule="nonzero" fill="none"><rect fill="#FFF" x="1.373" y="3.538" width="87.843" height="133.085" rx="2"/><g fill="#000"><path d="M24.853 16.896h1.522c.61.007 1.124.205 1.544.594.419.388.637.925.655 1.61a1.84 1.84 0 0 1-.761 1.463c-.486.37-1.078.561-1.776.572-1.265-.064-2.202-.318-2.811-.763-.61-.445-.913-.7-.91-.763l-1.521 1.865c.031.078.517.389 1.458.933.94.544 2.146.854 3.615.932 1.617-.063 2.864-.53 3.742-1.399.877-.869 1.321-1.759 1.332-2.67-.036-.896-.284-1.591-.746-2.085-.461-.494-.923-.837-1.384-1.03-.461-.192-.71-.285-.745-.276.029.01.233-.066.613-.226s.76-.462 1.14-.904c.38-.443.585-1.084.614-1.922-.014-1.046-.408-1.922-1.184-2.628-.775-.707-1.846-1.074-3.213-1.102-1.378.063-2.493.318-3.346.763-.853.445-1.291.7-1.317.763l1.28 1.986c-.006-.055.262-.273.804-.654.543-.382 1.402-.6 2.58-.654.905.046 1.504.293 1.796.742.292.448.426.823.402 1.123.007.293-.134.64-.423 1.039-.289.399-.768.618-1.438.657h-1.522v2.034zM38.857 9.097c-1.857.051-3.24.748-4.149 2.089-.909 1.341-1.362 3.019-1.359 5.032-.003 2.013.45 3.69 1.359 5.032.909 1.341 2.292 2.038 4.15 2.09 1.857-.052 3.24-.749 4.149-2.09.909-1.341 1.362-3.019 1.359-5.032.003-2.013-.45-3.69-1.36-5.032-.908-1.341-2.291-2.038-4.149-2.09zm0 2.204c.948.014 1.716.452 2.305 1.314.588.862.891 2.063.909 3.603-.018 1.54-.321 2.741-.91 3.603-.588.862-1.356 1.3-2.304 1.314-.947-.014-1.715-.452-2.304-1.314-.588-.862-.891-2.063-.909-3.603.018-1.54.32-2.741.91-3.603.588-.862 1.356-1.3 2.303-1.314zM47.466 23h2.367v-6.104h5.074V23h2.367V9.436h-2.367v5.425h-5.074V9.436h-2.367zM64.529 18.253l1.691-5.765 1.691 5.765H64.53zm.338-8.817L60.47 23h2.537l.845-2.713h4.736L69.433 23h2.537L67.573 9.436h-2.706z"/></g><path d="M16.47 31.551a4.114 4.114 0 0 0-4.117 4.128v57.795a4.114 4.114 0 0 0 4.118 4.129h57.647a4.114 4.114 0 0 0 4.117-4.129V35.68a4.114 4.114 0 0 0-4.117-4.128H16.47zm14.706 7.077H50c9.096 0 16.47 7.393 16.47 16.513 0 9.12-7.374 16.513-16.47 16.513H38.235v18.872h-7.059V38.628zm7.06 7.077v18.872H50c5.198 0 9.412-4.225 9.412-9.436S55.198 45.705 50 45.705H38.235z" fill="#7F7F7F"/><path fill="#000" d="M10 126.869v5.528h70.588v-8.846H45.294v3.318zM47.48 103.048a1.07 1.07 0 0 0-.19.024l-6.349 1.352-6.348 1.356c-.502.107-.957.605-1.02 1.116l-.235 1.892-.48 3.922v.01l-.113.914a1.323 1.323 0 0 0-1.02 1.572l1.099 5.19a1.325 1.325 0 0 0 1.573 1.022l19.417-4.138a1.323 1.323 0 0 0 1.02-1.572l-1.099-5.19a1.325 1.325 0 0 0-1.573-1.022l-.47-.787c-.003-.003-.004-.006-.006-.01l-2.034-3.385-.98-1.637c-.232-.386-.734-.643-1.192-.63zm-.215 1.396a.706.706 0 0 1 .598.314l3.005 5.013-8.412 1.794-8.417 1.794.716-5.81a.691.691 0 0 1 .51-.555l5.95-1.273 5.952-1.268a.547.547 0 0 1 .098-.01z"/><path d="M34.533 122.07l.55 2.595a1.985 1.985 0 1 0 3.884-.827l-.55-2.596-3.884.827zM50.068 118.759l.55 2.596a1.985 1.985 0 1 0 3.884-.828l-.55-2.596-3.884.828z" fill="#000"/><path d="M5.294 1.376a3.918 3.918 0 0 0-3.921 3.932v127.384a3.918 3.918 0 0 0 3.921 3.932h80a3.918 3.918 0 0 0 3.922-3.932V5.308a3.918 3.918 0 0 0-3.922-3.932h-80zm0 1.573h80c1.22 0 2.221.923 2.343 2.113L2.941 100.075V5.308a2.35 2.35 0 0 1 2.353-2.36zm82.353 5.49v3.98L2.941 107.446v-3.98L87.647 8.438zm0 7.371v3.98L2.941 114.819v-3.98L87.647 15.81zm0 7.372v3.98L2.941 122.19v-3.98l84.706-95.028zm0 7.372v3.98L2.941 129.562v-3.981l84.706-95.027zm0 7.371v94.767a2.35 2.35 0 0 1-2.353 2.36h-80c-1.22 0-2.22-.924-2.343-2.114l84.696-95.013z" fill="#000"/></g></svg>