<?xml version="1.0" encoding="UTF-8"?><svg id="_Слой_1" xmlns="http://www.w3.org/2000/svg" width="110" height="80" viewBox="0 0 110 80"><defs><style>.cls-1{fill:none;}.cls-2{fill:#fff;}.cls-3{fill:#8b8b8b;}</style></defs><path class="cls-1" d="M0,0H110V80H0V0Z"/><g><path d="M11.3,6H98.7c3.5,0,6.3,2.8,6.3,6.3h0V49.4c0,3.5-2.8,6.3-6.3,6.3H11.3c-3.5,0-6.3-2.8-6.3-6.3V12.3c0-3.5,2.8-6.3,6.3-6.3Z"/><path class="cls-2" d="M11.6,7.6H98.5c2.7,0,4.9,2.2,4.9,4.9V49.1c0,2.7-2.2,4.9-4.9,4.9H11.6c-2.7,0-4.9-2.2-4.9-4.9V12.5c0-2.7,2.1-4.9,4.9-4.9Z"/></g><g><path d="M15,41.1h-.1v-4.2s2.7,0,4.2-.2c1.9-.3,4.3-1.6,8.6-9.2,2.2-4,5.2-6.4,9-7.1,7.1-1.4,14,4.2,14.3,4.4l.1,.1s4.1,3.7,9.1,3.2l.4,4.2c-6.6,.7-11.7-3.6-12.3-4.2-.5-.4-5.8-4.5-10.8-3.5-2.5,.5-4.4,2.1-6,5-4.3,7.4-7.5,10.6-11.7,11.2-1.7,.2-4.2,.3-4.8,.3Z"/><rect x="58.7" y="21.3" width="3.9" height="17.4"/><rect x="69.9" y="17.9" width="14.1" height="24.5"/><polygon points="69.9 17.9 62.5 24.9 62.5 35.5 69.9 42.4 69.9 17.9"/><path d="M94.3,25.5h-13.3c-1,0-1.8-.8-1.8-1.8v-.3c0-1,.8-1.8,1.8-1.8h13.3c1,0,1.8,.8,1.8,1.8v.3c.1,.9-.8,1.8-1.8,1.8Z"/><path d="M94.4,38.7h-13.4c-1,0-1.8-.8-1.8-1.8v-.3c0-1,.8-1.8,1.8-1.8h13.3c1,0,1.8,.8,1.8,1.8v.3c.1,1-.7,1.8-1.7,1.8Z"/></g><g><path class="cls-3" d="M46.81,75.14c-.43,0-.83-.06-1.18-.19s-.66-.31-.91-.56c-.25-.23-.43-.51-.56-.83s-.19-.66-.19-1.02c0-.47,.13-.91,.38-1.3s.62-.71,1.1-.95v-.04c-.43-.25-.75-.52-.96-.82s-.31-.67-.31-1.11c0-.66,.25-1.2,.74-1.64s1.12-.66,1.89-.66,1.43,.21,1.91,.62,.72,.95,.72,1.6c0,.39-.11,.78-.34,1.16s-.56,.68-.99,.9v.04c.51,.24,.89,.53,1.15,.87s.39,.78,.39,1.31c0,.75-.27,1.37-.81,1.88s-1.22,.76-2.03,.76Zm1.64-2.52c0-.36-.07-.64-.21-.86s-.41-.43-.81-.64c-.13-.07-.31-.15-.53-.24s-.47-.19-.75-.3c-.32,.21-.57,.48-.74,.79s-.26,.67-.26,1.08c0,.53,.16,.96,.48,1.31s.72,.52,1.2,.52,.89-.15,1.18-.44,.45-.7,.45-1.2Zm-.16-4.37c0-.39-.13-.72-.39-.98s-.62-.39-1.09-.39c-.43,0-.77,.12-1.05,.35s-.41,.55-.41,.95c0,.29,.07,.53,.21,.73s.35,.38,.62,.54c.12,.07,.31,.16,.55,.28s.47,.21,.68,.28c.34-.26,.57-.53,.69-.81s.18-.59,.18-.95Z"/><path class="cls-3" d="M52.6,74.95h-1.4v-1.67h1.4v1.67Z"/><path class="cls-3" d="M59.74,74.95h-5.38v-1.22c.39-.37,.75-.72,1.1-1.05s.68-.69,1.01-1.05c.66-.73,1.12-1.32,1.36-1.75s.36-.89,.36-1.36c0-.24-.04-.46-.11-.64s-.18-.34-.31-.46c-.14-.12-.29-.21-.47-.26s-.38-.09-.59-.09-.42,.03-.63,.08-.42,.12-.61,.2c-.16,.07-.32,.15-.47,.24s-.28,.17-.37,.24h-.06v-1.24c.24-.12,.58-.24,1.01-.35s.84-.17,1.23-.17c.81,0,1.45,.22,1.91,.65s.69,1.02,.69,1.75c0,.34-.04,.65-.12,.94s-.19,.56-.33,.8c-.14,.25-.32,.51-.52,.76s-.42,.5-.64,.74c-.37,.4-.78,.81-1.23,1.24s-.81,.77-1.08,1.02h4.29v1Z"/><path class="cls-3" d="M66.43,72.12c0,.45-.07,.86-.22,1.24s-.35,.7-.6,.95c-.26,.27-.55,.47-.88,.61s-.68,.21-1.07,.21-.75-.07-1.08-.2-.61-.33-.85-.59c-.3-.32-.54-.74-.71-1.27s-.25-1.18-.25-1.95,.08-1.44,.23-2.05,.4-1.14,.72-1.6c.32-.44,.72-.79,1.22-1.03s1.08-.37,1.73-.37c.2,0,.38,0,.54,.03s.32,.05,.45,.09v1.12h-.05c-.11-.06-.26-.11-.46-.16s-.41-.07-.64-.07c-.73,0-1.31,.25-1.76,.74s-.71,1.22-.79,2.18c.28-.2,.56-.35,.86-.45s.61-.16,.96-.16,.64,.03,.89,.1,.52,.21,.8,.41c.32,.24,.56,.55,.71,.92s.23,.81,.23,1.31Zm-1.19,.05c0-.36-.05-.66-.14-.9s-.25-.45-.46-.62c-.15-.12-.33-.21-.52-.25s-.39-.06-.59-.06c-.27,0-.54,.04-.8,.12s-.51,.2-.76,.36c0,.09-.01,.17-.02,.25s0,.18,0,.3c0,.61,.06,1.09,.18,1.46s.27,.65,.44,.84c.17,.18,.34,.31,.52,.39s.37,.11,.58,.11c.47,0,.85-.17,1.14-.5s.44-.84,.44-1.51Z"/></g></svg>