<svg width="223" height="159" xmlns="http://www.w3.org/2000/svg"><g fill="none" fill-rule="evenodd"><path d="M0 0h223v159H0z"/><path d="M9.022 2.723h89.956a6.3 6.3 0 0 1 6.3 6.3v123.954a6.3 6.3 0 0 1-6.3 6.3H9.022a6.3 6.3 0 0 1-6.3-6.3V9.023a6.3 6.3 0 0 1 6.3-6.3z" fill="#FFF" fill-rule="nonzero"/><path d="M7.167 4.168h93.667a3 3 0 0 1 3 3v127.665a3 3 0 0 1-3 3H7.167a3 3 0 0 1-3-3V7.168a3 3 0 0 1 3-3z" fill="#FC0" fill-rule="nonzero"/><path d="M6.5 2.5h95a4 4 0 0 1 4 4v129a4 4 0 0 1-4 4h-95a4 4 0 0 1-4-4V6.5a4 4 0 0 1 4-4z" stroke="#000"/><path d="M6.524 4.168A2.357 2.357 0 0 0 4.167 6.53v128.94a2.355 2.355 0 0 0 2.357 2.362h94.952a2.357 2.357 0 0 0 2.357-2.362V6.53a2.355 2.355 0 0 0-2.357-2.362H6.524zm0 .674h13.805v70.377h-7.014L24.538 94.72l11.223-19.5h-7.014V4.842h18.239v37.466a3.364 3.364 0 0 0 3.367 3.376h7.294a3.364 3.364 0 0 0 3.367-3.376V4.842h40.462c.933 0 1.684.753 1.684 1.688v128.94c0 .935-.751 1.687-1.684 1.687H83.462v-38.03c0-4.103-1.626-8.037-4.52-10.938l-22.42-22.474 4.96-4.972-21.693-5.835 5.82 21.746 4.96-4.973 22.42 22.476a7.037 7.037 0 0 1 2.055 4.97v38.03h-14.03V99.691a3.364 3.364 0 0 0-3.367-3.376h-7.294a3.364 3.364 0 0 0-3.367 3.376v37.466H6.524a1.684 1.684 0 0 1-1.684-1.687V6.53c0-.935.751-1.688 1.684-1.688z" fill="#000" fill-rule="nonzero"/><path d="M82.086 20.354c-9.307 0-16.851 7.54-16.851 16.842 0 9.301 7.544 16.842 16.851 16.842 9.307 0 16.852-7.54 16.852-16.842 0-9.301-7.545-16.842-16.852-16.842zm0 2.848c7.734 0 14.003 6.265 14.003 13.994S89.82 51.19 82.086 51.19c-7.733 0-14.002-6.265-14.002-13.994s6.269-13.994 14.002-13.994z" fill="red" fill-rule="nonzero"/><path d="M96.09 37.196c0 7.729-6.27 13.994-14.004 13.994-7.733 0-14.002-6.265-14.002-13.994s6.269-13.994 14.002-13.994c7.734 0 14.003 6.265 14.003 13.994h.001z" fill="#FFF" fill-rule="nonzero"/><g><path d="M123.3 3h90.4a6.3 6.3 0 0 1 6.3 6.3v123.4a6.3 6.3 0 0 1-6.3 6.3h-90.4a6.3 6.3 0 0 1-6.3-6.3V9.3a6.3 6.3 0 0 1 6.3-6.3z" fill="#FFF" fill-rule="nonzero"/><path d="M122 5h94a2 2 0 0 1 2 2v128.267a2 2 0 0 1-2 2h-94a2 2 0 0 1-2-2V7a2 2 0 0 1 2-2z" fill="#FC0" fill-rule="nonzero"/><path d="M120.5 2.5h96a4 4 0 0 1 4 4v129a4 4 0 0 1-4 4h-96a4 4 0 0 1-4-4V6.5a4 4 0 0 1 4-4z" stroke="#000"/><path d="M121.667 5a2.33 2.33 0 0 0-2.334 2.338v127.59a2.33 2.33 0 0 0 2.334 2.339h94a2.333 2.333 0 0 0 2.333-2.338V7.338A2.33 2.33 0 0 0 215.667 5h-94zm0 .668h49.777v37.075a3.33 3.33 0 0 0 3.333 3.34H182a3.33 3.33 0 0 0 3.333-3.34V5.668h30.334c.923 0 1.666.745 1.666 1.67v127.59c0 .926-.743 1.671-1.666 1.671h-30.334V99.525A3.33 3.33 0 0 0 182 96.184h-7.223a3.33 3.33 0 0 0-3.333 3.34v37.075h-12.5V96.184c0-1.846.733-3.613 2.035-4.918l19.446-19.486 4.91 4.92 5.763-21.519-21.477 5.773 4.912 4.92-19.448 19.486a15.322 15.322 0 0 0-4.475 10.824v40.415h-28.943a1.667 1.667 0 0 1-1.667-1.67V7.338c0-.925.743-1.67 1.667-1.67z" fill="#000" fill-rule="nonzero"/><path d="M145.778 21.133c-8.975 0-16.25 7.268-16.25 16.234 0 8.965 7.275 16.233 16.25 16.233 8.974 0 16.25-7.268 16.25-16.233 0-8.966-7.276-16.234-16.25-16.234zM134.348 34h22.86c.31 0 .561.251.561.562v5.61a.56.56 0 0 1-.562.561h-22.859a.561.561 0 0 1-.562-.562v-5.609c0-.31.251-.562.562-.562z" fill="red" fill-rule="nonzero"/><path fill="#FFF" fill-rule="nonzero" d="M133.786 34h23.983v6.733h-23.983z"/></g><path d="M40.979 152.17c0 .887-.292 1.61-.876 2.17-.584.561-1.3.842-2.148.842-.43 0-.82-.067-1.172-.2a2.686 2.686 0 0 1-.931-.591c-.336-.325-.595-.754-.777-1.29-.181-.535-.272-1.18-.272-1.933 0-.773.083-1.459.249-2.057.166-.597.43-1.129.794-1.593a3.492 3.492 0 0 1 1.33-1.035c.543-.248 1.176-.372 1.898-.372.23 0 .424.01.58.03.157.02.315.054.475.105v1.12h-.059a2.172 2.172 0 0 0-.495-.168 2.902 2.902 0 0 0-.677-.079c-.84 0-1.51.263-2.01.788-.5.526-.79 1.236-.872 2.13.328-.2.651-.35.97-.454.358-.11.73-.161 1.104-.155.37 0 .698.034.981.102.283.069.574.206.87.413.344.239.603.54.777.903.174.363.26.804.26 1.324h.001zm-1.19.047c0-.363-.054-.664-.161-.903a1.547 1.547 0 0 0-.53-.62 1.494 1.494 0 0 0-.598-.247 3.895 3.895 0 0 0-1.611.059c-.285.078-.578.2-.88.363a5.961 5.961 0 0 0-.023.55c0 .618.064 1.105.19 1.463.128.357.303.64.525.847.18.171.374.297.583.377.21.08.437.12.683.12.566 0 1.012-.172 1.336-.518.324-.346.486-.843.486-1.491zM44.512 155h-1.4v-1.67h1.4V155zm7.834 0h-4.723v-.89h1.816v-5.848h-1.816v-.797c.246 0 .51-.02.791-.062.281-.04.494-.1.639-.178.18-.098.321-.222.425-.372.103-.15.163-.353.178-.607h.908v7.863h1.782V155zm8.115-4.887c0 .762-.087 1.453-.26 2.075-.175.62-.437 1.15-.789 1.587-.355.446-.8.79-1.336 1.032-.535.242-1.164.363-1.887.363a4.74 4.74 0 0 1-.574-.032 2.44 2.44 0 0 1-.48-.103v-1.119h.058a2.798 2.798 0 0 0 1.172.247c.864 0 1.54-.26 2.03-.777.49-.518.775-1.232.853-2.142-.32.2-.665.357-1.025.469-.32.094-.67.14-1.05.14a4.16 4.16 0 0 1-.975-.105 2.628 2.628 0 0 1-.876-.41 2.275 2.275 0 0 1-.776-.908c-.174-.368-.26-.807-.26-1.319 0-.89.292-1.615.878-2.173.586-.56 1.3-.838 2.145-.838a3.4 3.4 0 0 1 1.171.196c.36.13.674.327.944.589.332.324.588.741.767 1.25.18.51.27 1.17.27 1.978zm-1.184-.252c0-.605-.062-1.091-.187-1.459-.125-.367-.297-.652-.516-.855a1.682 1.682 0 0 0-.592-.378 2.004 2.004 0 0 0-.685-.114c-.563 0-1.007.175-1.333.527-.326.352-.49.846-.49 1.482 0 .372.053.674.159.909.105.234.283.44.533.615.176.121.37.202.58.243a3.692 3.692 0 0 0 1.629-.061c.307-.08.603-.2.879-.358a9.57 9.57 0 0 1 .015-.243 4.37 4.37 0 0 0 .008-.308zM64.135 155h-1.4v-1.67h1.4V155zm7.834 0h-4.723v-.89h1.817v-5.848h-1.817v-.797c.246 0 .51-.02.791-.062.281-.04.494-.1.639-.178.18-.098.321-.222.425-.372.103-.15.163-.353.178-.607h.909v7.863h1.78V155h.001zm84.01-2.83c0 .887-.292 1.61-.876 2.17-.584.561-1.3.842-2.148.842-.43 0-.82-.067-1.172-.2a2.686 2.686 0 0 1-.931-.591c-.336-.325-.595-.754-.777-1.29-.181-.535-.272-1.18-.272-1.933 0-.773.083-1.459.249-2.057.166-.597.43-1.129.794-1.593a3.492 3.492 0 0 1 1.33-1.035c.543-.248 1.176-.372 1.898-.372.23 0 .424.01.58.03.157.02.315.054.475.105v1.12h-.059a2.172 2.172 0 0 0-.495-.168 2.902 2.902 0 0 0-.677-.079c-.84 0-1.51.263-2.01.788-.5.526-.79 1.236-.872 2.13.328-.2.651-.35.97-.454.358-.11.73-.161 1.104-.155.37 0 .698.034.981.102.283.069.574.206.87.413.344.239.603.54.777.903.174.363.26.804.26 1.324h.001zm-1.19.047c0-.363-.054-.664-.161-.903a1.547 1.547 0 0 0-.53-.62 1.494 1.494 0 0 0-.598-.247 3.895 3.895 0 0 0-1.611.059c-.285.078-.578.2-.88.363a5.96 5.96 0 0 0-.023.55c0 .618.064 1.105.19 1.463.128.357.303.64.525.847.18.171.374.297.583.377.21.08.437.12.683.12.566 0 1.012-.172 1.336-.518.324-.346.486-.843.486-1.491zm4.723 2.783h-1.4v-1.67h1.4V155zm7.834 0h-4.723v-.89h1.816v-5.848h-1.816v-.797c.246 0 .51-.02.791-.062.281-.04.494-.1.639-.178.18-.098.321-.222.425-.372.103-.15.163-.353.178-.607h.908v7.863h1.782V155zm8.115-4.887c0 .762-.087 1.453-.26 2.075-.175.62-.437 1.15-.789 1.587-.355.446-.8.79-1.336 1.032-.535.242-1.164.363-1.887.363a4.74 4.74 0 0 1-.574-.032 2.44 2.44 0 0 1-.48-.103v-1.119h.058a2.798 2.798 0 0 0 1.172.247c.864 0 1.54-.26 2.03-.777.49-.518.775-1.232.853-2.142-.32.2-.665.357-1.025.469-.32.094-.67.14-1.05.14a4.16 4.16 0 0 1-.975-.105 2.628 2.628 0 0 1-.876-.41 2.275 2.275 0 0 1-.776-.908c-.174-.368-.26-.807-.26-1.319 0-.89.292-1.615.878-2.173.586-.56 1.3-.838 2.145-.838a3.4 3.4 0 0 1 1.171.196c.36.13.674.327.944.589.332.324.588.741.767 1.25.18.51.27 1.17.27 1.978zm-1.184-.252c0-.605-.062-1.091-.187-1.459-.125-.367-.297-.652-.516-.855a1.682 1.682 0 0 0-.592-.378 2.004 2.004 0 0 0-.685-.114c-.563 0-1.007.175-1.333.527-.326.352-.49.846-.49 1.482 0 .372.053.674.159.909.105.234.283.44.533.615.176.121.37.202.58.243a3.692 3.692 0 0 0 1.629-.061c.307-.08.603-.2.879-.358l.015-.243a4.37 4.37 0 0 0 .008-.308zm4.858 5.139h-1.4v-1.67h1.4V155zm8.332 0h-5.906v-1.225c.41-.351.82-.703 1.233-1.054.395-.337.78-.687 1.151-1.05.75-.726 1.264-1.303 1.541-1.73a2.5 2.5 0 0 0 .416-1.386c0-.453-.15-.808-.448-1.064-.299-.256-.716-.384-1.25-.384-.356 0-.741.063-1.155.188-.43.132-.838.326-1.213.574h-.059v-1.23c.278-.137.648-.262 1.11-.375a5.65 5.65 0 0 1 1.345-.17c.895 0 1.596.216 2.104.647.508.432.762 1.017.762 1.755 0 .332-.042.642-.126.929-.084.287-.208.56-.372.817-.153.242-.331.48-.537.715-.205.234-.454.494-.747.78-.418.41-.85.807-1.295 1.192-.445.384-.86.74-1.248 1.069h4.694V155z" fill="#8B8B8B" fill-rule="nonzero"/></g></svg>