<svg width="100" height="86" xmlns="http://www.w3.org/2000/svg"><g fill="none" fill-rule="evenodd"><path d="M90 43c0 22.091-17.909 40-40 40S10 65.091 10 43 27.909 3 50 3s40 17.909 40 40z" fill="#FFF" fill-rule="nonzero"/><path d="M89.133 43.133c0-21.539-17.46-39-39-39-21.539 0-39 17.461-39 39 0 21.54 17.461 39 39 39 21.54 0 39-17.46 39-39z" stroke="#000" stroke-width="2"/><g fill="#7F7F7F" fill-rule="nonzero"><path d="M45.548 33.42l1.42-4.613H30.645v13.838l3.194 1.774c.355-.244.887-.643 1.596-1.197.71-.555 1.597-.865 2.662-.932 1.604.067 2.831.644 3.681 1.73.85 1.087 1.28 2.284 1.286 3.593-.088 1.774-.798 3.105-2.129 3.992-1.33.887-2.75 1.33-4.258 1.33a20.96 20.96 0 0 1-3.599-.272c-1.206-.195-2.253-.578-3.143-1.147l.71 4.613c.081.06.806.296 2.174.71 1.367.414 2.89.65 4.568.71 3.408-.075 6.084-1.08 8.028-3.017 1.944-1.937 2.935-4.361 2.972-7.274-.11-2.853-1.042-5.042-2.794-6.564-1.752-1.523-3.66-2.292-5.722-2.307a8.24 8.24 0 0 0-2.516.355 4.154 4.154 0 0 0-2.097 1.42v-6.743h10.29zM61.627 28.452c-2.883.074-5.19 1.434-6.92 4.08-1.729 2.647-2.616 6.136-2.66 10.468.044 4.332.931 7.821 2.66 10.468 1.73 2.646 4.037 4.006 6.92 4.08 2.883-.074 5.19-1.434 6.92-4.08 1.73-2.647 2.616-6.136 2.66-10.468-.044-4.132-.93-7.565-2.66-10.297s-4.037-4.149-6.92-4.251zm0 4.41c1.39-.021 2.501.781 3.333 2.408.832 1.626 1.259 4.203 1.28 7.73-.021 3.527-.448 6.104-1.28 7.73-.832 1.627-1.943 2.43-3.333 2.408-1.39.021-2.5-.781-3.333-2.408-.832-1.626-1.259-4.203-1.28-7.73.021-3.527.448-6.104 1.28-7.73.832-1.627 1.943-2.43 3.333-2.408z"/></g><path d="M50 4.333C28.645 4.333 11.333 21.645 11.333 43S28.645 81.667 50 81.667 88.667 64.355 88.667 43 71.355 4.333 50 4.333zm0 1.334c8.05 0 15.507 2.546 21.604 6.879L19.546 64.604A37.167 37.167 0 0 1 12.666 43C12.667 22.381 29.382 5.667 50 5.667zm22.546 7.579c.448.34.888.69 1.32 1.05l-52.57 52.57c-.36-.432-.71-.872-1.05-1.32l52.3-52.3zm2.208 1.808c.42.372.827.752 1.23 1.142L23.195 68.983c-.39-.402-.77-.81-1.142-1.229l52.7-52.7zm2.05 1.963c.39.402.77.81 1.142 1.229l-52.7 52.7c-.42-.372-.827-.752-1.23-1.142l52.788-52.787zm1.9 2.116c.36.433.71.873 1.05 1.321l-52.3 52.3c-.448-.34-.888-.69-1.32-1.05l52.57-52.57zm1.75 2.263A37.167 37.167 0 0 1 87.334 43c0 20.619-16.715 37.333-37.334 37.333a37.167 37.167 0 0 1-21.604-6.879l52.058-52.058z" fill="#000" fill-rule="nonzero"/></g></svg>