<svg width="100" height="86" xmlns="http://www.w3.org/2000/svg"><g fill="none" fill-rule="evenodd"><g transform="translate(10 3)"><rect fill="#FFF" fill-rule="nonzero" width="80" height="80" rx="6"/><rect stroke="#000" x=".5" y=".5" width="79" height="79" rx="6"/><path d="M29.976 40.911h4.647a.965.965 0 1 1 0 1.93h-4.647c-.866 0-1.57.705-1.57 1.571 0 .567.362 1.073.897 1.258a3.258 3.258 0 0 1 2.084 3.932h16.579l.567-1.329h-4.257a1.45 1.45 0 0 1 0-2.899h6.636c.8 0 1.453.653 1.453 1.453s-.653 1.446-1.453 1.446h-.537l-.874 2.043 3.631 5.184a9.651 9.651 0 0 1 13.833 8.703c0 5.332-4.32 9.659-9.653 9.659a9.654 9.654 0 0 1-9.564-8.325H42.09L28.761 55.34l-.768 1.647a9.621 9.621 0 0 1 3.247 7.215c0 5.332-4.32 9.659-9.653 9.659s-9.653-4.327-9.653-9.66a9.651 9.651 0 0 1 14.47-8.366l2.905-6.234.136-.29a1.332 1.332 0 0 0-.773-1.818 3.258 3.258 0 0 1-2.197-3.082 3.502 3.502 0 0 1 3.501-3.5zm1.48 10.11l-.987 1.547 12.576 9.612 4.764-11.159H31.455zm16.857 1.685l-4.364 10.232h3.23a9.641 9.641 0 0 1 3.601-6.701l-2.467-3.53zm-26.7 3.371a8.203 8.203 0 0 0-7.994 8.201c0 4.533 3.674 8.213 8.206 8.213 4.533 0 8.207-3.68 8.207-8.213a8.175 8.175 0 0 0-2.438-5.839l-1.848 3.962a3.504 3.504 0 0 1-1.423 1.552l-2.014 1.163a.97.97 0 0 1-1.322-.354.963.963 0 0 1 .354-1.316l2.013-1.164c.28-.16.502-.404.638-.696l2.031-4.357a8.156 8.156 0 0 0-4.198-1.152c-.07 0-.142-.002-.212 0zm35.492 0a8.18 8.18 0 0 0-3.336.708l4.718 6.73a1.333 1.333 0 0 1-1.087 2.097h-8.395a8.21 8.21 0 0 0 8.1 6.878c4.533 0 8.207-3.68 8.207-8.213 0-4.532-3.674-8.2-8.207-8.2zm-5.125 1.685a8.201 8.201 0 0 0-2.975 5.514h6.837l-3.862-5.514zM3 6.117v68.08A2.797 2.797 0 0 0 5.803 77h68.394A2.797 2.797 0 0 0 77 74.197V6.117a3 3 0 0 0-3-3H6a3 3 0 0 0-3 3z" fill="#0D69E1" fill-rule="nonzero"/><path fill="#FFF" d="M49.928 24.344H43.39v11.782l-7.849.012V24.344h-6.54L39.465 8z"/></g><path d="M80.896 6L13 73.896v3.301A2.797 2.797 0 0 0 15.803 80h3.3L87 12.104V8.803A2.797 2.797 0 0 0 84.197 6h-3.3z" fill="red" fill-rule="nonzero"/></g></svg>