<svg width="95" height="136" xmlns="http://www.w3.org/2000/svg"><g transform="translate(3 4)" fill="none" fill-rule="evenodd"><rect stroke="#000" fill="#FFF" x=".5" y=".5" width="85" height="127" rx="6"/><g fill-rule="nonzero"><path d="M6.03 3A3.018 3.018 0 0 0 3 6.02v115.96A3.018 3.018 0 0 0 6.03 125h73.94a3.018 3.018 0 0 0 3.03-3.02V6.02A3.018 3.018 0 0 0 79.97 3H6.03zm7.955 18.723h58.03a5.433 5.433 0 0 1 5.455 5.435v57.83a5.433 5.433 0 0 1-5.455 5.435h-58.03a5.433 5.433 0 0 1-5.455-5.435v-57.83a5.433 5.433 0 0 1 5.455-5.435z" fill="#0D69E1"/><path fill="red" d="M40.368 32.474v7.894h-7.894v5.264h7.894v7.894h5.264v-7.894h7.894v-5.264h-7.894v-7.894z"/><path d="M14.053 56.158a2.632 2.632 0 1 1 5.263 0v13.158h47.368V61.42a2.632 2.632 0 1 1 5.263 0v23.684h-5.263v-7.894H19.316v7.894h-5.263V56.158z" fill="#000"/><path d="M24.567 63.14a2.759 2.759 0 0 0-2.62 2.763V68h15.79v-2.097a2.757 2.757 0 0 0-2.763-2.763H24.71c-.048 0-.097-.003-.144 0z" fill="#000"/></g></g></svg>