<svg width="110" height="80" xmlns="http://www.w3.org/2000/svg"><g fill="none" fill-rule="evenodd"><path d="M0 0h110v80H0z"/><g fill-rule="nonzero"><path d="M11.3 6.166h87.4a6.3 6.3 0 0 1 6.3 6.3v37.068a6.3 6.3 0 0 1-6.3 6.3H11.3a6.3 6.3 0 0 1-6.3-6.3V12.466a6.3 6.3 0 0 1 6.3-6.3z" fill="#000"/><path d="M12.5 7.821c-3.232 0-5.833 2.585-5.833 5.795v34.458H55v-4.657h48.333V13.616c0-3.21-2.601-5.795-5.833-5.795h-85z" fill="#FFF"/><path d="M37.737 37.663c-2.707.383-4.59 2.874-4.204 5.563.385 2.69 2.892 4.56 5.6 4.177 2.707-.383 4.59-2.873 4.204-5.563-.385-2.69-2.892-4.56-5.6-4.177zm.283 1.972a2.944 2.944 0 0 1 3.333 2.486 2.931 2.931 0 0 1-2.503 3.311 2.944 2.944 0 0 1-3.333-2.486 2.931 2.931 0 0 1 2.503-3.311zm32.633-6.625c-2.708.383-4.59 2.873-4.205 5.563.385 2.69 2.893 4.56 5.6 4.177 2.708-.383 4.59-2.874 4.205-5.563-.386-2.69-2.893-4.56-5.6-4.177zm.282 1.971a2.944 2.944 0 0 1 3.333 2.486 2.931 2.931 0 0 1-2.502 3.311 2.944 2.944 0 0 1-3.334-2.486 2.931 2.931 0 0 1 2.503-3.311z" fill="#000"/><path d="M51.922 19.581c-.077.003-.152.01-.23.021L36.36 21.77a2.234 2.234 0 0 0-1.573 1.009l-6.843 10.715a2.21 2.21 0 0 0-.224 1.92l2.005 5.763c.236.677.841 1.16 1.557 1.247l1.172.14c-.015-2.913 2.143-5.464 5.14-5.888 3.272-.463 6.303 1.784 6.766 5.018l21.068-2.975c-.463-3.233 1.812-6.232 5.083-6.695 2.86-.404 5.538 1.26 6.474 3.845a1.874 1.874 0 0 0 1.558-2.044l-.526-4.19a2.233 2.233 0 0 0-2.224-1.951l-12.063.02c-.513 0-1.01-.175-1.411-.496l-8.901-7.135a2.258 2.258 0 0 0-1.495-.492h-.001zm-.083 1.78c.34-.013.675.096.942.31l5.646 4.528c.279.223.465.543.516.895.11.768-.43 1.479-1.203 1.588l-20.834 2.95a1.781 1.781 0 0 1-.276.015 1.762 1.762 0 0 1-1.74-1.785l.074-4.626a1.753 1.753 0 0 1 1.515-1.707l15.214-2.152c.048-.007.097-.014.146-.016z" fill="#000"/><path d="M46.2 70.492c0 .754-.295 1.381-.883 1.881-.588.5-1.327.75-2.217.75-.946 0-1.699-.244-2.26-.732-.56-.489-.84-1.114-.84-1.875 0-.485.14-.923.422-1.316.281-.392.678-.704 1.19-.934v-.036c-.47-.25-.816-.523-1.04-.82-.225-.297-.338-.668-.338-1.113 0-.656.27-1.203.809-1.64.539-.438 1.225-.657 2.057-.657.87 0 1.566.209 2.086.627.52.418.779.95.779 1.594 0 .394-.123.782-.37 1.163-.245.38-.607.678-1.083.893v.035c.547.235.965.524 1.254.868.289.343.433.78.433 1.312h.001zm-1.39-4.26c0-.418-.16-.75-.483-.999-.322-.248-.733-.372-1.233-.372-.492 0-.896.118-1.21.352a1.12 1.12 0 0 0-.472.95c0 .28.08.524.237.729.159.205.398.387.718.547.145.07.353.163.624.276.272.113.536.207.794.281.387-.258.654-.525.803-.803.148-.277.223-.597.223-.96l-.001-.001zm.182 4.372c0-.36-.079-.648-.237-.865-.158-.217-.468-.434-.929-.653a5.886 5.886 0 0 0-.603-.24c-.22-.075-.51-.178-.873-.31a2.306 2.306 0 0 0-.847.778 2 2 0 0 0-.32 1.114c0 .527.182.963.546 1.306.363.344.824.516 1.382.516.57 0 1.027-.146 1.368-.44.342-.292.513-.695.513-1.206zm4.805 2.32h-1.4v-1.67h1.4v1.67zm8.46-2.83c0 .886-.291 1.61-.875 2.17-.584.561-1.3.841-2.148.841-.43 0-.82-.066-1.172-.199a2.686 2.686 0 0 1-.931-.592c-.336-.324-.595-.753-.777-1.289-.181-.535-.272-1.18-.272-1.933 0-.774.083-1.46.25-2.057a4.51 4.51 0 0 1 .793-1.594 3.492 3.492 0 0 1 1.33-1.034c.543-.248 1.176-.372 1.899-.372.23 0 .423.01.58.03.156.019.314.054.474.105v1.12h-.058a2.172 2.172 0 0 0-.496-.168 2.902 2.902 0 0 0-.676-.079c-.84 0-1.51.263-2.01.788-.5.525-.791 1.235-.873 2.13.328-.2.651-.35.97-.454.358-.11.73-.161 1.104-.155.371 0 .698.034.982.102a2.6 2.6 0 0 1 .87.413c.343.238.602.54.776.903.174.363.26.804.26 1.324zm-1.189.047c0-.364-.053-.664-.16-.903a1.547 1.547 0 0 0-.531-.62 1.494 1.494 0 0 0-.598-.247 3.895 3.895 0 0 0-1.611.059 4.116 4.116 0 0 0-.879.363 5.961 5.961 0 0 0-.023.55c0 .618.063 1.105.19 1.463.127.357.302.64.524.846.18.172.374.298.583.378.21.08.437.12.683.12.567 0 1.012-.172 1.336-.518.324-.346.486-.843.486-1.491zm4.723 2.783h-1.4v-1.67h1.4v1.67zm8.355-7.418l-3.949 7.418h-1.254l4.202-7.7h-4.97V64.2h5.971v1.307-.001z" fill="#8B8B8B"/></g></g></svg>