<svg width="100" height="86" xmlns="http://www.w3.org/2000/svg"><g fill="none" fill-rule="evenodd"><path d="M90 43c0 22.091-17.909 40-40 40S10 65.091 10 43 27.909 3 50 3s40 17.909 40 40z" fill="#FFF" fill-rule="nonzero"/><path d="M90.386 43c0 22.304-18.082 40.386-40.386 40.386C27.696 83.386 9.614 65.304 9.614 43 9.614 20.696 27.696 2.614 50 2.614c22.304 0 40.386 18.082 40.386 40.386z" stroke="#000"/><path d="M50 5.286C29.171 5.286 12.286 22.17 12.286 43c0 20.829 16.885 37.714 37.714 37.714 20.829 0 37.714-16.885 37.714-37.714C87.714 22.171 70.83 5.286 50 5.286zM61.629 28.45c2.883.102 5.188 1.522 6.917 4.254 1.73 2.732 2.617 6.164 2.661 10.296-.044 4.332-.93 7.821-2.66 10.468-1.73 2.646-4.035 4.008-6.918 4.082-2.883-.074-5.192-1.436-6.922-4.082-1.73-2.647-2.616-6.136-2.66-10.468.044-4.332.93-7.821 2.66-10.468 1.73-2.646 4.039-4.008 6.922-4.082zm-30.983.357h16.322l-1.418 4.61H35.257v6.744a4.159 4.159 0 0 1 2.1-1.418 8.235 8.235 0 0 1 2.514-.357c2.063.015 3.97.784 5.722 2.307 1.752 1.523 2.682 3.71 2.793 6.564-.037 2.913-1.028 5.338-2.972 7.275-1.944 1.937-4.62 2.944-8.028 3.018-1.678-.06-3.2-.297-4.568-.71-1.368-.415-2.09-.652-2.172-.711l-.71-4.611c.889.57 1.937.95 3.143 1.146a20.97 20.97 0 0 0 3.6.272c1.508 0 2.926-.445 4.257-1.332 1.33-.888 2.04-2.216 2.128-3.99-.007-1.308-.435-2.506-1.285-3.593-.85-1.086-2.078-1.665-3.683-1.732-1.064.067-1.95.378-2.66.932-.71.555-1.242.953-1.597 1.197l-3.193-1.772V28.807zm30.983 4.054c-1.39-.021-2.504.78-3.336 2.407-.832 1.626-1.258 4.205-1.279 7.732.021 3.527.447 6.106 1.279 7.732.832 1.626 1.946 2.428 3.336 2.407 1.39.021 2.5-.78 3.332-2.407.832-1.626 1.257-4.205 1.278-7.732-.02-3.527-.446-6.106-1.278-7.732-.832-1.626-1.943-2.428-3.332-2.407z" fill="#0D69E1" fill-rule="nonzero"/></g></svg>