<svg width="110" height="80" xmlns="http://www.w3.org/2000/svg"><g fill="none" fill-rule="evenodd"><path d="M0 0h110v80H0z"/><path d="M0 0h110v80H0z"/><g fill-rule="nonzero"><g transform="translate(5 5)"><path d="M6.3.166h87.4a6.3 6.3 0 0 1 6.3 6.3v37.068a6.3 6.3 0 0 1-6.3 6.3H6.3a6.3 6.3 0 0 1-6.3-6.3V6.466a6.3 6.3 0 0 1 6.3-6.3z" fill="#000"/><rect fill="#FFF" x="1.667" y="1.821" width="96.667" height="46.358" rx="4.9"/><path d="M55.079 32.184l.884 1.144 2.009-1.25v11.547h2.625v-14.9h-2.25l-3.268 3.459zm8.615-1.038h6.938c-1.067 1.7-2.074 3.61-3.024 5.728a28.428 28.428 0 0 0-2.039 6.566h2.813c.578-2.666 1.297-5.018 2.156-7.055a78.617 78.617 0 0 1 2.719-5.797v-1.863h-9l-.563 2.421zm10.18 10.99c0-.431-.173-.845-.48-1.148-.307-.305-.692-.464-1.154-.475-.463.011-.848.17-1.155.475a1.613 1.613 0 0 0 0 2.295c.307.306.692.464 1.155.476.462-.012.847-.17 1.155-.476.307-.305.467-.688.479-1.147zM12.668 28.539c-1.261 0-2.347.326-3.258.978-.91.652-1.386 1.63-1.43 2.933.033.863.26 1.539.681 2.028.422.49.843.835 1.264 1.035.422.2.648.297.68.29-.036-.002-.296.126-.777.386-.481.26-.963.665-1.444 1.214-.482.55-.741 1.258-.778 2.125-.024.993.351 1.94 1.125 2.84.773.9 2.086 1.382 3.937 1.444 1.852-.062 3.164-.543 3.938-1.443.773-.9 1.148-1.848 1.125-2.84-.037-.868-.297-1.576-.778-2.126-.481-.55-.963-.954-1.444-1.214-.482-.26-.741-.388-.778-.386.032.007.259-.09.68-.29.422-.2.843-.545 1.264-1.035.422-.49.648-1.165.68-2.028-.042-1.304-.519-2.281-1.429-2.933-.91-.652-1.996-.978-3.258-.978zm0 2.129c.578-.008 1.063.126 1.453.402.391.275.594.736.61 1.38-.086.582-.43 1.095-1.031 1.537-.602.442-.946.675-1.032.698-.086-.023-.43-.256-1.031-.698-.602-.442-.945-.955-1.031-1.537.015-.644.219-1.105.61-1.38.39-.276.874-.41 1.452-.402zm0 6.252c.03.007.241.138.632.394.391.255.783.593 1.174 1.014.391.42.602.883.632 1.386-.031.648-.297 1.122-.797 1.42-.5.3-1.047.447-1.64.443a3.1 3.1 0 0 1-1.641-.442c-.5-.3-.766-.773-.797-1.42.03-.446.24-.88.632-1.304a7.714 7.714 0 0 1 1.173-1.056c.392-.28.602-.424.632-.435zm9.34 5.216c0-.431-.173-.845-.48-1.148-.307-.305-.692-.464-1.154-.475-.463.011-.848.17-1.155.475a1.613 1.613 0 0 0 0 2.295c.307.306.692.464 1.155.476.462-.012.847-.17 1.155-.476.307-.305.467-.688.479-1.147zM54.25 38.617H44.188v-2.422H54.25zM27.977 31.705c-1.208.031-2.174.597-2.898 1.698-.725 1.101-1.097 2.553-1.115 4.356.018 1.802.39 3.254 1.115 4.355.724 1.101 1.69 1.667 2.898 1.698 1.207-.03 2.173-.597 2.898-1.698.725-1.101 1.096-2.553 1.115-4.355-.019-1.72-.39-3.148-1.115-4.285-.725-1.136-1.69-1.726-2.898-1.769zm0 1.835c.582-.009 1.047.325 1.396 1.002.348.677.527 1.749.536 3.217-.009 1.467-.188 2.54-.536 3.216-.349.677-.814 1.01-1.396 1.002-.582.009-1.048-.325-1.396-1.002-.349-.677-.528-1.749-.536-3.216.008-1.468.187-2.54.536-3.217.348-.677.814-1.01 1.396-1.002zm9.738-1.835c-1.207.031-2.173.597-2.898 1.698-.725 1.101-1.096 2.553-1.115 4.356.019 1.802.39 3.254 1.115 4.355.725 1.101 1.69 1.667 2.898 1.698 1.208-.03 2.174-.597 2.898-1.698.725-1.101 1.097-2.553 1.115-4.355-.018-1.72-.39-3.148-1.115-4.285-.724-1.136-1.69-1.726-2.898-1.769zm0 1.835c.582-.009 1.048.325 1.396 1.002.349.677.528 1.749.536 3.217-.008 1.467-.187 2.54-.536 3.216-.348.677-.814 1.01-1.396 1.002-.582.009-1.047-.325-1.396-1.002-.348-.677-.527-1.749-.536-3.216.009-1.468.188-2.54.536-3.217.349-.677.814-1.01 1.396-1.002zM75.937 32.669l.785 1.75c.407-.356.803-.614 1.19-.775.385-.16.866-.24 1.443-.237.387.01.728.138 1.022.388.294.249.449.562.464.94-.018.462-.278.905-.78 1.33-.502.424-1.133.72-1.895.885v1.624c.15-.07.316-.113.496-.129.18-.015.362-.021.544-.018.933.04 1.525.265 1.776.675.25.41.36.76.326 1.054-.031.682-.292 1.18-.78 1.495-.488.315-1.077.47-1.767.467a8.697 8.697 0 0 1-1.593-.145c-.555-.1-1.022-.27-1.401-.509l.255 2.067c.052.021.41.106 1.072.253a10.56 10.56 0 0 0 1.964.253c1.417-.049 2.5-.467 3.246-1.255.746-.787 1.122-1.648 1.128-2.583-.022-.638-.217-1.167-.584-1.586a3.967 3.967 0 0 0-1.225-.963c-.45-.222-.81-.357-1.079-.404.62-.086 1.164-.394 1.635-.923.47-.53.718-1.206.743-2.03-.04-.822-.385-1.472-1.035-1.949a3.637 3.637 0 0 0-2.15-.73c-.632.016-1.321.137-2.067.361-.747.225-1.324.456-1.733.694zm13.099-.886c-1.208.03-2.174.597-2.898 1.698-.725 1.101-1.096 2.553-1.115 4.355.019 1.803.39 3.255 1.115 4.356.724 1.101 1.69 1.667 2.898 1.698 1.207-.031 2.174-.597 2.898-1.698.725-1.101 1.096-2.553 1.115-4.356-.019-1.72-.39-3.147-1.115-4.284-.724-1.137-1.69-1.726-2.898-1.77v.001zm0 1.835c.582-.009 1.047.325 1.396 1.002.348.676.527 1.749.536 3.216-.009 1.468-.188 2.54-.536 3.217-.349.677-.814 1.01-1.396 1.002-.582.008-1.048-.325-1.396-1.002-.349-.677-.527-1.75-.536-3.217.009-1.467.187-2.54.536-3.216.348-.677.814-1.01 1.396-1.002z" fill="#000"/><path d="M50 7.926c-.84 0-1.654.112-2.43.318l1.063 6.643-5.259-4.235a9.29 9.29 0 0 0-2.432 4.179l6.324 2.408-6.324 2.408a9.288 9.288 0 0 0 2.432 4.18l5.259-4.235-1.062 6.645a9.45 9.45 0 0 0 4.858-.003l-1.062-6.642 5.259 4.234a9.29 9.29 0 0 0 2.432-4.179l-6.324-2.408 6.324-2.408a9.29 9.29 0 0 0-2.432-4.179l-5.259 4.235 1.062-6.643A9.44 9.44 0 0 0 50 7.926z" fill="red"/></g><path d="M46.2 71.492c0 .754-.295 1.381-.883 1.881-.588.5-1.327.75-2.217.75-.946 0-1.699-.244-2.26-.732-.56-.489-.84-1.114-.84-1.875 0-.485.14-.923.422-1.316.281-.392.678-.704 1.19-.934v-.036c-.47-.25-.816-.523-1.04-.82-.225-.297-.338-.668-.338-1.113 0-.656.27-1.203.809-1.64.539-.438 1.225-.657 2.057-.657.87 0 1.566.209 2.086.627.52.418.779.95.779 1.594 0 .394-.123.782-.37 1.163-.245.38-.607.678-1.083.893v.035c.547.235.965.524 1.254.868.289.343.433.78.433 1.312h.001zm-1.39-4.26c0-.418-.16-.75-.483-.999-.322-.248-.733-.372-1.233-.372-.492 0-.896.118-1.21.352a1.12 1.12 0 0 0-.472.95c0 .28.08.524.237.729.159.205.398.387.718.547.145.07.353.163.624.276.272.113.536.207.794.281.387-.258.654-.525.803-.803.148-.277.223-.597.223-.96l-.001-.001zm.182 4.372c0-.36-.079-.648-.237-.865-.158-.217-.468-.434-.929-.653a5.886 5.886 0 0 0-.603-.24c-.22-.075-.51-.178-.873-.31a2.306 2.306 0 0 0-.847.778 2 2 0 0 0-.32 1.114c0 .527.182.963.546 1.306.363.344.824.516 1.382.516.57 0 1.027-.146 1.368-.44.342-.292.513-.695.513-1.206zm4.805 2.32h-1.4v-1.67h1.4v1.67zm8.262-2.772c0 .407-.075.795-.223 1.166a2.706 2.706 0 0 1-.61.938c-.287.277-.63.492-1.004.63-.389.146-.84.22-1.35.22-.477 0-.936-.05-1.378-.15a5.76 5.76 0 0 1-1.119-.36v-1.237h.082c.32.204.695.376 1.125.519.43.143.852.214 1.266.214.277 0 .546-.04.805-.117a1.66 1.66 0 0 0 1.085-1.014c.087-.234.131-.506.131-.815 0-.3-.052-.554-.155-.761a1.286 1.286 0 0 0-.43-.498 1.892 1.892 0 0 0-.742-.314 4.805 4.805 0 0 0-.976-.09c-.343 0-.674.023-.993.07-.318.047-.593.093-.823.14V65.2H58v1.026h-4.12v2.32c.324-.03.649-.046.974-.047.472 0 .886.04 1.242.12.355.08.681.222.978.425.313.215.555.492.727.832.172.34.258.766.258 1.277v-.001zm3.732 2.772h-1.4v-1.67h1.4v1.67zm8.262-2.772c0 .407-.074.795-.223 1.166a2.706 2.706 0 0 1-.61.938c-.287.277-.63.492-1.004.63a3.83 3.83 0 0 1-1.35.22c-.477 0-.936-.05-1.378-.15a5.76 5.76 0 0 1-1.119-.36v-1.237h.082c.32.204.695.376 1.125.519.43.143.852.214 1.266.214.277 0 .546-.04.805-.117a1.648 1.648 0 0 0 1.085-1.014c.087-.234.131-.506.131-.815 0-.3-.051-.554-.155-.761a1.286 1.286 0 0 0-.43-.498 1.892 1.892 0 0 0-.742-.314 4.805 4.805 0 0 0-.975-.09c-.344 0-.675.023-.994.07a15.83 15.83 0 0 0-.823.14V65.2h5.25v1.026h-4.119v2.32c.323-.03.648-.046.973-.047.472 0 .886.04 1.242.12.355.08.681.222.978.425.313.215.555.492.727.832.172.34.258.766.258 1.277v-.001z" fill="#8B8B8B"/></g></g></svg>