<?xml version="1.0" encoding="UTF-8"?>
<svg id="_Слой_1" data-name=" Слой 1" xmlns="http://www.w3.org/2000/svg" width="110" height="80" viewBox="0 0 110 80">
  <defs>
    <style>
      .cls-1 {
        fill: none;
      }

      .cls-2 {
        fill: #fff;
      }

      .cls-3 {
        fill: #8b8b8b;
      }
    </style>
  </defs>
  <g>
    <path class="cls-3" d="m42.71,73.94c-.43,0-.83-.06-1.18-.19s-.66-.31-.91-.56c-.25-.23-.43-.51-.56-.83s-.19-.66-.19-1.02c0-.47.13-.91.38-1.3s.62-.71,1.1-.95v-.04c-.43-.25-.75-.52-.96-.82s-.31-.67-.31-1.11c0-.66.25-1.2.74-1.64s1.12-.66,1.89-.66,1.43.21,1.91.62.72.95.72,1.6c0,.39-.11.78-.34,1.16s-.56.68-.99.9v.04c.51.24.89.53,1.15.87s.39.78.39,1.31c0,.75-.27,1.37-.81,1.88s-1.22.76-2.03.76Zm1.64-2.52c0-.36-.07-.64-.21-.86s-.41-.43-.81-.64c-.13-.07-.31-.15-.53-.24s-.47-.19-.75-.3c-.32.21-.57.48-.74.79s-.26.67-.26,1.08c0,.53.16.96.48,1.31s.72.52,1.2.52.89-.15,1.18-.44.45-.7.45-1.2Zm-.16-4.37c0-.39-.13-.72-.39-.98s-.62-.39-1.09-.39c-.43,0-.77.12-1.05.35s-.41.55-.41.95c0,.29.07.53.21.73s.35.38.62.54c.12.07.31.16.55.28s.47.21.68.28c.34-.26.57-.53.69-.81s.18-.59.18-.95Z"/>
    <path class="cls-3" d="m48.5,73.74h-1.4v-1.67h1.4v1.67Z"/>
    <path class="cls-3" d="m55.87,70.74h-1.04v3h-1.12v-3h-3.86v-1.23l3.9-4.49h1.08v4.79h1.04v.94Zm-2.16-.94v-3.41l-2.94,3.41h2.94Z"/>
    <path class="cls-3" d="m58.56,73.74h-1.4v-1.67h1.4v1.67Z"/>
    <path class="cls-3" d="m65.51,66.32l-3.77,7.42h-1.25l4-7.7h-4.51v-1.03h5.54v1.31Z"/>
    <path class="cls-3" d="m67.58,73.74h-1.4v-1.67h1.4v1.67Z"/>
    <path class="cls-3" d="m74.72,73.74h-5.38v-1.22c.39-.37.75-.72,1.1-1.05s.68-.69,1.01-1.05c.66-.73,1.12-1.32,1.36-1.75s.36-.89.36-1.36c0-.24-.04-.46-.11-.64s-.18-.34-.31-.46c-.14-.12-.29-.21-.47-.26s-.38-.09-.59-.09-.42.03-.63.08-.42.12-.61.2c-.16.07-.32.15-.47.24s-.28.17-.37.24h-.06v-1.24c.24-.12.58-.24,1.01-.35s.84-.17,1.23-.17c.81,0,1.45.22,1.91.65s.69,1.02.69,1.75c0,.34-.04.65-.12.94s-.19.56-.33.8c-.14.25-.32.51-.52.76s-.42.5-.64.74c-.37.4-.78.81-1.23,1.24s-.81.77-1.08,1.02h4.29v1Z"/>
  </g>
  <g>
    <g>
      <path d="m12.53,5.25h85.15c3.41,0,6.14,2.8,6.14,6.3h0v37.1c0,3.5-2.73,6.3-6.14,6.3H12.53c-3.41,0-6.14-2.8-6.14-6.3V11.55c0-3.5,2.73-6.3,6.14-6.3Z"/>
      <path class="cls-2" d="m12.82,6.85h84.67c2.64,0,4.77,2.2,4.77,4.9v36.6c0,2.7-2.15,4.9-4.77,4.9H12.82c-2.64,0-4.77-2.2-4.77-4.9V11.75c0-2.7,2.05-4.9,4.77-4.9Z"/>
    </g>
    <g>
      <rect x="50.02" y="36.37" width="14.4" height="2"/>
      <path d="m43.02,33.37l2.8-15.8c.2-1.1,1.2-1.8,2.3-1.6h0l-3.1,17.8s-2-.4-2-.4Z"/>
      <rect x="46.95" y="27.66" width="2" height="11" transform="translate(-10.32 31.36) rotate(-32.9)"/>
      <circle cx="68.02" cy="37.27" r="4.2"/>
      <circle cx="43.32" cy="37.27" r="4.2"/>
      <path d="m61.62,37.37c-.6-.1-.9-.6-.8-1.2,1-4.8,5.2-6.1,7.3-6.1h0c.5,0,1,.4,1,1,0,.5-.4,1-1,1-.2,0-4.5.1-5.4,4.5-.1.5-.5.8-1,.8-.1,0-.2,0-.1,0Z"/>
      <path d="m46.02,17.17h0c0-.9.7-1.6,1.6-1.6h2c.9,0,1.6.7,1.6,1.6h0c0,.9-.7,1.6-1.6,1.6h-2c-.9,0-1.6-.7-1.6-1.6Z"/>
    </g>
    <rect class="cls-1" width="110" height="80"/>
  </g>
</svg>