<svg width="110" height="97" xmlns="http://www.w3.org/2000/svg"><g fill="none" fill-rule="evenodd"><path d="M0 0h110v97H0z"/><g fill-rule="nonzero"><path d="M11.3 6.167h87.4a6.3 6.3 0 0 1 6.3 6.3v54.066a6.3 6.3 0 0 1-6.3 6.3H11.3a6.3 6.3 0 0 1-6.3-6.3V12.467a6.3 6.3 0 0 1 6.3-6.3z" fill="#000"/><path d="M11.567 7.833h86.866a4.9 4.9 0 0 1 4.9 4.9v53.534a4.9 4.9 0 0 1-4.9 4.9H11.567a4.9 4.9 0 0 1-4.9-4.9V12.733a4.9 4.9 0 0 1 4.9-4.9z" fill="#FFF"/><path d="M16.25 50.997v12.5h2.679v-5.803a9.17 9.17 0 0 1 .346-.044c.118-.013.226-.02.323-.02 1.231.085 2.165.744 2.802 1.977a117.48 117.48 0 0 0 2.109 3.89h3.348a9.992 9.992 0 0 1-1.88-2.688c-.466-.972-1-1.91-1.597-2.808a3.852 3.852 0 0 0-2.326-1.646c.538-.16 1.013-.494 1.426-1.003.413-.51.851-1.007 1.314-1.492a2.778 2.778 0 0 1 1.724-.854l-.67-2.232c-.927.129-1.765.57-2.512 1.323a66.26 66.26 0 0 0-2.108 2.223c-.658.728-1.319 1.12-1.98 1.174a3.02 3.02 0 0 1-.16-.004.665.665 0 0 1-.16-.028v-4.465H16.25zm21.649-.446c-1.107.074-1.907.372-2.4.893-.492.52-.734.818-.725.893-.197-.351-.345-.797-.446-1.34h-2.233v17.858h2.679V62.38c.019.163.316.451.893.865.576.414 1.32.647 2.232.698.49.02 1.171-.145 2.042-.496.87-.352 1.667-1.013 2.39-1.984.721-.972 1.104-2.377 1.148-4.217-.093-2.622-.744-4.408-1.953-5.357-1.209-.948-2.418-1.395-3.627-1.339v.001zm0 2.455c.804.01 1.483.382 2.037 1.116.553.735.842 1.777.865 3.125-.023 1.358-.312 2.437-.865 3.237-.554.8-1.233 1.21-2.037 1.228a3.659 3.659 0 0 1-1.742-.475 3.698 3.698 0 0 1-1.383-1.311v-4.688c.343-.678.789-1.218 1.335-1.618a3.045 3.045 0 0 1 1.79-.614zm15.373-2.455c-1.707.028-3.092.642-4.157 1.841-1.065 1.2-1.614 2.819-1.646 4.855.032 2.037.58 3.656 1.646 4.855 1.065 1.2 2.45 1.814 4.157 1.842 1.707-.028 3.093-.642 4.157-1.842 1.065-1.2 1.614-2.818 1.647-4.855-.033-2.036-.582-3.655-1.647-4.855-1.064-1.2-2.45-1.813-4.157-1.841zm0 2.232c.912.019 1.656.428 2.232 1.228.577.8.874 1.879.893 3.236-.019 1.358-.316 2.437-.893 3.237-.576.8-1.32 1.21-2.232 1.228-.911-.019-1.655-.428-2.232-1.228-.577-.8-.874-1.879-.893-3.237.019-1.357.316-2.436.893-3.236.577-.8 1.32-1.21 2.232-1.228zM63.76 63.498h2.679l.67-8.706 3.57 7.143 3.573-7.143.669 8.706H77.6l-1.116-12.5h-2.68l-3.124 6.25-3.125-6.25h-2.678l-1.117 12.5zm24.327-10.715c.693.002 1.34.277 1.942.825.6.548.921 1.166.96 1.854a.812.812 0 0 1-.052.307c-.035.088-.092.134-.17.14h-5.581c.03-1.104.335-1.896.912-2.377a3.146 3.146 0 0 1 1.99-.749h-.001zm5.134 5.357c.196-.014.355-.153.479-.418.129-.29.194-.604.191-.921-.046-1.725-.623-3.185-1.73-4.38-1.107-1.196-2.465-1.819-4.074-1.87a5.837 5.837 0 0 0-2.523.614c-.819.4-1.508.94-2.068 1.618a4.982 4.982 0 0 0-.973 1.921c-.193.728-.294 1.576-.303 2.543.026 2.037.652 3.656 1.878 4.855 1.225 1.2 2.704 1.814 4.436 1.842.788.004 1.596-.228 2.423-.698.828-.47 1.636-1.204 2.424-2.204l-2.169-1.244c-.432.56-.85.98-1.255 1.264-.405.284-.879.426-1.423.426-.628.028-1.325-.195-2.093-.67-.767-.473-1.186-1.366-1.255-2.678h8.035zM54.234 10.334a2.97 2.97 0 0 0-2.172.943L41.72 22.366a2.965 2.965 0 0 1-1.758.913l-15.83 2.226a2.97 2.97 0 0 0-2.554 2.993l.098 5.635a2.5 2.5 0 0 0 2.431 2.407c.744-3.588 3.94-6.284 7.769-6.284 4.38 0 7.93 3.533 7.93 7.89h28.203c0-4.357 3.55-7.89 7.93-7.89 4.012 0 7.329 2.967 7.856 6.817l1.509-.41a2.494 2.494 0 0 0 1.806-1.934l1.553-7.988a2.971 2.971 0 0 0-.659-2.495L77.013 11.374a2.975 2.975 0 0 0-2.261-1.04H54.234zm.328 2.344h20.366c1.153 0 2.134.839 2.314 1.978l.967 6.093a2.343 2.343 0 0 1-2.314 2.71H48.004a1.875 1.875 0 0 1-1.372-3.154l6.557-7.031a1.88 1.88 0 0 1 1.373-.596z" fill="#000"/><path d="M31.875 31.583a6.563 6.563 0 1 0-.162 13.125 6.563 6.563 0 0 0 .162-13.125zm0 2.657a3.906 3.906 0 1 1 0 7.812 3.906 3.906 0 0 1 0-7.812zm44.062-2.657a6.563 6.563 0 1 0-.162 13.125 6.563 6.563 0 0 0 .162-13.125zm0 2.657a3.906 3.906 0 1 1 0 7.812 3.906 3.906 0 0 1 0-7.812z" fill="#000"/><path d="M42.242 89.405c0 .743-.296 1.362-.888 1.855-.592.493-1.336.74-2.233.74-.952 0-1.71-.24-2.274-.723-.565-.481-.847-1.098-.847-1.85 0-.477.142-.91.425-1.297.283-.387.682-.695 1.197-.922v-.035c-.472-.246-.82-.516-1.047-.809-.226-.293-.339-.659-.339-1.098 0-.648.271-1.187.814-1.619.543-.431 1.233-.647 2.07-.647.878 0 1.578.206 2.101.618.523.413.785.937.785 1.573 0 .389-.124.771-.372 1.147s-.611.67-1.091.882v.034c.55.232.971.517 1.262.856.291.339.437.77.437 1.295zm-1.398-4.203c0-.412-.163-.74-.487-.985-.325-.245-.739-.367-1.242-.367-.496 0-.902.115-1.218.347a1.1 1.1 0 0 0-.475.936c0 .277.08.517.239.72.16.202.4.382.722.54.146.07.355.16.629.272.273.111.54.204.8.277.389-.254.658-.518.807-.792.15-.273.225-.59.225-.948zm.183 4.312c0-.354-.08-.638-.24-.852-.159-.214-.47-.429-.934-.645a5.998 5.998 0 0 0-.608-.237c-.22-.073-.513-.175-.88-.306-.344.18-.637.445-.852.769-.214.323-.321.69-.321 1.098 0 .52.183.95.548 1.29.366.338.83.508 1.393.508.574 0 1.033-.145 1.377-.434.344-.289.517-.686.517-1.19v-.001zm4.837 2.29h-1.41v-1.648h1.41v1.648zm8.59-2.422H53.15v2.421h-1.132v-2.421H47.81v-1.33l4.254-4.855h1.085v5.26h1.304v.925h.001zm-2.436-.925v-3.885l-3.404 3.885h3.404zm5.923 3.346h-1.41v-1.647h1.41v1.647zm7.888 0h-4.755v-.878h1.829v-5.769h-1.83v-.786c.249 0 .514-.02.797-.06.283-.041.498-.1.643-.177a1.2 1.2 0 0 0 .428-.367c.104-.148.164-.348.18-.598h.914v7.757h1.794v.878zM74 87.497c0 1.545-.247 2.68-.74 3.402-.494.722-1.26 1.084-2.298 1.084-1.054 0-1.824-.366-2.31-1.099-.486-.732-.729-1.857-.729-3.375 0-1.53.246-2.66.738-3.39.491-.73 1.258-1.096 2.3-1.096 1.055 0 1.825.371 2.31 1.113.486.742.729 1.862.729 3.361zm-1.552 2.624c.138-.312.231-.679.28-1.1.05-.423.074-.93.074-1.524 0-.586-.024-1.094-.073-1.526a3.512 3.512 0 0 0-.287-1.098 1.525 1.525 0 0 0-.563-.67c-.238-.151-.544-.226-.917-.226-.37 0-.676.075-.918.225-.242.15-.433.378-.575.682-.134.286-.225.657-.274 1.116-.05.459-.074.961-.074 1.509 0 .6.022 1.104.065 1.508.043.405.136.767.277 1.087.13.3.314.53.552.688.238.158.553.237.947.237.37 0 .676-.075.92-.226.244-.15.433-.377.566-.682z" fill="#8B8B8B"/></g></g></svg>