<svg width="115" height="71" xmlns="http://www.w3.org/2000/svg"><g transform="translate(8 11)" fill-rule="nonzero" fill="none"><rect fill="#000" y=".166" width="100" height="49.669" rx="6.3"/><rect fill="#FFF" x="1.667" y="1.821" width="96.667" height="46.358" rx="4.9"/><g fill="#000"><path d="M26.48 18.348l1.472 1.907L31.3 18.17v19.246h4.375V12.583h-3.75zM55.61 16.618l1.25-4.035H42.483V24.69l2.813 1.552c.312-.214.781-.563 1.406-1.048.625-.485 1.406-.757 2.344-.815 1.412.058 2.493.563 3.242 1.514.749.95 1.126 1.998 1.133 3.143-.078 1.552-.703 2.716-1.875 3.492-1.172.776-2.422 1.164-3.75 1.164a18.58 18.58 0 0 1-3.17-.238c-1.062-.171-1.985-.506-2.768-1.004l.625 4.036c.072.052.71.259 1.914.62 1.205.363 2.546.57 4.024.622 3.001-.065 5.358-.945 7.07-2.639 1.712-1.694 2.585-3.816 2.617-6.364-.097-2.496-.918-4.41-2.46-5.743-1.544-1.332-3.223-2.005-5.04-2.018a7.302 7.302 0 0 0-2.215.31 3.66 3.66 0 0 0-1.847 1.243v-5.899h9.062zM63.017 20.033v3.415h5.268v13.969h3.75v-13.97h5.223v-3.414z"/></g></g></svg>