<svg width="291" height="65" xmlns="http://www.w3.org/2000/svg"><g fill="none" fill-rule="evenodd"><path d="M0 0h291v65H0z"/><g fill-rule="nonzero"><path d="M8.333 1.333h125.334a6 6 0 0 1 6 6v32a6 6 0 0 1-6 6H8.333a6 6 0 0 1-6-6v-32a6 6 0 0 1 6-6z" fill="#FFF"/><path d="M7.023 1.333A4.668 4.668 0 0 0 2.333 6v34.667a4.666 4.666 0 0 0 4.69 4.666h128.621a4.668 4.668 0 0 0 4.69-4.666V6a4.667 4.667 0 0 0-4.69-4.667H7.023zm0 1.334h128.621A3.334 3.334 0 0 1 138.994 6v34.667a3.333 3.333 0 0 1-3.35 3.333H7.023a3.334 3.334 0 0 1-3.35-3.333V6a3.333 3.333 0 0 1 3.35-3.333z" fill="#1A1A1A"/><path d="M14.283 13.333c.002 1.556-.001 3.278-.009 5.167a277.95 277.95 0 0 1-.065 5.167c-.035 1.555-.094 2.61-.176 3.166-.193.911-.592 1.633-1.197 2.167-.604.534-1.183.915-1.737 1.143-.553.228-.849.34-.887.333l.571 3.357c.07.037.6-.092 1.592-.389.99-.296 2.02-.981 3.09-2.055 1.07-1.074 1.76-2.76 2.068-5.056.082-.91.14-2.145.176-3.703.047-2.098.072-4.197.074-6.296h5.5v17h3.5v-20h-12.5v-.001zm33.514 20.001v-20h-3.75l-7.25 13.75v-13.75h-3.5v20h3.75l7.25-13.75v13.75h3.5zm6.496-20v20h3.5v-17h7.5v17h3.5v-20h-14.5zm20.996 20h12.75v-3h-9.25v-6h7.25v-3h-7.25v-4.75h9v-3.25h-12.5v20zm18.253 0h13.75v4h3v-7h-2.25v-17h-3.5v17h-7.5v-17h-3.5v20zm21.746-20.001v20h3.5v-9.142c.031-.005.219-.023.562-.054.344-.031.656-.05.938-.054.737.006 1.357.226 1.86.66.502.433.965 1.047 1.39 1.84.71 1.258 1.435 2.509 2.174 3.75a78.35 78.35 0 0 1 1.719 3h4.357c-.867-.715-1.655-1.692-2.363-2.93a236.412 236.412 0 0 1-2.137-3.82c-.57-1.1-1.162-2.045-1.775-2.835-.612-.79-1.52-1.262-2.725-1.415.51-.067 1.096-.493 1.757-1.279a38.142 38.142 0 0 0 1.743-2.22c.501-.733.98-1.33 1.434-1.79.454-.46 1.143-.696 2.066-.71l-.75-3.5c-1.707.26-3.07 1.044-4.092 2.353a86.003 86.003 0 0 0-2.815 3.805c-.855 1.229-1.886 1.855-3.093 1.877a.679.679 0 0 1-.156-.021.306.306 0 0 1-.094-.05v-7.465h-3.5z" fill="#000"/><path fill="red" d="M95.445 1.333l-62.838 44h13.948l62.838-44z"/><g><path d="M157.333 1.333h125.334a6 6 0 0 1 6 6v32a6 6 0 0 1-6 6H157.333a6 6 0 0 1-6-6v-32a6 6 0 0 1 6-6z" fill="#FFF"/><path d="M156.023 1.333A4.668 4.668 0 0 0 151.333 6v34.667a4.666 4.666 0 0 0 4.69 4.666h128.621a4.668 4.668 0 0 0 4.69-4.666V6a4.667 4.667 0 0 0-4.69-4.667H156.023zm0 1.334h128.621A3.334 3.334 0 0 1 287.994 6v34.667a3.333 3.333 0 0 1-3.35 3.333H156.023a3.334 3.334 0 0 1-3.35-3.333V6a3.333 3.333 0 0 1 3.35-3.333z" fill="#1A1A1A"/><path d="M280.975 4L154 38.292v2.375c0 1.108.892 2 2 2h3.025L286 8.375V6c0-1.108-.892-2-2-2h-3.025z" fill="red"/><path d="M192 7l-9.333 19.833v2.352l17.543-4.736L192 7zm83.592 5.549l-11.259 3.04v14.744H262v-4.666l-11.667-5.834-11.666 5.834v4.666h-2.334V28l-4.531-3.624-56.628 15.29h105.493V14l-5.075-1.451zm-105.759 9.618l-10.5 3.5v9.822l21-5.673v-4.15l-10.5-3.5v.001z" fill="#000"/></g><path d="M58.703 60.075c0 .403-.074.788-.223 1.155-.137.35-.345.666-.612.929a2.9 2.9 0 0 1-1.008.623c-.39.145-.842.218-1.355.218-.479 0-.94-.05-1.382-.148-.386-.08-.762-.2-1.123-.357v-1.224h.082c.322.201.698.372 1.13.513.43.142.854.212 1.27.212.277 0 .547-.039.808-.116.26-.077.493-.213.696-.406.173-.166.303-.366.391-.598.089-.232.133-.5.133-.806 0-.298-.052-.55-.156-.755a1.279 1.279 0 0 0-.432-.493 1.912 1.912 0 0 0-.744-.31 4.883 4.883 0 0 0-.979-.09c-.345 0-.677.023-.997.07-.32.046-.594.092-.826.139V54.18h5.268v1.015h-4.133v2.298c.324-.03.65-.045.976-.046.474 0 .89.04 1.247.119.356.08.683.22.981.42.314.213.557.488.73.824.172.337.258.759.258 1.265zm3.745 2.745h-1.405v-1.654h1.405v1.654zm8.361 0h-5.926v-1.213l1.237-1.044a22.92 22.92 0 0 0 1.156-1.039c.752-.72 1.268-1.29 1.546-1.715a2.45 2.45 0 0 0 .417-1.372c0-.449-.15-.8-.45-1.053-.3-.253-.718-.38-1.255-.38-.356 0-.743.062-1.158.186-.43.13-.84.322-1.217.568H65.1V54.54c.278-.136.65-.26 1.114-.372a5.74 5.74 0 0 1 1.35-.168c.897 0 1.6.214 2.11.641.51.428.765 1.007.765 1.738 0 .329-.042.636-.127.92-.085.286-.21.56-.373.81-.153.24-.332.475-.538.707-.206.232-.456.49-.75.772-.42.406-.852.8-1.299 1.18-.447.382-.864.735-1.252 1.06h4.71v.992h-.001zm7.855-2.431h-1.3v2.431h-1.128v-2.43h-4.192v-1.335l4.239-4.874h1.082v5.28h1.3v.929l-.001-.001zm-2.428-.929v-3.9l-3.393 3.9h3.393zm5.903 3.36h-1.405v-1.654h1.405v1.654zm7.861 0h-4.739v-.882h1.823v-5.791H85.26v-.79c.247 0 .512-.02.794-.06.282-.04.496-.1.64-.177a1.2 1.2 0 0 0 .427-.369c.104-.148.164-.349.18-.6h.91v7.787H90v.882zm116.627-2.745c0 .403-.073.788-.22 1.155a2.68 2.68 0 0 1-.604.929 2.85 2.85 0 0 1-.995.623c-.384.145-.83.218-1.337.218-.472 0-.926-.05-1.363-.148-.38-.08-.752-.2-1.108-.357v-1.224h.081c.317.201.689.372 1.114.513.425.142.843.212 1.253.212.275 0 .54-.039.798-.116.257-.077.486-.213.687-.406a1.62 1.62 0 0 0 .386-.598 2.29 2.29 0 0 0 .13-.806c0-.298-.05-.55-.153-.755a1.274 1.274 0 0 0-.427-.493c-.22-.155-.47-.26-.733-.31-.289-.06-.61-.09-.966-.09-.34 0-.668.023-.984.07-.273.04-.545.085-.815.139V54.18h5.198v1.015h-4.078v2.298c.32-.03.641-.045.963-.046.468 0 .878.04 1.23.119.352.08.675.22.969.42.309.213.549.488.719.824.17.337.255.759.255 1.265zm3.696 2.745h-1.387v-1.654h1.387v1.654zm8.249 0h-5.848v-1.213l1.221-1.044c.408-.348.788-.695 1.14-1.039.743-.72 1.251-1.29 1.526-1.715.275-.423.412-.88.412-1.372 0-.449-.148-.8-.444-1.053-.296-.253-.709-.38-1.238-.38a3.97 3.97 0 0 0-1.143.186 4.65 4.65 0 0 0-1.201.568h-.058V54.54c.274-.136.64-.26 1.1-.372.435-.11.882-.166 1.33-.168.886 0 1.58.214 2.083.641.503.428.754 1.007.754 1.738 0 .329-.041.636-.124.92a3.148 3.148 0 0 1-.369.81c-.15.24-.328.475-.53.707-.204.232-.45.49-.74.772-.414.406-.841.8-1.282 1.18-.441.382-.853.735-1.236 1.06h4.647v.992zm7.75-2.431h-1.282v2.431h-1.114v-2.43h-4.136v-1.335l4.183-4.874h1.067v5.28h1.282v.929-.001zm-2.396-.929v-3.9l-3.347 3.9h3.347zm5.825 3.36h-1.387v-1.654h1.387v1.654zm8.249 0h-5.848v-1.213l1.222-1.044c.408-.348.788-.695 1.14-1.039.742-.72 1.25-1.29 1.525-1.715.275-.423.412-.88.412-1.372 0-.449-.148-.8-.444-1.053-.296-.253-.708-.38-1.238-.38a3.97 3.97 0 0 0-1.143.186 4.65 4.65 0 0 0-1.2.568h-.059V54.54c.275-.136.641-.26 1.1-.372.435-.11.882-.166 1.33-.168.886 0 1.58.214 2.083.641.503.428.755 1.007.755 1.738 0 .329-.042.636-.125.92a3.148 3.148 0 0 1-.369.81 5.52 5.52 0 0 1-.53.707c-.203.232-.45.49-.74.772-.414.406-.841.8-1.282 1.18-.441.382-.853.735-1.236 1.06H238v.992z" fill="#8B8B8B"/></g></g></svg>