<svg width="110" height="80" xmlns="http://www.w3.org/2000/svg"><g fill="none" fill-rule="evenodd"><path d="M0 0h110v80H0z"/><g fill-rule="nonzero"><path d="M11.3 6.166h87.4a6.3 6.3 0 0 1 6.3 6.3v37.068a6.3 6.3 0 0 1-6.3 6.3H11.3a6.3 6.3 0 0 1-6.3-6.3V12.466a6.3 6.3 0 0 1 6.3-6.3z" fill="#000"/><path d="M12.5 7.821c-3.232 0-5.833 2.585-5.833 5.795v34.458H55v-4.657h48.333V13.616c0-3.21-2.601-5.795-5.833-5.795h-85z" fill="#FFF"/><path d="M58.099 14.64a1.582 1.582 0 0 0-.276.031l-8.99 1.9-8.994 1.898c-.712.15-1.354.85-1.443 1.568l-.328 2.659-.688 5.505v.015l-.161 1.278a1.858 1.858 0 0 0-1.443 2.21l1.563 7.29a1.87 1.87 0 0 0 2.224 1.433l27.505-5.81a1.861 1.861 0 0 0 1.448-2.21l-1.563-7.284a1.873 1.873 0 0 0-2.224-1.439l-.666-1.102-.01-.015-2.876-4.755-1.39-2.292c-.328-.542-1.04-.9-1.688-.88zm-.307 1.956c.324-.01.68.169.843.44l4.26 7.036-11.921 2.52-11.917 2.514 1.01-8.148c.045-.359.364-.712.72-.787l8.437-1.78 8.432-1.78a.762.762 0 0 1 .136-.015zM39.755 41.337l.78 3.644a2.812 2.812 0 0 0 3.335 2.152 2.794 2.794 0 0 0 2.167-3.314l-.78-3.643-5.502 1.161zm22.008-4.647l.78 3.644a2.812 2.812 0 0 0 3.336 2.152 2.794 2.794 0 0 0 2.166-3.314l-.78-3.644-5.502 1.162z" fill="#000"/><path d="M46.174 72.405c0 .743-.293 1.362-.878 1.855-.586.493-1.322.74-2.21.74-.94 0-1.69-.24-2.249-.723-.558-.481-.837-1.098-.837-1.85 0-.477.14-.91.42-1.297.28-.387.675-.695 1.185-.922v-.035c-.467-.246-.812-.516-1.036-.809-.224-.293-.336-.659-.336-1.098 0-.648.269-1.187.806-1.619.537-.431 1.22-.647 2.048-.647.867 0 1.56.206 2.077.618.518.413.776.937.776 1.573 0 .389-.122.771-.367 1.147s-.605.67-1.08.882v.034c.545.232.961.517 1.25.856.287.339.43.77.43 1.295h.001zm-1.383-4.203c0-.412-.16-.74-.482-.985-.32-.245-.73-.367-1.228-.367-.49 0-.892.115-1.205.347-.313.23-.47.543-.47.936 0 .277.08.517.237.72.157.202.396.382.715.54.143.07.35.16.621.272.27.111.534.204.79.277.386-.254.652-.518.8-.792a1.96 1.96 0 0 0 .222-.948zm.18 4.312c0-.354-.078-.638-.236-.852-.157-.214-.465-.429-.924-.645a5.894 5.894 0 0 0-.602-.237c-.29-.099-.58-.2-.869-.306-.35.189-.631.445-.843.769a1.96 1.96 0 0 0-.318 1.098c0 .52.18.95.542 1.29.362.338.821.508 1.378.508.568 0 1.022-.145 1.362-.434.34-.289.51-.686.51-1.19v-.001zm4.786 2.29h-1.395v-1.648h1.395v1.648zm8.426-2.792c0 .874-.29 1.588-.872 2.141-.582.553-1.295.83-2.139.83-.428 0-.817-.066-1.167-.197a2.679 2.679 0 0 1-.928-.584c-.334-.32-.592-.743-.773-1.271-.18-.528-.271-1.164-.271-1.908 0-.763.082-1.44.248-2.029.165-.59.429-1.113.79-1.572a3.473 3.473 0 0 1 1.325-1.02c.54-.245 1.171-.367 1.89-.367.23 0 .423.01.578.029.156.019.314.054.473.104v1.104h-.058a2.177 2.177 0 0 0-.493-.165 2.916 2.916 0 0 0-.674-.078c-.837 0-1.504.26-2.002.777-.498.519-.788 1.219-.87 2.102.327-.197.65-.346.966-.448a3.59 3.59 0 0 1 1.1-.154c.37 0 .696.034.978.102a2.6 2.6 0 0 1 .866.407c.343.235.6.532.774.89.173.359.26.794.26 1.307h-.001zM57 72.058c0-.359-.054-.655-.16-.89a1.53 1.53 0 0 0-.529-.613 1.495 1.495 0 0 0-.595-.243 3.915 3.915 0 0 0-1.605.058 4.118 4.118 0 0 0-.875.358c-.016.18-.024.362-.024.544 0 .609.064 1.09.19 1.442.127.352.3.63.522.835.18.17.373.294.581.373.218.08.448.12.68.118.564 0 1.007-.17 1.33-.511.323-.341.485-.832.485-1.471zm4.703 2.745h-1.395v-1.647h1.395v1.647zm8.298 0h-5.882v-1.208l1.228-1.04c.41-.347.793-.692 1.147-1.035.747-.717 1.258-1.286 1.535-1.708.276-.422.414-.878.414-1.367 0-.447-.149-.797-.446-1.049-.298-.252-.713-.379-1.246-.379a4.03 4.03 0 0 0-1.15.185c-.428.13-.834.321-1.208.567h-.058v-1.214c.276-.135.645-.258 1.106-.37a5.678 5.678 0 0 1 1.339-.168c.89 0 1.589.213 2.095.64.506.425.758 1.002.758 1.73 0 .328-.041.633-.125.916a3.121 3.121 0 0 1-.37.807c-.152.239-.33.474-.535.705a13.54 13.54 0 0 1-.744.769c-.416.404-.846.797-1.29 1.176-.443.38-.857.731-1.242 1.055H70v.988h.001z" fill="#8B8B8B"/></g></g></svg>