<svg width="156" height="65" xmlns="http://www.w3.org/2000/svg"><g transform="translate(6 6)" fill="none" fill-rule="evenodd"><rect fill="#FFF" fill-rule="nonzero" x="1" y="1" width="142" height="49" rx="6.3"/><rect stroke="#000" x=".5" y=".5" width="143" height="50" rx="6.16"/><path d="M7.69 3C5.09 3 3 5.129 3 7.773v35.454C3 45.871 5.091 48 7.69 48h12.727V32.66h-7.034l11.724-20.681 11.723 20.68h-7.034V48h106.515c2.598 0 4.689-2.129 4.689-4.773V7.773C141 5.129 138.909 3 136.31 3H7.69zm81.192 5.795h31.594c1.591 0 2.872 1.304 2.872 2.924v20.595H86.01V11.719c0-1.62 1.281-2.924 2.873-2.924zm-15.6 8.902h8.13c1.586 0 2.872 1.31 2.872 2.924v13.444h25.009a6.138 6.138 0 0 0-3.455 5.263H83.413c-.15-3.254-2.786-5.846-6.02-5.846-3.235 0-5.87 2.592-6.021 5.846h-2.596c-1.586 0-2.872-1.309-2.872-2.923v-8.987c0-.583.17-1.154.49-1.637l4.505-6.797a2.86 2.86 0 0 1 2.382-1.287zm.15 1.752a1.43 1.43 0 0 0-1.19.648l-2.712 4.09c-.16.242-.247.527-.247.819 0 .807.643 1.461 1.436 1.461h9.257c.793 0 1.436-.654 1.436-1.461V20.91c0-.808-.643-1.462-1.436-1.462h-6.544zm40.994 14.616h8.922v5.263h-5.468a6.137 6.137 0 0 0-3.454-5.263zm-37.033.588c2.696 0 4.882 2.225 4.882 4.97 0 2.744-2.186 4.968-4.882 4.968-2.697 0-4.882-2.224-4.882-4.969 0-2.744 2.185-4.969 4.882-4.969zm34.466 0c2.697 0 4.882 2.225 4.882 4.97 0 2.744-2.185 4.968-4.882 4.968-2.696 0-4.882-2.224-4.882-4.969 0-2.744 2.186-4.969 4.882-4.969zM77.393 36.99c-1.428 0-2.584 1.18-2.584 2.633s1.156 2.63 2.584 2.63c1.427 0 2.583-1.177 2.583-2.63 0-1.453-1.156-2.633-2.583-2.633zm34.466 0c-1.427 0-2.583 1.18-2.583 2.633s1.156 2.63 2.583 2.63c1.428 0 2.584-1.177 2.584-2.63 0-1.453-1.156-2.633-2.584-2.633z" fill="#0D69E1" fill-rule="nonzero"/></g></svg>