<svg width="100" height="86" xmlns="http://www.w3.org/2000/svg"><g fill="none" fill-rule="evenodd"><path d="M89.734 43A39.867 39.867 0 1 1 10 43a39.867 39.867 0 1 1 79.734 0z" fill="#FFF" fill-rule="nonzero"/><path d="M90.5 43c0 22.368-18.132 40.5-40.5 40.5S9.5 65.368 9.5 43 27.632 2.5 50 2.5 90.5 20.632 90.5 43z" stroke="#000"/><path d="M50 5C29.013 5 12 22.013 12 43s17.013 38 38 38 38-17.013 38-38S70.987 5 50 5zm0 7c17.12 0 31 13.88 31 31 0 17.12-13.88 31-31 31-17.12 0-31-13.88-31-31 0-17.12 13.88-31 31-31z" fill="red" fill-rule="nonzero"/><g fill="#000" fill-rule="nonzero"><path d="M25.633 47.152a3.152 3.152 0 0 1 0-6.304h48.506a3.152 3.152 0 1 1 0 6.304H25.633zM27.568 28.56h4.84v.957h-1.9v5.476h-1.036v-5.476h-1.904zM35.783 30.043l-.812 2.708h1.65l-.838-2.708zm-.65-1.483h1.29l2.072 6.433h-1.224l-.395-1.277h-2.164l-.399 1.277H33.01l2.124-6.433zM40.225 34.993H39.1l.654-6.433h1.097l1.506 2.896 1.413-2.896h1.132l.649 6.433H44.42l-.44-4.809-1.622 3.523-1.686-3.536zM47.304 31.781c0 .635.137 1.177.412 1.626.275.45.61.674 1.005.674.39 0 .723-.225 1-.674.278-.449.417-.99.417-1.626 0-.635-.139-1.178-.417-1.63-.277-.452-.61-.678-1-.678-.395 0-.73.226-1.005.678-.275.452-.412.995-.412 1.63zm-1.146-.004c0-.93.25-1.723.748-2.379.5-.655 1.1-.983 1.802-.983.708 0 1.311.328 1.81.983.499.656.748 1.449.748 2.379 0 .924-.25 1.714-.748 2.37-.499.655-1.102.982-1.81.982-.702 0-1.303-.327-1.802-.982-.498-.656-.748-1.446-.748-2.37zM53.25 35.011l-1.387-.048c.097-.05.393-.482.887-1.295.617-1.012.94-1.539.97-1.58.257-.371.59-.59 1-.653-.178-.036-.37-.186-.575-.452l-.895-1.146c-.111-.146-.23-.238-.36-.276a2.549 2.549 0 0 0-.452-.062l.33-1.092c.482.026.914.254 1.294.684.287.392.57.784.851 1.176.32.427.648.648.988.663v-2.37h1.101v2.37c.345-.015.679-.234 1-.658l.852-1.18c.38-.43.812-.659 1.295-.685l.324 1.092c-.24.02-.39.041-.452.062-.123.038-.241.13-.355.276l-.89 1.146c-.112.14-.196.235-.251.285a.694.694 0 0 1-.334.167c.413.064.748.282 1.005.653.03.041.353.568.97 1.58.495.813.791 1.245.891 1.295l-1.391.048c-.103-.108-.326-.477-.672-1.106l-.675-1.224c-.173-.281-.351-.468-.536-.562-.17-.088-.43-.136-.78-.145l.017 3.015H55.9v-3.015c-.344.012-.6.06-.767.145-.187.094-.366.281-.536.562a43.694 43.694 0 0 1-1.347 2.33zM65.235 28.56h1.062v6.442h-1.062V32.05h-2.51v2.953h-1.066V28.56h1.066v2.541h2.51zM69.725 29.534c-.301 0-.537.094-.707.281-.155.173-.232.404-.232.694 0 .286.11.518.331.695.221.177.517.266.889.266h1.057v-1.936h-1.338zm2.48-.974v6.433h-1.142v-2.606h-.904c-.324 0-.594.186-.807.557-.345.682-.69 1.365-1.031 2.05h-1.43c.195-.182.365-.403.508-.663l.961-1.725c.179-.322.385-.512.619-.57-.234-.041-.487-.215-.76-.522-.3-.346-.451-.697-.451-1.054 0-.553.183-1.007.548-1.364.366-.357.835-.536 1.409-.536h2.48z"/><g><path d="M32.21 56.228c0-.925.249-1.714.746-2.368.497-.654 1.095-.98 1.795-.98.517 0 .99.188 1.417.565.416.363.723.844.922 1.444l-1.036.435c-.108-.416-.279-.75-.511-1.005-.233-.255-.494-.382-.784-.382-.389 0-.72.224-.996.671-.275.448-.412.99-.412 1.624 0 .635.137 1.177.412 1.626.275.449.607.673.996.673.281 0 .537-.121.766-.364.23-.243.403-.564.52-.965l1.031.395c-.198.594-.506 1.069-.921 1.426-.421.368-.89.553-1.404.553-.7 0-1.298-.327-1.795-.981-.497-.654-.746-1.443-.746-2.367zM40.413 59.545c.561 0 1.069-.16 1.522-.483.5-.374.75-.898.75-1.57v-4.485h-1.07v4.484c0 .334-.132.615-.395.843a1.324 1.324 0 0 1-.834.268c-.322 0-.602-.08-.842-.242-.281-.196-.422-.485-.422-.869v-4.484h-1.075v4.484c0 .647.26 1.166.781 1.558.46.33.988.496 1.585.496zM44.42 57.733l.834.592c.272.126.63.189 1.075.189.304 0 .54-.095.709-.283a.967.967 0 0 0 .252-.665.84.84 0 0 0-.125-.452.655.655 0 0 0-.353-.28l-1.264-.326c-.483-.16-.833-.338-1.049-.53-.313-.296-.47-.684-.47-1.164 0-.523.228-.97.683-1.34.455-.37.94-.555 1.455-.555.511 0 .951.067 1.318.202.367.134.724.357 1.069.667l-.746.697-.465-.355c-.237-.176-.57-.263-1.001-.263-.31 0-.586.1-.827.302-.242.202-.362.409-.362.62l.026.162.066.14c.067.094.16.178.276.254l1.607.492c.53.21.865.37 1.009.478.322.255.483.638.483 1.15 0 .556-.245 1.044-.733 1.466-.457.403-.972.605-1.545.605-.506 0-.981-.096-1.426-.29-.372-.166-.797-.435-1.277-.807l.781-.706zM49.581 53.007h4.841v.957h-1.9v5.476h-1.036v-5.476h-1.905zM56.53 56.228c0 .634.137 1.176.412 1.625.275.45.61.674 1.005.674.389 0 .722-.225 1-.674.278-.449.417-.99.417-1.625s-.139-1.179-.417-1.63c-.278-.453-.611-.679-1-.679-.395 0-.73.226-1.005.678-.275.452-.413.996-.413 1.63zm-1.146-.005c0-.93.25-1.723.748-2.378.499-.656 1.1-.983 1.801-.983.708 0 1.312.327 1.81.983.5.655.749 1.448.749 2.378 0 .925-.25 1.714-.748 2.37-.5.655-1.103.983-1.81.983-.703 0-1.303-.328-1.802-.983-.499-.656-.748-1.445-.748-2.37zM66.311 53.007h1.251v6.433H66.43v-4.634l-1.93 3.362-1.919-3.362v4.634H61.45v-6.433H62.7l1.8 3.089z"/></g></g></g></svg>