<svg width="110" height="80" xmlns="http://www.w3.org/2000/svg"><g fill="none" fill-rule="evenodd"><path d="M0 0h110v80H0z"/><g fill-rule="nonzero"><g transform="translate(5 6)"><rect fill="#000" width="100" height="50" rx="6.3"/><rect fill="#FFF" x="1.429" y="1.429" width="97.143" height="47.143" rx="4.9"/><path d="M20.313 37.188a6.563 6.563 0 1 0 13.125.162 6.563 6.563 0 0 0-13.125-.162zm2.656 0a3.906 3.906 0 1 1 7.812 0 3.906 3.906 0 0 1-7.812 0zm41.406 0a6.563 6.563 0 1 0 13.125.162 6.563 6.563 0 0 0-13.125-.162zm2.656 0a3.906 3.906 0 1 1 7.813 0 3.906 3.906 0 0 1-7.813 0z" fill="#000"/><path d="M63.047 37.188a7.89 7.89 0 0 1 15.71-1.06l1.576-.413a2.5 2.5 0 0 0 1.807-1.938l1.55-7.975a2.967 2.967 0 0 0-.657-2.495l-11.01-12.891a2.969 2.969 0 0 0-2.257-1.04H49.219c-.824 0-1.61.341-2.171.943L36.71 21.404a2.968 2.968 0 0 1-1.758.915L19.14 24.54a2.97 2.97 0 0 0-2.555 2.992l.098 5.624a2.5 2.5 0 0 0 2.46 2.456 7.89 7.89 0 0 1 15.623 1.575h28.28l.001.001zM42.992 22.5a1.875 1.875 0 0 1-1.371-3.154l6.556-7.031c.355-.38.852-.596 1.372-.596h20.375c1.152 0 2.134.838 2.314 1.977l.966 6.094a2.344 2.344 0 0 1-2.315 2.71H42.992z" fill="#000"/></g><path d="M46.2 71.405c0 .743-.295 1.362-.883 1.855-.588.493-1.327.74-2.217.74-.946 0-1.699-.24-2.26-.723-.56-.481-.84-1.098-.84-1.85 0-.477.14-.91.422-1.297.281-.387.678-.695 1.19-.922v-.035c-.47-.246-.816-.516-1.04-.809-.225-.293-.338-.659-.338-1.098 0-.648.27-1.187.809-1.619.539-.431 1.225-.647 2.057-.647.87 0 1.566.206 2.086.618.52.413.779.937.779 1.573 0 .389-.123.771-.37 1.147-.245.376-.607.67-1.083.882v.034c.547.232.965.517 1.254.856.289.339.433.77.433 1.295h.001zm-1.39-4.203c0-.412-.16-.74-.483-.985-.322-.245-.733-.367-1.233-.367-.492 0-.896.115-1.21.347a1.103 1.103 0 0 0-.472.936c0 .277.08.517.237.72.159.202.398.382.718.54.145.07.353.16.624.272.26.107.524.2.794.277.387-.254.654-.518.803-.792.148-.273.223-.59.223-.948h-.001zm.182 4.312c0-.354-.079-.638-.237-.852-.158-.214-.468-.429-.929-.645a5.933 5.933 0 0 0-.603-.237 37.78 37.78 0 0 1-.873-.306c-.343.18-.634.445-.847.769-.213.323-.32.69-.32 1.098 0 .52.182.95.546 1.29.363.338.824.508 1.382.508.57 0 1.027-.145 1.368-.434.342-.289.513-.686.513-1.19v-.001zm4.805 2.29h-1.4v-1.648h1.4v1.648zm8.531-2.422h-1.295v2.421h-1.125v-2.421H51.73v-1.33l4.225-4.855h1.078v5.26h1.295v.925zm-2.42-.925v-3.885l-3.38 3.885h3.38zm5.883 3.346h-1.4v-1.647h1.4v1.647zm7.564-4.144c.188.166.342.374.463.624s.182.574.182.971a2.57 2.57 0 0 1-.826 1.936c-.293.27-.638.47-1.034.599-.397.13-.831.194-1.304.194-.484 0-.961-.057-1.43-.17a6.784 6.784 0 0 1-1.154-.374v-1.208h.088c.332.216.722.395 1.172.538a4.31 4.31 0 0 0 1.3.214c.247 0 .508-.04.786-.122.277-.08.502-.2.673-.358.18-.17.314-.357.402-.56.088-.205.132-.463.132-.775 0-.309-.05-.564-.15-.766a1.181 1.181 0 0 0-.413-.477 1.628 1.628 0 0 0-.638-.246 4.636 4.636 0 0 0-.81-.066h-.526v-.96h.41c.593 0 1.067-.122 1.42-.367.354-.245.53-.602.53-1.072 0-.208-.044-.39-.134-.546a1.092 1.092 0 0 0-.375-.385 1.7 1.7 0 0 0-.539-.208 3.313 3.313 0 0 0-.65-.058c-.371 0-.766.066-1.184.197-.418.13-.816.318-1.184.555h-.058V65.56c.277-.135.647-.26 1.11-.373.463-.114.911-.17 1.345-.17.426 0 .8.038 1.125.115.324.077.617.2.879.37.281.185.494.408.639.67.144.262.216.569.216.92 0 .477-.17.894-.512 1.25a2.25 2.25 0 0 1-1.21.674v.081c.187.031.402.096.644.194s.447.22.615.367v.001z" fill="#8B8B8B"/></g></g></svg>