<svg width="100" height="86" xmlns="http://www.w3.org/2000/svg"><g fill="none" fill-rule="evenodd"><path d="M90 43c0 22.091-17.909 40-40 40S10 65.091 10 43 27.909 3 50 3s40 17.909 40 40z" fill="#FFF" fill-rule="nonzero"/><path d="M89 43C89 21.46 71.54 4 50 4S11 21.46 11 43s17.46 39 39 39 39-17.46 39-39z" stroke="#000" stroke-width="2"/><path d="M50 4C28.46 4 11 21.46 11 43s17.46 39 39 39 39-17.46 39-39S71.54 4 50 4zm0 1.345c8.12 0 15.64 2.568 21.79 6.938L19.283 64.79A37.487 37.487 0 0 1 12.345 43C12.345 22.204 29.204 5.345 50 5.345zm22.74 7.644c.453.344.896.696 1.332 1.06L21.048 67.071a37.77 37.77 0 0 1-1.059-1.332L72.74 12.99zm2.228 1.824c.422.375.834.759 1.24 1.152L22.964 69.207a37.797 37.797 0 0 1-1.152-1.24l53.155-53.154zm2.067 1.98c.393.405.777.817 1.152 1.24L25.032 71.186a37.797 37.797 0 0 1-1.24-1.152l53.243-53.242zm1.917 2.135c.363.436.715.88 1.059 1.332L27.26 73.01a37.77 37.77 0 0 1-1.332-1.058l53.024-53.024zm1.765 2.282A37.487 37.487 0 0 1 87.655 43c0 20.796-16.859 37.655-37.655 37.655-8.12 0-15.64-2.568-21.79-6.938L80.717 21.21z" fill="#000" fill-rule="nonzero"/></g></svg>