<svg width="100" height="86" xmlns="http://www.w3.org/2000/svg"><g transform="translate(10 3)" fill="none" fill-rule="evenodd"><rect fill="#FFF" fill-rule="nonzero" width="80" height="80" rx="6"/><rect stroke="#000" x=".5" y=".5" width="79" height="79" rx="6"/><path d="M6.304 3A3.296 3.296 0 0 0 3 6.304v67.392A3.296 3.296 0 0 0 6.304 77h67.392A3.296 3.296 0 0 0 77 73.696V6.304A3.296 3.296 0 0 0 73.696 3H6.304zm17.839 7.929h21.143c10.217 0 18.5 8.282 18.5 18.5 0 10.217-8.283 18.5-18.5 18.5H32.07V69.07h-7.928V10.93zm7.928 7.928V40h13.215c5.838 0 10.571-4.733 10.571-10.571 0-5.839-4.733-10.572-10.571-10.572H32.07z" fill="#0D69E1" fill-rule="nonzero"/></g></svg>