<svg width="163" height="191" xmlns="http://www.w3.org/2000/svg"><g fill="none" fill-rule="evenodd"><g transform="translate(10 70)"><rect fill="#FFF" fill-rule="nonzero" x="1" y="1" width="142" height="49" rx="6.3"/><rect stroke="#000" x=".5" y=".5" width="143" height="50" rx="6.16"/><path d="M7.701 3C5.097 3 3 5.129 3 7.773v35.454C3 45.871 5.097 48 7.701 48H43.3C45.903 48 48 45.871 48 43.227V7.773C48 5.129 45.903 3 43.299 3H7.7zM25.5 7.419l10.44 18.358h-7.548v17.804h-5.784V25.777H15.06L25.5 7.419zM54.65 3.469c-2.576 0-4.65 2.106-4.65 4.723v35.085C50 45.894 52.074 48 54.65 48h81.7c2.576 0 4.65-2.106 4.65-4.723V8.192c0-2.617-2.074-4.723-4.65-4.723h-81.7zm13.446 11.913h6.88c2.516.118 4.3.913 5.35 2.39 1.052 1.478 1.564 2.927 1.532 4.34-.032 1.413-.671 2.857-1.914 4.335-1.242 1.478-2.898 2.277-4.969 2.395h-3.313v7.245h-3.566V15.382zm21.937 0h3.055v20.705h-3.566V20.041L86.79 21.78l-1.2-1.59 4.443-4.807zm11.732 0h3.055v20.705h-3.566V20.041l-2.732 1.738-1.2-1.59 4.443-4.807zm9.693 0h11.72l-1.017 3.365h-7.39v4.917c.4-.507.903-.854 1.507-1.038a5.826 5.826 0 0 1 1.806-.257c1.481.011 2.852.572 4.11 1.683 1.258 1.11 1.925 2.709 2.005 4.79-.027 2.125-.738 3.892-2.134 5.305-1.396 1.413-3.319 2.148-5.766 2.201-1.205-.043-2.298-.216-3.28-.518-.982-.302-1.502-.476-1.56-.519l-.511-3.365c.638.415 1.392.697 2.258.84.866.142 1.725.207 2.582.197 1.083 0 2.104-.322 3.06-.97.955-.647 1.464-1.62 1.528-2.913-.006-.955-.312-1.83-.922-2.623-.61-.793-1.492-1.213-2.645-1.261-.764.048-1.404.274-1.913.679-.51.404-.891.699-1.146.877l-2.292-1.295V15.382zm-39.796 3.103v7.25h2.296c1.062.01 1.995-.268 2.802-.84.807-.571 1.232-1.5 1.275-2.783-.043-1.283-.468-2.212-1.275-2.783-.807-.572-1.74-.854-2.802-.844h-2.296z" fill="#0D69E1" fill-rule="nonzero"/></g><g transform="translate(10 131)"><rect fill="#FFF" fill-rule="nonzero" x="1" y="1" width="142" height="49" rx="6.3"/><rect stroke="#000" x=".5" y=".5" width="143" height="50" rx="6.16"/><path d="M101.597 3.469C99.05 3.469 97 5.575 97 8.192v35.085C97 45.894 99.05 48 101.597 48h34.806c2.547 0 4.597-2.106 4.597-4.723V8.192c0-2.617-2.05-4.723-4.597-4.723h-34.806zm30.718 8.168l-5.283 20.258-5.22-5.36-12.125 12.462-4.002-4.112 12.129-12.46-5.221-5.36 19.722-5.428zM7.7 3C5.098 3 3 5.129 3 7.773v35.454C3 45.871 5.097 48 7.7 48h82.6c2.603 0 4.7-2.129 4.7-4.773V7.773C95 5.129 92.903 3 90.3 3H7.7zm58.705 11.774c2.094.076 3.768 1.123 5.024 3.137 1.256 2.014 1.903 4.543 1.935 7.589-.032 3.193-.679 5.766-1.935 7.717-1.256 1.951-2.93 2.954-5.024 3.009-2.093-.055-3.768-1.058-5.024-3.009-1.256-1.95-1.898-4.524-1.93-7.717.032-3.193.674-5.766 1.93-7.717 1.256-1.951 2.931-2.954 5.024-3.009zm-39.448.264h3.605L35.2 25.24l4.638-10.202h3.61l2.316 20.924H41.9l-1.289-15.43-5.41 12.293-5.41-12.294-1.289 15.43h-3.865l2.32-20.923zm24.599 0h3.093v20.924h-3.605V19.747l-2.762 1.756-1.217-1.607 4.491-4.858zm14.85 2.988c-1.01-.016-1.814.578-2.418 1.777-.604 1.198-.917 3.097-.932 5.697.015 2.6.328 4.499.932 5.697.604 1.2 1.408 1.793 2.417 1.777 1.01.016 1.818-.578 2.422-1.777.604-1.198.912-3.097.928-5.697-.016-2.6-.324-4.499-.928-5.697-.604-1.2-1.413-1.793-2.422-1.777z" fill="#0D69E1" fill-rule="nonzero"/></g><g transform="translate(10 9)"><rect fill="#FFF" fill-rule="nonzero" x="2" y="2.134" width="140" height="46.733" rx="6.3"/><rect stroke="#000" x=".5" y=".5" width="143" height="50" rx="6.16"/><path d="M7.701 3C5.097 3 3 5.129 3 7.773v35.454C3 45.871 5.097 48 7.701 48H43.3C45.903 48 48 45.871 48 43.227V7.773C48 5.129 45.903 3 43.299 3H7.7zm18.072 11.902v7.662H43.31v5.872H25.773v7.662L7.689 25.5l18.084-10.598zM54.65 3.469c-2.576 0-4.65 2.106-4.65 4.723v35.085C50 45.894 52.074 48 54.65 48h81.7c2.576 0 4.65-2.106 4.65-4.723V8.192c0-2.617-2.074-4.723-4.65-4.723h-81.7zm16.348 11.913h3.566l4.588 10.095 4.587-10.095h3.566l2.296 20.705h-3.824l-1.274-15.27-5.351 12.166L73.8 20.817l-1.274 15.27h-3.824l2.296-20.705zm22.293 0h11.724l-1.021 3.365h-7.39v4.917c.4-.507.903-.854 1.507-1.038a5.826 5.826 0 0 1 1.806-.257c1.481.011 2.852.572 4.11 1.683 1.258 1.11 1.926 2.709 2.005 4.79-.026 2.125-.737 3.892-2.134 5.305-1.396 1.413-3.319 2.148-5.766 2.201-1.205-.043-2.297-.216-3.28-.518-.982-.302-1.502-.476-1.56-.519l-.511-3.365c.638.415 1.392.697 2.258.84.866.142 1.73.207 2.587.197 1.083 0 2.1-.322 3.055-.97.956-.647 1.464-1.62 1.528-2.913-.006-.955-.311-1.83-.922-2.623-.61-.793-1.492-1.213-2.644-1.261-.765.048-1.4.274-1.91.679-.51.404-.895.699-1.15.877l-2.292-1.295V15.382zm16.54 0h11.724l-1.018 3.365h-7.393v4.917c.4-.507.902-.854 1.507-1.038a5.826 5.826 0 0 1 1.806-.257c1.48.011 2.851.572 4.11 1.683 1.258 1.11 1.93 2.709 2.009 4.79-.027 2.125-.738 3.892-2.134 5.305-1.396 1.413-3.319 2.148-5.766 2.201-1.206-.043-2.302-.216-3.284-.518-.982-.302-1.503-.476-1.561-.519l-.507-3.365c.639.415 1.388.697 2.255.84.866.142 1.729.207 2.586.197 1.083 0 2.104-.322 3.06-.97.955-.647 1.464-1.62 1.527-2.913-.005-.955-.315-1.83-.925-2.623-.611-.793-1.489-1.213-2.64-1.261-.765.048-1.405.274-1.915.679-.51.404-.89.699-1.145.877l-2.296-1.295V15.382z" fill="#0D69E1" fill-rule="nonzero"/></g></g></svg>