<svg width="100" height="86" xmlns="http://www.w3.org/2000/svg"><g fill="none" fill-rule="evenodd"><path d="M89.734 43A39.867 39.867 0 1 1 10 43a39.867 39.867 0 1 1 79.734 0z" fill="#FFF" fill-rule="nonzero"/><path d="M90.5 43c0 22.368-18.132 40.5-40.5 40.5S9.5 65.368 9.5 43 27.632 2.5 50 2.5 90.5 20.632 90.5 43z" stroke="#000"/><path d="M50 5C29.013 5 12 22.013 12 43s17.013 38 38 38 38-17.013 38-38S70.987 5 50 5zm0 7c17.12 0 31 13.88 31 31 0 17.12-13.88 31-31 31-17.12 0-31-13.88-31-31 0-17.12 13.88-31 31-31z" fill="red" fill-rule="nonzero"/><g fill-rule="nonzero"><path d="M35.806 57.484v7.742h3.742V62h7.956A2.58 2.58 0 0 0 50 63.935 2.58 2.58 0 0 0 52.496 62h7.956v3.226h3.742v-7.742h-3.742v3.226h-7.956A2.58 2.58 0 0 0 50 58.774a2.58 2.58 0 0 0-2.496 1.936h-7.956v-3.226h-3.742zM35.935 54.903h28.387v1.29H35.935z" fill="#000"/><path d="M38.129 20.323a2.317 2.317 0 0 0-2.323 2.322v30.968h28.388V22.645a2.317 2.317 0 0 0-2.323-2.322H38.129z" fill="#FF8000"/></g></g></svg>