<svg width="95" height="136" xmlns="http://www.w3.org/2000/svg"><g fill="none" fill-rule="evenodd"><rect x=".5" y=".5" width="85" height="127" rx="6" transform="translate(5 4)" fill="#FFF" stroke="#000"/><g fill-rule="nonzero"><path d="M11.03 7A3.018 3.018 0 0 0 8 10.02v115.96a3.018 3.018 0 0 0 3.03 3.02h73.94a3.018 3.018 0 0 0 3.03-3.02V10.02A3.018 3.018 0 0 0 84.97 7H11.03zm7.508 19h58.924C80.53 26 83 28.435 83 31.46v58.08c0 3.025-2.47 5.46-5.538 5.46H18.538C15.47 95 13 92.565 13 89.54V31.46c0-3.025 2.47-5.46 5.538-5.46z" fill="#0D69E1"/><path d="M37.429 58.842c-.758 0-1.566.578-1.812 1.293l-.918 2.654-1.898 5.497c-.002.005.001.01 0 .015l-.444 1.278a1.952 1.952 0 0 0-1.955 1.955v7.808c0 1.082.873 1.955 1.955 1.955h29.286a1.952 1.952 0 0 0 1.955-1.955v-7.808a1.952 1.952 0 0 0-1.955-1.955l-.444-1.278c-.001-.005.002-.01 0-.015l-1.898-5.497-.918-2.654c-.246-.715-1.054-1.293-1.812-1.293H37.43zm.594 1.951h17.954c.379 0 .783.289.906.647l2.809 8.139H34.308l2.809-8.14c.123-.357.527-.646.906-.646zM32.357 82.272v3.905a2.929 2.929 0 0 0 5.857 0v-3.905h-5.857zM55.786 82.272v3.905a2.929 2.929 0 0 0 5.857 0v-3.905h-5.857zM44.368 32.921a3.553 3.553 0 0 1-3.552 3.553h-.79a3.553 3.553 0 0 0-3.552 3.552v1.71h21.052v-1.71a3.553 3.553 0 0 0-3.552-3.552h-.79a3.553 3.553 0 0 1-3.552-3.553v-1.71h-5.264v1.71zM46.342 43.053h1.316v14.474h-1.316zM52.263 43.053l1.316 14.473h1.316l-1.316-14.473zM56.211 43.053L72 89.105h1.316l-15.79-46.052zM41.737 43.053l-1.316 14.473h-1.316l1.316-14.473zM37.789 43.053L22 89.105h-1.316l15.79-46.052z" fill="#000"/></g></g></svg>