<svg width="115" height="120" xmlns="http://www.w3.org/2000/svg"><g transform="translate(8 10)" fill-rule="nonzero" fill="none"><rect fill="#000" y=".166" width="100" height="99.668" rx="6.3"/><path d="M7.5 1.827a5.81 5.81 0 0 0-5.833 5.814v37.537h33.817c10.69 0 19.355 8.636 19.355 19.29v33.705H92.5a5.81 5.81 0 0 0 5.833-5.814V51.204H54.84v-2.408h43.494V7.64A5.81 5.81 0 0 0 92.5 1.827H51.208v43.35h-2.416V1.828H7.5zM1.667 54.822V92.36A5.81 5.81 0 0 0 7.5 98.173h37.661V64.467c0-5.327-4.332-9.645-9.677-9.645H1.667z" fill="#FFF"/></g></svg>