<svg width="108" height="102" xmlns="http://www.w3.org/2000/svg"><g transform="translate(15 11)" fill="none" fill-rule="evenodd"><rect fill="#FFF" fill-rule="nonzero" width="80" height="80" rx="6"/><rect stroke="#000" x=".614" y=".614" width="78.771" height="78.771" rx="6"/><path d="M5.803 3A2.797 2.797 0 0 0 3 5.803v68.394A2.797 2.797 0 0 0 5.803 77h13.269V26.92H12.53L22.996 8.606 33.458 26.92H26.92V77h11.773v-8.223h2.614V77H53.08V37.383c0-1.735-.69-3.395-1.917-4.622l-7.768-7.771-4.625 4.625-5.55-20.347 20.35 5.547-4.625 4.625 7.772 7.768a14.387 14.387 0 0 1 4.211 10.175V77h13.269A2.797 2.797 0 0 0 77 74.197V5.803A2.797 2.797 0 0 0 74.197 3H5.803zm32.89 44.848h2.614v7.849h-2.614v-7.849zm0 10.466h2.614v7.849h-2.614v-7.849z" fill="#0D69E1" fill-rule="nonzero"/></g></svg>