<svg width="100" height="86" xmlns="http://www.w3.org/2000/svg"><g fill="none" fill-rule="evenodd"><path d="M0 0h100v86H0z"/><rect fill-opacity=".87" fill="#FFF" x="21" y="1" width="59" height="84" rx="4"/><rect fill="#181818" x="23" y="3" width="55" height="80" rx="3"/><rect fill="#FFF" x="24" y="4" width="53" height="78" rx="2"/><path d="M27.424 6C26.636 6 26 6.63 26 7.412v71.176c0 .782.636 1.412 1.424 1.412h46.152c.79 0 1.424-.63 1.424-1.412V7.412C75 6.63 74.365 6 73.576 6H27.424zm14.89 25.88h16.373c.648 0 1.34.49 1.551 1.098l.781 2.248 1.622 4.662c.002.004 0 .008.002.012l.38 1.084c.925 0 1.67.737 1.67 1.654v6.623a1.66 1.66 0 0 1-1.67 1.656H37.978a1.66 1.66 0 0 1-1.67-1.656v-6.623c0-.917.745-1.654 1.67-1.654l.379-1.084c.002-.004 0-.008.002-.012l1.622-4.662.782-2.25c.21-.606.902-1.098 1.55-1.098v.001zm.509 1.654a.877.877 0 0 0-.777.55l-2.398 6.9h21.704l-2.4-6.9a.873.873 0 0 0-.774-.55H42.823zm17.693 9.022a2.493 2.493 0 0 0-2.502 2.484c0 1.37 1.12 2.483 2.502 2.483 1.384 0 2.506-1.111 2.506-2.483 0-1.371-1.122-2.484-2.506-2.484zm-20.034.083a2.495 2.495 0 0 0-2.505 2.484 2.495 2.495 0 0 0 2.505 2.484 2.493 2.493 0 0 0 2.503-2.484 2.493 2.493 0 0 0-2.503-2.484zm-2.505 9.106h5.008v3.31c0 1.37-1.12 2.483-2.503 2.483a2.494 2.494 0 0 1-2.505-2.484v-3.31zm20.036 0h5.009v3.31c0 1.37-1.122 2.483-2.506 2.483a2.492 2.492 0 0 1-2.502-2.484v-3.31h-.001z" fill="#0D69E1" fill-rule="nonzero"/></g></svg>