<svg width="110" height="80" xmlns="http://www.w3.org/2000/svg"><g fill="none" fill-rule="evenodd"><path d="M0 0h110v80H0z"/><g fill-rule="nonzero"><path d="M11.3 6.166h87.4a6.3 6.3 0 0 1 6.3 6.3v37.068a6.3 6.3 0 0 1-6.3 6.3H11.3a6.3 6.3 0 0 1-6.3-6.3V12.466a6.3 6.3 0 0 1 6.3-6.3z" fill="#000"/><path d="M12.5 7.821c-3.232 0-5.833 2.585-5.833 5.795v34.458H42.5v-4.657h60.833V13.616c0-3.21-2.601-5.795-5.833-5.795h-85z" fill="#FFF"/><path d="M85.39 32.959c2.734 0 4.951 2.202 4.951 4.918 0 2.717-2.217 4.92-4.951 4.92-2.735 0-4.952-2.203-4.952-4.92 0-2.716 2.217-4.918 4.952-4.918zm0 1.99a2.938 2.938 0 0 0-2.948 2.928 2.938 2.938 0 0 0 2.948 2.928 2.938 2.938 0 0 0 2.947-2.928 2.938 2.938 0 0 0-2.947-2.927v-.001zm-33.248-1.99c2.735 0 4.952 2.202 4.952 4.918 0 2.717-2.217 4.92-4.952 4.92-2.734 0-4.951-2.203-4.951-4.92 0-2.716 2.217-4.918 4.951-4.918zm0 1.99a2.938 2.938 0 0 0-2.947 2.928 2.938 2.938 0 0 0 2.947 2.928 2.938 2.938 0 0 0 2.948-2.928 2.938 2.938 0 0 0-2.948-2.927v-.001z" fill="#000"/><path d="M53.036 17.03c-.655 0-1.277.287-1.703.782l-8.297 9.65a2.21 2.21 0 0 0-.494 1.867l1.172 5.986c.14.705.669 1.27 1.364 1.454l1.136.305c.397-2.885 2.899-5.112 5.927-5.112 3.304 0 5.984 2.648 5.984 5.914h21.281c0-3.266 2.68-5.914 5.985-5.914 2.889 0 5.298 2.024 5.859 4.714a1.885 1.885 0 0 0 1.839-1.806l.072-4.222a2.232 2.232 0 0 0-1.927-2.245l-11.948-1.666a2.252 2.252 0 0 1-1.328-.688l-7.802-8.31a2.242 2.242 0 0 0-1.635-.708H53.036v-.001zm-.13 1.76h15.365c.392 0 .769.16 1.036.445l4.948 5.272c.244.26.38.601.38.957 0 .776-.635 1.402-1.416 1.402H52.177a1.76 1.76 0 0 1-1.75-2.028l.73-4.569c.135-.853.88-1.48 1.75-1.48l-.001.001z" fill="#000"/><path d="M46.2 70.492c0 .754-.295 1.381-.883 1.881-.588.5-1.327.75-2.217.75-.946 0-1.699-.244-2.26-.732-.56-.489-.84-1.114-.84-1.875 0-.485.14-.923.422-1.316.281-.392.678-.704 1.19-.934v-.036c-.47-.25-.816-.523-1.04-.82-.225-.297-.338-.668-.338-1.113 0-.656.27-1.203.809-1.64.539-.438 1.225-.657 2.057-.657.87 0 1.566.209 2.086.627.52.418.779.95.779 1.594 0 .394-.123.782-.37 1.163-.245.38-.607.678-1.083.893v.035c.547.235.965.524 1.254.868.289.343.433.78.433 1.312h.001zm-1.39-4.26c0-.418-.16-.75-.483-.999-.322-.248-.733-.372-1.233-.372-.492 0-.896.118-1.21.352a1.12 1.12 0 0 0-.472.95c0 .28.08.524.237.729.159.205.398.387.718.547.145.07.353.163.624.276.272.113.536.207.794.281.387-.258.654-.525.803-.803.148-.277.223-.597.223-.96l-.001-.001zm.182 4.372c0-.36-.079-.648-.237-.865-.158-.217-.468-.434-.929-.653a5.886 5.886 0 0 0-.603-.24c-.22-.075-.51-.178-.873-.31a2.306 2.306 0 0 0-.847.778 2 2 0 0 0-.32 1.114c0 .527.182.963.546 1.306.363.344.824.516 1.382.516.57 0 1.027-.146 1.368-.44.342-.292.513-.695.513-1.206zm4.805 2.32h-1.4v-1.67h1.4v1.67zm8.46-2.83c0 .886-.291 1.61-.875 2.17-.584.561-1.3.841-2.148.841-.43 0-.82-.066-1.172-.199a2.686 2.686 0 0 1-.931-.592c-.336-.324-.595-.753-.777-1.289-.181-.535-.272-1.18-.272-1.933 0-.774.083-1.46.25-2.057a4.51 4.51 0 0 1 .793-1.594 3.492 3.492 0 0 1 1.33-1.034c.543-.248 1.176-.372 1.899-.372.23 0 .423.01.58.03.156.019.314.054.474.105v1.12h-.058a2.172 2.172 0 0 0-.496-.168 2.902 2.902 0 0 0-.676-.079c-.84 0-1.51.263-2.01.788-.5.525-.791 1.235-.873 2.13.328-.2.651-.35.97-.454.358-.11.73-.161 1.104-.155.371 0 .698.034.982.102a2.6 2.6 0 0 1 .87.413c.343.238.602.54.776.903.174.363.26.804.26 1.324zm-1.189.047c0-.364-.053-.664-.16-.903a1.547 1.547 0 0 0-.531-.62 1.494 1.494 0 0 0-.598-.247 3.895 3.895 0 0 0-1.611.059 4.116 4.116 0 0 0-.879.363 5.961 5.961 0 0 0-.023.55c0 .618.063 1.105.19 1.463.127.357.302.64.524.846.18.172.374.298.583.378.21.08.437.12.683.12.567 0 1.012-.172 1.336-.518.324-.346.486-.843.486-1.491zm4.723 2.783h-1.4v-1.67h1.4v1.67zm8.32-4.887a7.72 7.72 0 0 1-.26 2.074c-.174.621-.437 1.15-.788 1.588-.356.446-.801.79-1.336 1.031-.536.243-1.164.364-1.887.364a4.94 4.94 0 0 1-.574-.032 2.44 2.44 0 0 1-.48-.103v-1.12h.058c.113.06.273.115.48.168.207.053.438.079.692.079.863 0 1.54-.259 2.03-.776.49-.518.774-1.232.852-2.142-.32.2-.665.357-1.025.469-.32.093-.67.14-1.049.14a4.16 4.16 0 0 1-.975-.105 2.628 2.628 0 0 1-.876-.41 2.275 2.275 0 0 1-.777-.908c-.174-.368-.26-.807-.26-1.319 0-.89.293-1.615.878-2.174.586-.558 1.301-.838 2.145-.838a3.4 3.4 0 0 1 1.172.197c.36.13.674.327.943.589.332.324.588.74.768 1.25.18.51.27 1.17.27 1.978h-.001zm-1.183-.252c0-.605-.063-1.092-.188-1.459s-.297-.652-.515-.855a1.682 1.682 0 0 0-.592-.378 2.004 2.004 0 0 0-.686-.114c-.562 0-1.007.175-1.333.527-.326.351-.489.846-.489 1.482 0 .371.053.674.158.908.106.235.283.44.533.616.176.12.37.202.58.243a3.791 3.791 0 0 0 1.629-.062c.308-.08.604-.2.88-.357a9.57 9.57 0 0 1 .014-.243 4.37 4.37 0 0 0 .009-.308z" fill="#8B8B8B"/></g></g></svg>