<svg width="110" height="80" xmlns="http://www.w3.org/2000/svg"><g fill="none" fill-rule="evenodd"><path d="M0 0h110v80H0z"/><g fill-rule="nonzero"><g transform="translate(5 6)"><rect fill="#000" width="100" height="50" rx="6.3"/><rect fill="#FFF" x="1.429" y="1.429" width="97.143" height="47.143" rx="4.9"/><path d="M43.373 14.208c-.516 0-1.067.394-1.236.882l-.624 1.81-1.293 3.748c-.002.003-.001.007-.002.01l-.302.871a1.328 1.328 0 0 0-1.33 1.331v5.325a1.328 1.328 0 0 0 1.33 1.331h19.967a1.328 1.328 0 0 0 1.331-1.331V22.86a1.328 1.328 0 0 0-1.331-1.33l-.302-.872c0-.003 0-.007-.002-.01L58.286 16.9l-.625-1.81c-.168-.488-.719-.882-1.235-.882H43.373zm.405 1.331h12.243c.258 0 .533.197.617.441l1.914 5.55H41.247l1.914-5.55a.697.697 0 0 1 .617-.44v-.001zm-3.862 14.643v2.662a1.997 1.997 0 0 0 3.993 0V30.18h-3.993v.002zm15.973 0v2.662a1.997 1.997 0 0 0 3.994 0V30.18h-3.994v.002z" fill="#000"/><path d="M27.853 5.077a.43.43 0 0 0-.429.428v4.903c-.761.026-1.366.63-1.366 1.379V16.4c0 .765.632 1.381 1.417 1.381h2.666v7.315c0 10.932 8.862 19.795 19.795 19.795 10.933 0 19.796-8.862 19.796-19.795 0-10.933-8.863-19.796-19.796-19.796v3.576c8.958 0 16.22 7.262 16.22 16.22 0 8.958-7.262 16.22-16.22 16.22-8.958 0-16.22-7.262-16.22-16.22V17.78h2.791c.785 0 1.417-.616 1.417-1.38v-4.614c0-.749-.606-1.353-1.367-1.379V5.505a.428.428 0 0 0-.428-.428h-.324a.43.43 0 0 0-.429.428v4.9h-6.77v-4.9a.428.428 0 0 0-.43-.428h-.323z" fill="#000"/></g><path d="M40.256 71.405c0 .743-.297 1.362-.89 1.855-.593.493-1.34.74-2.238.74-.954 0-1.714-.24-2.28-.723-.565-.481-.848-1.098-.848-1.85 0-.477.142-.91.426-1.297.284-.387.684-.695 1.2-.922v-.035c-.473-.246-.823-.516-1.05-.809-.226-.293-.34-.659-.34-1.098 0-.648.273-1.187.817-1.619.544-.431 1.235-.647 2.075-.647.879 0 1.58.206 2.105.618.524.413.786.937.786 1.573 0 .389-.124.771-.372 1.147s-.613.67-1.094.882v.034c.552.232.974.517 1.265.856.292.339.438.77.438 1.295zm-1.401-4.203c0-.412-.163-.74-.488-.985-.325-.245-.74-.367-1.245-.367-.497 0-.904.115-1.221.347a1.1 1.1 0 0 0-.476.936c0 .277.08.517.24.72.16.202.4.382.724.54.146.07.356.16.63.272.274.111.54.204.8.277.391-.254.661-.518.81-.792.15-.273.226-.59.226-.948zm.183 4.312c0-.354-.08-.638-.24-.852-.16-.214-.472-.429-.937-.645a6.02 6.02 0 0 0-.609-.237c-.22-.073-.514-.175-.88-.306a2.3 2.3 0 0 0-.855.769 1.94 1.94 0 0 0-.323 1.098c0 .52.184.95.55 1.29.367.338.832.508 1.396.508.575 0 1.036-.145 1.38-.434.345-.289.518-.686.518-1.19v-.001zm4.849 2.29h-1.414v-1.648h1.414v1.648zm8.609-2.422h-1.307v2.421h-1.135v-2.421h-4.216v-1.33l4.263-4.855h1.088v5.26h1.307v.925zm-2.442-.925v-3.885l-3.412 3.885h3.412zm5.936 3.346h-1.413v-1.647h1.413v1.647zm7.634-4.144c.19.166.345.374.467.624.122.25.184.574.184.971a2.57 2.57 0 0 1-.834 1.936c-.296.27-.644.47-1.044.599-.4.13-.839.194-1.315.194-.49 0-.97-.057-1.443-.17a6.89 6.89 0 0 1-1.165-.374v-1.208h.089c.335.216.729.395 1.182.538a4.39 4.39 0 0 0 1.313.214c.248 0 .512-.04.792-.122.28-.08.507-.2.68-.358.182-.17.317-.357.405-.56.089-.205.133-.463.133-.775 0-.309-.05-.564-.15-.766a1.183 1.183 0 0 0-.417-.477 1.651 1.651 0 0 0-.645-.246 4.72 4.72 0 0 0-.816-.066h-.532v-.96h.414c.6 0 1.077-.122 1.434-.367s.535-.602.535-1.072c0-.208-.045-.39-.136-.546a1.097 1.097 0 0 0-.379-.385c-.169-.1-.35-.17-.544-.208a3.373 3.373 0 0 0-.656-.058 4.03 4.03 0 0 0-1.194.197 4.93 4.93 0 0 0-1.195.555h-.059V65.56a5.78 5.78 0 0 1 1.12-.373c.468-.114.92-.17 1.358-.17.43 0 .808.038 1.135.115.327.077.623.2.887.37.284.185.499.408.644.67.146.262.22.569.22.92 0 .477-.173.894-.518 1.25a2.28 2.28 0 0 1-1.221.674v.081c.189.031.406.096.65.194.245.098.452.22.621.367v.001zm4.47 4.144h-1.413v-1.647h1.413v1.647zm7.906 0h-4.766v-.878h1.833v-5.769h-1.833v-.786c.248 0 .515-.02.798-.06.284-.041.499-.1.645-.177a1.21 1.21 0 0 0 .429-.367c.104-.148.164-.348.18-.598h.916v7.757H76v.878z" fill="#8B8B8B"/></g></g></svg>