<svg width="100" height="86" xmlns="http://www.w3.org/2000/svg"><g fill="none" fill-rule="evenodd"><path d="M89.734 43A39.867 39.867 0 1 1 10 43a39.867 39.867 0 1 1 79.734 0z" fill="#FFF" fill-rule="nonzero"/><path d="M90.5 43c0 22.368-18.132 40.5-40.5 40.5S9.5 65.368 9.5 43 27.632 2.5 50 2.5 90.5 20.632 90.5 43z" stroke="#000"/><g fill-rule="nonzero"><path d="M50 4.333C28.645 4.333 11.333 21.645 11.333 43S28.645 81.667 50 81.667 88.667 64.355 88.667 43 71.355 4.333 50 4.333zm0 6.538c17.744 0 32.13 14.385 32.13 32.129a31.992 31.992 0 0 1-7.663 20.817L29.183 18.533A31.991 31.991 0 0 1 50 10.871zM25.533 22.183l45.284 45.284A31.992 31.992 0 0 1 50 75.129C32.256 75.13 17.87 60.744 17.87 43a31.991 31.991 0 0 1 7.663-20.817z" fill="red"/><path d="M50 14.613c-6.209 0-11.628 3.373-14.528 8.387l5.859 5.859c1.093-3.757 4.559-6.504 8.669-6.504a9.032 9.032 0 0 1 9.032 9.032V46.56l7.742 7.742V31.387c0-9.264-7.51-16.774-16.774-16.774zM33.226 31.698V46.87h-6.559l10.43 18.064 10.43-18.064h-6.56V39.44l-7.741-7.742zm25.806 25.806v10.012h7.742v-2.27l-7.742-7.742z" fill="#000"/></g></g></svg>