<svg width="100" height="86" xmlns="http://www.w3.org/2000/svg"><g transform="translate(10 3)" fill="none" fill-rule="evenodd"><path d="M2 0h76a2 2 0 0 1 2 2v72a6 6 0 0 1-6 6H2a2 2 0 0 1-2-2V2a2 2 0 0 1 2-2z" fill="#FFF" fill-rule="nonzero"/><rect stroke="#000" x=".5" y=".5" width="79" height="79" rx="6"/><path d="M5.803 3A2.797 2.797 0 0 0 3 5.803v68.394A2.797 2.797 0 0 0 5.803 77h45.185V55.697c0-6.068-4.92-10.988-10.988-10.988s-10.988 4.92-10.988 10.988h5.757l-9.18 15.697-9.134-15.697h5.756c0-9.825 7.964-17.789 17.789-17.789 4.147 0 7.963 1.416 10.988 3.795V26.395c0-2.583-.911-5.085-2.572-7.064-3.673-4.378-10.034-5.167-14.646-1.986l3.665 4.369-17.922 3.059L25.67 7.685l3.717 4.435a17.707 17.707 0 0 1 10.459-3.514 17.757 17.757 0 0 1 13.784 6.356 17.78 17.78 0 0 1 4.159 11.433V77h16.408A2.797 2.797 0 0 0 77 74.197V5.803A2.797 2.797 0 0 0 74.197 3H5.803zm8.346 24.716h1.433v9.548h-1.671v-7.4l-1.28.802-.563-.732 2.081-2.218zm3.623 0h5.49l-.476 1.552h-3.462v2.267c.187-.234.425-.392.708-.477a2.76 2.76 0 0 1 .844-.119c.694.005 1.335.262 1.924.775.59.512.905 1.247.942 2.207-.012.98-.348 1.798-1.002 2.45-.654.65-1.551.987-2.698 1.012a6.044 6.044 0 0 1-1.538-.239c-.46-.139-.705-.218-.732-.238l-.238-1.552c.299.191.652.32 1.058.385.406.066.807.096 1.209.091.507 0 .985-.146 1.433-.444.447-.299.688-.75.718-1.346a1.928 1.928 0 0 0-.434-1.205c-.286-.366-.698-.563-1.237-.585-.358.022-.659.128-.897.315-.239.186-.417.32-.536.403l-1.076-.596v-4.656zm8.661 2.866h1.43l1.671 3.339 1.671-3.34h1.434l.595 6.683h-1.43l-.36-4.653-1.91 3.819-1.91-3.82-.357 4.654h-1.433l.6-6.682z" fill="#0D69E1" fill-rule="nonzero"/></g></svg>