<svg width="115" height="151" xmlns="http://www.w3.org/2000/svg"><g transform="translate(14 11)" fill-rule="nonzero" fill="none"><rect fill="#FFF" x=".377" y=".377" width="88.83" height="136.418" rx="2"/><path d="M23.035 54.525a27.515 27.515 0 0 0-5.874 17.035c0 15.26 12.37 27.63 27.63 27.63a27.515 27.515 0 0 0 17.036-5.874L23.035 54.525zM44.792 43.93a27.515 27.515 0 0 0-17.035 5.873l38.791 38.792a27.515 27.515 0 0 0 5.874-17.035c0-15.26-12.37-27.63-27.63-27.63z" fill="#7F7F7F"/><path d="M44.792 37.059c-19.055 0-34.501 15.446-34.501 34.5 0 19.055 15.446 34.502 34.5 34.502 19.055 0 34.502-15.447 34.502-34.501 0-19.055-15.447-34.501-34.501-34.501zm0 5.833c15.833 0 28.668 12.835 28.668 28.668a28.552 28.552 0 0 1-6.834 18.578L26.214 49.725a28.552 28.552 0 0 1 18.578-6.833zm-21.835 10.09L63.37 93.394a28.552 28.552 0 0 1-18.578 6.834c-15.833 0-28.668-12.835-28.668-28.668a28.552 28.552 0 0 1 6.833-18.578z" fill="#7F7F7F"/><path d="M4.342.377A3.957 3.957 0 0 0 .377 4.342V132.83a3.957 3.957 0 0 0 3.965 3.965h80.9a3.957 3.957 0 0 0 3.965-3.965V4.342A3.957 3.957 0 0 0 85.24.377H4.342zm0 1.586h80.9c1.233 0 2.245.931 2.369 2.132L1.963 99.929V4.342a2.374 2.374 0 0 1 2.38-2.379zM87.621 7.5v4.015l-85.658 95.85v-4.016L87.621 7.5zm0 7.436v4.015L1.963 114.8v-4.016l85.658-95.85zm0 7.435v4.015l-85.658 95.85v-4.016l85.658-95.849zm0 7.436v4.015l-85.658 95.85v-4.016l85.658-95.85zm0 7.435v95.587a2.374 2.374 0 0 1-2.38 2.38H4.342a2.377 2.377 0 0 1-2.37-2.132l85.649-95.835z" fill="#000"/><g fill="#000"><path d="M24.121 16.031h1.54c.616.007 1.136.207 1.56.599.424.392.645.933.663 1.624-.022.61-.278 1.101-.77 1.475-.491.374-1.09.567-1.795.577-1.28-.064-2.227-.32-2.844-.77-.616-.448-.922-.705-.919-.769l-1.539 1.882c.032.078.524.391 1.475.94.951.549 2.17.862 3.655.94 1.636-.063 2.897-.534 3.784-1.41.887-.877 1.336-1.774 1.347-2.694-.036-.903-.287-1.604-.754-2.103-.466-.498-.933-.844-1.4-1.038-.466-.195-.717-.287-.753-.279.03.01.236-.067.62-.228.385-.162.769-.466 1.153-.912.384-.447.591-1.093.621-1.938-.014-1.055-.413-1.939-1.197-2.651-.784-.713-1.867-1.083-3.25-1.112-1.393.064-2.521.32-3.383.77-.862.449-1.306.705-1.332.77l1.295 2.003c-.007-.055.264-.275.812-.66.55-.385 1.419-.605 2.609-.66.915.047 1.52.296 1.817.749.295.452.43.83.406 1.133.007.295-.136.645-.428 1.047-.292.403-.777.624-1.453.663h-1.54v2.052zM38.283 8.164c-1.878.052-3.277.755-4.196 2.107-.92 1.353-1.378 3.045-1.374 5.076-.004 2.03.455 3.723 1.374 5.076.919 1.352 2.318 2.055 4.196 2.107 1.878-.052 3.277-.755 4.196-2.107.919-1.353 1.377-3.045 1.374-5.076.003-2.03-.455-3.723-1.374-5.076-.92-1.352-2.318-2.055-4.196-2.107zm0 2.223c.958.015 1.735.457 2.33 1.326.595.87.901 2.08.92 3.634-.019 1.553-.325 2.765-.92 3.634-.595.87-1.372 1.311-2.33 1.325-.959-.014-1.735-.456-2.33-1.325-.595-.87-.902-2.08-.92-3.634.018-1.553.325-2.765.92-3.634.595-.87 1.371-1.311 2.33-1.326zM46.988 22.188h2.394V16.03h5.13v6.157h2.395V8.506h-2.395v5.473h-5.13V8.506h-2.394zM64.243 17.4l1.71-5.815 1.71 5.814h-3.42zm.342-8.894l-4.447 13.682h2.566l.855-2.737h4.788l.855 2.737h2.565L67.321 8.506h-2.736z"/></g><path fill="#000" d="M38.992 121.54h5.651v1.487h-5.651z"/><g fill="#000"><path d="M16.909 118.515h4.127a28.036 28.036 0 0 0-1.799 3.43 17.106 17.106 0 0 0-1.213 3.932h1.673c.344-1.597.772-3.005 1.283-4.225a47.221 47.221 0 0 1 1.617-3.471v-1.116h-5.353l-.335 1.45zM24.012 125.096a.969.969 0 0 0-.971-.972.969.969 0 0 0-.972.972.969.969 0 0 0 .972.972.969.969 0 0 0 .971-.972z"/></g><g fill="#000"><path d="M27.363 118.46c-.756.019-1.36.375-1.813 1.068-.453.694-.685 1.608-.697 2.742.012 1.135.244 2.049.697 2.742.453.693 1.057 1.05 1.813 1.069.755-.02 1.359-.376 1.812-1.069.453-.693.685-1.607.697-2.742-.012-1.082-.244-1.981-.697-2.697-.453-.715-1.057-1.087-1.812-1.113zm0 1.155c.364-.006.655.204.873.63.218.426.33 1.101.335 2.025-.006.924-.117 1.6-.335 2.025-.218.426-.51.636-.873.63-.364.006-.655-.204-.873-.63-.218-.426-.33-1.1-.336-2.025.006-.924.118-1.599.336-2.025.218-.426.509-.636.873-.63zM33.4 118.46c-.756.019-1.36.375-1.813 1.068-.453.694-.686 1.608-.697 2.742.011 1.135.244 2.049.697 2.742.453.693 1.057 1.05 1.812 1.069.755-.02 1.36-.376 1.812-1.069.454-.693.686-1.607.698-2.742-.012-1.082-.244-1.981-.698-2.697-.453-.715-1.057-1.087-1.812-1.113zm0 1.155c.363-.006.654.204.872.63.218.426.33 1.101.335 2.025-.005.924-.117 1.6-.335 2.025-.218.426-.509.636-.873.63-.364.006-.655-.204-.873-.63-.218-.426-.33-1.1-.335-2.025.005-.924.117-1.599.335-2.025.218-.426.509-.636.873-.63z"/></g><g fill="#000"><path d="M47.65 119.137l.524.685 1.195-.749v6.915h1.562v-8.923h-1.338zM55.107 126.147c1.27-.043 2.186-.553 2.746-1.53.56-.975.834-2.154.823-3.536-.017-1.396-.319-2.448-.907-3.157-.587-.709-1.363-1.064-2.328-1.066-.746.028-1.373.36-1.882.996-.509.637-.774 1.415-.795 2.334.052 1.034.34 1.727.865 2.078.525.35.98.513 1.366.488a2.76 2.76 0 0 0 1.143-.28c.367-.176.693-.38.976-.613.011.037-.023.291-.103.765-.08.473-.271.946-.574 1.419-.303.473-.784.728-1.442.764-.52-.022-.973-.11-1.356-.263-.384-.153-.585-.24-.604-.263l.176 1.37c.023.021.227.103.613.247a4.17 4.17 0 0 0 1.283.247zm.223-4.732c-.242 0-.484-.111-.725-.334-.242-.223-.372-.558-.39-1.004a2.138 2.138 0 0 1 .354-1.18c.238-.37.603-.572 1.095-.605.352.012.627.15.824.415.197.265.338.557.424.875.085.319.137.563.154.734-.002.046-.152.229-.45.55-.297.32-.726.503-1.286.55zM61.594 125.096a.969.969 0 0 0-.972-.972.969.969 0 0 0-.972.972.969.969 0 0 0 .972.972.969.969 0 0 0 .972-.972z"/></g><g fill="#000"><path d="M65.508 118.46c-.756.019-1.36.375-1.813 1.068-.453.694-.685 1.608-.697 2.742.012 1.135.244 2.049.697 2.742.453.693 1.057 1.05 1.813 1.069.755-.02 1.359-.376 1.812-1.069.453-.693.685-1.607.697-2.742-.012-1.082-.244-1.981-.697-2.697-.453-.715-1.057-1.087-1.812-1.113zm0 1.155c.364-.006.655.204.873.63.218.426.33 1.101.335 2.025-.006.924-.117 1.6-.335 2.025-.218.426-.51.636-.873.63-.364.006-.655-.204-.873-.63-.218-.426-.33-1.1-.336-2.025.006-.924.118-1.599.336-2.025.218-.426.509-.636.873-.63zM71.544 118.46c-.755.019-1.36.375-1.812 1.068-.453.694-.686 1.608-.697 2.742.011 1.135.244 2.049.697 2.742.453.693 1.057 1.05 1.812 1.069.755-.02 1.36-.376 1.813-1.069.453-.693.685-1.607.697-2.742-.012-1.082-.244-1.981-.697-2.697-.454-.715-1.058-1.087-1.813-1.113zm0 1.155c.364-.006.655.204.873.63.218.426.33 1.101.335 2.025-.005.924-.117 1.6-.335 2.025-.218.426-.509.636-.873.63-.364.006-.655-.204-.873-.63-.218-.426-.33-1.1-.335-2.025.005-.924.117-1.599.335-2.025.218-.426.51-.636.873-.63z"/></g></g></svg>