<svg width="95" height="136" xmlns="http://www.w3.org/2000/svg"><g transform="translate(5 4)" fill="none" fill-rule="evenodd"><rect stroke="#000" fill="#FFF" x=".5" y=".5" width="85" height="127" rx="6"/><g fill-rule="nonzero"><path d="M6.03 3A3.018 3.018 0 0 0 3 6.02v115.96A3.018 3.018 0 0 0 6.03 125h73.94a3.018 3.018 0 0 0 3.03-3.02V6.02A3.018 3.018 0 0 0 79.97 3H6.03zm7.508 18h58.924A5.526 5.526 0 0 1 78 26.538v58.924A5.526 5.526 0 0 1 72.462 91H13.538A5.526 5.526 0 0 1 8 85.462V26.538A5.526 5.526 0 0 1 13.538 21z" fill="#0D69E1"/><path d="M40.62 37.951v-7.636h-.753l-9.523 5.883v2.88l-2.256 3.38V34.32l10.652-6.26c.751-.375 2.631-.75 4.51-.75 2.883 0 5.139.75 5.139 1.501 0 .751-1.128 1.127-3.008 1.503v7.636h2.256c1.88 0 3.258.751 3.258 1.878v42.564h-15.79V39.829c0-1.127 1.504-1.878 3.259-1.878h2.255" fill="red"/></g></g></svg>