<svg width="100" height="86" xmlns="http://www.w3.org/2000/svg"><g fill="none" fill-rule="evenodd"><path d="M89.734 43A39.867 39.867 0 1 1 10 43a39.867 39.867 0 1 1 79.734 0z" fill="#FFF" fill-rule="nonzero"/><path d="M90.5 43c0 22.368-18.132 40.5-40.5 40.5S9.5 65.368 9.5 43 27.632 2.5 50 2.5 90.5 20.632 90.5 43z" stroke="#000"/><path d="M50 5C29.013 5 12 22.013 12 43s17.013 38 38 38 38-17.013 38-38S70.987 5 50 5zm0 7c17.12 0 31 13.88 31 31 0 17.12-13.88 31-31 31-17.12 0-31-13.88-31-31 0-17.12 13.88-31 31-31z" fill="red" fill-rule="nonzero"/><g fill="#000" fill-rule="nonzero"><path d="M33.533 27.284c-.707 0-1.37.351-1.766.938l-3.34 4.95a2.129 2.129 0 0 0-.362 1.19v6.548c0 1.175.953 2.129 2.129 2.129h1.922a4.47 4.47 0 0 1 8.929 0h16.62a4.468 4.468 0 0 1 2.561-3.833H41.69v-9.793a2.129 2.129 0 0 0-2.129-2.13h-6.028zm.114 1.277h4.85c.588 0 1.064.477 1.064 1.065v2.98c0 .588-.476 1.065-1.064 1.065h-6.863a1.065 1.065 0 0 1-.882-1.66l2.01-2.98c.198-.294.53-.47.885-.47z"/><path d="M45.097 20.897c-1.18 0-2.13.95-2.13 2.129V37.929h27.678V23.026c0-1.18-.95-2.13-2.129-2.13h-23.42zM62.129 39.632a3.62 3.62 0 1 0 0 7.239 3.62 3.62 0 0 0 0-7.239zm0 1.703a1.916 1.916 0 1 1 0 3.833 1.916 1.916 0 0 1 0-3.833zM66.593 43.039a4.468 4.468 0 0 0-2.561-3.833h6.613v3.833h-4.052zM36.58 39.632a3.62 3.62 0 1 0 0 7.239 3.62 3.62 0 0 0 0-7.239zm0 1.703a1.916 1.916 0 1 1 0 3.833 1.916 1.916 0 0 1 0-3.833zM62.903 52.032v15.484l7.742-7.742zM35.806 52.032v15.484l-7.741-7.742zM41.355 52.286l.76.99 1.728-1.082v9.999h2.258V49.29h-1.935zM53.185 49.13c-1.31.033-2.359.651-3.145 1.854s-1.19 2.789-1.21 4.758c.02 1.969.424 3.555 1.21 4.758.786 1.203 1.834 1.821 3.145 1.855 1.31-.034 2.359-.652 3.145-1.855.786-1.203 1.19-2.789 1.21-4.758-.02-1.878-.424-3.438-1.21-4.68-.786-1.242-1.835-1.886-3.145-1.933zm0 2.004c.632-.01 1.137.355 1.515 1.094.378.74.572 1.91.582 3.514-.01 1.603-.204 2.775-.582 3.514-.378.739-.883 1.104-1.515 1.094-.632.01-1.137-.355-1.515-1.094-.378-.74-.572-1.91-.582-3.514.01-1.603.204-2.775.582-3.514.378-.74.883-1.104 1.515-1.094z"/><g><path d="M46.214 71.258h1.465l.367-4.763L50 70.403l1.954-3.908.366 4.763h1.465l-.61-6.839H51.71L50 67.84l-1.71-3.42h-1.465z"/></g></g></g></svg>