<svg width="64" height="93" xmlns="http://www.w3.org/2000/svg"><g transform="translate(5 6)" fill="none" fill-rule="evenodd"><rect fill="#FFF" fill-rule="nonzero" width="53" height="81.09" rx="6"/><rect stroke="#000" x=".5" y=".5" width="53" height="80.09" rx="6"/><g transform="translate(3 3)" fill-rule="nonzero"><path d="M0 72.82C0 74.024.96 75 2.143 75h43.714C47.041 75 48 74.024 48 72.82V2.18C48 .976 47.04 0 45.857 0H2.143C.959 0 0 1.037 0 2.18v70.64zm3.107-22.402V14.77c0-1.896 1.511-3.434 3.375-3.434h35.036c1.864 0 3.375 1.538 3.375 3.434v35.647c0 1.896-1.511 3.434-3.375 3.434H6.482c-1.864 0-3.375-1.538-3.375-3.434z" fill="#0D69E1"/><path d="M20.357 27h6.286L29 24.26l-5.107-4.695V18h-.786v1.565L18 24.261 20.357 27zm.362-.783l-1.63-1.893L23.5 20.27l4.41 4.055-1.629 1.893H20.72zM8.386 41H9.7c0-1.313 1.193-2.378 2.665-2.378h22.272c1.472 0 2.665 1.065 2.665 2.378h1.313A2.382 2.382 0 0 0 41 38.622v-4.043c0-.417-.11-.827-.32-1.189l-2.755-4.756A1.274 1.274 0 0 0 36.823 28H10.177c-.454 0-.874.242-1.102.634L6.32 33.39c-.21.362-.32.772-.32 1.19v4.042A2.382 2.382 0 0 0 8.386 41zm-1.025-7.927a.79.79 0 0 1 .107-.396l1.837-3.17a.796.796 0 0 1 .689-.397h1.892c.44 0 .796.355.796.792v3.171a.794.794 0 0 1-.796.793h-3.73a.794.794 0 0 1-.795-.793zm5.957 0v-3.17c0-.438.356-.793.796-.793h4.772c.44 0 .796.355.796.792v3.171a.794.794 0 0 1-.796.793h-4.772a.794.794 0 0 1-.796-.793zm7 0v-3.17c0-.438.356-.793.796-.793h4.772c.44 0 .796.355.796.792v3.171a.794.794 0 0 1-.796.793h-4.772a.794.794 0 0 1-.796-.793zm7 0v-3.17c0-.438.356-.793.796-.793h4.772c.44 0 .796.355.796.792v3.171a.794.794 0 0 1-.796.793h-4.772a.794.794 0 0 1-.796-.793zm7 0v-3.17c0-.438.356-.793.796-.793h1.892c.284 0 .547.15.69.396l1.836 3.17a.79.79 0 0 1-.689 1.19h-3.73a.794.794 0 0 1-.795-.793z" fill="#000"/><path d="M19.055 41.852V42h8.89v-.148c0-.745.396-1.44 1.055-1.852H18c.66.412 1.055 1.107 1.055 1.852z" fill="#000"/><circle fill="#000" cx="12" cy="42" r="2"/><circle fill="#000" cx="17" cy="42" r="2"/><circle fill="#000" cx="30" cy="42" r="2"/><circle fill="#000" cx="35" cy="42" r="2"/></g></g></svg>