<svg width="110" height="80" xmlns="http://www.w3.org/2000/svg"><g fill="none" fill-rule="evenodd"><path d="M0 0h110v80H0z"/><path d="M0 0h110v80H0z"/><g fill-rule="nonzero"><g transform="translate(5 6)"><path d="M6.3.166h87.4a6.3 6.3 0 0 1 6.3 6.3v37.068a6.3 6.3 0 0 1-6.3 6.3H6.3a6.3 6.3 0 0 1-6.3-6.3V6.466a6.3 6.3 0 0 1 6.3-6.3z" fill="#000"/><rect fill="#FFF" x="1.667" y="1.821" width="96.667" height="46.358" rx="4.9"/><path d="M59.094 37.639c1.78-.061 3.063-.77 3.847-2.129.785-1.358 1.169-2.999 1.153-4.922-.023-1.943-.446-3.407-1.27-4.393-.823-.987-1.91-1.481-3.261-1.483-1.045.038-1.924.5-2.637 1.386-.713.886-1.084 1.968-1.113 3.248.071 1.439.475 2.403 1.21 2.89.736.49 1.374.716 1.915.68a3.888 3.888 0 0 0 1.601-.388 6.79 6.79 0 0 0 1.367-.854c.016.05-.033.405-.144 1.064-.112.658-.38 1.316-.805 1.975-.424.658-1.097 1.013-2.02 1.063-.73-.03-1.363-.152-1.9-.366-.537-.213-.819-.335-.845-.365l.246 1.907c.032.028.319.143.859.343.54.2 1.14.315 1.797.344zm.312-6.586c-.338 0-.677-.155-1.015-.465-.339-.31-.521-.776-.547-1.397 0-.584.172-1.155.496-1.641.333-.517.845-.797 1.535-.843.493.016.878.209 1.154.578.276.369.474.775.594 1.218.12.443.192.783.216 1.02-.003.064-.214.32-.63.765-.417.447-1.018.702-1.803.765zm8.152 5.122c0-.359-.143-.703-.398-.956a1.365 1.365 0 0 0-1.926 0 1.344 1.344 0 0 0 0 1.913 1.365 1.365 0 0 0 1.926 0c.256-.255.389-.574.398-.957zM21.066 24.842c-1.051 0-1.956.271-2.715.815-.758.543-1.155 1.358-1.191 2.444.027.719.216 1.282.567 1.69.351.408.702.696 1.053.863.351.166.54.247.567.241-.03-.002-.246.105-.648.322-.401.216-.802.554-1.203 1.012-.402.458-.618 1.048-.649 1.77-.02.828.293 1.617.938 2.367.644.75 1.738 1.152 3.281 1.203 1.543-.051 2.637-.452 3.281-1.203.645-.75.957-1.539.938-2.367-.03-.722-.247-1.312-.648-1.77-.401-.458-.803-.796-1.204-1.012-.401-.217-.617-.324-.648-.322.027.006.216-.075.567-.241.351-.167.702-.455 1.053-.863s.54-.971.567-1.69c-.035-1.086-.433-1.901-1.191-2.444-.758-.544-1.663-.815-2.715-.815zm0 1.774c.482-.006.886.105 1.211.335.326.23.495.613.508 1.15-.072.485-.358.912-.86 1.28-.5.37-.787.563-.859.583-.071-.02-.358-.214-.86-.582-.5-.369-.787-.796-.859-1.28.013-.538.183-.922.508-1.151.326-.23.73-.341 1.211-.335zm0 5.21c.025.006.2.115.527.328.326.213.652.494.978.845.326.35.501.736.526 1.156-.026.54-.247.934-.664 1.183a2.582 2.582 0 0 1-1.367.369c-.495.003-.95-.12-1.367-.369-.417-.249-.638-.643-.664-1.183.025-.371.2-.733.527-1.087.326-.354.652-.647.978-.88a8.4 8.4 0 0 1 .526-.362zm7.624 4.346c0-.36-.144-.703-.399-.956a1.364 1.364 0 0 0-1.925 0 1.344 1.344 0 0 0 0 1.913 1.364 1.364 0 0 0 1.925 0c.256-.255.39-.574.399-.957zM54.302 33.285H46.11v-1.97h8.193zM30.386 28.242l.64 1.425c.331-.29.654-.5.968-.63.314-.132.706-.196 1.175-.194.306.004.6.115.832.315.24.203.366.459.379.767-.015.376-.227.736-.636 1.082-.408.345-.922.586-1.543.721v1.323a1.18 1.18 0 0 1 .404-.106c.147-.012.295-.017.443-.015.76.033 1.242.216 1.446.55.204.333.293.62.266.859-.026.555-.238.96-.635 1.217-.398.256-.878.383-1.44.38-.435 0-.869-.039-1.296-.118-.452-.082-.832-.22-1.141-.415l.207 1.683c.043.018.334.086.873.207.54.12 1.073.188 1.6.206 1.154-.04 2.035-.381 2.642-1.022.608-.641.914-1.343.919-2.104-.018-.52-.176-.95-.475-1.291a3.23 3.23 0 0 0-.998-.784c-.366-.181-.659-.29-.878-.33.504-.07.948-.32 1.33-.75.384-.432.586-.983.606-1.654-.032-.67-.313-1.198-.843-1.586a2.962 2.962 0 0 0-1.75-.595 6.455 6.455 0 0 0-1.684.294c-.607.183-1.078.371-1.411.565zm10.78-.722c-.984.026-1.77.486-2.36 1.383-.59.897-.893 2.079-.908 3.546.015 1.468.318 2.65.908 3.547.59.897 1.376 1.357 2.36 1.382.983-.025 1.77-.485 2.36-1.382.59-.897.892-2.079.907-3.547-.015-1.4-.317-2.562-.907-3.488-.59-.926-1.377-1.406-2.36-1.44v-.001zm0 1.495c.474-.008.853.264 1.136.815.284.551.43 1.424.437 2.62-.007 1.194-.153 2.067-.437 2.618-.283.552-.662.823-1.136.816-.474.007-.853-.264-1.137-.816-.284-.55-.43-1.424-.437-2.619.008-1.195.153-2.068.437-2.619.284-.55.663-.823 1.137-.815zM10.219 12.582v6.21h1.339v-4.99h2.344v4.99h1.339v-6.21h-5.022zm9.976-.221c-.853.014-1.546.319-2.078.915-.533.596-.807 1.4-.823 2.411.016 1.012.29 1.816.823 2.411.532.596 1.225.901 2.078.915.854-.014 1.547-.319 2.08-.915.532-.595.806-1.4.822-2.41-.016-1.013-.29-1.816-.823-2.412-.532-.596-1.225-.901-2.079-.915zm0 1.109c.456.009.828.212 1.117.61.288.397.437.933.446 1.607-.01.675-.158 1.21-.446 1.608-.289.397-.66.6-1.117.61-.455-.01-.827-.213-1.116-.61-.288-.398-.437-.933-.446-1.608.01-.674.158-1.21.446-1.608.289-.397.66-.6 1.116-.61v.001zm4.968-.888v6.21h1.339V16.13h2.344v2.661h1.339v-6.209h-1.34v2.33h-2.343v-2.33h-1.339zm9.977.888c.346 0 .67.137.97.41.3.272.46.579.48.92a.401.401 0 0 1-.025.153c-.018.043-.047.067-.086.069h-2.79c.015-.548.167-.941.456-1.18a1.58 1.58 0 0 1 .995-.372zm2.567 2.66c.097-.006.177-.076.239-.207a1.11 1.11 0 0 0 .095-.458c-.023-.857-.311-1.582-.865-2.175a2.805 2.805 0 0 0-2.036-.929c-.438.006-.87.11-1.262.305-.41.199-.754.466-1.034.804a2.47 2.47 0 0 0-.487.954 5.129 5.129 0 0 0-.151 1.263c.013 1.012.326 1.816.939 2.411a3.142 3.142 0 0 0 2.218.915c.394.002.798-.113 1.212-.346.413-.234.817-.599 1.211-1.095l-1.084-.618a3.02 3.02 0 0 1-.628.628c-.202.14-.44.211-.711.212-.314.013-.663-.097-1.047-.333-.383-.236-.592-.68-.627-1.33h4.018v-.001zm3.07-3.547c-.004 1.098-.088 2.046-.254 2.845-.145.737-.37 1.456-.671 2.144h-.638v2.55h1.34v-1.33h4.24v1.33h1.228v-2.55h-.781v-4.99h-4.464v.001zm1.339 1.22h1.786v3.769h-2.6c.272-.551.463-1.16.575-1.826a21.91 21.91 0 0 0 .239-1.944v.001zm7.968-.333c.346 0 .67.137.97.41.3.272.46.579.48.92a.401.401 0 0 1-.025.153c-.018.043-.047.067-.086.069h-2.79c.015-.548.167-.941.456-1.18a1.58 1.58 0 0 1 .995-.372zm2.567 2.66c.097-.006.177-.076.239-.207.062-.132.093-.284.095-.458-.023-.857-.311-1.582-.865-2.175a2.805 2.805 0 0 0-2.036-.929c-.438.006-.87.11-1.262.305-.41.199-.754.466-1.034.804a2.47 2.47 0 0 0-.487.954 5.129 5.129 0 0 0-.151 1.263c.013 1.012.326 1.816.939 2.411a3.143 3.143 0 0 0 2.218.915c.394.002.798-.113 1.212-.346.413-.234.817-.599 1.211-1.095l-1.084-.618a3.02 3.02 0 0 1-.628.628c-.202.14-.44.211-.711.212-.314.013-.663-.097-1.046-.333-.384-.236-.593-.68-.628-1.33h4.018v-.001zm3.181-3.547c0 .428-.01.946-.03 1.554a27.5 27.5 0 0 1-.11 1.701c-.05.527-.12.883-.21 1.069a1.67 1.67 0 0 1-1.133.839l.256 1.267c.906-.237 1.523-.638 1.851-1.203a4.109 4.109 0 0 0 .538-1.918c.03-.713.052-1.41.066-2.09h1.786v4.99h1.339v-6.21h-4.353v.001zm6.865 0v6.208h2.902c.774-.02 1.334-.228 1.678-.623.344-.395.513-.853.506-1.372a1.985 1.985 0 0 0-.506-1.372c-.344-.395-.904-.603-1.678-.624h-1.563v-2.217h-1.34.001zm1.34 3.437h1.673c.228.01.414.093.558.251a.791.791 0 0 1 .224.525.791.791 0 0 1-.224.524.767.767 0 0 1-.558.252h-1.674V16.02h.001zm5.585-3.438v6.21h1.339V16.13h2.344v2.661h1.339v-6.209h-1.34v2.33h-2.343v-2.33h-1.339zm7.298 0v6.21l1.45.001 2.568-4.215v4.213h1.339v-6.209h-1.451l-2.567 4.213v-4.213H76.92zm7.645.001v6.208h1.34V15.91c.057-.008.114-.016.173-.022.059-.006.113-.01.162-.01.615.042 1.082.37 1.4.982.32.613.67 1.257 1.055 1.932h1.674a4.963 4.963 0 0 1-.94-1.335c-.233-.483-.5-.95-.798-1.395a1.926 1.926 0 0 0-1.164-.817c.27-.08.507-.245.714-.498.206-.254.425-.5.656-.741.232-.241.519-.382.862-.424l-.334-1.11c-.464.065-.883.284-1.256.658a33.04 33.04 0 0 0-1.055 1.104c-.329.362-.659.556-.99.583-.024 0-.051 0-.08-.002a.335.335 0 0 1-.08-.014v-2.217h-1.339v-.001zM69.308 28.242l.64 1.425c.33-.29.654-.5.968-.63.314-.132.706-.196 1.175-.194.306.004.6.115.832.315.24.203.366.459.379.767-.016.376-.227.736-.636 1.082-.408.345-.923.586-1.543.721v1.323a1.18 1.18 0 0 1 .404-.106c.147-.012.295-.017.443-.015.76.033 1.242.216 1.446.55.204.333.293.62.266.859-.026.555-.238.96-.635 1.217-.398.256-.878.383-1.44.38-.435 0-.869-.039-1.296-.118-.452-.082-.832-.22-1.141-.415l.207 1.683c.042.018.334.086.873.207.54.12 1.073.188 1.6.206 1.154-.04 2.035-.381 2.642-1.022.608-.641.914-1.343.919-2.104-.018-.52-.176-.95-.475-1.291a3.23 3.23 0 0 0-.998-.784c-.366-.181-.659-.29-.879-.33.505-.07.948-.32 1.332-.75.383-.432.585-.983.605-1.654-.033-.67-.314-1.198-.843-1.586a2.962 2.962 0 0 0-1.75-.595 6.455 6.455 0 0 0-1.684.294c-.608.183-1.078.371-1.411.565zm10.78-.722c-.984.026-1.77.486-2.36 1.383-.59.897-.893 2.079-.908 3.546.015 1.468.318 2.65.908 3.547.59.897 1.376 1.357 2.36 1.382.983-.025 1.77-.485 2.36-1.382.59-.897.892-2.079.907-3.547-.015-1.4-.318-2.562-.908-3.488-.59-.926-1.376-1.406-2.36-1.44l.001-.001zm0 1.495c.474-.008.852.264 1.136.815.284.551.43 1.424.437 2.62-.007 1.194-.153 2.067-.437 2.618-.284.552-.662.823-1.136.816-.474.007-.853-.264-1.137-.816-.284-.55-.43-1.424-.437-2.619.007-1.195.153-2.068.437-2.619.284-.55.663-.823 1.137-.815z" fill="#000"/></g><path d="M46.17 72.405c0 .743-.293 1.362-.878 1.855-.585.493-1.321.74-2.207.74-.941 0-1.69-.24-2.248-.723-.558-.481-.837-1.098-.837-1.85 0-.477.14-.91.42-1.297.28-.387.674-.695 1.183-.922v-.035c-.466-.246-.811-.516-1.034-.809-.224-.293-.336-.659-.336-1.098 0-.648.268-1.187.805-1.619.536-.431 1.219-.647 2.047-.647.866 0 1.558.206 2.075.618.517.413.776.937.776 1.573 0 .389-.123.771-.367 1.147-.245.376-.605.67-1.08.882v.034c.545.232.961.517 1.249.856.287.339.431.77.431 1.295h.001zm-1.383-4.203c0-.412-.16-.74-.48-.985-.322-.245-.73-.367-1.228-.367-.49 0-.891.115-1.204.347-.313.23-.47.543-.47.936 0 .277.079.517.236.72.158.202.396.382.715.54.144.07.35.16.62.272.27.111.534.204.79.277.386-.254.652-.518.8-.792.147-.273.221-.59.221-.948zm.18 4.312c0-.354-.078-.638-.235-.852-.158-.214-.466-.429-.924-.645a5.887 5.887 0 0 0-.601-.237c-.29-.099-.58-.2-.869-.306-.35.189-.63.445-.842.769-.212.323-.318.69-.318 1.098 0 .52.18.95.542 1.29.362.338.82.508 1.376.508.568 0 1.022-.145 1.362-.434.34-.289.51-.686.51-1.19l-.001-.001zm4.782 2.29h-1.393v-1.648h1.393v1.648zm8.222-2.735c0 .401-.074.785-.222 1.15-.147.367-.35.675-.606.926-.28.27-.613.476-1 .62-.387.145-.835.218-1.344.218-.474 0-.931-.05-1.37-.148a5.683 5.683 0 0 1-1.114-.355v-1.22h.082c.318.2.691.371 1.119.512.428.14.847.21 1.26.21.276 0 .543-.038.801-.115a1.69 1.69 0 0 0 .691-.405c.171-.165.3-.364.388-.595.087-.231.131-.499.131-.803 0-.297-.051-.548-.154-.752a1.272 1.272 0 0 0-.429-.491 1.892 1.892 0 0 0-.738-.31 4.803 4.803 0 0 0-.97-.089c-.342 0-.672.023-.989.07-.317.046-.59.092-.819.138v-4.433h5.225v1.011h-4.1v2.29c.322-.03.645-.046.968-.047.47 0 .883.04 1.236.118.354.08.679.22.974.42.311.211.552.485.723.82.171.336.257.756.257 1.26zm3.714 2.734h-1.393v-1.647h1.393v1.647zM70 67.486l-3.93 7.317h-1.248l4.18-7.595h-4.944v-1.011H70v1.289z" fill="#8B8B8B"/></g></g></svg>