<svg width="100" height="86" xmlns="http://www.w3.org/2000/svg"><g transform="translate(10 3)" fill="none" fill-rule="evenodd"><rect fill="#FFF" fill-rule="nonzero" transform="rotate(-45 40.016 40.016)" x="11.747" y="11.748" width="56.537" height="56.537" rx="6"/><rect fill="#FC0" fill-rule="nonzero" transform="rotate(-45 40.016 40.016)" x="22.819" y="22.82" width="34.393" height="34.393" rx="4"/><path d="M3.702 37.684a3.29 3.29 0 0 0 0 4.664l13.993 13.993.666.666.666.666.667.667.666.666.666.666.666.666.667.667.666.666.666.666L37.684 76.33a3.29 3.29 0 0 0 4.664 0l33.98-33.982a3.29 3.29 0 0 0 0-4.664L62.338 23.692l-.667-.666-.666-.666-.666-.667-.667-.666-.666-.666-.666-.667-.667-.666-.666-.666-.666-.666L42.348 3.703a3.29 3.29 0 0 0-4.664 0L3.702 37.684zm.667.667L38.349 4.37a2.35 2.35 0 0 1 3.332 0l13.993 13.992-5.83 5.83-6.83-6.83a4.231 4.231 0 0 0-5.997 0L17.362 37.018a4.231 4.231 0 0 0 0 5.997l6.83 6.83-5.831 5.83L4.369 41.681a2.35 2.35 0 0 1 0-3.331zm13.659-.667L37.684 18.03a3.29 3.29 0 0 1 4.664 0l6.83 6.83-24.32 24.319-6.83-6.83a3.29 3.29 0 0 1 0-4.664zm1 18.657l5.83-5.83.666.666-5.83 5.83-.667-.666zm6.496-6.497l24.32-24.32.666.667-24.32 24.32-.666-.667zM50.51 24.858l5.83-5.83.666.666-5.83 5.83-.666-.666zM20.36 57.673l5.83-5.83.666.666-5.83 5.83-.666-.666zm6.496-6.496l24.32-24.32.666.666-24.32 24.32-.666-.666zM51.842 26.19l5.83-5.83.667.666-5.83 5.83-.667-.666zm-30.15 32.815l5.83-5.83.667.666-5.83 5.83-.667-.666zm6.497-6.497l24.32-24.32.666.667-24.32 24.32-.666-.667zm24.986-24.986l5.83-5.83.666.667-5.83 5.83-.666-.667zm-30.15 32.815l5.83-5.83.666.667-5.83 5.83-.666-.667zm6.496-6.496l24.32-24.32.667.667-24.32 24.32-.667-.667zm24.987-24.986l5.83-5.83.666.666-5.83 5.83-.666-.666zm-30.15 32.815l5.83-5.83 6.83 6.83a4.231 4.231 0 0 0 5.996 0L62.67 43.015a4.231 4.231 0 0 0 0-5.997l-6.83-6.83 5.83-5.83 13.992 13.993a2.35 2.35 0 0 1 0 3.331l-33.98 33.981a2.35 2.35 0 0 1-3.332 0L24.358 61.671zm6.496-6.496l24.32-24.32 6.83 6.83a3.29 3.29 0 0 1 0 4.663L42.347 62.004a3.29 3.29 0 0 1-4.664 0l-6.83-6.83z" fill="#000" fill-rule="nonzero"/><rect stroke="#000" transform="rotate(-45 40.016 40.016)" x="11.341" y="11.342" width="57.349" height="57.349" rx="4"/></g></svg>