<svg width="95" height="136" xmlns="http://www.w3.org/2000/svg"><g transform="translate(5 4)" fill="none" fill-rule="evenodd"><rect stroke="#000" fill="#FFF" x=".5" y=".5" width="85" height="127" rx="6"/><g fill-rule="nonzero"><path d="M6.03 3A3.018 3.018 0 0 0 3 6.02v115.96A3.018 3.018 0 0 0 6.03 125h73.94a3.018 3.018 0 0 0 3.03-3.02V6.02A3.018 3.018 0 0 0 79.97 3H6.03zm7.955 18.723h58.03a5.433 5.433 0 0 1 5.455 5.435v57.83a5.433 5.433 0 0 1-5.455 5.435h-58.03a5.433 5.433 0 0 1-5.455-5.435v-57.83a5.433 5.433 0 0 1 5.455-5.435z" fill="#0D69E1"/><path fill="red" d="M37.625 37.969v12.093H25.531v10.75h12.094v12.094h10.75V60.812h12.094v-10.75H48.375V37.969z"/></g></g></svg>