<svg width="110" height="80" xmlns="http://www.w3.org/2000/svg"><g fill="none" fill-rule="evenodd"><path d="M0 0h110v80H0z"/><g fill-rule="nonzero"><g transform="translate(5 5)"><rect fill="#000" y=".166" width="100" height="49.669" rx="6.3"/><path d="M6.567 1.821h86.866a4.9 4.9 0 0 1 4.9 4.9V43.28a4.9 4.9 0 0 1-4.9 4.9H6.567a4.9 4.9 0 0 1-4.9-4.9V6.72a4.9 4.9 0 0 1 4.9-4.9v.001z" fill="#FFF"/><path d="M30.746 30.503c-3.53 0-6.392 2.843-6.392 6.35 0 3.507 2.862 6.35 6.392 6.35 3.53 0 6.392-2.843 6.392-6.35 0-3.507-2.862-6.35-6.392-6.35zm0 3.302a3.058 3.058 0 0 1 3.068 3.048 3.058 3.058 0 0 1-3.068 3.048 3.058 3.058 0 0 1-3.068-3.048 3.058 3.058 0 0 1 3.068-3.048zm34.453-8.382c-4.942 0-8.949 3.98-8.949 8.89s4.007 8.89 8.949 8.89 8.949-3.98 8.949-8.89-4.007-8.89-8.949-8.89zm0 3.81c2.824 0 5.114 2.274 5.114 5.08 0 2.805-2.29 5.08-5.114 5.08s-5.114-2.275-5.114-5.08c0-2.806 2.29-5.08 5.114-5.08z" fill="#000"/><path d="M55.423 6.374A2.555 2.555 0 0 0 53.05 7.97l-4.47 11.104h-6.392V8.914H39.63v10.16h-8.95a2.543 2.543 0 0 0-2.556 2.54v8.08c.818-.296 1.7-.46 2.62-.46 3.34 0 6.179 2.12 7.232 5.079h16.995c0-5.611 4.579-10.16 10.227-10.16 1.24 0 2.425.222 3.524.623l1.59-3.163-1.279-2.54V8.915a2.548 2.548 0 0 0-2.557-2.54H55.423v-.001zm.867 2.54h7.63c.707 0 1.279.569 1.279 1.27v7.62c0 .701-.572 1.27-1.278 1.27h-10.7a1.274 1.274 0 0 1-1.186-1.743l3.069-7.62a1.277 1.277 0 0 1 1.186-.797z" fill="#000"/></g><path d="M46.2 71.492c0 .754-.295 1.381-.883 1.881-.588.5-1.327.75-2.217.75-.946 0-1.699-.244-2.26-.732-.56-.489-.84-1.114-.84-1.875 0-.485.14-.923.422-1.316.281-.392.678-.704 1.19-.934v-.036c-.47-.25-.816-.523-1.04-.82-.225-.297-.338-.668-.338-1.113 0-.656.27-1.203.809-1.64.539-.438 1.225-.657 2.057-.657.87 0 1.566.209 2.086.627.52.418.779.95.779 1.594 0 .394-.123.782-.37 1.163-.245.38-.607.678-1.083.893v.035c.547.235.965.524 1.254.868.289.343.433.78.433 1.312h.001zm-1.39-4.26c0-.418-.16-.75-.483-.999-.322-.248-.733-.372-1.233-.372-.492 0-.896.118-1.21.352a1.12 1.12 0 0 0-.472.95c0 .28.08.524.237.729.159.205.398.387.718.547.145.07.353.163.624.276.272.113.536.207.794.281.387-.258.654-.525.803-.803.148-.277.223-.597.223-.96l-.001-.001zm.182 4.372c0-.36-.079-.648-.237-.865-.158-.217-.468-.434-.929-.653a5.886 5.886 0 0 0-.603-.24c-.22-.075-.51-.178-.873-.31a2.306 2.306 0 0 0-.847.778 2 2 0 0 0-.32 1.114c0 .527.182.963.546 1.306.363.344.824.516 1.382.516.57 0 1.027-.146 1.368-.44.342-.292.513-.695.513-1.206zm4.805 2.32h-1.4v-1.67h1.4v1.67zm8.531-2.455h-1.295v2.455h-1.125v-2.455H51.73V70.12l4.225-4.922h1.078v5.332h1.295v.939zm-2.42-.938v-3.937l-3.38 3.937h3.38zm5.883 3.393h-1.4v-1.67h1.4v1.67zm8.262-2.772c0 .407-.074.795-.223 1.166a2.706 2.706 0 0 1-.61.938c-.287.277-.63.492-1.004.63a3.83 3.83 0 0 1-1.35.22c-.477 0-.936-.05-1.378-.15a5.76 5.76 0 0 1-1.119-.36v-1.237h.082c.32.204.695.376 1.125.519.43.143.852.214 1.266.214.277 0 .546-.04.805-.117a1.648 1.648 0 0 0 1.085-1.014c.087-.234.131-.506.131-.815 0-.3-.051-.554-.155-.761a1.286 1.286 0 0 0-.43-.498 1.892 1.892 0 0 0-.742-.314 4.805 4.805 0 0 0-.975-.09c-.344 0-.675.023-.994.07a15.83 15.83 0 0 0-.823.14V65.2h5.25v1.026h-4.119v2.32c.323-.03.648-.046.973-.047.472 0 .886.04 1.242.12.355.08.681.222.978.425.313.215.555.492.727.832.172.34.258.766.258 1.277v-.001z" fill="#8B8B8B"/></g></g></svg>