<svg width="95" height="136" xmlns="http://www.w3.org/2000/svg"><g fill="none" fill-rule="evenodd"><rect x=".5" y=".5" width="85" height="127" rx="6" transform="translate(5 4)" fill="#FFF" stroke="#000"/><g fill-rule="nonzero"><path d="M11.03 7A3.018 3.018 0 0 0 8 10.02v115.96a3.018 3.018 0 0 0 3.03 3.02h73.94a3.018 3.018 0 0 0 3.03-3.02V10.02A3.018 3.018 0 0 0 84.97 7H11.03zm7.955 18.723h58.03a5.433 5.433 0 0 1 5.455 5.435v57.83a5.433 5.433 0 0 1-5.455 5.435h-58.03a5.433 5.433 0 0 1-5.455-5.435v-57.83a5.433 5.433 0 0 1 5.455-5.435z" fill="#0D69E1"/><g fill="#FFF"><path d="M16.936 107.949l.775 1.01 1.762-1.103v10.197h2.303v-13.158h-1.974zM28.605 104.73c-1.337.035-2.406.665-3.208 1.892-.801 1.226-1.213 2.844-1.233 4.852.02 2.008.432 3.625 1.233 4.852.802 1.226 1.871 1.857 3.208 1.891 1.336-.034 2.405-.665 3.207-1.891.802-1.227 1.213-2.844 1.233-4.852-.02-1.916-.431-3.507-1.233-4.773-.802-1.266-1.871-1.923-3.207-1.97zm0 2.044c.644-.01 1.159.363 1.544 1.117.386.753.584 1.948.594 3.583-.01 1.635-.208 2.829-.594 3.583-.385.754-.9 1.126-1.544 1.116-.645.01-1.16-.362-1.545-1.116-.386-.754-.584-1.948-.594-3.583.01-1.635.208-2.83.594-3.583.385-.754.9-1.126 1.545-1.117zM38.879 104.73c-1.337.035-2.406.665-3.207 1.892-.802 1.226-1.213 2.844-1.234 4.852.02 2.008.432 3.625 1.234 4.852.801 1.226 1.87 1.857 3.207 1.891 1.336-.034 2.405-.665 3.207-1.891.802-1.227 1.213-2.844 1.234-4.852-.021-1.916-.432-3.507-1.234-4.773-.802-1.266-1.87-1.923-3.207-1.97zm0 2.044c.644-.01 1.159.363 1.545 1.117.385.753.583 1.948.593 3.583-.01 1.635-.208 2.829-.593 3.583-.386.754-.901 1.126-1.545 1.116-.644.01-1.16-.362-1.545-1.116-.386-.754-.584-1.948-.593-3.583.01-1.635.207-2.83.593-3.583.386-.754.9-1.126 1.545-1.117zM46.817 118.053h1.974l.494-6.415 2.631 5.264 2.632-5.264.493 6.415h1.974l-.823-9.211H54.22l-2.303 4.606-2.303-4.606H47.64z"/></g><path d="M50.632 43.053v-3.948h6.579v-7.894H42.737l-6.406 4.477a6.57 6.57 0 0 0-2.5 3.417h11.537v3.948H33.83A6.581 6.581 0 0 0 37.235 47h4.103c.03.01.06.018.09.029a4.213 4.213 0 0 1 2.611 5.353l-1.302 3.783v30.309a5.263 5.263 0 0 0 10.526 0V56.16l-1.303-3.779a4.213 4.213 0 0 1 2.61-5.353l.091-.029h2.55v-3.947h-6.58z" fill="#000"/><path fill="#FFF" d="M69.053 108.842v-3.947l11.403 6.579-11.403 6.579v-3.948h-5.264v-5.263z"/></g></g></svg>