<svg width="100" height="86" xmlns="http://www.w3.org/2000/svg"><g fill="none" fill-rule="evenodd"><path d="M55.464 6.502c3.267 5.663 6.466 11.286 11.217 19.692l4.76 8.425c10.212 18.068 16.33 28.664 23.07 39.766 2.228 3.668-.924 8.996-5.175 8.996H10.534c-4.251 0-7.403-5.328-5.176-8.996 6.738-11.099 12.84-21.67 23.068-39.763l4.632-8.2c4.828-8.54 8.048-14.2 11.348-19.92 2.852-4.943 8.207-4.943 11.058 0z" stroke="#0C0E0F"/><path d="M11.61 73.352l-.003.006-.556.967-.016.028a108.335 108.335 0 0 1-1.5 2.568c-.22.362.5 1.574 1 1.574h78.8c.5 0 1.22-1.212 1-1.575-.436-.718-.772-1.295-1.502-2.57l-.02-.036c-.266-.463-.396-.69-.554-.962L51.232 8.943c-.918-1.591-1.675-1.591-2.591-.003L11.61 73.352z" stroke="red" stroke-width="6" fill="#FFF"/><path d="M35 71.024V58.976c0-4.193 1.719-8.203 4.755-11.094a8.826 8.826 0 0 0 2.74-6.392V29h6.494v12.49c0 4.193-1.718 8.203-4.755 11.095a8.826 8.826 0 0 0-2.74 6.391v12.048H35zM59.494 71.03V58.976c0-2.415-.99-4.725-2.74-6.391A15.321 15.321 0 0 1 52 41.49V29h6.495v12.49c0 2.416.99 4.726 2.74 6.392a15.321 15.321 0 0 1 4.754 11.094V71.03h-6.495z" fill="#000" fill-rule="nonzero"/></g></svg>