<svg width="100" height="86" xmlns="http://www.w3.org/2000/svg"><g transform="translate(10 3)" fill="none" fill-rule="evenodd"><rect fill="#FFF" fill-rule="nonzero" width="80" height="80" rx="4"/><rect stroke="#000" x=".5" y=".5" width="79" height="79" rx="6"/><path d="M6.093 76.693a2.784 2.784 0 0 1-2.784-2.785V5.956a2.784 2.784 0 0 1 2.784-2.785h67.923a2.784 2.784 0 0 1 2.783 2.785v67.952a2.784 2.784 0 0 1-2.783 2.785H47.849V45.13h12.99L40.054 9.088 19.27 45.13h12.99v31.562H6.094z" fill="#0D69E1" fill-rule="nonzero"/><path d="M6.093 76.693a2.784 2.784 0 0 1-2.784-2.785v-3.28L70.737 3.17h3.279a2.784 2.784 0 0 1 2.783 2.785v3.28L9.371 76.694H6.093z" fill="red" fill-rule="nonzero"/></g></svg>