<svg width="100" height="86" xmlns="http://www.w3.org/2000/svg"><g fill="none" fill-rule="evenodd"><path d="M55.464 6.502c3.267 5.663 6.466 11.286 11.217 19.692l4.76 8.425c10.212 18.068 16.33 28.664 23.07 39.766 2.228 3.668-.924 8.996-5.175 8.996H10.534c-4.251 0-7.403-5.328-5.176-8.996 6.738-11.099 12.84-21.67 23.068-39.763l4.632-8.2c4.828-8.54 8.048-14.2 11.348-19.92 2.852-4.943 8.207-4.943 11.058 0z" stroke="#0C0E0F"/><path d="M11.61 73.352l-.003.006-.556.967-.016.028a108.335 108.335 0 0 1-1.5 2.568c-.22.362.5 1.574 1 1.574h78.8c.5 0 1.22-1.212 1-1.575-.436-.718-.772-1.295-1.502-2.57l-.02-.036c-.266-.463-.396-.69-.554-.962L51.232 8.943c-.918-1.591-1.675-1.591-2.591-.003L11.61 73.352z" stroke="red" stroke-width="6" fill="#FFF"/><path d="M35.213 70.02v1.728c.951-.314 1.881-.618 2.833-.618 1.953 0 3.905 1.256 5.858 1.256 2.034 0 4.069-1.256 6.103-1.256 2.037 0 4.074 1.256 6.11 1.256 1.929 0 3.858-1.256 5.787-1.256.967 0 1.931.32 2.898.639v-1.727c-.967-.318-1.931-.64-2.898-.64-1.929 0-3.858 1.258-5.787 1.258-2.036 0-4.073-1.257-6.11-1.257-2.034 0-4.069 1.257-6.103 1.257-1.953 0-3.905-1.257-5.858-1.257-.952 0-1.882.305-2.833.618zm0-3.453v1.727c.951-.313 1.881-.618 2.833-.618 1.953 0 3.905 1.257 5.858 1.257 2.034 0 4.069-1.257 6.103-1.257 2.037 0 4.074 1.257 6.11 1.257 1.929 0 3.858-1.257 5.787-1.257.967 0 1.931.322 2.898.64v-1.727c-.967-.318-1.931-.64-2.898-.64-1.929 0-3.858 1.257-5.787 1.257-2.036 0-4.073-1.257-6.11-1.257-2.034 0-4.069 1.257-6.103 1.257-1.953 0-3.905-1.257-5.858-1.257-.952 0-1.882.305-2.833.618zm-3.628-17.952h3.494L54.694 29l3.407 3.407-19.787 19.787-3.101-3.101V64.84c.951-.313 1.881-.618 2.833-.618 1.953 0 3.905 1.257 5.858 1.257 2.034 0 4.069-1.257 6.103-1.257 2.037 0 4.074 1.257 6.11 1.257 1.929 0 3.858-1.257 5.787-1.257.967 0 1.931.322 2.898.64V48.615h3.628l14.585 25.15H64.802v-.27c-.967-.317-1.931-.639-2.898-.639-1.929 0-3.858 1.257-5.787 1.257-2.036 0-4.073-1.257-6.11-1.257-2.034 0-4.069 1.257-6.103 1.257-1.953 0-3.905-1.257-5.858-1.257-.952 0-1.882.305-2.833.618v.292H17l14.585-25.15z" fill="#000"/></g></svg>