<svg width="163" height="77" xmlns="http://www.w3.org/2000/svg"><g fill="none" fill-rule="evenodd"><path d="M0 0h163v77H0z"/><path d="M14 10h134a5 5 0 0 1 5 5v48a5 5 0 0 1-5 5H14a5 5 0 0 1-5-5V15a5 5 0 0 1 5-5z" fill-opacity=".87" fill="#FFF"/><path d="M15 12h132a4 4 0 0 1 4 4v46a4 4 0 0 1-4 4H15a4 4 0 0 1-4-4V16a4 4 0 0 1 4-4z" fill="#181818"/><path d="M15 13h132a3 3 0 0 1 3 3v46a3 3 0 0 1-3 3H15a3 3 0 0 1-3-3V16a3 3 0 0 1 3-3z" fill="#FFF"/><path d="M16.181 15C14.973 15 14 15.98 14 17.196v43.608C14 62.02 14.973 63 16.181 63H145.82c1.208 0 2.181-.98 2.181-2.196V17.196A2.184 2.184 0 0 0 145.82 15H16.18h.001zm125.049 3.954c.61.006 1.201.207 1.687.575.511.377.782.891.814 1.541-.02.652-.214 1.187-.584 1.606-.37.418-.798.661-1.284.73.212.037.495.145.848.32.353.176.673.43.961.761.289.332.442.749.46 1.253-.005.74-.3 1.42-.886 2.043-.586.623-1.437.954-2.55.993a8.284 8.284 0 0 1-1.544-.2c-.52-.118-.8-.183-.84-.2l-.2-1.634c.297.19.663.322 1.099.401.435.079.853.117 1.25.115.543.003 1.006-.119 1.39-.368.384-.249.588-.644.613-1.183.026-.232-.06-.509-.257-.833-.197-.323-.662-.503-1.395-.535a4.14 4.14 0 0 0-.426.016c-.135.01-.268.044-.391.101v-1.284c.598-.131 1.094-.365 1.488-.7.394-.336.599-.686.613-1.051a.99.99 0 0 0-.364-.744c-.23-.197-.5-.3-.803-.307-.453-.002-.832.062-1.135.189-.342.153-.658.36-.934.613l-.616-1.386c.321-.188.776-.37 1.362-.548a6.188 6.188 0 0 1 1.624-.284zm-119.874.015c.944.02 1.683.273 2.218.759.535.486.807 1.09.817 1.81-.02.577-.162 1.018-.424 1.323-.262.304-.524.512-.786.622-.262.11-.404.162-.424.156.024-.006.195.058.513.19.319.133.64.369.958.709.318.34.489.819.513 1.436-.007.627-.312 1.24-.918 1.838-.606.599-1.468.92-2.584.964-1.014-.054-1.845-.268-2.494-.643-.65-.374-.986-.588-1.008-.642l1.05-1.284c-.002.044.208.22.629.526.42.306 1.067.481 1.94.525.481-.007.89-.138 1.226-.393a1.27 1.27 0 0 0 .525-1.008c-.012-.472-.162-.842-.451-1.11a1.541 1.541 0 0 0-1.067-.408h-1.05v-1.4h1.05c.462-.027.793-.177.993-.452.2-.275.296-.514.292-.716.017-.207-.075-.464-.277-.772-.202-.31-.616-.48-1.241-.512-.812.037-1.406.189-1.78.451-.375.263-.56.412-.555.45l-.883-1.368c.017-.044.32-.22.908-.526.589-.306 1.359-.481 2.31-.525zm47.275 0c1.282.036 2.237.516 2.864 1.44.628.923.942 2.077.94 3.463.002 1.387-.312 2.542-.94 3.466-.627.923-1.582 1.402-2.864 1.438-1.282-.036-2.236-.515-2.864-1.438-.627-.924-.94-2.08-.938-3.466-.002-1.386.31-2.54.938-3.463.628-.924 1.582-1.404 2.864-1.44zm64.589.117c.674.014 1.283.248 1.825.7.542.453.828 1.036.86 1.751.003.56-.057.993-.183 1.298-.126.305-.338.629-.634.971-.373.464-.82.959-1.343 1.485a155.15 155.15 0 0 0-1.693 1.733h3.853c0 .18-.03.404-.088.672-.058.267-.146.55-.262.846h-5.604v-1.4a36.643 36.643 0 0 0 1.79-1.736 36.018 36.018 0 0 0 1.613-1.8c.29-.32.524-.631.704-.934.181-.303.275-.681.28-1.135-.005-.306-.128-.58-.37-.826-.24-.246-.568-.375-.982-.39-.36.02-.702.156-.976.39a9.09 9.09 0 0 0-.892.826l-.934-1.05a4.16 4.16 0 0 1 1.255-1c.492-.259 1.085-.393 1.78-.401h.001zm-105.922.117h5.837v1.517h-4.202v2.218h3.385v1.401h-3.385v2.802h4.32v1.401h-5.955v-9.34.001zm10.274 0h5.837v9.34h-1.635v-7.94h-2.568c0 .98-.011 1.96-.035 2.94a27.4 27.4 0 0 1-.082 1.73c-.144 1.073-.465 1.86-.965 2.362-.5.502-.98.821-1.444.96-.462.138-.71.198-.743.18l-.266-1.566c.018.003.156-.049.414-.155a2.99 2.99 0 0 0 .811-.535c.283-.25.469-.587.559-1.012.038-.26.065-.753.082-1.479.016-.726.027-1.53.03-2.413.004-.882.005-1.686.005-2.412zm8.88 0h5.837v1.517h-4.203v2.218h3.386v1.401h-3.386v2.802h4.32v1.401H46.45v-9.34l.002.001zm8.99 0h1.634v3.735h3.502v-3.734h1.634v9.34h-1.634V24.34h-3.502v4.203H55.44v-9.34h.002zm19.608 0h5.837v1.4h-4.202v7.94H75.05v-9.34zm8.275 0h3.153c1.152.053 1.97.413 2.451 1.08.482.666.715 1.318.7 1.955-.014.637-.306 1.289-.875 1.955-.57.667-1.328 1.027-2.276 1.08H84.96v3.27h-1.635v-9.34zm12.033 0h1.868l3.035 9.34H98.51l-.584-1.869h-3.269l-.583 1.868h-1.751l3.035-9.34v.001zm8.977 0h5.487v7.938h1.051v3.036h-1.4v-1.635h-5.838v1.635h-1.4v-3.036h1.05c.16-.406.32-.976.48-1.712.16-.736.293-1.533.401-2.39a20.57 20.57 0 0 0 .17-2.435v-1.401h-.001zM68.63 20.487c-.654.01-1.183.311-1.59.905-.406.593-.616 1.42-.628 2.48.012 1.06.222 1.888.629 2.481.406.594.935.895 1.59.905.654-.01 1.185-.311 1.59-.905.407-.593.615-1.42.627-2.48-.012-1.061-.22-1.888-.626-2.481-.406-.594-.937-.895-1.592-.905zm16.329.117v3.268h1.05a2.15 2.15 0 0 0 1.285-.38c.37-.257.564-.675.583-1.254-.019-.579-.214-.997-.583-1.255a2.15 2.15 0 0 0-1.284-.38h-1.051v.001zm21.01 0a22.083 22.083 0 0 1-.313 3.531c-.203 1.206-.465 2.208-.788 3.006h3.319v-6.537h-2.218zm-9.678.7l-1.168 3.97h2.335l-1.167-3.97zm36.838 12.593c.61.006 1.203.208 1.69.576.51.377.781.89.813 1.54-.02.653-.215 1.188-.584 1.606-.37.418-.798.661-1.284.73.211.037.495.145.848.32.353.176.673.43.961.761.289.332.442.749.46 1.253-.005.74-.302 1.42-.888 2.043-.586.623-1.435.954-2.549.993a8.283 8.283 0 0 1-1.543-.2 16.33 16.33 0 0 1-.842-.2l-.2-1.633c.297.189.665.321 1.1.4.436.08.854.118 1.252.115.542.003 1.005-.118 1.389-.368.384-.249.588-.644.613-1.183.026-.232-.06-.509-.257-.832-.197-.324-.662-.503-1.395-.535a4.177 4.177 0 0 0-.428.015c-.142.012-.27.045-.39.101v-1.284c.599-.131 1.095-.365 1.49-.7.393-.336.598-.686.612-1.051a.993.993 0 0 0-.366-.743 1.247 1.247 0 0 0-.801-.308c-.453-.002-.832.062-1.135.189a3.48 3.48 0 0 0-.934.613l-.616-1.385c.321-.188.775-.372 1.362-.55a6.175 6.175 0 0 1 1.622-.283zm8.31.132c.674.015 1.283.248 1.826.7.542.453.828 1.037.86 1.752.003.56-.057.992-.183 1.297-.126.306-.338.629-.635.971-.372.464-.82.959-1.342 1.485-.569.573-1.133 1.151-1.693 1.734h3.853c0 .18-.03.403-.088.67a5.56 5.56 0 0 1-.263.847h-5.603v-1.4a36.632 36.632 0 0 0 1.79-1.736 36.027 36.027 0 0 0 1.613-1.8c.289-.32.523-.631.704-.934.18-.303.275-.681.28-1.134-.005-.306-.129-.582-.37-.827-.24-.246-.568-.375-.982-.39-.36.019-.703.156-.977.39a9.09 9.09 0 0 0-.89.827l-.935-1.051a4.16 4.16 0 0 1 1.255-1c.491-.259 1.085-.393 1.78-.4v-.001zm-123.703.117h6.77v1.4H21.94v7.94h-1.636v-7.94h-2.568v-1.4zm9.328 0h3.619c.88.03 1.554.303 2.023.82.47.519.706 1.101.71 1.748-.004.363-.124.719-.36 1.066-.235.348-.56.615-.972.802a2.77 2.77 0 0 1 1.167.788c.302.35.457.788.467 1.313a2.714 2.714 0 0 1-.86 1.971c-.555.533-1.275.81-2.16.831h-3.634v-9.34.001zm9.347 0h5.837v1.517h-4.203v2.219h3.386v1.4h-3.386v2.802h4.32v1.401H36.41v-9.34l.001.001zm8.991 0h3.152c1.153.053 1.97.413 2.452 1.08.481.666.715 1.318.7 1.955-.014.637-.306 1.29-.875 1.956-.57.666-1.328 1.026-2.277 1.08h-1.517v3.268h-1.635v-9.34.001zm9.35 0h1.634v3.619h1.984c1.144.039 1.922.34 2.335.905.414.564.608 1.157.584 1.78.015.637-.219 1.289-.7 1.955-.482.667-1.3 1.027-2.452 1.08h-3.386v-9.34l.001.001zm71.186 0h1.4v9.34h-1.634v-7.239l-1.25.784-.551-.716 2.035-2.17v.001zm-97.24 1.4v2.404h1.868c.355-.007.637-.12.846-.339.21-.219.317-.507.321-.864-.012-.407-.134-.71-.365-.906a1.19 1.19 0 0 0-.802-.294h-1.868v-.001zm18.339 0v3.27h1.05a2.15 2.15 0 0 0 1.284-.38c.37-.258.565-.676.584-1.255-.02-.579-.214-.997-.584-1.255a2.15 2.15 0 0 0-1.284-.38h-1.05zm9.349 3.62v2.918h1.634c.528 0 .93-.116 1.21-.35.28-.233.422-.584.425-1.05-.003-.472-.145-.842-.425-1.11-.28-.267-.682-.403-1.21-.408h-1.634zm-27.688.117v2.801h1.985c.467-.016.817-.166 1.05-.45a1.46 1.46 0 0 0 0-1.9c-.233-.284-.583-.435-1.05-.451h-1.985zm-7.156 9.573c.88.012 1.593.251 2.138.716.545.464.962 1.08 1.247 1.852l-1.568.584c-.175-.58-.414-.998-.716-1.255-.302-.258-.669-.385-1.101-.38-.655.01-1.186.312-1.592.905-.406.593-.614 1.42-.626 2.48.012 1.061.22 1.888.626 2.482.406.593.937.895 1.592.904.432.005.799-.121 1.1-.38.303-.257.542-.675.717-1.254l1.568.584c-.285.77-.702 1.39-1.247 1.854-.545.464-1.257.702-2.138.714-1.282-.035-2.237-.514-2.864-1.436-.628-.922-.94-2.078-.938-3.467-.002-1.39.31-2.545.938-3.468.627-.922 1.582-1.4 2.864-1.435zm119.185.017c1.01.002 1.821.373 2.436 1.115.616.742.933 1.843.95 3.304.012 1.447-.276 2.681-.862 3.703-.586 1.021-1.543 1.555-2.874 1.6a4.365 4.365 0 0 1-1.342-.258c-.404-.15-.618-.237-.642-.259l-.185-1.434c.02.023.23.116.632.277.401.16.875.251 1.42.274.69-.038 1.191-.305 1.508-.8.317-.495.518-.991.602-1.486.083-.495.12-.762.109-.8-.314.254-.657.47-1.022.642a2.89 2.89 0 0 1-1.197.292c-.403.027-.88-.143-1.43-.51-.55-.367-.85-1.093-.904-2.175.021-.963.298-1.776.83-2.442.533-.666 1.19-1.014 1.971-1.043zm-15.21.066c.492.016.94.081 1.343.193.404.112.618.175.642.19l.234 1.419c-.017-.02-.218-.1-.6-.241-.381-.141-.843-.223-1.385-.244-.689.04-1.19.312-1.504.818-.314.506-.512 1.011-.593 1.517-.081.506-.117.779-.105.818a5.683 5.683 0 0 1 1.007-.676 2.68 2.68 0 0 1 1.195-.325c.25-.007.567.066.948.22.38.154.72.433 1.023.833.303.4.463.966.48 1.699-.026.958-.324 1.756-.89 2.393-.567.637-1.242.968-2.028.992-1.004-.007-1.798-.4-2.38-1.18-.58-.782-.877-1.906-.889-3.373-.007-1.334.27-2.496.831-3.488.562-.993 1.453-1.515 2.672-1.565h-.001zm-88.664.15h6.77v9.34H41.99v-7.94h-3.502v7.94h-1.634v-9.34h-.001zm9.806 0h5.837v1.518h-4.202v2.218h3.385v1.4h-3.385v2.803h4.319v1.4h-5.954v-9.339zm8.522 0h6.772v1.4h-2.569v7.94H57.75v-7.94h-2.57v-1.4h.001zm9.328 0h5.837v1.518h-4.202v2.218h3.385v1.4h-3.385v2.803h4.32v1.4h-5.955v-9.339zm8.99 0h3.152c1.152.054 1.97.413 2.451 1.08.482.666.715 1.318.7 1.955-.014.638-.306 1.29-.875 1.956-.569.666-1.328 1.026-2.276 1.08h-1.518v3.269h-1.634v-9.34zm9.349 0h5.954v1.4h-4.32v2.336h1.985c1.148.044 1.946.365 2.393.963.448.598.662 1.211.642 1.839.01.627-.243 1.24-.759 1.838-.515.599-1.352.92-2.51.964h-3.385v-9.34zm8.863 0h1.75l2.219 4.903 1.868-4.903h1.75l-3.034 7.822c-.19.448-.5.817-.93 1.105-.43.288-.86.436-1.289.446-.23 0-.41-.007-.539-.022a1.023 1.023 0 0 1-.278-.06l-.35-1.47a4.173 4.173 0 0 0 .934.118c.301-.017.56-.128.776-.335.217-.207.33-.407.34-.6-.016-.12-.183-.534-.501-1.24-.362-.8-.731-1.598-1.107-2.392a408.65 408.65 0 0 0-1.61-3.372h.001zm9.933 0h3.152c1.152.054 1.97.413 2.451 1.08.482.666.715 1.318.7 1.955-.014.638-.306 1.29-.875 1.956-.569.666-1.328 1.026-2.276 1.08h-1.518v3.269h-1.634v-9.34zm9.349 0h5.837v1.4h-4.203v7.94h-1.634v-9.34zm19.556 0h5.604v1.167a49.453 49.453 0 0 0-1.693 3.635c-.535 1.277-.982 2.75-1.342 4.42h-1.752a17.94 17.94 0 0 1 1.271-4.114 29.346 29.346 0 0 1 1.882-3.59h-4.32l.35-1.518zm10.412 1.284c-.516.034-.9.246-1.148.635a2.233 2.233 0 0 0-.37 1.233c.02.467.156.817.409 1.05.253.234.506.351.759.351.586-.048 1.035-.238 1.346-.574.311-.336.468-.528.471-.576a5.317 5.317 0 0 0-.162-.768 2.697 2.697 0 0 0-.443-.917c-.206-.277-.493-.422-.862-.434zm-65.828.117v3.269h1.05a2.15 2.15 0 0 0 1.285-.38c.37-.257.564-.676.584-1.255-.02-.578-.215-.997-.584-1.255a2.15 2.15 0 0 0-1.284-.38h-1.051v.001zm28.145 0v3.269h1.05a2.15 2.15 0 0 0 1.285-.38c.37-.257.564-.676.584-1.255-.02-.578-.215-.997-.584-1.255a2.15 2.15 0 0 0-1.284-.38h-1.051v.001zm22.24 3.269c-.439.048-.864.243-1.275.583-.41.341-.63.536-.66.584 0 .026.047.208.146.545.1.337.26.675.48 1.012.218.337.503.519.857.545.52-.027.919-.235 1.197-.627s.42-.806.422-1.241c-.02-.467-.156-.818-.409-1.051-.252-.233-.505-.35-.758-.35zm-41.036.467v2.802h1.635c.532 0 .956-.117 1.27-.35.314-.234.473-.584.48-1.051-.007-.467-.166-.818-.48-1.051-.314-.234-.738-.35-1.27-.35h-1.635zm-53.581.233h3.268v1.518h-3.268v-1.518zm-3.045 2.018c.288.007.526.108.718.3a1.013 1.013 0 0 1 0 1.437 1.017 1.017 0 1 1-.718-1.737z" fill="#0D69E1" fill-rule="nonzero"/></g></svg>