<svg width="95" height="136" xmlns="http://www.w3.org/2000/svg"><g transform="translate(3 4)" fill="none" fill-rule="evenodd"><rect fill="#FFF" fill-rule="nonzero" width="86" height="128" rx="6"/><rect stroke="#000" x=".5" y=".5" width="85" height="127" rx="6"/><path d="M59.071 3v47.7H83v-7.98h-3.84V32.082H83v-5.32h-3.84V16.123H83v-5.32h-3.84V3h-6.696v7.802H64.43V3H59.07zm5.358 13.122h8.035v10.64H64.43v-10.64zm0 15.96h8.035V42.72H64.43V32.08zM6.57 3A3.551 3.551 0 0 0 3 6.547v114.906A3.551 3.551 0 0 0 6.571 125H79.43A3.551 3.551 0 0 0 83 121.453V53.36H56.393V3H6.57zm16.496 12.324h15.759c.623 0 1.288.47 1.491 1.055l.754 2.172 1.563 4.496v.013L43 24.102c.89 0 1.607.712 1.607 1.596v6.383c0 .885-.717 1.596-1.607 1.596H18.893c-.89 0-1.607-.711-1.607-1.596v-6.383c0-.884.717-1.596 1.607-1.596l.366-1.042v-.013l1.562-4.496.755-2.172c.203-.585.868-1.055 1.491-1.055zm.487 1.596a.84.84 0 0 0-.746.528L20.5 24.102h20.893l-2.313-6.654a.833.833 0 0 0-.74-.528H23.553zm17.035 8.698a2.402 2.402 0 0 0-2.41 2.394 2.402 2.402 0 0 0 2.41 2.394A2.402 2.402 0 0 0 43 28.012a2.402 2.402 0 0 0-2.41-2.394zm-19.285.08a2.402 2.402 0 0 0-2.411 2.394 2.402 2.402 0 0 0 2.41 2.393 2.402 2.402 0 0 0 2.411-2.393 2.402 2.402 0 0 0-2.41-2.394zm-2.411 8.777h4.821v3.192a2.402 2.402 0 0 1-2.41 2.394 2.402 2.402 0 0 1-2.411-2.394v-3.192zm19.286 0H43v3.192a2.402 2.402 0 0 1-2.41 2.394 2.402 2.402 0 0 1-2.411-2.394v-3.192zM24.504 54.291c1.172 0 5.755 1.052 5.755 4.757 0 1.507-.979 3.941-3.112 3.941-1.514 0-6.334-2.361-6.334-5.32 0-2.574 2.307-3.378 3.691-3.378zm-.92 9.35c.436 0 .87.109 1.26.332l3.25 1.862c.39.224.63.64.63 1.086v13.304l6.258 6.22c.17.163.291.367.348.594l3.5 13.902a2.379 2.379 0 0 1-1.74 2.886 2.4 2.4 0 0 1-2.907-1.733l-2.844-11.309-10.245-10.178a1.242 1.242 0 0 1-.37-.883V69.227l-3.907 2.238v8.038a1.88 1.88 0 0 1-1.888 1.875 1.88 1.88 0 0 1-1.889-1.875v-8.76c0-.894.48-1.717 1.26-2.164l8.026-4.606c.39-.223.824-.332 1.259-.332zm6.514 8.689l7.08 7.035c.343.34.554.808.554 1.326a1.88 1.88 0 0 1-1.888 1.875c-.522 0-.993-.21-1.335-.55l-4.41-4.375V72.33zm-8.647 10.404l3.504 3.48-9.593 16.496-.027-.018a2.402 2.402 0 0 1-2.085 1.206 2.384 2.384 0 0 1-2.393-2.376c0-.58.21-1.112.558-1.525l10.036-17.263zm49.272 1.446a1.75 1.75 0 0 1 .942.23 1.723 1.723 0 0 1 .634 2.363l-5.165 8.884a1.586 1.586 0 0 0 0 1.596l3.772 6.481c.444.764.18 1.74-.589 2.181l-5.897 3.383-5.483 9.43a2.018 2.018 0 0 1-2.745.73 1.99 1.99 0 0 1-.737-2.726l6.072-10.444c.14-.243.345-.445.59-.585l2.347-1.344-2.74-4.712a1.586 1.586 0 0 1 0-1.596l7.562-13.007a1.74 1.74 0 0 1 1.437-.864zm-9.134 3.187c1.775 0 2.625 1.351 2.625 3.032 0 .876-1.036 5.387-3.602 5.387-1.674 0-3.416-1.593-3.416-3.671 0-2.346 2.569-4.748 4.393-4.748zm-7.37 10.028a1.742 1.742 0 0 1 1.553.864l2.036 3.502 2.929-1.68 1.74 2.993-4.553 2.61a1.615 1.615 0 0 1-2.196-.584l-2.974-5.112a1.724 1.724 0 0 1 .639-2.363c.26-.149.545-.223.826-.23zm16.495 9.673l2.719 4.677h3.585c1.11 0 2.009.893 2.009 1.995s-.9 1.995-2.01 1.995H72.04a1.61 1.61 0 0 1-1.393-.798l-3.41-5.874 3.477-1.995zm-25.035 4.677c2.219 0 4.017 1.786 4.017 3.99 0 2.203-1.798 3.99-4.017 3.99-2.22 0-4.018-1.787-4.018-3.99 0-2.204 1.799-3.99 4.018-3.99z" fill="#0D69E1" fill-rule="nonzero"/></g></svg>