<svg width="197" height="102" xmlns="http://www.w3.org/2000/svg"><g fill="none" fill-rule="evenodd"><g transform="translate(14 11)"><rect fill="#FFF" fill-rule="nonzero" width="80" height="80" rx="6"/><rect stroke="#000" x=".614" y=".614" width="78.771" height="78.771" rx="6"/><path d="M5.803 3A2.797 2.797 0 0 0 3 5.803v68.394A2.797 2.797 0 0 0 5.803 77h15.883V26.92h-6.538L25.61 8.606 36.076 26.92h-6.542v35.354l18.248-18.245a9.16 9.16 0 0 0 2.684-6.475V26.92h-6.542L54.39 8.606 64.852 26.92h-6.538v10.634c0 4.51-1.79 8.836-4.979 12.025L31.833 71.075a7.849 7.849 0 0 0-2.299 5.55V77h44.663A2.797 2.797 0 0 0 77 74.197V5.803A2.797 2.797 0 0 0 74.197 3h-32.89v8.223h-2.614V3H5.803zm32.89 10.837h2.614v7.849h-2.614v-7.849zm0 10.466h2.614v7.849h-2.614v-7.849z" fill="#0D69E1" fill-rule="nonzero"/></g><g transform="translate(104 11)"><rect fill="#FFF" fill-rule="nonzero" width="80" height="80" rx="6"/><rect stroke="#000" x=".614" y=".614" width="78.771" height="78.771" rx="6"/><path d="M5.803 3A2.797 2.797 0 0 0 3 5.803v68.394A2.797 2.797 0 0 0 5.803 77h15.883V53.02c-4.203-1.587-7.194-5.644-7.194-10.403 0-4.758 2.99-8.82 7.194-10.406v-5.29h-6.538L25.61 8.605 36.076 26.92h-6.542v5.291c4.203 1.587 7.197 5.648 7.197 10.406 0 4.759-2.994 8.816-7.197 10.403v9.257L47.782 44.03a9.16 9.16 0 0 0 2.684-6.475V26.92h-6.542L54.39 8.606 64.852 26.92h-6.538v10.634c0 4.51-1.79 8.836-4.979 12.025L31.833 71.075a7.849 7.849 0 0 0-2.299 5.55V77h44.663A2.797 2.797 0 0 0 77 74.197V5.803A2.797 2.797 0 0 0 74.197 3h-32.89v8.223h-2.614V3H5.803zm32.89 10.837h2.614v7.849h-2.614v-7.849zm0 10.466h2.614v7.849h-2.614v-7.849zM25.61 32.807c-5.418 0-9.81 4.392-9.81 9.81 0 5.419 4.392 9.81 9.81 9.81s9.81-4.391 9.81-9.81c0-5.418-4.392-9.81-9.81-9.81zm3.97 5.518c.85.03 1.529.449 2.039 1.255.51.805.772 1.819.785 3.037-.013 1.278-.275 2.307-.785 3.087-.51.78-1.189 1.18-2.04 1.202-.85-.022-1.532-.421-2.042-1.202-.51-.78-.772-1.81-.785-3.087.013-1.277.275-2.306.785-3.087.51-.78 1.192-1.183 2.043-1.205zm-6.682.105h1.258v5.442h1.15l-.477 1.254h-.568v1.675h-1.465v-1.675H18.82v-1.254l4.078-5.442zm6.605 1.195c-.375.023-.678.262-.908.711-.245.48-.372 1.241-.378 2.281.006 1.04.133 1.798.378 2.278.246.48.575.717.985.711.41.006.735-.232.98-.711.246-.48.373-1.237.38-2.278-.007-1.04-.134-1.801-.38-2.28-.245-.48-.57-.718-.98-.712h-.077zm-6.707 1.002l-2.407 3.245h2.407v-3.245z" fill="#0D69E1" fill-rule="nonzero"/></g></g></svg>