<svg width="115" height="71" xmlns="http://www.w3.org/2000/svg"><g transform="translate(8 11)" fill-rule="nonzero" fill="none"><rect fill="#000" y=".166" width="100" height="49.669" rx="6.3"/><rect fill="#FFF" x="1.667" y="1.821" width="96.667" height="46.358" rx="4.9"/><g fill="#000"><path d="M12.803 22.011l.672.87 1.528-.95v8.78h1.996v-11.33h-1.711zM22.635 19.24c-1.159.029-2.085.572-2.78 1.628-.696 1.056-1.052 2.45-1.07 4.178.018 1.73.374 3.122 1.07 4.178.695 1.057 1.621 1.6 2.78 1.63 1.158-.03 2.085-.573 2.78-1.63.695-1.056 1.052-2.449 1.07-4.178-.018-1.65-.375-3.02-1.07-4.11-.695-1.09-1.622-1.656-2.78-1.697zm0 1.76c.558-.009 1.005.311 1.339.96.334.65.506 1.678.514 3.086-.008 1.408-.18 2.437-.514 3.086s-.78.97-1.34.96c-.558.01-1.004-.311-1.338-.96-.335-.65-.506-1.678-.515-3.086.009-1.408.18-2.436.515-3.085.334-.65.78-.97 1.339-.961z"/></g><g fill="#000"><path d="M33.223 20.925l.903 1.168 2.05-1.276v11.788h2.68v-15.21h-2.297zM49.27 19.866l.765-2.471H41.23v7.415l1.723.95c.192-.13.479-.344.861-.641.383-.297.862-.464 1.436-.5.865.036 1.527.345 1.986.928.458.582.69 1.224.694 1.925-.048.95-.431 1.664-1.149 2.139-.718.475-1.483.713-2.297.713-.643.007-1.29-.041-1.941-.146-.65-.105-1.216-.31-1.695-.615l.382 2.472c.044.032.435.159 1.173.38.738.222 1.559.349 2.464.38 1.838-.039 3.282-.578 4.33-1.615 1.05-1.038 1.584-2.338 1.604-3.898-.06-1.53-.563-2.702-1.508-3.518-.945-.816-1.973-1.228-3.086-1.236a4.472 4.472 0 0 0-1.357.19 2.242 2.242 0 0 0-1.131.76v-3.612h5.55z"/></g><g fill="#000"><path d="M59.246 18.248l1.875 2.096c.581-.61 1.177-1.161 1.787-1.651.61-.49 1.265-.749 1.963-.777.83.028 1.488.287 1.971.777.484.49.73 1.04.741 1.65-.011.904-.198 1.658-.56 2.262a11.901 11.901 0 0 1-1.415 1.863 71.999 71.999 0 0 1-3.24 3.588 73.27 73.27 0 0 1-3.59 3.463v2.794h11.25c.234-.592.41-1.155.527-1.688.117-.534.175-.98.175-1.339h-7.734c1.217-1.257 2.35-2.41 3.399-3.459a38.39 38.39 0 0 0 2.695-2.96c.595-.683 1.02-1.329 1.272-1.937.253-.609.375-1.47.368-2.586-.063-1.426-.64-2.59-1.728-3.493-1.089-.902-2.31-1.368-3.662-1.397-1.397.017-2.588.283-3.574.799a8.344 8.344 0 0 0-2.52 1.995zM79.8 15.454c-1.903.049-3.427.941-4.57 2.678-1.142 1.736-1.728 4.026-1.757 6.868.03 2.842.615 5.132 1.758 6.868 1.142 1.737 2.666 2.63 4.57 2.678 1.904-.049 3.428-.941 4.57-2.678C85.514 30.132 86.1 27.842 86.13 25c-.03-2.711-.615-4.963-1.758-6.756-1.142-1.793-2.666-2.722-4.57-2.79zm0 2.894c.919-.014 1.653.513 2.202 1.58.55 1.067.832 2.758.846 5.072-.014 2.314-.296 4.005-.846 5.072-.55 1.067-1.283 1.594-2.201 1.58-.918.014-1.652-.513-2.201-1.58-.55-1.067-.832-2.758-.846-5.072.014-2.314.296-4.005.846-5.072.55-1.067 1.283-1.594 2.2-1.58z"/></g><path d="M72.063 6.374A19.06 19.06 0 0 0 54.51 17.912a15.01 15.01 0 0 0-13.026-7.502 15.011 15.011 0 0 0-12.354 6.452 12.662 12.662 0 0 0-9.442-4.202c-6.99 0-12.657 5.63-12.657 12.573 0 6.943 5.667 12.572 12.657 12.572a12.66 12.66 0 0 0 9.38-4.134 15.012 15.012 0 0 0 12.416 6.54A15.01 15.01 0 0 0 54.51 32.71a19.06 19.06 0 0 0 17.553 11.538c10.527 0 19.062-8.478 19.062-18.937 0-10.458-8.535-18.936-19.063-18.936zm-.188.621C81.885 6.995 90 15.056 90 25c0 9.944-8.115 18.005-18.125 18.005a18.14 18.14 0 0 1-16.833-11.31v-.005a14.762 14.762 0 0 0 1.442-6.38c0-2.393-.568-4.654-1.578-6.658 2.584-6.813 9.208-11.657 16.969-11.657zm-30.932 3.922c.121-.003.242 0 .364 0 7.842 0 14.198 6.314 14.198 14.104 0 7.79-6.356 14.104-14.198 14.104-4.85 0-9.131-2.409-11.692-6.095a12.469 12.469 0 0 0 2.729-7.797c0-3.034-1.085-5.817-2.886-7.989a14.21 14.21 0 0 1 11.485-6.327zm-21.568 2.287c6.558 0 11.875 5.281 11.875 11.796s-5.317 11.796-11.875 11.796S7.5 31.515 7.5 25s5.317-11.796 11.875-11.796z" fill="#000"/></g></svg>