<svg width="115" height="71" xmlns="http://www.w3.org/2000/svg"><g transform="translate(8 11)" fill-rule="nonzero" fill="none"><rect fill="#000" y=".166" width="100" height="49.669" rx="6.3"/><rect fill="#FFF" x="1.667" y="1.821" width="96.667" height="46.358" rx="4.9"/><path d="M50 6.374c-1.68 0-3.309.224-4.858.636l2.124 13.285-10.518-8.469a18.58 18.58 0 0 0-4.863 8.357L44.53 25l-12.646 4.817a18.577 18.577 0 0 0 4.863 8.357l10.518-8.469-2.124 13.29c1.549.412 3.178.63 4.858.63 1.68 0 3.309-.223 4.858-.635l-2.124-13.285 10.518 8.469a18.58 18.58 0 0 0 4.863-8.357L55.47 25l12.646-4.817a18.58 18.58 0 0 0-4.863-8.357l-10.518 8.469L54.858 7.01A18.89 18.89 0 0 0 50 6.374z" fill="red"/></g></svg>