<svg width="100" height="86" xmlns="http://www.w3.org/2000/svg"><g fill="none" fill-rule="evenodd"><path d="M89.734 43A39.867 39.867 0 1 1 10 43a39.867 39.867 0 1 1 79.734 0z" fill="#FFF" fill-rule="nonzero"/><path d="M90.5 43c0 22.368-18.132 40.5-40.5 40.5S9.5 65.368 9.5 43 27.632 2.5 50 2.5 90.5 20.632 90.5 43z" stroke="#000"/><path d="M50 5C29.013 5 12 22.013 12 43s17.013 38 38 38 38-17.013 38-38S70.987 5 50 5zm0 7c17.12 0 31 13.88 31 31 0 17.12-13.88 31-31 31-17.12 0-31-13.88-31-31 0-17.12 13.88-31 31-31z" fill="red" fill-rule="nonzero"/><g fill="#000" fill-rule="nonzero"><path d="M52.211 49.195c.177.135.393.208.616.208h4.936a9.032 9.032 0 1 0 4.896-9.315L59.32 35.32l.876-2.062h.53a1.355 1.355 0 0 0 0-2.71h-6.21a1.355 1.355 0 0 0 0 2.71h3.963L57.95 34.5h-15.57a3.045 3.045 0 0 0-1.432-3.451l-.595-.34a1.355 1.355 0 0 1 .67-2.532h4.46a.903.903 0 1 0 0-1.806h-4.46a3.161 3.161 0 0 0-1.564 5.908l.595.34a1.242 1.242 0 0 1 .51 1.603l-2.832 6.075a9.033 9.033 0 1 0 1.499 1.061l.705-1.513 12.274 9.35zm-18.92 6.644a7.677 7.677 0 1 1 3.868-14.31l-1.96 4.205c-.118.252-.31.462-.551.6l-1.81 1.045a.903.903 0 1 0 .904 1.565l1.809-1.045a3.162 3.162 0 0 0 1.284-1.402l1.796-3.85a7.677 7.677 0 0 1-5.34 13.192zm33.419 0a7.677 7.677 0 0 1-7.577-6.436h7.8a1.242 1.242 0 0 0 1.018-1.954l-4.4-6.285A7.677 7.677 0 1 1 66.71 55.84zm-7.637-8.468a7.678 7.678 0 0 1 2.75-5.13l3.592 5.13h-6.342zm-4.377 0l4.097-9.654 2.34 3.34a9.032 9.032 0 0 0-3.42 6.314h-3.017zm-2.041-.392l-11.638-8.866.806-1.58h15.266l-4.434 10.446z"/></g></g></svg>