<svg width="115" height="151" xmlns="http://www.w3.org/2000/svg"><g fill-rule="nonzero" fill="none"><path d="M17.53 8.376h81.686a2 2 0 0 1 2 2v131.248a2 2 0 0 1-2 2H17.529a2 2 0 0 1-2-2V10.376a2 2 0 0 1 2-2z" fill="#FFF"/><path d="M17.018 9.75c-1.816 0-3.268 1.419-3.268 3.174v127.152c0 1.755 1.452 3.174 3.268 3.174h81.964c1.816 0 3.268-1.419 3.268-3.174V12.924c0-1.755-1.452-3.174-3.268-3.174H17.018z" stroke="#000" stroke-width="1.5"/><g fill="#000"><path d="M36.853 23.896h1.522c.61.007 1.124.205 1.544.594.419.388.637.925.655 1.61a1.84 1.84 0 0 1-.761 1.463c-.486.37-1.078.561-1.776.572-1.265-.064-2.202-.318-2.811-.763-.61-.445-.913-.7-.91-.763l-1.521 1.865c.031.078.517.389 1.458.933.94.544 2.146.854 3.615.932 1.617-.063 2.864-.53 3.742-1.399.877-.869 1.321-1.759 1.332-2.67-.036-.896-.284-1.591-.746-2.085-.461-.494-.923-.837-1.384-1.03-.461-.192-.71-.285-.745-.276.029.01.233-.066.613-.226s.76-.462 1.14-.904c.38-.443.585-1.084.614-1.922-.014-1.046-.408-1.922-1.184-2.628-.775-.707-1.846-1.074-3.213-1.102-1.378.063-2.493.318-3.346.763-.853.445-1.291.7-1.317.763l1.28 1.986c-.006-.055.262-.273.804-.654.543-.382 1.402-.6 2.58-.654.905.046 1.504.293 1.796.742.292.448.426.823.402 1.123.007.293-.134.64-.423 1.039-.289.399-.768.618-1.438.657h-1.522v2.034zM50.857 16.097c-1.857.051-3.24.748-4.149 2.089-.909 1.341-1.362 3.019-1.359 5.032-.003 2.013.45 3.69 1.359 5.032.909 1.341 2.292 2.038 4.15 2.09 1.857-.052 3.24-.749 4.149-2.09.909-1.341 1.362-3.019 1.359-5.032.003-2.013-.45-3.69-1.36-5.032-.908-1.341-2.291-2.038-4.149-2.09zm0 2.204c.948.014 1.716.452 2.305 1.314.588.862.891 2.063.909 3.603-.018 1.54-.321 2.741-.91 3.603-.588.862-1.356 1.3-2.304 1.314-.947-.014-1.715-.452-2.304-1.314-.588-.862-.891-2.063-.909-3.603.018-1.54.32-2.741.91-3.603.588-.862 1.356-1.3 2.303-1.314zM59.466 30h2.367v-6.104h5.074V30h2.367V16.436h-2.367v5.425h-5.074v-5.425h-2.367zM76.529 25.253l1.691-5.765 1.691 5.765H76.53zm.338-8.817L72.47 30h2.537l.845-2.713h4.736L81.433 30h2.537l-4.397-13.564h-2.706z"/></g><path d="M57.294 44.744c-18.843 0-34.118 15.314-34.118 34.205 0 18.89 15.275 34.205 34.118 34.205 18.843 0 34.118-15.314 34.118-34.205S76.137 44.744 57.294 44.744zm0 5.783c15.657 0 28.35 12.725 28.35 28.422 0 15.697-12.693 28.422-28.35 28.422-15.657 0-28.35-12.725-28.35-28.422 0-15.697 12.693-28.422 28.35-28.422z" fill="red"/><g fill="#000"><path d="M39.352 67.962l1.655 3.722c.857-.756 1.692-1.306 2.505-1.648.812-.342 1.826-.51 3.041-.504.815.02 1.533.294 2.153.824.62.53.945 1.197.978 2.001-.04.98-.587 1.923-1.644 2.825-1.056.902-2.387 1.53-3.992 1.883v3.453c.318-.15.667-.242 1.046-.274.38-.033.761-.046 1.146-.04 1.965.086 3.212.565 3.74 1.435.529.871.758 1.618.688 2.242-.067 1.45-.615 2.509-1.644 3.179-1.028.67-2.27 1-3.723.992a18.17 18.17 0 0 1-3.355-.309c-1.168-.212-2.152-.572-2.952-1.081l.537 4.394c.11.045.863.224 2.259.538 1.396.314 2.775.493 4.137.538 2.986-.104 5.266-.994 6.838-2.668 1.572-1.674 2.364-3.505 2.376-5.493-.046-1.356-.456-2.48-1.23-3.371-.773-.892-1.633-1.574-2.58-2.047-.948-.472-1.705-.76-2.273-.86 1.304-.183 2.452-.837 3.444-1.962.991-1.124 1.513-2.563 1.565-4.316-.084-1.748-.81-3.128-2.18-4.142-1.37-1.014-2.88-1.531-4.529-1.553-1.331.035-2.783.29-4.355.768-1.572.478-2.79.969-3.651 1.474zM67.14 66.08c-2.543.064-4.578 1.268-6.105 3.609-1.526 2.341-2.309 5.428-2.348 9.26.04 3.832.822 6.919 2.348 9.26 1.527 2.34 3.562 3.544 6.106 3.61 2.543-.066 4.579-1.27 6.105-3.61 1.526-2.341 2.309-5.428 2.348-9.26-.04-3.656-.822-6.692-2.348-9.109-1.526-2.417-3.562-3.67-6.105-3.76zm0 3.9c1.227-.018 2.207.692 2.941 2.13.735 1.439 1.111 3.718 1.13 6.839-.019 3.12-.395 5.4-1.13 6.838-.734 1.439-1.714 2.149-2.94 2.13-1.227.019-2.207-.691-2.941-2.13-.735-1.439-1.111-3.718-1.13-6.838.019-3.12.395-5.4 1.13-6.839.734-1.438 1.714-2.148 2.94-2.13z"/></g></g></svg>