<svg width="100" height="86" xmlns="http://www.w3.org/2000/svg"><g transform="translate(10 3)" fill="none" fill-rule="evenodd"><path d="M2 0h76a2 2 0 0 1 2 2v72a6 6 0 0 1-6 6H2a2 2 0 0 1-2-2V2a2 2 0 0 1 2-2z" fill="#FFF" fill-rule="nonzero"/><rect stroke="#000" x=".5" y=".5" width="79" height="79" rx="6"/><g fill-rule="nonzero"><path d="M6.304 3A3.296 3.296 0 0 0 3 6.304v67.392A3.296 3.296 0 0 0 6.304 77h14.515V3H6.304zM28.49 3v33.164h15.345v-12.79h17.906v33.251H43.836V43.836H28.491V77h45.205A3.296 3.296 0 0 0 77 73.696V6.304A3.296 3.296 0 0 0 73.696 3H28.491z" fill="#0D69E1"/><path fill="red" d="M46.451 54.193V25.806h12.903v28.387z"/></g></g></svg>