<svg width="95" height="136" xmlns="http://www.w3.org/2000/svg"><g fill="none" fill-rule="evenodd"><rect x=".5" y=".5" width="85" height="127" rx="6" transform="translate(5 4)" fill="#FFF" stroke="#000"/><g fill-rule="nonzero"><path d="M11.03 7A3.018 3.018 0 0 0 8 10.02v115.96a3.018 3.018 0 0 0 3.03 3.02h73.94a3.018 3.018 0 0 0 3.03-3.02V10.02A3.018 3.018 0 0 0 84.97 7H11.03zm7.508 19h58.924C80.53 26 83 28.435 83 31.46v58.08c0 3.025-2.47 5.46-5.538 5.46H18.538C15.47 95 13 92.565 13 89.54V31.46c0-3.025 2.47-5.46 5.538-5.46z" fill="#0D69E1"/><path d="M76.947 72c-.804 0-1.608.354-2.412.963-.804.61-1.608 1.465-2.412 2.326-.804.862-1.608 1.717-2.412 2.326-.804.61-1.609.964-2.413.964-.804 0-1.608-.355-2.412-.964-.804-.608-1.608-1.464-2.412-2.326-.804-.86-1.608-1.717-2.413-2.326-.804-.608-1.608-.963-2.412-.963-.804 0-1.608.354-2.412.963-.804.61-1.608 1.465-2.412 2.326-.804.862-1.609 1.717-2.413 2.326-.804.61-1.608.964-2.412.964-.804 0-1.608-.355-2.412-.964-.804-.608-1.608-1.464-2.413-2.326-.804-.86-1.608-1.717-2.412-2.326-.804-.608-1.608-.963-2.412-.963-.804 0-1.608.354-2.412.963-.804.61-1.609 1.465-2.413 2.326-.804.862-1.608 1.717-2.412 2.326-.804.61-1.608.964-2.412.964-.804 0-1.608-.355-2.413-.964-.804-.608-1.608-1.464-2.412-2.326-.804-.86-1.608-1.717-2.412-2.326-.804-.608-1.608-.963-2.412-.963v-3.947c.804 0 1.608.354 2.412.963.804.609 1.608 1.465 2.412 2.326.804.861 1.608 1.717 2.412 2.326.805.609 1.609.964 2.413.964.804 0 1.608-.355 2.412-.964.804-.61 1.608-1.465 2.412-2.326.804-.861 1.609-1.717 2.413-2.326.804-.61 1.608-.963 2.412-.963.804 0 1.608.354 2.412.963.804.609 1.608 1.465 2.412 2.326.805.861 1.609 1.717 2.413 2.326.804.609 1.608.964 2.412.964.804 0 1.608-.355 2.412-.964.804-.61 1.609-1.465 2.413-2.326.804-.861 1.608-1.717 2.412-2.326.804-.61 1.608-.963 2.412-.963.804 0 1.608.354 2.412.963.805.609 1.609 1.465 2.413 2.326.804.861 1.608 1.717 2.412 2.326.804.609 1.608.964 2.412.964.804 0 1.609-.355 2.413-.964.804-.61 1.608-1.465 2.412-2.326.804-.861 1.608-1.717 2.412-2.326.804-.61 1.608-.963 2.412-.963V72z" fill="#000"/><path d="M76.947 79.895c-.804 0-1.608.354-2.412.963-.804.61-1.608 1.465-2.412 2.326-.804.861-1.608 1.717-2.412 2.326-.804.61-1.609.963-2.413.964-.804 0-1.608-.355-2.412-.964-.804-.608-1.608-1.465-2.412-2.326-.804-.861-1.608-1.717-2.413-2.326-.804-.609-1.608-.963-2.412-.963-.804 0-1.608.354-2.412.963-.804.61-1.608 1.465-2.412 2.326-.804.861-1.609 1.717-2.413 2.326-.804.61-1.608.963-2.412.964-.804 0-1.608-.355-2.412-.964-.804-.608-1.608-1.465-2.413-2.326-.804-.861-1.608-1.717-2.412-2.326-.804-.609-1.608-.963-2.412-.963-.804 0-1.608.354-2.412.963-.804.61-1.609 1.465-2.413 2.326-.804.861-1.608 1.717-2.412 2.326-.804.61-1.608.963-2.412.964-.804 0-1.608-.355-2.413-.964-.804-.608-1.608-1.465-2.412-2.326-.804-.861-1.608-1.717-2.412-2.326-.804-.609-1.608-.963-2.412-.963v-3.948c.804 0 1.608.355 2.412.964.804.609 1.608 1.465 2.412 2.326.804.861 1.608 1.717 2.412 2.326.805.609 1.609.963 2.413.963.804 0 1.608-.354 2.412-.963.804-.61 1.608-1.465 2.412-2.326.804-.861 1.609-1.717 2.413-2.326.804-.61 1.608-.963 2.412-.964.804 0 1.608.355 2.412.964.804.609 1.608 1.465 2.412 2.326.805.861 1.609 1.717 2.413 2.326.804.609 1.608.963 2.412.963.804 0 1.608-.354 2.412-.963.804-.61 1.609-1.465 2.413-2.326.804-.861 1.608-1.717 2.412-2.326.804-.61 1.608-.963 2.412-.964.804 0 1.608.355 2.412.964.805.609 1.609 1.465 2.413 2.326.804.861 1.608 1.717 2.412 2.326.804.609 1.608.963 2.412.963.804 0 1.609-.354 2.413-.963.804-.61 1.608-1.465 2.412-2.326.804-.861 1.608-1.717 2.412-2.326.804-.61 1.608-.963 2.412-.964v3.948zM49.484 32.42c-5.33 0-10.592 1.403-10.592 8.852 0 .866.264 2.215.173 2.352-1.904 2.969-3.371 2.194-.555 4.786-.62.542-.59 1.317-.017 1.604-.391.226-.465.968.173 1.139-.504.504-.555.999-.555 1.262 0 1.691 2.326 2.149 3.039 2.34 0 0 2.965.647 2.85 2.196 0 .628-.712 1.394-1.206 1.394-.25 0-7.103.396-8.593 1.887-1.981 1.981-3.187 6.91-3.923 10.025.279-.146.556-.324.835-.535.804-.61 1.61-1.466 2.413-2.327.804-.861 1.61-1.718 2.414-2.328.804-.609 1.605-.961 2.41-.962.804 0 1.61.354 2.413.962.804.61 1.61 1.467 2.414 2.328.804.86 1.605 1.718 2.41 2.327.803.609 1.609.962 2.413.962.804 0 1.61-.353 2.414-.962.804-.61 1.605-1.466 2.41-2.327.803-.861 1.609-1.718 2.413-2.328.804-.609 1.61-.961 2.413-.962.805 0 1.606.354 2.41.962.804.61 1.61 1.467 2.414 2.328.804.86 1.61 1.718 2.413 2.327.284.215.568.396.851.543 0-5.515-1.92-7.574-3.33-8.985-3.732-3.731-7.792-1.337-7.792-4.523 0-.914.291-2.017 1.34-2.623 4.322-2.177 4.46-7.63 4.503-10.32 0-9.27-6.222-11.395-10.975-11.395z" fill="#000"/></g></g></svg>