<svg width="282" height="191" xmlns="http://www.w3.org/2000/svg"><g fill="none" fill-rule="evenodd"><g transform="translate(11 11)"><rect fill="#FFF" fill-rule="nonzero" width="80" height="80" rx="6"/><rect stroke="#000" x=".614" y=".614" width="78.771" height="78.771" rx="6"/><path d="M5.803 3A2.797 2.797 0 0 0 3 5.803v68.394A2.797 2.797 0 0 0 5.803 77h13.269v-8.223h2.614V77h14.39V26.92h-6.542L40 8.606 50.466 26.92h-6.542V77h14.39v-8.223h2.614V77h13.269A2.797 2.797 0 0 0 77 74.197V5.803A2.797 2.797 0 0 0 74.197 3H5.803zm13.269 34.383h2.614v7.848h-2.614v-7.848zm39.242 0h2.614v7.848h-2.614v-7.848zM19.072 47.848h2.614v7.849h-2.614v-7.849zm39.242 0h2.614v7.849h-2.614v-7.849zM19.072 58.314h2.614v7.849h-2.614v-7.849zm39.242 0h2.614v7.849h-2.614v-7.849z" fill="#0D69E1" fill-rule="nonzero"/></g><g transform="translate(56 97)"><rect fill="#FFF" fill-rule="nonzero" x="1" y="1" width="78.886" height="78" rx="6"/><rect stroke="#000" x=".614" y=".614" width="78.771" height="78.771" rx="6"/><path d="M5.803 3A2.797 2.797 0 0 0 3 5.803v68.394A2.797 2.797 0 0 0 5.803 77h8.034v-8.223h2.618V77h5.23V54.033c0-4.163 1.657-8.153 4.601-11.097l24.155-24.155-4.625-4.625 20.347-5.55-5.55 20.35-4.622-4.625-24.158 24.152a7.849 7.849 0 0 0-2.299 5.55V77h20.932v-8.223h2.614V77h21.117A2.797 2.797 0 0 0 77 74.197V5.803A2.797 2.797 0 0 0 74.197 3H5.803zm8.034 34.383h2.618v7.848h-2.618v-7.848zm36.629 0h2.614v7.848h-2.614v-7.848zM13.837 47.848h2.618v7.849h-2.618v-7.849zm36.629 0h2.614v7.849h-2.614v-7.849zM13.837 58.314h2.618v7.849h-2.618v-7.849zm36.629 0h2.614v7.849h-2.614v-7.849z" fill="#0D69E1" fill-rule="nonzero"/></g><g transform="translate(146 97)"><rect fill="#FFF" fill-rule="nonzero" x="1" y="1" width="78.886" height="78" rx="6"/><rect stroke="#000" x=".614" y=".614" width="78.771" height="78.771" rx="6"/><path d="M5.803 3A2.797 2.797 0 0 0 3 5.803v68.394A2.797 2.797 0 0 0 5.803 77h5.42v-8.223h2.614V77h5.235V26.92H12.53L22.996 8.606 33.458 26.92H26.92v26.955a15.621 15.621 0 0 1 7.849-2.102h20.928c5.78 0 10.466-4.687 10.466-10.466 0-5.78-4.687-10.462-10.466-10.462v6.538L37.383 26.92l18.314-10.465v6.541c10.114 0 18.314 8.197 18.314 18.31 0 10.115-8.2 18.315-18.314 18.315H34.769a7.848 7.848 0 0 0-7.849 7.849V77h23.546v-8.223h2.614V77h21.117A2.797 2.797 0 0 0 77 74.197V5.803A2.797 2.797 0 0 0 74.197 3H5.803zm5.42 34.383h2.614v7.848h-2.614v-7.848zm0 10.465h2.614v7.849h-2.614v-7.849zm0 10.466h2.614v7.849h-2.614v-7.849zm39.243 2.614h2.614v5.235h-2.614v-5.235z" fill="#0D69E1" fill-rule="nonzero"/></g><g transform="translate(101 11)"><rect fill="#FFF" fill-rule="nonzero" width="80" height="80" rx="6"/><rect stroke="#000" x=".5" y=".5" width="78.771" height="78.771" rx="6"/><path d="M5.803 3A2.797 2.797 0 0 0 3 5.803v68.394A2.797 2.797 0 0 0 5.803 77h8.034v-8.223h2.618V77h13.08V26.92h-6.539L33.458 8.606 43.924 26.92h-6.541v12.565a15.621 15.621 0 0 1 7.848-2.102h3.924v-6.538L67.47 41.307 49.155 51.773V45.23h-3.924a7.848 7.848 0 0 0-7.848 7.849V77h13.083v-8.223h2.614V77h21.117A2.797 2.797 0 0 0 77 74.197V5.803A2.797 2.797 0 0 0 74.197 3H5.803zm8.034 34.383h2.618v7.848h-2.618v-7.848zm0 10.465h2.618v7.849h-2.618v-7.849zm0 10.466h2.618v7.849h-2.618v-7.849zm36.629 0h2.614v7.849h-2.614v-7.849z" fill="#0D69E1" fill-rule="nonzero"/></g><g transform="translate(191 11)"><rect fill="#FFF" fill-rule="nonzero" y="1" width="79" height="78" rx="6"/><rect stroke="#000" x=".5" y=".5" width="78.771" height="78.771" rx="6"/><path d="M5.803 3A2.797 2.797 0 0 0 3 5.803v68.394A2.797 2.797 0 0 0 5.803 77h5.42v-8.223h2.614V77h5.235V34.769c0-8.67 7.028-15.697 15.697-15.697h20.928V12.53l18.314 10.466-18.314 10.462V26.92H34.769a7.848 7.848 0 0 0-7.849 7.849V77h23.546v-8.223h2.614V77h21.117A2.797 2.797 0 0 0 77 74.197V5.803A2.797 2.797 0 0 0 74.197 3H5.803zm5.42 34.383h2.614v7.848h-2.614v-7.848zm39.243 0h2.614v7.848h-2.614v-7.848zM11.223 47.848h2.614v7.849h-2.614v-7.849zm39.243 0h2.614v7.849h-2.614v-7.849zM11.223 58.314h2.614v7.849h-2.614v-7.849zm39.243 0h2.614v7.849h-2.614v-7.849z" fill="#0D69E1" fill-rule="nonzero"/></g></g></svg>