<svg width="110" height="80" xmlns="http://www.w3.org/2000/svg"><g fill="none" fill-rule="evenodd"><path d="M0 0h110v80H0z"/><g fill-rule="nonzero"><g transform="translate(5 7)"><path d="M6.3.166h87.4a6.3 6.3 0 0 1 6.3 6.3v37.068a6.3 6.3 0 0 1-6.3 6.3H6.3a6.3 6.3 0 0 1-6.3-6.3V6.466a6.3 6.3 0 0 1 6.3-6.3z" fill="#000"/><rect fill="#FFF" x="1.667" y="1.821" width="96.667" height="46.358" rx="4.9"/><path d="M24.414 15.687a3.43 3.43 0 0 0-2.837 1.499l-5.366 7.901a3.383 3.383 0 0 0-.586 1.902v8.207c0 1.877 1.533 3.4 3.423 3.4h3.09c.18-3.784 3.32-6.8 7.174-6.8 3.853 0 6.998 3.016 7.177 6.8H63.2a7.137 7.137 0 0 1 4.115-6.121h-29.79V19.082c0-1.877-1.533-3.395-3.422-3.395h-9.689zm.18 2.037h7.799c.945 0 1.709.764 1.709 1.703v4.758c0 .939-.764 1.698-1.71 1.698h-11.03a1.702 1.702 0 0 1-1.709-1.698c0-.339.103-.67.293-.95l3.233-4.759c.318-.47.849-.751 1.416-.752h-.001z" fill="#000"/><path d="M43 9.478a3.403 3.403 0 0 0-3.422 3.4v18.33h44.485v-18.33c0-1.883-1.527-3.4-3.422-3.4H43zm27.375 23.677c-3.213 0-5.817 2.587-5.817 5.779 0 3.191 2.604 5.778 5.817 5.778s5.817-2.587 5.817-5.778c0-3.192-2.604-5.779-5.817-5.779zm0 2.72c1.7 0 3.08 1.37 3.08 3.059a3.07 3.07 0 0 1-3.08 3.059 3.07 3.07 0 0 1-3.08-3.06 3.07 3.07 0 0 1 3.08-3.059v.001z" fill="#000"/><path d="M77.55 38.594c-.128-2.71-1.775-5.023-4.117-6.119h10.63v6.119H77.55zm-48.237-5.439c-3.213 0-5.818 2.587-5.818 5.779 0 3.191 2.605 5.778 5.818 5.778 3.212 0 5.817-2.587 5.817-5.778 0-3.192-2.605-5.779-5.817-5.779zm0 2.72c1.7 0 3.08 1.37 3.08 3.059a3.07 3.07 0 0 1-3.08 3.059 3.07 3.07 0 0 1-3.08-3.06 3.07 3.07 0 0 1 3.08-3.059v.001z" fill="#000"/></g><path d="M46.278 71.405c0 .743-.298 1.362-.893 1.855-.596.493-1.344.74-2.246.74-.957 0-1.72-.24-2.288-.723-.567-.481-.851-1.098-.851-1.85 0-.477.142-.91.427-1.297.285-.387.687-.695 1.205-.922v-.035c-.475-.246-.826-.516-1.053-.809-.228-.293-.342-.659-.342-1.098 0-.648.273-1.187.82-1.619.545-.431 1.24-.647 2.082-.647.882 0 1.586.206 2.112.618.526.413.79.937.79 1.573 0 .389-.125.771-.374 1.147-.25.376-.616.67-1.098.882v.034c.554.232.977.517 1.27.856.292.339.439.77.439 1.295zm-1.407-4.203c0-.412-.163-.74-.49-.985-.325-.245-.742-.367-1.248-.367-.499 0-.907.115-1.225.347-.308.21-.488.563-.478.936 0 .277.08.517.24.72.16.202.403.382.727.54.147.07.357.16.632.272.275.111.543.204.804.277.392-.254.663-.518.813-.792.15-.273.225-.59.225-.948zm.184 4.312c0-.354-.08-.638-.24-.852-.16-.214-.474-.429-.94-.645-.2-.09-.404-.17-.612-.237-.296-.099-.59-.2-.884-.306-.346.18-.64.445-.857.769-.216.323-.323.69-.323 1.098 0 .52.184.95.551 1.29.368.338.835.508 1.4.508.578 0 1.04-.145 1.386-.434.346-.289.52-.686.52-1.19l-.001-.001zm4.866 2.29h-1.418v-1.648h1.418v1.648zm8.64-2.422h-1.312v2.421h-1.14v-2.421h-4.23v-1.33l4.278-4.855h1.092v5.26h1.311v.925h.001zm-2.451-.925v-3.885l-3.424 3.885h3.424zm5.957 3.346h-1.418v-1.647h1.418v1.647zm7.933 0h-4.782v-.878h1.839v-5.769h-1.84v-.786c.25 0 .517-.02.802-.06.284-.041.5-.1.646-.177.182-.096.326-.219.43-.367.105-.148.166-.348.182-.598h.92v7.757H70v.878z" fill="#8B8B8B"/></g></g></svg>