<svg width="100" height="86" xmlns="http://www.w3.org/2000/svg"><g fill="none" fill-rule="evenodd"><path d="M90 43c0 22.091-17.909 40-40 40S10 65.091 10 43 27.909 3 50 3s40 17.909 40 40z" fill="#FFF" fill-rule="nonzero"/><path d="M90.363 42.998c0 22.293-18.072 40.365-40.365 40.365-22.293 0-40.365-18.072-40.365-40.365 0-22.293 18.072-40.365 40.365-40.365 22.293 0 40.365 18.072 40.365 40.365z" stroke="#000"/><path d="M50 5.667C29.381 5.667 12.667 22.38 12.667 43c0 19.311 14.663 35.196 33.462 37.133V46.871a5.163 5.163 0 0 0-5.162-5.163h-5.159l-.002 6.56-18.064-10.43 18.064-10.43.002 6.559h5.159c3.516 0 6.706 1.41 9.033 3.691a12.867 12.867 0 0 1 9.033-3.691h5.159l.002-6.56 18.064 10.43-18.064 10.43-.002-6.559h-5.159a5.163 5.163 0 0 0-5.162 5.163v33.262C72.67 78.196 87.333 62.311 87.333 43 87.333 22.381 70.62 5.667 50 5.667z" fill="#0D69E1" fill-rule="nonzero"/></g></svg>