<svg width="95" height="136" xmlns="http://www.w3.org/2000/svg"><g transform="translate(5 4)" fill="none" fill-rule="evenodd"><rect stroke="#000" fill="#FFF" x=".5" y=".5" width="85" height="127" rx="6"/><g fill-rule="nonzero"><path d="M6.03 3A3.018 3.018 0 0 0 3 6.02v115.96A3.018 3.018 0 0 0 6.03 125h73.94a3.018 3.018 0 0 0 3.03-3.02V6.02A3.018 3.018 0 0 0 79.97 3H6.03zm7.955 18.723h58.03a5.433 5.433 0 0 1 5.455 5.435v57.83a5.433 5.433 0 0 1-5.455 5.435h-58.03a5.433 5.433 0 0 1-5.455-5.435v-57.83a5.433 5.433 0 0 1 5.455-5.435z" fill="#0D69E1"/><g fill="#FFF"><path d="M23.855 100.73c-1.107 0-2.06.288-2.857.864-.799.575-1.217 1.439-1.255 2.59.029.762.228 1.359.597 1.791.37.433.74.737 1.11.914.369.177.568.262.596.256-.032-.002-.26.111-.682.34-.423.23-.845.588-1.267 1.073-.423.485-.65 1.11-.683 1.876-.02.877.309 1.713.987 2.508.679.795 1.83 1.22 3.454 1.275 1.624-.055 2.776-.48 3.454-1.275.679-.795 1.008-1.63.987-2.508-.032-.765-.26-1.39-.682-1.876-.423-.485-.845-.843-1.267-1.072-.423-.23-.65-.343-.683-.341.029.006.228-.08.597-.256.37-.177.74-.481 1.11-.914.369-.432.568-1.03.596-1.79-.038-1.152-.456-2.016-1.254-2.591-.798-.576-1.751-.864-2.858-.864zm0 1.88c.507-.006.932.112 1.275.355.343.244.52.65.534 1.22-.075.513-.376.966-.904 1.356-.528.39-.83.596-.905.617-.075-.02-.377-.226-.904-.617-.528-.39-.83-.843-.905-1.357.014-.569.192-.975.535-1.219.342-.243.767-.361 1.274-.355zm0 5.522c.027.006.211.121.555.347.343.225.686.524 1.03.895.342.372.527.78.553 1.225-.027.572-.26.99-.699 1.254a2.705 2.705 0 0 1-1.439.39c-.52.004-1-.126-1.439-.39-.439-.264-.672-.682-.699-1.254.026-.393.211-.777.554-1.152a6.782 6.782 0 0 1 1.03-.932c.343-.246.528-.374.554-.383zM35.695 100.73c-1.336.035-2.405.665-3.207 1.892-.802 1.226-1.213 2.844-1.234 4.852.021 2.008.432 3.625 1.234 4.852.802 1.226 1.87 1.857 3.207 1.891 1.337-.034 2.406-.665 3.207-1.891.802-1.227 1.213-2.844 1.234-4.852-.02-1.916-.432-3.507-1.234-4.773-.801-1.266-1.87-1.923-3.207-1.97zm0 2.044c.644-.01 1.16.363 1.545 1.117.386.753.584 1.948.593 3.583-.01 1.635-.207 2.829-.593 3.583s-.9 1.126-1.545 1.116c-.644.01-1.159-.362-1.545-1.116-.385-.754-.583-1.948-.593-3.583.01-1.635.208-2.83.593-3.583.386-.754.901-1.126 1.545-1.117zM47.535 100.73c-1.336.035-2.405.665-3.207 1.892-.802 1.226-1.213 2.844-1.234 4.852.021 2.008.432 3.625 1.234 4.852.802 1.226 1.87 1.857 3.207 1.891 1.337-.034 2.406-.665 3.207-1.891.802-1.227 1.213-2.844 1.234-4.852-.02-1.916-.432-3.507-1.234-4.773-.801-1.266-1.87-1.923-3.207-1.97zm0 2.044c.644-.01 1.16.363 1.545 1.117.386.753.584 1.948.593 3.583-.01 1.635-.207 2.829-.593 3.583s-.9 1.126-1.545 1.116c-.644.01-1.159-.362-1.545-1.116-.385-.754-.583-1.948-.593-3.583.01-1.635.208-2.83.593-3.583.386-.754.901-1.126 1.545-1.117zM56.408 114.053h1.974l.494-6.415 2.63 5.264 2.633-5.264.493 6.415h1.974l-.823-9.211H63.81l-2.303 4.606-2.303-4.606H57.23z"/></g><g fill="#000"><path d="M41.98 30c-1.097 0-1.98.883-1.98 1.98V66h18V31.98c0-1.097-.883-1.98-1.98-1.98H41.98zm1.62 3.6h10.8c.499 0 .9.401.9.9v9c0 .499-.401.9-.9.9H43.6a.898.898 0 0 1-.9-.9v-9c0-.499.401-.9.9-.9zM37.105 46.27c0-.492.4-.892.895-.892v-1.783a2.68 2.68 0 0 0-2.684 2.675v10.703c0 3.448-2.804 6.243-6.263 6.243-3.46 0-6.264-2.795-6.264-6.243 0-1.554.582-3.052 1.63-4.2l9.15-10.029a6.677 6.677 0 0 0 1.747-4.5v-3.568c0-.493.4-.892.895-.892H38V32h-1.79a2.68 2.68 0 0 0-2.684 2.676v3.567c0 1.221-.456 2.398-1.28 3.3l-9.15 10.029A8.013 8.013 0 0 0 21 56.973C21 61.406 24.605 65 29.053 65c4.447 0 8.052-3.594 8.052-8.027V46.27z"/></g></g><g transform="translate(30 72)"><path d="M12 5.393c-.414 0-.75.36-.75.803 0 .444.336.804.75.804h3.211c.842 0 1.195-.426 1.727-1.497.267-.536.358-.646.404-.646.046 0 .137.11.404.646C18.278 6.574 18.63 7 19.473 7c.842 0 1.194-.426 1.727-1.497.266-.536.358-.646.403-.646.046 0 .138.11.404.646C22.54 6.574 22.892 7 23.734 7c.842 0 1.195-.426 1.728-1.497.266-.536.357-.646.403-.646.048 0 .14.11.406.646C26.805 6.574 27.158 7 28 7c.414 0 .75-.36.75-.804 0-.443-.336-.803-.75-.803-.047 0-.138-.11-.405-.646-.534-1.071-.887-1.497-1.73-1.497-.841 0-1.194.426-1.727 1.497-.266.536-.358.646-.404.646-.046 0-.137-.11-.403-.646-.533-1.071-.886-1.497-1.728-1.497-.841 0-1.194.426-1.727 1.497-.266.536-.357.646-.403.646-.046 0-.137-.11-.403-.645-.533-1.072-.886-1.498-1.728-1.498s-1.195.426-1.728 1.497c-.266.536-.357.646-.403.646H12z" fill="#000" fill-rule="nonzero"/><path d="M3.927 1.088c-.095.058-.142.126-.142.204V2.78H.569a.54.54 0 0 0-.398.175A.584.584 0 0 0 0 3.38c0 .165.057.306.17.423a.54.54 0 0 0 .4.175h3.215v4.786H.569a.54.54 0 0 0-.398.175.584.584 0 0 0-.171.423c0 .166.057.307.17.424a.54.54 0 0 0 .4.175h3.215v1.488c0 .078.047.151.142.22.095.067.19.101.284.101h1.395c.36 0 .796-.155 1.309-.467.512-.311.996-.656 1.45-1.036A7.87 7.87 0 0 1 10.03 9.23c.655-.311 1.286-.467 1.893-.467h.91V7.567H14V5.173h-1.167V3.977h-.91c-.607 0-1.238-.156-1.893-.467a8.266 8.266 0 0 1-1.664-1.022c-.455-.37-.94-.71-1.451-1.021C6.402 1.156 5.966 1 5.605 1H4.212c-.095 0-.19.03-.284.088z" fill="#010002" fill-rule="nonzero"/><circle fill="#FFF" cx="7.5" cy="6.5" r="1.5"/></g></g></svg>