<svg width="100" height="86" xmlns="http://www.w3.org/2000/svg"><g transform="translate(10 3)" fill="none" fill-rule="evenodd"><rect fill="#FFF" fill-rule="nonzero" width="80" height="80" rx="6"/><rect stroke="#000" x=".5" y=".5" width="79" height="79" rx="6"/><path d="M5.803 3A2.797 2.797 0 0 0 3 5.803v68.394A2.797 2.797 0 0 0 5.803 77h44.663V26.92c0-5.78-4.687-10.465-10.466-10.465-5.78 0-10.466 4.686-10.466 10.465v26.16h6.542L25.61 71.394 15.148 53.08h6.538V26.92c0-10.114 8.2-18.314 18.314-18.314s18.314 8.2 18.314 18.314V77h15.883A2.797 2.797 0 0 0 77 74.197V5.803A2.797 2.797 0 0 0 74.197 3H5.803z" fill="#0D69E1" fill-rule="nonzero"/></g></svg>