<svg width="143" height="86" xmlns="http://www.w3.org/2000/svg"><g fill="none" fill-rule="evenodd"><path fill="#FFF" fill-rule="nonzero" d="M2 27h140v31.111H2z"/><path fill="red" fill-rule="nonzero" d="M15.353 30.004L4.019 42.529l11.334 12.525H4.019v-25.05zM49.355 30.004L38.021 42.529l11.334 12.525H26.687L15.353 42.529l11.334-12.525zM94.691 30.004l11.334 12.525-11.334 12.525h22.668l11.334-12.525-11.334-12.525zM128.693 30.004l11.334 12.525-11.334 12.525h11.334v-25.05z"/><path fill="red" fill-rule="nonzero" d="M60.689 30.004L49.355 42.529l11.334 12.525h22.668l11.334-12.525-11.334-12.525z"/><path stroke="#000" d="M1.5 27.562h141v29.99H1.5z"/></g></svg>