<svg width="95" height="136" xmlns="http://www.w3.org/2000/svg"><g fill="none" fill-rule="evenodd"><rect x=".5" y=".5" width="85" height="127" rx="6" transform="translate(5 4)" fill="#FFF" stroke="#000"/><g fill-rule="nonzero"><path d="M11.03 7A3.018 3.018 0 0 0 8 10.02v115.96a3.018 3.018 0 0 0 3.03 3.02h73.94a3.018 3.018 0 0 0 3.03-3.02V10.02A3.018 3.018 0 0 0 84.97 7H11.03zm7.508 19h58.924C80.53 26 83 28.435 83 31.46v58.08c0 3.025-2.47 5.46-5.538 5.46H18.538C15.47 95 13 92.565 13 89.54V31.46c0-3.025 2.47-5.46 5.538-5.46z" fill="#0D69E1"/><path d="M36.158 41.737a1.316 1.316 0 1 1-2.632 0V31.21h-2.631V47a6.576 6.576 0 0 0 3.947 6.028v33.446a2.632 2.632 0 0 0 5.263 0V53.028A6.576 6.576 0 0 0 44.053 47V31.21H41.42v10.527a1.316 1.316 0 1 1-2.632 0V31.21h-2.631v10.526zM58.526 65.421a5.263 5.263 0 0 1-5.263-5.263V36.474a5.263 5.263 0 0 1 10.526 0v50a2.632 2.632 0 0 1-5.263 0V65.42z" fill="#000"/></g></g></svg>