<svg width="95" height="136" xmlns="http://www.w3.org/2000/svg"><g fill="none" fill-rule="evenodd"><rect x=".5" y=".5" width="85" height="127" rx="6" transform="translate(5 4)" fill="#FFF" stroke="#000"/><g fill-rule="nonzero"><path d="M11.03 7A3.018 3.018 0 0 0 8 10.02v115.96a3.018 3.018 0 0 0 3.03 3.02h73.94a3.018 3.018 0 0 0 3.03-3.02V10.02A3.018 3.018 0 0 0 84.97 7H11.03zm7.508 18h58.924A5.526 5.526 0 0 1 83 30.538v58.924A5.526 5.526 0 0 1 77.462 95H18.538A5.526 5.526 0 0 1 13 89.462V30.538A5.526 5.526 0 0 1 18.538 25z" fill="#0D69E1"/><path d="M62.098 87.512a2.363 2.363 0 0 1-2.565-2.153l-.734-8.389a2.363 2.363 0 0 1 2.153-2.565l2.883-.253 1.147 13.108-2.884.252zM26.297 45.006a2.363 2.363 0 0 0 1.674 2.901l8.135 2.18a2.363 2.363 0 0 0 2.9-1.675l.75-2.796-12.71-3.406-.75 2.796z" fill="#000"/><path d="M37.69 32.589C48.987 31.6 74.5 49.592 76.666 74.35c.57 6.515-4.25 12.259-10.765 12.829l-1.147-13.108.72-.063a2.368 2.368 0 0 0 1.608-3.882L44.283 43.118a2.368 2.368 0 0 0-4.102.91l-.187.698-12.71-3.405a11.842 11.842 0 0 1 10.407-8.733" fill="#000"/><g fill="#000"><path d="M19.517 86.342c.008.029.21.228.606.597.396.37.939.74 1.627 1.109.689.37 1.475.568 2.36.597 1.468-.069 2.588-.549 3.362-1.44.773-.89 1.163-1.781 1.169-2.672-.012-.99-.317-1.806-.914-2.447-.596-.64-1.412-1.086-2.448-1.336-.83-.168-1.543-.372-2.137-.614-.594-.241-.904-.64-.932-1.195-.018-.37.128-.781.439-1.234.31-.452.895-.699 1.754-.74.876.055 1.534.274 1.973.658.438.384.657.603.657.658l1.316-1.645c-.037-.075-.439-.377-1.206-.904-.767-.528-1.68-.83-2.74-.905-1.264.027-2.281.425-3.051 1.192-.77.768-1.166 1.741-1.188 2.92-.058.613.131 1.278.567 1.994.435.716 1.464 1.258 3.087 1.624.96.195 1.623.427 1.99.696.368.268.572.533.613.794.04.261.05.477.028.648.021.292-.131.655-.457 1.09-.326.435-.953.675-1.882.72-1.026-.063-1.807-.314-2.343-.752-.536-.439-.806-.69-.81-.752l-1.44 1.34zM31.228 87c-.01-.406-.134-.744-.374-1.013-.24-.27-.54-.41-.9-.42-.36.01-.66.15-.9.42s-.364.607-.374 1.013c.01.406.134.744.374 1.013.24.27.54.41.9.42.36-.01.66-.15.9-.42s.365-.607.374-1.013zM36.105 74.829c-1.605.05-2.8.725-3.586 2.027-.785 1.3-1.177 2.928-1.174 4.88-.003 1.954.389 3.581 1.174 4.882.786 1.301 1.981 1.977 3.586 2.027 1.605-.05 2.8-.726 3.586-2.027.785-1.3 1.177-2.928 1.174-4.881.003-1.953-.389-3.58-1.174-4.881-.786-1.302-1.98-1.977-3.586-2.027zm0 2.138c.82.014 1.483.439 1.991 1.275.509.836.77 2 .786 3.495-.015 1.494-.277 2.659-.786 3.495-.508.836-1.172 1.26-1.99 1.275-.82-.014-1.484-.439-1.992-1.275-.509-.836-.77-2.001-.786-3.495.015-1.494.277-2.66.786-3.495.508-.836 1.172-1.261 1.991-1.275zM43.515 87c-.01-.406-.134-.744-.373-1.013-.24-.27-.54-.41-.9-.42-.361.01-.662.15-.901.42-.24.27-.364.607-.373 1.013.009.406.133.744.373 1.013.24.27.54.41.9.42.36-.01.661-.15.9-.42.24-.27.365-.607.374-1.013zM44.091 86.342c.008.029.21.228.607.597.396.37.938.74 1.626 1.109.689.37 1.476.568 2.36.597 1.468-.069 2.589-.549 3.362-1.44.773-.89 1.163-1.781 1.17-2.672-.013-.99-.318-1.806-.914-2.447-.597-.64-1.413-1.086-2.448-1.336-.832-.168-1.544-.372-2.138-.614-.593-.241-.904-.64-.931-1.195-.019-.37.127-.781.438-1.234.31-.452.895-.699 1.754-.74.877.055 1.534.274 1.973.658.438.384.657.603.657.658l1.316-1.645c-.037-.075-.439-.377-1.206-.904-.767-.528-1.68-.83-2.74-.905-1.264.027-2.28.425-3.051 1.192-.77.768-1.166 1.741-1.188 2.92-.057.613.131 1.278.567 1.994.435.716 1.464 1.258 3.087 1.624.96.195 1.623.427 1.99.696.368.268.572.533.613.794.04.261.05.477.028.648.021.292-.131.655-.457 1.09-.326.435-.953.675-1.882.72-1.026-.063-1.807-.314-2.343-.752-.536-.439-.806-.69-.81-.752l-1.44 1.34zM55.802 87c-.01-.406-.134-.744-.373-1.013-.24-.27-.54-.41-.9-.42-.361.01-.661.15-.901.42s-.364.607-.373 1.013c.009.406.133.744.373 1.013.24.27.54.41.9.42.36-.01.661-.15.9-.42.24-.27.365-.607.374-1.013z"/></g></g></g></svg>