<svg width="64" height="93" xmlns="http://www.w3.org/2000/svg"><g transform="translate(3 5)" fill="none" fill-rule="evenodd"><rect fill="#FFF" fill-rule="nonzero" width="53.333" height="80" rx="4"/><path d="M5.143 3C3.956 3 3 3.96 3 5.151V74.85C3 76.04 3.956 77 5.143 77h43.714C50.044 77 51 76.04 51 74.849V5.15A2.142 2.142 0 0 0 48.857 3H5.143zm4.38 11.452h34.065c2.136 0 3.856 1.741 3.856 3.904v34.479c0 2.162-1.72 3.903-3.856 3.903H9.523c-2.136 0-3.856-1.74-3.856-3.903v-34.48c0-2.162 1.72-3.903 3.856-3.903z" fill="#0D69E1" fill-rule="nonzero"/><rect stroke="#000" x=".5" y=".5" width="53" height="79" rx="6"/><path d="M13.38 26.463c-.568 0-1.095.31-1.38.812l-2.788 4.922c-.14.247-.212.527-.212.812V38.965c0 .899.71 1.623 1.593 1.623h.797c0-2.242 1.783-4.059 3.982-4.059 2.2 0 3.983 1.817 3.983 4.06h12.744c0-2.243 1.783-4.06 3.983-4.06s3.982 1.817 3.982 4.06h2.39c.882 0 1.593-.725 1.593-1.624V33.009c0-.175-.028-.349-.082-.514l-1.61-4.922a1.595 1.595 0 0 0-1.51-1.11H13.38zm.184 1.137h1.808c.441 0 .797.362.797.812v3.247c0 .45-.356.811-.797.811H11.724a.804.804 0 0 1-.796-.811c0-.143.039-.283.108-.406l1.838-3.247a.795.795 0 0 1 .69-.406zm4.994 0h4.78c.44 0 .796.362.796.812v3.247c0 .45-.355.811-.797.811h-4.779a.802.802 0 0 1-.796-.811v-3.247c0-.45.355-.812.796-.812zm7.965 0h4.78c.44 0 .796.362.796.812v3.247c0 .45-.355.811-.796.811h-4.78a.802.802 0 0 1-.796-.811v-3.247c0-.45.355-.812.796-.812zm7.966 0h4.54c.353 0 .665.236.765.582l.937 3.247a.816.816 0 0 1-.54 1.009.788.788 0 0 1-.225.032h-5.478a.802.802 0 0 1-.796-.811v-3.247c0-.45.355-.812.797-.812z" fill="#000" fill-rule="nonzero"/><path d="M15.2 37c-1.767 0-3.2 1.454-3.2 3.247s1.433 3.247 3.2 3.247c1.768 0 3.201-1.454 3.201-3.247S16.968 37 15.201 37zm0 1.624c.884 0 1.601.726 1.601 1.623s-.717 1.624-1.6 1.624c-.884 0-1.6-.727-1.6-1.624 0-.897.716-1.623 1.6-1.623zM36.09 37.333c-1.768 0-3.201 1.454-3.201 3.247 0 1.794 1.433 3.247 3.2 3.247 1.768 0 3.201-1.453 3.201-3.247 0-1.793-1.433-3.247-3.2-3.247zm0 1.624c.883 0 1.6.727 1.6 1.623 0 .897-.717 1.624-1.6 1.624-.884 0-1.6-.727-1.6-1.624 0-.896.716-1.623 1.6-1.623z" fill="#000" fill-rule="nonzero"/></g></svg>