<svg width="95" height="136" xmlns="http://www.w3.org/2000/svg"><g fill="none" fill-rule="evenodd"><rect x=".5" y=".5" width="85" height="127" rx="6" transform="translate(5 4)" fill="#FFF" stroke="#000"/><g fill-rule="nonzero"><path d="M11.03 7A3.018 3.018 0 0 0 8 10.02v115.96a3.018 3.018 0 0 0 3.03 3.02h73.94a3.018 3.018 0 0 0 3.03-3.02V10.02A3.018 3.018 0 0 0 84.97 7H11.03zm7.508 19h58.924C80.53 26 83 28.435 83 31.46v58.08c0 3.025-2.47 5.46-5.538 5.46H18.538C15.47 95 13 92.565 13 89.54V31.46c0-3.025 2.47-5.46 5.538-5.46z" fill="#0D69E1"/><path d="M61.158 57.526c-.927 0-1.654.658-2.472 1.476a3.947 3.947 0 0 1-5.582 0v-.01A7.186 7.186 0 0 0 48 56.868c-2.936 0-5.752 1.207-7.829 3.356a9.21 9.21 0 0 0-2.697 6.513v3.947h-7.895v-3.947c0-9.447 7.658-17.105 17.105-17.105h.263a2.368 2.368 0 0 0 2.369-2.369v-1.579c0-.726.589-1.316 1.316-1.316h2.631v-5.263H48a2.632 2.632 0 0 1 0-5.263h15.79a2.632 2.632 0 1 1 0 5.263h-5.264v5.263h2.632c.727 0 1.316.59 1.316 1.316v1.58a2.368 2.368 0 0 0 2.368 2.368h9.474V47a2.632 2.632 0 0 1 2.631-2.632V62.79a2.632 2.632 0 0 1-2.631-2.631v-2.632H61.158zM33 72.263h1.053v16.842H33zM31.684 72.263h-1.052l-2.106 16.842h1.053zM35.364 72.263h1.057l2.105 16.842H37.47z" fill="#000"/></g></g></svg>