<svg width="100" height="86" xmlns="http://www.w3.org/2000/svg"><g fill="none" fill-rule="evenodd"><path d="M55.464 6.502c3.267 5.663 6.466 11.286 11.217 19.692l4.76 8.425c10.212 18.068 16.33 28.664 23.07 39.766 2.228 3.668-.924 8.996-5.175 8.996H10.534c-4.251 0-7.403-5.328-5.176-8.996 6.738-11.099 12.84-21.67 23.068-39.763l4.632-8.2c4.828-8.54 8.048-14.2 11.348-19.92 2.852-4.943 8.207-4.943 11.058 0z" stroke="#0C0E0F"/><path d="M11.61 73.352l-.003.006-.556.967-.016.028a108.335 108.335 0 0 1-1.5 2.568c-.22.362.5 1.574 1 1.574h78.8c.5 0 1.22-1.212 1-1.575-.436-.718-.772-1.295-1.502-2.57l-.02-.036c-.266-.463-.396-.69-.554-.962L51.232 8.943c-.918-1.591-1.675-1.591-2.591-.003L11.61 73.352z" stroke="red" stroke-width="6" fill="#FFF"/><path d="M59.418 54.617c-.338-.12-.683 0-1.025.192-1.894 1.063-3.65 2.337-5.634 3.304-5.248 2.559-11.179.369-12.52-5.679-.204-.913-.239-1.608-.239-2.526V36h7.481v14.421c0 .572.247 1.149.922 1.232.34.042.735-.141 1.171-.4l4.442-2.64c1.375-.816 2.78-1.48 4.393-1.617.85-.072 1.751-.003 2.767.226 2.308.52 4.38 1.988 5.602 4.526 1.14 2.369 1.003 3.93 1.003 6.406v13.93h-7.664v-16.27c0-.536-.103-.985-.7-1.197" fill="#000"/></g></svg>