<?xml version="1.0" encoding="UTF-8"?>
<svg id="_Слой_1" data-name=" Слой 1" xmlns="http://www.w3.org/2000/svg" width="117" height="159" viewBox="0 0 117 159">
  <defs>
    <style>
      .cls-1, .cls-2, .cls-3 {
        fill: none;
      }

      .cls-4, .cls-5 {
        fill: #fff;
      }

      .cls-6 {
        fill: #8b8b8b;
      }

      .cls-7 {
        fill: #0d69e1;
      }

      .cls-2 {
        stroke: #fff;
        stroke-miterlimit: 10;
      }

      .cls-5 {
        fill-rule: evenodd;
      }

      .cls-3 {
        stroke: #000;
      }
    </style>
  </defs>
  <path class="cls-1" d="m0,.42h117v159H0V.42Z"/>
  <path class="cls-4" d="m13.62,4.14h89.96c3.48,0,6.3,2.82,6.3,6.3h0v123.95c0,3.48-2.82,6.3-6.3,6.3H13.62c-3.48,0-6.3-2.82-6.3-6.3h0V10.44c0-3.48,2.82-6.3,6.3-6.3Z"/>
  <path class="cls-7" d="m11.81,5.62h93.67c1.66,0,3,1.34,3,3v127.67c0,1.66-1.34,3-3,3H11.81c-1.66,0-3-1.34-3-3V8.62c0-1.66,1.34-3,3-3Z"/>
  <path class="cls-3" d="m11.1,3.92h95c2.21,0,4,1.79,4,4v129c0,2.21-1.79,4-4,4H11.1c-2.21,0-4-1.79-4-4V7.92c0-2.21,1.79-4,4-4Z"/>
  <path class="cls-4" d="m61.9,68.65l-2.35-5.99c-.44-1.14-1.4-2.12-3.2-2.12h-12.31c-1.8,0-2.76.98-3.2,2.12l-2.34,5.99c-.93.12-2.58,1.2-2.58,3.25v7.62h2.28v2.43c0,3,4.29,2.96,4.29,0v-2.43h15.43v2.43c0,2.96,4.28,3,4.28,0v-2.43h2.28v-7.62c0-2.05-1.65-3.13-2.58-3.25Zm-21.5,6.21c-1.09,0-1.98-.91-1.98-2.02s.88-2.02,1.98-2.02,1.98.9,1.98,2.02-.88,2.02-1.98,2.02Zm9.79-6.35h-9.28l1.77-4.64c.22-.66.55-1.14,1.33-1.15h12.37c.78,0,1.1.49,1.33,1.15l1.77,4.64h-9.29Zm9.78,6.35c-1.09,0-1.98-.91-1.98-2.02s.88-2.02,1.98-2.02,1.98.9,1.98,2.02-.89,2.02-1.98,2.02Z"/>
  <path class="cls-5" d="m86.65,114.83c-1.99-6.05-8.52-9.38-14.63-7.41l-3.35-7.52.85-2.32h2.62v-2.32h-9.86c-.61,0-.85.96-.13,1.15l4.9,1.16-.88,2.32h-20.66l.92-2.99c.72-2.27,4.22-1.64,6.03-1.64v-2.32c-3.06,0-7.08-.57-8.24,3.28l-3.36,10.87c-5.4-1.09-10.82,1.77-12.97,6.82-2.49,5.88.26,12.68,6.14,15.17,5.91,2.49,12.7-.26,15.2-6.15,2.49-5.9-.26-12.68-6.17-15.17l.92-2.98,10.66,11.82c0,.14-.02.28-.02.42,0,1.98,1.6,3.58,3.58,3.58h.18l1.08,2.08-1.13.65.74,1.44,3.85-2.05-.75-1.43-1.31.76-.69-1.31h4.08c1.33,6.69,8.37,10.84,14.96,8.7,6.08-1.99,9.4-8.53,7.43-14.6h.01Zm-39.64,7.4c-2.12,4.68-7.61,6.73-12.27,4.61-4.68-2.1-6.73-7.59-4.62-12.27,1.73-3.83,5.89-6.01,10.04-5.27l-2.71,8.77c-.46,1.44,1.82,2.1,2.21.68l2.73-8.77c4.66,2.1,6.73,7.59,4.61,12.24h0Zm7.34-9.42l.23-.13.5.95-.73-.82Zm3.86.63c-.49,0-.94.09-1.36.27l-.87-1.67,1.13-.66-.74-1.44-3.11,1.66-8.46-9.39h20.53l-4.6,12.27c-.65-.64-1.53-1.04-2.52-1.04Zm5.83,4.97h-2.32l5.79-15.41,2.39,5.36c-3.63,2.05-5.86,5.88-5.86,10.06h0Zm6.82-7.92l3.54,7.91h-8.04c0-3.26,1.7-6.27,4.5-7.91Zm7.39,16.82c-4.74,1.39-10.61-1.53-11.61-6.58h9.55c.77,0,1.4-.94,1.07-1.62l-4.29-9.55c4.9-1.47,10.06,1.34,11.52,6.23,1.46,4.9-1.34,10.06-6.25,11.53h.01Z"/>
  <polyline class="cls-2" points="79.14 5.5 79.14 54.92 108.57 54.92"/>
  <g>
    <path class="cls-4" d="m52.69,46.26c-.19.74-.95,1.19-1.7,1-.73-.19-1.18-.93-1-1.67l2.04-8.18c.03-.1.08-.2.15-.27l3.69-3.69v-7.79c0-.26.14-.5.37-.63l1.89-1.09c.45-.26,1.01-.26,1.47,0l4.67,2.7c.45.26.73.75.73,1.27v5.13c0,.61-.49,1.1-1.1,1.1s-1.1-.49-1.1-1.1v-4.37c0-.21-.11-.4-.29-.51l-1.98-1.14v6.15c0,.19-.08.38-.21.52l-5.85,5.85c-.08.08-.13.17-.15.27l-1.61,6.46h-.02Z"/>
    <path class="cls-4" d="m60.12,34.9l-2.04,2.04,5.59,9.68c.39.66,1.25.88,1.91.48.65-.39.87-1.22.5-1.87l-5.96-10.32h0Zm-4.98-3.05v-3.11l-4.19,4.19c-.43.43-.43,1.12,0,1.55s1.12.43,1.55,0h0l2.63-2.63h0Zm-.83-10.06c0,1.16.82,2.18,1.86,2.18,1.14,0,3.11-1.16,3.11-2.8,0-1.18-.98-2.04-2.07-2.04-1.74,0-2.89,1.33-2.89,2.66h-.01Z"/>
  </g>
  <g>
    <g>
      <path class="cls-4" d="m37.74,31.98h0c-.2-.17-.27-.46-.19-.68-.09-.04-.17-.08-.26-.11-.29-.09,0-.45.1-.7,0-.01-.38-.04-.37-.05-.29-.12-.63-.11-.91.06l-1.34.77c-.16.09-.26.26-.26.45v5.52l-2.44,2.44c.11,0,.22.04.31.1.56.38,1.07.87,1.46,1.44l3.82-3.82c.1-.1.15-.23.15-.37v-3.89q0-.3.08-.66c-.12-.14-.17-.33-.15-.5Z"/>
      <path class="cls-4" d="m35.45,27.09c-1.23,0-2.05.94-2.05,1.89,0,.82.58,1.55,1.32,1.55.81,0,2.2-.82,2.2-1.99,0-.84-.69-1.45-1.47-1.45Z"/>
    </g>
    <rect class="cls-4" x="27.13" y="42.57" width="8.04" height="2.34" rx="1.06" ry="1.06" transform="translate(-21.51 54.22) rotate(-65.8)"/>
    <path class="cls-4" d="m38.36,38.07l3.05,2.85c.45.47.43,1.21-.04,1.66h0c-.47.45-1.21.43-1.66-.04l-3.05-2.85"/>
    <path class="cls-4" d="m44.57,41.95h0c-.02.65-.6,1.16-1.29,1.14l-2.6-.15c-.7-.02-1.25-.56-1.24-1.2h0c.02-.65.6-1.16,1.29-1.14l2.6.15c.7.02,1.25.56,1.24,1.2Z"/>
    <rect class="cls-4" x="30.86" y="39.07" width="4.55" height="2.34" rx="1.06" ry="1.06" transform="translate(-18.75 35.21) rotate(-45)"/>
    <path class="cls-4" d="m36.74,32.53h0c-.44-.34-.49-1-.12-1.49l3.47-4.54c.37-.49,1.03-.61,1.47-.27h0c.44.34.49,1,.12,1.49l-4.56,5.94c-.37.49.06-.79-.38-1.13Z"/>
    <rect class="cls-4" x="30.89" y="31.87" width="1.49" height="4.26" rx=".67" ry=".67" transform="translate(-14.41 27.96) rotate(-39.59)"/>
    <rect class="cls-4" x="31.45" y="33.3" width="5.26" height="1.49" rx=".67" ry=".67" transform="translate(-13.16 24.63) rotate(-33.7)"/>
  </g>
  <path class="cls-4" d="m88.02,17.34s1.27,3.81-.73,7.27l2.18-.73s1.63,7.27-2.91,10.17c0,0,2,.36,4.18-1.09,0,0-1.09,7.63-5.81,9.99,0,0,4.36.73,7.27-1.27v3.81h3.27v-4s4.18.91,8.9-2.18c0,0-6.9-2.91-9.63-6.18,0,0,3.63.73,5.81-1.63,0,0-6.9-4-7.81-7.45,0,0,2,.36,2.72-1.09,0,0-6.36-4-7.45-5.63h.01Z"/>
  <g>
    <path class="cls-6" d="m53.42,153.6c0,.42-.07.81-.2,1.17s-.32.67-.57.93c-.25.27-.55.47-.92.63s-.77.23-1.23.23c-.42,0-.83-.05-1.23-.14s-.75-.21-1.05-.36v-1.24h.08c.09.07.22.14.39.23s.35.16.56.24c.23.08.44.15.63.19s.41.07.64.07.46-.04.69-.13.41-.22.57-.41c.14-.17.25-.37.33-.6s.11-.5.11-.81-.04-.56-.13-.76-.21-.36-.37-.49c-.17-.15-.37-.25-.62-.31s-.52-.09-.82-.09c-.32,0-.63.02-.96.07s-.58.09-.77.14v-4.49h4.79v1.03h-3.66v2.32c.14-.02.28-.03.42-.04s.26,0,.38,0c.45,0,.82.04,1.13.11s.61.22.89.43c.29.22.51.49.67.82s.23.76.23,1.28h.02Z"/>
    <path class="cls-6" d="m56.56,156.38h-1.4v-1.67h1.4v1.67Z"/>
    <path class="cls-6" d="m60.67,148.49c-.21,0-.42.03-.63.08s-.42.12-.62.2c-.19.08-.35.16-.49.25s-.26.17-.37.24h-.07v-1.24c.25-.14.6-.26,1.03-.37s.85-.17,1.25-.17.74.04,1.03.12.56.2.8.37c.26.19.45.41.58.68s.2.58.2.93c0,.48-.16.9-.47,1.27s-.7.59-1.14.69v.08c.18.04.38.1.59.18s.4.21.58.38.33.38.44.65.17.58.17.96-.07.76-.2,1.09-.33.62-.57.88c-.25.27-.56.47-.92.6s-.77.21-1.22.21-.87-.05-1.3-.16-.79-.23-1.08-.38v-1.24h.08c.25.18.58.35.99.52s.83.25,1.24.25c.24,0,.48-.04.72-.11s.44-.2.6-.37.28-.36.36-.57.12-.47.12-.79-.05-.58-.14-.78-.22-.36-.38-.48-.36-.2-.58-.24-.47-.07-.73-.07h-.5v-.97h.39c.53,0,.96-.12,1.29-.38s.5-.61.5-1.09c0-.22-.04-.41-.13-.57s-.2-.28-.33-.38c-.15-.1-.31-.17-.49-.21s-.37-.06-.57-.06h-.03Z"/>
    <path class="cls-6" d="m64.62,150.49c0-.45.07-.86.22-1.23s.35-.69.6-.96c.24-.26.54-.46.89-.6s.7-.22,1.06-.22c.4,0,.77.07,1.09.2.32.13.61.33.85.58.3.32.53.74.7,1.26s.25,1.18.25,1.97c0,.72-.08,1.41-.24,2.05s-.4,1.18-.72,1.61c-.34.45-.74.8-1.21,1.04s-1.05.36-1.74.36c-.16,0-.32,0-.5-.03s-.34-.05-.49-.1v-1.12h.06c.1.05.25.11.46.16s.42.08.63.08c.77,0,1.37-.25,1.8-.76.43-.51.69-1.22.74-2.16-.31.21-.61.37-.89.46s-.59.15-.92.15-.62-.04-.88-.11-.53-.21-.8-.41c-.31-.24-.55-.54-.71-.91s-.24-.81-.24-1.32h-.01Zm4.48.76c0-.59-.05-1.08-.16-1.45s-.26-.66-.45-.86c-.17-.19-.35-.32-.52-.39s-.37-.11-.58-.11c-.48,0-.86.17-1.15.52s-.43.84-.43,1.49c0,.37.05.67.14.91s.25.44.46.62c.15.12.32.2.5.24s.39.06.6.06c.25,0,.52-.04.81-.13.29-.09.54-.2.76-.35,0-.06,0-.14.01-.23s0-.2,0-.32h.01Z"/>
  </g>
</svg>