<svg width="100" height="151" xmlns="http://www.w3.org/2000/svg"><g transform="translate(5 5)" fill="none" fill-rule="evenodd"><rect fill="#FFF" fill-rule="nonzero" x=".373" y=".376" width="87.843" height="135.248" rx="2"/><path d="M4.39 1.126a3.256 3.256 0 0 0-3.267 3.262v129.976a3.256 3.256 0 0 0 3.267 3.262h81.965a3.256 3.256 0 0 0 3.268-3.262V4.388a3.256 3.256 0 0 0-3.268-3.262H4.39z" stroke="#000" stroke-width="1.5"/><g fill="#000" fill-rule="nonzero"><path d="M23.853 15.896h1.522c.61.007 1.124.205 1.544.594.419.388.637.925.655 1.61a1.84 1.84 0 0 1-.761 1.463c-.486.37-1.078.561-1.776.572-1.265-.064-2.202-.318-2.811-.763-.61-.445-.913-.7-.91-.763l-1.521 1.865c.031.078.517.389 1.458.933.94.544 2.146.854 3.615.932 1.617-.063 2.864-.53 3.742-1.399.877-.869 1.321-1.759 1.332-2.67-.036-.896-.284-1.591-.746-2.085-.461-.494-.923-.837-1.384-1.03-.461-.192-.71-.285-.745-.276.029.01.233-.066.613-.226s.76-.462 1.14-.904c.38-.443.585-1.084.614-1.922-.014-1.046-.408-1.922-1.184-2.628-.775-.707-1.846-1.074-3.213-1.102-1.378.063-2.493.318-3.346.763-.853.445-1.291.7-1.317.763l1.28 1.986c-.006-.055.262-.273.804-.654.543-.382 1.402-.6 2.58-.654.905.046 1.504.293 1.796.742.292.448.426.823.402 1.123.007.293-.134.64-.423 1.039-.289.399-.768.618-1.438.657h-1.522v2.034zM37.857 8.097c-1.857.051-3.24.748-4.149 2.089-.909 1.341-1.362 3.019-1.359 5.032-.003 2.013.45 3.69 1.359 5.032.909 1.341 2.292 2.038 4.15 2.09 1.857-.052 3.24-.749 4.149-2.09.909-1.341 1.362-3.019 1.359-5.032.003-2.013-.45-3.69-1.36-5.032-.908-1.341-2.291-2.038-4.149-2.09zm0 2.204c.948.014 1.716.452 2.305 1.314.588.862.891 2.063.909 3.603-.018 1.54-.321 2.741-.91 3.603-.588.862-1.356 1.3-2.304 1.314-.947-.014-1.715-.452-2.304-1.314-.588-.862-.891-2.063-.909-3.603.018-1.54.32-2.741.91-3.603.588-.862 1.356-1.3 2.303-1.314zM46.466 22h2.367v-6.104h5.074V22h2.367V8.436h-2.367v5.425h-5.074V8.436h-2.367zM63.529 17.253l1.691-5.765 1.691 5.765H63.53zm.338-8.817L59.47 22h2.537l.845-2.713h4.736L68.433 22h2.537L66.573 8.436h-2.706z"/></g><path d="M44.294 38.698c-17.766 0-32.168 14.44-32.168 32.25 0 17.812 14.402 32.251 32.168 32.251S76.462 88.76 76.462 70.95c0-17.812-14.402-32.25-32.168-32.25zm-1.1 9.465c1.024 0 5.03.925 5.03 4.193 0 1.328-.857 3.475-2.72 3.475-1.324 0-5.536-2.079-5.536-4.688 0-2.27 2.017-2.98 3.226-2.98zm-.8 8.245c.38 0 .758.097 1.099.294l2.836 1.64c.34.197.551.564.551.959v11.733l5.697 5.714 3.131 12.558a2.098 2.098 0 0 1-1.52 2.544 2.094 2.094 0 0 1-2.537-1.527l-2.486-9.974-8.95-8.976a1.102 1.102 0 0 1-.323-.779v-9.26l-3.411 1.977v7.085c0 .914-.74 1.655-1.651 1.655a1.653 1.653 0 0 1-1.652-1.655v-7.724c0-.788.42-1.514 1.1-1.908l7.013-4.062a2.2 2.2 0 0 1 1.102-.294zm5.687 7.666l6.183 6.203a1.653 1.653 0 0 1-1.167 2.825c-.455 0-.864-.19-1.163-.489l-3.853-3.857v-4.682zm-7.552 9.174l3.061 3.07-8.383 14.546-.024-.012a2.09 2.09 0 0 1-3.911-1.036c0-.511.186-.98.49-1.343l8.767-15.225z" fill="#0D69E1" fill-rule="nonzero"/><path d="M44.294 104.997c-18.756 0-33.96-15.244-33.96-34.048 0-18.804 15.204-34.048 33.96-34.048s33.96 15.244 33.96 34.048c0 18.804-15.204 34.048-33.96 34.048z" stroke="#000" stroke-width="1.5"/><path d="M44.294 108.103c-1.054 0-2.076.141-3.048.402l1.332 8.413-6.599-5.363a11.791 11.791 0 0 0-3.051 5.292l7.935 3.05-7.935 3.05a11.789 11.789 0 0 0 3.051 5.293l6.6-5.363-1.333 8.416a11.756 11.756 0 0 0 6.097-.003l-1.333-8.413 6.6 5.363a11.79 11.79 0 0 0 3.05-5.292l-7.935-3.05 7.936-3.05a11.791 11.791 0 0 0-3.052-5.293l-6.6 5.363 1.334-8.413a11.751 11.751 0 0 0-3.049-.402z" fill="red" fill-rule="nonzero"/></g></svg>