<svg width="291" height="65" xmlns="http://www.w3.org/2000/svg"><g fill="none" fill-rule="evenodd"><path d="M0 0h291v65H0z"/><g fill-rule="nonzero"><g transform="translate(2 1)"><rect fill="#FFF" x="1" y=".333" width="136" height="44" rx="6"/><path d="M5.023.333A4.668 4.668 0 0 0 .333 5v34.667a4.666 4.666 0 0 0 4.69 4.666h128.621a4.668 4.668 0 0 0 4.69-4.666V5a4.667 4.667 0 0 0-4.69-4.667H5.023zm0 1.334h128.621A3.334 3.334 0 0 1 136.994 5v34.667a3.333 3.333 0 0 1-3.35 3.333H5.023a3.334 3.334 0 0 1-3.35-3.333V5a3.333 3.333 0 0 1 3.35-3.333z" fill="#1A1A1A"/><path d="M12.283 12.333c.002 1.556-.001 3.278-.009 5.167a277.95 277.95 0 0 1-.065 5.167c-.035 1.555-.094 2.61-.176 3.166-.193.911-.592 1.633-1.197 2.167-.604.534-1.183.915-1.737 1.143-.553.228-.849.34-.887.333l.571 3.357c.07.037.6-.092 1.592-.389.99-.296 2.02-.981 3.09-2.055 1.07-1.074 1.76-2.76 2.068-5.056.082-.91.14-2.145.176-3.703.047-2.098.072-4.197.074-6.296h5.5v17h3.5v-20h-12.5v-.001zm33.514 20.001v-20h-3.75l-7.25 13.75v-13.75h-3.5v20h3.75l7.25-13.75v13.75h3.5zm6.496-20v20h3.5v-17h7.5v17h3.5v-20h-14.5zm20.996 20h12.75v-3h-9.25v-6h7.25v-3h-7.25v-4.75h9v-3.25h-12.5v20zm18.253 0h13.75v4h3v-7h-2.25v-17h-3.5v17h-7.5v-17h-3.5v20zm21.746-20.001v20h3.5v-9.142c.031-.005.219-.023.562-.054.344-.031.656-.05.938-.054.737.006 1.357.226 1.86.66.502.433.965 1.047 1.39 1.84.71 1.258 1.435 2.509 2.174 3.75a78.35 78.35 0 0 1 1.719 3h4.357c-.867-.715-1.655-1.692-2.363-2.93a236.412 236.412 0 0 1-2.137-3.82c-.57-1.1-1.162-2.045-1.775-2.835-.612-.79-1.52-1.262-2.725-1.415.51-.067 1.096-.493 1.757-1.279a38.142 38.142 0 0 0 1.743-2.22c.501-.733.98-1.33 1.434-1.79.454-.46 1.143-.696 2.066-.71l-.75-3.5c-1.707.26-3.07 1.044-4.092 2.353a86.003 86.003 0 0 0-2.815 3.805c-.855 1.229-1.886 1.855-3.093 1.877a.679.679 0 0 1-.156-.021.306.306 0 0 1-.094-.05v-7.465h-3.5z" fill="#000"/></g><path d="M156.333 2H281a6 6 0 0 1 6 6v31.333a6 6 0 0 1-6 6H156.333a6 6 0 0 1-6-6V8a6 6 0 0 1 6-6z" fill="#FFF"/><path d="M155.023 1.333A4.668 4.668 0 0 0 150.333 6v34.667a4.666 4.666 0 0 0 4.69 4.666h128.621a4.668 4.668 0 0 0 4.69-4.666V6a4.667 4.667 0 0 0-4.69-4.667H155.023zm0 1.334h128.621A3.334 3.334 0 0 1 286.994 6v34.667a3.333 3.333 0 0 1-3.35 3.333H155.023a3.334 3.334 0 0 1-3.35-3.333V6a3.333 3.333 0 0 1 3.35-3.333z" fill="#1A1A1A"/><path fill="#000" d="M158.333 25.667v14h121.334V14l-8.167-2.333L263.333 14v16.333H261v-4.666l-11.667-5.834-11.666 5.834v4.666h-2.334V28l-5.833-4.667h-7v-1.166h-7v1.166h-7L202.667 28v2.333h-2.334v-3.5L191 7l-9.333 19.833v3.5h-2.334v-4.666l-10.5-3.5z"/><path d="M58.78 60.229c0 .406-.075.794-.223 1.166-.136.351-.344.67-.61.937-.288.278-.63.492-1.005.63-.388.146-.838.22-1.35.22-.477 0-.936-.05-1.377-.15-.442-.1-.815-.22-1.12-.36v-1.236h.083c.32.203.695.376 1.125.518.43.143.851.214 1.265.214.278 0 .546-.04.806-.117.26-.078.491-.215.694-.41a1.64 1.64 0 0 0 .39-.604c.088-.234.132-.506.132-.814 0-.301-.052-.555-.155-.762a1.286 1.286 0 0 0-.431-.498 1.892 1.892 0 0 0-.741-.314 4.805 4.805 0 0 0-.976-.09c-.344 0-.675.023-.993.07-.318.047-.593.094-.823.14v-4.494h5.25v1.026H54.6v2.32c.323-.03.648-.046.973-.047.473 0 .887.04 1.242.12.356.08.682.222.979.425.312.215.555.492.726.832.172.34.258.766.258 1.278h.002zM62.511 63h-1.4v-1.67h1.4V63zm8.332 0h-5.906v-1.225c.41-.351.82-.703 1.233-1.054.395-.337.78-.687 1.151-1.05.75-.726 1.264-1.303 1.541-1.73a2.5 2.5 0 0 0 .416-1.386c0-.453-.15-.808-.448-1.064-.299-.256-.716-.384-1.25-.384-.356 0-.741.063-1.155.188-.43.132-.838.326-1.213.574h-.059v-1.23c.278-.137.648-.262 1.11-.375a5.65 5.65 0 0 1 1.345-.17c.895 0 1.596.216 2.104.647.508.432.762 1.017.762 1.755 0 .332-.042.642-.126.929-.084.287-.208.56-.372.817-.153.242-.331.48-.537.715-.205.234-.454.494-.747.78-.418.41-.85.807-1.295 1.192-.445.384-.86.74-1.248 1.069h4.694V63zm6.861-4.201c.188.168.342.379.463.633s.182.582.182.984c0 .398-.073.764-.217 1.096-.142.328-.35.623-.61.867-.296.275-.65.482-1.034.606-.396.131-.83.197-1.303.197a5.98 5.98 0 0 1-1.43-.173 6.72 6.72 0 0 1-1.154-.378v-1.225h.087c.332.219.723.4 1.172.545.45.145.883.217 1.301.217.246 0 .508-.041.785-.123a1.66 1.66 0 0 0 .674-.363 1.71 1.71 0 0 0 .401-.569c.088-.207.132-.468.132-.785 0-.312-.05-.571-.15-.776a1.193 1.193 0 0 0-.412-.484 1.615 1.615 0 0 0-.639-.249 4.575 4.575 0 0 0-.808-.067h-.528v-.973h.41c.594 0 1.068-.124 1.421-.372.354-.248.53-.61.53-1.087a1.1 1.1 0 0 0-.134-.553 1.1 1.1 0 0 0-.375-.39 1.686 1.686 0 0 0-.54-.211 3.27 3.27 0 0 0-.65-.059c-.37 0-.765.067-1.183.2-.418.132-.813.32-1.184.562h-.058v-1.224c.277-.137.647-.263 1.11-.378a5.56 5.56 0 0 1 1.345-.173c.425 0 .8.039 1.125.117.324.078.617.203.879.375.28.187.494.414.638.68.145.265.217.576.217.931 0 .485-.17.907-.513 1.269-.321.35-.745.588-1.21.682v.082c.188.032.403.097.645.197s.447.223.615.372zM82.135 63h-1.4v-1.67h1.4V63zm7.834 0h-4.723v-.89h1.817v-5.848h-1.817v-.797c.246 0 .51-.02.791-.062.281-.04.494-.1.639-.178.18-.098.321-.222.425-.372.103-.15.163-.353.178-.607h.909v7.863h1.78V63h.001zm116.811-2.771c0 .406-.075.794-.223 1.166-.136.351-.344.67-.61.937-.288.278-.63.492-1.005.63-.388.146-.838.22-1.35.22-.477 0-.936-.05-1.377-.15-.442-.1-.815-.22-1.12-.36v-1.236h.083c.32.203.695.376 1.125.518.43.143.851.214 1.265.214.278 0 .546-.04.806-.117.26-.078.491-.215.694-.41a1.64 1.64 0 0 0 .39-.604c.088-.234.132-.506.132-.814 0-.301-.052-.555-.155-.762a1.286 1.286 0 0 0-.431-.498 1.892 1.892 0 0 0-.741-.314 4.805 4.805 0 0 0-.976-.09c-.344 0-.675.023-.993.07-.318.047-.593.094-.823.14v-4.494h5.25v1.026h-4.12v2.32c.323-.03.648-.046.973-.047.473 0 .887.04 1.242.12.356.08.682.222.979.425.312.215.555.492.726.832.172.34.258.766.258 1.278h.001zM210.511 63h-1.4v-1.67h1.4V63zm8.332 0h-5.906v-1.225c.41-.351.82-.703 1.233-1.054.395-.337.78-.687 1.151-1.05.75-.726 1.264-1.303 1.541-1.73a2.5 2.5 0 0 0 .416-1.386c0-.453-.15-.808-.448-1.064-.299-.256-.716-.384-1.25-.384-.356 0-.741.063-1.155.188-.43.132-.838.326-1.213.574h-.059v-1.23c.278-.137.648-.262 1.11-.375a5.65 5.65 0 0 1 1.345-.17c.895 0 1.596.216 2.104.647.508.432.762 1.017.762 1.755 0 .332-.042.642-.126.929-.084.287-.208.56-.372.817-.153.242-.331.48-.537.715-.205.234-.454.494-.747.78-.418.41-.85.807-1.295 1.192-.445.384-.86.74-1.248 1.069h4.694V63zm6.861-4.201c.188.168.342.379.463.633s.182.582.182.984c0 .398-.073.764-.217 1.096-.142.328-.35.623-.61.867-.296.275-.65.482-1.034.606-.396.131-.83.197-1.303.197a5.98 5.98 0 0 1-1.43-.173 6.72 6.72 0 0 1-1.154-.378v-1.225h.087c.332.219.723.4 1.172.545.45.145.883.217 1.301.217.246 0 .508-.041.785-.123a1.66 1.66 0 0 0 .674-.363 1.71 1.71 0 0 0 .401-.569c.088-.207.132-.468.132-.785 0-.312-.05-.571-.15-.776a1.193 1.193 0 0 0-.412-.484 1.615 1.615 0 0 0-.639-.249 4.575 4.575 0 0 0-.808-.067h-.528v-.973h.41c.594 0 1.068-.124 1.421-.372.354-.248.53-.61.53-1.087a1.1 1.1 0 0 0-.134-.553 1.1 1.1 0 0 0-.375-.39 1.686 1.686 0 0 0-.54-.211 3.27 3.27 0 0 0-.65-.059c-.37 0-.765.067-1.183.2-.418.132-.813.32-1.184.562h-.058v-1.224c.277-.137.647-.263 1.11-.378a5.56 5.56 0 0 1 1.345-.173c.425 0 .8.039 1.125.117.324.078.617.203.879.375.28.187.494.414.638.68.145.265.217.576.217.931 0 .485-.17.907-.513 1.269-.321.35-.745.588-1.21.682v.082c.188.032.403.097.645.197s.447.223.615.372zm4.43 4.201h-1.4v-1.67h1.4V63zm8.332 0h-5.906v-1.225c.41-.351.82-.703 1.233-1.054.395-.337.78-.687 1.151-1.05.75-.726 1.264-1.303 1.541-1.73a2.5 2.5 0 0 0 .416-1.386c0-.453-.15-.808-.448-1.064-.299-.256-.716-.384-1.25-.384-.356 0-.741.063-1.155.188-.43.132-.838.326-1.213.574h-.059v-1.23c.278-.137.648-.262 1.11-.375a5.65 5.65 0 0 1 1.345-.17c.895 0 1.596.216 2.104.647.508.432.762 1.017.762 1.755 0 .332-.042.642-.126.929-.084.287-.208.56-.372.817-.153.242-.331.48-.537.715-.205.234-.454.494-.747.78-.418.41-.85.807-1.295 1.192-.445.384-.86.74-1.248 1.069h4.694V63z" fill="#8B8B8B"/></g></g></svg>