<svg width="115" height="71" xmlns="http://www.w3.org/2000/svg"><g transform="translate(8 11)" fill-rule="nonzero" fill="none"><rect fill="#000" y=".166" width="100" height="49.669" rx="6.3"/><rect fill="#FFF" x="1.667" y="1.821" width="96.667" height="46.358" rx="4.9"/><path d="M61.375 6.467c-10.051 0-15.033 8.192-15.458 9.769-.835-1.437-3.302-4.196-6.948-4.196-4.894 0-7.792 4.988-8.167 6.379-.34-.337-1.673-.785-2.974-.792-3.898 0-5.87 3.244-5.87 5.914 0 3.228 2.476 5.734 4.959 6.395C34.378 31.922 49.712 32.31 50 32.31c.358.002 10.722.049 16.698-1.542 3.48-.926 9.349-5.846 9.349-12.32 0-6.935-6.64-11.888-14.672-11.982zm0 2.375c8.013.093 12.234 4.632 12.234 9.608 0 4.999-4.206 9.145-8.026 10.161-4.649 1.238-15.05 1.396-15.583 1.392-.288 0-15.172-.43-22.344-2.338-1.73-.46-3.297-1.76-3.297-4.124 0-1.888 1.27-3.554 3.47-3.554 2.178.01 3.348 1.84 3.348 3.057h.896c0-3.814 3.367-8.645 6.911-8.645 3.9 0 6.797 5.228 6.797 8.645h.89c0-5.634 4.64-14.202 14.704-14.202zM28.125 33.537L25 40.522h2.188l3.125-6.985zM37.5 36.641l-3.125 6.985h2.188l3.125-6.985zM46.875 33.537l-3.125 6.985h2.188l3.125-6.985zM56.25 36.641l-3.125 6.985h2.188l3.125-6.985zM65.625 33.537L62.5 40.522h2.188l3.125-6.985z" fill="#000"/></g></svg>