<svg width="153" height="120" xmlns="http://www.w3.org/2000/svg"><g fill="none" fill-rule="evenodd"><g transform="translate(8 62)"><rect fill="#FFF" fill-rule="nonzero" width="138" height="48" rx="6"/><path d="M7.52 3C5.015 3 3 5.034 3 7.56v33.88C3 43.965 5.016 46 7.52 46h123.96c2.504 0 4.52-2.034 4.52-4.56V7.56c0-2.526-2.016-4.56-4.52-4.56H7.52zm40.323 12.248h3.39v7.819h7.263v-7.819h3.39v19.546h-3.39v-8.796h-7.263v8.796h-3.39V15.248zm25.902 0h3.874l6.295 19.546h-3.632l-1.21-3.91h-6.78l-1.21 3.91H67.45l6.295-19.546zm15.713 0h6.537c2.39.112 4.086.866 5.084 2.26 1 1.395 1.483 2.76 1.453 4.093-.03 1.333-.635 2.697-1.816 4.092-1.18 1.395-2.754 2.148-4.72 2.26h-3.148v6.84h-3.39V15.249zm24.954 0h3.873l6.295 19.546h-3.631l-1.21-3.91h-6.78l-1.21 3.91h-3.632l6.295-19.546zM92.848 18.18v6.841h2.179c1.008.01 1.896-.254 2.663-.794.767-.54 1.17-1.415 1.21-2.626-.04-1.212-.443-2.087-1.21-2.627-.767-.54-1.655-.804-2.663-.794h-2.18zm-17.166 1.466l-2.421 8.307h4.842l-2.421-8.307zm40.667 0l-2.422 8.307h4.843l-2.421-8.307zm-95.388.973c1.23.008 2.458.497 3.688 1.47 1.311 1.039 2.017 2.993 2.118 5.864-.048 2.013-.463 3.55-1.247 4.614-.783 1.063-1.646 1.79-2.59 2.174-.945.385-1.683.564-2.215.542-.99-.056-1.796-.313-2.422-.766-.625-.453-.948-.767-.968-.945v7.086H14.42V21.112h2.42c.11.593.272 1.082.485 1.466-.01-.081.252-.407.787-.977.534-.57 1.402-.896 2.603-.978.081-.003.164-.004.246-.004zm-.246 2.692a3.282 3.282 0 0 0-1.941.672c-.593.438-1.077 1.028-1.45 1.771v5.13a4.013 4.013 0 0 0 1.498 1.434c.619.341 1.252.516 1.893.521.872-.02 1.607-.468 2.207-1.343.6-.876.915-2.057.94-3.543-.025-1.476-.34-2.616-.94-3.42-.6-.805-1.335-1.212-2.207-1.222zm11.83 7.399c.598.015 1.097.222 1.494.623.397.4.602.904.617 1.506-.015.603-.22 1.106-.617 1.507-.397.4-.896.608-1.493.623-.598-.015-1.096-.222-1.493-.623-.397-.4-.603-.904-.618-1.507.015-.602.22-1.106.618-1.506.397-.4.895-.608 1.493-.623z" fill="#0D69E1" fill-rule="nonzero"/><rect stroke="#000" x=".5" y=".5" width="138" height="48" rx="6"/></g><g transform="translate(7 10)"><rect fill="#FFF" fill-rule="nonzero" x="1" y="1" width="139" height="40" rx="5"/><path d="M6.793 3a3.808 3.808 0 0 0-3.814 3.818v28.364A3.808 3.808 0 0 0 6.793 39h126.414a3.808 3.808 0 0 0 3.814-3.818V6.818A3.808 3.808 0 0 0 133.207 3H6.793zm0 1.09h126.414a2.72 2.72 0 0 1 2.725 2.728v28.364a2.72 2.72 0 0 1-2.725 2.727H6.793a2.72 2.72 0 0 1-2.724-2.727V6.818a2.72 2.72 0 0 1 2.724-2.727z" fill="#1A1A1A" fill-rule="nonzero"/><rect stroke="#000" x=".5" y=".5" width="139" height="41" rx="6"/><g fill="#000" fill-rule="nonzero"><path d="M10.023 31.52l.784 2.297c.302.055.497.088.585.1.088.012.174.017.258.015.631-.005 1.25-.197 1.856-.578.605-.38 1.071-.925 1.398-1.632L19.58 17.86h-2.847l-2.237 7.433-2.644-7.433H9.006l4.358 11.25a5.858 5.858 0 0 1-.752 1.733c-.349.548-.873.841-1.572.879a2.976 2.976 0 0 1-.432-.025 1.923 1.923 0 0 1-.585-.176zM24.847 17.86c.002.776-.017 1.715-.056 2.816a49.558 49.558 0 0 1-.198 3.083c-.093.955-.221 1.6-.385 1.936-.26.458-.582.812-.966 1.062-.383.25-.749.403-1.096.46l.464 2.295c1.652-.43 2.777-1.156 3.375-2.18.597-1.024.924-2.183.979-3.475.055-1.292.095-2.554.12-3.787h3.254v9.04h2.44V17.86h-7.93zM40.446 27.503c-.013-.496-.186-.908-.52-1.238-.333-.329-.75-.5-1.252-.513-.502.013-.92.184-1.253.513-.334.33-.507.742-.52 1.238.013.496.186.908.52 1.238.333.33.75.5 1.253.513.502-.013.92-.184 1.253-.513.333-.33.506-.742.519-1.238zM55.794 23.485l2.033-6.83 2.034 6.83h-4.067zM56.2 13.04L50.913 29.11h3.05l1.017-3.214h5.694l1.017 3.214h3.05L59.455 13.04H56.2zM69.397 13.039V29.11h2.847v-5.625h2.644c1.652-.092 2.974-.711 3.966-1.858.991-1.147 1.5-2.268 1.525-3.365.025-1.097-.381-2.218-1.22-3.365-.84-1.147-2.263-1.766-4.27-1.858h-5.492zm2.847 2.41h1.83c.848-.008 1.594.21 2.238.653.644.444.983 1.164 1.016 2.16-.033.996-.372 1.716-1.016 2.16-.644.443-1.39.66-2.237.653h-1.83V15.45zM85.683 29.11h5.897c2.017-.075 3.474-.628 4.372-1.657.899-1.03 1.34-2.084 1.322-3.164.034-1.08-.339-2.135-1.118-3.164-.78-1.03-2.17-1.582-4.17-1.658H88.53V15.45h7.524v-2.411H85.683V29.11zm2.847-2.41v-4.822h2.847c.928 0 1.665.201 2.211.603.547.402.827 1.004.84 1.808-.013.803-.293 1.406-.84 1.808-.546.402-1.283.603-2.211.603H88.53zM106.409 23.485l2.033-6.83 2.034 6.83h-4.067zm.406-10.446l-5.287 16.071h3.05l1.017-3.214h5.695l1.016 3.214h3.05L110.07 13.04h-3.254zM119.2 13.039v2.411h4.473v13.66h2.847V15.45h4.474v-2.411z"/></g></g></g></svg>