<svg width="110" height="97" xmlns="http://www.w3.org/2000/svg"><g fill="none" fill-rule="evenodd"><path d="M0 0h110v97H0z"/><g fill-rule="nonzero"><path d="M11.3 6.167h87.4a6.3 6.3 0 0 1 6.3 6.3v54.066a6.3 6.3 0 0 1-6.3 6.3H11.3a6.3 6.3 0 0 1-6.3-6.3V12.467a6.3 6.3 0 0 1 6.3-6.3z" fill="#000"/><path d="M11.567 7.833h86.866a4.9 4.9 0 0 1 4.9 4.9v53.534a4.9 4.9 0 0 1-4.9 4.9H11.567a4.9 4.9 0 0 1-4.9-4.9V12.733a4.9 4.9 0 0 1 4.9-4.9z" fill="#FFF"/><path d="M16.25 50.997v12.5h2.679v-5.803a9.17 9.17 0 0 1 .346-.044c.118-.013.226-.02.323-.02 1.231.085 2.165.744 2.802 1.977a117.48 117.48 0 0 0 2.109 3.89h3.348a9.992 9.992 0 0 1-1.88-2.688c-.466-.972-1-1.91-1.597-2.808a3.852 3.852 0 0 0-2.326-1.646c.538-.16 1.013-.494 1.426-1.003.413-.51.851-1.007 1.314-1.492a2.778 2.778 0 0 1 1.724-.854l-.67-2.232c-.927.129-1.765.57-2.512 1.323a66.26 66.26 0 0 0-2.108 2.223c-.658.728-1.319 1.12-1.98 1.174a3.02 3.02 0 0 1-.16-.004.665.665 0 0 1-.16-.028v-4.465H16.25zm21.649-.446c-1.107.074-1.907.372-2.4.893-.492.52-.734.818-.725.893-.197-.351-.345-.797-.446-1.34h-2.233v17.858h2.679V62.38c.019.163.316.451.893.865.576.414 1.32.647 2.232.698.49.02 1.171-.145 2.042-.496.87-.352 1.667-1.013 2.39-1.984.721-.972 1.104-2.377 1.148-4.217-.093-2.622-.744-4.408-1.953-5.357-1.209-.948-2.418-1.395-3.627-1.339v.001zm0 2.455c.804.01 1.483.382 2.037 1.116.553.735.842 1.777.865 3.125-.023 1.358-.312 2.437-.865 3.237-.554.8-1.233 1.21-2.037 1.228a3.659 3.659 0 0 1-1.742-.475 3.698 3.698 0 0 1-1.383-1.311v-4.688c.343-.678.789-1.218 1.335-1.618a3.045 3.045 0 0 1 1.79-.614zm15.373-2.455c-1.707.028-3.092.642-4.157 1.841-1.065 1.2-1.614 2.819-1.646 4.855.032 2.037.58 3.656 1.646 4.855 1.065 1.2 2.45 1.814 4.157 1.842 1.707-.028 3.093-.642 4.157-1.842 1.065-1.2 1.614-2.818 1.647-4.855-.033-2.036-.582-3.655-1.647-4.855-1.064-1.2-2.45-1.813-4.157-1.841zm0 2.232c.912.019 1.656.428 2.232 1.228.577.8.874 1.879.893 3.236-.019 1.358-.316 2.437-.893 3.237-.576.8-1.32 1.21-2.232 1.228-.911-.019-1.655-.428-2.232-1.228-.577-.8-.874-1.879-.893-3.237.019-1.357.316-2.436.893-3.236.577-.8 1.32-1.21 2.232-1.228zM63.76 63.498h2.679l.67-8.706 3.57 7.143 3.573-7.143.669 8.706H77.6l-1.116-12.5h-2.68l-3.124 6.25-3.125-6.25h-2.678l-1.117 12.5zm24.327-10.715c.693.002 1.34.277 1.942.825.6.548.921 1.166.96 1.854a.812.812 0 0 1-.052.307c-.035.088-.092.134-.17.14h-5.581c.03-1.104.335-1.896.912-2.377a3.146 3.146 0 0 1 1.99-.749h-.001zm5.134 5.357c.196-.014.355-.153.479-.418.129-.29.194-.604.191-.921-.046-1.725-.623-3.185-1.73-4.38-1.107-1.196-2.465-1.819-4.074-1.87a5.837 5.837 0 0 0-2.523.614c-.819.4-1.508.94-2.068 1.618a4.982 4.982 0 0 0-.973 1.921c-.193.728-.294 1.576-.303 2.543.026 2.037.652 3.656 1.878 4.855 1.225 1.2 2.704 1.814 4.436 1.842.788.004 1.596-.228 2.423-.698.828-.47 1.636-1.204 2.424-2.204l-2.169-1.244c-.432.56-.85.98-1.255 1.264-.405.284-.879.426-1.423.426-.628.028-1.325-.195-2.093-.67-.767-.473-1.186-1.366-1.255-2.678h8.035zM29.414 17.052c-1.137 0-2.2.566-2.837 1.509l-5.366 7.954a3.422 3.422 0 0 0-.586 1.914v8.262a3.424 3.424 0 0 0 3.423 3.423h3.09c.18-3.81 3.32-6.846 7.174-6.846a7.189 7.189 0 0 1 7.177 6.846H68.2a7.185 7.185 0 0 1 4.115-6.163h-29.79V20.47a3.42 3.42 0 0 0-3.422-3.418h-9.689zm.18 2.05h7.799c.945 0 1.709.77 1.709 1.715v4.79c0 .945-.764 1.709-1.71 1.709h-11.03a1.708 1.708 0 0 1-1.416-2.666l3.233-4.79a1.71 1.71 0 0 1 1.416-.757l-.001-.001z" fill="#000"/><path d="M48 10.802a3.414 3.414 0 0 0-3.422 3.422v18.453h44.484V14.224a3.414 3.414 0 0 0-3.421-3.422H48zm27.375 23.834a5.818 5.818 0 1 0 0 11.635 5.818 5.818 0 0 0 0-11.635zm0 2.738a3.08 3.08 0 1 1 0 6.16 3.08 3.08 0 0 1 0-6.16zm7.175 2.737a7.181 7.181 0 0 0-4.117-6.159h10.63v6.16H82.55v-.001zm-48.237-5.475a5.818 5.818 0 1 0 0 11.635 5.818 5.818 0 0 0 0-11.635zm0 2.738a3.08 3.08 0 1 1 0 6.16 3.08 3.08 0 0 1 0-6.16z" fill="#000"/><path d="M46.176 89.405c0 .743-.293 1.362-.878 1.855-.586.493-1.323.74-2.21.74-.942 0-1.692-.24-2.25-.723-.559-.481-.838-1.098-.838-1.85 0-.477.14-.91.42-1.297.28-.387.676-.695 1.185-.922v-.035c-.467-.246-.812-.516-1.036-.809-.224-.293-.335-.659-.335-1.098 0-.648.268-1.187.805-1.619.537-.431 1.22-.647 2.05-.647.867 0 1.56.206 2.077.618.518.413.777.937.777 1.573 0 .389-.123.771-.368 1.147s-.605.67-1.08.882v.034c.545.232.961.517 1.25.856.287.339.431.77.431 1.295zm-1.383-4.203c0-.412-.16-.74-.482-.985-.32-.245-.73-.367-1.229-.367-.49 0-.892.115-1.205.347-.313.23-.47.543-.47.936 0 .277.079.517.236.72.158.202.396.382.715.54.144.07.352.16.622.272.27.111.534.204.791.277.385-.254.652-.518.8-.792a1.96 1.96 0 0 0 .222-.948zm.18 4.312c0-.354-.078-.638-.236-.852-.157-.214-.466-.429-.925-.645a5.898 5.898 0 0 0-.601-.237c-.291-.099-.581-.2-.87-.306a2.29 2.29 0 0 0-.844.769 1.96 1.96 0 0 0-.318 1.098c0 .52.181.95.543 1.29.362.338.821.508 1.378.508.568 0 1.022-.145 1.363-.434.34-.289.51-.686.51-1.19v-.001zm4.788 2.29h-1.396v-1.648h1.396v1.648zm8.5-2.422h-1.29v2.421h-1.122v-2.421h-4.162v-1.33l4.21-4.855h1.073v5.26h1.29v.925h.001zm-2.412-.925v-3.885l-3.368 3.885h3.368zm5.861 3.346h-1.395v-1.647h1.395v1.647zm8.29-4.82c0 .751-.087 1.433-.26 2.046-.173.613-.435 1.135-.785 1.566-.354.44-.798.779-1.33 1.018-.534.239-1.16.358-1.88.358-.203 0-.394-.01-.573-.032a2.451 2.451 0 0 1-.478-.1v-1.105h.058c.113.058.272.113.479.165.206.052.435.078.688.078.86 0 1.535-.255 2.023-.766.489-.51.772-1.215.85-2.113-.362.216-.703.37-1.022.463-.32.092-.667.138-1.045.138-.358 0-.682-.034-.972-.104a2.63 2.63 0 0 1-.873-.404 2.25 2.25 0 0 1-.773-.896c-.173-.362-.26-.796-.26-1.3 0-.88.292-1.594.876-2.145.583-.551 1.296-.827 2.136-.827.42 0 .81.065 1.168.194.358.129.671.322.94.58.33.32.585.732.764 1.235.18.503.269 1.153.269 1.95v.001zm-1.18-.249c0-.597-.061-1.077-.186-1.44-.125-.361-.296-.643-.514-.843a1.678 1.678 0 0 0-.59-.373 2.014 2.014 0 0 0-.682-.113c-.56 0-1.003.174-1.328.52-.325.347-.488.835-.488 1.463 0 .366.053.665.158.896.105.231.282.433.531.607.175.12.368.2.578.24.21.04.444.06.7.06a3.702 3.702 0 0 0 1.798-.474l.015-.24c.006-.078.009-.18.009-.303h-.001z" fill="#8B8B8B"/></g></g></svg>