<svg width="115" height="71" xmlns="http://www.w3.org/2000/svg"><g transform="translate(8 11)" fill-rule="nonzero" fill="none"><rect fill="#000" y=".166" width="100" height="49.669" rx="6.3"/><rect fill="#FFF" x="1.667" y="1.821" width="96.667" height="46.358" rx="4.9"/><g fill="#000"><path d="M13.84 15.687c-.004 1.098-.089 2.046-.254 2.845a10.367 10.367 0 0 1-.671 2.144h-.638v2.55h1.34v-1.33h4.24v1.33h1.228v-2.55h-.781v-4.989h-4.465zm1.339 1.22h1.785v3.77h-2.599c.271-.552.463-1.16.574-1.826.112-.666.192-1.314.24-1.944zM21.658 15.687c0 .428-.01.946-.031 1.554a27.5 27.5 0 0 1-.109 1.702c-.051.526-.122.883-.211 1.068-.143.253-.32.448-.53.586-.211.138-.412.222-.602.253l.255 1.267c.906-.236 1.524-.637 1.852-1.203a4.109 4.109 0 0 0 .537-1.917c.03-.713.052-1.41.066-2.09h1.786v4.989h1.34v-6.209h-4.353zM33.507 21.896v-6.209h-2.679c-.772.023-1.32.226-1.646.61-.326.383-.484.808-.475 1.275.014.37.154.69.419.96a2 2 0 0 0 .92.544c-.364.07-.663.28-.896.63-.233.348-.441.731-.624 1.149a4.843 4.843 0 0 1-.6 1.04h1.563a8.93 8.93 0 0 0 .373-.877c.15-.395.369-.762.657-1.1.288-.339.688-.519 1.202-.54a2.99 2.99 0 0 1 .253.005.809.809 0 0 1 .193.042v2.47h1.34zm-1.34-3.548H30.94a.784.784 0 0 1-.564-.252.74.74 0 0 1-.218-.524.673.673 0 0 1 .23-.458.815.815 0 0 1 .552-.207h1.227v1.44z"/></g><g fill="#000"><path d="M39.357 13.635l.59 1.315c.306-.267.604-.461.893-.582.29-.12.651-.18 1.084-.178.291.007.547.104.768.29.22.188.337.423.348.708-.013.346-.209.679-.585.997-.377.32-.851.54-1.423.666v1.22c.113-.054.237-.086.372-.098a4.01 4.01 0 0 1 .409-.014c.7.03 1.145.2 1.333.507.188.308.27.572.245.792-.024.512-.219.886-.586 1.123-.366.236-.809.353-1.327.35-.38.002-.78-.034-1.196-.109a2.928 2.928 0 0 1-1.052-.382l.191 1.552c.04.016.308.08.805.19.498.111.99.174 1.475.19 1.065-.037 1.877-.35 2.438-.942.56-.591.842-1.238.847-1.94-.017-.48-.163-.876-.439-1.191a2.98 2.98 0 0 0-.92-.723c-.337-.167-.607-.268-.81-.304.465-.064.875-.295 1.228-.693.353-.397.54-.905.558-1.524-.03-.617-.289-1.105-.777-1.463a2.731 2.731 0 0 0-1.615-.548 5.953 5.953 0 0 0-1.552.27c-.56.17-.994.343-1.302.521zM46.903 19.622h3.125v-1.44h-3.125zM54.81 15.52c-.854.014-1.547.319-2.08.915-.532.596-.806 1.4-.823 2.411.017 1.012.291 1.816.823 2.412.533.596 1.226.9 2.08.914.852-.014 1.545-.318 2.078-.914.532-.596.807-1.4.823-2.412-.016-1.011-.29-1.815-.823-2.411-.533-.596-1.226-.9-2.079-.915zm0 1.109c.455.01.827.212 1.115.61.289.397.437.933.447 1.607-.01.675-.158 1.21-.447 1.608-.288.397-.66.6-1.116.61-.456-.01-.828-.213-1.116-.61-.288-.397-.437-.933-.446-1.608.009-.674.158-1.21.446-1.607.288-.398.66-.6 1.116-.61zM62.492 15.52c-.858.014-1.57.319-2.135.915-.565.596-.858 1.4-.878 2.411.02 1.012.313 1.816.878 2.412.565.596 1.277.9 2.135.914.629-.004 1.177-.17 1.644-.497.467-.327.812-.79 1.034-1.387l-1.26-.476c-.121.406-.304.715-.547.929a1.287 1.287 0 0 1-.871.323c-.456-.01-.828-.213-1.116-.61-.288-.397-.437-.933-.447-1.608.01-.674.159-1.21.447-1.607.288-.398.66-.6 1.116-.61.337.002.627.11.87.323.244.213.427.523.549.928l1.26-.475c-.223-.598-.568-1.06-1.035-1.388-.467-.327-1.015-.493-1.644-.497zM67.172 15.742v6.208h1.339v-2.66h2.344v2.66h1.339v-6.208h-1.34v2.328h-2.343v-2.328zM77.297 15.52c-.853.014-1.546.319-2.079.915-.532.596-.807 1.4-.823 2.411.016 1.012.29 1.816.823 2.412.533.596 1.226.9 2.079.914.853-.014 1.546-.318 2.079-.914.532-.596.806-1.4.823-2.412-.017-1.011-.291-1.815-.823-2.411-.533-.596-1.226-.9-2.08-.915zm0 1.109c.456.01.828.212 1.116.61.288.397.437.933.446 1.607-.009.675-.158 1.21-.446 1.608-.288.397-.66.6-1.116.61-.456-.01-.828-.213-1.116-.61-.289-.397-.437-.933-.447-1.608.01-.674.158-1.21.447-1.607.288-.398.66-.6 1.116-.61zM82.301 15.742v6.209h1.451l2.567-4.213v4.213h1.34v-6.21h-1.452l-2.567 4.214v-4.213h-1.339zm.447-2.66c-.01.021.034.174.132.459.098.285.307.57.628.854.321.285.812.438 1.472.46.66-.022 1.15-.175 1.471-.46.321-.285.53-.57.629-.854.097-.285.141-.438.132-.46h-1.116a1.62 1.62 0 0 1-.433.651c-.179.155-.407.234-.683.236a1.166 1.166 0 0 1-.726-.236 1.08 1.08 0 0 1-.39-.65h-1.116z"/></g><g fill="#000"><path d="M22.895 28.105v1.219h1.881v4.989h1.34v-4.99h1.865v-1.218zM32.522 28.991c.347.001.67.138.97.41.301.272.461.58.481.92a.401.401 0 0 1-.026.153c-.018.044-.046.067-.086.07h-2.79c.016-.548.168-.942.457-1.18a1.58 1.58 0 0 1 .994-.373zm2.567 2.661c.098-.007.177-.076.24-.208.061-.131.093-.284.095-.457-.023-.857-.312-1.582-.865-2.176a2.805 2.805 0 0 0-2.037-.928 2.934 2.934 0 0 0-1.261.304c-.41.2-.755.467-1.035.804-.228.275-.39.593-.486.954a5.129 5.129 0 0 0-.152 1.264c.013 1.011.326 1.815.94 2.41.612.597 1.351.902 2.217.916.394.002.798-.114 1.212-.347.414-.233.818-.598 1.212-1.095l-1.084-.617a3.02 3.02 0 0 1-.628.627c-.202.141-.44.212-.712.212-.314.014-.662-.097-1.046-.333-.384-.235-.593-.679-.628-1.33h4.018zM38.482 28.104c0 .428-.01.946-.031 1.554a27.503 27.503 0 0 1-.109 1.702c-.051.527-.121.883-.211 1.068-.143.253-.32.448-.53.586-.21.138-.411.223-.602.254l.255 1.267c.907-.237 1.524-.638 1.852-1.204a4.109 4.109 0 0 0 .537-1.917c.03-.713.053-1.41.066-2.09h1.786v4.989h1.34v-6.209h-4.353zM48.013 28.991c.346.001.67.138.97.41.3.272.46.58.48.92a.401.401 0 0 1-.025.153c-.018.044-.047.067-.086.07h-2.79c.015-.548.167-.942.456-1.18a1.58 1.58 0 0 1 .995-.373zm2.567 2.661c.097-.007.177-.076.239-.208.062-.131.093-.284.095-.457-.023-.857-.311-1.582-.865-2.176a2.805 2.805 0 0 0-2.036-.928 2.934 2.934 0 0 0-1.262.304c-.41.2-.754.467-1.034.804-.228.275-.39.593-.487.954a5.129 5.129 0 0 0-.151 1.264c.013 1.011.326 1.815.939 2.41.612.597 1.352.902 2.218.916.394.002.798-.114 1.212-.347.413-.233.817-.598 1.211-1.095l-1.084-.617a3.02 3.02 0 0 1-.628.627c-.202.141-.44.212-.711.212-.314.014-.663-.097-1.046-.333-.384-.235-.593-.679-.628-1.33h4.018zM53.303 27.993l-.335 1.33c.4.016.723.137.969.361.246.224.47.46.671.705.202.246.436.408.703.487a1.67 1.67 0 0 0-1.09.523c-.29.306-.522.687-.695 1.14a8.123 8.123 0 0 1-.503.97c-.209.351-.376.62-.502.804h1.563c.414-.725.786-1.385 1.116-1.98.33-.595.814-.858 1.45-.792v2.772h1.34V31.54c.637-.066 1.12.197 1.45.792.331.595.703 1.255 1.117 1.98h1.562a17.085 17.085 0 0 1-.502-.804 8.12 8.12 0 0 1-.502-.97 3.396 3.396 0 0 0-.696-1.14 1.67 1.67 0 0 0-1.09-.523 1.43 1.43 0 0 0 .704-.487c.201-.246.425-.48.671-.705.246-.224.569-.345.97-.36l-.336-1.33c-.585.069-1.064.312-1.438.73-.374.418-.705.818-.992 1.2-.288.38-.594.55-.918.508v-2.328h-1.34v2.328c-.324.042-.63-.127-.917-.509-.287-.38-.618-.78-.992-1.199-.374-.418-.854-.661-1.438-.73zM64.05 28.104v6.209h1.34V31.43c.056-.008.114-.015.173-.021a1.64 1.64 0 0 1 .161-.01c.616.042 1.083.37 1.401.982.319.612.67 1.256 1.055 1.932h1.674a4.963 4.963 0 0 1-.94-1.335 11.47 11.47 0 0 0-.799-1.395 1.926 1.926 0 0 0-1.163-.818c.27-.079.507-.245.713-.498.207-.253.426-.5.657-.74.231-.242.519-.383.862-.425l-.335-1.109c-.464.064-.882.283-1.256.657-.373.375-.725.743-1.054 1.104-.329.362-.659.557-.99.583-.025 0-.051 0-.08-.002a.335.335 0 0 1-.08-.013v-2.218H64.05zM71.684 28.105v6.208l1.45.003 2.567-4.216v4.213h1.34v-6.208h-1.45l-2.568 4.213v-4.213z"/></g></g></svg>