<svg width="100" height="86" xmlns="http://www.w3.org/2000/svg"><g fill="none" fill-rule="evenodd"><path d="M89.734 43A39.867 39.867 0 1 1 10 43a39.867 39.867 0 1 1 79.734 0z" fill="#FFF" fill-rule="nonzero"/><path d="M90.5 43c0 22.368-18.132 40.5-40.5 40.5S9.5 65.368 9.5 43 27.632 2.5 50 2.5 90.5 20.632 90.5 43z" stroke="#000"/><path d="M50 5C29.013 5 12 22.013 12 43s17.013 38 38 38 38-17.013 38-38S70.987 5 50 5zm0 7c17.12 0 31 13.88 31 31 0 17.12-13.88 31-31 31-17.12 0-31-13.88-31-31 0-17.12 13.88-31 31-31z" fill="red" fill-rule="nonzero"/><g fill="#000" fill-rule="nonzero"><path d="M22 50l8-7.5-8-7.5zM78 50l-8-7.5 8-7.5zM32.653 30.335l2.182 2.48a21.329 21.329 0 0 1 2.08-1.953c.71-.58 1.47-.887 2.283-.92.967.033 1.731.34 2.294.92.562.58.85 1.23.862 1.953-.013 1.07-.23 1.962-.653 2.678-.422.715-.97 1.45-1.646 2.205a84.74 84.74 0 0 1-3.77 4.247 85.934 85.934 0 0 1-4.178 4.1v3.307h13.09c.274-.7.478-1.367.615-1.998.136-.632.204-1.16.204-1.585h-9a349.823 349.823 0 0 1 3.955-4.095c1.22-1.242 2.266-2.41 3.136-3.504.693-.809 1.187-1.573 1.48-2.293.294-.72.437-1.74.43-3.062-.075-1.688-.745-3.066-2.012-4.134-1.267-1.068-2.688-1.619-4.261-1.653-1.625.02-3.012.334-4.16.945a9.739 9.739 0 0 0-2.931 2.362zM51.027 44.745c-.673.017-1.233.252-1.68.704-.447.452-.68 1.018-.696 1.698.013.62.21 1.15.592 1.586.38.436.868.7 1.46.794l-2.13 3.408h1.792c.273-.402.76-1.184 1.459-2.346.699-1.162 1.141-1.95 1.327-2.363a5.64 5.64 0 0 0 .174-.521 2.16 2.16 0 0 0 .079-.558c-.017-.68-.249-1.246-.696-1.698-.447-.452-1.007-.687-1.68-.704zM54.962 30.886h10.091c-1.551 2.515-3.017 5.34-4.398 8.475a42.599 42.599 0 0 0-2.965 9.715h4.09c.841-3.944 1.887-7.424 3.137-10.438a117.263 117.263 0 0 1 3.954-8.579v-2.756h-13.09l-.819 3.583z"/><g><path d="M43.033 66.936h2.503l.626-8.27 3.338 6.785 3.338-6.785.626 8.27h2.503l-1.043-11.874h-2.503L49.5 60.999l-2.921-5.937h-2.503z"/></g></g></g></svg>