<svg width="100" height="86" xmlns="http://www.w3.org/2000/svg"><g fill="none" fill-rule="evenodd"><path d="M55.464 6.502c3.267 5.663 6.466 11.286 11.217 19.692l4.76 8.425c10.212 18.068 16.33 28.664 23.07 39.766 2.228 3.668-.924 8.996-5.175 8.996H10.534c-4.251 0-7.403-5.328-5.176-8.996 6.738-11.099 12.84-21.67 23.068-39.763l4.632-8.2c4.828-8.54 8.048-14.2 11.348-19.92 2.852-4.943 8.207-4.943 11.058 0z" stroke="#0C0E0F"/><path d="M11.61 73.352l-.003.006-.556.967-.016.028a108.335 108.335 0 0 1-1.5 2.568c-.22.362.5 1.574 1 1.574h78.8c.5 0 1.22-1.212 1-1.575-.436-.718-.772-1.295-1.502-2.57l-.02-.036c-.266-.463-.396-.69-.554-.962L51.232 8.943c-.918-1.591-1.675-1.591-2.591-.003L11.61 73.352z" stroke="red" stroke-width="6" fill="#FFF"/><path d="M56.954 51.697a1.447 1.447 0 1 1 0 2.895 1.447 1.447 0 0 1 0-2.895m0-1.242a2.69 2.69 0 1 1 0 5.378 2.69 2.69 0 0 1 0-5.378m-16.868-3.176a1.447 1.447 0 1 1 0 2.894 1.447 1.447 0 0 1 0-2.894M36.81 42.02l5.136-3.54c.936-.645 1.256-.544 2.327-.252l6.67 1.83c.581.16 1.112.382 1.439.957 1.006 1.768 1.705 3.477 2.71 5.245l6.006 2.577c.75.322 1.267.965 1.1 1.547l-.671 2.344c-.33.71-.71.891-1.514.878a3.092 3.092 0 0 0-6.11-.958l-10.62-2.878-.255-.084a3.093 3.093 0 0 0-5.866-1.964c-.86-.64-1.244-.634-1.164-1.853l.168-2.55c.051-.78-.005-.851.644-1.299m-6.658 9.003h8.536a2.689 2.689 0 1 1 2.798 0h1.254l-.014 13.898c1.577-.177 3.155-1.005 4.733-1.005 2.08 0 4.159 1.286 6.238 1.286 2.095 0 4.19-1.286 6.284-1.286 2.072 0 4.143 1.286 6.215 1.286 2.055 0 4.11-1.286 6.165-1.286 1.914 0 3.829 1.107 5.744 1.267.33.613.668 1.244 1.01 1.883-.188.01-.376.015-.564.015-2.064 0-4.127-1.286-6.19-1.286-2.055 0-4.11 1.286-6.165 1.286-2.072 0-4.143-1.286-6.215-1.286-2.095 0-4.19 1.286-6.284 1.286-2.08 0-4.158-1.286-6.238-1.286-1.578 0-3.157.83-4.735 1.006l-.002 1.687c1.579-.177 3.158-1.007 4.737-1.007 2.08 0 4.159 1.287 6.238 1.287 2.095 0 4.19-1.287 6.284-1.287 2.072 0 4.143 1.287 6.215 1.287 2.055 0 4.11-1.287 6.165-1.287 2.063 0 4.126 1.287 6.19 1.287.508 0 1.015-.04 1.522-.105l.933 1.734c-.818.147-1.637.25-2.455.25-2.064 0-4.127-1.286-6.19-1.286-2.055 0-4.11 1.286-6.165 1.286-2.072 0-4.143-1.286-6.215-1.286-2.095 0-4.19 1.286-6.284 1.286-2.08 0-4.158-1.286-6.238-1.286-1.58 0-3.159.83-4.739 1.006l-.001 1.453c1.58-.176 3.16-1.007 4.74-1.007 2.08 0 4.159 1.286 6.238 1.286 2.095 0 4.19-1.286 6.284-1.286 2.072 0 4.143 1.286 6.215 1.286 2.055 0 4.11-1.286 6.165-1.286 2.063 0 4.126 1.286 6.19 1.286 1.126 0 2.252-.194 3.378-.432.312.57.623 1.13.93 1.677-1.436.319-2.872.635-4.308.635-2.064 0-4.127-1.286-6.19-1.286-2.055 0-4.11 1.286-6.165 1.286-2.072 0-4.143-1.286-6.215-1.286-2.095 0-4.19 1.286-6.284 1.286-2.08 0-4.158-1.286-6.238-1.286-1.58 0-3.162.831-4.742 1.007H17l13.15-22.677m13.423-11.969l7.26 2.01c.45.124.73.572.933.994l1.374 2.854c.203.422-.294 1.219-1.065 1.02l-10.233-2.65c-.453-.117-.863-.903-.674-1.333l1.047-2.383c.188-.43.907-.637 1.358-.512" fill="#000"/></g></svg>