<svg width="110" height="97" xmlns="http://www.w3.org/2000/svg"><g fill="none" fill-rule="evenodd"><path d="M0 0h110v97H0z"/><g fill-rule="nonzero"><path d="M11.3 6.167h87.4a6.3 6.3 0 0 1 6.3 6.3v54.066a6.3 6.3 0 0 1-6.3 6.3H11.3a6.3 6.3 0 0 1-6.3-6.3V12.467a6.3 6.3 0 0 1 6.3-6.3z" fill="#000"/><path d="M11.567 7.833h86.866a4.9 4.9 0 0 1 4.9 4.9v53.534a4.9 4.9 0 0 1-4.9 4.9H11.567a4.9 4.9 0 0 1-4.9-4.9V12.733a4.9 4.9 0 0 1 4.9-4.9z" fill="#FFF"/><path d="M16.25 50.997v12.5h2.679v-5.803a9.17 9.17 0 0 1 .346-.044c.118-.013.226-.02.323-.02 1.231.085 2.165.744 2.802 1.977a117.48 117.48 0 0 0 2.109 3.89h3.348a9.992 9.992 0 0 1-1.88-2.688c-.466-.972-1-1.91-1.597-2.808a3.852 3.852 0 0 0-2.326-1.646c.538-.16 1.013-.494 1.426-1.003.413-.51.851-1.007 1.314-1.492a2.778 2.778 0 0 1 1.724-.854l-.67-2.232c-.927.129-1.765.57-2.512 1.323a66.26 66.26 0 0 0-2.108 2.223c-.658.728-1.319 1.12-1.98 1.174a3.02 3.02 0 0 1-.16-.004.665.665 0 0 1-.16-.028v-4.465H16.25zm21.649-.446c-1.107.074-1.907.372-2.4.893-.492.52-.734.818-.725.893-.197-.351-.345-.797-.446-1.34h-2.233v17.858h2.679V62.38c.019.163.316.451.893.865.576.414 1.32.647 2.232.698.49.02 1.171-.145 2.042-.496.87-.352 1.667-1.013 2.39-1.984.721-.972 1.104-2.377 1.148-4.217-.093-2.622-.744-4.408-1.953-5.357-1.209-.948-2.418-1.395-3.627-1.339v.001zm0 2.455c.804.01 1.483.382 2.037 1.116.553.735.842 1.777.865 3.125-.023 1.358-.312 2.437-.865 3.237-.554.8-1.233 1.21-2.037 1.228a3.659 3.659 0 0 1-1.742-.475 3.698 3.698 0 0 1-1.383-1.311v-4.688c.343-.678.789-1.218 1.335-1.618a3.045 3.045 0 0 1 1.79-.614zm15.373-2.455c-1.707.028-3.092.642-4.157 1.841-1.065 1.2-1.614 2.819-1.646 4.855.032 2.037.58 3.656 1.646 4.855 1.065 1.2 2.45 1.814 4.157 1.842 1.707-.028 3.093-.642 4.157-1.842 1.065-1.2 1.614-2.818 1.647-4.855-.033-2.036-.582-3.655-1.647-4.855-1.064-1.2-2.45-1.813-4.157-1.841zm0 2.232c.912.019 1.656.428 2.232 1.228.577.8.874 1.879.893 3.236-.019 1.358-.316 2.437-.893 3.237-.576.8-1.32 1.21-2.232 1.228-.911-.019-1.655-.428-2.232-1.228-.577-.8-.874-1.879-.893-3.237.019-1.357.316-2.436.893-3.236.577-.8 1.32-1.21 2.232-1.228zM63.76 63.498h2.679l.67-8.706 3.57 7.143 3.573-7.143.669 8.706H77.6l-1.116-12.5h-2.68l-3.124 6.25-3.125-6.25h-2.678l-1.117 12.5zm24.327-10.715c.693.002 1.34.277 1.942.825.6.548.921 1.166.96 1.854a.812.812 0 0 1-.052.307c-.035.088-.092.134-.17.14h-5.581c.03-1.104.335-1.896.912-2.377a3.146 3.146 0 0 1 1.99-.749h-.001zm5.134 5.357c.196-.014.355-.153.479-.418.129-.29.194-.604.191-.921-.046-1.725-.623-3.185-1.73-4.38-1.107-1.196-2.465-1.819-4.074-1.87a5.837 5.837 0 0 0-2.523.614c-.819.4-1.508.94-2.068 1.618a4.982 4.982 0 0 0-.973 1.921c-.193.728-.294 1.576-.303 2.543.026 2.037.652 3.656 1.878 4.855 1.225 1.2 2.704 1.814 4.436 1.842.788.004 1.596-.228 2.423-.698.828-.47 1.636-1.204 2.424-2.204l-2.169-1.244c-.432.56-.85.98-1.255 1.264-.405.284-.879.426-1.423.426-.628.028-1.325-.195-2.093-.67-.767-.473-1.186-1.366-1.255-2.678h8.035zM38.758 10.93a.6.6 0 0 0-.6.6v3.9a.6.6 0 0 0 .6.601h1.181l-3.259 8.154a10.216 10.216 0 0 0-2.649-.352c-5.635 0-10.203 4.569-10.203 10.203 0 5.635 4.568 10.204 10.203 10.204s10.203-4.569 10.203-10.204c0-3.868-2.154-7.23-5.326-8.96l2.968-7.423 5.022 18.1a3.003 3.003 0 0 0 2.888 2.185h14.193c-.4-1.229-.614-2.54-.614-3.902a12.58 12.58 0 0 1 4.267-9.452.6.6 0 0 0-.399-1.05h-10.77l-2.588 5.171a1.5 1.5 0 0 1-1.341.83H48.65a1.502 1.502 0 0 1-1.449-1.097l-1.664-6.002a1.501 1.501 0 0 1 1.449-1.904h6.625a2.25 2.25 0 1 0 0-4.5H42.06l2.1-3.002h2.401a1.05 1.05 0 1 0 0-2.1h-7.803zM34.03 27.134c.483 0 .956.051 1.412.146l-1.506 3.76a2.999 2.999 0 0 0 .094 5.997 3 3 0 0 0 3.001-3c0-.822-.328-1.569-.863-2.11l1.5-3.756a6.902 6.902 0 1 1-3.639-1.036l.001-.001z" fill="#000"/><path d="M75.969 27.134a6.902 6.902 0 1 1-3.639 1.037l1.5 3.755a2.994 2.994 0 0 0-.862 2.11 3.001 3.001 0 0 0 6.002 0 2.998 2.998 0 0 0-2.907-2.996l-1.506-3.76a6.945 6.945 0 0 1 1.412-.146zm-18.006-5.401h11.79l1.34 3.343a10.198 10.198 0 0 0-5.327 8.96c0 5.635 4.568 10.204 10.203 10.204s10.203-4.569 10.203-10.204c0-5.634-4.568-10.203-10.203-10.203-.917 0-1.805.126-2.65.352l-.98-2.452h4.98v-1.5a2.7 2.7 0 0 0-2.7-2.701H60.99a1.5 1.5 0 0 0-1.342.829l-1.686 3.372h.001z" fill="#000"/><path d="M42.24 89.405c0 .743-.296 1.362-.888 1.855-.591.493-1.336.74-2.232.74-.952 0-1.71-.24-2.274-.723-.564-.481-.846-1.098-.846-1.85 0-.477.142-.91.425-1.297.283-.387.682-.695 1.197-.922v-.035c-.472-.246-.82-.516-1.047-.809-.226-.293-.34-.659-.34-1.098 0-.648.272-1.187.815-1.619.542-.431 1.232-.647 2.07-.647.877 0 1.577.206 2.1.618.523.413.784.937.784 1.573 0 .389-.124.771-.372 1.147-.247.376-.61.67-1.09.882v.034c.55.232.97.517 1.262.856.29.339.436.77.436 1.295zm-1.398-4.203c0-.412-.162-.74-.486-.985-.325-.245-.739-.367-1.242-.367-.495 0-.901.115-1.218.347a1.1 1.1 0 0 0-.475.936c0 .277.08.517.24.72.158.202.4.382.722.54.145.07.355.16.628.272.273.111.54.204.799.277.39-.254.659-.518.808-.792.15-.273.224-.59.224-.948zm.183 4.312c0-.354-.08-.638-.239-.852-.16-.214-.47-.429-.935-.645-.198-.09-.4-.17-.607-.237a42.46 42.46 0 0 1-.879-.306c-.344.18-.637.445-.852.769-.214.323-.322.69-.322 1.098 0 .52.183.95.549 1.29.366.338.83.508 1.392.508.574 0 1.033-.145 1.377-.434.344-.289.516-.686.516-1.19v-.001zm4.836 2.29h-1.41v-1.648h1.41v1.648zm8.588-2.422h-1.304v2.421h-1.132v-2.421h-4.205v-1.33l4.252-4.855h1.085v5.26h1.304v.925zm-2.436-.925v-3.885l-3.403 3.885h3.403zm5.921 3.346h-1.41v-1.647h1.41v1.647zm7.886 0h-4.754v-.878h1.828v-5.769h-1.828v-.786c.248 0 .513-.02.796-.06.283-.041.498-.1.643-.177a1.2 1.2 0 0 0 .428-.367c.104-.148.164-.348.18-.598h.914v7.757h1.793v.878zm8.18 0h-5.945v-1.208l1.241-1.04a22.92 22.92 0 0 0 1.16-1.035c.754-.717 1.271-1.286 1.55-1.708.274-.403.42-.88.42-1.367 0-.447-.151-.797-.452-1.049-.3-.252-.72-.379-1.26-.379-.357 0-.744.062-1.161.185-.431.13-.842.321-1.22.567h-.06v-1.214c.28-.135.652-.258 1.118-.37a5.797 5.797 0 0 1 1.353-.168c.9 0 1.607.213 2.118.64.51.425.766 1.002.766 1.73 0 .328-.042.633-.126.916a3.13 3.13 0 0 1-.375.807 5.618 5.618 0 0 1-.54.705c-.206.231-.457.488-.752.769-.42.404-.855.797-1.303 1.176-.448.38-.867.731-1.256 1.055H74v.988z" fill="#8B8B8B"/></g></g></svg>