<svg width="110" height="80" xmlns="http://www.w3.org/2000/svg"><g fill="none" fill-rule="evenodd"><path d="M0 0h110v80H0z"/><g fill-rule="nonzero"><g transform="translate(5 5)"><path d="M6.3.166h87.4a6.3 6.3 0 0 1 6.3 6.3v37.068a6.3 6.3 0 0 1-6.3 6.3H6.3a6.3 6.3 0 0 1-6.3-6.3V6.466a6.3 6.3 0 0 1 6.3-6.3z" fill="#000"/><rect fill="#FFF" x="1.667" y="1.821" width="96.667" height="46.358" rx="4.9"/><path d="M40.488 6.374a2.33 2.33 0 0 0-2.343 2.328v25.145h23.71V8.702a2.33 2.33 0 0 0-2.343-2.328H40.488z" fill="#FF8000"/><path d="M38.218 34.779h23.707v1.086H38.218v-1.086zm0 2.017v6.83h2.969v-2.91h6.918a2.03 2.03 0 0 0 1.968 1.513c.947 0 1.738-.643 1.963-1.513h6.92v2.91h2.968v-6.83h-2.969v2.91h-6.919a2.024 2.024 0 0 0-1.963-1.513 2.03 2.03 0 0 0-1.968 1.514h-6.918v-2.91h-2.97l.001-.001z" fill="#000"/></g><path d="M46.2 71.492c0 .754-.295 1.381-.883 1.881-.588.5-1.327.75-2.217.75-.946 0-1.699-.244-2.26-.732-.56-.489-.84-1.114-.84-1.875 0-.485.14-.923.422-1.316.281-.392.678-.704 1.19-.934v-.036c-.47-.25-.816-.523-1.04-.82-.225-.297-.338-.668-.338-1.113 0-.656.27-1.203.809-1.64.539-.438 1.225-.657 2.057-.657.87 0 1.566.209 2.086.627.52.418.779.95.779 1.594 0 .394-.123.782-.37 1.163-.245.38-.607.678-1.083.893v.035c.547.235.965.524 1.254.868.289.343.433.78.433 1.312h.001zm-1.39-4.26c0-.418-.16-.75-.483-.999-.322-.248-.733-.372-1.233-.372-.492 0-.896.118-1.21.352a1.12 1.12 0 0 0-.472.95c0 .28.08.524.237.729.159.205.398.387.718.547.145.07.353.163.624.276.272.113.536.207.794.281.387-.258.654-.525.803-.803.148-.277.223-.597.223-.96l-.001-.001zm.182 4.372c0-.36-.079-.648-.237-.865-.158-.217-.468-.434-.929-.653a5.886 5.886 0 0 0-.603-.24c-.22-.075-.51-.178-.873-.31a2.306 2.306 0 0 0-.847.778 2 2 0 0 0-.32 1.114c0 .527.182.963.546 1.306.363.344.824.516 1.382.516.57 0 1.027-.146 1.368-.44.342-.292.513-.695.513-1.206zm4.805 2.32h-1.4v-1.67h1.4v1.67zm8.531-2.455h-1.295v2.455h-1.125v-2.455H51.73V70.12l4.225-4.922h1.078v5.332h1.295v.939zm-2.42-.938v-3.937l-3.38 3.937h3.38zm5.883 3.393h-1.4v-1.67h1.4v1.67zm8.397-2.432c0 .754-.294 1.381-.882 1.881-.588.5-1.327.75-2.218.75-.945 0-1.698-.244-2.259-.732-.56-.489-.84-1.114-.84-1.875 0-.485.14-.923.421-1.316.281-.392.678-.704 1.19-.934v-.036c-.47-.25-.816-.523-1.04-.82-.225-.297-.337-.668-.337-1.113 0-.656.27-1.203.808-1.64.54-.438 1.225-.657 2.057-.657.871 0 1.566.209 2.086.627.52.418.78.95.78 1.594 0 .394-.124.782-.37 1.163-.246.38-.607.678-1.084.893v.035c.547.235.965.524 1.254.868.289.343.433.78.433 1.312h.001zm-1.39-4.26c0-.418-.16-.75-.483-.999-.322-.248-.733-.372-1.233-.372-.492 0-.895.118-1.21.352-.314.234-.472.55-.472.95 0 .28.08.524.238.729.158.205.397.387.717.547.145.07.353.163.624.276.272.113.537.207.794.281.387-.258.655-.525.803-.803.149-.277.223-.597.223-.96l-.001-.001zm.182 4.372c0-.36-.079-.648-.237-.865-.158-.217-.468-.434-.929-.653a5.885 5.885 0 0 0-.603-.24 50.94 50.94 0 0 1-.873-.31 2.306 2.306 0 0 0-.847.778 2 2 0 0 0-.32 1.114c0 .527.183.963.546 1.306.363.344.824.516 1.383.516.57 0 1.026-.146 1.368-.44.342-.292.512-.695.512-1.206z" fill="#8B8B8B"/></g></g></svg>