<svg width="100" height="86" xmlns="http://www.w3.org/2000/svg"><g transform="translate(10 3)" fill="none" fill-rule="evenodd"><rect fill="#FFF" fill-rule="nonzero" width="80" height="80" rx="6"/><rect stroke="#000" x=".5" y=".5" width="79" height="79" rx="6"/><path d="M5.68 2.858A2.807 2.807 0 0 0 2.865 5.67v68.623a2.807 2.807 0 0 0 2.815 2.812H38.7V2.858H5.68zm35.645 0v74.247h14.448V26.858h-6.568L59.713 8.672l10.508 18.186h-6.568v50.247h10.694a2.807 2.807 0 0 0 2.814-2.812V5.67a2.807 2.807 0 0 0-2.814-2.812H41.325zm-25.11 11.618h2.445c.281 0 .51.225.51.503a.51.51 0 0 1-.51.506h-2.445a.82.82 0 0 0-.826.816c0 .295.189.558.471.654a1.705 1.705 0 0 1 1.098 2.053h8.727l.3-.693h-2.242a.757.757 0 1 1 0-1.511h3.497a.76.76 0 0 1 .764.755.76.76 0 0 1-.764.756h-.285l-.46 1.065 1.913 2.704a5.113 5.113 0 0 1 2.202-.496c2.808 0 5.083 2.257 5.083 5.038s-2.275 5.038-5.083 5.038c-2.57 0-4.697-1.892-5.037-4.345h-2.98l-7.018-5.316-.404.858a5.002 5.002 0 0 1 1.71 3.765c0 2.781-2.276 5.038-5.084 5.038s-5.083-2.257-5.083-5.038 2.275-5.038 5.083-5.038c.923 0 1.79.246 2.536.672l1.53-3.252.07-.151a.685.685 0 0 0 .068-.292.696.696 0 0 0-.472-.658 1.7 1.7 0 0 1-1.157-1.606c0-1.008.826-1.825 1.843-1.825zm.377 5.664l-.52.808 6.62 5.014L25.2 20.14h-8.608zm9.547.71l-2.297 5.337h1.7a5.014 5.014 0 0 1 1.895-3.495L26.14 20.85zm-14.455 1.494c-2.335.059-4.207 1.955-4.207 4.282 0 2.364 1.933 4.278 4.32 4.278 2.387 0 4.323-1.914 4.323-4.278a4.253 4.253 0 0 0-1.287-3.048l-.971 2.067c-.16.34-.422.621-.75.809l-1.062.608a.509.509 0 0 1-.693-.183.502.502 0 0 1 .187-.689l1.059-.608a.824.824 0 0 0 .337-.362l1.07-2.271a4.337 4.337 0 0 0-2.213-.605h-.113zm18.926 0c-.625 0-1.218.132-1.755.37l2.483 3.515a.687.687 0 0 1-.172.963.705.705 0 0 1-.401.127h-4.422c.335 2.034 2.119 3.585 4.267 3.585 2.387 0 4.32-1.914 4.32-4.278s-1.933-4.282-4.32-4.282zm-2.733.963a4.276 4.276 0 0 0-1.569 2.88h3.602l-2.033-2.88zm-3.623 16.674v13.124h6.567L20.314 71.291 9.806 53.105h6.568v-13.11l7.88-.014z" fill="#0D69E1" fill-rule="nonzero"/><path d="M71.033 2.858L2.865 70.98v3.312a2.807 2.807 0 0 0 2.815 2.812h3.313L77.161 8.982V5.67a2.807 2.807 0 0 0-2.814-2.812h-3.314z" fill="red" fill-rule="nonzero"/></g></svg>