<svg width="100" height="86" xmlns="http://www.w3.org/2000/svg"><g fill="none" fill-rule="evenodd"><path d="M55.464 6.502c3.267 5.663 6.466 11.286 11.217 19.692l4.76 8.425c10.212 18.068 16.33 28.664 23.07 39.766 2.228 3.668-.924 8.996-5.175 8.996H10.534c-4.251 0-7.403-5.328-5.176-8.996 6.738-11.099 12.84-21.67 23.068-39.763l4.632-8.2c4.828-8.54 8.048-14.2 11.348-19.92 2.852-4.943 8.207-4.943 11.058 0z" stroke="#0C0E0F"/><path d="M11.61 73.352l-.003.006-.556.967-.016.028a108.335 108.335 0 0 1-1.5 2.568c-.22.362.5 1.574 1 1.574h78.8c.5 0 1.22-1.212 1-1.575-.436-.718-.772-1.295-1.502-2.57l-.02-.036c-.266-.463-.396-.69-.554-.962L51.232 8.943c-.918-1.591-1.675-1.591-2.591-.003L11.61 73.352z" stroke="red" stroke-width="6" fill="#FFF"/><g fill="#000" fill-rule="nonzero"><path d="M37.124 42.945c-.42 0-.869.32-1.006.718l-.511 1.479-1.053 3.054-.004.008-.246.71c-.601 0-1.084.487-1.084 1.088v4.342c0 .601.483 1.084 1.084 1.084h7.232a1.225 1.225 0 0 0-.015.176v4.864c0 .674.543 1.213 1.217 1.213h6.897v4.822c0 .745.6 1.346 1.345 1.346h20.191c.746 0 1.346-.6 1.346-1.346V61.12c0-.746-.6-1.346-1.346-1.346l-.304-.882-.004-.011-1.307-3.788-.632-1.83c-.17-.493-.726-.893-1.248-.893H60.276l-.764-2.212-.57-1.65c-.154-.446-.656-.807-1.127-.807h-7.646l-.886-2.56-.507-1.478c-.137-.398-.585-.718-1.006-.718H37.125zm.332 1.085h9.982c.21 0 .435.16.504.359l1.143 3.312h-3.191c-.472 0-.974.361-1.128.807l-.14.406h-9.234l1.56-4.525a.567.567 0 0 1 .504-.36zm8.804 4.888H57.444c.236 0 .489.179.566.402l1.053 3.05h-4.587c-.522 0-1.079.4-1.249.893l-.386 1.124h-8.89l1.748-5.067a.524.524 0 0 1 .152-.227.694.694 0 0 1 .148-.105.572.572 0 0 1 .261-.07zm8.625 4.798H67.267c.26 0 .539.198.624.444l1.934 5.614H52.326l1.857-5.387.078-.227a.703.703 0 0 1 .624-.444z"/><path d="M34.305 55.971v2.17a1.628 1.628 0 0 0 3.257 0v-2.17h-3.257zM42.736 62.278v2.431a1.824 1.824 0 1 0 3.648 0v-2.431h-3.648zM50.98 68.522v2.692a2.019 2.019 0 1 0 4.038 0v-2.692h-4.037zM67.132 68.522v2.692a2.019 2.019 0 1 0 4.038 0v-2.692h-4.038z"/></g></g></svg>