<svg width="108" height="151" xmlns="http://www.w3.org/2000/svg"><g transform="translate(9 7)" fill-rule="nonzero" fill="none"><rect fill="#FFF" x="1.373" y="1.373" width="87.843" height="134.902" rx="2"/><g fill="#000"><path d="M24.853 16.853h1.522c.61.007 1.124.204 1.544.592.419.387.637.923.655 1.606-.021.603-.275 1.09-.761 1.46-.486.369-1.078.56-1.776.57-1.265-.064-2.202-.317-2.811-.761-.61-.444-.913-.698-.91-.761l-1.521 1.86c.031.078.517.388 1.458.93.94.543 2.146.853 3.615.93 1.617-.063 2.864-.528 3.742-1.395.877-.867 1.321-1.754 1.332-2.663-.036-.894-.284-1.587-.746-2.08-.461-.493-.923-.835-1.384-1.027-.461-.192-.71-.284-.745-.276.029.01.233-.066.613-.225.38-.16.76-.46 1.14-.902.38-.442.585-1.08.614-1.917-.014-1.043-.408-1.917-1.184-2.621-.775-.705-1.846-1.071-3.213-1.1-1.378.064-2.493.318-3.346.762-.853.444-1.291.697-1.317.76l1.28 1.982c-.006-.055.262-.272.804-.653.543-.38 1.402-.598 2.58-.652.905.046 1.504.293 1.796.74.292.447.426.82.402 1.12.007.293-.134.638-.423 1.036s-.768.617-1.438.656h-1.522v2.029zM38.857 9.074c-1.857.05-3.24.745-4.149 2.083-.909 1.338-1.362 3.011-1.359 5.02-.003 2.008.45 3.68 1.359 5.019.909 1.337 2.292 2.032 4.15 2.083 1.857-.05 3.24-.746 4.149-2.083.909-1.338 1.362-3.011 1.359-5.02.003-2.008-.45-3.68-1.36-5.019-.908-1.338-2.291-2.032-4.149-2.083zm0 2.198c.948.014 1.716.451 2.305 1.31.588.86.891 2.058.909 3.594-.018 1.537-.321 2.735-.91 3.594-.588.86-1.356 1.297-2.304 1.31-.947-.013-1.715-.45-2.304-1.31-.588-.86-.891-2.057-.909-3.594.018-1.536.32-2.734.91-3.593.588-.86 1.356-1.297 2.303-1.31zM47.466 22.941h2.367v-6.088h5.074v6.088h2.367V9.412h-2.367v5.412h-5.074V9.412h-2.367zM64.529 18.206l1.691-5.75 1.691 5.75H64.53zm.338-8.794l-4.397 13.53h2.537l.845-2.707h4.736l.845 2.706h2.537l-4.397-13.53h-2.706z"/></g><path d="M45.294 37.647c-18.843 0-34.118 15.275-34.118 34.118 0 18.842 15.275 34.117 34.118 34.117 18.843 0 34.118-15.275 34.118-34.117 0-18.843-15.275-34.118-34.118-34.118zm0 5.768c15.657 0 28.35 12.693 28.35 28.35 0 15.657-12.693 28.349-28.35 28.349-15.657 0-28.35-12.692-28.35-28.35 0-15.656 12.693-28.349 28.35-28.349z" fill="#7F7F7F"/><g fill="#7F7F7F"><path d="M27.352 60.807l1.655 3.712c.857-.755 1.692-1.303 2.505-1.644.812-.34 1.826-.509 3.041-.503.815.02 1.533.294 2.153.822.62.528.945 1.194.978 1.996-.04.978-.587 1.918-1.644 2.818-1.056.9-2.387 1.526-3.992 1.878v3.444c.318-.15.667-.241 1.046-.274.38-.032.761-.045 1.146-.039 1.965.086 3.212.563 3.74 1.431.529.869.758 1.614.688 2.237-.067 1.445-.615 2.502-1.644 3.17-1.028.668-2.27.998-3.723.99a18.215 18.215 0 0 1-3.355-.308c-1.168-.212-2.152-.571-2.952-1.08l.537 4.384c.11.045.863.224 2.259.537 1.396.313 2.775.492 4.137.537 2.986-.105 5.266-.992 6.838-2.662s2.364-3.496 2.376-5.479c-.046-1.353-.456-2.474-1.23-3.363-.773-.889-1.633-1.569-2.58-2.04-.948-.472-1.705-.758-2.273-.859 1.304-.182 2.452-.835 3.444-1.956.991-1.122 1.513-2.557 1.565-4.305-.084-1.744-.81-3.121-2.18-4.132-1.37-1.011-2.88-1.527-4.529-1.549-1.331.035-2.783.29-4.355.766-1.572.476-2.79.966-3.651 1.47zM55.14 58.928c-2.543.065-4.578 1.265-6.105 3.6-1.526 2.336-2.309 5.414-2.348 9.237.04 3.822.822 6.9 2.348 9.236 1.527 2.335 3.562 3.535 6.106 3.6 2.543-.065 4.579-1.265 6.105-3.6 1.526-2.335 2.309-5.414 2.348-9.236-.04-3.646-.822-6.675-2.348-9.086-1.526-2.41-3.562-3.66-6.105-3.751zm0 3.891c1.227-.018 2.207.69 2.941 2.125.735 1.435 1.111 3.708 1.13 6.82-.019 3.113-.395 5.387-1.13 6.822-.734 1.435-1.714 2.143-2.94 2.124-1.227.019-2.207-.69-2.941-2.124-.735-1.435-1.111-3.709-1.13-6.821.019-3.113.395-5.386 1.13-6.821.734-1.435 1.714-2.143 2.94-2.125z"/></g><path d="M5.294 1.373a3.913 3.913 0 0 0-3.921 3.921v127.059a3.913 3.913 0 0 0 3.921 3.922h80a3.913 3.913 0 0 0 3.922-3.922V5.294a3.913 3.913 0 0 0-3.922-3.921h-80zm0 1.568h80c1.22 0 2.221.921 2.343 2.108L2.941 99.819V5.294a2.348 2.348 0 0 1 2.353-2.353zm82.353 5.476v3.97L2.941 107.172V103.2L87.647 8.417zm0 7.353v3.97L2.941 114.525v-3.971L87.647 15.77zm0 7.353v3.97L2.941 121.877v-3.97l84.706-94.784zm0 7.352v3.971L2.941 129.23v-3.97l84.706-94.785zm0 7.353v94.525a2.348 2.348 0 0 1-2.353 2.353h-80a2.35 2.35 0 0 1-2.343-2.108l84.696-94.77z" fill="#000"/></g></svg>