<svg width="64" height="93" xmlns="http://www.w3.org/2000/svg"><g transform="translate(5 4)" fill="none" fill-rule="evenodd"><rect fill="#FFF" fill-rule="nonzero" width="53" height="81.09" rx="6"/><rect stroke="#000" x=".5" y=".5" width="53" height="80.09" rx="6"/><g fill-rule="nonzero"><path d="M3 75.82C3 77.024 3.96 78 5.143 78h43.714C50.041 78 51 77.024 51 75.82V5.18C51 3.976 50.04 3 48.857 3H5.143C3.959 3 3 4.037 3 5.18v70.64zm3.107-22.402V17.77c0-1.896 1.511-3.434 3.375-3.434h35.036c1.864 0 3.375 1.538 3.375 3.434v35.647c0 1.896-1.511 3.434-3.375 3.434H9.482c-1.864 0-3.375-1.538-3.375-3.434z" fill="#0D69E1"/><g fill="#000"><path d="M25.294 30.5l-.96 1.667H21.61c-.479 0-.99.366-1.147.82l-.58 1.677-1.2 3.478c-.002.003-.002.008-.003.01l-.278.81c-.685 0-1.236.55-1.236 1.235v4.94c0 .683.551 1.235 1.236 1.235H36.93c.684 0 1.236-.552 1.236-1.236v-4.939c0-.684-.552-1.236-1.236-1.236l-.278-.808-.003-.011-1.2-3.478-.58-1.678c-.157-.453-.669-.82-1.148-.82H31l-.961-1.666h-4.745zm-3.308 2.903h11.361c.24 0 .494.182.572.408l1.778 5.15h-16.06l1.777-5.15a.644.644 0 0 1 .572-.408zm13.092 6.73a1.853 1.853 0 1 1 0 3.706 1.853 1.853 0 0 1 0-3.706zm-14.92.064h.098a1.853 1.853 0 1 1-1.853 1.853c0-.991.776-1.803 1.755-1.853zM18.402 46.99v2.47a1.853 1.853 0 0 0 3.706 0v-2.47h-3.706zM33.225 46.99v2.47a1.853 1.853 0 0 0 3.706 0v-2.47h-3.706zM14.333 19.667v.982h1.505v4.018h1.072v-4.018h1.492v-.982zM21.41 19.488c-.44.01-.809.08-1.105.212-.295.132-.552.27-.77.413l.536.893c.14-.143.33-.28.57-.413.24-.132.496-.203.77-.212.278.013.524.099.736.257.212.158.324.31.335.457v.357c-.038-.009-.3.02-.787.086a4.443 4.443 0 0 0-1.462.483c-.487.255-.75.661-.787 1.217.022.536.201.938.536 1.205.335.268.692.402 1.071.402.361-.01.666-.1.915-.268.25-.167.42-.346.514-.535.044.346.156.569.335.67.178.1.424.144.736.133l.447-.893a.541.541 0 0 1-.29-.055c-.097-.047-.15-.177-.157-.391v-2.41c-.033-.458-.279-.838-.736-1.14-.458-.3-.927-.457-1.407-.468zm1.072 2.768v.893c-.015.072-.142.217-.38.435-.238.218-.498.34-.78.368-.109.006-.25-.05-.425-.167s-.272-.33-.29-.636a.596.596 0 0 1 .387-.55c.243-.104.51-.175.803-.21.293-.037.521-.08.685-.133zM25.294 19.667v5h1.072v-2.322l.138-.017c.047-.005.09-.008.13-.008.492.034.866.297 1.12.79.255.494.536 1.012.844 1.557h1.34a3.997 3.997 0 0 1-.753-1.076 9.254 9.254 0 0 0-.639-1.123 1.54 1.54 0 0 0-.93-.658c.215-.064.405-.198.57-.402.166-.203.34-.402.526-.596.185-.194.415-.308.69-.342l-.268-.893c-.371.052-.706.228-1.005.53-.299.3-.58.597-.843.889-.264.291-.528.447-.793.47l-.063-.002a.266.266 0 0 1-.064-.012v-1.785h-1.072zM33.277 19.488c-.686.011-1.256.257-1.708.737-.452.48-.686 1.127-.703 1.942.017.814.251 1.462.703 1.942.452.48 1.022.725 1.708.736.503-.003.941-.137 1.315-.4s.65-.636.828-1.118l-1.008-.382c-.097.326-.243.576-.438.747a1.026 1.026 0 0 1-.697.26c-.365-.007-.662-.17-.893-.49-.23-.32-.35-.752-.357-1.295.007-.543.126-.975.357-1.295.23-.32.528-.484.893-.491.27.001.502.088.697.26.195.172.34.421.438.748l1.008-.383c-.178-.482-.454-.854-.828-1.118-.374-.263-.812-.396-1.315-.4zM36.714 19.667v5l1.161.001 2.054-3.394v3.393H41v-5h-1.161l-2.053 3.393v-3.393z"/></g></g></g></svg>