<svg width="115" height="151" xmlns="http://www.w3.org/2000/svg"><g transform="translate(13 7)" fill="none" fill-rule="evenodd"><rect fill="#FFF" fill-rule="nonzero" x=".373" y=".373" width="87.843" height="134.902" rx="2"/><g fill="#000" fill-rule="nonzero"><path d="M23.853 15.853h1.522c.61.007 1.124.204 1.544.592.419.387.637.923.655 1.606-.021.603-.275 1.09-.761 1.46-.486.369-1.078.56-1.776.57-1.265-.064-2.202-.317-2.811-.761-.61-.444-.913-.698-.91-.761l-1.521 1.86c.031.078.517.388 1.458.93.94.543 2.146.853 3.615.93 1.617-.063 2.864-.528 3.742-1.395.877-.867 1.321-1.754 1.332-2.663-.036-.894-.284-1.587-.746-2.08-.461-.493-.923-.835-1.384-1.027-.461-.192-.71-.284-.745-.276.029.01.233-.066.613-.225.38-.16.76-.46 1.14-.902.38-.442.585-1.08.614-1.917-.014-1.043-.408-1.917-1.184-2.621-.775-.705-1.846-1.071-3.213-1.1-1.378.064-2.493.318-3.346.762-.853.444-1.291.697-1.317.76l1.28 1.982c-.006-.055.262-.272.804-.653.543-.38 1.402-.598 2.58-.652.905.046 1.504.293 1.796.74.292.447.426.82.402 1.12.007.293-.134.638-.423 1.036s-.768.617-1.438.656h-1.522v2.029zM37.857 8.074c-1.857.05-3.24.745-4.149 2.083-.909 1.338-1.362 3.011-1.359 5.02-.003 2.008.45 3.68 1.359 5.019.909 1.337 2.292 2.032 4.15 2.083 1.857-.05 3.24-.746 4.149-2.083.909-1.338 1.362-3.011 1.359-5.02.003-2.008-.45-3.68-1.36-5.019-.908-1.338-2.291-2.032-4.149-2.083zm0 2.198c.948.014 1.716.451 2.305 1.31.588.86.891 2.058.909 3.594-.018 1.537-.321 2.735-.91 3.594-.588.86-1.356 1.297-2.304 1.31-.947-.013-1.715-.45-2.304-1.31-.588-.86-.891-2.057-.909-3.594.018-1.536.32-2.734.91-3.593.588-.86 1.356-1.297 2.303-1.31zM46.466 21.941h2.367v-6.088h5.074v6.088h2.367V8.412h-2.367v5.412h-5.074V8.412h-2.367zM63.529 17.206l1.691-5.75 1.691 5.75H63.53zm.338-8.794l-4.397 13.53h2.537l.845-2.707h4.736l.845 2.706h2.537l-4.397-13.53h-2.706z"/></g><g fill="#000" fill-rule="nonzero"><path d="M23.853 15.853h1.522c.61.007 1.124.204 1.544.592.419.387.637.923.655 1.606-.021.603-.275 1.09-.761 1.46-.486.369-1.078.56-1.776.57-1.265-.064-2.202-.317-2.811-.761-.61-.444-.913-.698-.91-.761l-1.521 1.86c.031.078.517.388 1.458.93.94.543 2.146.853 3.615.93 1.617-.063 2.864-.528 3.742-1.395.877-.867 1.321-1.754 1.332-2.663-.036-.894-.284-1.587-.746-2.08-.461-.493-.923-.835-1.384-1.027-.461-.192-.71-.284-.745-.276.029.01.233-.066.613-.225.38-.16.76-.46 1.14-.902.38-.442.585-1.08.614-1.917-.014-1.043-.408-1.917-1.184-2.621-.775-.705-1.846-1.071-3.213-1.1-1.378.064-2.493.318-3.346.762-.853.444-1.291.697-1.317.76l1.28 1.982c-.006-.055.262-.272.804-.653.543-.38 1.402-.598 2.58-.652.905.046 1.504.293 1.796.74.292.447.426.82.402 1.12.007.293-.134.638-.423 1.036s-.768.617-1.438.656h-1.522v2.029zM37.857 8.074c-1.857.05-3.24.745-4.149 2.083-.909 1.338-1.362 3.011-1.359 5.02-.003 2.008.45 3.68 1.359 5.019.909 1.337 2.292 2.032 4.15 2.083 1.857-.05 3.24-.746 4.149-2.083.909-1.338 1.362-3.011 1.359-5.02.003-2.008-.45-3.68-1.36-5.019-.908-1.338-2.291-2.032-4.149-2.083zm0 2.198c.948.014 1.716.451 2.305 1.31.588.86.891 2.058.909 3.594-.018 1.537-.321 2.735-.91 3.594-.588.86-1.356 1.297-2.304 1.31-.947-.013-1.715-.45-2.304-1.31-.588-.86-.891-2.057-.909-3.594.018-1.536.32-2.734.91-3.593.588-.86 1.356-1.297 2.303-1.31zM46.466 21.941h2.367v-6.088h5.074v6.088h2.367V8.412h-2.367v5.412h-5.074V8.412h-2.367zM63.529 17.206l1.691-5.75 1.691 5.75H63.53zm.338-8.794l-4.397 13.53h2.537l.845-2.707h4.736l.845 2.706h2.537l-4.397-13.53h-2.706z"/></g><path d="M44.294 38.597c-17.766 0-32.168 14.402-32.168 32.168s14.402 32.168 32.168 32.168S76.462 88.53 76.462 70.765 62.06 38.597 44.294 38.597zm-1.1 9.44c1.024 0 5.03.923 5.03 4.182 0 1.326-.857 3.467-2.72 3.467-1.324 0-5.536-2.074-5.536-4.676 0-2.265 2.017-2.973 3.226-2.973zm-.8 8.225c.38 0 .758.095 1.099.292l2.836 1.636c.34.196.551.563.551.956V70.85l5.697 5.7 3.131 12.526a2.092 2.092 0 1 1-4.057 1.014l-2.486-9.95-8.95-8.952a1.098 1.098 0 0 1-.323-.777v-9.236l-3.411 1.971v7.067a1.651 1.651 0 0 1-3.303 0V62.51c0-.786.42-1.51 1.1-1.903l7.013-4.052c.34-.197.722-.292 1.102-.292zm5.687 7.646l6.183 6.187a1.651 1.651 0 0 1-1.167 2.818 1.64 1.64 0 0 1-1.163-.488l-3.853-3.847v-4.67zm-7.552 9.15l3.061 3.062-8.383 14.51-.024-.013a2.09 2.09 0 1 1-3.421-2.373l8.767-15.186z" fill="#7F7F7F" fill-rule="nonzero"/><path d="M78.255 70.765c0 18.756-15.205 33.96-33.96 33.96-18.757 0-33.962-15.204-33.962-33.96s15.205-33.961 33.961-33.961 33.96 15.205 33.96 33.96z" stroke="#7F7F7F" stroke-width="2.041"/><path d="M44.294 107.824a11.78 11.78 0 0 0-3.048.4l1.332 8.392-6.599-5.349a11.754 11.754 0 0 0-3.051 5.279l7.935 3.042-7.935 3.042a11.751 11.751 0 0 0 3.051 5.28l6.6-5.35-1.333 8.395c.972.26 1.994.398 3.048.398a11.78 11.78 0 0 0 3.049-.401l-1.333-8.392 6.6 5.35a11.754 11.754 0 0 0 3.05-5.28l-7.935-3.042 7.936-3.042a11.754 11.754 0 0 0-3.052-5.279l-6.6 5.35 1.334-8.392a11.78 11.78 0 0 0-3.049-.401z" fill="red" fill-rule="nonzero"/><path d="M4.294.373C2.122.373.373 2.143.373 4.344v128.684c0 2.2 1.749 3.972 3.921 3.972h80c2.173 0 3.922-1.771 3.922-3.972V4.344c0-2.2-1.75-3.971-3.922-3.971h-80zm0 1.588h80c1.22 0 2.221.933 2.343 2.135L1.941 100.078V4.344c0-1.32 1.05-2.383 2.353-2.383zm82.353 5.546v4.021L1.941 107.525v-4.022L86.647 7.507zm0 7.447v4.021L1.941 114.972v-4.022l84.706-95.996zm0 7.447v4.021L1.941 122.42v-4.022l84.706-95.996zm0 7.447v4.021L1.941 129.866v-4.022l84.706-95.996zm0 7.447v95.733c0 1.32-1.05 2.383-2.353 2.383h-80c-1.22 0-2.22-.932-2.343-2.134l84.696-95.982z" fill="#000" fill-rule="nonzero"/></g></svg>