<svg width="159" height="65" xmlns="http://www.w3.org/2000/svg"><g transform="translate(2 6)" fill="none" fill-rule="evenodd"><rect fill="#FFF" fill-rule="nonzero" x="1" y="1" width="153" height="52" rx="6.3"/><path d="M8.048 3C5.251 3 3 5.27 3 8.09v37.82C3 48.73 5.251 51 8.048 51H112.81L153 27 112.81 3H8.047zm86.9 6.182h17.667v35.636H94.947V9.182zm-61.403 1.145c1.68 0 3.832 2.083 3.832 4.391 0 2.295-1.894 3.514-2.84 3.514-1.447 0-3.065-3.397-3.065-5.291.037-1.57.84-2.614 2.073-2.614zm-10.384 6.396h8.18c.027 0 .055-.002.081 0 .395.03.752.28.951.668l1.096 2.114c.212.412.212.923 0 1.336l-3.683 7.136 5.558 3.591c.368.238.595.678.595 1.155v10.572c0 .983-.71 1.778-1.587 1.778s-1.59-.795-1.59-1.778v-9.29L25.792 29.5c-.95-.614-1.274-1.973-.726-3.036l3.417-6.628h-4.3l-3.574 4c-.582.652-1.524.652-2.105 0-.582-.65-.582-1.707 0-2.359l3.957-4.432a.932.932 0 0 1 .699-.322zm11.051 4.672l2.155 4.182 3.344-2.163c.712-.46 1.622-.189 2.033.609.411.797.167 1.821-.545 2.282l-4.882 3.154c-.474.307-1.082.123-1.356-.409l-2.353-4.545 1.604-3.11zm44.834 1.15L84.85 27l-5.805 4.455V28.59H52.038v-3.182h27.008v-2.864zm-63.34 7.369c.035-.002.068-.001.103 0 .256.007.516.082.753.236l6.35 4.11 2.065-4 2.75 1.776-3.151 6.114c-.274.532-.882.716-1.357.41l-8.248-5.328c-.76-.491-1.02-1.581-.581-2.432.282-.548.79-.863 1.316-.886zm54.681 3.322c1.026.037 1.846.548 2.461 1.528.615.98.931 2.208.947 3.69-.016 1.554-.332 2.806-.947 3.755-.615.95-1.435 1.437-2.46 1.464-1.026-.027-1.846-.515-2.462-1.464-.615-.95-.93-2.2-.946-3.754.016-1.554.331-2.806.946-3.755.616-.95 1.436-1.437 2.461-1.464zm-15.793.128h1.514v10.181h-1.766v-7.89l-1.353.854-.594-.782 2.2-2.363zm4.282 0h5.805l-.505 1.654h-3.66v2.418c.198-.249.45-.419.749-.509.3-.09.595-.132.892-.127.734.005 1.414.281 2.037.827.624.546.953 1.331.992 2.355-.013 1.045-.363 1.914-1.055 2.609-.691.695-1.645 1.055-2.857 1.082a6.311 6.311 0 0 1-1.623-.255c-.486-.148-.746-.233-.775-.254l-.253-1.655a2.9 2.9 0 0 0 1.118.414c.43.07.856.1 1.28.095.537 0 1.041-.159 1.515-.477.473-.318.725-.796.757-1.432a2.066 2.066 0 0 0-.455-1.286c-.303-.39-.741-.6-1.312-.623-.378.024-.694.138-.946.336-.253.2-.442.34-.568.428l-1.136-.637v-4.963zm11.511 1.454c-.494-.007-.89.28-1.185.864-.296.583-.448 1.507-.455 2.773.007 1.265.159 2.189.455 2.772.296.584.691.871 1.185.864.495.007.89-.28 1.186-.864.296-.583.447-1.507.455-2.772-.008-1.266-.16-2.19-.455-2.773-.296-.584-.691-.871-1.186-.864zm6.049 1.6h1.514l1.767 3.564 1.767-3.564h1.514l.632 7.127h-1.515l-.379-4.963-2.019 4.073-2.019-4.073-.379 4.963h-1.514l.631-7.127z" fill="#00A500" fill-rule="nonzero"/><rect stroke="#000" x=".5" y=".5" width="154" height="53" rx="6.16"/></g></svg>