<svg width="100" height="86" xmlns="http://www.w3.org/2000/svg"><g fill="none" fill-rule="evenodd"><path d="M90 43c0 22.091-17.909 40-40 40S10 65.091 10 43 27.909 3 50 3s40 17.909 40 40z" fill="#FFF" fill-rule="nonzero"/><path d="M90.386 43c0 22.304-18.082 40.386-40.386 40.386C27.696 83.386 9.614 65.304 9.614 43 9.614 20.696 27.696 2.614 50 2.614c22.304 0 40.386 18.082 40.386 40.386z" stroke="#000"/><path d="M50 5.286C29.171 5.286 12.286 22.17 12.286 43c0 20.829 16.885 37.714 37.714 37.714 20.829 0 37.714-16.885 37.714-37.714C87.714 22.171 70.83 5.286 50 5.286zm.629 3.132c.986 0 2.632.58 2.632 2.428 0 2.124-3.438 3.815-4.518 3.815-1.52 0-2.218-1.747-2.218-2.829 0-2.66 3.268-3.414 4.104-3.414zm.653 6.714c.31 0 .619.079.897.24l5.725 3.303c.555.32.896.915.896 1.557v6.286a1.346 1.346 0 1 1-2.693 0V20.75l-2.786-1.607v7.536a.893.893 0 0 1-.264.632l-7.3 7.307-2.028 8.118a1.71 1.71 0 0 1-3.315-.829l2.497-9.978a.902.902 0 0 1 .25-.429l4.46-4.464v-9.55c0-.321.169-.618.447-.779l2.318-1.336c.278-.16.586-.239.896-.239zm-4.643 6.24v3.81l-3.143 3.14a1.346 1.346 0 1 1-1.904-1.9l5.047-5.05zm6.165 7.467l7.153 12.393c.248.296.4.676.4 1.093a1.708 1.708 0 0 1-3.193.843l-.018.01-6.842-11.842 2.5-2.497zM43.254 49.4c.041-.002.086 0 .128 0h3.247a.672.672 0 1 1 0 1.346h-3.247a1.1 1.1 0 0 0-1.1 1.097c0 .396.254.75.629.878a2.278 2.278 0 0 1 1.535 2.154c0 .201-.03.4-.082.593H55.95l.396-.929h-2.975a1.01 1.01 0 1 1 0-2.021h4.64c.559 0 1.014.452 1.014 1.01 0 .56-.455 1.011-1.014 1.011h-.379l-.607 1.429 2.536 3.621a6.747 6.747 0 1 1-3.764 7.01l-3.954.001-9.31-7.121-.537 1.15a6.744 6.744 0 0 1-4.475 11.79 6.747 6.747 0 0 1 0-13.494c1.225 0 2.37.33 3.361.9l2.032-4.357.097-.2a.929.929 0 0 0-.54-1.271 2.278 2.278 0 0 1-1.535-2.154 2.444 2.444 0 0 1 2.318-2.443zm.625 7.586l-.686 1.082 8.786 6.718 3.328-7.8H43.88zm12.671.95l-3.05 7.146h2.257a6.738 6.738 0 0 1 2.518-4.682l-1.725-2.464zm-19.179 2.003a5.734 5.734 0 0 0-5.585 5.732 5.734 5.734 0 1 0 11.468 0 5.71 5.71 0 0 0-1.704-4.078l-1.293 2.768a2.438 2.438 0 0 1-.993 1.082l-1.407.814a.678.678 0 0 1-.925-.246.675.675 0 0 1 .25-.922l1.407-.814c.195-.112.352-.282.447-.486l1.418-3.043a5.698 5.698 0 0 0-2.933-.807h-.15zm25.108 0c-.83 0-1.617.176-2.329.493l3.296 4.707a.929.929 0 0 1-.76 1.461H56.82a5.735 5.735 0 1 0 5.658-6.66zm-3.622 1.29a5.735 5.735 0 0 0-2.082 3.853h4.779l-2.697-3.853z" fill="#0D69E1" fill-rule="nonzero"/><path d="M73.964 13.875l-53.089 53.09a37.969 37.969 0 0 0 5.079 5.089l53.171-53.018a37.972 37.972 0 0 0-5.16-5.161z" fill="red" fill-rule="nonzero"/></g></svg>