<svg width="245" height="191" xmlns="http://www.w3.org/2000/svg"><g fill="none" fill-rule="evenodd"><g transform="translate(13 9)"><rect fill="#FFF" fill-rule="nonzero" x=".124" y="2" width="219.876" height="122" rx="6"/><path d="M44.494 13.124a3.7 3.7 0 0 0-3.707 3.707v15.697a3.7 3.7 0 0 0 3.707 3.708h117.91a3.7 3.7 0 0 0 3.708-3.708V16.831a3.7 3.7 0 0 0-3.708-3.707H44.494zm40.177 5.005c1.696.047 2.962.682 3.792 1.904.83 1.223 1.243 2.75 1.24 4.585.003 1.835-.41 3.362-1.24 4.585-.83 1.222-2.096 1.857-3.792 1.904-1.697-.047-2.959-.682-3.79-1.904-.83-1.223-1.246-2.75-1.243-4.585-.003-1.835.413-3.362 1.244-4.585.83-1.222 2.092-1.857 3.789-1.904zm35.186 0c1.696.047 2.958.682 3.789 1.904.83 1.223 1.246 2.75 1.243 4.585.003 1.835-.413 3.362-1.243 4.585-.83 1.222-2.093 1.857-3.79 1.904-1.696-.047-2.962-.682-3.792-1.904-.83-1.223-1.243-2.75-1.24-4.585-.003-1.835.41-3.362 1.24-4.585.83-1.222 2.096-1.857 3.793-1.904zm24.603 0c1.697.047 2.962.682 3.793 1.904.83 1.223 1.242 2.75 1.24 4.585.002 1.835-.41 3.362-1.24 4.585-.83 1.222-2.096 1.857-3.793 1.904-1.697-.047-2.959-.682-3.789-1.904-.83-1.223-1.246-2.75-1.244-4.585-.002-1.835.414-3.362 1.244-4.585.83-1.222 2.092-1.857 3.789-1.904zm-98.39.31h2.163v4.943h4.635v-4.944h2.163v12.36h-2.163v-5.562h-4.635v5.562H46.07v-12.36zm21.517 0h2.163v4.943h4.635v-4.944h2.163v12.36h-2.163v-5.562H69.75v5.562h-2.163v-12.36zm25.21 0h4.79c1.164.039 2.055.4 2.676 1.085.621.685.936 1.457.942 2.313-.006.48-.166.95-.479 1.41a3.02 3.02 0 0 1-1.286 1.062c.631.232 1.146.58 1.545 1.043.4.463.605 1.043.618 1.738-.023 1.033-.404 1.902-1.14 2.607-.734.705-1.687 1.072-2.857 1.1h-4.809V18.439zm12 0h7.725v1.853h-5.562v10.506h-2.163v-12.36zm23.182 0h4.172c1.525.07 2.607.546 3.244 1.428.637.882.946 1.745.927 2.588-.02.843-.406 1.706-1.159 2.588-.753.882-1.757 1.358-3.012 1.429h-2.009v4.326h-2.163v-12.36zm26.461 0h7.262v10.505h1.39v4.017h-1.854v-2.163h-7.725v2.163h-1.854v-4.017h1.39c.213-.538.423-1.294.634-2.267.212-.974.39-2.027.533-3.16.143-1.133.219-2.209.224-3.225v-1.854zm-69.77 1.699c-.865.013-1.567.412-2.104 1.197-.538.785-.815 1.88-.83 3.283.015 1.403.292 2.498.83 3.283.537.785 1.239 1.184 2.105 1.197.865-.013 1.567-.412 2.105-1.197.537-.785.814-1.88.83-3.283-.016-1.403-.293-2.498-.83-3.283-.538-.785-1.24-1.184-2.105-1.197zm35.187 0c-.866.013-1.568.412-2.105 1.197-.538.785-.815 1.88-.83 3.283.015 1.403.292 2.498.83 3.283.537.785 1.239 1.184 2.105 1.197.866-.013 1.567-.412 2.105-1.197.537-.785.814-1.88.83-3.283-.016-1.403-.293-2.498-.83-3.283-.538-.785-1.24-1.184-2.105-1.197zm24.603 0c-.866.013-1.568.412-2.105 1.197-.538.785-.814 1.88-.83 3.283.016 1.403.292 2.498.83 3.283.537.785 1.24 1.184 2.105 1.197.866-.013 1.567-.412 2.105-1.197.537-.785.814-1.88.83-3.283-.016-1.403-.293-2.498-.83-3.283-.538-.785-1.24-1.184-2.105-1.197zm-49.5.154v3.179h2.472c.47-.008.843-.158 1.12-.448.277-.29.418-.672.425-1.143-.016-.54-.177-.937-.483-1.198a1.58 1.58 0 0 0-1.062-.39H94.96zm35.182 0v4.326h1.39c.644.006 1.21-.16 1.7-.502.49-.341.747-.895.773-1.66-.026-.767-.284-1.32-.773-1.662-.49-.34-1.056-.508-1.7-.502h-1.39zm26.461 0a29.213 29.213 0 0 1-.413 4.674c-.268 1.596-.615 2.922-1.043 3.978h4.392v-8.652h-2.936zM94.96 25.236v3.708h2.626c.618-.022 1.082-.22 1.39-.595.31-.375.464-.796.464-1.26 0-.463-.154-.883-.463-1.258-.31-.375-.773-.573-1.39-.595H94.96zm-35.823 2.978a1.35 1.35 0 0 1 1.348 1.348 1.35 1.35 0 0 1-1.348 1.348 1.341 1.341 0 0 1-.95-.398 1.338 1.338 0 0 1-.395-.95c.01-.381.141-.697.394-.95.254-.254.57-.389.95-.398zM44.494 48.287a3.7 3.7 0 0 0-3.707 3.707v15.697a3.7 3.7 0 0 0 3.707 3.708H207.64a3.7 3.7 0 0 0 3.708-3.708V51.994a3.7 3.7 0 0 0-3.708-3.707H44.494zm155.619 1.36h1.545c0 .475.154.875.463 1.196.31.322.773.49 1.39.503.619-.013 1.082-.18 1.391-.503.309-.321.464-.72.464-1.197h1.39c0 .67-.27 1.339-.811 2.008-.54.67-1.352 1.03-2.433 1.082-1.088-.052-1.925-.412-2.511-1.082-.586-.669-.882-1.338-.888-2.008zM54.35 53.353c1.697.046 2.959.68 3.79 1.9.83 1.22 1.246 2.75 1.243 4.589.003 1.838-.414 3.368-1.244 4.588-.83 1.22-2.092 1.854-3.789 1.9-1.573-.037-2.772-.585-3.6-1.649-.827-1.063-1.297-2.42-1.405-4.067h-2.102v5.407h-2.163v-12.36h2.163v5.1h2.129c.149-1.569.636-2.854 1.46-3.855.823-1.002 1.995-1.52 3.518-1.553zm76.965 0c1.697.047 2.963.682 3.793 1.904.83 1.222 1.243 2.75 1.24 4.585.003 1.834-.41 3.362-1.24 4.584-.83 1.222-2.096 1.858-3.793 1.904-1.696-.046-2.958-.682-3.789-1.904-.83-1.222-1.242-2.75-1.24-4.584-.002-1.835.41-3.363 1.24-4.585.83-1.222 2.093-1.857 3.79-1.904zm36.098 0c1.166.016 2.11.331 2.831.946.722.615 1.271 1.433 1.65 2.453l-2.075.772c-.231-.766-.546-1.32-.946-1.66-.4-.342-.887-.51-1.46-.503-.866.013-1.568.412-2.105 1.198-.538.785-.814 1.88-.83 3.283.016 1.403.292 2.497.83 3.283.537.785 1.24 1.184 2.105 1.197.573.006 1.06-.16 1.46-.502.4-.341.715-.895.946-1.66l2.074.772c-.378 1.02-.927 1.837-1.649 2.452s-1.665.93-2.831.946c-1.697-.046-2.959-.68-3.789-1.9-.83-1.22-1.246-2.75-1.244-4.588-.002-1.838.414-3.368 1.244-4.589.83-1.22 2.092-1.854 3.789-1.9zm15.492 0l.463 2.163c-.57.009-.993.156-1.274.44a8.02 8.02 0 0 0-.889 1.105c-.31.43-.665.886-1.073 1.37-.409.486-.774.751-1.09.793.745.094 1.306.384 1.685.873a11.56 11.56 0 0 1 1.096 1.753c.443.809.884 1.595 1.321 2.36.438.765.924 1.37 1.46 1.811h-2.692a48.445 48.445 0 0 0-1.062-1.853c-.482-.812-.93-1.584-1.344-2.318-.262-.49-.547-.871-.857-1.14-.311-.267-.696-.401-1.151-.405a7.849 7.849 0 0 0-.58.035c-.212.02-.328.028-.347.03v5.651h-2.163v-12.36h2.163v4.613a.19.19 0 0 0 .058.03.39.39 0 0 0 .096.016c.746-.014 1.384-.403 1.912-1.163.528-.759 1.11-1.54 1.742-2.348.631-.808 1.471-1.295 2.526-1.456zm-120.548.309h4.171c1.526.07 2.607.547 3.245 1.429.637.882.946 1.745.926 2.588-.019.843-.405 1.706-1.158 2.588-.753.881-1.758 1.358-3.013 1.429h-2.008v4.325h-2.163v-12.36zm11.63 0h2.162v4.79h2.627c1.512.05 2.542.45 3.09 1.197.547.746.804 1.532.772 2.356.02.843-.29 1.705-.927 2.587-.637.882-1.719 1.359-3.244 1.43h-4.48v-12.36zm11.158 0h7.724v2.008H87.31v2.936h4.48v1.854h-4.48v3.708h5.716v1.853h-7.88v-12.36zm11.154 0h4.79c1.164.04 2.059.4 2.68 1.085.621.685.933 1.458.939 2.314-.006.48-.163.95-.476 1.41a3.03 3.03 0 0 1-1.29 1.062c.631.231 1.146.58 1.545 1.043.4.463.606 1.042.618 1.738-.023 1.033-.4 1.902-1.135 2.607-.735.705-1.688 1.072-2.858 1.1H96.3v-12.36zm18.304 0h8.96v12.36h-2.162V55.516h-4.635v10.505h-2.163v-12.36zm26.167 0h7.725v12.36h-2.163V55.516h-3.399c.002.048-.003.467-.007 1.259-.005.792-.017 1.667-.04 2.63a36.316 36.316 0 0 1-.107 2.29c-.19 1.42-.617 2.462-1.279 3.125-.66.664-1.3 1.088-1.912 1.271-.612.183-.937.262-.98.24l-.356-2.075c.024.004.207-.063.549-.204.341-.141.7-.377 1.073-.707.374-.33.622-.778.742-1.34.05-.344.086-.997.108-1.959.022-.96.034-2.023.039-3.19.004-1.167.008-2.233.007-3.194zm11.008 0h2.163v4.79h2.626c1.513.05 2.543.45 3.09 1.197.548.746.805 1.532.773 2.356.02.843-.29 1.705-.927 2.587-.637.882-1.719 1.359-3.245 1.43h-4.48v-12.36zm35.02 0h2.163v8.497l4.48-8.497h2.318v12.36h-2.163v-8.498l-4.48 8.497h-2.318v-12.36zm12.232 0h2.163v8.497l4.48-8.497h2.318v12.36h-2.163v-8.498l-4.48 8.497h-2.318v-12.36zm-144.68 1.7c-.866.012-1.567.411-2.105 1.197-.537.785-.814 1.88-.83 3.283.016 1.403.293 2.497.83 3.283.538.785 1.24 1.184 2.105 1.197.866-.013 1.568-.412 2.105-1.197.538-.786.814-1.88.83-3.283-.016-1.404-.292-2.498-.83-3.283-.537-.786-1.24-1.185-2.105-1.198zm76.965 0c-.865.012-1.567.411-2.105 1.197-.537.785-.814 1.88-.83 3.283.016 1.403.293 2.497.83 3.283.538.785 1.24 1.184 2.105 1.197.866-.013 1.568-.412 2.105-1.197.538-.786.815-1.88.83-3.283-.015-1.404-.292-2.498-.83-3.283-.537-.786-1.239-1.185-2.105-1.198zm-66.795.154v4.326h1.39c.644.006 1.21-.161 1.7-.502.489-.342.746-.895.772-1.661-.026-.766-.283-1.32-.772-1.661-.49-.341-1.056-.509-1.7-.502h-1.39zm33.942 0v3.179h2.472c.47-.009.843-.159 1.12-.448.277-.29.419-.672.425-1.144-.016-.54-.177-.936-.483-1.197a1.58 1.58 0 0 0-1.062-.39h-2.472zm-22.313 4.79v3.862h2.163c.699 0 1.233-.155 1.603-.464.37-.309.557-.772.56-1.39-.003-.625-.19-1.114-.56-1.468-.37-.354-.904-.534-1.603-.54H76.15zm77.792 0v3.862h2.163c.698 0 1.233-.155 1.603-.464.37-.309.557-.772.56-1.39-.003-.625-.19-1.114-.56-1.468-.37-.354-.905-.534-1.603-.54h-2.163zm-55.479.154v3.708h2.627c.618-.023 1.081-.22 1.39-.595.309-.375.463-.796.463-1.26 0-.463-.154-.883-.463-1.259-.309-.375-.772-.572-1.39-.594h-2.627zm9.003.309h4.326v2.008h-4.326V60.77z" fill="#0D69E1" fill-rule="nonzero"/><g fill="#000" fill-rule="nonzero"><path d="M11.896 83.944v8.651h1.854v-6.952h4.171v-1.699zM22.79 83.635c-1.18.02-2.14.444-2.877 1.274-.737.83-1.117 1.95-1.14 3.36.023 1.41.403 2.53 1.14 3.36.737.831 1.696 1.256 2.878 1.275 1.18-.019 2.14-.444 2.877-1.274.737-.83 1.117-1.95 1.14-3.36-.023-1.41-.403-2.53-1.14-3.36-.737-.831-1.696-1.256-2.877-1.275zm0 1.545c.631.013 1.146.296 1.546.85.399.553.605 1.3.618 2.24-.013.94-.22 1.686-.618 2.24-.4.553-.915.837-1.545.85-.631-.013-1.146-.297-1.545-.85-.4-.554-.605-1.3-.618-2.24.013-.94.219-1.687.618-2.24.399-.554.914-.837 1.545-.85zM31.985 83.635c-1.187.02-2.172.444-2.954 1.274-.782.83-1.188 1.95-1.217 3.36.029 1.41.435 2.53 1.217 3.36.782.831 1.767 1.256 2.954 1.275.87-.005 1.63-.236 2.276-.692.647-.456 1.125-1.1 1.432-1.934l-1.743-.662c-.17.565-.422.996-.759 1.294a1.775 1.775 0 0 1-1.206.45c-.63-.013-1.145-.297-1.545-.85-.399-.554-.605-1.3-.618-2.24.013-.94.22-1.687.618-2.24.4-.554.915-.837 1.545-.85.467.002.869.152 1.206.45.337.297.59.728.759 1.293l1.743-.662c-.307-.833-.785-1.478-1.432-1.934-.647-.455-1.405-.686-2.276-.692zM36.118 83.944v1.7h2.605v6.951h1.853v-6.952h2.583v-1.699zM46.174 91.36a1.342 1.342 0 0 0-.394-.952 1.342 1.342 0 0 0-1.904 0 1.342 1.342 0 0 0 0 1.903 1.342 1.342 0 0 0 1.904 0c.253-.253.385-.57.394-.951zM62.683 80.236v12.36h4.812c1.17-.03 2.123-.396 2.858-1.101.735-.705 1.113-1.574 1.136-2.607-.012-.696-.218-1.275-.618-1.738-.399-.464-.914-.811-1.545-1.043a3.026 3.026 0 0 0 1.289-1.062c.312-.46.471-.93.477-1.41-.006-.856-.32-1.627-.94-2.312-.622-.685-1.515-1.047-2.68-1.087h-4.789zm2.163 1.854h2.472a1.58 1.58 0 0 1 1.062.389c.306.26.467.66.483 1.2-.006.472-.148.852-.425 1.142-.277.29-.65.439-1.12.447h-2.472V82.09zm0 4.944h2.627c.618.022 1.081.22 1.39.596.309.375.463.794.463 1.258 0 .463-.154.882-.463 1.258-.309.375-.772.574-1.39.596h-2.627v-3.708zM75.642 80.236a633.3 633.3 0 0 1-.006 3.193 171.75 171.75 0 0 1-.04 3.193c-.022.961-.058 1.613-.108 1.957-.12.562-.367 1.009-.74 1.339-.374.33-.732.565-1.073.706-.342.14-.525.21-.549.206l.353 2.074c.043.023.371-.057.984-.24.612-.183 1.249-.606 1.91-1.27.661-.664 1.087-1.705 1.277-3.124.051-.563.087-1.326.11-2.29a158.484 158.484 0 0 0 .045-3.89h3.399v10.506h2.163v-12.36h-7.725zM89.524 88.27l1.545-5.253 1.545 5.253h-3.09zm.309-8.034l-4.017 12.36h2.318l.772-2.472h4.326l.772 2.472h2.318l-4.017-12.36h-2.472zM100.6 80.236v1.854a27.003 27.003 0 0 1-.223 3.224 36.326 36.326 0 0 1-.532 3.16c-.212.974-.424 1.73-.635 2.268h-1.39v4.016h1.853v-2.162h7.725v2.162h1.854v-4.016h-1.39V80.236H100.6zm2.163 1.854h2.935v8.652h-4.392c.428-1.056.775-2.382 1.043-3.979.268-1.596.406-3.154.414-4.673zM120.173 92.595V80.236h-2.318l-4.48 8.497v-8.497h-2.163v12.36h2.318l4.48-8.498v8.497zM122.457 92.595h2.318l.772-9.115 3.244 7.261 3.245-7.26.772 9.114h2.318l-1.39-12.359h-2.164l-2.78 6.025-2.78-6.025h-2.164zM146.356 92.595V80.236h-2.318l-4.48 8.497v-8.497h-2.163v12.36h2.318l4.48-8.498v8.497zM149.258 80.236v12.36h2.163V88.27h2.008c1.256-.071 2.26-.547 3.013-1.43.753-.881 1.14-1.744 1.159-2.587.02-.843-.29-1.706-.927-2.588-.637-.882-1.719-1.358-3.245-1.429h-4.17zm2.163 1.854h1.39c.644-.007 1.21.16 1.7.502.49.341.747.895.772 1.66-.025.767-.283 1.32-.772 1.662-.49.34-1.056.508-1.7.502h-1.39V82.09z"/></g><g fill="#000" fill-rule="nonzero"><path d="M68.297 109.404h2.78l3.4-12.359h-2.318l-2.472 9.27-2.472-9.27h-2.472zM77.33 109.404h7.724v-1.854h-5.56V97.045H77.33zM91.016 105.079l1.545-5.253 1.545 5.253h-3.09zm.31-8.034l-4.017 12.36h2.317l.772-2.472h4.326l.773 2.471h2.317l-4.017-12.359h-2.472zM104.842 97.045h-4.171v12.36h4.171c1.71-.035 3.025-.618 3.945-1.75.92-1.132 1.386-2.609 1.396-4.43-.01-1.822-.475-3.299-1.396-4.43-.92-1.133-2.235-1.716-3.945-1.75zm-.154 1.854c.879-.003 1.632.35 2.26 1.062.627.711.955 1.8.984 3.264-.029 1.464-.357 2.552-.985 3.263-.627.712-1.38 1.066-2.26 1.063h-1.853v-8.652h1.854zM112.966 109.404h2.163V97.045h-2.163zM118.296 109.404h2.163v-8.96l3.708 6.488 3.708-6.488.154 8.96h2.01V97.045h-2.473l-3.399 5.716-3.399-5.716h-2.472zM133.203 109.404h2.163V97.045h-2.163zM138.843 97.045v12.36h2.162v-4.944h1.236c.67.014 1.152.2 1.449.555.296.356.564.798.803 1.325.283.573.537 1.142.763 1.707.227.565.458 1.017.693 1.356h2.627c-.45-.256-.855-.807-1.213-1.653a36.975 36.975 0 0 0-1.18-2.512c-.426-.829-.968-1.346-1.624-1.55a3.71 3.71 0 0 0 1.622-1.16c.444-.54.676-1.235.695-2.085.032-.682-.225-1.403-.772-2.163-.547-.76-1.577-1.172-3.09-1.236h-4.171zm2.162 1.854h1.39c.638-.006 1.179.138 1.623.43.444.293.676.767.695 1.424-.019.656-.25 1.131-.695 1.423-.444.293-.985.436-1.622.43h-1.39V98.9z"/></g><path d="M14.123 97.045h-1.939v12.36h1.939v-5.562c0-.86 1.024-1.607 2.002-1.607.64 0 1.228.404 1.228.989v6.18h1.938v-6.18c0-1.454-.999-2.781-2.746-2.781-.792 0-1.666.384-2.423.955v-4.354zM24.641 100.444c-2.317 0-4.017 1.854-4.017 4.635 0 2.78 1.7 4.634 4.017 4.634 2.318 0 4.017-1.853 4.017-4.634 0-2.781-1.7-4.635-4.017-4.635zm0 1.545c1.236 0 2.163 1.236 2.163 3.09 0 1.854-.927 3.09-2.163 3.09-1.236 0-2.163-1.236-2.163-3.09 0-1.854.927-3.09 2.163-3.09zM32.913 97.045l-1.854.618v3.09h-1.483v1.73h1.483v5.377c0 .737 1.01 1.853 2.225 1.853.758 0 1.417-.046 2.25-.32l-.377-1.66c-.39.12-.75.25-1.255.25-.476 0-.989-.294-.989-.741v-4.759h2.225v-1.73h-2.225v-3.708zM40.492 101.989c.91-.035 2.008.943 2.008 1.854 0 .154-.044.309-.154.309h-3.862c0-1.545 1.025-2.125 2.008-2.163zm3.553 3.708c.258 0 .464-.464.464-.927 0-2.318-1.854-4.326-4.017-4.326-1.178 0-2.426.612-3.178 1.545-.63.78-.863 1.753-.883 3.09-.042 2.78 2.053 4.634 4.37 4.634 1.081 0 2.273-.618 3.355-2.008l-1.501-.86c-.618.772-1.082 1.169-1.854 1.169s-2.317-.463-2.317-2.317h5.561zM46.468 97.045h1.854v12.36h-1.854zM20.27 26.225h-5.933l9.27-16.056 9.269 16.056h-5.932l.123 12.359h-6.674zM24.719 62.809v5.933l-16.055-9.27 16.055-9.27v5.933l12.36-.124v6.674zM194.539 100.506v5.932l16.056-9.269-16.056-9.27v5.932l-12.359-.123v6.674z" fill="#000" fill-rule="nonzero"/><g fill="#000" fill-rule="nonzero"><path d="M55.826 80.236a1.232 1.232 0 0 0-1.236 1.236 1.232 1.232 0 0 0 1.236 1.236c.079 0 .159-.006.24-.02a.813.813 0 0 0 .224-.068v.154c-.04.395-.203.72-.486.974s-.445.386-.486.394l.155.376c.069-.007.345-.226.828-.657.482-.431.758-1.036.827-1.815-.012-.529-.076-.9-.193-1.115-.117-.214-.214-.343-.292-.386a1.494 1.494 0 0 0-.376-.22 1.189 1.189 0 0 0-.44-.089zM59.36 80.236a1.232 1.232 0 0 0-1.235 1.236 1.232 1.232 0 0 0 1.236 1.236c.078 0 .158-.006.24-.02a.813.813 0 0 0 .223-.068v.154c-.04.395-.202.72-.486.974-.283.254-.445.386-.485.394l.154.376c.07-.007.345-.226.828-.657.483-.431.759-1.036.828-1.815-.012-.529-.077-.9-.193-1.115-.117-.214-.215-.343-.293-.386a1.494 1.494 0 0 0-.375-.22 1.189 1.189 0 0 0-.441-.089z"/></g><g fill="#000" fill-rule="nonzero"><path d="M161.551 80.236a1.232 1.232 0 0 0-1.236 1.236 1.232 1.232 0 0 0 1.236 1.236c.079 0 .159-.006.24-.02a.813.813 0 0 0 .224-.068v.154c-.04.395-.203.72-.486.974s-.445.386-.485.394l.154.376c.07-.007.345-.226.828-.657.483-.431.758-1.036.827-1.815-.012-.529-.076-.9-.193-1.115-.116-.214-.214-.343-.292-.386a1.494 1.494 0 0 0-.375-.22 1.189 1.189 0 0 0-.442-.089zM165.086 80.236a1.232 1.232 0 0 0-1.236 1.236 1.232 1.232 0 0 0 1.236 1.236c.078 0 .158-.006.24-.02a.813.813 0 0 0 .223-.068v.154c-.04.395-.202.72-.485.974-.284.254-.445.386-.486.394l.155.376c.069-.007.344-.226.827-.657.483-.431.759-1.036.828-1.815-.012-.529-.076-.9-.193-1.115-.117-.214-.215-.343-.293-.386a1.494 1.494 0 0 0-.375-.22 1.189 1.189 0 0 0-.441-.089z"/></g><g fill="#000" fill-rule="nonzero"><path d="M58.296 97.045a1.232 1.232 0 0 0-1.236 1.236 1.232 1.232 0 0 0 1.236 1.236c.079 0 .159-.006.24-.02a.813.813 0 0 0 .224-.068v.154c-.04.395-.203.72-.486.974s-.445.386-.486.394l.155.376c.069-.007.345-.226.828-.657.482-.431.758-1.036.827-1.815-.012-.529-.076-.9-.193-1.115-.117-.214-.214-.343-.292-.386a1.494 1.494 0 0 0-.376-.22 1.189 1.189 0 0 0-.44-.09zM61.83 97.045a1.232 1.232 0 0 0-1.235 1.236 1.232 1.232 0 0 0 1.236 1.236c.078 0 .158-.006.24-.02a.813.813 0 0 0 .223-.068v.154c-.04.395-.202.72-.486.974-.283.254-.445.386-.485.394l.154.376c.07-.007.345-.226.828-.657.483-.431.759-1.036.828-1.815-.012-.529-.077-.9-.193-1.115-.117-.214-.215-.343-.293-.386a1.494 1.494 0 0 0-.375-.22 1.189 1.189 0 0 0-.441-.09z"/></g><g fill="#000" fill-rule="nonzero"><path d="M151.01 97.045a1.232 1.232 0 0 0-1.236 1.236 1.232 1.232 0 0 0 1.236 1.236c.079 0 .159-.006.24-.02a.813.813 0 0 0 .223-.068v.154c-.04.395-.202.72-.485.974s-.445.386-.486.394l.155.376c.069-.007.345-.226.828-.657.482-.431.758-1.036.827-1.815-.012-.529-.076-.9-.193-1.115-.117-.214-.214-.343-.292-.386a1.494 1.494 0 0 0-.376-.22 1.189 1.189 0 0 0-.441-.09zM154.544 97.045a1.232 1.232 0 0 0-1.236 1.236 1.232 1.232 0 0 0 1.236 1.236c.08 0 .16-.006.24-.02a.813.813 0 0 0 .224-.068v.154c-.04.395-.202.72-.486.974-.283.254-.445.386-.485.394l.154.376c.07-.007.345-.226.828-.657.483-.431.759-1.036.828-1.815-.012-.529-.077-.9-.194-1.115-.116-.214-.214-.343-.292-.386a1.494 1.494 0 0 0-.375-.22 1.189 1.189 0 0 0-.442-.09z"/></g><path d="M7.06 3A4.054 4.054 0 0 0 3 7.067v109.68a4.054 4.054 0 0 0 4.06 4.066h207.88a4.054 4.054 0 0 0 4.06-4.067V7.066A4.054 4.054 0 0 0 214.94 3H7.06zm0 .74h207.88a3.317 3.317 0 0 1 3.322 3.327v34.937H3.738V7.067a3.317 3.317 0 0 1 3.321-3.328zM3.737 43.235h214.524v31.918H3.738V43.236zm0 33.15h214.524v40.36a3.317 3.317 0 0 1-3.321 3.328H7.059a3.317 3.317 0 0 1-3.321-3.328v-40.36z" fill="#000" fill-rule="nonzero"/><rect stroke="#000" x=".624" y=".5" width="220.876" height="123" rx="6"/></g><g transform="translate(15 143)"><path d="M5.464 3C4.099 3 3 4.082 3 5.425v25.15C3 31.918 4.099 33 5.464 33h208.072c1.365 0 2.464-1.082 2.464-2.425V5.425C216 4.082 214.901 3 213.536 3H5.464zm188.192 4.895L211.437 18l-17.781 10.105v-6.467H180.5v-7.276h13.156V7.895zm-175.313 3.93c1.291.017 2.335.36 3.134 1.03.8.67 1.41 1.563 1.828 2.675l-2.298.842c-.257-.835-.607-1.439-1.05-1.81-.443-.372-.98-.555-1.614-.548-.959.014-1.737.45-2.333 1.305-.595.857-.9 2.05-.918 3.58.018 1.529.323 2.722.918 3.578.596.856 1.374 1.291 2.333 1.305.634.007 1.171-.175 1.614-.547.443-.372.793-.976 1.05-1.81l2.298.841c-.418 1.113-1.029 2.002-1.828 2.673-.8.67-1.843 1.015-3.134 1.033-1.88-.051-3.278-.741-4.198-2.072-.92-1.33-1.378-2.998-1.375-5.002-.003-2.004.455-3.671 1.375-5.002.92-1.33 2.319-2.02 4.198-2.071zm19.376.337h9.924v13.473h-2.395V14.183h-5.134v11.452H37.72V12.162zm13.35 0h8.555v2.189h-6.16v3.2h4.962v2.02h-4.962v4.043h6.33v2.02h-8.726V12.163zm11.47 0h9.924v2.02h-3.765v11.453h-2.395V14.183h-3.765v-2.021zm12.647 0h8.556v2.189h-6.16v3.2h4.962v2.02h-4.962v4.043h6.331v2.02h-8.727V12.163zm12.158 0h4.62c1.69.077 2.887.596 3.593 1.557.706.962 1.048 1.902 1.027 2.821-.022.92-.45 1.86-1.283 2.821-.835.962-1.947 1.481-3.337 1.558h-2.225v4.716h-2.395V12.162zm12.68 0h8.726v2.02h-6.331v3.369h2.909c1.682.063 2.852.526 3.508 1.39.655.862.97 1.747.94 2.652.015.905-.356 1.79-1.112 2.652-.755.863-1.982 1.327-3.679 1.39h-4.962V12.162zm11.966 0h2.566l3.251 7.073 2.738-7.073h2.567l-4.449 11.283c-.279.647-.733 1.18-1.363 1.595-.63.415-1.26.628-1.888.642-.339 0-.601-.012-.79-.033a1.52 1.52 0 0 1-.408-.087l-.513-2.117c.014.007.157.035.428.085.27.049.584.077.94.084a1.763 1.763 0 0 0 1.141-.486c.318-.298.485-.584.5-.862-.025-.175-.272-.77-.74-1.79a211.506 211.506 0 0 0-1.619-3.453 558.232 558.232 0 0 0-2.361-4.861zm13.537 0h4.62c1.69.077 2.888.596 3.594 1.557.706.962 1.048 1.902 1.027 2.821-.022.92-.45 1.86-1.284 2.821-.834.962-1.946 1.481-3.337 1.558h-2.224v4.716h-2.396V12.162zm12.68 0h8.555v2.02h-6.16v11.453h-2.395V12.162zm15.793 0h7.872l-.685 2.189h-4.962v3.2c.268-.33.606-.554 1.012-.674.406-.119.81-.175 1.212-.168.995.007 1.916.372 2.761 1.095.845.722 1.293 1.76 1.346 3.115-.018 1.383-.494 2.533-1.432 3.453-.937.919-2.229 1.396-3.872 1.431a8.764 8.764 0 0 1-2.202-.337c-.66-.196-1.01-.308-1.05-.337l-.342-2.189c.43.27.936.452 1.517.545.582.092 1.159.135 1.734.129.728 0 1.412-.21 2.054-.632.641-.42.984-1.052 1.026-1.894-.003-.621-.209-1.191-.618-1.707-.41-.516-1.004-.788-1.777-.82-.514.032-.941.178-1.284.441-.342.263-.598.454-.77.57L154 18.73v-6.568zm16.83 0h2.053v8.757h1.882l-.784 2.021h-.927v2.695h-2.396V22.94h-6.502v-2.02l6.673-8.758zm-81.09 2.02v4.716h1.54c.712.007 1.34-.175 1.882-.547.542-.372.827-.976.855-1.81-.028-.836-.313-1.44-.855-1.811-.542-.372-1.17-.554-1.883-.547h-1.54zm38.183 0v4.716h1.54c.713.007 1.34-.175 1.882-.547.542-.372.827-.976.856-1.81-.029-.836-.314-1.44-.856-1.811-.542-.372-1.169-.554-1.882-.547h-1.54zm42.735 1.516l-3.935 5.221h3.935V15.7zm-68.24 3.874v4.042h2.396c.781 0 1.4-.169 1.86-.505.46-.337.696-.843.707-1.516-.01-.674-.247-1.18-.707-1.516-.46-.337-1.079-.505-1.86-.505h-2.395zm-72.402.337h4.79v2.19h-4.79v-2.19zm-3.442 2.91c.422.01.774.154 1.055.43a1.453 1.453 0 0 1 0 2.077c-.28.276-.633.419-1.055.43a1.494 1.494 0 0 1-1.053-.43 1.456 1.456 0 0 1-.439-1.039c.01-.415.159-.762.44-1.038.28-.276.63-.42 1.052-.43z" fill="#0D69E1" fill-rule="nonzero"/><rect stroke="#000" transform="rotate(-90 109.5 18)" x="92" y="-91" width="35" height="218" rx="6"/></g></g></svg>