<?xml version="1.0" encoding="UTF-8"?>
<svg id="_Слой_1" data-name=" Слой 1" xmlns="http://www.w3.org/2000/svg" width="110" height="97" viewBox="0 0 110 97">
  <defs>
    <style>
      .cls-1 {
        fill: none;
      }

      .cls-2 {
        fill: #fff;
      }

      .cls-3 {
        fill: #8b8b8b;
      }

      .cls-4 {
        fill: #c44833;
      }
    </style>
  </defs>
  <rect class="cls-1" y="0" width="110" height="97"/>
  <path d="m11.28,5.49h87.4c3.48,0,6.3,2.82,6.3,6.3h0v54.07c0,3.48-2.82,6.3-6.3,6.3H11.28c-3.48,0-6.3-2.82-6.3-6.3h0V11.79c0-3.48,2.82-6.3,6.3-6.3Z"/>
  <path class="cls-4" d="m11.55,7.15h86.87c2.71,0,4.9,2.19,4.9,4.9h0v53.53c0,2.71-2.19,4.9-4.9,4.9H11.55c-2.71,0-4.9-2.19-4.9-4.9h0V12.05c0-2.71,2.19-4.9,4.9-4.9h0Z"/>
  <path class="cls-2" d="m74.72,34.01l-3.95-10.06c-.74-1.91-2.35-3.56-5.37-3.56h-20.67c-3.02,0-4.63,1.65-5.37,3.56l-3.93,10.06c-1.56.2-4.33,2.01-4.33,5.46v12.79h3.83v4.08c0,5.04,7.2,4.97,7.2,0v-4.08h25.91v4.08c0,4.97,7.19,5.04,7.19,0v-4.08h3.83v-12.79c0-3.44-2.77-5.25-4.33-5.46Zm-36.1,10.43c-1.83,0-3.32-1.53-3.32-3.39s1.48-3.39,3.32-3.39,3.32,1.51,3.32,3.39-1.48,3.39-3.32,3.39Zm16.44-10.66h-15.58l2.97-7.79c.37-1.11.92-1.91,2.23-1.93h20.77c1.31,0,1.85.82,2.23,1.93l2.97,7.79h-15.6Zm16.42,10.66c-1.83,0-3.32-1.53-3.32-3.39s1.48-3.39,3.32-3.39,3.32,1.51,3.32,3.39-1.49,3.39-3.32,3.39Z"/>
  <g>
    <path class="cls-3" d="m44.48,91.63c-.43,0-.83-.06-1.18-.19s-.66-.31-.91-.56c-.25-.23-.43-.51-.56-.83s-.19-.66-.19-1.02c0-.47.13-.91.38-1.3s.62-.71,1.1-.95v-.04c-.43-.25-.75-.52-.96-.82s-.31-.67-.31-1.11c0-.66.25-1.2.74-1.64s1.12-.66,1.89-.66,1.43.21,1.91.62.72.95.72,1.6c0,.39-.11.78-.34,1.16s-.56.68-.99.9v.04c.51.24.89.53,1.15.87s.39.78.39,1.31c0,.75-.27,1.37-.81,1.88s-1.22.76-2.03.76Zm1.64-2.52c0-.36-.07-.64-.21-.86s-.41-.43-.81-.64c-.13-.07-.31-.15-.53-.24s-.47-.19-.75-.3c-.32.21-.57.48-.74.79s-.26.67-.26,1.08c0,.53.16.96.48,1.31s.72.52,1.2.52.89-.15,1.18-.44.45-.7.45-1.2Zm-.16-4.37c0-.39-.13-.72-.39-.98s-.62-.39-1.09-.39c-.43,0-.77.12-1.05.35s-.41.55-.41.95c0,.29.07.53.21.73s.35.38.62.54c.12.07.31.16.55.28s.47.21.68.28c.34-.26.57-.53.69-.81s.18-.59.18-.95Z"/>
    <path class="cls-3" d="m50.27,91.43h-1.4v-1.67h1.4v1.67Z"/>
    <path class="cls-3" d="m51.78,85.54c0-.45.07-.86.22-1.23s.35-.69.6-.96c.24-.26.54-.46.89-.6s.7-.22,1.06-.22c.4,0,.77.07,1.09.2s.61.33.85.58c.3.32.53.74.7,1.26s.25,1.18.25,1.97c0,.72-.08,1.41-.24,2.05s-.4,1.18-.72,1.61c-.34.45-.74.8-1.21,1.04s-1.05.36-1.74.36c-.16,0-.32,0-.5-.03s-.34-.05-.49-.1v-1.12h.06c.1.05.25.11.46.16s.42.08.63.08c.77,0,1.37-.25,1.8-.76s.69-1.22.74-2.16c-.31.21-.61.37-.89.46s-.59.15-.92.15-.62-.04-.88-.11-.53-.21-.8-.41c-.31-.24-.55-.54-.71-.91s-.24-.81-.24-1.32Zm4.48.75c0-.59-.05-1.08-.16-1.45-.11-.37-.26-.66-.45-.86-.17-.19-.35-.32-.52-.39s-.37-.11-.58-.11c-.48,0-.86.17-1.15.52s-.43.84-.43,1.49c0,.37.05.67.14.91s.25.44.46.62c.15.12.32.2.5.24s.39.06.6.06c.25,0,.52-.04.81-.13s.54-.2.76-.35c0-.06,0-.14.01-.23s0-.2,0-.32Z"/>
    <path class="cls-3" d="m60.45,91.43h-1.4v-1.67h1.4v1.67Z"/>
    <path class="cls-3" d="m64.56,83.54c-.21,0-.42.03-.63.08s-.42.12-.62.2c-.19.08-.35.16-.49.25s-.26.17-.37.24h-.07v-1.24c.25-.14.6-.26,1.03-.37s.85-.17,1.25-.17.74.04,1.03.12.56.2.8.37c.26.19.45.41.58.68s.2.58.2.93c0,.48-.16.9-.47,1.27s-.7.59-1.14.69v.08c.18.04.38.1.59.18s.4.21.58.38.33.38.44.65.17.58.17.96-.07.76-.2,1.09-.33.62-.57.88c-.25.27-.56.47-.92.6s-.77.21-1.22.21-.87-.05-1.3-.16-.79-.23-1.08-.38v-1.24h.08c.25.18.58.35.99.52s.83.25,1.24.25c.24,0,.48-.04.72-.11s.44-.2.6-.37c.16-.17.28-.36.36-.57s.12-.47.12-.79-.05-.58-.14-.78-.22-.36-.38-.48-.36-.2-.58-.24-.47-.07-.73-.07h-.5v-.97h.39c.53,0,.96-.12,1.29-.38s.5-.61.5-1.09c0-.22-.04-.41-.13-.57s-.2-.28-.33-.38c-.15-.1-.31-.17-.49-.21s-.37-.06-.57-.06Z"/>
  </g>
</svg>