<svg width="100" height="86" xmlns="http://www.w3.org/2000/svg"><g fill="none" fill-rule="evenodd"><path d="M89.012 42.506c0 21.819-17.687 39.506-39.506 39.506C27.688 82.012 10 64.325 10 42.506 10 20.688 27.688 3 49.506 3c21.819 0 39.506 17.688 39.506 39.506z" fill="#FFF" fill-rule="nonzero"/><path d="M89.644 42.638c0 22.095-17.911 40.006-40.006 40.006S9.632 64.733 9.632 42.638 27.543 2.632 49.638 2.632s40.006 17.911 40.006 40.006z" stroke="#000"/><path d="M49.506 5.634c-20.364 0-36.872 16.508-36.872 36.872 0 19.073 14.482 34.762 33.05 36.675V31.037l-6.479-.002 10.301-17.842 10.301 17.842-6.478.002v48.144c18.567-1.913 33.05-17.602 33.05-36.675 0-20.364-16.509-36.872-36.873-36.872z" fill="#0D69E1" fill-rule="nonzero"/></g></svg>