<svg width="197" height="102" xmlns="http://www.w3.org/2000/svg"><g fill="none" fill-rule="evenodd"><g transform="translate(14 12)"><rect fill="#FFF" fill-rule="nonzero" width="80" height="80" rx="6"/><rect stroke="#000" x=".614" y=".614" width="78.771" height="78.771" rx="6"/><path d="M5.803 3A2.797 2.797 0 0 0 3 5.803v68.394A2.797 2.797 0 0 0 5.803 77h44.663v-.375a7.849 7.849 0 0 0-2.299-5.55l-21.502-21.5a17.005 17.005 0 0 1-4.98-12.024V26.92h-6.537L25.61 8.605 36.076 26.92h-6.542v10.63a9.16 9.16 0 0 0 2.684 6.476l18.248 18.248V26.92h-6.542L54.39 8.606 64.852 26.92h-6.538V77h15.883A2.797 2.797 0 0 0 77 74.197V5.803A2.797 2.797 0 0 0 74.197 3h-32.89v8.223h-2.614V3H5.803zm32.89 10.837h2.614v7.849h-2.614v-7.849zm0 10.466h2.614v7.849h-2.614v-7.849z" fill="#0D69E1" fill-rule="nonzero"/></g><g transform="translate(104 11)"><rect fill="#FFF" fill-rule="nonzero" width="80" height="80" rx="6"/><rect stroke="#000" x=".614" y=".614" width="78.771" height="78.771" rx="6"/><path d="M5.803 3A2.797 2.797 0 0 0 3 5.803v68.394A2.797 2.797 0 0 0 5.803 77h44.663v-.371a7.849 7.849 0 0 0-2.299-5.55L30.743 53.65a12.132 12.132 0 0 1-5.133 1.135c-6.719 0-12.165-5.447-12.165-12.165 0-5.345 3.449-9.888 8.24-11.52v-4.177h-6.537L25.61 8.61l10.466 18.314h-6.542V31.1c4.792 1.633 8.241 6.176 8.241 11.52 0 2.022-.491 3.926-1.363 5.603l14.054 14.054V26.924h-6.542L54.39 8.61l10.462 18.314h-6.538V77h15.883A2.797 2.797 0 0 0 77 74.197V5.803A2.797 2.797 0 0 0 74.197 3h-32.89v8.227h-2.614V3H5.803zm32.89 10.84h2.614v7.85h-2.614v-7.85zm0 10.467h2.614v7.848h-2.614v-7.848z" fill="#0D69E1" fill-rule="nonzero"/><path d="M18.77 39.77a.828.828 0 0 0-.687.365l-1.298 1.924a.828.828 0 0 0-.141.463v2.545c0 .457.37.827.827.827h.748a1.738 1.738 0 0 1 3.47 0h6.46c.032-.66.43-1.223.996-1.49H21.94v-3.806a.828.828 0 0 0-.827-.828H18.77zm.044.497h1.885c.228 0 .414.185.414.413v1.16a.414.414 0 0 1-.414.413H18.03a.414.414 0 0 1-.342-.645l.78-1.159a.415.415 0 0 1 .345-.182z" fill="#000" fill-rule="nonzero"/><path d="M23.264 37.287a.826.826 0 0 0-.827.828v5.793h10.758v-5.793a.826.826 0 0 0-.827-.828h-9.104zM29.885 44.57a1.407 1.407 0 1 0 0 2.814 1.407 1.407 0 0 0 0-2.814zm0 .662a.745.745 0 1 1 0 1.49.745.745 0 0 1 0-1.49zM31.62 45.894a1.737 1.737 0 0 0-.995-1.49h2.57v1.49H31.62zM19.954 44.57a1.407 1.407 0 1 0 0 2.814 1.407 1.407 0 0 0 0-2.814zm0 .662a.745.745 0 1 1 0 1.49.745.745 0 0 1 0-1.49z" fill="#000" fill-rule="nonzero"/><path d="M25.333 30.267c-6.848 0-12.4 5.551-12.4 12.4 0 6.848 5.552 12.4 12.4 12.4 6.849 0 12.4-5.552 12.4-12.4 0-6.849-5.551-12.4-12.4-12.4zm0 2.096c5.69 0 10.304 4.613 10.304 10.304 0 5.69-4.613 10.303-10.304 10.303-5.69 0-10.303-4.613-10.303-10.303s4.613-10.304 10.303-10.304z" fill="red" fill-rule="nonzero"/></g></g></svg>