<svg width="115" height="71" xmlns="http://www.w3.org/2000/svg"><g transform="translate(8 11)" fill-rule="nonzero" fill="none"><rect fill="#000" y=".166" width="100" height="49.669" rx="6.3"/><rect fill="#FF8000" x="1.667" y="1.821" width="96.667" height="46.358" rx="4.9"/><g fill="#000"><path d="M9.492 12.45c-.853.013-1.546.318-2.078.914-.533.596-.807 1.4-.823 2.411.016 1.012.29 1.816.823 2.412.532.596 1.225.9 2.078.915.854-.014 1.547-.32 2.08-.915.532-.596.806-1.4.822-2.412-.016-1.011-.29-1.815-.823-2.41-.532-.597-1.225-.902-2.079-.916zm0 1.108c.456.01.828.213 1.116.61.289.397.438.933.447 1.607-.01.675-.158 1.21-.447 1.608-.288.397-.66.6-1.116.61-.455-.01-.827-.213-1.116-.61-.288-.397-.437-.933-.446-1.608.01-.674.158-1.21.446-1.607.289-.397.66-.6 1.116-.61zM14.463 12.67v6.21h1.339v-4.99h2.344v4.99h1.339v-6.21zM23.996 12.45c-.55.011-1.011.099-1.38.263-.37.164-.691.335-.963.513l.67 1.108c.174-.178.41-.349.71-.513.3-.164.622-.251.963-.263.35.016.656.123.921.319s.405.386.419.568v.444c-.047-.012-.375.023-.984.106a5.58 5.58 0 0 0-1.827.6c-.61.317-.937.82-.984 1.51.028.666.251 1.165.67 1.498.418.332.865.499 1.339.499.451-.014.832-.125 1.144-.333.311-.208.525-.43.642-.665.055.43.195.706.418.831.223.125.53.18.92.167l.559-1.11a.68.68 0 0 1-.363-.068c-.12-.058-.186-.22-.195-.486v-2.993c-.042-.568-.349-1.04-.92-1.414-.573-.374-1.159-.568-1.759-.582zm1.34 3.436v1.109c-.019.09-.177.27-.475.54-.297.27-.623.423-.976.458-.135.007-.312-.063-.53-.208-.219-.146-.34-.409-.363-.79.018-.324.18-.55.483-.682.304-.13.64-.218 1.005-.262.366-.045.651-.1.856-.165zM31.544 12.45c-.858.013-1.57.318-2.134.914-.565.596-.858 1.4-.88 2.411.022 1.012.315 1.816.88 2.412.565.596 1.276.9 2.134.915.629-.005 1.177-.17 1.644-.497.468-.327.813-.79 1.035-1.388l-1.26-.475c-.122.405-.304.715-.548.928a1.287 1.287 0 0 1-.87.323c-.457-.01-.829-.213-1.117-.61-.288-.397-.437-.933-.446-1.608.009-.674.158-1.21.446-1.607.288-.397.66-.6 1.116-.61.337.002.628.11.871.323.244.213.426.523.548.928l1.26-.475c-.222-.598-.567-1.06-1.035-1.388-.467-.327-1.015-.492-1.644-.497zM36.079 12.67v6.21h1.339v-2.661h2.344v2.66h1.339v-6.208h-1.339V15h-2.344v-2.33zM49.598 18.88h1.34V12.67h-1.34v6.209zm-5.995-6.209v6.209h2.902c.775-.021 1.334-.229 1.678-.624.344-.395.513-.852.506-1.372a1.985 1.985 0 0 0-.506-1.372c-.344-.395-.903-.603-1.678-.623h-1.562V12.67h-1.34zm1.34 3.437h1.674c.227.01.413.093.558.252a.791.791 0 0 1 .223.524.791.791 0 0 1-.223.525.767.767 0 0 1-.558.251h-1.674v-1.552zM53.346 12.671v6.209h1.451l2.567-4.213v4.213h1.34V12.67h-1.451l-2.567 4.213v-4.213h-1.34zm.447-2.66c-.01.021.034.175.132.46.098.284.307.569.628.853.321.285.812.438 1.472.46.66-.022 1.15-.175 1.472-.46.32-.284.53-.57.628-.854.098-.284.142-.438.132-.46h-1.116a1.62 1.62 0 0 1-.432.652c-.18.154-.407.233-.684.235a1.166 1.166 0 0 1-.725-.235 1.08 1.08 0 0 1-.391-.652h-1.116z"/></g><g fill="#000"><path d="M67.278 12.671v6.21h1.34v-4.99h3.013v-1.22zM76.506 12.45c-.554.036-.954.184-1.2.443-.247.259-.367.406-.363.443a2.172 2.172 0 0 1-.223-.665h-1.116v8.87h1.34v-3.216c.009.081.157.224.446.43.288.206.66.321 1.116.347.245.01.585-.072 1.02-.247.436-.174.834-.503 1.195-.985.361-.483.553-1.18.575-2.095-.047-1.302-.372-2.19-.977-2.66-.604-.472-1.209-.693-1.813-.666zm0 1.219c.402.005.741.19 1.018.554.277.365.421.883.433 1.552-.012.675-.156 1.21-.433 1.608-.277.397-.616.6-1.018.61a1.839 1.839 0 0 1-.871-.236 1.844 1.844 0 0 1-.692-.651v-2.328c.172-.338.395-.605.668-.804.273-.199.572-.3.895-.305zM81.144 20.21l.43 1.267c.167.03.273.05.322.056a.86.86 0 0 0 .141.008 1.91 1.91 0 0 0 1.019-.32c.332-.21.588-.51.767-.9l2.567-7.65h-1.563L83.6 16.773l-1.451-4.102h-1.563l2.392 6.209c-.083.335-.221.653-.413.956-.191.303-.479.464-.863.485a1.624 1.624 0 0 1-.237-.014 1.051 1.051 0 0 1-.32-.097zM90.361 12.56a4.982 4.982 0 0 0-1.247.153 3.77 3.77 0 0 0-.985.402l.606 1.172c.194-.15.417-.29.67-.416.253-.127.572-.194.956-.202.247-.005.507.06.782.194.274.134.423.365.446.693a.686.686 0 0 1-.167.457c-.112.132-.28.201-.502.208h-.893v.998h.893c.276.01.476.102.6.277.123.176.183.379.18.61a.8.8 0 0 1-.39.651 1.362 1.362 0 0 1-.725.236c-.293.004-.64-.056-1.04-.18a1.953 1.953 0 0 1-.97-.644l-.828.903a3.5 3.5 0 0 0 1.323.764 4.849 4.849 0 0 0 1.515.266c.72.004 1.324-.144 1.81-.444.485-.3.737-.78.757-1.441-.02-.493-.168-.854-.445-1.085a1.8 1.8 0 0 0-.863-.42c.276-.083.522-.254.74-.513.217-.259.332-.584.344-.976-.009-.533-.241-.943-.697-1.23-.456-.285-1.079-.43-1.87-.433z"/></g><g fill="#000"><path d="M9.402 28.725v8.692h1.875v-4.035c.08-.012.16-.022.243-.03.082-.01.158-.014.226-.015.862.06 1.516.518 1.962 1.375.446.857.938 1.76 1.476 2.705h2.343a6.948 6.948 0 0 1-1.316-1.869 16.06 16.06 0 0 0-1.118-1.953 2.696 2.696 0 0 0-1.628-1.145c.377-.11.71-.343.999-.697.289-.354.595-.7.919-1.037a1.95 1.95 0 0 1 1.207-.594l-.469-1.552c-.65.09-1.235.396-1.758.92a46.205 46.205 0 0 0-1.476 1.545c-.46.507-.923.779-1.386.817-.035 0-.072 0-.112-.003a.468.468 0 0 1-.112-.02v-3.104H9.402zM19.811 28.725c.001.6-.013 1.325-.043 2.176-.03.85-.08 1.645-.152 2.382-.072.738-.17 1.236-.296 1.496a2.32 2.32 0 0 1-.742.82c-.295.193-.576.311-.843.355l.358 1.774c1.269-.332 2.133-.893 2.592-1.685.46-.791.71-1.686.752-2.684.043-.999.074-1.974.093-2.926h2.5v6.984h1.875v-8.692h-6.094zM30.097 36.175a1.344 1.344 0 0 0-.398-.956 1.362 1.362 0 0 0-.963-.396c-.386.01-.707.142-.963.396a1.344 1.344 0 0 0 0 1.913c.256.254.577.386.963.396.385-.01.706-.142.963-.396.256-.255.389-.574.398-.957zM39.23 25l-6.093 8.071v1.863h5.937v2.483h2.188v-2.483h.848l.714-1.863h-1.718V25H39.23zm-.156 3.26v4.811h-3.593l3.593-4.811zM46.687 36.175a1.344 1.344 0 0 0-.4-.956 1.362 1.362 0 0 0-.962-.396c-.385.01-.706.142-.962.396a1.344 1.344 0 0 0 0 1.913c.256.254.577.386.962.396.386-.01.707-.142.963-.396.256-.255.389-.574.399-.957zM48.992 25.776l.826 1.84c.428-.374.844-.645 1.25-.814.405-.17.911-.253 1.518-.25.407.01.765.146 1.074.408.31.262.472.591.488.99-.02.484-.293.95-.82 1.396-.527.446-1.192.757-1.992.931v1.708c.158-.075.332-.12.521-.136.19-.016.38-.023.572-.02.981.043 1.603.28 1.867.71.264.43.378.8.343 1.109-.033.716-.307 1.24-.82 1.571-.513.331-1.133.495-1.858.49a9.15 9.15 0 0 1-1.674-.152c-.584-.104-1.075-.283-1.474-.535l.268 2.173c.055.023.43.111 1.127.267.697.155 1.385.243 2.065.266 1.49-.052 2.628-.492 3.413-1.32.784-.828 1.18-1.733 1.185-2.716-.023-.67-.227-1.226-.613-1.667a4.17 4.17 0 0 0-1.288-1.012c-.473-.234-.85-.375-1.134-.425.65-.09 1.224-.414 1.718-.97.495-.557.756-1.268.782-2.135-.042-.864-.405-1.547-1.088-2.048a3.824 3.824 0 0 0-2.26-.768c-.665.018-1.39.144-2.174.38-.785.236-1.392.48-1.822.73zM60.138 34.823c-.386.01-.707.142-.963.396a1.344 1.344 0 0 0-.06 1.85c.219.245.498.394.838.447l-1.221 1.919h1.027c.156-.226.435-.666.835-1.321.4-.655.654-1.098.76-1.33.038-.096.072-.194.1-.295.03-.1.044-.205.046-.314a1.344 1.344 0 0 0-.4-.956 1.362 1.362 0 0 0-.962-.396zM70.43 24.8c-1.631.067-2.822.76-3.574 2.08-.752 1.319-1.123 2.865-1.114 4.639.017 1.95.414 3.444 1.192 4.482.778 1.038 1.839 1.562 3.183 1.571 1.052-.032 1.957-.472 2.715-1.319.759-.847 1.156-1.908 1.192-3.182-.024-.973-.238-1.726-.643-2.26-.405-.532-.862-.9-1.371-1.105-.51-.205-.932-.303-1.268-.293a3.604 3.604 0 0 0-1.598.432 7.566 7.566 0 0 0-1.348.898c-.016-.052.03-.414.139-1.087.108-.672.373-1.345.793-2.017.421-.673 1.093-1.035 2.014-1.087.726.027 1.345.134 1.856.322.51.187.778.294.8.321l-.312-1.885c-.032-.02-.319-.106-.86-.255a7.71 7.71 0 0 0-1.796-.255zm0 6.409c.338 0 .677.155 1.015.465.339.31.521.776.547 1.397-.003.579-.191 1.129-.563 1.65-.372.52-.906.798-1.602.834-.474-.035-.857-.276-1.15-.725a5.177 5.177 0 0 1-.639-1.345c-.134-.448-.2-.69-.197-.724.04-.065.334-.324.884-.776.55-.453 1.118-.712 1.705-.776zM77.313 34.823c-.386.01-.706.142-.963.396a1.344 1.344 0 0 0-.06 1.85c.219.245.498.394.838.447l-1.221 1.919h1.027c.156-.226.435-.666.835-1.321.401-.655.654-1.098.76-1.33a3.14 3.14 0 0 0 .1-.295c.03-.1.044-.205.046-.314a1.344 1.344 0 0 0-.399-.956 1.362 1.362 0 0 0-.963-.396zM82.527 27.018h5.781c-.889 1.416-1.728 3.007-2.52 4.773a23.69 23.69 0 0 0-1.699 5.471h2.344c.482-2.222 1.08-4.181 1.797-5.879a65.514 65.514 0 0 1 2.266-4.83V25h-7.5l-.47 2.018z"/></g></g></svg>