<svg width="115" height="71" xmlns="http://www.w3.org/2000/svg"><g transform="translate(8 10)" fill-rule="nonzero" fill="none"><rect fill="#000" y=".166" width="100" height="49.669" rx="6.3"/><rect fill="#FFF" x="1.667" y="1.821" width="96.667" height="46.358" rx="4.9"/><g fill="#000"><path d="M6.563 15.687v6.208h1.339v-4.989h2.344v4.99h1.338v-6.209zM16.531 15.465c-.853.014-1.546.32-2.078.915-.533.596-.807 1.4-.823 2.411.016 1.012.29 1.816.823 2.412.532.596 1.225.9 2.078.914.854-.013 1.547-.318 2.08-.914.532-.596.806-1.4.822-2.412-.016-1.011-.29-1.815-.823-2.411-.532-.596-1.225-.9-2.079-.915zm0 1.109c.456.01.828.213 1.116.61.289.397.438.933.447 1.607-.01.675-.158 1.21-.447 1.608-.288.397-.66.6-1.116.61-.455-.01-.827-.213-1.116-.61-.288-.397-.437-.933-.446-1.608.01-.674.158-1.21.446-1.607.289-.397.66-.6 1.116-.61zM21.49 15.687v6.208h1.34v-2.66h2.344v2.66h1.34v-6.208h-1.34v2.328H22.83v-2.328zM31.46 16.574c.346 0 .67.138.97.41.301.272.461.579.48.92a.402.402 0 0 1-.025.153c-.018.044-.046.067-.086.07h-2.79c.016-.549.168-.942.456-1.18a1.58 1.58 0 0 1 .995-.373zm2.567 2.66c.097-.006.177-.075.239-.207s.094-.284.096-.457c-.024-.857-.312-1.583-.865-2.176a2.805 2.805 0 0 0-2.037-.929 2.934 2.934 0 0 0-1.262.305c-.41.199-.754.467-1.034.804-.228.275-.39.593-.486.954a5.129 5.129 0 0 0-.152 1.263c.013 1.012.326 1.816.939 2.412.613.596 1.352.9 2.218.914.394.003.798-.113 1.212-.346.414-.233.818-.598 1.212-1.095l-1.085-.618a3.02 3.02 0 0 1-.627.628c-.203.14-.44.212-.712.212-.314.014-.663-.097-1.046-.333-.384-.235-.593-.679-.628-1.33h4.018zM37.09 15.687c-.005 1.098-.089 2.046-.254 2.845a10.367 10.367 0 0 1-.672 2.144h-.637v2.55h1.339v-1.33h4.24v1.33h1.229v-2.55h-.782v-4.989H37.09zm1.338 1.22h1.786v3.77h-2.599c.271-.552.463-1.16.574-1.826.112-.666.192-1.314.24-1.944zM46.388 16.574c.347 0 .67.138.97.41.302.272.462.579.481.92a.402.402 0 0 1-.026.153c-.017.044-.046.067-.085.07h-2.79c.015-.549.167-.942.456-1.18a1.58 1.58 0 0 1 .994-.373zm2.567 2.66c.098-.006.178-.075.24-.207.061-.132.093-.284.095-.457-.023-.857-.311-1.583-.865-2.176a2.805 2.805 0 0 0-2.037-.929 2.934 2.934 0 0 0-1.261.305c-.41.199-.755.467-1.035.804-.227.275-.39.593-.486.954a5.129 5.129 0 0 0-.151 1.263c.013 1.012.326 1.816.938 2.412.613.596 1.353.9 2.219.914.393.003.797-.113 1.211-.346.414-.233.818-.598 1.212-1.095l-1.084-.618a3.02 3.02 0 0 1-.628.628c-.202.14-.44.212-.711.212-.314.014-.663-.097-1.047-.333-.383-.235-.593-.679-.628-1.33h4.018zM52.13 15.687c0 .428-.01.946-.032 1.554a27.502 27.502 0 0 1-.108 1.702c-.052.526-.122.883-.212 1.068-.142.253-.32.448-.53.586-.21.138-.411.222-.602.253l.255 1.267c.907-.236 1.524-.637 1.852-1.203a4.109 4.109 0 0 0 .538-1.917c.03-.713.052-1.41.066-2.09h1.786v4.989h1.339v-6.209h-4.353zM58.986 15.687v6.209h2.902c.774-.021 1.334-.229 1.678-.624.344-.395.513-.852.506-1.372a1.985 1.985 0 0 0-.506-1.372c-.344-.395-.904-.603-1.678-.624h-1.563v-2.217h-1.339zm1.34 3.437h1.673c.228.01.414.093.558.251a.791.791 0 0 1 .224.525.791.791 0 0 1-.224.525.767.767 0 0 1-.558.251h-1.674v-1.552zM65.903 15.687v6.208h1.338v-2.66h2.345v2.66h1.338v-6.208h-1.339v2.328h-2.343v-2.328zM73.192 15.687v6.208l1.452.002 2.566-4.215v4.213h1.34v-6.208H77.1L74.532 19.9v-4.213zM80.831 15.687v6.209h1.34v-2.883a4.62 4.62 0 0 1 .173-.022 1.64 1.64 0 0 1 .161-.01c.616.043 1.083.37 1.401.982.319.613.67 1.257 1.055 1.933h1.674a4.963 4.963 0 0 1-.94-1.335 11.47 11.47 0 0 0-.799-1.395 1.926 1.926 0 0 0-1.163-.818c.269-.079.507-.245.713-.498.207-.253.426-.5.657-.741.231-.24.519-.382.862-.424l-.335-1.109c-.464.064-.882.283-1.256.657-.373.374-.725.742-1.054 1.104-.33.362-.66.556-.99.583-.025 0-.051 0-.08-.002a.335.335 0 0 1-.08-.014v-2.217h-1.339zM88.022 19.567h5.625v-1.44h-5.625z"/></g><g fill="#000"><path d="M28.62 31.985h5.626v-1.441H28.62zM39.004 27.883c-.858.013-1.57.318-2.134.914-.566.596-.858 1.4-.88 2.412.022 1.011.314 1.815.88 2.411.565.596 1.276.9 2.134.915.629-.005 1.177-.17 1.644-.497.468-.327.812-.79 1.035-1.388l-1.26-.475c-.122.405-.305.715-.548.928a1.287 1.287 0 0 1-.871.323c-.456-.01-.828-.213-1.116-.61-.288-.397-.437-.933-.447-1.607.01-.675.159-1.21.447-1.608.288-.397.66-.6 1.116-.61.337.002.627.11.87.323.244.213.427.523.549.928l1.26-.475c-.223-.598-.567-1.06-1.035-1.388-.467-.327-1.015-.492-1.644-.496zM46.45 27.883c-.553.037-.953.184-1.2.443-.246.259-.367.407-.362.443a2.172 2.172 0 0 1-.223-.665h-1.116v8.87h1.34v-3.215c.008.08.157.224.445.43.289.205.66.32 1.117.346.245.01.585-.072 1.02-.247.436-.174.834-.503 1.195-.985.361-.483.553-1.18.575-2.094-.047-1.303-.372-2.19-.977-2.661-.604-.471-1.209-.693-1.813-.665zm0 1.22c.403.004.742.188 1.019.553.277.365.42.883.432 1.553-.011.674-.155 1.21-.432 1.607s-.616.6-1.018.61a1.839 1.839 0 0 1-.871-.236 1.844 1.844 0 0 1-.692-.651v-2.328c.172-.337.394-.605.668-.804.273-.199.571-.3.895-.305zM53.762 28.991c.347.001.67.138.97.41.301.272.461.58.481.92a.402.402 0 0 1-.026.153c-.018.044-.046.067-.086.07h-2.79c.016-.548.168-.942.457-1.18a1.58 1.58 0 0 1 .994-.373zm2.567 2.661c.098-.007.177-.076.24-.208.061-.131.093-.284.095-.457-.023-.857-.312-1.582-.865-2.176a2.805 2.805 0 0 0-2.037-.928 2.934 2.934 0 0 0-1.261.304c-.41.2-.755.467-1.035.804-.228.275-.39.593-.486.954a5.129 5.129 0 0 0-.152 1.264c.013 1.011.326 1.815.94 2.411.612.596 1.351.9 2.217.915.394.002.798-.114 1.212-.347.414-.233.818-.598 1.212-1.095l-1.084-.617a3.02 3.02 0 0 1-.628.627c-.202.141-.44.212-.712.212-.314.014-.662-.097-1.046-.333-.384-.235-.593-.679-.628-1.33h4.018zM59.524 28.104c-.004 1.098-.088 2.046-.253 2.845a10.367 10.367 0 0 1-.672 2.144h-.637v2.55H59.3v-1.33h4.241v1.33h1.228v-2.55h-.782v-4.989h-4.464zm1.34 1.22h1.785v3.77H60.05c.271-.552.463-1.16.574-1.826.112-.666.192-1.314.24-1.944zM68.51 27.883c-.551.011-1.012.099-1.381.263-.37.164-.691.335-.963.513l.67 1.108c.174-.178.411-.348.711-.512.3-.164.621-.252.963-.264.349.016.655.123.92.319.266.196.405.386.419.568v.444c-.047-.012-.375.024-.984.106a5.58 5.58 0 0 0-1.827.6c-.609.317-.937.82-.984 1.511.028.665.252 1.164.67 1.497.419.332.865.499 1.34.499.45-.014.832-.125 1.143-.333.312-.208.526-.43.642-.665.056.43.195.707.419.831.223.125.53.18.92.167l.558-1.11a.68.68 0 0 1-.362-.068c-.121-.058-.186-.22-.196-.485v-2.994c-.042-.568-.348-1.04-.92-1.413-.572-.375-1.158-.569-1.758-.582zm1.339 3.436v1.11c-.019.09-.177.27-.474.54-.298.27-.623.422-.977.457-.135.007-.311-.062-.53-.208-.219-.145-.34-.409-.363-.79.019-.324.18-.55.484-.682.304-.13.639-.218 1.004-.262.366-.045.651-.1.856-.165z"/></g></g></svg>