<svg width="100" height="86" xmlns="http://www.w3.org/2000/svg"><g transform="translate(10 3)" fill="none" fill-rule="evenodd"><path d="M2 0h76a2 2 0 0 1 2 2v72a6 6 0 0 1-6 6H2a2 2 0 0 1-2-2V2a2 2 0 0 1 2-2z" fill="#FFF" fill-rule="nonzero"/><rect stroke="#000" x=".5" y=".5" width="79" height="79" rx="6"/><g fill-rule="nonzero"><path d="M73.696 3A3.296 3.296 0 0 1 77 6.304v67.392A3.296 3.296 0 0 1 73.696 77H59.181V3h14.515zM51.51 3v33.164H36.164v-12.79H18.258v33.251h17.906V43.836h15.345V77H6.304A3.296 3.296 0 0 1 3 73.696V6.304A3.296 3.296 0 0 1 6.304 3h45.205z" fill="#0D69E1"/><path fill="red" d="M33.549 54.194V25.807H20.646v28.387z"/></g></g></svg>