<svg width="95" height="136" xmlns="http://www.w3.org/2000/svg"><g fill="none" fill-rule="evenodd"><rect x=".5" y=".5" width="85" height="127" rx="6" transform="translate(5 4)" fill="#FFF" stroke="#000"/><g fill-rule="nonzero"><path d="M11.03 7A3.018 3.018 0 0 0 8 10.02v115.96a3.018 3.018 0 0 0 3.03 3.02h73.94a3.018 3.018 0 0 0 3.03-3.02V10.02A3.018 3.018 0 0 0 84.97 7H11.03zm7.508 19h58.924C80.53 26 83 28.435 83 31.46v58.08c0 3.025-2.47 5.46-5.538 5.46H18.538C15.47 95 13 92.565 13 89.54V31.46c0-3.025 2.47-5.46 5.538-5.46z" fill="#0D69E1"/><path d="M53.263 86.474v-6.58c-4.177 2.341-8.517 2.796-13.026 1.317 5.429-3.954 8.89-9.22 10.395-15.79a25.82 25.82 0 0 1-9.08 2.632c5.703-4.81 8.157-10.934 7.237-18.421a14.728 14.728 0 0 1-4.473 1.71c2.59-4.987 3.462-10.287 2.5-15.92 3.753 4.524 8.138 8.209 13.158 11.052l-4.606 1.973c3.044 5.978 7.617 10.308 13.685 13.027-2.729 1.963-5.773 2.896-9.145 2.763 4.546 5.427 10.182 8.891 16.908 10.395-4.64 3.404-9.856 5.083-15.658 5v6.842h-7.895zM23 78.579h.79l-2.106 7.895h2.105l2.106-7.895h4.737l2.105 7.895h2.105l-2.105-7.895h.79v-2.632H23v2.632zm10.526-2.632a1.316 1.316 0 0 1 0 2.632v-2.632zM23 78.58a1.316 1.316 0 1 1 0-2.632v2.632z" fill="#000"/></g></g></svg>