<svg width="95" height="136" xmlns="http://www.w3.org/2000/svg"><g fill="none" fill-rule="evenodd"><rect x=".5" y=".5" width="85" height="127" rx="6" transform="translate(5 4)" fill="#FFF" stroke="#000"/><g fill-rule="nonzero"><path d="M11.03 7A3.018 3.018 0 0 0 8 10.02v115.96a3.018 3.018 0 0 0 3.03 3.02h73.94a3.018 3.018 0 0 0 3.03-3.02V10.02A3.018 3.018 0 0 0 84.97 7H11.03zm7.508 19h58.924C80.53 26 83 28.435 83 31.46v58.08c0 3.025-2.47 5.46-5.538 5.46H18.538C15.47 95 13 92.565 13 89.54V31.46c0-3.025 2.47-5.46 5.538-5.46z" fill="#0D69E1"/><path d="M42.877 38.316l-2.278 1.316 5.88 10.189-18.882 32.705h-8.544v2.632h57.894v-2.632h-8.544L49.521 49.821l5.88-10.19-2.278-1.315L48 47.189l-5.123-8.873zM48 64.294l10.526 18.232H37.474L48 64.294z" fill="#000"/></g></g></svg>