<svg width="100" height="86" xmlns="http://www.w3.org/2000/svg"><g transform="translate(10 3)" fill="none" fill-rule="evenodd"><rect fill="#FFF" fill-rule="nonzero" width="80" height="80" rx="4"/><rect stroke="#000" x=".5" y=".5" width="79" height="79" rx="6"/><path d="M3 74.197A2.797 2.797 0 0 0 5.803 77h68.394A2.797 2.797 0 0 0 77 74.197V5.803A2.797 2.797 0 0 0 74.197 3H5.803A2.797 2.797 0 0 0 3 5.803v68.394zM8.606 40L26.92 29.534v6.542h26.16v-6.542L71.394 40 53.08 50.466v-6.542H26.92v6.542L8.606 40z" fill="#0D69E1" fill-rule="nonzero"/></g></svg>