<svg width="95" height="136" xmlns="http://www.w3.org/2000/svg"><g transform="translate(5 4)" fill="none" fill-rule="evenodd"><rect stroke="#000" fill="#FFF" x=".5" y=".5" width="85" height="127" rx="6"/><g fill-rule="nonzero"><path d="M6.03 3A3.018 3.018 0 0 0 3 6.02v115.96A3.018 3.018 0 0 0 6.03 125h73.94a3.018 3.018 0 0 0 3.03-3.02V6.02A3.018 3.018 0 0 0 79.97 3H6.03zm7.955 18.723h58.03a5.433 5.433 0 0 1 5.455 5.435v57.83a5.433 5.433 0 0 1-5.455 5.435h-58.03a5.433 5.433 0 0 1-5.455-5.435v-57.83a5.433 5.433 0 0 1 5.455-5.435z" fill="#0D69E1"/><path d="M45.895 29.842A2.888 2.888 0 0 0 43 32.737v49.737h26.316V32.737a2.888 2.888 0 0 0-2.895-2.895H45.895zm2.368 5.263h15.79c.729 0 1.315.587 1.315 1.316V49.58c0 .729-.586 1.316-1.315 1.316h-15.79a1.313 1.313 0 0 1-1.316-1.316V36.42c0-.729.587-1.316 1.316-1.316z" fill="#000"/><g fill="#FFF"><path d="M23.855 100.73c-1.107 0-2.06.288-2.857.864-.799.575-1.217 1.439-1.255 2.59.029.762.228 1.359.597 1.791.37.433.74.737 1.11.914.369.177.568.262.596.256-.032-.002-.26.111-.682.34-.423.23-.845.588-1.267 1.073-.423.485-.65 1.11-.683 1.876-.02.877.309 1.713.987 2.508.679.795 1.83 1.22 3.454 1.275 1.624-.055 2.776-.48 3.454-1.275.679-.795 1.008-1.63.987-2.508-.032-.765-.26-1.39-.682-1.876-.423-.485-.845-.843-1.267-1.072-.423-.23-.65-.343-.683-.341.029.006.228-.08.597-.256.37-.177.74-.481 1.11-.914.369-.432.568-1.03.596-1.79-.038-1.152-.456-2.016-1.254-2.591-.798-.576-1.751-.864-2.858-.864zm0 1.88c.507-.006.932.112 1.275.355.343.244.52.65.534 1.22-.075.513-.376.966-.904 1.356-.528.39-.83.596-.905.617-.075-.02-.377-.226-.904-.617-.528-.39-.83-.843-.905-1.357.014-.569.192-.975.535-1.219.342-.243.767-.361 1.274-.355zm0 5.522c.027.006.211.121.555.347.343.225.686.524 1.03.895.342.372.527.78.553 1.225-.027.572-.26.99-.699 1.254a2.705 2.705 0 0 1-1.439.39c-.52.004-1-.126-1.439-.39-.439-.264-.672-.682-.699-1.254.026-.393.211-.777.554-1.152a6.782 6.782 0 0 1 1.03-.932c.343-.246.528-.374.554-.383zM35.695 100.73c-1.336.035-2.405.665-3.207 1.892-.802 1.226-1.213 2.844-1.234 4.852.021 2.008.432 3.625 1.234 4.852.802 1.226 1.87 1.857 3.207 1.891 1.337-.034 2.406-.665 3.207-1.891.802-1.227 1.213-2.844 1.234-4.852-.02-1.916-.432-3.507-1.234-4.773-.801-1.266-1.87-1.923-3.207-1.97zm0 2.044c.644-.01 1.16.363 1.545 1.117.386.753.584 1.948.593 3.583-.01 1.635-.207 2.829-.593 3.583s-.9 1.126-1.545 1.116c-.644.01-1.159-.362-1.545-1.116-.385-.754-.583-1.948-.593-3.583.01-1.635.208-2.83.593-3.583.386-.754.901-1.126 1.545-1.117zM47.535 100.73c-1.336.035-2.405.665-3.207 1.892-.802 1.226-1.213 2.844-1.234 4.852.021 2.008.432 3.625 1.234 4.852.802 1.226 1.87 1.857 3.207 1.891 1.337-.034 2.406-.665 3.207-1.891.802-1.227 1.213-2.844 1.234-4.852-.02-1.916-.432-3.507-1.234-4.773-.801-1.266-1.87-1.923-3.207-1.97zm0 2.044c.644-.01 1.16.363 1.545 1.117.386.753.584 1.948.593 3.583-.01 1.635-.207 2.829-.593 3.583s-.9 1.126-1.545 1.116c-.644.01-1.159-.362-1.545-1.116-.385-.754-.583-1.948-.593-3.583.01-1.635.208-2.83.593-3.583.386-.754.901-1.126 1.545-1.117zM56.408 114.053h1.974l.494-6.415 2.63 5.264 2.633-5.264.493 6.415h1.974l-.823-9.211H63.81l-2.303 4.606-2.303-4.606H57.23z"/></g><path d="M40.368 54.842c0-.727.59-1.316 1.316-1.316v-2.631a3.947 3.947 0 0 0-3.947 3.947v15.79a9.21 9.21 0 1 1-16.024-6.198L35.169 49.64A9.868 9.868 0 0 0 37.737 43v-5.263c0-.727.589-1.316 1.316-1.316h2.631V33.79h-2.631a3.947 3.947 0 0 0-3.948 3.948V43c0 1.8-.671 3.537-1.883 4.87L19.766 62.662a11.842 11.842 0 0 0-3.082 7.969c0 6.54 5.302 11.842 11.842 11.842 6.54 0 11.842-5.302 11.842-11.842v-15.79z" fill="#000"/></g></g></svg>