<svg width="124" height="145" xmlns="http://www.w3.org/2000/svg"><g transform="translate(10 6)" fill="none" fill-rule="evenodd"><rect fill="#FFF" fill-rule="nonzero" x="1.444" y="1.567" width="101.111" height="125.928" rx="6.3"/><rect fill="#FC0" fill-rule="nonzero" x="2.772" y="2.701" width="99.062" height="124.137" rx="3"/><rect stroke="#000" x=".5" y=".5" width="103" height="128" rx="6.16"/><path d="M4.348 2.071A2.202 2.202 0 0 0 2.14 4.276v120.357c0 1.221.985 2.205 2.208 2.205h95.277a2.202 2.202 0 0 0 2.208-2.205V4.276a2.202 2.202 0 0 0-2.208-2.205H4.348zm0 .63h95.277c.874 0 1.577.703 1.577 1.575v120.357c0 .872-.703 1.575-1.577 1.575H4.348a1.573 1.573 0 0 1-1.577-1.575V4.276c0-.872.703-1.575 1.577-1.575z" fill="#000" fill-rule="nonzero"/><path d="M25.522 26.627L18.57 38.59h4.45v87.835h5.004v-21.093h53.03a5.689 5.689 0 0 0 5.109 3.174c3.14 0 5.687-2.537 5.687-5.667a5.665 5.665 0 0 0-3.185-5.09V62.595a5.665 5.665 0 0 0 3.185-5.09c0-3.13-2.546-5.667-5.687-5.667a5.689 5.689 0 0 0-5.11 3.174h-53.03V38.59h4.45l-6.951-11.963zm60.64 26.785a4.1 4.1 0 0 1 4.108 4.093 4.1 4.1 0 0 1-4.107 4.093 4.1 4.1 0 0 1-4.108-4.093 4.1 4.1 0 0 1 4.108-4.093zm-58.138 6.586h53.03a5.698 5.698 0 0 0 2.606 2.597V97.75a5.698 5.698 0 0 0-2.606 2.597h-53.03V59.998zm58.139 38.749a4.1 4.1 0 0 1 4.107 4.092 4.1 4.1 0 0 1-4.107 4.093 4.1 4.1 0 0 1-4.108-4.093 4.1 4.1 0 0 1 4.108-4.092z" fill="#000" fill-rule="nonzero"/><path d="M38.649 80.172c0 7.223-5.877 13.08-13.127 13.08-7.25 0-13.128-5.857-13.128-13.08 0-7.224 5.877-13.08 13.128-13.08 7.25 0 13.127 5.856 13.127 13.08z" fill="#FFF" fill-rule="nonzero"/><path d="M25.522 64.43c-8.726 0-15.8 7.048-15.8 15.742 0 8.693 7.074 15.74 15.8 15.74 8.725 0 15.798-7.047 15.798-15.74 0-8.694-7.073-15.741-15.798-15.741zm0 2.662c7.25 0 13.127 5.856 13.127 13.08 0 7.223-5.877 13.08-13.127 13.08-7.25 0-13.128-5.857-13.128-13.08 0-7.224 5.877-13.08 13.128-13.08z" fill="red" fill-rule="nonzero"/><g fill="#000" fill-rule="nonzero"><path d="M40.499 40.983v3.746c0 .54.207.96.62 1.258.414.299 1.035.45 1.862.455a7.75 7.75 0 0 0 1.286-.107c.48-.076.88-.219 1.197-.428v3.639h1.655v-8.563h-1.655v3.532a4.294 4.294 0 0 1-1.108.388 6.524 6.524 0 0 1-1.375.147c-.293-.002-.505-.078-.635-.229-.13-.151-.195-.365-.192-.642v-3.196h-1.655zM50.895 46.549l1.183-3.64 1.182 3.64h-2.365zm.237-5.566l-3.074 8.563h1.773l.592-1.713h3.31l.591 1.713h1.773l-3.073-8.563h-1.892zM60.443 40.769c-1.299.032-2.266.47-2.901 1.317-.636.845-.952 1.905-.95 3.178-.002 1.274.314 2.334.95 3.18.635.845 1.602 1.284 2.9 1.316.893-.011 1.615-.23 2.167-.656.552-.425.973-.992 1.262-1.699l-1.587-.535c-.178.53-.42.914-.725 1.15-.306.237-.678.353-1.116.349-.663-.01-1.2-.286-1.611-.83-.412-.544-.623-1.302-.636-2.275.013-.972.224-1.73.636-2.274.411-.544.948-.82 1.61-.83.439-.004.81.112 1.117.348.306.237.547.62.725 1.15l1.587-.534c-.289-.707-.71-1.274-1.262-1.7-.552-.426-1.274-.644-2.166-.655zM64.219 49.546h6.503v1.713h1.418v-2.997h-1.064v-7.28H69.42v7.28h-3.547v-7.28h-1.655zM80.161 49.546h1.655v-8.563h-1.655v8.563zm-7.33 0h3.429c1.167-.05 1.995-.38 2.482-.99.488-.611.725-1.209.71-1.793.024-.57-.173-1.115-.591-1.632-.42-.518-1.207-.794-2.365-.83h-2.01v-3.318h-1.655v8.563zm1.655-1.284v-2.676h1.655c.535.004.944.129 1.227.374.283.245.426.584.429 1.017-.003.428-.146.75-.429.963-.283.214-.692.322-1.227.322h-1.655z"/></g><g fill="#000" fill-rule="nonzero"><path d="M40.183 11.264v8.563h1.655v-3.915c.015-.002.103-.01.266-.023.162-.013.31-.02.443-.023.349.003.642.097.88.283.237.185.456.448.657.788.316.508.66 1.043 1.028 1.605.37.562.64.99.813 1.285h2.06c-.41-.306-.782-.725-1.117-1.255a98.942 98.942 0 0 1-1.01-1.635 7.93 7.93 0 0 0-.84-1.214c-.29-.339-.72-.54-1.289-.606.242-.029.519-.211.831-.548.313-.336.588-.653.825-.95a5.71 5.71 0 0 1 .678-.766c.215-.197.54-.299.977-.305l-.355-1.498c-.807.111-1.452.447-1.935 1.007a37.3 37.3 0 0 0-1.331 1.63c-.405.526-.892.794-1.463.803a.352.352 0 0 1-.074-.009.15.15 0 0 1-.044-.021v-3.196h-1.655zM49.4 19.781c.056.023.15.042.28.055.13.014.313.021.547.021.434-.008.869-.145 1.304-.409.436-.264.75-.601.942-1.013l3.074-7.171h-1.773l-1.892 4.495-2.246-4.495h-1.774a335.482 335.482 0 0 1 1.63 3.09c.425.814.798 1.545 1.12 2.193.323.648.493 1.028.51 1.14-.01.175-.125.358-.345.548-.22.19-.481.292-.786.307a4.489 4.489 0 0 1-.65-.053 4.565 4.565 0 0 1-.296-.054l.354 1.346zM56.144 19.827h3.43c1.171-.04 2.019-.335 2.541-.883.522-.549.778-1.11.768-1.686.02-.575-.197-1.137-.65-1.686-.453-.548-1.26-.843-2.423-.883H57.8v-2.14h4.374v-1.285h-6.03v8.563zm1.656-1.285v-2.569h1.655c.54 0 .968.108 1.286.322.317.214.48.535.487.963-.007.428-.17.75-.487.963-.318.214-.747.321-1.286.321H57.8zM70.791 19.827v-8.563h-1.773L65.59 17.15v-5.887h-1.655v8.563h1.774l3.428-5.887v5.887zM72.087 19.827h1.655v-3.853h3.547v3.853h1.655v-8.563H77.29v3.425h-3.547v-3.425h-1.655zM80.122 11.264v8.563h1.655v-3.915c.014-.002.103-.01.265-.023.163-.013.31-.02.444-.023.349.003.642.097.88.283.237.185.456.448.657.788.316.508.66 1.043 1.028 1.605.37.562.64.99.813 1.285h2.06c-.41-.306-.782-.725-1.117-1.255a98.965 98.965 0 0 1-1.01-1.635 7.93 7.93 0 0 0-.84-1.214c-.29-.339-.72-.54-1.289-.606.242-.029.519-.211.831-.548.313-.336.587-.653.825-.95a5.71 5.71 0 0 1 .678-.766c.214-.197.54-.299.977-.305l-.355-1.498c-.807.111-1.452.447-1.935 1.007a37.3 37.3 0 0 0-1.332 1.63c-.404.526-.891.794-1.462.803a.352.352 0 0 1-.074-.009.15.15 0 0 1-.044-.021v-3.196h-1.655zM90.875 16.83l1.183-3.64 1.182 3.64h-2.365zm.237-5.566l-3.074 8.563h1.773l.591-1.713h3.31l.592 1.713h1.773l-3.074-8.563h-1.891z"/></g><g fill="#000" fill-rule="nonzero"><path d="M40.878 118.555h3.428c1.173-.04 2.02-.335 2.542-.883.522-.549.779-1.11.769-1.686.02-.575-.197-1.137-.65-1.686-.454-.549-1.262-.843-2.424-.883h-2.01v-2.14h4.374v-1.285h-6.03v8.563zm1.655-1.285v-2.569h1.655c.54 0 .968.107 1.286.321.318.215.48.536.488.964-.008.428-.17.75-.488.963-.318.214-.746.321-1.286.321h-1.655zM51.011 115.558l1.182-3.64 1.183 3.64H51.01zm.237-5.566l-3.074 8.563h1.773l.591-1.713h3.31l.592 1.713h1.773l-3.074-8.563h-1.891zM57.004 118.555h3.428c1.173-.04 2.02-.335 2.542-.883.522-.549.779-1.11.769-1.686.02-.575-.197-1.137-.65-1.686-.454-.549-1.262-.843-2.424-.883h-2.01v-2.14h4.374v-1.285h-6.03v8.563zm1.655-1.285v-2.569h1.655c.54 0 .968.107 1.286.321.318.215.48.536.488.964-.008.428-.17.75-.488.963-.318.214-.746.321-1.286.321H58.66zM71.512 118.555v-8.563h-1.774l-3.428 5.887v-5.887h-1.656v8.563h1.774l3.428-5.887v5.887zM72.668 118.555h1.655v-3.854h3.547v3.854h1.655v-8.563H77.87v3.425h-3.547v-3.425h-1.655zM84.11 109.778c-1.298.032-2.265.472-2.9 1.318-.636.847-.953 1.906-.95 3.177-.003 1.271.314 2.33.95 3.177.635.847 1.602 1.286 2.9 1.319 1.298-.033 2.265-.472 2.9-1.319.636-.847.953-1.906.95-3.177.003-1.27-.314-2.33-.95-3.177-.635-.846-1.602-1.286-2.9-1.318zm0 1.391c.663.009 1.2.286 1.61.83.412.544.624 1.302.636 2.274-.012.972-.224 1.73-.635 2.275-.412.544-.948.82-1.611.83-.663-.01-1.2-.286-1.61-.83-.412-.544-.624-1.303-.636-2.275.012-.972.224-1.73.635-2.274.411-.544.948-.821 1.611-.83z"/></g></g></svg>