<svg width="100" height="86" xmlns="http://www.w3.org/2000/svg"><g fill="none" fill-rule="evenodd"><path d="M10 43c0 22.091 17.909 40 40 40s40-17.909 40-40S72.091 3 50 3 10 20.909 10 43z" fill="#FFF" fill-rule="nonzero"/><path d="M90.367 43c0 22.294-18.073 40.367-40.367 40.367C27.706 83.367 9.633 65.294 9.633 43 9.633 20.706 27.706 2.633 50 2.633c22.294 0 40.367 18.073 40.367 40.367z" stroke="#000"/><path d="M50 5.667C70.619 5.667 87.333 22.38 87.333 43S70.62 80.333 50 80.333c-4.055 0-7.957-.65-11.613-1.846V46.871a5.163 5.163 0 0 1 5.163-5.163h18.062l.003 6.559 18.064-10.43-18.064-10.43-.003 6.56H43.55c-7.126 0-12.904 5.778-12.904 12.904v28.062c-10.78-6.547-17.98-18.4-17.98-31.933C12.667 22.381 29.382 5.667 50 5.667z" fill="#0D69E1" fill-rule="nonzero"/></g></svg>