<svg width="95" height="136" xmlns="http://www.w3.org/2000/svg"><g fill="none" fill-rule="evenodd"><rect x=".5" y=".5" width="85" height="127" rx="6" transform="translate(5 4)" fill="#FFF" stroke="#000"/><g fill-rule="nonzero"><path d="M11.03 7A3.018 3.018 0 0 0 8 10.02v115.96a3.018 3.018 0 0 0 3.03 3.02h73.94a3.018 3.018 0 0 0 3.03-3.02V10.02A3.018 3.018 0 0 0 84.97 7H11.03zm7.508 19h58.924C80.53 26 83 28.435 83 31.46v58.08c0 3.025-2.47 5.46-5.538 5.46H18.538C15.47 95 13 92.565 13 89.54V31.46c0-3.025 2.47-5.46 5.538-5.46z" fill="#0D69E1"/><g fill="#000"><path d="M24.69 50.947v2.96a43.121 43.121 0 0 1-.356 5.15 58.01 58.01 0 0 1-.85 5.046c-.337 1.555-.676 2.762-1.014 3.62h-2.22v6.415h2.96v-3.454h12.336v3.454h2.96v-6.414h-2.22V50.948H24.691zm3.455 2.96h4.687v13.817H25.82c.682-1.686 1.238-3.804 1.665-6.353.427-2.55.648-5.037.66-7.463zM41.704 50.947v19.737h3.454V53.908h7.4v16.776h3.455V50.947zM67.868 50.454c-2.71.074-4.727 1.086-6.053 3.035-1.327 1.95-1.987 4.391-1.983 7.327-.004 2.935.656 5.378 1.983 7.327 1.326 1.949 3.343 2.96 6.053 3.035 1.861-.026 3.368-.53 4.52-1.511 1.153-.982 2.03-2.288 2.634-3.917l-3.313-1.234c-.37 1.224-.873 2.108-1.512 2.653-.638.544-1.415.812-2.33.801-1.382-.02-2.502-.657-3.36-1.912-.859-1.254-1.301-3.001-1.327-5.242.026-2.241.468-3.989 1.326-5.243.859-1.254 1.98-1.891 3.362-1.912.914-.01 1.69.257 2.33.802.638.545 1.142 1.429 1.511 2.652l3.313-1.233c-.603-1.63-1.481-2.935-2.633-3.917-1.153-.982-2.66-1.485-4.521-1.511z"/></g></g></g></svg>