<svg width="110" height="80" xmlns="http://www.w3.org/2000/svg"><g fill="none" fill-rule="evenodd"><path d="M0 0h110v80H0z"/><path d="M0 0h110v80H0z"/><g fill-rule="nonzero"><g transform="translate(5 6)"><path d="M6.3.166h87.4a6.3 6.3 0 0 1 6.3 6.3v37.068a6.3 6.3 0 0 1-6.3 6.3H6.3a6.3 6.3 0 0 1-6.3-6.3V6.466a6.3 6.3 0 0 1 6.3-6.3z" fill="#000"/><rect fill="#FFF" x="1.667" y="1.821" width="96.667" height="46.358" rx="4.9"/><path d="M55.079 32.184l.884 1.144 2.009-1.25v11.547h2.625v-14.9h-2.25l-3.268 3.459zm8.615-1.038h6.938c-1.067 1.7-2.074 3.61-3.024 5.728a28.428 28.428 0 0 0-2.039 6.566h2.813c.578-2.666 1.297-5.018 2.156-7.055a78.617 78.617 0 0 1 2.719-5.797v-1.863h-9l-.563 2.421zm10.18 10.99c0-.431-.173-.845-.48-1.148-.307-.305-.692-.464-1.154-.475-.463.011-.848.17-1.155.475a1.613 1.613 0 0 0 0 2.295c.307.306.692.464 1.155.476.462-.012.847-.17 1.155-.476.307-.305.467-.688.479-1.147zM12.668 28.539c-1.261 0-2.347.326-3.258.978-.91.652-1.386 1.63-1.43 2.933.033.863.26 1.539.681 2.028.422.49.843.835 1.264 1.035.422.2.648.297.68.29-.036-.002-.296.126-.777.386-.481.26-.963.665-1.444 1.214-.482.55-.741 1.258-.778 2.125-.024.993.351 1.94 1.125 2.84.773.9 2.086 1.382 3.937 1.444 1.852-.062 3.164-.543 3.938-1.443.773-.9 1.148-1.848 1.125-2.84-.037-.868-.297-1.576-.778-2.126-.481-.55-.963-.954-1.444-1.214-.482-.26-.741-.388-.778-.386.032.007.259-.09.68-.29.422-.2.843-.545 1.264-1.035.422-.49.648-1.165.68-2.028-.042-1.304-.519-2.281-1.429-2.933-.91-.652-1.996-.978-3.258-.978zm0 2.129c.578-.008 1.063.126 1.453.402.391.275.594.736.61 1.38-.086.582-.43 1.095-1.031 1.537-.602.442-.946.675-1.032.698-.086-.023-.43-.256-1.031-.698-.602-.442-.945-.955-1.031-1.537.015-.644.219-1.105.61-1.38.39-.276.874-.41 1.452-.402zm0 6.252c.03.007.241.138.632.394.391.255.783.593 1.174 1.014.391.42.602.883.632 1.386-.031.648-.297 1.122-.797 1.42-.5.3-1.047.447-1.64.443a3.1 3.1 0 0 1-1.641-.442c-.5-.3-.766-.773-.797-1.42.03-.446.24-.88.632-1.304a7.714 7.714 0 0 1 1.173-1.056c.392-.28.602-.424.632-.435zm9.34 5.216c0-.431-.173-.845-.48-1.148-.307-.305-.692-.464-1.154-.475-.463.011-.848.17-1.155.475a1.613 1.613 0 0 0 0 2.295c.307.306.692.464 1.155.476.462-.012.847-.17 1.155-.476.307-.305.467-.688.479-1.147zM54.25 38.617H44.188v-2.422H54.25zM27.977 31.705c-1.208.031-2.174.597-2.898 1.698-.725 1.101-1.097 2.553-1.115 4.356.018 1.802.39 3.254 1.115 4.355.724 1.101 1.69 1.667 2.898 1.698 1.207-.03 2.173-.597 2.898-1.698.725-1.101 1.096-2.553 1.115-4.355-.019-1.72-.39-3.148-1.115-4.285-.725-1.136-1.69-1.726-2.898-1.769zm0 1.835c.582-.009 1.047.325 1.396 1.002.348.677.527 1.749.536 3.217-.009 1.467-.188 2.54-.536 3.216-.349.677-.814 1.01-1.396 1.002-.582.009-1.048-.325-1.396-1.002-.349-.677-.528-1.749-.536-3.216.008-1.468.187-2.54.536-3.217.348-.677.814-1.01 1.396-1.002zm9.738-1.835c-1.207.031-2.173.597-2.898 1.698-.725 1.101-1.096 2.553-1.115 4.356.019 1.802.39 3.254 1.115 4.355.725 1.101 1.69 1.667 2.898 1.698 1.208-.03 2.174-.597 2.898-1.698.725-1.101 1.097-2.553 1.115-4.355-.018-1.72-.39-3.148-1.115-4.285-.724-1.136-1.69-1.726-2.898-1.769zm0 1.835c.582-.009 1.048.325 1.396 1.002.349.677.528 1.749.536 3.217-.008 1.467-.187 2.54-.536 3.216-.348.677-.814 1.01-1.396 1.002-.582.009-1.047-.325-1.396-1.002-.348-.677-.527-1.749-.536-3.216.009-1.468.188-2.54.536-3.217.349-.677.814-1.01 1.396-1.002zM75.937 32.669l.785 1.75c.407-.356.803-.614 1.19-.775.385-.16.866-.24 1.443-.237.387.01.728.138 1.022.388.294.249.449.562.464.94-.018.462-.278.905-.78 1.33-.502.424-1.133.72-1.895.885v1.624c.15-.07.316-.113.496-.129.18-.015.362-.021.544-.018.933.04 1.525.265 1.776.675.25.41.36.76.326 1.054-.031.682-.292 1.18-.78 1.495-.488.315-1.077.47-1.767.467a8.697 8.697 0 0 1-1.593-.145c-.555-.1-1.022-.27-1.401-.509l.255 2.067c.052.021.41.106 1.072.253a10.56 10.56 0 0 0 1.964.253c1.417-.049 2.5-.467 3.246-1.255.746-.787 1.122-1.648 1.128-2.583-.022-.638-.217-1.167-.584-1.586a3.967 3.967 0 0 0-1.225-.963c-.45-.222-.81-.357-1.079-.404.62-.086 1.164-.394 1.635-.923.47-.53.718-1.206.743-2.03-.04-.822-.385-1.472-1.035-1.949a3.637 3.637 0 0 0-2.15-.73c-.632.016-1.321.137-2.067.361-.747.225-1.324.456-1.733.694zm13.099-.886c-1.208.03-2.174.597-2.898 1.698-.725 1.101-1.096 2.553-1.115 4.355.019 1.803.39 3.255 1.115 4.356.724 1.101 1.69 1.667 2.898 1.698 1.207-.031 2.174-.597 2.898-1.698.725-1.101 1.096-2.553 1.115-4.356-.019-1.72-.39-3.147-1.115-4.284-.724-1.137-1.69-1.726-2.898-1.77v.001zm0 1.835c.582-.009 1.047.325 1.396 1.002.348.676.527 1.749.536 3.216-.009 1.468-.188 2.54-.536 3.217-.349.677-.814 1.01-1.396 1.002-.582.008-1.048-.325-1.396-1.002-.349-.677-.527-1.75-.536-3.217.009-1.467.187-2.54.536-3.216.348-.677.814-1.01 1.396-1.002zM44.642 6.374l-3.645 3.621-1.933 4.333 1.601 1.593 3.149-3.128 4.585 4.554-6.574 6.53 1.604 1.589L50 18.938l6.571 6.528 1.604-1.589-6.574-6.53 4.585-4.554 3.149 3.128 1.601-1.593-1.933-4.333-3.645-3.621-2.817 2.799 2.043 2.029L50 15.756l-4.584-4.554 2.043-2.029-2.817-2.799z" fill="#000"/></g><path d="M46.148 72.405c0 .743-.292 1.362-.875 1.855-.583.493-1.316.74-2.2.74-.937 0-1.683-.24-2.24-.723-.555-.481-.833-1.098-.833-1.85 0-.477.14-.91.418-1.297.28-.387.672-.695 1.18-.922v-.035c-.465-.246-.809-.516-1.031-.809-.223-.293-.335-.659-.335-1.098 0-.648.268-1.187.802-1.619.535-.431 1.215-.647 2.04-.647.864 0 1.553.206 2.068.618.516.413.773.937.773 1.573 0 .389-.122.771-.366 1.147s-.602.67-1.075.882v.034c.542.232.957.517 1.244.856.286.339.43.77.43 1.295zm-1.378-4.203c0-.412-.16-.74-.479-.985-.32-.245-.727-.367-1.223-.367-.488 0-.888.115-1.2.347a1.106 1.106 0 0 0-.468.936c0 .277.079.517.236.72.157.202.394.382.711.54.144.07.35.16.62.272.269.111.531.204.787.277.383-.254.648-.518.796-.792.147-.273.22-.59.22-.948zm.18 4.312c0-.354-.078-.638-.235-.852-.157-.214-.464-.429-.92-.645a5.854 5.854 0 0 0-.6-.237c-.29-.099-.578-.2-.865-.306-.34.181-.63.446-.84.769-.21.323-.316.69-.316 1.098 0 .52.18.95.54 1.29.36.338.817.508 1.371.508.566 0 1.018-.145 1.357-.434.34-.289.509-.686.509-1.19l-.001-.001zm4.765 2.29h-1.388v-1.648h1.388v1.648zm8.193-2.735c0 .401-.073.785-.22 1.15-.135.348-.34.663-.605.926-.279.27-.611.476-.996.62-.386.145-.832.218-1.34.218-.472 0-.928-.05-1.365-.148a5.65 5.65 0 0 1-1.11-.355v-1.22h.081c.318.2.69.371 1.116.512.426.14.844.21 1.255.21.275 0 .541-.038.799-.115.258-.077.487-.212.689-.405.17-.165.299-.364.386-.595a2.27 2.27 0 0 0 .13-.803c0-.297-.05-.548-.153-.752a1.27 1.27 0 0 0-.427-.491c-.22-.155-.47-.26-.735-.31a4.789 4.789 0 0 0-.968-.089c-.34 0-.67.023-.985.07-.316.046-.588.092-.816.138v-4.433h5.206v1.011h-4.085v2.29c.32-.03.643-.046.965-.047.469 0 .88.04 1.232.118.352.08.676.22.97.42.31.211.55.485.72.82.171.336.256.756.256 1.26zm3.702 2.734h-1.39v-1.647h1.39v1.647zM70 72.012c0 .874-.29 1.588-.869 2.141-.579.553-1.289.83-2.13.83-.425 0-.813-.066-1.161-.197a2.666 2.666 0 0 1-.924-.584c-.333-.32-.59-.743-.77-1.271-.18-.528-.27-1.164-.27-1.908 0-.763.082-1.44.247-2.029.164-.59.427-1.113.787-1.572a3.46 3.46 0 0 1 1.319-1.02c.538-.245 1.166-.367 1.883-.367.228 0 .42.01.575.029.155.019.312.054.47.104v1.104H69.1a2.161 2.161 0 0 0-.49-.165 2.892 2.892 0 0 0-.672-.078c-.833 0-1.497.26-1.993.777-.496.519-.784 1.219-.866 2.102.326-.197.646-.346.962-.448a3.53 3.53 0 0 1 1.095-.154c.368 0 .693.034.974.102.28.067.568.203.863.407.34.235.597.532.77.89.172.359.258.794.258 1.307H70zm-1.18.046c0-.359-.053-.655-.16-.89a1.529 1.529 0 0 0-.525-.613 1.486 1.486 0 0 0-.593-.243 3.882 3.882 0 0 0-1.598.058 4.09 4.09 0 0 0-.871.358c-.016.18-.024.362-.024.544 0 .609.063 1.09.19 1.442.125.352.298.63.52.835a1.713 1.713 0 0 0 1.254.491c.562 0 1.004-.17 1.325-.511.322-.341.482-.832.482-1.471z" fill="#8B8B8B"/></g></g></svg>