<svg width="110" height="80" xmlns="http://www.w3.org/2000/svg"><g fill="none" fill-rule="evenodd"><path d="M0 0h110v80H0z"/><g fill-rule="nonzero"><g transform="translate(5 6)"><path d="M6.3.166h87.4a6.3 6.3 0 0 1 6.3 6.3v37.068a6.3 6.3 0 0 1-6.3 6.3H6.3a6.3 6.3 0 0 1-6.3-6.3V6.466a6.3 6.3 0 0 1 6.3-6.3z" fill="#000"/><rect fill="#FFF" x="1.667" y="1.821" width="96.667" height="46.358" rx="4.9"/><path d="M26.64 9.478a2.87 2.87 0 0 0-2.484 1.423l-5.02 8.64a2.843 2.843 0 0 0-.386 1.429v10.456c0 1.579 1.28 2.85 2.87 2.85h1.432c0-3.935 3.215-7.124 7.177-7.124 3.962 0 7.172 3.19 7.172 7.125h22.953c0-3.936 3.21-7.125 7.172-7.125 3.962 0 7.177 3.19 7.177 7.125h4.302c1.59 0 2.87-1.272 2.87-2.851V20.97c0-.307-.048-.61-.146-.9l-2.9-8.641a2.872 2.872 0 0 0-2.725-1.95H26.641l-.001-.001zm.334 1.998h3.255c.795 0 1.432.633 1.432 1.422V18.6c0 .79-.637 1.423-1.432 1.423h-6.573a1.426 1.426 0 0 1-1.24-2.137l3.313-5.702c.26-.44.734-.71 1.245-.708zm8.99 0h8.609c.795 0 1.437.633 1.437 1.422V18.6c0 .79-.642 1.423-1.437 1.423h-8.61a1.423 1.423 0 0 1-1.432-1.423v-5.702c0-.79.638-1.422 1.433-1.422zm14.349 0h8.609c.795 0 1.432.633 1.432 1.422V18.6c0 .79-.637 1.423-1.432 1.423h-8.61A1.423 1.423 0 0 1 48.88 18.6v-5.702c0-.79.638-1.422 1.432-1.422h.001zm14.348 0h8.178c.636 0 1.195.412 1.375 1.019l1.687 5.701a1.425 1.425 0 0 1-1.375 1.827h-9.865a1.427 1.427 0 0 1-1.437-1.423v-5.702c0-.79.643-1.422 1.437-1.422z" fill="#000"/><path d="M30.227 28.576c-3.17 0-5.738 2.552-5.738 5.7 0 3.149 2.569 5.7 5.738 5.7 3.17 0 5.739-2.551 5.739-5.7 0-3.148-2.57-5.7-5.739-5.7zm0 2.85a2.86 2.86 0 0 1 2.87 2.85 2.86 2.86 0 0 1-2.87 2.85 2.86 2.86 0 0 1-2.869-2.85 2.86 2.86 0 0 1 2.87-2.85h-.001zm37.301-2.85c-3.169 0-5.738 2.552-5.738 5.7 0 3.149 2.57 5.7 5.738 5.7 3.17 0 5.74-2.551 5.74-5.7 0-3.148-2.57-5.7-5.74-5.7zm0 2.85a2.86 2.86 0 0 1 2.87 2.85 2.86 2.86 0 0 1-2.87 2.85 2.86 2.86 0 0 1-2.869-2.85 2.86 2.86 0 0 1 2.87-2.85h-.001z" fill="#000"/></g><path d="M46.133 71.405c0 .743-.29 1.362-.872 1.855-.582.493-1.313.74-2.194.74-.936 0-1.68-.24-2.235-.723-.555-.481-.832-1.098-.832-1.85 0-.477.14-.91.417-1.297.279-.387.67-.695 1.177-.922v-.035c-.464-.246-.807-.516-1.029-.809-.222-.293-.333-.659-.333-1.098 0-.648.267-1.187.8-1.619.533-.431 1.211-.647 2.035-.647.862 0 1.55.206 2.063.618.514.413.771.937.771 1.573 0 .389-.121.771-.365 1.147-.243.376-.6.67-1.072.882v.034c.54.232.954.517 1.24.856.286.339.43.77.43 1.295h-.001zm-1.374-4.203c0-.412-.159-.74-.478-.985-.319-.245-.725-.367-1.22-.367-.487 0-.886.115-1.197.347a1.106 1.106 0 0 0-.467.936c0 .277.078.517.235.72.156.202.393.382.71.54.143.07.349.16.617.272.269.111.53.204.786.277.383-.254.647-.518.794-.792.147-.273.22-.59.22-.948zm.18 4.312c0-.354-.078-.638-.235-.852-.156-.214-.462-.429-.918-.645a5.833 5.833 0 0 0-.598-.237c-.289-.099-.576-.2-.863-.306-.34.181-.628.446-.838.769a1.97 1.97 0 0 0-.316 1.098c0 .52.18.95.54 1.29.359.338.815.508 1.367.508.565 0 1.016-.145 1.354-.434.338-.289.507-.686.507-1.19v-.001zm4.754 2.29h-1.386v-1.648h1.386v1.648zm8.44-2.422h-1.28v2.421h-1.114v-2.421h-4.133v-1.33l4.18-4.855h1.066v5.26h1.281v.925zm-2.394-.925v-3.885l-3.345 3.885h3.345zm5.82 3.346h-1.385v-1.647h1.385v1.647zM70 71.382h-1.281v2.421h-1.113v-2.421h-4.134v-1.33l4.18-4.855h1.067v5.26H70v.925zm-2.394-.925v-3.885l-3.345 3.885h3.345z" fill="#8B8B8B"/></g></g></svg>