<svg width="110" height="97" xmlns="http://www.w3.org/2000/svg"><g fill="none" fill-rule="evenodd"><path d="M0 0h110v97H0z"/><g fill-rule="nonzero"><path d="M11.3 6.167h87.4a6.3 6.3 0 0 1 6.3 6.3v54.066a6.3 6.3 0 0 1-6.3 6.3H11.3a6.3 6.3 0 0 1-6.3-6.3V12.467a6.3 6.3 0 0 1 6.3-6.3z" fill="#000"/><path d="M11.567 7.833h86.866a4.9 4.9 0 0 1 4.9 4.9v53.534a4.9 4.9 0 0 1-4.9 4.9H11.567a4.9 4.9 0 0 1-4.9-4.9V12.733a4.9 4.9 0 0 1 4.9-4.9z" fill="#FFF"/><path d="M16.25 50.997v12.5h2.679v-5.803a9.17 9.17 0 0 1 .346-.044c.118-.013.226-.02.323-.02 1.231.085 2.165.744 2.802 1.977a117.48 117.48 0 0 0 2.109 3.89h3.348a9.992 9.992 0 0 1-1.88-2.688c-.466-.972-1-1.91-1.597-2.808a3.852 3.852 0 0 0-2.326-1.646c.538-.16 1.013-.494 1.426-1.003.413-.51.851-1.007 1.314-1.492a2.778 2.778 0 0 1 1.724-.854l-.67-2.232c-.927.129-1.765.57-2.512 1.323a66.26 66.26 0 0 0-2.108 2.223c-.658.728-1.319 1.12-1.98 1.174a3.02 3.02 0 0 1-.16-.004.665.665 0 0 1-.16-.028v-4.465H16.25zm21.649-.446c-1.107.074-1.907.372-2.4.893-.492.52-.734.818-.725.893-.197-.351-.345-.797-.446-1.34h-2.233v17.858h2.679V62.38c.019.163.316.451.893.865.576.414 1.32.647 2.232.698.49.02 1.171-.145 2.042-.496.87-.352 1.667-1.013 2.39-1.984.721-.972 1.104-2.377 1.148-4.217-.093-2.622-.744-4.408-1.953-5.357-1.209-.948-2.418-1.395-3.627-1.339v.001zm0 2.455c.804.01 1.483.382 2.037 1.116.553.735.842 1.777.865 3.125-.023 1.358-.312 2.437-.865 3.237-.554.8-1.233 1.21-2.037 1.228a3.659 3.659 0 0 1-1.742-.475 3.698 3.698 0 0 1-1.383-1.311v-4.688c.343-.678.789-1.218 1.335-1.618a3.045 3.045 0 0 1 1.79-.614zm15.373-2.455c-1.707.028-3.092.642-4.157 1.841-1.065 1.2-1.614 2.819-1.646 4.855.032 2.037.58 3.656 1.646 4.855 1.065 1.2 2.45 1.814 4.157 1.842 1.707-.028 3.093-.642 4.157-1.842 1.065-1.2 1.614-2.818 1.647-4.855-.033-2.036-.582-3.655-1.647-4.855-1.064-1.2-2.45-1.813-4.157-1.841zm0 2.232c.912.019 1.656.428 2.232 1.228.577.8.874 1.879.893 3.236-.019 1.358-.316 2.437-.893 3.237-.576.8-1.32 1.21-2.232 1.228-.911-.019-1.655-.428-2.232-1.228-.577-.8-.874-1.879-.893-3.237.019-1.357.316-2.436.893-3.236.577-.8 1.32-1.21 2.232-1.228zM63.76 63.498h2.679l.67-8.706 3.57 7.143 3.573-7.143.669 8.706H77.6l-1.116-12.5h-2.68l-3.124 6.25-3.125-6.25h-2.678l-1.117 12.5zm24.327-10.715c.693.002 1.34.277 1.942.825.6.548.921 1.166.96 1.854a.812.812 0 0 1-.052.307c-.035.088-.092.134-.17.14h-5.581c.03-1.104.335-1.896.912-2.377a3.146 3.146 0 0 1 1.99-.749h-.001zm5.134 5.357c.196-.014.355-.153.479-.418.129-.29.194-.604.191-.921-.046-1.725-.623-3.185-1.73-4.38-1.107-1.196-2.465-1.819-4.074-1.87a5.837 5.837 0 0 0-2.523.614c-.819.4-1.508.94-2.068 1.618a4.982 4.982 0 0 0-.973 1.921c-.193.728-.294 1.576-.303 2.543.026 2.037.652 3.656 1.878 4.855 1.225 1.2 2.704 1.814 4.436 1.842.788.004 1.596-.228 2.423-.698.828-.47 1.636-1.204 2.424-2.204l-2.169-1.244c-.432.56-.85.98-1.255 1.264-.405.284-.879.426-1.423.426-.628.028-1.325-.195-2.093-.67-.767-.473-1.186-1.366-1.255-2.678h8.035zM31.64 13.458a2.866 2.866 0 0 0-2.484 1.433l-5.02 8.698a2.874 2.874 0 0 0-.386 1.437v10.526c0 1.59 1.28 2.87 2.87 2.87h1.432a7.175 7.175 0 0 1 14.349 0h22.953a7.17 7.17 0 0 1 7.172-7.172 7.175 7.175 0 0 1 7.177 7.172h4.302c1.59 0 2.87-1.28 2.87-2.87V25.026c0-.308-.048-.614-.146-.906l-2.9-8.698a2.873 2.873 0 0 0-2.725-1.964H31.64zm.334 2.01h3.255c.795 0 1.432.638 1.432 1.433v5.74c0 .794-.637 1.432-1.432 1.432h-6.573a1.43 1.43 0 0 1-1.24-2.151l3.313-5.74a1.435 1.435 0 0 1 1.245-.713v-.001zm8.99 0h8.609c.795 0 1.437.638 1.437 1.433v5.74c0 .794-.642 1.432-1.437 1.432h-8.61a1.427 1.427 0 0 1-1.432-1.432V16.9c0-.795.638-1.432 1.433-1.432zm14.349 0h8.609c.795 0 1.432.638 1.432 1.433v5.74c0 .794-.637 1.432-1.432 1.432h-8.61a1.427 1.427 0 0 1-1.432-1.432V16.9c0-.795.638-1.432 1.433-1.432zm14.348 0h8.178a1.43 1.43 0 0 1 1.375 1.027l1.687 5.74a1.436 1.436 0 0 1-1.375 1.838h-9.865a1.432 1.432 0 0 1-1.437-1.432V16.9c0-.795.643-1.432 1.437-1.432z" fill="#000"/><path d="M35.227 32.683a5.739 5.739 0 1 0-.152 11.477 5.739 5.739 0 0 0 .152-11.477zm0 2.87a2.87 2.87 0 1 1 0 5.738 2.87 2.87 0 0 1 0-5.739v.001zm37.301-2.87a5.739 5.739 0 1 0-.152 11.477 5.739 5.739 0 0 0 .152-11.477zm0 2.87a2.87 2.87 0 1 1 0 5.738 2.87 2.87 0 0 1 0-5.739v.001z" fill="#000"/><path d="M43.157 89.405c0 .743-.292 1.362-.876 1.855-.584.493-1.318.74-2.203.74-.938 0-1.686-.24-2.243-.723-.557-.481-.835-1.098-.835-1.85 0-.477.14-.91.419-1.297.28-.387.673-.695 1.181-.922v-.035c-.465-.246-.81-.516-1.033-.809-.223-.293-.334-.659-.334-1.098 0-.648.267-1.187.803-1.619.535-.431 1.216-.647 2.042-.647.866 0 1.556.206 2.072.618.516.413.774.937.774 1.573 0 .389-.122.771-.366 1.147-.245.376-.604.67-1.077.882v.034c.543.232.958.517 1.245.856.287.339.431.77.431 1.295zm-1.38-4.203c0-.412-.16-.74-.48-.985-.32-.245-.728-.367-1.224-.367-.49 0-.89.115-1.202.347-.304.213-.48.565-.469.936 0 .277.079.517.236.72.157.202.395.382.713.54.144.07.35.16.62.272.27.111.532.204.788.277.384-.254.65-.518.798-.792.147-.273.22-.59.22-.948zm.181 4.312c0-.354-.078-.638-.236-.852-.157-.214-.464-.429-.922-.645a5.869 5.869 0 0 0-.6-.237c-.29-.099-.578-.2-.866-.306-.35.189-.63.445-.841.769-.212.323-.317.69-.317 1.098 0 .52.18.95.54 1.29.362.338.82.508 1.374.508.567 0 1.02-.145 1.359-.434.34-.289.51-.686.51-1.19l-.001-.001zm4.772 2.29h-1.39v-1.648h1.39v1.648zm8.473-2.422h-1.286v2.421H52.8v-2.421h-4.15v-1.33l4.196-4.855h1.071v5.26h1.286v.925zm-2.403-.925v-3.885l-3.358 3.885H52.8zm5.842 3.346h-1.39v-1.647h1.39v1.647zm7.781 0h-4.69v-.878h1.804v-5.769h-1.804v-.786c.244 0 .506-.02.785-.06.28-.041.491-.1.635-.177.178-.096.319-.219.421-.367.103-.148.162-.348.178-.598h.902v7.757h1.77v.878h-.001zm7.577 0h-4.69v-.878h1.804v-5.769H69.31v-.786c.244 0 .506-.02.785-.06.28-.041.49-.1.634-.177.179-.096.32-.219.422-.367.103-.148.162-.348.178-.598h.902v7.757H74v.878z" fill="#8B8B8B"/></g></g></svg>