<svg width="101" height="91" viewBox="0 0 101 91" fill="none" xmlns="http://www.w3.org/2000/svg">
<path fill-rule="evenodd" clip-rule="evenodd" d="M55.8411 8.70725C59.1081 14.3702 62.3071 19.9933 67.0581 28.3993L71.8181 36.8243C82.0301 54.8923 88.1481 65.4882 94.8881 76.5902C97.1161 80.2582 93.9641 85.5863 89.7131 85.5863H10.9111C6.66013 85.5863 3.50813 80.2582 5.73513 76.5902C12.4731 65.4912 18.5751 54.9202 28.8031 36.8272L33.4351 28.6272C38.2631 20.0872 41.4831 14.4272 44.7831 8.70725C47.6351 3.76425 52.9901 3.76425 55.8411 8.70725Z" stroke="#0C0E0F"/>
<path d="M11.9868 75.5577L11.9838 75.5637L11.4278 76.5307L11.4118 76.5587C10.9238 77.4217 10.4238 78.2777 9.91181 79.1267C9.69181 79.4887 10.4118 80.7007 10.9118 80.7007H89.7118C90.2118 80.7007 90.9318 79.4887 90.7118 79.1257C90.2758 78.4077 89.9398 77.8307 89.2098 76.5557L89.1898 76.5197C88.9238 76.0567 88.7938 75.8297 88.6358 75.5577L51.6088 11.1487C50.6908 9.5577 49.9338 9.55771 49.0178 11.1457L11.9878 75.5577H11.9868Z" fill="white" stroke="#FF0000" stroke-width="6"/>
<path d="M30.1842 57.6456H30.0342V57.8883L30.2513 57.7798L30.1842 57.6456ZM30.1842 56.3082L30.1172 56.174L30.0342 56.2155V56.3082H30.1842ZM31.1842 57.1456L31.2513 57.0114L31.1842 56.9779L31.1172 57.0114L31.1842 57.1456ZM35.1842 59.1456L35.2513 59.2798L35.5196 59.1456L35.2513 59.0114L35.1842 59.1456ZM31.1842 61.1456L31.1171 61.2798L31.1842 61.3133L31.2513 61.2798L31.1842 61.1456ZM30.1842 60.6456L30.2513 60.5114L30.0342 60.4029V60.6456H30.1842ZM30.1842 61.9875H30.0342V62.0802L30.1172 62.1217L30.1842 61.9875ZM30.5004 62.1456L30.5675 62.2798L30.8358 62.1456L30.5675 62.0114L30.5004 62.1456ZM30.1842 62.3037L30.1172 62.1695L30.0342 62.211V62.3037H30.1842ZM30.1842 63.6456H30.0342V63.8883L30.2513 63.7798L30.1842 63.6456ZM31.1842 63.1456L31.2513 63.0114L31.1842 62.9779L31.1172 63.0114L31.1842 63.1456ZM35.1842 65.1456L35.2513 65.2798L35.5196 65.1456L35.2513 65.0114L35.1842 65.1456ZM31.1842 67.1456L31.1171 67.2798L31.1842 67.3133L31.2513 67.2798L31.1842 67.1456ZM30.1842 66.6456L30.2513 66.5114L30.0342 66.4029V66.6456H30.1842ZM30.1842 67.9875H30.0342V68.0802L30.1172 68.1217L30.1842 67.9875ZM30.5004 68.1456L30.5675 68.2798L30.8358 68.1456L30.5675 68.0114L30.5004 68.1456ZM30.1842 68.3037L30.1172 68.1695L30.0342 68.211V68.3037H30.1842ZM30.1842 69.6456H30.0342V69.8883L30.2513 69.7798L30.1842 69.6456ZM31.1842 69.1456L31.2513 69.0114L31.1842 68.9779L31.1172 69.0114L31.1842 69.1456ZM35.1842 71.1456L35.2513 71.2798L35.5196 71.1456L35.2513 71.0114L35.1842 71.1456ZM31.1842 73.1456L31.1171 73.2798L31.1842 73.3133L31.2513 73.2798L31.1842 73.1456ZM30.1842 72.6456L30.2513 72.5114L30.0342 72.4029V72.6456H30.1842ZM30.1842 73.842H30.0342V73.9347L30.1172 73.9762L30.1842 73.842ZM30.5004 74.0001L30.5675 74.1343L30.8358 74.0001L30.5675 73.8659L30.5004 74.0001ZM30.2094 74.1456L30.1423 74.0114L30.2094 74.2956V74.1456ZM32.1842 74.1456V74.2956H32.2196L32.2513 74.2798L32.1842 74.1456ZM36.1842 72.1456L36.2513 72.0114L36.1842 71.9779L36.1172 72.0114L36.1842 72.1456ZM40.1842 74.1456L40.1172 74.2798L40.1488 74.2956H40.1842V74.1456ZM41.6842 74.1456V74.2956H41.7196L41.7513 74.2798L41.6842 74.1456ZM45.6842 72.1456L45.7513 72.0114L45.6842 71.9779L45.6172 72.0114L45.6842 72.1456ZM49.6842 74.1456L49.6172 74.2798L49.6488 74.2956H49.6842V74.1456ZM51.1842 74.1456V74.2956H51.2196L51.2513 74.2798L51.1842 74.1456ZM55.1842 72.1456L55.2513 72.0114L55.1842 71.9779L55.1172 72.0114L55.1842 72.1456ZM59.1842 74.1456L59.1172 74.2798L59.1488 74.2956H59.1842V74.1456ZM60.6842 74.1456V74.2956H60.7196L60.7513 74.2798L60.6842 74.1456ZM64.6842 72.1456L64.7513 72.0114L64.6842 71.9779L64.6171 72.0114L64.6842 72.1456ZM68.6842 74.1456L68.6172 74.2798L68.6488 74.2956H68.6842V74.1456ZM70.1842 74.1456V74.2956H70.2196L70.2513 74.2798L70.1842 74.1456ZM70.6842 73.8956L70.7513 74.0298L70.8342 73.9883V73.8956H70.6842ZM70.6842 72.3956H70.8342V72.1529L70.6172 72.2614L70.6842 72.3956ZM69.1842 73.1456L69.1171 73.2798L69.1842 73.3133L69.2513 73.2798L69.1842 73.1456ZM65.1842 71.1456L65.1172 71.0114L64.8488 71.1456L65.1172 71.2798L65.1842 71.1456ZM69.1842 69.1456L69.2513 69.0114L69.1842 68.9779L69.1171 69.0114L69.1842 69.1456ZM70.6842 69.8956L70.6172 70.0298L70.8342 70.1383V69.8956H70.6842ZM70.6842 68.3956H70.8342V68.3029L70.7513 68.2614L70.6842 68.3956ZM70.1842 68.1456L70.1172 68.0114L69.8488 68.1456L70.1172 68.2798L70.1842 68.1456ZM70.6842 67.8956L70.7513 68.0298L70.8342 67.9883V67.8956H70.6842ZM70.6842 66.3956H70.8342V66.1529L70.6172 66.2614L70.6842 66.3956ZM69.1842 67.1456L69.1171 67.2798L69.1842 67.3133L69.2513 67.2798L69.1842 67.1456ZM65.1842 65.1456L65.1172 65.0114L64.8488 65.1456L65.1172 65.2798L65.1842 65.1456ZM69.1842 63.1456L69.2513 63.0114L69.1842 62.9779L69.1171 63.0114L69.1842 63.1456ZM70.6842 63.8956L70.6172 64.0298L70.8342 64.1383V63.8956H70.6842ZM70.6842 62.3956H70.8342V62.3029L70.7513 62.2614L70.6842 62.3956ZM70.1842 62.1456L70.1172 62.0114L69.8488 62.1456L70.1172 62.2798L70.1842 62.1456ZM70.6842 61.8956L70.7513 62.0298L70.8342 61.9883V61.8956H70.6842ZM70.6842 60.3956H70.8342V60.1529L70.6172 60.2614L70.6842 60.3956ZM69.1842 61.1456L69.1171 61.2798L69.1842 61.3133L69.2513 61.2798L69.1842 61.1456ZM65.1842 59.1456L65.1172 59.0114L64.8488 59.1456L65.1172 59.2798L65.1842 59.1456ZM69.1842 57.1456L69.2513 57.0114L69.1842 56.9779L69.1171 57.0114L69.1842 57.1456ZM70.6842 57.8956L70.6172 58.0298L70.8342 58.1383V57.8956H70.6842ZM70.6842 56.3956H70.8342V56.3029L70.7513 56.2614L70.6842 56.3956ZM70.1842 56.1456L70.1172 56.0114L69.8488 56.1456L70.1172 56.2798L70.1842 56.1456ZM70.6842 55.8956L70.7513 56.0298L70.8342 55.9883V55.8956H70.6842ZM70.6842 54.3956H70.8342V54.1529L70.6172 54.2614L70.6842 54.3956ZM69.1842 55.1456L69.1171 55.2798L69.1842 55.3133L69.2513 55.2798L69.1842 55.1456ZM65.1842 53.1456L65.2513 53.0114L65.2196 52.9956H65.1842V53.1456ZM63.6842 53.1456V52.9956H63.6488L63.6172 53.0114L63.6842 53.1456ZM59.6842 55.1456L59.6172 55.2798L59.6842 55.3133L59.7513 55.2798L59.6842 55.1456ZM55.6842 53.1456L55.7513 53.0114L55.7196 52.9956H55.6842V53.1456ZM54.1842 53.1456V52.9956H54.1488L54.1172 53.0114L54.1842 53.1456ZM50.1842 55.1456L50.1172 55.2798L50.1842 55.3133L50.2513 55.2798L50.1842 55.1456ZM46.1842 53.1456L46.2513 53.0114L46.2196 52.9956H46.1842V53.1456ZM44.6842 53.1456V52.9956H44.6488L44.6172 53.0114L44.6842 53.1456ZM40.6842 55.1456L40.6172 55.2798L40.6842 55.3133L40.7513 55.2798L40.6842 55.1456ZM36.6842 53.1456L36.7513 53.0114L36.7196 52.9956H36.6842V53.1456ZM35.1842 53.1456V52.9956H35.1488L35.1172 53.0114L35.1842 53.1456ZM31.1842 55.1456L31.1171 55.2798L31.1842 55.3133L31.2513 55.2798L31.1842 55.1456ZM30.1842 54.6456L30.2513 54.5114L30.0342 54.4029V54.6456H30.1842ZM30.1842 55.992H30.0342V56.0847L30.1172 56.1262L30.1842 55.992ZM30.5004 56.1501L30.5675 56.2843L30.8358 56.1501L30.5675 56.0159L30.5004 56.1501ZM54.1842 71.1456L54.2513 71.2798L54.5196 71.1456L54.2513 71.0114L54.1842 71.1456ZM50.1842 69.1456L50.2513 69.0114L50.1842 68.9779L50.1172 69.0114L50.1842 69.1456ZM50.1842 73.1456L50.1172 73.2798L50.1842 73.3133L50.2513 73.2798L50.1842 73.1456ZM46.1842 71.1456L46.1172 71.0114L45.8488 71.1456L46.1172 71.2798L46.1842 71.1456ZM63.6842 71.1456L63.7513 71.2798L64.0196 71.1456L63.7513 71.0114L63.6842 71.1456ZM59.6842 69.1456L59.7513 69.0114L59.6842 68.9779L59.6172 69.0114L59.6842 69.1456ZM59.6842 73.1456L59.6172 73.2798L59.6842 73.3133L59.7513 73.2798L59.6842 73.1456ZM55.6842 71.1456L55.6172 71.0114L55.3488 71.1456L55.6172 71.2798L55.6842 71.1456ZM44.6842 71.1456L44.7513 71.2798L45.0196 71.1456L44.7513 71.0114L44.6842 71.1456ZM40.6842 69.1456L40.7513 69.0114L40.6842 68.9779L40.6172 69.0114L40.6842 69.1456ZM40.6842 73.1456L40.6172 73.2798L40.6842 73.3133L40.7513 73.2798L40.6842 73.1456ZM36.6842 71.1456L36.6172 71.0114L36.3488 71.1456L36.6172 71.2798L36.6842 71.1456ZM50.1842 63.1456L50.2513 63.0114L50.1842 62.9779L50.1172 63.0114L50.1842 63.1456ZM54.1842 65.1456L54.2513 65.2798L54.5196 65.1456L54.2513 65.0114L54.1842 65.1456ZM46.1842 65.1456L46.1172 65.0114L45.8488 65.1456L46.1172 65.2798L46.1842 65.1456ZM50.1842 67.1456L50.1172 67.2798L50.1842 67.3133L50.2513 67.2798L50.1842 67.1456ZM59.6842 63.1456L59.7513 63.0114L59.6842 62.9779L59.6172 63.0114L59.6842 63.1456ZM63.6842 65.1456L63.7513 65.2798L64.0196 65.1456L63.7513 65.0114L63.6842 65.1456ZM55.6842 65.1456L55.6172 65.0114L55.3488 65.1456L55.6172 65.2798L55.6842 65.1456ZM59.6842 67.1456L59.6172 67.2798L59.6842 67.3133L59.7513 67.2798L59.6842 67.1456ZM44.6842 65.1456L44.7513 65.2798L45.0196 65.1456L44.7513 65.0114L44.6842 65.1456ZM40.6842 63.1456L40.7513 63.0114L40.6842 62.9779L40.6172 63.0114L40.6842 63.1456ZM40.6842 67.1456L40.6172 67.2798L40.6842 67.3133L40.7513 67.2798L40.6842 67.1456ZM36.6842 65.1456L36.6172 65.0114L36.3488 65.1456L36.6172 65.2798L36.6842 65.1456ZM54.1842 59.1456L54.2513 59.2798L54.5196 59.1456L54.2513 59.0114L54.1842 59.1456ZM50.1842 57.1456L50.2513 57.0114L50.1842 56.9779L50.1172 57.0114L50.1842 57.1456ZM50.1842 61.1456L50.1172 61.2798L50.1842 61.3133L50.2513 61.2798L50.1842 61.1456ZM46.1842 59.1456L46.1172 59.0114L45.8488 59.1456L46.1172 59.2798L46.1842 59.1456ZM63.6842 59.1456L63.7513 59.2798L64.0196 59.1456L63.7513 59.0114L63.6842 59.1456ZM59.6842 57.1456L59.7513 57.0114L59.6842 56.9779L59.6172 57.0114L59.6842 57.1456ZM59.6842 61.1456L59.6172 61.2798L59.6842 61.3133L59.7513 61.2798L59.6842 61.1456ZM55.6842 59.1456L55.6172 59.0114L55.3488 59.1456L55.6172 59.2798L55.6842 59.1456ZM40.6842 57.1456L40.7513 57.0114L40.6842 56.9779L40.6172 57.0114L40.6842 57.1456ZM44.6842 59.1456L44.7513 59.2798L45.0196 59.1456L44.7513 59.0114L44.6842 59.1456ZM36.6842 59.1456L36.6172 59.0114L36.3488 59.1456L36.6172 59.2798L36.6842 59.1456ZM40.6842 61.1456L40.6172 61.2798L40.6842 61.3133L40.7513 61.2798L40.6842 61.1456ZM55.1842 66.1456L55.2513 66.0114L55.1842 65.9779L55.1172 66.0114L55.1842 66.1456ZM59.1842 68.1456L59.2513 68.2798L59.5196 68.1456L59.2513 68.0114L59.1842 68.1456ZM51.1842 68.1456L51.1172 68.0114L50.8488 68.1456L51.1172 68.2798L51.1842 68.1456ZM55.1842 70.1456L55.1172 70.2798L55.1842 70.3133L55.2513 70.2798L55.1842 70.1456ZM64.6842 66.1456L64.7513 66.0114L64.6842 65.9779L64.6171 66.0114L64.6842 66.1456ZM68.6842 68.1456L68.7513 68.2798L69.0196 68.1456L68.7513 68.0114L68.6842 68.1456ZM60.6842 68.1456L60.6172 68.0114L60.3488 68.1456L60.6172 68.2798L60.6842 68.1456ZM64.6842 70.1456L64.6171 70.2798L64.6842 70.3133L64.7513 70.2798L64.6842 70.1456ZM49.6842 68.1456L49.7513 68.2798L50.0196 68.1456L49.7513 68.0114L49.6842 68.1456ZM45.6842 66.1456L45.7513 66.0114L45.6842 65.9779L45.6172 66.0114L45.6842 66.1456ZM45.6842 70.1456L45.6172 70.2798L45.6842 70.3133L45.7513 70.2798L45.6842 70.1456ZM41.6842 68.1456L41.6172 68.0114L41.3488 68.1456L41.6172 68.2798L41.6842 68.1456ZM36.1842 66.1456L36.2513 66.0114L36.1842 65.9779L36.1172 66.0114L36.1842 66.1456ZM40.1842 68.1456L40.2513 68.2798L40.5196 68.1456L40.2513 68.0114L40.1842 68.1456ZM32.1842 68.1456L32.1172 68.0114L31.8488 68.1456L32.1172 68.2798L32.1842 68.1456ZM36.1842 70.1456L36.1172 70.2798L36.1842 70.3133L36.2513 70.2798L36.1842 70.1456ZM59.1842 62.1456L59.2513 62.2798L59.5196 62.1456L59.2513 62.0114L59.1842 62.1456ZM55.1842 60.1456L55.2513 60.0114L55.1842 59.9779L55.1172 60.0114L55.1842 60.1456ZM55.1842 64.1456L55.1172 64.2798L55.1842 64.3133L55.2513 64.2798L55.1842 64.1456ZM51.1842 62.1456L51.1172 62.0114L50.8488 62.1456L51.1172 62.2798L51.1842 62.1456ZM68.6842 62.1456L68.7513 62.2798L69.0196 62.1456L68.7513 62.0114L68.6842 62.1456ZM64.6842 60.1456L64.7513 60.0114L64.6842 59.9779L64.6171 60.0114L64.6842 60.1456ZM64.6842 64.1456L64.6171 64.2798L64.6842 64.3133L64.7513 64.2798L64.6842 64.1456ZM60.6842 62.1456L60.6172 62.0114L60.3488 62.1456L60.6172 62.2798L60.6842 62.1456ZM45.6842 60.1456L45.7513 60.0114L45.6842 59.9779L45.6172 60.0114L45.6842 60.1456ZM49.6842 62.1456L49.7513 62.2798L50.0196 62.1456L49.7513 62.0114L49.6842 62.1456ZM41.6842 62.1456L41.6172 62.0114L41.3488 62.1456L41.6172 62.2798L41.6842 62.1456ZM45.6842 64.1456L45.6172 64.2798L45.6842 64.3133L45.7513 64.2798L45.6842 64.1456ZM40.1842 62.1456L40.2513 62.2798L40.5196 62.1456L40.2513 62.0114L40.1842 62.1456ZM36.1842 60.1456L36.2513 60.0114L36.1842 59.9779L36.1172 60.0114L36.1842 60.1456ZM36.1842 64.1456L36.1172 64.2798L36.1842 64.3133L36.2513 64.2798L36.1842 64.1456ZM32.1842 62.1456L32.1172 62.0114L31.8488 62.1456L32.1172 62.2798L32.1842 62.1456ZM55.1842 54.1456L55.2513 54.0114L55.1842 53.9779L55.1172 54.0114L55.1842 54.1456ZM59.1842 56.1456L59.2513 56.2798L59.5196 56.1456L59.2513 56.0114L59.1842 56.1456ZM51.1842 56.1456L51.1172 56.0114L50.8488 56.1456L51.1172 56.2798L51.1842 56.1456ZM55.1842 58.1456L55.1172 58.2798L55.1842 58.3133L55.2513 58.2798L55.1842 58.1456ZM64.6842 54.1456L64.7513 54.0114L64.6842 53.9779L64.6171 54.0114L64.6842 54.1456ZM68.6842 56.1456L68.7513 56.2798L69.0196 56.1456L68.7513 56.0114L68.6842 56.1456ZM60.6842 56.1456L60.6172 56.0114L60.3488 56.1456L60.6172 56.2798L60.6842 56.1456ZM64.6842 58.1456L64.6171 58.2798L64.6842 58.3133L64.7513 58.2798L64.6842 58.1456ZM49.6842 56.1456L49.7513 56.2798L50.0196 56.1456L49.7513 56.0114L49.6842 56.1456ZM45.6842 54.1456L45.7513 54.0114L45.6842 53.9779L45.6172 54.0114L45.6842 54.1456ZM45.6842 58.1456L45.6172 58.2798L45.6842 58.3133L45.7513 58.2798L45.6842 58.1456ZM41.6842 56.1456L41.6172 56.0114L41.3488 56.1456L41.6172 56.2798L41.6842 56.1456ZM36.1842 54.1456L36.2513 54.0114L36.1842 53.9779L36.1172 54.0114L36.1842 54.1456ZM40.1842 56.1456L40.2513 56.2798L40.5196 56.1456L40.2513 56.0114L40.1842 56.1456ZM32.1842 56.1456L32.1172 56.0114L31.8488 56.1456L32.1172 56.2798L32.1842 56.1456ZM36.1842 58.1456L36.1172 58.2798L36.1842 58.3133L36.2513 58.2798L36.1842 58.1456ZM30.3342 57.6456V56.3082H30.0342V57.6456H30.3342ZM31.1172 57.0114L30.1172 57.5114L30.2513 57.7798L31.2513 57.2798L31.1172 57.0114ZM35.2513 59.0114L31.2513 57.0114L31.1172 57.2798L35.1172 59.2798L35.2513 59.0114ZM31.2513 61.2798L35.2513 59.2798L35.1172 59.0114L31.1171 61.0114L31.2513 61.2798ZM30.1172 60.7798L31.1171 61.2798L31.2513 61.0114L30.2513 60.5114L30.1172 60.7798ZM30.3342 61.9875V60.6456H30.0342V61.9875H30.3342ZM30.5675 62.0114L30.2513 61.8534L30.1172 62.1217L30.4333 62.2798L30.5675 62.0114ZM30.2513 62.4379L30.5675 62.2798L30.4333 62.0114L30.1172 62.1695L30.2513 62.4379ZM30.3342 63.6456V62.3037H30.0342V63.6456H30.3342ZM31.1172 63.0114L30.1172 63.5114L30.2513 63.7798L31.2513 63.2798L31.1172 63.0114ZM35.2513 65.0114L31.2513 63.0114L31.1172 63.2798L35.1172 65.2798L35.2513 65.0114ZM31.2513 67.2798L35.2513 65.2798L35.1172 65.0114L31.1171 67.0114L31.2513 67.2798ZM30.1172 66.7798L31.1171 67.2798L31.2513 67.0114L30.2513 66.5114L30.1172 66.7798ZM30.3342 67.9875V66.6456H30.0342V67.9875H30.3342ZM30.5675 68.0114L30.2513 67.8534L30.1172 68.1217L30.4333 68.2798L30.5675 68.0114ZM30.2513 68.4379L30.5675 68.2798L30.4333 68.0114L30.1172 68.1695L30.2513 68.4379ZM30.3342 69.6456V68.3037H30.0342V69.6456H30.3342ZM31.1172 69.0114L30.1172 69.5114L30.2513 69.7798L31.2513 69.2798L31.1172 69.0114ZM35.2513 71.0114L31.2513 69.0114L31.1172 69.2798L35.1172 71.2798L35.2513 71.0114ZM31.2513 73.2798L35.2513 71.2798L35.1172 71.0114L31.1171 73.0114L31.2513 73.2798ZM30.1172 72.7798L31.1171 73.2798L31.2513 73.0114L30.2513 72.5114L30.1172 72.7798ZM30.3342 73.842V72.6456H30.0342V73.842H30.3342ZM30.5675 73.8659L30.2513 73.7079L30.1172 73.9762L30.4333 74.1343L30.5675 73.8659ZM30.2765 74.2798L30.5675 74.1343L30.4333 73.8659L30.1423 74.0114L30.2765 74.2798ZM32.1842 73.9956H30.2094V74.2956H32.1842V73.9956ZM36.1172 72.0114L32.1172 74.0114L32.2513 74.2798L36.2513 72.2798L36.1172 72.0114ZM40.2513 74.0114L36.2513 72.0114L36.1172 72.2798L40.1172 74.2798L40.2513 74.0114ZM41.6842 73.9956H40.1842V74.2956H41.6842V73.9956ZM45.6172 72.0114L41.6172 74.0114L41.7513 74.2798L45.7513 72.2798L45.6172 72.0114ZM49.7513 74.0114L45.7513 72.0114L45.6172 72.2798L49.6172 74.2798L49.7513 74.0114ZM51.1842 73.9956H49.6842V74.2956H51.1842V73.9956ZM55.1172 72.0114L51.1172 74.0114L51.2513 74.2798L55.2513 72.2798L55.1172 72.0114ZM59.2513 74.0114L55.2513 72.0114L55.1172 72.2798L59.1172 74.2798L59.2513 74.0114ZM60.6842 73.9956H59.1842V74.2956H60.6842V73.9956ZM64.6171 72.0114L60.6172 74.0114L60.7513 74.2798L64.7513 72.2798L64.6171 72.0114ZM68.7513 74.0114L64.7513 72.0114L64.6171 72.2798L68.6172 74.2798L68.7513 74.0114ZM70.1842 73.9956H68.6842V74.2956H70.1842V73.9956ZM70.6172 73.7614L70.1172 74.0114L70.2513 74.2798L70.7513 74.0298L70.6172 73.7614ZM70.5342 72.3956V73.8956H70.8342V72.3956H70.5342ZM69.2513 73.2798L70.7513 72.5298L70.6172 72.2614L69.1171 73.0114L69.2513 73.2798ZM65.1172 71.2798L69.1171 73.2798L69.2513 73.0114L65.2513 71.0114L65.1172 71.2798ZM69.1171 69.0114L65.1172 71.0114L65.2513 71.2798L69.2513 69.2798L69.1171 69.0114ZM70.7513 69.7614L69.2513 69.0114L69.1171 69.2798L70.6172 70.0298L70.7513 69.7614ZM70.5342 68.3956V69.8956H70.8342V68.3956H70.5342ZM70.1172 68.2798L70.6172 68.5298L70.7513 68.2614L70.2513 68.0114L70.1172 68.2798ZM70.6172 67.7614L70.1172 68.0114L70.2513 68.2798L70.7513 68.0298L70.6172 67.7614ZM70.5342 66.3956V67.8956H70.8342V66.3956H70.5342ZM69.2513 67.2798L70.7513 66.5298L70.6172 66.2614L69.1171 67.0114L69.2513 67.2798ZM65.1172 65.2798L69.1171 67.2798L69.2513 67.0114L65.2513 65.0114L65.1172 65.2798ZM69.1171 63.0114L65.1172 65.0114L65.2513 65.2798L69.2513 63.2798L69.1171 63.0114ZM70.7513 63.7614L69.2513 63.0114L69.1171 63.2798L70.6172 64.0298L70.7513 63.7614ZM70.5342 62.3956V63.8956H70.8342V62.3956H70.5342ZM70.1172 62.2798L70.6172 62.5298L70.7513 62.2614L70.2513 62.0114L70.1172 62.2798ZM70.6172 61.7614L70.1172 62.0114L70.2513 62.2798L70.7513 62.0298L70.6172 61.7614ZM70.5342 60.3956V61.8956H70.8342V60.3956H70.5342ZM69.2513 61.2798L70.7513 60.5298L70.6172 60.2614L69.1171 61.0114L69.2513 61.2798ZM65.1172 59.2798L69.1171 61.2798L69.2513 61.0114L65.2513 59.0114L65.1172 59.2798ZM69.1171 57.0114L65.1172 59.0114L65.2513 59.2798L69.2513 57.2798L69.1171 57.0114ZM70.7513 57.7614L69.2513 57.0114L69.1171 57.2798L70.6172 58.0298L70.7513 57.7614ZM70.5342 56.3956V57.8956H70.8342V56.3956H70.5342ZM70.1172 56.2798L70.6172 56.5298L70.7513 56.2614L70.2513 56.0114L70.1172 56.2798ZM70.6172 55.7614L70.1172 56.0114L70.2513 56.2798L70.7513 56.0298L70.6172 55.7614ZM70.5342 54.3956V55.8956H70.8342V54.3956H70.5342ZM69.2513 55.2798L70.7513 54.5298L70.6172 54.2614L69.1171 55.0114L69.2513 55.2798ZM65.1172 53.2798L69.1171 55.2798L69.2513 55.0114L65.2513 53.0114L65.1172 53.2798ZM63.6842 53.2956H65.1842V52.9956H63.6842V53.2956ZM59.7513 55.2798L63.7513 53.2798L63.6172 53.0114L59.6172 55.0114L59.7513 55.2798ZM55.6172 53.2798L59.6172 55.2798L59.7513 55.0114L55.7513 53.0114L55.6172 53.2798ZM54.1842 53.2956H55.6842V52.9956H54.1842V53.2956ZM50.2513 55.2798L54.2513 53.2798L54.1172 53.0114L50.1172 55.0114L50.2513 55.2798ZM46.1172 53.2798L50.1172 55.2798L50.2513 55.0114L46.2513 53.0114L46.1172 53.2798ZM44.6842 53.2956H46.1842V52.9956H44.6842V53.2956ZM40.7513 55.2798L44.7513 53.2798L44.6172 53.0114L40.6172 55.0114L40.7513 55.2798ZM36.6172 53.2798L40.6172 55.2798L40.7513 55.0114L36.7513 53.0114L36.6172 53.2798ZM35.1842 53.2956H36.6842V52.9956H35.1842V53.2956ZM31.2513 55.2798L35.2513 53.2798L35.1172 53.0114L31.1171 55.0114L31.2513 55.2798ZM30.1172 54.7798L31.1171 55.2798L31.2513 55.0114L30.2513 54.5114L30.1172 54.7798ZM30.3342 55.992V54.6456H30.0342V55.992H30.3342ZM30.5675 56.0159L30.2513 55.8579L30.1172 56.1262L30.4333 56.2843L30.5675 56.0159ZM30.2513 56.4423L30.5675 56.2843L30.4333 56.0159L30.1172 56.174L30.2513 56.4423ZM54.2513 71.0114L50.2513 69.0114L50.1172 69.2798L54.1172 71.2798L54.2513 71.0114ZM50.2513 73.2798L54.2513 71.2798L54.1172 71.0114L50.1172 73.0114L50.2513 73.2798ZM46.1172 71.2798L50.1172 73.2798L50.2513 73.0114L46.2513 71.0114L46.1172 71.2798ZM50.1172 69.0114L46.1172 71.0114L46.2513 71.2798L50.2513 69.2798L50.1172 69.0114ZM63.7513 71.0114L59.7513 69.0114L59.6172 69.2798L63.6172 71.2798L63.7513 71.0114ZM59.7513 73.2798L63.7513 71.2798L63.6172 71.0114L59.6172 73.0114L59.7513 73.2798ZM55.6172 71.2798L59.6172 73.2798L59.7513 73.0114L55.7513 71.0114L55.6172 71.2798ZM59.6172 69.0114L55.6172 71.0114L55.7513 71.2798L59.7513 69.2798L59.6172 69.0114ZM44.7513 71.0114L40.7513 69.0114L40.6172 69.2798L44.6172 71.2798L44.7513 71.0114ZM40.7513 73.2798L44.7513 71.2798L44.6172 71.0114L40.6172 73.0114L40.7513 73.2798ZM36.6172 71.2798L40.6172 73.2798L40.7513 73.0114L36.7513 71.0114L36.6172 71.2798ZM40.6172 69.0114L36.6172 71.0114L36.7513 71.2798L40.7513 69.2798L40.6172 69.0114ZM50.1172 63.2798L54.1172 65.2798L54.2513 65.0114L50.2513 63.0114L50.1172 63.2798ZM46.2513 65.2798L50.2513 63.2798L50.1172 63.0114L46.1172 65.0114L46.2513 65.2798ZM50.2513 67.0114L46.2513 65.0114L46.1172 65.2798L50.1172 67.2798L50.2513 67.0114ZM54.1172 65.0114L50.1172 67.0114L50.2513 67.2798L54.2513 65.2798L54.1172 65.0114ZM59.6172 63.2798L63.6172 65.2798L63.7513 65.0114L59.7513 63.0114L59.6172 63.2798ZM55.7513 65.2798L59.7513 63.2798L59.6172 63.0114L55.6172 65.0114L55.7513 65.2798ZM59.7513 67.0114L55.7513 65.0114L55.6172 65.2798L59.6172 67.2798L59.7513 67.0114ZM63.6172 65.0114L59.6172 67.0114L59.7513 67.2798L63.7513 65.2798L63.6172 65.0114ZM44.7513 65.0114L40.7513 63.0114L40.6172 63.2798L44.6172 65.2798L44.7513 65.0114ZM40.7513 67.2798L44.7513 65.2798L44.6172 65.0114L40.6172 67.0114L40.7513 67.2798ZM36.6172 65.2798L40.6172 67.2798L40.7513 67.0114L36.7513 65.0114L36.6172 65.2798ZM40.6172 63.0114L36.6172 65.0114L36.7513 65.2798L40.7513 63.2798L40.6172 63.0114ZM54.2513 59.0114L50.2513 57.0114L50.1172 57.2798L54.1172 59.2798L54.2513 59.0114ZM50.2513 61.2798L54.2513 59.2798L54.1172 59.0114L50.1172 61.0114L50.2513 61.2798ZM46.1172 59.2798L50.1172 61.2798L50.2513 61.0114L46.2513 59.0114L46.1172 59.2798ZM50.1172 57.0114L46.1172 59.0114L46.2513 59.2798L50.2513 57.2798L50.1172 57.0114ZM63.7513 59.0114L59.7513 57.0114L59.6172 57.2798L63.6172 59.2798L63.7513 59.0114ZM59.7513 61.2798L63.7513 59.2798L63.6172 59.0114L59.6172 61.0114L59.7513 61.2798ZM55.6172 59.2798L59.6172 61.2798L59.7513 61.0114L55.7513 59.0114L55.6172 59.2798ZM59.6172 57.0114L55.6172 59.0114L55.7513 59.2798L59.7513 57.2798L59.6172 57.0114ZM40.6172 57.2798L44.6172 59.2798L44.7513 59.0114L40.7513 57.0114L40.6172 57.2798ZM36.7513 59.2798L40.7513 57.2798L40.6172 57.0114L36.6172 59.0114L36.7513 59.2798ZM40.7513 61.0114L36.7513 59.0114L36.6172 59.2798L40.6172 61.2798L40.7513 61.0114ZM44.6172 59.0114L40.6172 61.0114L40.7513 61.2798L44.7513 59.2798L44.6172 59.0114ZM55.1172 66.2798L59.1172 68.2798L59.2513 68.0114L55.2513 66.0114L55.1172 66.2798ZM51.2513 68.2798L55.2513 66.2798L55.1172 66.0114L51.1172 68.0114L51.2513 68.2798ZM55.2513 70.0114L51.2513 68.0114L51.1172 68.2798L55.1172 70.2798L55.2513 70.0114ZM59.1172 68.0114L55.1172 70.0114L55.2513 70.2798L59.2513 68.2798L59.1172 68.0114ZM64.6171 66.2798L68.6172 68.2798L68.7513 68.0114L64.7513 66.0114L64.6171 66.2798ZM60.7513 68.2798L64.7513 66.2798L64.6171 66.0114L60.6172 68.0114L60.7513 68.2798ZM64.7513 70.0114L60.7513 68.0114L60.6172 68.2798L64.6171 70.2798L64.7513 70.0114ZM68.6172 68.0114L64.6171 70.0114L64.7513 70.2798L68.7513 68.2798L68.6172 68.0114ZM49.7513 68.0114L45.7513 66.0114L45.6172 66.2798L49.6172 68.2798L49.7513 68.0114ZM45.7513 70.2798L49.7513 68.2798L49.6172 68.0114L45.6172 70.0114L45.7513 70.2798ZM41.6172 68.2798L45.6172 70.2798L45.7513 70.0114L41.7513 68.0114L41.6172 68.2798ZM45.6172 66.0114L41.6172 68.0114L41.7513 68.2798L45.7513 66.2798L45.6172 66.0114ZM36.1172 66.2798L40.1172 68.2798L40.2513 68.0114L36.2513 66.0114L36.1172 66.2798ZM32.2513 68.2798L36.2513 66.2798L36.1172 66.0114L32.1172 68.0114L32.2513 68.2798ZM36.2513 70.0114L32.2513 68.0114L32.1172 68.2798L36.1172 70.2798L36.2513 70.0114ZM40.1172 68.0114L36.1172 70.0114L36.2513 70.2798L40.2513 68.2798L40.1172 68.0114ZM59.2513 62.0114L55.2513 60.0114L55.1172 60.2798L59.1172 62.2798L59.2513 62.0114ZM55.2513 64.2798L59.2513 62.2798L59.1172 62.0114L55.1172 64.0114L55.2513 64.2798ZM51.1172 62.2798L55.1172 64.2798L55.2513 64.0114L51.2513 62.0114L51.1172 62.2798ZM55.1172 60.0114L51.1172 62.0114L51.2513 62.2798L55.2513 60.2798L55.1172 60.0114ZM68.7513 62.0114L64.7513 60.0114L64.6171 60.2798L68.6172 62.2798L68.7513 62.0114ZM64.7513 64.2798L68.7513 62.2798L68.6172 62.0114L64.6171 64.0114L64.7513 64.2798ZM60.6172 62.2798L64.6171 64.2798L64.7513 64.0114L60.7513 62.0114L60.6172 62.2798ZM64.6171 60.0114L60.6172 62.0114L60.7513 62.2798L64.7513 60.2798L64.6171 60.0114ZM45.6172 60.2798L49.6172 62.2798L49.7513 62.0114L45.7513 60.0114L45.6172 60.2798ZM41.7513 62.2798L45.7513 60.2798L45.6172 60.0114L41.6172 62.0114L41.7513 62.2798ZM45.7513 64.0114L41.7513 62.0114L41.6172 62.2798L45.6172 64.2798L45.7513 64.0114ZM49.6172 62.0114L45.6172 64.0114L45.7513 64.2798L49.7513 62.2798L49.6172 62.0114ZM40.2513 62.0114L36.2513 60.0114L36.1172 60.2798L40.1172 62.2798L40.2513 62.0114ZM36.2513 64.2798L40.2513 62.2798L40.1172 62.0114L36.1172 64.0114L36.2513 64.2798ZM32.1172 62.2798L36.1172 64.2798L36.2513 64.0114L32.2513 62.0114L32.1172 62.2798ZM36.1172 60.0114L32.1172 62.0114L32.2513 62.2798L36.2513 60.2798L36.1172 60.0114ZM55.1172 54.2798L59.1172 56.2798L59.2513 56.0114L55.2513 54.0114L55.1172 54.2798ZM51.2513 56.2798L55.2513 54.2798L55.1172 54.0114L51.1172 56.0114L51.2513 56.2798ZM55.2513 58.0114L51.2513 56.0114L51.1172 56.2798L55.1172 58.2798L55.2513 58.0114ZM59.1172 56.0114L55.1172 58.0114L55.2513 58.2798L59.2513 56.2798L59.1172 56.0114ZM64.6171 54.2798L68.6172 56.2798L68.7513 56.0114L64.7513 54.0114L64.6171 54.2798ZM60.7513 56.2798L64.7513 54.2798L64.6171 54.0114L60.6172 56.0114L60.7513 56.2798ZM64.7513 58.0114L60.7513 56.0114L60.6172 56.2798L64.6171 58.2798L64.7513 58.0114ZM68.6172 56.0114L64.6171 58.0114L64.7513 58.2798L68.7513 56.2798L68.6172 56.0114ZM49.7513 56.0114L45.7513 54.0114L45.6172 54.2798L49.6172 56.2798L49.7513 56.0114ZM45.7513 58.2798L49.7513 56.2798L49.6172 56.0114L45.6172 58.0114L45.7513 58.2798ZM41.6172 56.2798L45.6172 58.2798L45.7513 58.0114L41.7513 56.0114L41.6172 56.2798ZM45.6172 54.0114L41.6172 56.0114L41.7513 56.2798L45.7513 54.2798L45.6172 54.0114ZM36.1172 54.2798L40.1172 56.2798L40.2513 56.0114L36.2513 54.0114L36.1172 54.2798ZM32.2513 56.2798L36.2513 54.2798L36.1172 54.0114L32.1172 56.0114L32.2513 56.2798ZM36.2513 58.0114L32.2513 56.0114L32.1172 56.2798L36.1172 58.2798L36.2513 58.0114ZM40.1172 56.0114L36.1172 58.0114L36.2513 58.2798L40.2513 56.2798L40.1172 56.0114Z" fill="black"/>
<path d="M30.1505 53.1499H70.6764V74.1438H30.1504L30.1505 53.1499Z" stroke="black" stroke-width="0.3"/>
<path d="M41.951 39C41.3095 39 40.6256 39.4844 40.4156 40.0871L39.6391 42.324L38.0313 46.9488C38.0295 46.9532 38.0322 46.9576 38.0313 46.9629L37.6536 48.0394C37.437 48.0384 37.2223 48.0801 37.0218 48.1622C36.8214 48.2444 36.6391 48.3653 36.4854 48.518C36.3318 48.6707 36.2098 48.8523 36.1265 49.0523C36.0432 49.2523 36.0002 49.4667 36 49.6834V56.2573C36 57.168 36.7377 57.9013 37.6536 57.9013H62.4724C63.3883 57.9013 64.126 57.1689 64.126 56.2573V49.6834C64.1257 49.4668 64.0826 49.2524 63.9992 49.0526C63.9159 48.8527 63.7939 48.6712 63.6402 48.5186C63.4866 48.3659 63.3044 48.2451 63.104 48.163C62.9036 48.081 62.6889 48.0393 62.4724 48.0403L62.0947 46.9629C62.0938 46.9585 62.0965 46.9532 62.0947 46.9488L60.4869 42.324L59.7104 40.0871C59.5004 39.4844 58.8165 39 58.175 39H41.951ZM42.4566 40.6439H57.6694C57.9897 40.6439 58.3365 40.8857 58.4415 41.1875L60.8178 48.0403H39.3073L41.688 41.1875C41.793 40.8857 42.1363 40.6439 42.4566 40.6439ZM37.6545 58.7228V62.0107C37.6569 62.6665 37.9196 63.2946 38.3849 63.7567C38.8502 64.2189 39.48 64.4773 40.1359 64.4752C40.4607 64.4764 40.7825 64.4136 41.0831 64.2903C41.3836 64.1671 41.6569 63.9859 41.8874 63.757C42.1179 63.5282 42.3011 63.2562 42.4264 62.9565C42.5518 62.6569 42.6169 62.3355 42.6181 62.0107V58.7228H37.6545ZM57.5088 58.7228V62.0107C57.5111 62.6665 57.7738 63.2946 58.2392 63.7567C58.7045 64.2189 59.3343 64.4773 59.9901 64.4752C60.315 64.4764 60.6368 64.4136 60.9373 64.2903C61.2379 64.1671 61.5112 63.9859 61.7417 63.757C61.9722 63.5282 62.1553 63.2562 62.2807 62.9565C62.4061 62.6569 62.4712 62.3355 62.4724 62.0107V58.7228H57.5088Z" fill="black"/>
</svg>
