<svg width="95" height="136" xmlns="http://www.w3.org/2000/svg"><g transform="translate(5 4)" fill="none" fill-rule="evenodd"><rect stroke="#000" fill="#FFF" x=".5" y=".5" width="85" height="127" rx="6"/><g fill-rule="nonzero"><path d="M6.03 3A3.018 3.018 0 0 0 3 6.02v115.96A3.018 3.018 0 0 0 6.03 125h73.94a3.018 3.018 0 0 0 3.03-3.02V6.02A3.018 3.018 0 0 0 79.97 3H6.03zm7.508 19h58.924C75.53 22 78 24.435 78 27.46v58.08c0 3.025-2.47 5.46-5.538 5.46H13.538C10.47 91 8 88.565 8 85.54V27.46C8 24.434 10.47 22 13.538 22zm17.48 71.545c.594.02 1.135.096 1.622.23.487.135.747.211.777.23l.28 1.707c-.02-.025-.263-.121-.724-.291-.46-.17-1.016-.266-1.67-.29-.831.046-1.435.373-1.814.98-.38.61-.619 1.22-.716 1.828-.098.608-.14.934-.125.981.348-.296.75-.566 1.212-.811a3.251 3.251 0 0 1 1.443-.393c.303-.008.681.079 1.14.264.46.186.874.519 1.239 1 .365.482.558 1.166.58 2.047-.033 1.152-.393 2.11-1.076 2.876-.684.766-1.5 1.163-2.447 1.193-1.212-.009-2.17-.48-2.872-1.42-.701-.938-1.057-2.29-1.072-4.054-.008-1.604.326-3.004 1.004-4.197.678-1.193 1.75-1.82 3.22-1.88zm9.736.042c.948 0 1.763.244 2.447.736.684.49 1.043 1.229 1.076 2.212-.025.65-.195 1.16-.512 1.528-.316.37-.634.627-.95.778-.317.15-.488.224-.512.219.028-.002.225.095.587.29.362.196.722.504 1.083.918.362.414.556.947.584 1.6.017.749-.264 1.462-.845 2.14-.58.68-1.567 1.04-2.958 1.088-1.391-.047-2.377-.409-2.959-1.087-.58-.679-.862-1.392-.844-2.14.028-.654.221-1.187.583-1.601.362-.414.725-.722 1.087-.917.362-.196.556-.293.584-.291-.025.005-.195-.068-.512-.219-.316-.15-.63-.408-.947-.778-.316-.369-.487-.879-.511-1.528.032-.983.388-1.721 1.072-2.212.684-.492 1.499-.736 2.447-.736zm14.663 0c1.144.04 2.06.598 2.746 1.68.687 1.08 1.04 2.437 1.057 4.072-.018 1.714-.37 3.098-1.057 4.145-.687 1.047-1.602 1.582-2.746 1.612-1.145-.03-2.064-.565-2.75-1.612-.687-1.047-1.036-2.431-1.053-4.145.017-1.713.366-3.094 1.053-4.14.686-1.048 1.605-1.583 2.75-1.612zM40.754 95.19c-.435-.006-.798.094-1.091.302-.294.207-.447.556-.458 1.042.064.438.324.825.776 1.158.452.334.708.508.773.525.064-.017.324-.191.776-.525.452-.333.708-.72.773-1.158-.012-.486-.165-.835-.458-1.042-.294-.208-.657-.308-1.091-.302zm14.663.14c-.552-.009-.996.307-1.326.95-.33.644-.5 1.663-.508 3.058.009 1.396.178 2.418.508 3.062.33.643.774.96 1.326.95.551.01.991-.307 1.322-.95.33-.644.499-1.666.507-3.062-.008-1.395-.177-2.414-.507-3.057-.33-.644-.77-.96-1.322-.952zm-24.398 4.008c-.529.059-1.038.293-1.534.702-.496.41-.764.644-.8.702-.001.032.058.252.179.657.12.406.312.81.575 1.216.264.405.61.625 1.038.657.627-.033 1.108-.285 1.443-.755.336-.471.505-.968.508-1.491-.023-.562-.187-.984-.492-1.265-.306-.28-.612-.423-.917-.423zm9.735.563c-.023.007-.18.118-.474.328-.294.21-.588.477-.882.797-.294.32-.451.646-.474.981.024.488.223.847.599 1.072.375.225.785.335 1.23.332a2.33 2.33 0 0 0 1.236-.332c.375-.225.575-.584.598-1.072-.022-.38-.183-.728-.477-1.046a4.793 4.793 0 0 0-.879-.762c-.294-.192-.455-.293-.477-.298zm7.326 2.706a1.225 1.225 0 0 1 1.227 1.223 1.108 1.108 0 0 1-.042.287c-.026.09-.057.178-.09.264-.097.21-.325.612-.686 1.204a29.91 29.91 0 0 1-.754 1.193h-.924l1.098-1.732a1.229 1.229 0 0 1-.754-.408 1.218 1.218 0 0 1 .053-1.672c.231-.23.524-.35.872-.359zm-19.262 6.312h1.856l2.387 5.152 2.386-5.152h1.856l1.193 10.569h-1.988l-.663-7.795-2.784 6.21-2.784-6.21-.663 7.795h-1.989l1.193-10.57zm12.724 0h6.628v1.585h-4.772v8.984h-1.856v-10.57zm9.409 3.17h1.59v5.946h2.785v-5.946h1.59v5.946h1.459v3.038h-1.59v-1.585H50.95v-7.399z" fill="#0D69E1"/><g fill="#000"><path d="M14.715 46.947v14.474h2.533v-5.066H19.6c1.47-.083 2.646-.64 3.528-1.673.882-1.033 1.334-2.043 1.357-3.03.023-.988-.34-1.998-1.085-3.031-.747-1.033-2.013-1.59-3.8-1.674h-4.885zm2.533 2.171h1.629c.753-.007 1.417.189 1.99.588.573.4.874 1.048.904 1.945-.03.897-.331 1.546-.904 1.945-.573.4-1.237.596-1.99.588h-1.629v-5.066zM31.404 50.928c-.893.018-1.64.162-2.239.43-.6.267-1.12.546-1.56.836l1.085 1.81c.283-.29.667-.57 1.154-.837a3.435 3.435 0 0 1 1.56-.43c.565.026 1.063.2 1.493.52.43.32.655.63.678.927v.724c-.076-.02-.607.039-1.595.174-.987.135-1.974.461-2.961.978-.988.518-1.52 1.34-1.595 2.466.045 1.086.407 1.9 1.085 2.443.679.543 1.402.814 2.171.814.732-.023 1.35-.204 1.855-.543.505-.34.852-.7 1.04-1.085.09.7.317 1.153.679 1.357.361.203.859.294 1.492.27l.905-1.808a1.096 1.096 0 0 1-.588-.113c-.196-.095-.302-.358-.317-.792v-4.885c-.068-.927-.565-1.696-1.492-2.307-.928-.61-1.878-.927-2.85-.95zm2.171 5.608v1.81c-.03.146-.286.44-.769.881-.482.441-1.01.69-1.583.747-.219.011-.505-.102-.86-.34-.354-.237-.55-.667-.587-1.289.03-.528.291-.899.784-1.112a5.872 5.872 0 0 1 1.628-.429c.593-.072 1.055-.162 1.387-.268zM40.133 51.29c-.006 1.79-.143 3.338-.41 4.642-.268 1.304-.631 2.47-1.09 3.499H37.6v4.161h2.17v-2.17h6.876v2.17h1.99v-4.161h-1.267v-8.142h-7.236zm2.17 1.99h2.895v6.15h-4.213c.44-.898.75-1.891.93-2.978.182-1.086.311-2.144.389-3.172zM50.451 51.29V61.42l2.352.003 4.162-6.878v6.875h2.171V51.29h-2.352l-4.162 6.875V51.29zM66.58 50.928c-1.383.022-2.506.52-3.369 1.492-.863.973-1.308 2.284-1.334 3.935.026 1.651.47 2.963 1.334 3.935.863.973 1.986 1.47 3.37 1.493 1.383-.023 2.506-.52 3.37-1.493.862-.972 1.307-2.284 1.334-3.935-.027-1.65-.472-2.962-1.335-3.935-.863-.972-1.986-1.47-3.37-1.492zm0 1.809c.74.015 1.343.347 1.81.995.467.648.709 1.523.724 2.623-.015 1.1-.257 1.975-.724 2.624-.467.648-1.07.98-1.81.995-.738-.015-1.341-.347-1.809-.995-.467-.649-.708-1.523-.723-2.624.015-1.1.256-1.975.723-2.623.468-.648 1.07-.98 1.81-.995z"/></g></g></g></svg>